%TF.GenerationSoftware,KiCad,Pcbnew,8.0.4*%
%TF.CreationDate,2024-12-15T00:35:54-05:00*%
%TF.ProjectId,V1.03,56312e30-332e-46b6-9963-61645f706362,rev?*%
%TF.SameCoordinates,Original*%
%TF.FileFunction,Legend,Top*%
%TF.FilePolarity,Positive*%
%FSLAX46Y46*%
G04 Gerber Fmt 4.6, Leading zero omitted, Abs format (unit mm)*
G04 Created by KiCad (PCBNEW 8.0.4) date 2024-12-15 00:35:54*
%MOMM*%
%LPD*%
G01*
G04 APERTURE LIST*
%ADD10C,0.100000*%
%ADD11C,0.230000*%
%ADD12C,0.150000*%
%ADD13C,0.300000*%
%ADD14C,0.120000*%
%ADD15C,0.200000*%
%ADD16C,0.127000*%
G04 APERTURE END LIST*
D10*
X144920000Y-79530000D02*
X145790000Y-79530000D01*
X145790000Y-80760000D01*
X144920000Y-80760000D01*
X144920000Y-79530000D01*
G36*
X144920000Y-79530000D02*
G01*
X145790000Y-79530000D01*
X145790000Y-80760000D01*
X144920000Y-80760000D01*
X144920000Y-79530000D01*
G37*
X189800000Y-104990000D02*
X190590000Y-104990000D01*
X190590000Y-106030000D01*
X189800000Y-106030000D01*
X189800000Y-104990000D01*
G36*
X189800000Y-104990000D02*
G01*
X190590000Y-104990000D01*
X190590000Y-106030000D01*
X189800000Y-106030000D01*
X189800000Y-104990000D01*
G37*
X156830000Y-79515000D02*
X157680000Y-79515000D01*
X157680000Y-80795000D01*
X156830000Y-80795000D01*
X156830000Y-79515000D01*
G36*
X156830000Y-79515000D02*
G01*
X157680000Y-79515000D01*
X157680000Y-80795000D01*
X156830000Y-80795000D01*
X156830000Y-79515000D01*
G37*
X189805000Y-86610000D02*
X190595000Y-86610000D01*
X190595000Y-87650000D01*
X189805000Y-87650000D01*
X189805000Y-86610000D01*
G36*
X189805000Y-86610000D02*
G01*
X190595000Y-86610000D01*
X190595000Y-87650000D01*
X189805000Y-87650000D01*
X189805000Y-86610000D01*
G37*
X172510000Y-79455000D02*
X173380000Y-79455000D01*
X173380000Y-80685000D01*
X172510000Y-80685000D01*
X172510000Y-79455000D01*
G36*
X172510000Y-79455000D02*
G01*
X173380000Y-79455000D01*
X173380000Y-80685000D01*
X172510000Y-80685000D01*
X172510000Y-79455000D01*
G37*
X188650000Y-79435000D02*
X189940000Y-79435000D01*
X189940000Y-80665000D01*
X188650000Y-80665000D01*
X188650000Y-79435000D01*
G36*
X188650000Y-79435000D02*
G01*
X189940000Y-79435000D01*
X189940000Y-80665000D01*
X188650000Y-80665000D01*
X188650000Y-79435000D01*
G37*
X189795000Y-102500000D02*
X190585000Y-102500000D01*
X190585000Y-103710000D01*
X189795000Y-103710000D01*
X189795000Y-102500000D01*
G36*
X189795000Y-102500000D02*
G01*
X190585000Y-102500000D01*
X190585000Y-103710000D01*
X189795000Y-103710000D01*
X189795000Y-102500000D01*
G37*
X189730000Y-100410000D02*
X190570000Y-100410000D01*
X190570000Y-101450000D01*
X189730000Y-101450000D01*
X189730000Y-100410000D01*
G36*
X189730000Y-100410000D02*
G01*
X190570000Y-100410000D01*
X190570000Y-101450000D01*
X189730000Y-101450000D01*
X189730000Y-100410000D01*
G37*
X175230000Y-79455000D02*
X176070000Y-79455000D01*
X176070000Y-80685000D01*
X175230000Y-80685000D01*
X175230000Y-79455000D01*
G36*
X175230000Y-79455000D02*
G01*
X176070000Y-79455000D01*
X176070000Y-80685000D01*
X175230000Y-80685000D01*
X175230000Y-79455000D01*
G37*
X184070000Y-79405000D02*
X185360000Y-79405000D01*
X185360000Y-80635000D01*
X184070000Y-80635000D01*
X184070000Y-79405000D01*
G36*
X184070000Y-79405000D02*
G01*
X185360000Y-79405000D01*
X185360000Y-80635000D01*
X184070000Y-80635000D01*
X184070000Y-79405000D01*
G37*
X189745000Y-79430000D02*
X190535000Y-79430000D01*
X190535000Y-80700000D01*
X189745000Y-80700000D01*
X189745000Y-79430000D01*
G36*
X189745000Y-79430000D02*
G01*
X190535000Y-79430000D01*
X190535000Y-80700000D01*
X189745000Y-80700000D01*
X189745000Y-79430000D01*
G37*
X189725000Y-93290000D02*
X190565000Y-93290000D01*
X190565000Y-94500000D01*
X189725000Y-94500000D01*
X189725000Y-93290000D01*
G36*
X189725000Y-93290000D02*
G01*
X190565000Y-93290000D01*
X190565000Y-94500000D01*
X189725000Y-94500000D01*
X189725000Y-93290000D01*
G37*
X189730000Y-95780000D02*
X190570000Y-95780000D01*
X190570000Y-96820000D01*
X189730000Y-96820000D01*
X189730000Y-95780000D01*
G36*
X189730000Y-95780000D02*
G01*
X190570000Y-95780000D01*
X190570000Y-96820000D01*
X189730000Y-96820000D01*
X189730000Y-95780000D01*
G37*
X181840000Y-79405000D02*
X183200000Y-79405000D01*
X183200000Y-80635000D01*
X181840000Y-80635000D01*
X181840000Y-79405000D01*
G36*
X181840000Y-79405000D02*
G01*
X183200000Y-79405000D01*
X183200000Y-80635000D01*
X181840000Y-80635000D01*
X181840000Y-79405000D01*
G37*
X147640000Y-79530000D02*
X148440000Y-79530000D01*
X148440000Y-80760000D01*
X147640000Y-80760000D01*
X147640000Y-79530000D01*
G36*
X147640000Y-79530000D02*
G01*
X148440000Y-79530000D01*
X148440000Y-80760000D01*
X147640000Y-80760000D01*
X147640000Y-79530000D01*
G37*
X189735000Y-97920000D02*
X190565000Y-97920000D01*
X190565000Y-99130000D01*
X189735000Y-99130000D01*
X189735000Y-97920000D01*
G36*
X189735000Y-97920000D02*
G01*
X190565000Y-97920000D01*
X190565000Y-99130000D01*
X189735000Y-99130000D01*
X189735000Y-97920000D01*
G37*
X193240000Y-72230000D02*
X193260000Y-72230000D01*
X193260000Y-76740000D01*
X193240000Y-76740000D01*
X193240000Y-72230000D01*
X177060000Y-79455000D02*
X178420000Y-79455000D01*
X178420000Y-80685000D01*
X177060000Y-80685000D01*
X177060000Y-79455000D01*
G36*
X177060000Y-79455000D02*
G01*
X178420000Y-79455000D01*
X178420000Y-80685000D01*
X177060000Y-80685000D01*
X177060000Y-79455000D01*
G37*
X192030000Y-71230000D02*
X193260000Y-71230000D01*
X193260000Y-73880000D01*
X192030000Y-73880000D01*
X192030000Y-71230000D01*
G36*
X192030000Y-71230000D02*
G01*
X193260000Y-71230000D01*
X193260000Y-73880000D01*
X192030000Y-73880000D01*
X192030000Y-71230000D01*
G37*
X158720000Y-79565000D02*
X159590000Y-79565000D01*
X159590000Y-80795000D01*
X158720000Y-80795000D01*
X158720000Y-79565000D01*
G36*
X158720000Y-79565000D02*
G01*
X159590000Y-79565000D01*
X159590000Y-80795000D01*
X158720000Y-80795000D01*
X158720000Y-79565000D01*
G37*
X161440000Y-79565000D02*
X162270000Y-79565000D01*
X162270000Y-80795000D01*
X161440000Y-80795000D01*
X161440000Y-79565000D01*
G36*
X161440000Y-79565000D02*
G01*
X162270000Y-79565000D01*
X162270000Y-80795000D01*
X161440000Y-80795000D01*
X161440000Y-79565000D01*
G37*
X179290000Y-79455000D02*
X180670000Y-79455000D01*
X180670000Y-80685000D01*
X179290000Y-80685000D01*
X179290000Y-79455000D01*
G36*
X179290000Y-79455000D02*
G01*
X180670000Y-79455000D01*
X180670000Y-80685000D01*
X179290000Y-80685000D01*
X179290000Y-79455000D01*
G37*
X149500000Y-79535000D02*
X150370000Y-79535000D01*
X150370000Y-80765000D01*
X149500000Y-80765000D01*
X149500000Y-79535000D01*
G36*
X149500000Y-79535000D02*
G01*
X150370000Y-79535000D01*
X150370000Y-80765000D01*
X149500000Y-80765000D01*
X149500000Y-79535000D01*
G37*
X189750000Y-81980000D02*
X190540000Y-81980000D01*
X190540000Y-83020000D01*
X189750000Y-83020000D01*
X189750000Y-81980000D01*
G36*
X189750000Y-81980000D02*
G01*
X190540000Y-81980000D01*
X190540000Y-83020000D01*
X189750000Y-83020000D01*
X189750000Y-81980000D01*
G37*
X189785000Y-88700000D02*
X190575000Y-88700000D01*
X190575000Y-89910000D01*
X189785000Y-89910000D01*
X189785000Y-88700000D01*
G36*
X189785000Y-88700000D02*
G01*
X190575000Y-88700000D01*
X190575000Y-89910000D01*
X189785000Y-89910000D01*
X189785000Y-88700000D01*
G37*
X186420000Y-79435000D02*
X187780000Y-79435000D01*
X187780000Y-80665000D01*
X186420000Y-80665000D01*
X186420000Y-79435000D01*
G36*
X186420000Y-79435000D02*
G01*
X187780000Y-79435000D01*
X187780000Y-80665000D01*
X186420000Y-80665000D01*
X186420000Y-79435000D01*
G37*
X198470000Y-76830000D02*
X199260000Y-76830000D01*
X199260000Y-79470000D01*
X198470000Y-79470000D01*
X198470000Y-76830000D01*
G36*
X198470000Y-76830000D02*
G01*
X199260000Y-76830000D01*
X199260000Y-79470000D01*
X198470000Y-79470000D01*
X198470000Y-76830000D01*
G37*
X154110000Y-79520000D02*
X154980000Y-79520000D01*
X154980000Y-80790000D01*
X154110000Y-80790000D01*
X154110000Y-79520000D01*
G36*
X154110000Y-79520000D02*
G01*
X154980000Y-79520000D01*
X154980000Y-80790000D01*
X154110000Y-80790000D01*
X154110000Y-79520000D01*
G37*
X189790000Y-91190000D02*
X190580000Y-91190000D01*
X190580000Y-92230000D01*
X189790000Y-92230000D01*
X189790000Y-91190000D01*
G36*
X189790000Y-91190000D02*
G01*
X190580000Y-91190000D01*
X190580000Y-92230000D01*
X189790000Y-92230000D01*
X189790000Y-91190000D01*
G37*
X196370000Y-76830000D02*
X196630000Y-76830000D01*
X196630000Y-79480000D01*
X196370000Y-79480000D01*
X196370000Y-76830000D01*
G36*
X196370000Y-76830000D02*
G01*
X196630000Y-76830000D01*
X196630000Y-79480000D01*
X196370000Y-79480000D01*
X196370000Y-76830000D01*
G37*
X189800000Y-84120000D02*
X190590000Y-84120000D01*
X190590000Y-85330000D01*
X189800000Y-85330000D01*
X189800000Y-84120000D01*
G36*
X189800000Y-84120000D02*
G01*
X190590000Y-84120000D01*
X190590000Y-85330000D01*
X189800000Y-85330000D01*
X189800000Y-84120000D01*
G37*
X152220000Y-79535000D02*
X153020000Y-79535000D01*
X153020000Y-80765000D01*
X152220000Y-80765000D01*
X152220000Y-79535000D01*
G36*
X152220000Y-79535000D02*
G01*
X153020000Y-79535000D01*
X153020000Y-80765000D01*
X152220000Y-80765000D01*
X152220000Y-79535000D01*
G37*
D11*
G36*
X175440335Y-122720410D02*
G01*
X175485374Y-122765448D01*
X175542809Y-122880319D01*
X175607743Y-123140052D01*
X175607743Y-123468884D01*
X175542809Y-123728616D01*
X175485372Y-123843490D01*
X175440336Y-123888526D01*
X175338453Y-123939468D01*
X175249890Y-123939468D01*
X175148006Y-123888526D01*
X175102970Y-123843490D01*
X175045531Y-123728613D01*
X174980600Y-123468885D01*
X174980600Y-123140051D01*
X175045531Y-122880323D01*
X175102969Y-122765447D01*
X175148007Y-122720410D01*
X175249891Y-122669468D01*
X175338452Y-122669468D01*
X175440335Y-122720410D01*
G37*
G36*
X174017765Y-120311494D02*
G01*
X174128229Y-120421958D01*
X174185668Y-120536836D01*
X174250600Y-120796563D01*
X174250600Y-120982540D01*
X174185668Y-121242267D01*
X174128230Y-121357144D01*
X174017764Y-121467609D01*
X173846937Y-121524552D01*
X173623457Y-121524552D01*
X173623457Y-120254552D01*
X173846937Y-120254552D01*
X174017765Y-120311494D01*
G37*
G36*
X175536315Y-121497049D02*
G01*
X175481310Y-121524552D01*
X175178462Y-121524552D01*
X175094173Y-121482408D01*
X175052029Y-121398119D01*
X175052029Y-121309555D01*
X175094172Y-121225267D01*
X175178462Y-121183124D01*
X175508457Y-121183124D01*
X175530892Y-121180914D01*
X175534708Y-121179333D01*
X175536315Y-121179218D01*
X175536315Y-121497049D01*
G37*
G36*
X178750601Y-120782055D02*
G01*
X178750601Y-121497049D01*
X178695596Y-121524552D01*
X178464176Y-121524552D01*
X178362292Y-121473610D01*
X178317256Y-121428574D01*
X178266315Y-121326691D01*
X178266315Y-120952412D01*
X178317254Y-120850532D01*
X178362293Y-120805494D01*
X178464177Y-120754552D01*
X178695595Y-120754552D01*
X178750601Y-120782055D01*
G37*
G36*
X181374909Y-121025780D02*
G01*
X181413944Y-121064815D01*
X181464886Y-121166698D01*
X181464886Y-121326691D01*
X181413944Y-121428574D01*
X181368908Y-121473610D01*
X181267025Y-121524552D01*
X180837743Y-121524552D01*
X180837743Y-120968838D01*
X181204080Y-120968838D01*
X181374909Y-121025780D01*
G37*
G36*
X181297480Y-120305494D02*
G01*
X181342515Y-120350530D01*
X181393458Y-120452414D01*
X181393458Y-120540975D01*
X181342515Y-120642859D01*
X181297480Y-120687895D01*
X181195595Y-120738838D01*
X180837743Y-120738838D01*
X180837743Y-120254552D01*
X181195595Y-120254552D01*
X181297480Y-120305494D01*
G37*
G36*
X182750601Y-121497049D02*
G01*
X182695596Y-121524552D01*
X182392748Y-121524552D01*
X182308459Y-121482408D01*
X182266315Y-121398119D01*
X182266315Y-121309555D01*
X182308458Y-121225267D01*
X182392748Y-121183124D01*
X182722743Y-121183124D01*
X182745178Y-121180914D01*
X182748994Y-121179333D01*
X182750601Y-121179218D01*
X182750601Y-121497049D01*
G37*
G36*
X186583193Y-120805494D02*
G01*
X186628232Y-120850532D01*
X186679172Y-120952412D01*
X186679172Y-121326691D01*
X186628230Y-121428574D01*
X186583194Y-121473610D01*
X186481311Y-121524552D01*
X186321319Y-121524552D01*
X186219435Y-121473610D01*
X186174399Y-121428574D01*
X186123458Y-121326691D01*
X186123458Y-120952412D01*
X186174397Y-120850532D01*
X186219436Y-120805494D01*
X186321320Y-120754552D01*
X186481310Y-120754552D01*
X186583193Y-120805494D01*
G37*
G36*
X189004411Y-124336135D02*
G01*
X173086142Y-124336135D01*
X173086142Y-124032033D01*
X173252809Y-124032033D01*
X173252809Y-124076903D01*
X173269981Y-124118359D01*
X173301709Y-124150087D01*
X173343165Y-124167259D01*
X173343175Y-124167259D01*
X173365600Y-124169468D01*
X174294172Y-124169468D01*
X174316607Y-124167258D01*
X174358063Y-124150087D01*
X174389791Y-124118359D01*
X174406962Y-124076903D01*
X174406962Y-124032033D01*
X174389791Y-123990577D01*
X174358063Y-123958849D01*
X174316607Y-123941678D01*
X174294172Y-123939468D01*
X173643234Y-123939468D01*
X174304060Y-123278642D01*
X174318361Y-123261216D01*
X174319942Y-123257397D01*
X174322650Y-123254276D01*
X174331841Y-123233691D01*
X174367773Y-123125897D01*
X174750600Y-123125897D01*
X174750600Y-123483040D01*
X174750985Y-123486953D01*
X174750736Y-123488630D01*
X174751977Y-123497027D01*
X174752810Y-123505475D01*
X174753458Y-123507041D01*
X174754034Y-123510931D01*
X174825462Y-123796645D01*
X174826053Y-123798299D01*
X174826112Y-123799129D01*
X174829694Y-123808491D01*
X174833047Y-123817874D01*
X174833539Y-123818538D01*
X174834169Y-123820184D01*
X174905598Y-123963041D01*
X174911675Y-123972694D01*
X174912838Y-123975502D01*
X174915432Y-123978663D01*
X174917608Y-123982119D01*
X174919900Y-123984107D01*
X174927140Y-123992928D01*
X174998569Y-124064357D01*
X175007392Y-124071598D01*
X175009379Y-124073889D01*
X175012830Y-124076061D01*
X175015995Y-124078659D01*
X175018805Y-124079823D01*
X175028457Y-124085899D01*
X175171314Y-124157327D01*
X175192369Y-124165384D01*
X175196490Y-124165676D01*
X175200308Y-124167258D01*
X175222743Y-124169468D01*
X175365600Y-124169468D01*
X175388035Y-124167258D01*
X175391852Y-124165676D01*
X175395974Y-124165384D01*
X175417029Y-124157327D01*
X175559886Y-124085899D01*
X175569539Y-124079822D01*
X175572348Y-124078659D01*
X175575509Y-124076063D01*
X175578965Y-124073889D01*
X175580953Y-124071596D01*
X175589774Y-124064357D01*
X175622098Y-124032033D01*
X176109951Y-124032033D01*
X176109951Y-124076903D01*
X176127123Y-124118359D01*
X176158851Y-124150087D01*
X176200307Y-124167259D01*
X176200317Y-124167259D01*
X176222742Y-124169468D01*
X177151314Y-124169468D01*
X177173749Y-124167258D01*
X177215205Y-124150087D01*
X177246933Y-124118359D01*
X177264104Y-124076903D01*
X177264104Y-124032033D01*
X177246933Y-123990577D01*
X177215205Y-123958849D01*
X177173749Y-123941678D01*
X177151314Y-123939468D01*
X176500376Y-123939468D01*
X176899760Y-123540084D01*
X177608645Y-123540084D01*
X177609952Y-123558474D01*
X177609952Y-123576903D01*
X177611532Y-123580719D01*
X177611826Y-123584843D01*
X177620071Y-123601333D01*
X177627123Y-123618359D01*
X177630044Y-123621280D01*
X177631892Y-123624976D01*
X177645813Y-123637049D01*
X177658851Y-123650087D01*
X177662671Y-123651669D01*
X177665791Y-123654375D01*
X177683275Y-123660203D01*
X177700307Y-123667258D01*
X177706169Y-123667835D01*
X177708358Y-123668565D01*
X177711388Y-123668349D01*
X177722742Y-123669468D01*
X178322028Y-123669468D01*
X178322028Y-124054468D01*
X178324238Y-124076903D01*
X178341409Y-124118359D01*
X178373137Y-124150087D01*
X178414593Y-124167258D01*
X178459463Y-124167258D01*
X178500919Y-124150087D01*
X178532647Y-124118359D01*
X178549818Y-124076903D01*
X178552028Y-124054468D01*
X178552028Y-123669468D01*
X178651313Y-123669468D01*
X178673748Y-123667258D01*
X178715204Y-123650087D01*
X178746932Y-123618359D01*
X178764103Y-123576903D01*
X178764103Y-123532033D01*
X178746932Y-123490577D01*
X178715204Y-123458849D01*
X178673748Y-123441678D01*
X178651313Y-123439468D01*
X178552028Y-123439468D01*
X178552028Y-123054468D01*
X178549818Y-123032033D01*
X178532647Y-122990577D01*
X178500919Y-122958849D01*
X178459463Y-122941678D01*
X178414593Y-122941678D01*
X178373137Y-122958849D01*
X178341409Y-122990577D01*
X178324238Y-123032033D01*
X178322028Y-123054468D01*
X178322028Y-123439468D01*
X177882296Y-123439468D01*
X178172501Y-122568852D01*
X185751501Y-122568852D01*
X185756499Y-122590834D01*
X186256499Y-124090834D01*
X186265691Y-124111419D01*
X186271071Y-124117623D01*
X186274748Y-124124976D01*
X186285642Y-124134423D01*
X186295090Y-124145318D01*
X186302442Y-124148994D01*
X186308647Y-124154375D01*
X186322321Y-124158933D01*
X186335223Y-124165384D01*
X186343419Y-124165966D01*
X186351214Y-124168565D01*
X186365598Y-124167542D01*
X186379982Y-124168565D01*
X186387777Y-124165966D01*
X186395973Y-124165384D01*
X186408869Y-124158935D01*
X186422549Y-124154376D01*
X186428755Y-124148993D01*
X186436106Y-124145318D01*
X186445552Y-124134425D01*
X186456448Y-124124976D01*
X186460124Y-124117623D01*
X186465505Y-124111419D01*
X186474697Y-124090834D01*
X186848756Y-122968657D01*
X187180072Y-122968657D01*
X187183253Y-123013415D01*
X187203320Y-123053548D01*
X187237218Y-123082948D01*
X187279786Y-123097137D01*
X187324544Y-123093956D01*
X187345599Y-123085899D01*
X187488456Y-123014470D01*
X187498109Y-123008392D01*
X187500917Y-123007230D01*
X187504078Y-123004635D01*
X187507534Y-123002460D01*
X187509522Y-123000167D01*
X187518343Y-122992928D01*
X187607740Y-122903531D01*
X187607740Y-123939468D01*
X187294169Y-123939468D01*
X187271734Y-123941678D01*
X187230278Y-123958849D01*
X187198550Y-123990577D01*
X187181379Y-124032033D01*
X187181379Y-124076903D01*
X187198550Y-124118359D01*
X187230278Y-124150087D01*
X187271734Y-124167258D01*
X187294169Y-124169468D01*
X188151312Y-124169468D01*
X188173747Y-124167258D01*
X188215203Y-124150087D01*
X188246931Y-124118359D01*
X188264102Y-124076903D01*
X188264102Y-124032033D01*
X188246931Y-123990577D01*
X188215203Y-123958849D01*
X188173747Y-123941678D01*
X188151312Y-123939468D01*
X187837740Y-123939468D01*
X187837740Y-122554468D01*
X187837732Y-122554387D01*
X187837740Y-122554347D01*
X187837716Y-122554229D01*
X187835530Y-122532033D01*
X187831174Y-122521518D01*
X187828941Y-122510348D01*
X187822669Y-122500983D01*
X187818359Y-122490577D01*
X187810308Y-122482526D01*
X187803972Y-122473065D01*
X187794597Y-122466815D01*
X187786631Y-122458849D01*
X187776112Y-122454492D01*
X187766638Y-122448176D01*
X187755582Y-122445988D01*
X187745175Y-122441678D01*
X187733794Y-122441678D01*
X187722619Y-122439467D01*
X187711565Y-122441678D01*
X187700305Y-122441678D01*
X187689790Y-122446032D01*
X187678621Y-122448267D01*
X187669257Y-122454537D01*
X187658849Y-122458849D01*
X187650796Y-122466901D01*
X187641338Y-122473236D01*
X187627203Y-122490494D01*
X187627121Y-122490577D01*
X187627105Y-122490613D01*
X187627054Y-122490677D01*
X187490512Y-122695490D01*
X187368905Y-122817097D01*
X187242739Y-122880181D01*
X187223661Y-122892191D01*
X187194261Y-122926089D01*
X187180072Y-122968657D01*
X186848756Y-122968657D01*
X186974697Y-122590834D01*
X186979695Y-122568851D01*
X186976514Y-122524093D01*
X186956448Y-122483960D01*
X186922549Y-122454560D01*
X186879982Y-122440371D01*
X186835223Y-122443552D01*
X186795090Y-122463618D01*
X186765691Y-122497517D01*
X186756499Y-122518102D01*
X186365598Y-123690805D01*
X185974697Y-122518102D01*
X185965505Y-122497517D01*
X185936106Y-122463618D01*
X185895973Y-122443552D01*
X185851214Y-122440371D01*
X185808647Y-122454561D01*
X185774748Y-122483960D01*
X185754682Y-122524093D01*
X185751501Y-122568852D01*
X178172501Y-122568852D01*
X178188983Y-122519407D01*
X178193981Y-122497424D01*
X178190801Y-122452665D01*
X178170735Y-122412532D01*
X178136836Y-122383133D01*
X178094269Y-122368944D01*
X178049510Y-122372124D01*
X178009377Y-122392191D01*
X177979977Y-122426089D01*
X177970786Y-122446674D01*
X177613643Y-123518102D01*
X177611112Y-123529230D01*
X177609952Y-123532033D01*
X177609952Y-123534335D01*
X177608645Y-123540084D01*
X176899760Y-123540084D01*
X177161202Y-123278642D01*
X177175503Y-123261216D01*
X177177084Y-123257397D01*
X177179792Y-123254276D01*
X177188983Y-123233691D01*
X177260412Y-123019407D01*
X177262941Y-123008281D01*
X177264104Y-123005475D01*
X177264504Y-123001404D01*
X177265410Y-122997424D01*
X177265195Y-122994398D01*
X177266314Y-122983040D01*
X177266314Y-122840182D01*
X177264104Y-122817747D01*
X177262523Y-122813930D01*
X177262230Y-122809807D01*
X177254173Y-122788752D01*
X177182744Y-122645895D01*
X177176664Y-122636236D01*
X177175503Y-122633434D01*
X177172911Y-122630276D01*
X177170734Y-122626817D01*
X177168440Y-122624828D01*
X177161202Y-122616007D01*
X177089774Y-122544580D01*
X177080953Y-122537340D01*
X177078965Y-122535048D01*
X177075509Y-122532873D01*
X177072348Y-122530278D01*
X177069539Y-122529114D01*
X177059886Y-122523038D01*
X176917029Y-122451609D01*
X176895974Y-122443552D01*
X176891850Y-122443258D01*
X176888034Y-122441678D01*
X176865599Y-122439468D01*
X176508457Y-122439468D01*
X176486022Y-122441678D01*
X176482205Y-122443258D01*
X176478082Y-122443552D01*
X176457027Y-122451609D01*
X176314169Y-122523038D01*
X176304510Y-122529117D01*
X176301708Y-122530279D01*
X176298550Y-122532870D01*
X176295091Y-122535048D01*
X176293102Y-122537341D01*
X176284281Y-122544580D01*
X176212854Y-122616008D01*
X176198552Y-122633434D01*
X176181380Y-122674890D01*
X176181380Y-122719760D01*
X176198552Y-122761216D01*
X176230280Y-122792944D01*
X176271736Y-122810116D01*
X176316606Y-122810116D01*
X176358062Y-122792944D01*
X176375488Y-122778642D01*
X176433720Y-122720410D01*
X176535604Y-122669468D01*
X176838451Y-122669468D01*
X176940336Y-122720410D01*
X176985371Y-122765446D01*
X177036314Y-122867330D01*
X177036314Y-122964377D01*
X176979371Y-123135204D01*
X176141425Y-123973151D01*
X176127123Y-123990577D01*
X176109951Y-124032033D01*
X175622098Y-124032033D01*
X175661203Y-123992928D01*
X175668444Y-123984104D01*
X175670735Y-123982118D01*
X175672907Y-123978666D01*
X175675505Y-123975502D01*
X175676669Y-123972691D01*
X175682745Y-123963040D01*
X175754173Y-123820183D01*
X175754801Y-123818541D01*
X175755295Y-123817875D01*
X175758658Y-123808461D01*
X175762230Y-123799128D01*
X175762288Y-123798300D01*
X175762880Y-123796646D01*
X175834309Y-123510932D01*
X175834884Y-123507040D01*
X175835533Y-123505475D01*
X175836364Y-123497030D01*
X175837607Y-123488631D01*
X175837357Y-123486953D01*
X175837743Y-123483040D01*
X175837743Y-123125897D01*
X175837357Y-123121983D01*
X175837607Y-123120306D01*
X175836364Y-123111906D01*
X175835533Y-123103462D01*
X175834884Y-123101896D01*
X175834309Y-123098005D01*
X175762880Y-122812290D01*
X175762288Y-122810635D01*
X175762230Y-122809808D01*
X175758658Y-122800474D01*
X175755295Y-122791061D01*
X175754801Y-122790394D01*
X175754173Y-122788753D01*
X175682745Y-122645896D01*
X175676666Y-122636239D01*
X175675504Y-122633434D01*
X175672909Y-122630272D01*
X175670735Y-122626818D01*
X175668444Y-122624831D01*
X175661203Y-122616007D01*
X175589774Y-122544579D01*
X175580953Y-122537340D01*
X175578965Y-122535048D01*
X175575506Y-122532870D01*
X175572347Y-122530278D01*
X175569542Y-122529116D01*
X175559887Y-122523038D01*
X175417030Y-122451609D01*
X175395975Y-122443552D01*
X175391851Y-122443258D01*
X175388035Y-122441678D01*
X175365600Y-122439468D01*
X175222743Y-122439468D01*
X175200308Y-122441678D01*
X175196491Y-122443258D01*
X175192368Y-122443552D01*
X175171313Y-122451609D01*
X175028456Y-122523038D01*
X175018800Y-122529116D01*
X175015996Y-122530278D01*
X175012836Y-122532870D01*
X175009378Y-122535048D01*
X175007389Y-122537340D01*
X174998569Y-122544579D01*
X174927140Y-122616007D01*
X174919901Y-122624828D01*
X174917608Y-122626817D01*
X174915430Y-122630276D01*
X174912839Y-122633434D01*
X174911677Y-122636237D01*
X174905598Y-122645895D01*
X174834169Y-122788752D01*
X174833539Y-122790397D01*
X174833047Y-122791062D01*
X174829694Y-122800444D01*
X174826112Y-122809807D01*
X174826053Y-122810636D01*
X174825462Y-122812291D01*
X174754034Y-123098006D01*
X174753458Y-123101895D01*
X174752810Y-123103462D01*
X174751977Y-123111909D01*
X174750736Y-123120307D01*
X174750985Y-123121983D01*
X174750600Y-123125897D01*
X174367773Y-123125897D01*
X174403270Y-123019407D01*
X174405799Y-123008281D01*
X174406962Y-123005475D01*
X174407362Y-123001404D01*
X174408268Y-122997424D01*
X174408053Y-122994398D01*
X174409172Y-122983040D01*
X174409172Y-122840182D01*
X174406962Y-122817747D01*
X174405381Y-122813930D01*
X174405088Y-122809807D01*
X174397031Y-122788752D01*
X174325602Y-122645895D01*
X174319522Y-122636236D01*
X174318361Y-122633434D01*
X174315769Y-122630276D01*
X174313592Y-122626817D01*
X174311298Y-122624828D01*
X174304060Y-122616007D01*
X174232632Y-122544580D01*
X174223811Y-122537340D01*
X174221823Y-122535048D01*
X174218367Y-122532873D01*
X174215206Y-122530278D01*
X174212397Y-122529114D01*
X174202744Y-122523038D01*
X174059887Y-122451609D01*
X174038832Y-122443552D01*
X174034708Y-122443258D01*
X174030892Y-122441678D01*
X174008457Y-122439468D01*
X173651315Y-122439468D01*
X173628880Y-122441678D01*
X173625063Y-122443258D01*
X173620940Y-122443552D01*
X173599885Y-122451609D01*
X173457027Y-122523038D01*
X173447368Y-122529117D01*
X173444566Y-122530279D01*
X173441408Y-122532870D01*
X173437949Y-122535048D01*
X173435960Y-122537341D01*
X173427139Y-122544580D01*
X173355712Y-122616008D01*
X173341410Y-122633434D01*
X173324238Y-122674890D01*
X173324238Y-122719760D01*
X173341410Y-122761216D01*
X173373138Y-122792944D01*
X173414594Y-122810116D01*
X173459464Y-122810116D01*
X173500920Y-122792944D01*
X173518346Y-122778642D01*
X173576578Y-122720410D01*
X173678462Y-122669468D01*
X173981309Y-122669468D01*
X174083194Y-122720410D01*
X174128229Y-122765446D01*
X174179172Y-122867330D01*
X174179172Y-122964377D01*
X174122229Y-123135204D01*
X173284283Y-123973151D01*
X173269981Y-123990577D01*
X173252809Y-124032033D01*
X173086142Y-124032033D01*
X173086142Y-120139552D01*
X173393457Y-120139552D01*
X173393457Y-121639552D01*
X173395667Y-121661987D01*
X173412838Y-121703443D01*
X173444566Y-121735171D01*
X173486022Y-121752342D01*
X173508457Y-121754552D01*
X173865600Y-121754552D01*
X173876952Y-121753433D01*
X173879983Y-121753649D01*
X173883970Y-121752742D01*
X173888035Y-121752342D01*
X173890837Y-121751181D01*
X173901966Y-121748651D01*
X174116252Y-121677223D01*
X174136837Y-121668032D01*
X174139960Y-121665322D01*
X174143777Y-121663742D01*
X174161204Y-121649441D01*
X174304061Y-121506583D01*
X174311299Y-121497762D01*
X174313592Y-121495774D01*
X174315769Y-121492315D01*
X174318362Y-121489156D01*
X174319523Y-121486351D01*
X174325602Y-121476696D01*
X174397031Y-121333839D01*
X174397659Y-121332195D01*
X174398153Y-121331530D01*
X174401508Y-121322138D01*
X174405088Y-121312784D01*
X174405146Y-121311954D01*
X174405738Y-121310300D01*
X174412711Y-121282409D01*
X174822029Y-121282409D01*
X174822029Y-121425266D01*
X174824239Y-121447701D01*
X174825820Y-121451518D01*
X174826113Y-121455640D01*
X174834170Y-121476695D01*
X174905598Y-121619553D01*
X174907957Y-121623300D01*
X174908549Y-121625076D01*
X174910466Y-121627287D01*
X174917608Y-121638631D01*
X174928499Y-121648077D01*
X174937950Y-121658974D01*
X174949295Y-121666115D01*
X174951505Y-121668032D01*
X174953279Y-121668623D01*
X174957028Y-121670983D01*
X175099886Y-121742412D01*
X175120941Y-121750468D01*
X175125062Y-121750760D01*
X175128880Y-121752342D01*
X175151315Y-121754552D01*
X175508457Y-121754552D01*
X175530892Y-121752342D01*
X175534709Y-121750760D01*
X175538831Y-121750468D01*
X175559886Y-121742411D01*
X175583071Y-121730818D01*
X175587424Y-121735171D01*
X175628880Y-121752342D01*
X175673750Y-121752342D01*
X175715206Y-121735171D01*
X175746934Y-121703443D01*
X175764105Y-121661987D01*
X175766315Y-121639552D01*
X175766315Y-120853838D01*
X175764105Y-120831403D01*
X175762524Y-120827586D01*
X175762231Y-120823463D01*
X175754174Y-120802408D01*
X175682745Y-120659551D01*
X175680735Y-120656359D01*
X176108978Y-120656359D01*
X176114443Y-120678231D01*
X176471586Y-121678231D01*
X176481213Y-121698615D01*
X176485084Y-121702891D01*
X176487557Y-121708112D01*
X176500032Y-121719405D01*
X176511326Y-121731881D01*
X176516546Y-121734353D01*
X176520823Y-121738225D01*
X176536661Y-121743881D01*
X176551877Y-121751089D01*
X176557643Y-121751375D01*
X176563079Y-121753317D01*
X176579886Y-121752481D01*
X176596693Y-121753317D01*
X176602128Y-121751375D01*
X176607895Y-121751089D01*
X176623110Y-121743881D01*
X176638949Y-121738225D01*
X176643225Y-121734353D01*
X176648446Y-121731881D01*
X176659742Y-121719401D01*
X176672215Y-121708111D01*
X176674686Y-121702892D01*
X176678559Y-121698615D01*
X176688186Y-121678231D01*
X177045329Y-120678231D01*
X177050794Y-120656360D01*
X177049958Y-120639552D01*
X177393457Y-120639552D01*
X177393457Y-121639552D01*
X177395667Y-121661987D01*
X177412838Y-121703443D01*
X177444566Y-121735171D01*
X177486022Y-121752342D01*
X177530892Y-121752342D01*
X177572348Y-121735171D01*
X177604076Y-121703443D01*
X177621247Y-121661987D01*
X177623457Y-121639552D01*
X177623457Y-120925266D01*
X178036315Y-120925266D01*
X178036315Y-121353838D01*
X178038525Y-121376273D01*
X178040106Y-121380090D01*
X178040399Y-121384212D01*
X178048456Y-121405267D01*
X178119884Y-121548124D01*
X178125960Y-121557777D01*
X178127124Y-121560586D01*
X178129719Y-121563747D01*
X178131894Y-121567203D01*
X178134186Y-121569191D01*
X178141426Y-121578012D01*
X178212855Y-121649441D01*
X178221678Y-121656682D01*
X178223665Y-121658973D01*
X178227116Y-121661145D01*
X178230281Y-121663743D01*
X178233091Y-121664907D01*
X178242743Y-121670983D01*
X178385600Y-121742411D01*
X178406655Y-121750468D01*
X178410776Y-121750760D01*
X178414594Y-121752342D01*
X178437029Y-121754552D01*
X178722743Y-121754552D01*
X178745178Y-121752342D01*
X178748995Y-121750760D01*
X178753117Y-121750468D01*
X178774172Y-121742411D01*
X178797357Y-121730818D01*
X178801710Y-121735171D01*
X178843166Y-121752342D01*
X178888036Y-121752342D01*
X178929492Y-121735171D01*
X178961220Y-121703443D01*
X178978391Y-121661987D01*
X178980601Y-121639552D01*
X178980601Y-120139552D01*
X180607743Y-120139552D01*
X180607743Y-121639552D01*
X180609953Y-121661987D01*
X180627124Y-121703443D01*
X180658852Y-121735171D01*
X180700308Y-121752342D01*
X180722743Y-121754552D01*
X181294172Y-121754552D01*
X181316607Y-121752342D01*
X181320424Y-121750760D01*
X181324546Y-121750468D01*
X181345601Y-121742411D01*
X181488458Y-121670983D01*
X181498111Y-121664906D01*
X181500920Y-121663743D01*
X181504081Y-121661147D01*
X181507537Y-121658973D01*
X181509525Y-121656680D01*
X181518346Y-121649441D01*
X181589775Y-121578012D01*
X181597016Y-121569188D01*
X181599307Y-121567202D01*
X181601479Y-121563750D01*
X181604077Y-121560586D01*
X181605241Y-121557775D01*
X181611317Y-121548124D01*
X181682745Y-121405267D01*
X181690802Y-121384212D01*
X181691094Y-121380090D01*
X181692676Y-121376273D01*
X181694886Y-121353838D01*
X181694886Y-121282409D01*
X182036315Y-121282409D01*
X182036315Y-121425266D01*
X182038525Y-121447701D01*
X182040106Y-121451518D01*
X182040399Y-121455640D01*
X182048456Y-121476695D01*
X182119884Y-121619553D01*
X182122243Y-121623300D01*
X182122835Y-121625076D01*
X182124752Y-121627287D01*
X182131894Y-121638631D01*
X182142785Y-121648077D01*
X182152236Y-121658974D01*
X182163581Y-121666115D01*
X182165791Y-121668032D01*
X182167565Y-121668623D01*
X182171314Y-121670983D01*
X182314172Y-121742412D01*
X182335227Y-121750468D01*
X182339348Y-121750760D01*
X182343166Y-121752342D01*
X182365601Y-121754552D01*
X182722743Y-121754552D01*
X182745178Y-121752342D01*
X182748995Y-121750760D01*
X182753117Y-121750468D01*
X182774172Y-121742411D01*
X182797357Y-121730818D01*
X182801710Y-121735171D01*
X182843166Y-121752342D01*
X182888036Y-121752342D01*
X182929492Y-121735171D01*
X182961220Y-121703443D01*
X182978391Y-121661987D01*
X182980601Y-121639552D01*
X182980601Y-120853838D01*
X183393458Y-120853838D01*
X183393458Y-120925266D01*
X183395668Y-120947701D01*
X183397249Y-120951518D01*
X183397542Y-120955640D01*
X183405599Y-120976695D01*
X183477027Y-121119553D01*
X183479386Y-121123300D01*
X183479978Y-121125076D01*
X183481895Y-121127287D01*
X183489037Y-121138631D01*
X183499928Y-121148077D01*
X183509379Y-121158974D01*
X183520724Y-121166115D01*
X183522934Y-121168032D01*
X183524708Y-121168623D01*
X183528457Y-121170983D01*
X183671315Y-121242412D01*
X183692370Y-121250468D01*
X183696491Y-121250760D01*
X183700309Y-121252342D01*
X183722744Y-121254552D01*
X183909881Y-121254552D01*
X183994170Y-121296696D01*
X184036315Y-121380986D01*
X184036315Y-121398118D01*
X183994169Y-121482408D01*
X183909882Y-121524552D01*
X183678462Y-121524552D01*
X183559887Y-121465265D01*
X183538832Y-121457208D01*
X183494074Y-121454027D01*
X183451506Y-121468216D01*
X183417609Y-121497617D01*
X183397542Y-121537750D01*
X183394361Y-121582508D01*
X183408550Y-121625076D01*
X183437951Y-121658973D01*
X183457029Y-121670983D01*
X183599886Y-121742411D01*
X183620941Y-121750468D01*
X183625062Y-121750760D01*
X183628880Y-121752342D01*
X183651315Y-121754552D01*
X183937029Y-121754552D01*
X183959464Y-121752342D01*
X183963281Y-121750760D01*
X183967403Y-121750468D01*
X183988458Y-121742411D01*
X184131315Y-121670983D01*
X184135064Y-121668622D01*
X184136837Y-121668032D01*
X184139044Y-121666117D01*
X184150394Y-121658973D01*
X184159841Y-121648079D01*
X184170735Y-121638632D01*
X184177880Y-121627281D01*
X184179794Y-121625075D01*
X184180384Y-121623303D01*
X184182745Y-121619554D01*
X184254174Y-121476696D01*
X184262231Y-121455641D01*
X184262524Y-121451517D01*
X184264105Y-121447701D01*
X184266315Y-121425266D01*
X184266315Y-121353838D01*
X184264105Y-121331403D01*
X184262524Y-121327586D01*
X184262231Y-121323463D01*
X184254174Y-121302408D01*
X184182745Y-121159551D01*
X184180384Y-121155801D01*
X184179794Y-121154030D01*
X184177880Y-121151823D01*
X184170735Y-121140473D01*
X184159841Y-121131025D01*
X184150394Y-121120132D01*
X184139043Y-121112986D01*
X184136837Y-121111073D01*
X184135065Y-121110482D01*
X184131316Y-121108122D01*
X183988459Y-121036693D01*
X183967404Y-121028636D01*
X183963280Y-121028342D01*
X183959464Y-121026762D01*
X183937029Y-121024552D01*
X183749891Y-121024552D01*
X183665602Y-120982408D01*
X183637031Y-120925266D01*
X184607744Y-120925266D01*
X184607744Y-121353838D01*
X184609954Y-121376273D01*
X184611535Y-121380090D01*
X184611828Y-121384212D01*
X184619885Y-121405267D01*
X184691313Y-121548124D01*
X184697389Y-121557777D01*
X184698553Y-121560586D01*
X184701148Y-121563747D01*
X184703323Y-121567203D01*
X184705615Y-121569191D01*
X184712855Y-121578012D01*
X184784284Y-121649441D01*
X184793107Y-121656682D01*
X184795094Y-121658973D01*
X184798545Y-121661145D01*
X184801710Y-121663743D01*
X184804520Y-121664907D01*
X184814172Y-121670983D01*
X184957029Y-121742411D01*
X184978084Y-121750468D01*
X184982205Y-121750760D01*
X184986023Y-121752342D01*
X185008458Y-121754552D01*
X185294172Y-121754552D01*
X185316607Y-121752342D01*
X185320424Y-121750760D01*
X185324546Y-121750468D01*
X185345601Y-121742411D01*
X185488459Y-121670983D01*
X185507537Y-121658973D01*
X185536938Y-121625076D01*
X185551127Y-121582508D01*
X185547946Y-121537750D01*
X185527880Y-121497617D01*
X185493982Y-121468216D01*
X185451415Y-121454027D01*
X185406656Y-121457208D01*
X185385601Y-121465264D01*
X185267025Y-121524552D01*
X185035605Y-121524552D01*
X184933721Y-121473610D01*
X184888685Y-121428574D01*
X184837744Y-121326691D01*
X184837744Y-120952412D01*
X184851317Y-120925266D01*
X185893458Y-120925266D01*
X185893458Y-121353838D01*
X185895668Y-121376273D01*
X185897249Y-121380090D01*
X185897542Y-121384212D01*
X185905599Y-121405267D01*
X185977027Y-121548124D01*
X185983103Y-121557777D01*
X185984267Y-121560586D01*
X185986862Y-121563747D01*
X185989037Y-121567203D01*
X185991329Y-121569191D01*
X185998569Y-121578012D01*
X186069998Y-121649441D01*
X186078821Y-121656682D01*
X186080808Y-121658973D01*
X186084259Y-121661145D01*
X186087424Y-121663743D01*
X186090234Y-121664907D01*
X186099886Y-121670983D01*
X186242743Y-121742411D01*
X186263798Y-121750468D01*
X186267919Y-121750760D01*
X186271737Y-121752342D01*
X186294172Y-121754552D01*
X186508458Y-121754552D01*
X186530893Y-121752342D01*
X186534710Y-121750760D01*
X186538832Y-121750468D01*
X186559887Y-121742411D01*
X186702744Y-121670983D01*
X186712397Y-121664906D01*
X186715206Y-121663743D01*
X186718367Y-121661147D01*
X186721823Y-121658973D01*
X186723811Y-121656680D01*
X186732632Y-121649441D01*
X186804061Y-121578012D01*
X186811302Y-121569188D01*
X186813593Y-121567202D01*
X186815765Y-121563750D01*
X186818363Y-121560586D01*
X186819527Y-121557775D01*
X186825603Y-121548124D01*
X186897031Y-121405267D01*
X186905088Y-121384212D01*
X186905380Y-121380090D01*
X186906962Y-121376273D01*
X186909172Y-121353838D01*
X186909172Y-120925266D01*
X186906962Y-120902831D01*
X186905380Y-120899013D01*
X186905088Y-120894892D01*
X186897031Y-120873837D01*
X186825603Y-120730980D01*
X186819524Y-120721323D01*
X186818362Y-120718518D01*
X186815767Y-120715356D01*
X186813593Y-120711902D01*
X186811302Y-120709915D01*
X186804061Y-120701091D01*
X186742521Y-120639552D01*
X187322029Y-120639552D01*
X187322029Y-121639552D01*
X187324239Y-121661987D01*
X187341410Y-121703443D01*
X187373138Y-121735171D01*
X187414594Y-121752342D01*
X187459464Y-121752342D01*
X187500920Y-121735171D01*
X187532648Y-121703443D01*
X187549819Y-121661987D01*
X187552029Y-121639552D01*
X187552029Y-120830044D01*
X187576579Y-120805494D01*
X187678463Y-120754552D01*
X187838453Y-120754552D01*
X187922742Y-120796696D01*
X187964887Y-120880986D01*
X187964887Y-121639552D01*
X187967097Y-121661987D01*
X187984268Y-121703443D01*
X188015996Y-121735171D01*
X188057452Y-121752342D01*
X188102322Y-121752342D01*
X188143778Y-121735171D01*
X188175506Y-121703443D01*
X188192677Y-121661987D01*
X188194887Y-121639552D01*
X188194887Y-120880984D01*
X188237030Y-120796697D01*
X188321320Y-120754552D01*
X188481310Y-120754552D01*
X188565599Y-120796696D01*
X188607744Y-120880986D01*
X188607744Y-121639552D01*
X188609954Y-121661987D01*
X188627125Y-121703443D01*
X188658853Y-121735171D01*
X188700309Y-121752342D01*
X188745179Y-121752342D01*
X188786635Y-121735171D01*
X188818363Y-121703443D01*
X188835534Y-121661987D01*
X188837744Y-121639552D01*
X188837744Y-120853838D01*
X188835534Y-120831403D01*
X188833953Y-120827586D01*
X188833660Y-120823463D01*
X188825603Y-120802408D01*
X188754174Y-120659551D01*
X188751813Y-120655801D01*
X188751223Y-120654030D01*
X188749309Y-120651823D01*
X188742164Y-120640473D01*
X188731270Y-120631025D01*
X188721823Y-120620132D01*
X188710472Y-120612986D01*
X188708266Y-120611073D01*
X188706494Y-120610482D01*
X188702745Y-120608122D01*
X188559888Y-120536693D01*
X188538833Y-120528636D01*
X188534709Y-120528342D01*
X188530893Y-120526762D01*
X188508458Y-120524552D01*
X188294172Y-120524552D01*
X188271737Y-120526762D01*
X188267920Y-120528342D01*
X188263797Y-120528636D01*
X188242742Y-120536693D01*
X188099885Y-120608122D01*
X188096135Y-120610482D01*
X188094364Y-120611073D01*
X188092157Y-120612986D01*
X188080807Y-120620132D01*
X188079886Y-120621193D01*
X188078966Y-120620132D01*
X188067615Y-120612986D01*
X188065409Y-120611073D01*
X188063637Y-120610482D01*
X188059888Y-120608122D01*
X187917031Y-120536693D01*
X187895976Y-120528636D01*
X187891852Y-120528342D01*
X187888036Y-120526762D01*
X187865601Y-120524552D01*
X187651315Y-120524552D01*
X187628880Y-120526762D01*
X187625063Y-120528342D01*
X187620940Y-120528636D01*
X187599885Y-120536693D01*
X187529081Y-120572094D01*
X187500920Y-120543933D01*
X187459464Y-120526762D01*
X187414594Y-120526762D01*
X187373138Y-120543933D01*
X187341410Y-120575661D01*
X187324239Y-120617117D01*
X187322029Y-120639552D01*
X186742521Y-120639552D01*
X186732632Y-120629663D01*
X186723811Y-120622424D01*
X186721823Y-120620132D01*
X186718364Y-120617954D01*
X186715205Y-120615362D01*
X186712400Y-120614200D01*
X186702745Y-120608122D01*
X186559888Y-120536693D01*
X186538833Y-120528636D01*
X186534709Y-120528342D01*
X186530893Y-120526762D01*
X186508458Y-120524552D01*
X186294172Y-120524552D01*
X186271737Y-120526762D01*
X186267920Y-120528342D01*
X186263797Y-120528636D01*
X186242742Y-120536693D01*
X186099885Y-120608122D01*
X186090229Y-120614200D01*
X186087425Y-120615362D01*
X186084265Y-120617954D01*
X186080807Y-120620132D01*
X186078818Y-120622424D01*
X186069998Y-120629663D01*
X185998569Y-120701091D01*
X185991330Y-120709912D01*
X185989037Y-120711901D01*
X185986859Y-120715359D01*
X185984268Y-120718518D01*
X185983106Y-120721322D01*
X185977027Y-120730980D01*
X185905599Y-120873837D01*
X185897542Y-120894892D01*
X185897249Y-120899013D01*
X185895668Y-120902831D01*
X185893458Y-120925266D01*
X184851317Y-120925266D01*
X184888683Y-120850532D01*
X184933722Y-120805494D01*
X185035606Y-120754552D01*
X185267024Y-120754552D01*
X185385600Y-120813840D01*
X185406655Y-120821897D01*
X185451414Y-120825078D01*
X185493981Y-120810889D01*
X185527879Y-120781489D01*
X185547946Y-120741356D01*
X185551127Y-120696597D01*
X185536938Y-120654030D01*
X185507538Y-120620132D01*
X185488459Y-120608122D01*
X185345602Y-120536693D01*
X185324547Y-120528636D01*
X185320423Y-120528342D01*
X185316607Y-120526762D01*
X185294172Y-120524552D01*
X185008458Y-120524552D01*
X184986023Y-120526762D01*
X184982206Y-120528342D01*
X184978083Y-120528636D01*
X184957028Y-120536693D01*
X184814171Y-120608122D01*
X184804515Y-120614200D01*
X184801711Y-120615362D01*
X184798551Y-120617954D01*
X184795093Y-120620132D01*
X184793104Y-120622424D01*
X184784284Y-120629663D01*
X184712855Y-120701091D01*
X184705616Y-120709912D01*
X184703323Y-120711901D01*
X184701145Y-120715359D01*
X184698554Y-120718518D01*
X184697392Y-120721322D01*
X184691313Y-120730980D01*
X184619885Y-120873837D01*
X184611828Y-120894892D01*
X184611535Y-120899013D01*
X184609954Y-120902831D01*
X184607744Y-120925266D01*
X183637031Y-120925266D01*
X183623458Y-120898119D01*
X183623458Y-120880984D01*
X183665601Y-120796697D01*
X183749891Y-120754552D01*
X183909881Y-120754552D01*
X184028456Y-120813840D01*
X184049511Y-120821897D01*
X184094269Y-120825078D01*
X184136837Y-120810889D01*
X184170735Y-120781489D01*
X184190801Y-120741356D01*
X184193983Y-120696597D01*
X184179794Y-120654030D01*
X184150394Y-120620132D01*
X184131316Y-120608122D01*
X183988459Y-120536693D01*
X183967404Y-120528636D01*
X183963280Y-120528342D01*
X183959464Y-120526762D01*
X183937029Y-120524552D01*
X183722744Y-120524552D01*
X183700309Y-120526762D01*
X183696492Y-120528342D01*
X183692369Y-120528636D01*
X183671314Y-120536693D01*
X183528456Y-120608122D01*
X183524706Y-120610482D01*
X183522935Y-120611073D01*
X183520728Y-120612986D01*
X183509378Y-120620132D01*
X183499930Y-120631025D01*
X183489037Y-120640473D01*
X183481892Y-120651822D01*
X183479978Y-120654030D01*
X183479387Y-120655802D01*
X183477027Y-120659552D01*
X183405599Y-120802409D01*
X183397542Y-120823464D01*
X183397249Y-120827585D01*
X183395668Y-120831403D01*
X183393458Y-120853838D01*
X182980601Y-120853838D01*
X182978391Y-120831403D01*
X182976810Y-120827586D01*
X182976517Y-120823463D01*
X182968460Y-120802408D01*
X182897031Y-120659551D01*
X182894670Y-120655801D01*
X182894080Y-120654030D01*
X182892166Y-120651823D01*
X182885021Y-120640473D01*
X182874127Y-120631025D01*
X182864680Y-120620132D01*
X182853329Y-120612986D01*
X182851123Y-120611073D01*
X182849351Y-120610482D01*
X182845602Y-120608122D01*
X182702745Y-120536693D01*
X182681690Y-120528636D01*
X182677566Y-120528342D01*
X182673750Y-120526762D01*
X182651315Y-120524552D01*
X182365601Y-120524552D01*
X182343166Y-120526762D01*
X182339349Y-120528342D01*
X182335226Y-120528636D01*
X182314171Y-120536693D01*
X182171313Y-120608122D01*
X182152235Y-120620132D01*
X182122835Y-120654030D01*
X182108646Y-120696597D01*
X182111827Y-120741356D01*
X182131894Y-120781489D01*
X182165792Y-120810889D01*
X182208359Y-120825078D01*
X182253118Y-120821897D01*
X182274173Y-120813840D01*
X182392748Y-120754552D01*
X182624167Y-120754552D01*
X182708456Y-120796696D01*
X182750601Y-120880986D01*
X182750601Y-120925621D01*
X182695595Y-120953124D01*
X182365601Y-120953124D01*
X182343166Y-120955334D01*
X182339348Y-120956915D01*
X182335227Y-120957208D01*
X182314172Y-120965264D01*
X182171314Y-121036693D01*
X182167564Y-121039053D01*
X182165792Y-121039644D01*
X182163584Y-121041558D01*
X182152236Y-121048702D01*
X182142786Y-121059596D01*
X182131894Y-121069044D01*
X182124751Y-121080389D01*
X182122835Y-121082600D01*
X182122243Y-121084374D01*
X182119884Y-121088123D01*
X182048456Y-121230980D01*
X182040399Y-121252035D01*
X182040106Y-121256156D01*
X182038525Y-121259974D01*
X182036315Y-121282409D01*
X181694886Y-121282409D01*
X181694886Y-121139552D01*
X181692676Y-121117117D01*
X181691094Y-121113299D01*
X181690802Y-121109178D01*
X181682745Y-121088123D01*
X181611317Y-120945266D01*
X181605241Y-120935614D01*
X181604077Y-120932804D01*
X181601479Y-120929639D01*
X181599307Y-120926188D01*
X181597016Y-120924201D01*
X181589775Y-120915378D01*
X181518346Y-120843949D01*
X181500920Y-120829647D01*
X181497101Y-120828065D01*
X181493980Y-120825358D01*
X181487969Y-120822674D01*
X181518346Y-120792299D01*
X181525584Y-120783477D01*
X181527878Y-120781489D01*
X181530055Y-120778029D01*
X181532647Y-120774872D01*
X181533808Y-120772069D01*
X181539888Y-120762411D01*
X181611317Y-120619554D01*
X181619374Y-120598499D01*
X181619667Y-120594375D01*
X181621248Y-120590559D01*
X181623458Y-120568124D01*
X181623458Y-120425266D01*
X181621248Y-120402831D01*
X181619667Y-120399014D01*
X181619374Y-120394891D01*
X181611317Y-120373836D01*
X181539888Y-120230979D01*
X181533808Y-120221320D01*
X181532647Y-120218518D01*
X181530055Y-120215360D01*
X181527878Y-120211901D01*
X181525584Y-120209912D01*
X181518346Y-120201091D01*
X181446918Y-120129664D01*
X181438097Y-120122424D01*
X181436109Y-120120132D01*
X181432653Y-120117957D01*
X181429492Y-120115362D01*
X181426683Y-120114198D01*
X181417030Y-120108122D01*
X181274173Y-120036693D01*
X181253118Y-120028636D01*
X181248994Y-120028342D01*
X181245178Y-120026762D01*
X181222743Y-120024552D01*
X180722743Y-120024552D01*
X180700308Y-120026762D01*
X180658852Y-120043933D01*
X180627124Y-120075661D01*
X180609953Y-120117117D01*
X180607743Y-120139552D01*
X178980601Y-120139552D01*
X178978391Y-120117117D01*
X178961220Y-120075661D01*
X178929492Y-120043933D01*
X178888036Y-120026762D01*
X178843166Y-120026762D01*
X178801710Y-120043933D01*
X178769982Y-120075661D01*
X178752811Y-120117117D01*
X178750601Y-120139552D01*
X178750601Y-120528457D01*
X178748994Y-120528342D01*
X178745178Y-120526762D01*
X178722743Y-120524552D01*
X178437029Y-120524552D01*
X178414594Y-120526762D01*
X178410777Y-120528342D01*
X178406654Y-120528636D01*
X178385599Y-120536693D01*
X178242742Y-120608122D01*
X178233086Y-120614200D01*
X178230282Y-120615362D01*
X178227122Y-120617954D01*
X178223664Y-120620132D01*
X178221675Y-120622424D01*
X178212855Y-120629663D01*
X178141426Y-120701091D01*
X178134187Y-120709912D01*
X178131894Y-120711901D01*
X178129716Y-120715359D01*
X178127125Y-120718518D01*
X178125963Y-120721322D01*
X178119884Y-120730980D01*
X178048456Y-120873837D01*
X178040399Y-120894892D01*
X178040106Y-120899013D01*
X178038525Y-120902831D01*
X178036315Y-120925266D01*
X177623457Y-120925266D01*
X177623457Y-120639552D01*
X177621247Y-120617117D01*
X177604076Y-120575661D01*
X177572348Y-120543933D01*
X177530892Y-120526762D01*
X177486022Y-120526762D01*
X177444566Y-120543933D01*
X177412838Y-120575661D01*
X177395667Y-120617117D01*
X177393457Y-120639552D01*
X177049958Y-120639552D01*
X177048566Y-120611543D01*
X177029358Y-120570993D01*
X176996092Y-120540879D01*
X176953836Y-120525787D01*
X176909020Y-120528015D01*
X176868469Y-120547223D01*
X176838356Y-120580489D01*
X176828729Y-120600873D01*
X176579886Y-121297633D01*
X176331043Y-120600873D01*
X176321416Y-120580489D01*
X176291303Y-120547223D01*
X176250752Y-120528015D01*
X176205936Y-120525787D01*
X176163680Y-120540879D01*
X176130414Y-120570992D01*
X176111206Y-120611543D01*
X176108978Y-120656359D01*
X175680735Y-120656359D01*
X175680384Y-120655801D01*
X175679794Y-120654030D01*
X175677880Y-120651823D01*
X175670735Y-120640473D01*
X175659841Y-120631025D01*
X175650394Y-120620132D01*
X175639043Y-120612986D01*
X175636837Y-120611073D01*
X175635065Y-120610482D01*
X175631316Y-120608122D01*
X175488459Y-120536693D01*
X175467404Y-120528636D01*
X175463280Y-120528342D01*
X175459464Y-120526762D01*
X175437029Y-120524552D01*
X175151315Y-120524552D01*
X175128880Y-120526762D01*
X175125063Y-120528342D01*
X175120940Y-120528636D01*
X175099885Y-120536693D01*
X174957027Y-120608122D01*
X174937949Y-120620132D01*
X174908549Y-120654030D01*
X174894360Y-120696597D01*
X174897541Y-120741356D01*
X174917608Y-120781489D01*
X174951506Y-120810889D01*
X174994073Y-120825078D01*
X175038832Y-120821897D01*
X175059887Y-120813840D01*
X175178462Y-120754552D01*
X175409881Y-120754552D01*
X175494170Y-120796696D01*
X175536315Y-120880986D01*
X175536315Y-120925621D01*
X175481309Y-120953124D01*
X175151315Y-120953124D01*
X175128880Y-120955334D01*
X175125062Y-120956915D01*
X175120941Y-120957208D01*
X175099886Y-120965264D01*
X174957028Y-121036693D01*
X174953278Y-121039053D01*
X174951506Y-121039644D01*
X174949298Y-121041558D01*
X174937950Y-121048702D01*
X174928500Y-121059596D01*
X174917608Y-121069044D01*
X174910465Y-121080389D01*
X174908549Y-121082600D01*
X174907957Y-121084374D01*
X174905598Y-121088123D01*
X174834170Y-121230980D01*
X174826113Y-121252035D01*
X174825820Y-121256156D01*
X174824239Y-121259974D01*
X174822029Y-121282409D01*
X174412711Y-121282409D01*
X174477166Y-121024587D01*
X174477741Y-121020695D01*
X174478390Y-121019130D01*
X174479222Y-121010683D01*
X174480464Y-121002285D01*
X174480214Y-121000608D01*
X174480600Y-120996695D01*
X174480600Y-120782409D01*
X174480214Y-120778495D01*
X174480464Y-120776819D01*
X174479222Y-120768420D01*
X174478390Y-120759974D01*
X174477741Y-120758408D01*
X174477166Y-120754517D01*
X174405738Y-120468804D01*
X174405146Y-120467149D01*
X174405088Y-120466320D01*
X174401508Y-120456965D01*
X174398153Y-120447574D01*
X174397659Y-120446908D01*
X174397031Y-120445265D01*
X174325602Y-120302408D01*
X174319522Y-120292749D01*
X174318361Y-120289947D01*
X174315770Y-120286789D01*
X174313592Y-120283330D01*
X174311297Y-120281339D01*
X174304060Y-120272521D01*
X174220085Y-120188546D01*
X177324238Y-120188546D01*
X177324238Y-120233416D01*
X177341410Y-120274872D01*
X177355712Y-120292298D01*
X177427139Y-120363726D01*
X177444560Y-120378022D01*
X177444566Y-120378028D01*
X177469692Y-120388435D01*
X177486021Y-120395199D01*
X177530891Y-120395200D01*
X177555176Y-120385140D01*
X177572348Y-120378028D01*
X177572352Y-120378023D01*
X177589774Y-120363727D01*
X177661203Y-120292299D01*
X177675499Y-120274877D01*
X177675505Y-120274872D01*
X177692677Y-120233416D01*
X177692677Y-120188546D01*
X177675505Y-120147090D01*
X177661203Y-120129664D01*
X177589774Y-120058235D01*
X177572348Y-120043933D01*
X177530892Y-120026761D01*
X177486022Y-120026761D01*
X177444566Y-120043933D01*
X177444560Y-120043938D01*
X177427139Y-120058235D01*
X177355711Y-120129664D01*
X177341414Y-120147085D01*
X177341410Y-120147090D01*
X177324238Y-120188546D01*
X174220085Y-120188546D01*
X174161203Y-120129664D01*
X174143777Y-120115362D01*
X174139956Y-120113779D01*
X174136837Y-120111074D01*
X174116252Y-120101882D01*
X173901966Y-120030453D01*
X173890837Y-120027922D01*
X173888035Y-120026762D01*
X173883972Y-120026361D01*
X173879984Y-120025455D01*
X173876953Y-120025670D01*
X173865600Y-120024552D01*
X173508457Y-120024552D01*
X173486022Y-120026762D01*
X173444566Y-120043933D01*
X173412838Y-120075661D01*
X173395667Y-120117117D01*
X173393457Y-120139552D01*
X173086142Y-120139552D01*
X173086142Y-119857885D01*
X189004411Y-119857885D01*
X189004411Y-124336135D01*
G37*
D12*
X173883333Y-96962295D02*
X174283333Y-96962295D01*
X174083333Y-97762295D02*
X174083333Y-96962295D01*
X174516666Y-97343247D02*
X174750000Y-97343247D01*
X174850000Y-97762295D02*
X174516666Y-97762295D01*
X174516666Y-97762295D02*
X174516666Y-96962295D01*
X174516666Y-96962295D02*
X174850000Y-96962295D01*
X175149999Y-97762295D02*
X175149999Y-96962295D01*
X175149999Y-96962295D02*
X175383333Y-97533723D01*
X175383333Y-97533723D02*
X175616666Y-96962295D01*
X175616666Y-96962295D02*
X175616666Y-97762295D01*
X175949999Y-97762295D02*
X175949999Y-96962295D01*
X175949999Y-96962295D02*
X176216666Y-96962295D01*
X176216666Y-96962295D02*
X176283333Y-97000390D01*
X176283333Y-97000390D02*
X176316666Y-97038485D01*
X176316666Y-97038485D02*
X176349999Y-97114676D01*
X176349999Y-97114676D02*
X176349999Y-97228961D01*
X176349999Y-97228961D02*
X176316666Y-97305152D01*
X176316666Y-97305152D02*
X176283333Y-97343247D01*
X176283333Y-97343247D02*
X176216666Y-97381342D01*
X176216666Y-97381342D02*
X175949999Y-97381342D01*
D13*
G36*
X191112867Y-75260438D02*
G01*
X191159208Y-75318365D01*
X191216415Y-75461383D01*
X191216415Y-75879796D01*
X191159208Y-76022814D01*
X191112867Y-76080741D01*
X191018633Y-76139638D01*
X190799911Y-76139638D01*
X190705677Y-76080742D01*
X190659335Y-76022814D01*
X190602129Y-75879798D01*
X190602129Y-75461381D01*
X190659335Y-75318365D01*
X190705677Y-75260437D01*
X190799911Y-75201542D01*
X191018633Y-75201542D01*
X191112867Y-75260438D01*
G37*
G36*
X193262138Y-76661860D02*
G01*
X190079907Y-76661860D01*
X190079907Y-75146623D01*
X190302129Y-75146623D01*
X190302139Y-75146675D01*
X190302129Y-75146780D01*
X190302129Y-75908685D01*
X190304683Y-75934624D01*
X190304665Y-75936153D01*
X190304921Y-75937035D01*
X190305011Y-75937949D01*
X190305595Y-75939359D01*
X190312858Y-75964394D01*
X190389049Y-76154870D01*
X190394129Y-76164660D01*
X190395159Y-76168213D01*
X190399189Y-76174410D01*
X190402593Y-76180970D01*
X190405175Y-76183615D01*
X190411189Y-76192864D01*
X190487379Y-76288104D01*
X190499503Y-76300534D01*
X190501722Y-76303646D01*
X190505010Y-76306181D01*
X190507911Y-76309155D01*
X190511258Y-76310998D01*
X190525010Y-76321600D01*
X190677391Y-76416838D01*
X190703735Y-76429904D01*
X190716071Y-76431969D01*
X190727627Y-76436756D01*
X190756891Y-76439638D01*
X191061653Y-76439638D01*
X191090917Y-76436756D01*
X191102472Y-76431969D01*
X191114809Y-76429904D01*
X191141153Y-76416838D01*
X191293534Y-76321600D01*
X191307285Y-76310998D01*
X191310633Y-76309155D01*
X191313532Y-76306182D01*
X191316822Y-76303646D01*
X191319041Y-76300533D01*
X191331164Y-76288104D01*
X191407355Y-76192865D01*
X191413369Y-76183615D01*
X191415952Y-76180970D01*
X191419354Y-76174412D01*
X191423386Y-76168214D01*
X191424415Y-76164661D01*
X191429497Y-76154869D01*
X191505687Y-75964393D01*
X191512948Y-75939360D01*
X191513533Y-75937949D01*
X191513623Y-75937034D01*
X191513879Y-75936152D01*
X191513860Y-75934624D01*
X191516415Y-75908685D01*
X191516415Y-75432495D01*
X191513860Y-75406555D01*
X191513879Y-75405028D01*
X191513623Y-75404145D01*
X191513533Y-75403231D01*
X191512948Y-75401819D01*
X191505687Y-75376787D01*
X191429497Y-75186311D01*
X191424415Y-75176518D01*
X191423386Y-75172966D01*
X191419354Y-75166767D01*
X191415952Y-75160210D01*
X191413369Y-75157564D01*
X191407355Y-75148315D01*
X191331164Y-75053076D01*
X191319041Y-75040646D01*
X191316822Y-75037534D01*
X191313532Y-75034997D01*
X191310633Y-75032025D01*
X191307285Y-75030181D01*
X191293534Y-75019580D01*
X191141153Y-74924342D01*
X191114809Y-74911276D01*
X191102472Y-74909210D01*
X191090917Y-74904424D01*
X191061653Y-74901542D01*
X190756891Y-74901542D01*
X190727627Y-74904424D01*
X190716071Y-74909210D01*
X190703735Y-74911276D01*
X190677391Y-74924342D01*
X190645615Y-74944201D01*
X190671072Y-74816916D01*
X190806513Y-74562965D01*
X190858059Y-74498533D01*
X190952292Y-74439638D01*
X191214034Y-74439638D01*
X191243298Y-74436756D01*
X191297370Y-74414358D01*
X191338754Y-74372974D01*
X191361152Y-74318902D01*
X191361152Y-74299269D01*
X191673867Y-74299269D01*
X191678623Y-74328287D01*
X192211957Y-76328287D01*
X192214528Y-76335143D01*
X192214911Y-76338024D01*
X192216890Y-76341443D01*
X192222282Y-76355821D01*
X192234316Y-76371542D01*
X192244234Y-76388674D01*
X192251949Y-76394580D01*
X192257856Y-76402296D01*
X192274987Y-76412213D01*
X192290709Y-76424248D01*
X192300099Y-76426752D01*
X192308506Y-76431619D01*
X192328127Y-76434226D01*
X192347261Y-76439329D01*
X192356892Y-76438049D01*
X192366523Y-76439329D01*
X192385656Y-76434226D01*
X192405278Y-76431619D01*
X192413684Y-76426752D01*
X192423075Y-76424248D01*
X192438796Y-76412213D01*
X192455928Y-76402296D01*
X192461834Y-76394580D01*
X192469550Y-76388674D01*
X192479467Y-76371542D01*
X192491502Y-76355821D01*
X192496893Y-76341443D01*
X192498873Y-76338024D01*
X192499255Y-76335143D01*
X192501827Y-76328287D01*
X193035160Y-74328287D01*
X193039916Y-74299269D01*
X193032206Y-74241251D01*
X193002883Y-74190602D01*
X192956408Y-74155028D01*
X192899856Y-74139947D01*
X192841839Y-74147656D01*
X192791189Y-74176980D01*
X192755615Y-74223455D01*
X192745290Y-74250989D01*
X192356891Y-75707482D01*
X191968493Y-74250989D01*
X191958168Y-74223455D01*
X191922594Y-74176980D01*
X191871944Y-74147657D01*
X191813927Y-74139947D01*
X191757375Y-74155028D01*
X191710900Y-74190602D01*
X191681577Y-74241252D01*
X191673867Y-74299269D01*
X191361152Y-74299269D01*
X191361152Y-74260374D01*
X191338754Y-74206302D01*
X191297370Y-74164918D01*
X191243298Y-74142520D01*
X191214034Y-74139638D01*
X190909272Y-74139638D01*
X190880008Y-74142520D01*
X190868452Y-74147306D01*
X190856116Y-74149372D01*
X190829772Y-74162438D01*
X190677391Y-74257676D01*
X190663639Y-74268277D01*
X190660292Y-74270121D01*
X190657392Y-74273093D01*
X190654103Y-74275630D01*
X190651883Y-74278742D01*
X190639761Y-74291172D01*
X190563570Y-74386410D01*
X190556021Y-74398018D01*
X190548348Y-74409526D01*
X190395967Y-74695240D01*
X190391838Y-74705233D01*
X190389798Y-74708280D01*
X190387608Y-74715472D01*
X190384739Y-74722417D01*
X190384383Y-74726064D01*
X190381233Y-74736411D01*
X190305042Y-75117362D01*
X190305031Y-75117466D01*
X190305011Y-75117516D01*
X190303568Y-75132166D01*
X190302129Y-75146623D01*
X190079907Y-75146623D01*
X190079907Y-73917416D01*
X193262138Y-73917416D01*
X193262138Y-76661860D01*
G37*
G36*
X193284986Y-79530733D02*
G01*
X190089749Y-79530733D01*
X190089749Y-77947400D01*
X190323082Y-77947400D01*
X190323082Y-78247400D01*
X190324380Y-78260587D01*
X190325418Y-78273768D01*
X190396846Y-78673768D01*
X190400227Y-78685758D01*
X190403249Y-78697851D01*
X190474678Y-78897851D01*
X190478470Y-78905881D01*
X190479215Y-78909097D01*
X190483534Y-78916605D01*
X190487235Y-78924441D01*
X190489450Y-78926888D01*
X190493879Y-78934586D01*
X190636736Y-79134586D01*
X190656091Y-79156724D01*
X190663868Y-79161577D01*
X190670063Y-79168341D01*
X190695363Y-79183328D01*
X190909649Y-79283328D01*
X190937387Y-79293091D01*
X190940727Y-79293237D01*
X190943818Y-79294518D01*
X190973082Y-79297400D01*
X191115939Y-79297400D01*
X191145203Y-79294518D01*
X191148293Y-79293237D01*
X191151634Y-79293091D01*
X191179372Y-79283328D01*
X191393658Y-79183327D01*
X191418958Y-79168341D01*
X191425153Y-79161575D01*
X191432931Y-79156723D01*
X191452285Y-79134585D01*
X191523713Y-79034585D01*
X191538377Y-79009097D01*
X191551580Y-78952078D01*
X191541958Y-78894349D01*
X191510976Y-78844694D01*
X191463350Y-78810676D01*
X191406331Y-78797473D01*
X191348602Y-78807095D01*
X191298947Y-78838077D01*
X191279593Y-78860215D01*
X191231075Y-78928139D01*
X191082660Y-78997400D01*
X191006359Y-78997400D01*
X190857945Y-78928139D01*
X190750161Y-78777240D01*
X190689976Y-78608723D01*
X190623082Y-78234113D01*
X190623082Y-77960686D01*
X190689976Y-77586076D01*
X190750161Y-77417559D01*
X190857945Y-77266660D01*
X191006359Y-77197400D01*
X191082660Y-77197400D01*
X191231075Y-77266660D01*
X191279593Y-77334585D01*
X191298947Y-77356723D01*
X191348602Y-77387705D01*
X191406331Y-77397327D01*
X191463350Y-77384124D01*
X191510976Y-77350106D01*
X191541958Y-77300451D01*
X191551580Y-77242722D01*
X191538377Y-77185703D01*
X191523713Y-77160215D01*
X191452285Y-77060215D01*
X191441082Y-77047400D01*
X191894510Y-77047400D01*
X191894510Y-79147400D01*
X191897392Y-79176664D01*
X191919790Y-79230736D01*
X191961174Y-79272120D01*
X192015246Y-79294518D01*
X192073774Y-79294518D01*
X192127846Y-79272120D01*
X192169230Y-79230736D01*
X192191628Y-79176664D01*
X192194510Y-79147400D01*
X192194510Y-78197400D01*
X192751653Y-78197400D01*
X192751653Y-79147400D01*
X192754535Y-79176664D01*
X192776933Y-79230736D01*
X192818317Y-79272120D01*
X192872389Y-79294518D01*
X192930917Y-79294518D01*
X192984989Y-79272120D01*
X193026373Y-79230736D01*
X193048771Y-79176664D01*
X193051653Y-79147400D01*
X193051653Y-77047400D01*
X193048771Y-77018136D01*
X193026373Y-76964064D01*
X192984989Y-76922680D01*
X192930917Y-76900282D01*
X192872389Y-76900282D01*
X192818317Y-76922680D01*
X192776933Y-76964064D01*
X192754535Y-77018136D01*
X192751653Y-77047400D01*
X192751653Y-77897400D01*
X192194510Y-77897400D01*
X192194510Y-77047400D01*
X192191628Y-77018136D01*
X192169230Y-76964064D01*
X192127846Y-76922680D01*
X192073774Y-76900282D01*
X192015246Y-76900282D01*
X191961174Y-76922680D01*
X191919790Y-76964064D01*
X191897392Y-77018136D01*
X191894510Y-77047400D01*
X191441082Y-77047400D01*
X191432931Y-77038077D01*
X191425153Y-77033224D01*
X191418958Y-77026459D01*
X191393658Y-77011473D01*
X191179372Y-76911472D01*
X191151634Y-76901709D01*
X191148293Y-76901562D01*
X191145203Y-76900282D01*
X191115939Y-76897400D01*
X190973082Y-76897400D01*
X190943818Y-76900282D01*
X190940727Y-76901562D01*
X190937387Y-76901709D01*
X190909649Y-76911472D01*
X190695363Y-77011472D01*
X190670063Y-77026459D01*
X190663868Y-77033222D01*
X190656091Y-77038076D01*
X190636736Y-77060214D01*
X190493879Y-77260214D01*
X190489450Y-77267911D01*
X190487235Y-77270359D01*
X190483534Y-77278194D01*
X190479215Y-77285703D01*
X190478470Y-77288918D01*
X190474678Y-77296949D01*
X190403249Y-77496949D01*
X190400227Y-77509041D01*
X190396846Y-77521032D01*
X190325418Y-77921032D01*
X190324380Y-77934212D01*
X190323082Y-77947400D01*
X190089749Y-77947400D01*
X190089749Y-76664067D01*
X193284986Y-76664067D01*
X193284986Y-79530733D01*
G37*
D12*
X189766667Y-88386104D02*
X189733334Y-88424200D01*
X189733334Y-88424200D02*
X189633334Y-88462295D01*
X189633334Y-88462295D02*
X189566667Y-88462295D01*
X189566667Y-88462295D02*
X189466667Y-88424200D01*
X189466667Y-88424200D02*
X189400001Y-88348009D01*
X189400001Y-88348009D02*
X189366667Y-88271819D01*
X189366667Y-88271819D02*
X189333334Y-88119438D01*
X189333334Y-88119438D02*
X189333334Y-88005152D01*
X189333334Y-88005152D02*
X189366667Y-87852771D01*
X189366667Y-87852771D02*
X189400001Y-87776580D01*
X189400001Y-87776580D02*
X189466667Y-87700390D01*
X189466667Y-87700390D02*
X189566667Y-87662295D01*
X189566667Y-87662295D02*
X189633334Y-87662295D01*
X189633334Y-87662295D02*
X189733334Y-87700390D01*
X189733334Y-87700390D02*
X189766667Y-87738485D01*
X190366667Y-87928961D02*
X190366667Y-88462295D01*
X190066667Y-87928961D02*
X190066667Y-88348009D01*
X190066667Y-88348009D02*
X190100001Y-88424200D01*
X190100001Y-88424200D02*
X190166667Y-88462295D01*
X190166667Y-88462295D02*
X190266667Y-88462295D01*
X190266667Y-88462295D02*
X190333334Y-88424200D01*
X190333334Y-88424200D02*
X190366667Y-88386104D01*
X190700000Y-88462295D02*
X190700000Y-87928961D01*
X190700000Y-88081342D02*
X190733334Y-88005152D01*
X190733334Y-88005152D02*
X190766667Y-87967057D01*
X190766667Y-87967057D02*
X190833334Y-87928961D01*
X190833334Y-87928961D02*
X190900000Y-87928961D01*
X191133333Y-88462295D02*
X191133333Y-87928961D01*
X191133333Y-88081342D02*
X191166667Y-88005152D01*
X191166667Y-88005152D02*
X191200000Y-87967057D01*
X191200000Y-87967057D02*
X191266667Y-87928961D01*
X191266667Y-87928961D02*
X191333333Y-87928961D01*
G36*
X150843384Y-92582203D02*
G01*
X150874685Y-92616634D01*
X150910714Y-92695896D01*
X150910714Y-92925312D01*
X150874685Y-93004574D01*
X150843383Y-93039006D01*
X150775975Y-93076080D01*
X150624025Y-93076080D01*
X150556616Y-93039006D01*
X150525315Y-93004574D01*
X150489286Y-92925310D01*
X150489286Y-92695898D01*
X150525315Y-92616634D01*
X150556615Y-92582203D01*
X150624026Y-92545128D01*
X150775974Y-92545128D01*
X150843384Y-92582203D01*
G37*
G36*
X151182936Y-93348302D02*
G01*
X150217064Y-93348302D01*
X150217064Y-92522509D01*
X150339286Y-92522509D01*
X150339286Y-92941557D01*
X150340727Y-92956189D01*
X150341222Y-92957384D01*
X150341266Y-92958675D01*
X150346008Y-92972592D01*
X150393628Y-93077354D01*
X150396968Y-93083125D01*
X150397633Y-93084973D01*
X150399459Y-93087427D01*
X150400994Y-93090079D01*
X150402429Y-93091420D01*
X150406409Y-93096769D01*
X150454029Y-93149151D01*
X150460030Y-93154574D01*
X150461254Y-93156102D01*
X150463189Y-93157429D01*
X150464937Y-93159008D01*
X150466713Y-93159845D01*
X150473381Y-93164416D01*
X150568619Y-93216796D01*
X150582134Y-93222585D01*
X150586277Y-93223043D01*
X150590130Y-93224639D01*
X150604762Y-93226080D01*
X150795238Y-93226080D01*
X150809870Y-93224639D01*
X150813722Y-93223043D01*
X150817866Y-93222585D01*
X150831381Y-93216796D01*
X150926619Y-93164416D01*
X150933286Y-93159845D01*
X150935063Y-93159008D01*
X150936810Y-93157429D01*
X150938746Y-93156102D01*
X150939969Y-93154574D01*
X150945972Y-93149150D01*
X150993591Y-93096769D01*
X150997572Y-93091417D01*
X150999006Y-93090078D01*
X151000539Y-93087429D01*
X151002367Y-93084973D01*
X151003030Y-93083126D01*
X151006373Y-93077354D01*
X151053992Y-92972592D01*
X151058735Y-92958675D01*
X151058778Y-92957381D01*
X151059273Y-92956189D01*
X151060714Y-92941557D01*
X151060714Y-92679652D01*
X151059273Y-92665020D01*
X151058778Y-92663827D01*
X151058735Y-92662534D01*
X151053992Y-92648617D01*
X151006373Y-92543855D01*
X151003030Y-92538082D01*
X151002367Y-92536236D01*
X151000539Y-92533779D01*
X150999006Y-92531131D01*
X150997572Y-92529791D01*
X150993591Y-92524440D01*
X150945972Y-92472059D01*
X150939969Y-92466634D01*
X150938746Y-92465107D01*
X150936809Y-92463779D01*
X150935063Y-92462201D01*
X150933287Y-92461364D01*
X150926620Y-92456793D01*
X150831382Y-92404412D01*
X150817867Y-92398623D01*
X150813722Y-92398164D01*
X150809870Y-92396569D01*
X150795238Y-92395128D01*
X150604762Y-92395128D01*
X150590130Y-92396569D01*
X150586277Y-92398164D01*
X150582133Y-92398623D01*
X150568618Y-92404412D01*
X150510813Y-92436204D01*
X150532345Y-92341461D01*
X150617521Y-92200920D01*
X150651853Y-92163155D01*
X150719264Y-92126080D01*
X150890476Y-92126080D01*
X150905108Y-92124639D01*
X150932144Y-92113440D01*
X150952836Y-92092748D01*
X150964035Y-92065712D01*
X150964035Y-92036448D01*
X150952836Y-92009412D01*
X150932144Y-91988720D01*
X150905108Y-91977521D01*
X150890476Y-91976080D01*
X150700000Y-91976080D01*
X150685368Y-91977521D01*
X150681515Y-91979116D01*
X150677371Y-91979575D01*
X150663856Y-91985364D01*
X150568618Y-92037745D01*
X150561950Y-92042316D01*
X150560175Y-92043153D01*
X150558428Y-92044731D01*
X150556492Y-92046059D01*
X150555268Y-92047586D01*
X150549267Y-92053010D01*
X150501647Y-92105392D01*
X150497325Y-92111201D01*
X150493003Y-92116970D01*
X150397765Y-92274112D01*
X150394562Y-92280798D01*
X150393418Y-92282415D01*
X150392570Y-92284957D01*
X150391414Y-92287373D01*
X150391113Y-92289329D01*
X150388770Y-92296364D01*
X150341151Y-92505887D01*
X150340976Y-92507275D01*
X150340727Y-92507877D01*
X150340106Y-92514175D01*
X150339313Y-92520475D01*
X150339422Y-92521118D01*
X150339286Y-92522509D01*
X150217064Y-92522509D01*
X150217064Y-91853858D01*
X151182936Y-91853858D01*
X151182936Y-93348302D01*
G37*
X146866667Y-89122295D02*
X146533333Y-89122295D01*
X146533333Y-89122295D02*
X146533333Y-88322295D01*
D10*
X189177693Y-92272419D02*
X188606265Y-92272419D01*
X188891979Y-92272419D02*
X188891979Y-91272419D01*
X188891979Y-91272419D02*
X188796741Y-91415276D01*
X188796741Y-91415276D02*
X188701503Y-91510514D01*
X188701503Y-91510514D02*
X188606265Y-91558133D01*
G36*
X156874998Y-80838530D02*
G01*
X154985280Y-80838530D01*
X154985280Y-79966678D01*
X155096391Y-79966678D01*
X155113505Y-80000906D01*
X155149810Y-80013007D01*
X155168626Y-80007854D01*
X155263863Y-79960236D01*
X155270196Y-79955320D01*
X155276858Y-79950869D01*
X155372096Y-79855631D01*
X155374844Y-79851517D01*
X155378344Y-79848011D01*
X155381979Y-79842558D01*
X155381979Y-80627419D01*
X155146265Y-80627419D01*
X155127131Y-80631225D01*
X155100071Y-80658285D01*
X155100071Y-80696553D01*
X155127131Y-80723613D01*
X155146265Y-80727419D01*
X155717693Y-80727419D01*
X155736827Y-80723613D01*
X155763887Y-80696553D01*
X155763887Y-80658285D01*
X155736827Y-80631225D01*
X155717693Y-80627419D01*
X155481979Y-80627419D01*
X155481979Y-80347629D01*
X156048772Y-80347629D01*
X156052452Y-80354989D01*
X156052452Y-80363219D01*
X156060681Y-80371448D01*
X156065886Y-80381858D01*
X156073693Y-80384460D01*
X156079512Y-80390279D01*
X156098646Y-80394085D01*
X156524836Y-80394085D01*
X156524836Y-80677419D01*
X156528642Y-80696553D01*
X156555702Y-80723613D01*
X156593970Y-80723613D01*
X156621030Y-80696553D01*
X156624836Y-80677419D01*
X156624836Y-80394085D01*
X156717693Y-80394085D01*
X156736827Y-80390279D01*
X156763887Y-80363219D01*
X156763887Y-80324951D01*
X156736827Y-80297891D01*
X156717693Y-80294085D01*
X156624836Y-80294085D01*
X156624836Y-80010752D01*
X156621030Y-79991618D01*
X156593970Y-79964558D01*
X156555702Y-79964558D01*
X156528642Y-79991618D01*
X156524836Y-80010752D01*
X156524836Y-80294085D01*
X156168017Y-80294085D01*
X156384175Y-79645612D01*
X156386615Y-79626256D01*
X156369501Y-79592028D01*
X156333197Y-79579926D01*
X156298968Y-79597041D01*
X156289307Y-79613989D01*
X156051212Y-80328274D01*
X156048772Y-80347629D01*
X155481979Y-80347629D01*
X155481979Y-79677419D01*
X155478173Y-79658285D01*
X155474532Y-79654644D01*
X155473523Y-79649597D01*
X155461407Y-79641519D01*
X155451113Y-79631225D01*
X155445967Y-79631225D01*
X155441683Y-79628369D01*
X155427405Y-79631225D01*
X155412845Y-79631225D01*
X155409204Y-79634865D01*
X155404157Y-79635875D01*
X155390377Y-79649684D01*
X155297882Y-79788424D01*
X155211886Y-79874421D01*
X155123904Y-79918412D01*
X155108492Y-79930373D01*
X155096391Y-79966678D01*
X154985280Y-79966678D01*
X154985280Y-79468815D01*
X156874998Y-79468815D01*
X156874998Y-80838530D01*
G37*
G36*
X188686419Y-80713526D02*
G01*
X187701341Y-80713526D01*
X187701341Y-79533285D01*
X187812452Y-79533285D01*
X187812452Y-79571553D01*
X187839512Y-79598613D01*
X187858646Y-79602419D01*
X188449485Y-79602419D01*
X188050784Y-80532723D01*
X188046745Y-80551809D01*
X188060957Y-80587341D01*
X188096131Y-80602415D01*
X188131663Y-80588203D01*
X188142698Y-80572115D01*
X188571269Y-79572115D01*
X188571356Y-79571702D01*
X188571506Y-79571553D01*
X188571506Y-79570995D01*
X188575308Y-79553029D01*
X188571506Y-79543524D01*
X188571506Y-79533285D01*
X188564679Y-79526458D01*
X188561095Y-79517498D01*
X188551686Y-79513465D01*
X188544446Y-79506225D01*
X188526432Y-79502641D01*
X188525922Y-79502423D01*
X188525726Y-79502501D01*
X188525312Y-79502419D01*
X187858646Y-79502419D01*
X187839512Y-79506225D01*
X187812452Y-79533285D01*
X187701341Y-79533285D01*
X187701341Y-79391308D01*
X188686419Y-79391308D01*
X188686419Y-80713526D01*
G37*
G36*
X174897599Y-79656130D02*
G01*
X174933743Y-79692275D01*
X174975279Y-79775347D01*
X175020074Y-79954526D01*
X175020074Y-80180311D01*
X174975279Y-80359489D01*
X174933743Y-80442561D01*
X174897597Y-80478708D01*
X174820176Y-80517419D01*
X174748545Y-80517419D01*
X174671122Y-80478708D01*
X174634976Y-80442561D01*
X174593441Y-80359491D01*
X174548646Y-80180311D01*
X174548646Y-79954526D01*
X174593441Y-79775346D01*
X174634976Y-79692274D01*
X174671121Y-79656130D01*
X174748545Y-79617419D01*
X174820176Y-79617419D01*
X174897599Y-79656130D01*
G37*
G36*
X175231185Y-80728530D02*
G01*
X173385280Y-80728530D01*
X173385280Y-79856678D01*
X173496391Y-79856678D01*
X173513505Y-79890906D01*
X173549810Y-79903007D01*
X173568626Y-79897854D01*
X173663863Y-79850236D01*
X173670196Y-79845320D01*
X173676858Y-79840869D01*
X173772096Y-79745631D01*
X173774844Y-79741517D01*
X173778344Y-79738011D01*
X173781979Y-79732558D01*
X173781979Y-80517419D01*
X173546265Y-80517419D01*
X173527131Y-80521225D01*
X173500071Y-80548285D01*
X173500071Y-80586553D01*
X173527131Y-80613613D01*
X173546265Y-80617419D01*
X174117693Y-80617419D01*
X174136827Y-80613613D01*
X174163887Y-80586553D01*
X174163887Y-80548285D01*
X174136827Y-80521225D01*
X174117693Y-80517419D01*
X173881979Y-80517419D01*
X173881979Y-79948371D01*
X174448646Y-79948371D01*
X174448646Y-80186466D01*
X174449841Y-80192475D01*
X174450139Y-80198593D01*
X174497758Y-80389069D01*
X174500097Y-80394021D01*
X174501544Y-80399303D01*
X174549162Y-80494540D01*
X174554073Y-80500868D01*
X174558528Y-80507535D01*
X174606147Y-80555155D01*
X174612813Y-80559609D01*
X174619142Y-80564521D01*
X174714380Y-80612140D01*
X174716795Y-80612801D01*
X174717607Y-80613613D01*
X174725468Y-80615176D01*
X174733196Y-80617293D01*
X174734284Y-80616930D01*
X174736741Y-80617419D01*
X174831979Y-80617419D01*
X174834435Y-80616930D01*
X174835524Y-80617293D01*
X174843251Y-80615176D01*
X174851113Y-80613613D01*
X174851924Y-80612801D01*
X174854340Y-80612140D01*
X174949577Y-80564522D01*
X174955904Y-80559611D01*
X174962573Y-80555155D01*
X175010192Y-80507535D01*
X175014645Y-80500869D01*
X175019557Y-80494541D01*
X175067176Y-80399303D01*
X175068622Y-80394021D01*
X175070962Y-80389069D01*
X175118581Y-80198593D01*
X175118878Y-80192475D01*
X175120074Y-80186466D01*
X175120074Y-79948371D01*
X175118878Y-79942361D01*
X175118581Y-79936244D01*
X175070962Y-79745768D01*
X175068622Y-79740815D01*
X175067176Y-79735534D01*
X175019557Y-79640296D01*
X175014645Y-79633967D01*
X175010191Y-79627301D01*
X174962572Y-79579683D01*
X174955910Y-79575231D01*
X174949577Y-79570316D01*
X174854340Y-79522698D01*
X174851924Y-79522036D01*
X174851113Y-79521225D01*
X174843251Y-79519661D01*
X174835524Y-79517545D01*
X174834435Y-79517907D01*
X174831979Y-79517419D01*
X174736741Y-79517419D01*
X174734284Y-79517907D01*
X174733196Y-79517545D01*
X174725468Y-79519661D01*
X174717607Y-79521225D01*
X174716795Y-79522036D01*
X174714380Y-79522698D01*
X174619142Y-79570317D01*
X174612813Y-79575228D01*
X174606147Y-79579683D01*
X174558529Y-79627302D01*
X174554077Y-79633963D01*
X174549162Y-79640297D01*
X174501544Y-79735534D01*
X174500097Y-79740815D01*
X174497758Y-79745768D01*
X174450139Y-79936244D01*
X174449841Y-79942361D01*
X174448646Y-79948371D01*
X173881979Y-79948371D01*
X173881979Y-79567419D01*
X173878173Y-79548285D01*
X173874532Y-79544644D01*
X173873523Y-79539597D01*
X173861407Y-79531519D01*
X173851113Y-79521225D01*
X173845967Y-79521225D01*
X173841683Y-79518369D01*
X173827405Y-79521225D01*
X173812845Y-79521225D01*
X173809204Y-79524865D01*
X173804157Y-79525875D01*
X173790377Y-79539684D01*
X173697882Y-79678424D01*
X173611886Y-79764421D01*
X173523904Y-79808412D01*
X173508492Y-79820373D01*
X173496391Y-79856678D01*
X173385280Y-79856678D01*
X173385280Y-79406308D01*
X175231185Y-79406308D01*
X175231185Y-80728530D01*
G37*
D12*
X171650000Y-92024200D02*
X171750000Y-92062295D01*
X171750000Y-92062295D02*
X171916667Y-92062295D01*
X171916667Y-92062295D02*
X171983333Y-92024200D01*
X171983333Y-92024200D02*
X172016667Y-91986104D01*
X172016667Y-91986104D02*
X172050000Y-91909914D01*
X172050000Y-91909914D02*
X172050000Y-91833723D01*
X172050000Y-91833723D02*
X172016667Y-91757533D01*
X172016667Y-91757533D02*
X171983333Y-91719438D01*
X171983333Y-91719438D02*
X171916667Y-91681342D01*
X171916667Y-91681342D02*
X171783333Y-91643247D01*
X171783333Y-91643247D02*
X171716667Y-91605152D01*
X171716667Y-91605152D02*
X171683333Y-91567057D01*
X171683333Y-91567057D02*
X171650000Y-91490866D01*
X171650000Y-91490866D02*
X171650000Y-91414676D01*
X171650000Y-91414676D02*
X171683333Y-91338485D01*
X171683333Y-91338485D02*
X171716667Y-91300390D01*
X171716667Y-91300390D02*
X171783333Y-91262295D01*
X171783333Y-91262295D02*
X171950000Y-91262295D01*
X171950000Y-91262295D02*
X172050000Y-91300390D01*
X172350000Y-92062295D02*
X172350000Y-91262295D01*
X172350000Y-91262295D02*
X172516667Y-91262295D01*
X172516667Y-91262295D02*
X172616667Y-91300390D01*
X172616667Y-91300390D02*
X172683334Y-91376580D01*
X172683334Y-91376580D02*
X172716667Y-91452771D01*
X172716667Y-91452771D02*
X172750000Y-91605152D01*
X172750000Y-91605152D02*
X172750000Y-91719438D01*
X172750000Y-91719438D02*
X172716667Y-91871819D01*
X172716667Y-91871819D02*
X172683334Y-91948009D01*
X172683334Y-91948009D02*
X172616667Y-92024200D01*
X172616667Y-92024200D02*
X172516667Y-92062295D01*
X172516667Y-92062295D02*
X172350000Y-92062295D01*
X173016667Y-91833723D02*
X173350000Y-91833723D01*
X172950000Y-92062295D02*
X173183334Y-91262295D01*
X173183334Y-91262295D02*
X173416667Y-92062295D01*
X196966667Y-111100390D02*
X196900000Y-111062295D01*
X196900000Y-111062295D02*
X196800000Y-111062295D01*
X196800000Y-111062295D02*
X196700000Y-111100390D01*
X196700000Y-111100390D02*
X196633334Y-111176580D01*
X196633334Y-111176580D02*
X196600000Y-111252771D01*
X196600000Y-111252771D02*
X196566667Y-111405152D01*
X196566667Y-111405152D02*
X196566667Y-111519438D01*
X196566667Y-111519438D02*
X196600000Y-111671819D01*
X196600000Y-111671819D02*
X196633334Y-111748009D01*
X196633334Y-111748009D02*
X196700000Y-111824200D01*
X196700000Y-111824200D02*
X196800000Y-111862295D01*
X196800000Y-111862295D02*
X196866667Y-111862295D01*
X196866667Y-111862295D02*
X196966667Y-111824200D01*
X196966667Y-111824200D02*
X197000000Y-111786104D01*
X197000000Y-111786104D02*
X197000000Y-111519438D01*
X197000000Y-111519438D02*
X196866667Y-111519438D01*
X197300000Y-111862295D02*
X197300000Y-111062295D01*
X197300000Y-111062295D02*
X197700000Y-111862295D01*
X197700000Y-111862295D02*
X197700000Y-111062295D01*
X198033333Y-111862295D02*
X198033333Y-111062295D01*
X198033333Y-111062295D02*
X198200000Y-111062295D01*
X198200000Y-111062295D02*
X198300000Y-111100390D01*
X198300000Y-111100390D02*
X198366667Y-111176580D01*
X198366667Y-111176580D02*
X198400000Y-111252771D01*
X198400000Y-111252771D02*
X198433333Y-111405152D01*
X198433333Y-111405152D02*
X198433333Y-111519438D01*
X198433333Y-111519438D02*
X198400000Y-111671819D01*
X198400000Y-111671819D02*
X198366667Y-111748009D01*
X198366667Y-111748009D02*
X198300000Y-111824200D01*
X198300000Y-111824200D02*
X198200000Y-111862295D01*
X198200000Y-111862295D02*
X198033333Y-111862295D01*
D10*
G36*
X147355218Y-80112082D02*
G01*
X147391362Y-80148227D01*
X147430074Y-80225650D01*
X147430074Y-80440138D01*
X147391362Y-80517561D01*
X147355216Y-80553708D01*
X147277795Y-80592419D01*
X147110926Y-80592419D01*
X147033503Y-80553708D01*
X146997357Y-80517561D01*
X146958646Y-80440139D01*
X146958646Y-80225650D01*
X146997357Y-80148226D01*
X147033502Y-80112082D01*
X147110926Y-80073371D01*
X147277795Y-80073371D01*
X147355218Y-80112082D01*
G37*
G36*
X147641185Y-80803530D02*
G01*
X145795280Y-80803530D01*
X145795280Y-79931678D01*
X145906391Y-79931678D01*
X145923505Y-79965906D01*
X145959810Y-79978007D01*
X145978626Y-79972854D01*
X146073863Y-79925236D01*
X146080196Y-79920320D01*
X146086858Y-79915869D01*
X146182096Y-79820631D01*
X146184844Y-79816517D01*
X146188344Y-79813011D01*
X146191979Y-79807558D01*
X146191979Y-80592419D01*
X145956265Y-80592419D01*
X145937131Y-80596225D01*
X145910071Y-80623285D01*
X145910071Y-80661553D01*
X145937131Y-80688613D01*
X145956265Y-80692419D01*
X146527693Y-80692419D01*
X146546827Y-80688613D01*
X146573887Y-80661553D01*
X146573887Y-80623285D01*
X146546827Y-80596225D01*
X146527693Y-80592419D01*
X146291979Y-80592419D01*
X146291979Y-80070990D01*
X146858646Y-80070990D01*
X146858646Y-80451942D01*
X146859134Y-80454398D01*
X146858772Y-80455487D01*
X146860888Y-80463214D01*
X146862452Y-80471076D01*
X146863263Y-80471887D01*
X146863925Y-80474303D01*
X146911543Y-80569540D01*
X146916454Y-80575868D01*
X146920909Y-80582535D01*
X146968528Y-80630155D01*
X146975194Y-80634609D01*
X146981523Y-80639521D01*
X147076761Y-80687140D01*
X147079176Y-80687801D01*
X147079988Y-80688613D01*
X147087849Y-80690176D01*
X147095577Y-80692293D01*
X147096665Y-80691930D01*
X147099122Y-80692419D01*
X147289598Y-80692419D01*
X147292054Y-80691930D01*
X147293143Y-80692293D01*
X147300870Y-80690176D01*
X147308732Y-80688613D01*
X147309543Y-80687801D01*
X147311959Y-80687140D01*
X147407196Y-80639522D01*
X147413523Y-80634611D01*
X147420192Y-80630155D01*
X147467811Y-80582535D01*
X147472264Y-80575869D01*
X147477176Y-80569541D01*
X147524795Y-80474303D01*
X147525456Y-80471887D01*
X147526268Y-80471076D01*
X147527831Y-80463214D01*
X147529948Y-80455487D01*
X147529585Y-80454398D01*
X147530074Y-80451942D01*
X147530074Y-80213847D01*
X147529585Y-80211390D01*
X147529948Y-80210302D01*
X147527831Y-80202574D01*
X147526268Y-80194713D01*
X147525456Y-80193901D01*
X147524795Y-80191486D01*
X147477176Y-80096248D01*
X147472264Y-80089919D01*
X147467810Y-80083253D01*
X147420191Y-80035635D01*
X147413529Y-80031183D01*
X147407196Y-80026268D01*
X147311959Y-79978650D01*
X147309543Y-79977988D01*
X147308732Y-79977177D01*
X147300870Y-79975613D01*
X147293143Y-79973497D01*
X147292054Y-79973859D01*
X147289598Y-79973371D01*
X147099122Y-79973371D01*
X147096665Y-79973859D01*
X147095577Y-79973497D01*
X147087849Y-79975613D01*
X147079988Y-79977177D01*
X147079176Y-79977988D01*
X147076761Y-79978650D01*
X146981523Y-80026269D01*
X146975194Y-80031180D01*
X146969122Y-80035237D01*
X147002671Y-79901044D01*
X147090361Y-79769508D01*
X147128740Y-79731130D01*
X147206164Y-79692419D01*
X147384836Y-79692419D01*
X147403970Y-79688613D01*
X147431030Y-79661553D01*
X147431030Y-79623285D01*
X147403970Y-79596225D01*
X147384836Y-79592419D01*
X147194360Y-79592419D01*
X147191903Y-79592907D01*
X147190815Y-79592545D01*
X147183087Y-79594661D01*
X147175226Y-79596225D01*
X147174414Y-79597036D01*
X147171999Y-79597698D01*
X147076761Y-79645317D01*
X147070432Y-79650228D01*
X147063766Y-79654683D01*
X147016148Y-79702302D01*
X147013397Y-79706417D01*
X147009901Y-79709922D01*
X146914662Y-79852779D01*
X146911402Y-79860671D01*
X146907758Y-79868387D01*
X146860139Y-80058863D01*
X146859841Y-80064980D01*
X146858646Y-80070990D01*
X146291979Y-80070990D01*
X146291979Y-79642419D01*
X146288173Y-79623285D01*
X146284532Y-79619644D01*
X146283523Y-79614597D01*
X146271407Y-79606519D01*
X146261113Y-79596225D01*
X146255967Y-79596225D01*
X146251683Y-79593369D01*
X146237405Y-79596225D01*
X146222845Y-79596225D01*
X146219204Y-79599865D01*
X146214157Y-79600875D01*
X146200377Y-79614684D01*
X146107882Y-79753424D01*
X146021886Y-79839421D01*
X145933904Y-79883412D01*
X145918492Y-79895373D01*
X145906391Y-79931678D01*
X145795280Y-79931678D01*
X145795280Y-79481308D01*
X147641185Y-79481308D01*
X147641185Y-80803530D01*
G37*
G36*
X190643804Y-86623530D02*
G01*
X189750402Y-86623530D01*
X189750402Y-85933634D01*
X189861513Y-85933634D01*
X189863396Y-85953052D01*
X189865071Y-85955099D01*
X189865071Y-85957743D01*
X189876968Y-85969640D01*
X189887629Y-85982670D01*
X189890261Y-85982933D01*
X189892131Y-85984803D01*
X189908958Y-85984803D01*
X189925708Y-85986478D01*
X189927755Y-85984803D01*
X189930399Y-85984803D01*
X189946620Y-85973964D01*
X189988502Y-85932082D01*
X190065926Y-85893371D01*
X190280414Y-85893371D01*
X190357837Y-85932082D01*
X190393981Y-85968227D01*
X190432693Y-86045650D01*
X190432693Y-86260138D01*
X190393981Y-86337561D01*
X190357835Y-86373708D01*
X190280414Y-86412419D01*
X190065926Y-86412419D01*
X189988503Y-86373708D01*
X189946621Y-86331825D01*
X189930400Y-86320986D01*
X189892131Y-86320986D01*
X189865071Y-86348045D01*
X189865071Y-86386314D01*
X189875909Y-86402535D01*
X189923528Y-86450155D01*
X189930194Y-86454609D01*
X189936523Y-86459521D01*
X190031761Y-86507140D01*
X190034176Y-86507801D01*
X190034988Y-86508613D01*
X190042849Y-86510176D01*
X190050577Y-86512293D01*
X190051665Y-86511930D01*
X190054122Y-86512419D01*
X190292217Y-86512419D01*
X190294673Y-86511930D01*
X190295762Y-86512293D01*
X190303489Y-86510176D01*
X190311351Y-86508613D01*
X190312162Y-86507801D01*
X190314578Y-86507140D01*
X190409815Y-86459522D01*
X190416142Y-86454611D01*
X190422811Y-86450155D01*
X190470430Y-86402535D01*
X190474883Y-86395869D01*
X190479795Y-86389541D01*
X190527414Y-86294303D01*
X190528075Y-86291887D01*
X190528887Y-86291076D01*
X190530450Y-86283214D01*
X190532567Y-86275487D01*
X190532204Y-86274398D01*
X190532693Y-86271942D01*
X190532693Y-86033847D01*
X190532204Y-86031390D01*
X190532567Y-86030302D01*
X190530450Y-86022574D01*
X190528887Y-86014713D01*
X190528075Y-86013901D01*
X190527414Y-86011486D01*
X190479795Y-85916248D01*
X190474883Y-85909919D01*
X190470429Y-85903253D01*
X190422810Y-85855635D01*
X190416148Y-85851183D01*
X190409815Y-85846268D01*
X190314578Y-85798650D01*
X190312162Y-85797988D01*
X190311351Y-85797177D01*
X190303489Y-85795613D01*
X190295762Y-85793497D01*
X190294673Y-85793859D01*
X190292217Y-85793371D01*
X190054122Y-85793371D01*
X190051665Y-85793859D01*
X190050577Y-85793497D01*
X190042849Y-85795613D01*
X190034988Y-85797177D01*
X190034176Y-85797988D01*
X190031761Y-85798650D01*
X189972549Y-85828255D01*
X190004133Y-85512419D01*
X190435074Y-85512419D01*
X190454208Y-85508613D01*
X190481268Y-85481553D01*
X190481268Y-85443285D01*
X190454208Y-85416225D01*
X190435074Y-85412419D01*
X189958884Y-85412419D01*
X189946922Y-85414798D01*
X189944441Y-85414550D01*
X189943243Y-85415530D01*
X189939750Y-85416225D01*
X189927849Y-85428125D01*
X189914823Y-85438784D01*
X189913783Y-85442191D01*
X189912690Y-85443285D01*
X189912690Y-85445777D01*
X189909132Y-85457444D01*
X189861513Y-85933634D01*
X189750402Y-85933634D01*
X189750402Y-85301308D01*
X190643804Y-85301308D01*
X190643804Y-86623530D01*
G37*
D12*
X153566667Y-87862295D02*
X153233333Y-87862295D01*
X153233333Y-87862295D02*
X153200000Y-88243247D01*
X153200000Y-88243247D02*
X153233333Y-88205152D01*
X153233333Y-88205152D02*
X153300000Y-88167057D01*
X153300000Y-88167057D02*
X153466667Y-88167057D01*
X153466667Y-88167057D02*
X153533333Y-88205152D01*
X153533333Y-88205152D02*
X153566667Y-88243247D01*
X153566667Y-88243247D02*
X153600000Y-88319438D01*
X153600000Y-88319438D02*
X153600000Y-88509914D01*
X153600000Y-88509914D02*
X153566667Y-88586104D01*
X153566667Y-88586104D02*
X153533333Y-88624200D01*
X153533333Y-88624200D02*
X153466667Y-88662295D01*
X153466667Y-88662295D02*
X153300000Y-88662295D01*
X153300000Y-88662295D02*
X153233333Y-88624200D01*
X153233333Y-88624200D02*
X153200000Y-88586104D01*
X153800000Y-87862295D02*
X154033334Y-88662295D01*
X154033334Y-88662295D02*
X154266667Y-87862295D01*
X156766667Y-89462295D02*
X157200000Y-89462295D01*
X157200000Y-89462295D02*
X156966667Y-89767057D01*
X156966667Y-89767057D02*
X157066667Y-89767057D01*
X157066667Y-89767057D02*
X157133333Y-89805152D01*
X157133333Y-89805152D02*
X157166667Y-89843247D01*
X157166667Y-89843247D02*
X157200000Y-89919438D01*
X157200000Y-89919438D02*
X157200000Y-90109914D01*
X157200000Y-90109914D02*
X157166667Y-90186104D01*
X157166667Y-90186104D02*
X157133333Y-90224200D01*
X157133333Y-90224200D02*
X157066667Y-90262295D01*
X157066667Y-90262295D02*
X156866667Y-90262295D01*
X156866667Y-90262295D02*
X156800000Y-90224200D01*
X156800000Y-90224200D02*
X156766667Y-90186104D01*
X157400000Y-89462295D02*
X157633334Y-90262295D01*
X157633334Y-90262295D02*
X157866667Y-89462295D01*
X193966667Y-115812295D02*
X194400000Y-115812295D01*
X194400000Y-115812295D02*
X194166667Y-116117057D01*
X194166667Y-116117057D02*
X194266667Y-116117057D01*
X194266667Y-116117057D02*
X194333333Y-116155152D01*
X194333333Y-116155152D02*
X194366667Y-116193247D01*
X194366667Y-116193247D02*
X194400000Y-116269438D01*
X194400000Y-116269438D02*
X194400000Y-116459914D01*
X194400000Y-116459914D02*
X194366667Y-116536104D01*
X194366667Y-116536104D02*
X194333333Y-116574200D01*
X194333333Y-116574200D02*
X194266667Y-116612295D01*
X194266667Y-116612295D02*
X194066667Y-116612295D01*
X194066667Y-116612295D02*
X194000000Y-116574200D01*
X194000000Y-116574200D02*
X193966667Y-116536104D01*
X194700000Y-116536104D02*
X194733334Y-116574200D01*
X194733334Y-116574200D02*
X194700000Y-116612295D01*
X194700000Y-116612295D02*
X194666667Y-116574200D01*
X194666667Y-116574200D02*
X194700000Y-116536104D01*
X194700000Y-116536104D02*
X194700000Y-116612295D01*
X194966667Y-115812295D02*
X195400000Y-115812295D01*
X195400000Y-115812295D02*
X195166667Y-116117057D01*
X195166667Y-116117057D02*
X195266667Y-116117057D01*
X195266667Y-116117057D02*
X195333333Y-116155152D01*
X195333333Y-116155152D02*
X195366667Y-116193247D01*
X195366667Y-116193247D02*
X195400000Y-116269438D01*
X195400000Y-116269438D02*
X195400000Y-116459914D01*
X195400000Y-116459914D02*
X195366667Y-116536104D01*
X195366667Y-116536104D02*
X195333333Y-116574200D01*
X195333333Y-116574200D02*
X195266667Y-116612295D01*
X195266667Y-116612295D02*
X195066667Y-116612295D01*
X195066667Y-116612295D02*
X195000000Y-116574200D01*
X195000000Y-116574200D02*
X194966667Y-116536104D01*
X195600000Y-115812295D02*
X195833334Y-116612295D01*
X195833334Y-116612295D02*
X196066667Y-115812295D01*
X171916666Y-86824200D02*
X172016666Y-86862295D01*
X172016666Y-86862295D02*
X172183333Y-86862295D01*
X172183333Y-86862295D02*
X172249999Y-86824200D01*
X172249999Y-86824200D02*
X172283333Y-86786104D01*
X172283333Y-86786104D02*
X172316666Y-86709914D01*
X172316666Y-86709914D02*
X172316666Y-86633723D01*
X172316666Y-86633723D02*
X172283333Y-86557533D01*
X172283333Y-86557533D02*
X172249999Y-86519438D01*
X172249999Y-86519438D02*
X172183333Y-86481342D01*
X172183333Y-86481342D02*
X172049999Y-86443247D01*
X172049999Y-86443247D02*
X171983333Y-86405152D01*
X171983333Y-86405152D02*
X171949999Y-86367057D01*
X171949999Y-86367057D02*
X171916666Y-86290866D01*
X171916666Y-86290866D02*
X171916666Y-86214676D01*
X171916666Y-86214676D02*
X171949999Y-86138485D01*
X171949999Y-86138485D02*
X171983333Y-86100390D01*
X171983333Y-86100390D02*
X172049999Y-86062295D01*
X172049999Y-86062295D02*
X172216666Y-86062295D01*
X172216666Y-86062295D02*
X172316666Y-86100390D01*
X173016666Y-86786104D02*
X172983333Y-86824200D01*
X172983333Y-86824200D02*
X172883333Y-86862295D01*
X172883333Y-86862295D02*
X172816666Y-86862295D01*
X172816666Y-86862295D02*
X172716666Y-86824200D01*
X172716666Y-86824200D02*
X172650000Y-86748009D01*
X172650000Y-86748009D02*
X172616666Y-86671819D01*
X172616666Y-86671819D02*
X172583333Y-86519438D01*
X172583333Y-86519438D02*
X172583333Y-86405152D01*
X172583333Y-86405152D02*
X172616666Y-86252771D01*
X172616666Y-86252771D02*
X172650000Y-86176580D01*
X172650000Y-86176580D02*
X172716666Y-86100390D01*
X172716666Y-86100390D02*
X172816666Y-86062295D01*
X172816666Y-86062295D02*
X172883333Y-86062295D01*
X172883333Y-86062295D02*
X172983333Y-86100390D01*
X172983333Y-86100390D02*
X173016666Y-86138485D01*
X173650000Y-86862295D02*
X173316666Y-86862295D01*
X173316666Y-86862295D02*
X173316666Y-86062295D01*
X144720000Y-85462295D02*
X144720000Y-84662295D01*
X144720000Y-85043247D02*
X145120000Y-85043247D01*
X145120000Y-85462295D02*
X145120000Y-84662295D01*
D10*
G36*
X152221185Y-80808530D02*
G01*
X150375280Y-80808530D01*
X150375280Y-79936678D01*
X150486391Y-79936678D01*
X150503505Y-79970906D01*
X150539810Y-79983007D01*
X150558626Y-79977854D01*
X150653863Y-79930236D01*
X150660196Y-79925320D01*
X150666858Y-79920869D01*
X150762096Y-79825631D01*
X150764844Y-79821517D01*
X150768344Y-79818011D01*
X150771979Y-79812558D01*
X150771979Y-80597419D01*
X150536265Y-80597419D01*
X150517131Y-80601225D01*
X150490071Y-80628285D01*
X150490071Y-80666553D01*
X150517131Y-80693613D01*
X150536265Y-80697419D01*
X151107693Y-80697419D01*
X151126827Y-80693613D01*
X151153887Y-80666553D01*
X151153887Y-80628285D01*
X151126827Y-80601225D01*
X151107693Y-80597419D01*
X150871979Y-80597419D01*
X150871979Y-80118634D01*
X151438894Y-80118634D01*
X151440777Y-80138052D01*
X151442452Y-80140099D01*
X151442452Y-80142743D01*
X151454349Y-80154640D01*
X151465010Y-80167670D01*
X151467642Y-80167933D01*
X151469512Y-80169803D01*
X151486339Y-80169803D01*
X151503089Y-80171478D01*
X151505136Y-80169803D01*
X151507780Y-80169803D01*
X151524001Y-80158964D01*
X151565883Y-80117082D01*
X151643307Y-80078371D01*
X151857795Y-80078371D01*
X151935218Y-80117082D01*
X151971362Y-80153227D01*
X152010074Y-80230650D01*
X152010074Y-80445138D01*
X151971362Y-80522561D01*
X151935216Y-80558708D01*
X151857795Y-80597419D01*
X151643307Y-80597419D01*
X151565884Y-80558708D01*
X151524002Y-80516825D01*
X151507781Y-80505986D01*
X151469512Y-80505986D01*
X151442452Y-80533045D01*
X151442452Y-80571314D01*
X151453290Y-80587535D01*
X151500909Y-80635155D01*
X151507575Y-80639609D01*
X151513904Y-80644521D01*
X151609142Y-80692140D01*
X151611557Y-80692801D01*
X151612369Y-80693613D01*
X151620230Y-80695176D01*
X151627958Y-80697293D01*
X151629046Y-80696930D01*
X151631503Y-80697419D01*
X151869598Y-80697419D01*
X151872054Y-80696930D01*
X151873143Y-80697293D01*
X151880870Y-80695176D01*
X151888732Y-80693613D01*
X151889543Y-80692801D01*
X151891959Y-80692140D01*
X151987196Y-80644522D01*
X151993523Y-80639611D01*
X152000192Y-80635155D01*
X152047811Y-80587535D01*
X152052264Y-80580869D01*
X152057176Y-80574541D01*
X152104795Y-80479303D01*
X152105456Y-80476887D01*
X152106268Y-80476076D01*
X152107831Y-80468214D01*
X152109948Y-80460487D01*
X152109585Y-80459398D01*
X152110074Y-80456942D01*
X152110074Y-80218847D01*
X152109585Y-80216390D01*
X152109948Y-80215302D01*
X152107831Y-80207574D01*
X152106268Y-80199713D01*
X152105456Y-80198901D01*
X152104795Y-80196486D01*
X152057176Y-80101248D01*
X152052264Y-80094919D01*
X152047810Y-80088253D01*
X152000191Y-80040635D01*
X151993529Y-80036183D01*
X151987196Y-80031268D01*
X151891959Y-79983650D01*
X151889543Y-79982988D01*
X151888732Y-79982177D01*
X151880870Y-79980613D01*
X151873143Y-79978497D01*
X151872054Y-79978859D01*
X151869598Y-79978371D01*
X151631503Y-79978371D01*
X151629046Y-79978859D01*
X151627958Y-79978497D01*
X151620230Y-79980613D01*
X151612369Y-79982177D01*
X151611557Y-79982988D01*
X151609142Y-79983650D01*
X151549930Y-80013255D01*
X151581514Y-79697419D01*
X152012455Y-79697419D01*
X152031589Y-79693613D01*
X152058649Y-79666553D01*
X152058649Y-79628285D01*
X152031589Y-79601225D01*
X152012455Y-79597419D01*
X151536265Y-79597419D01*
X151524303Y-79599798D01*
X151521822Y-79599550D01*
X151520624Y-79600530D01*
X151517131Y-79601225D01*
X151505230Y-79613125D01*
X151492204Y-79623784D01*
X151491164Y-79627191D01*
X151490071Y-79628285D01*
X151490071Y-79630777D01*
X151486513Y-79642444D01*
X151438894Y-80118634D01*
X150871979Y-80118634D01*
X150871979Y-79647419D01*
X150868173Y-79628285D01*
X150864532Y-79624644D01*
X150863523Y-79619597D01*
X150851407Y-79611519D01*
X150841113Y-79601225D01*
X150835967Y-79601225D01*
X150831683Y-79598369D01*
X150817405Y-79601225D01*
X150802845Y-79601225D01*
X150799204Y-79604865D01*
X150794157Y-79605875D01*
X150780377Y-79619684D01*
X150687882Y-79758424D01*
X150601886Y-79844421D01*
X150513904Y-79888412D01*
X150498492Y-79900373D01*
X150486391Y-79936678D01*
X150375280Y-79936678D01*
X150375280Y-79486308D01*
X152221185Y-79486308D01*
X152221185Y-80808530D01*
G37*
G36*
X178992837Y-79661130D02*
G01*
X179028981Y-79697275D01*
X179067693Y-79774698D01*
X179067693Y-79989186D01*
X179028981Y-80066609D01*
X178992837Y-80102754D01*
X178915414Y-80141466D01*
X178748545Y-80141466D01*
X178671121Y-80102754D01*
X178634976Y-80066610D01*
X178596265Y-79989187D01*
X178596265Y-79774698D01*
X178634976Y-79697274D01*
X178671121Y-79661130D01*
X178748545Y-79622419D01*
X178915414Y-79622419D01*
X178992837Y-79661130D01*
G37*
G36*
X179278804Y-80733530D02*
G01*
X178385154Y-80733530D01*
X178385154Y-79762895D01*
X178496265Y-79762895D01*
X178496265Y-80000990D01*
X178496753Y-80003446D01*
X178496391Y-80004535D01*
X178498507Y-80012262D01*
X178500071Y-80020124D01*
X178500882Y-80020935D01*
X178501544Y-80023351D01*
X178549162Y-80118588D01*
X178554077Y-80124921D01*
X178558529Y-80131583D01*
X178606147Y-80179202D01*
X178612813Y-80183656D01*
X178619142Y-80188568D01*
X178714380Y-80236187D01*
X178716795Y-80236848D01*
X178717607Y-80237660D01*
X178725468Y-80239223D01*
X178733196Y-80241340D01*
X178734284Y-80240977D01*
X178736741Y-80241466D01*
X178927217Y-80241466D01*
X178929673Y-80240977D01*
X178930762Y-80241340D01*
X178938489Y-80239223D01*
X178946351Y-80237660D01*
X178947162Y-80236848D01*
X178949578Y-80236187D01*
X179044815Y-80188569D01*
X179051148Y-80183653D01*
X179057216Y-80179598D01*
X179023667Y-80313795D01*
X178935978Y-80445326D01*
X178897597Y-80483708D01*
X178820176Y-80522419D01*
X178641503Y-80522419D01*
X178622369Y-80526225D01*
X178595309Y-80553285D01*
X178595309Y-80591553D01*
X178622369Y-80618613D01*
X178641503Y-80622419D01*
X178831979Y-80622419D01*
X178834435Y-80621930D01*
X178835524Y-80622293D01*
X178843251Y-80620176D01*
X178851113Y-80618613D01*
X178851924Y-80617801D01*
X178854340Y-80617140D01*
X178949577Y-80569522D01*
X178955904Y-80564611D01*
X178962573Y-80560155D01*
X179010192Y-80512535D01*
X179012942Y-80508419D01*
X179016439Y-80504915D01*
X179111677Y-80362058D01*
X179114939Y-80354157D01*
X179118581Y-80346450D01*
X179166200Y-80155974D01*
X179166497Y-80149856D01*
X179167693Y-80143847D01*
X179167693Y-79762895D01*
X179167204Y-79760438D01*
X179167567Y-79759350D01*
X179165450Y-79751622D01*
X179163887Y-79743761D01*
X179163075Y-79742949D01*
X179162414Y-79740534D01*
X179114795Y-79645296D01*
X179109883Y-79638967D01*
X179105429Y-79632301D01*
X179057810Y-79584683D01*
X179051148Y-79580231D01*
X179044815Y-79575316D01*
X178949578Y-79527698D01*
X178947162Y-79527036D01*
X178946351Y-79526225D01*
X178938489Y-79524661D01*
X178930762Y-79522545D01*
X178929673Y-79522907D01*
X178927217Y-79522419D01*
X178736741Y-79522419D01*
X178734284Y-79522907D01*
X178733196Y-79522545D01*
X178725468Y-79524661D01*
X178717607Y-79526225D01*
X178716795Y-79527036D01*
X178714380Y-79527698D01*
X178619142Y-79575317D01*
X178612813Y-79580228D01*
X178606147Y-79584683D01*
X178558529Y-79632302D01*
X178554077Y-79638963D01*
X178549162Y-79645297D01*
X178501544Y-79740534D01*
X178500882Y-79742949D01*
X178500071Y-79743761D01*
X178498507Y-79751622D01*
X178496391Y-79759350D01*
X178496753Y-79760438D01*
X178496265Y-79762895D01*
X178385154Y-79762895D01*
X178385154Y-79411308D01*
X179278804Y-79411308D01*
X179278804Y-80733530D01*
G37*
G36*
X190618804Y-100423530D02*
G01*
X189681341Y-100423530D01*
X189681341Y-100243285D01*
X189792452Y-100243285D01*
X189792452Y-100281553D01*
X189819512Y-100308613D01*
X189838646Y-100312419D01*
X190457693Y-100312419D01*
X190476827Y-100308613D01*
X190503887Y-100281553D01*
X190503887Y-100243285D01*
X190476827Y-100216225D01*
X190457693Y-100212419D01*
X189959356Y-100212419D01*
X190445429Y-99726345D01*
X190446819Y-99724263D01*
X190447847Y-99723750D01*
X190451817Y-99716784D01*
X190456268Y-99710124D01*
X190456268Y-99708976D01*
X190457508Y-99706801D01*
X190505127Y-99563945D01*
X190506129Y-99555994D01*
X190507693Y-99548133D01*
X190507693Y-99452895D01*
X190507204Y-99450438D01*
X190507567Y-99449350D01*
X190505450Y-99441622D01*
X190503887Y-99433761D01*
X190503075Y-99432949D01*
X190502414Y-99430534D01*
X190454795Y-99335296D01*
X190449883Y-99328967D01*
X190445429Y-99322301D01*
X190397810Y-99274683D01*
X190391148Y-99270231D01*
X190384815Y-99265316D01*
X190289578Y-99217698D01*
X190287162Y-99217036D01*
X190286351Y-99216225D01*
X190278489Y-99214661D01*
X190270762Y-99212545D01*
X190269673Y-99212907D01*
X190267217Y-99212419D01*
X190029122Y-99212419D01*
X190026665Y-99212907D01*
X190025577Y-99212545D01*
X190017849Y-99214661D01*
X190009988Y-99216225D01*
X190009176Y-99217036D01*
X190006761Y-99217698D01*
X189911523Y-99265317D01*
X189905194Y-99270228D01*
X189898528Y-99274683D01*
X189850910Y-99322302D01*
X189840071Y-99338523D01*
X189840071Y-99376791D01*
X189867131Y-99403851D01*
X189905399Y-99403851D01*
X189921620Y-99393012D01*
X189963502Y-99351130D01*
X190040926Y-99312419D01*
X190255414Y-99312419D01*
X190332837Y-99351130D01*
X190368981Y-99387275D01*
X190407693Y-99464698D01*
X190407693Y-99540020D01*
X190366372Y-99663981D01*
X189803291Y-100227064D01*
X189792452Y-100243285D01*
X189681341Y-100243285D01*
X189681341Y-99101308D01*
X190618804Y-99101308D01*
X190618804Y-100423530D01*
G37*
D13*
G36*
X192058637Y-73921860D02*
G01*
X190076098Y-73921860D01*
X190076098Y-72406780D01*
X190298320Y-72406780D01*
X190298320Y-72692495D01*
X190298822Y-72697598D01*
X190298497Y-72699786D01*
X190300116Y-72710736D01*
X190301202Y-72721759D01*
X190302049Y-72723803D01*
X190302799Y-72728875D01*
X190398037Y-73109827D01*
X190398807Y-73111982D01*
X190398884Y-73113066D01*
X190403551Y-73125262D01*
X190407930Y-73137518D01*
X190408574Y-73138388D01*
X190409394Y-73140529D01*
X190504632Y-73331005D01*
X190512559Y-73343598D01*
X190514075Y-73347258D01*
X190517456Y-73351377D01*
X190520297Y-73355891D01*
X190523291Y-73358487D01*
X190532730Y-73369989D01*
X190723205Y-73560465D01*
X190745936Y-73579120D01*
X190750915Y-73581182D01*
X190754987Y-73584714D01*
X190781838Y-73596703D01*
X191067553Y-73691941D01*
X191082065Y-73695240D01*
X191085723Y-73696756D01*
X191091025Y-73697278D01*
X191096227Y-73698461D01*
X191100181Y-73698179D01*
X191114987Y-73699638D01*
X191305463Y-73699638D01*
X191320274Y-73698179D01*
X191324224Y-73698460D01*
X191329418Y-73697278D01*
X191334727Y-73696756D01*
X191338389Y-73695238D01*
X191352897Y-73691940D01*
X191638611Y-73596702D01*
X191665462Y-73584714D01*
X191669533Y-73581182D01*
X191674513Y-73579120D01*
X191697244Y-73560465D01*
X191792482Y-73465226D01*
X191811137Y-73442495D01*
X191825177Y-73408597D01*
X191833533Y-73388425D01*
X191836415Y-73359161D01*
X191836415Y-72692495D01*
X191833533Y-72663231D01*
X191811135Y-72609159D01*
X191769751Y-72567775D01*
X191715679Y-72545377D01*
X191686415Y-72542495D01*
X191305463Y-72542495D01*
X191276199Y-72545377D01*
X191222127Y-72567775D01*
X191180743Y-72609159D01*
X191158345Y-72663231D01*
X191158345Y-72721759D01*
X191180743Y-72775831D01*
X191222127Y-72817215D01*
X191276199Y-72839613D01*
X191305463Y-72842495D01*
X191536415Y-72842495D01*
X191536415Y-73297029D01*
X191510148Y-73323296D01*
X191281123Y-73399638D01*
X191139330Y-73399638D01*
X190910298Y-73323294D01*
X190762074Y-73175069D01*
X190685085Y-73021091D01*
X190598320Y-72674030D01*
X190598320Y-72425244D01*
X190685085Y-72078183D01*
X190762074Y-71924206D01*
X190910298Y-71775981D01*
X191139330Y-71699638D01*
X191365291Y-71699638D01*
X191524095Y-71779040D01*
X191551559Y-71789550D01*
X191609939Y-71793698D01*
X191665461Y-71775191D01*
X191709676Y-71736844D01*
X191735851Y-71684495D01*
X191739999Y-71626115D01*
X191721492Y-71570592D01*
X191683145Y-71526377D01*
X191658259Y-71510712D01*
X191467783Y-71415474D01*
X191440320Y-71404964D01*
X191434942Y-71404581D01*
X191429965Y-71402520D01*
X191400701Y-71399638D01*
X191114987Y-71399638D01*
X191100181Y-71401096D01*
X191096227Y-71400815D01*
X191091025Y-71401997D01*
X191085723Y-71402520D01*
X191082065Y-71404035D01*
X191067553Y-71407335D01*
X190781838Y-71502573D01*
X190754987Y-71514562D01*
X190750916Y-71518092D01*
X190745937Y-71520155D01*
X190723206Y-71538810D01*
X190532730Y-71729286D01*
X190523291Y-71740787D01*
X190520297Y-71743384D01*
X190517456Y-71747897D01*
X190514075Y-71752017D01*
X190512559Y-71755676D01*
X190504632Y-71768270D01*
X190409394Y-71958746D01*
X190408574Y-71960886D01*
X190407930Y-71961757D01*
X190403551Y-71974012D01*
X190398884Y-71986209D01*
X190398807Y-71987292D01*
X190398037Y-71989448D01*
X190302799Y-72370400D01*
X190302049Y-72375471D01*
X190301202Y-72377516D01*
X190300116Y-72388538D01*
X190298497Y-72399489D01*
X190298822Y-72401676D01*
X190298320Y-72406780D01*
X190076098Y-72406780D01*
X190076098Y-71177416D01*
X192058637Y-71177416D01*
X192058637Y-73921860D01*
G37*
D12*
G36*
X151222936Y-89748302D02*
G01*
X150210273Y-89748302D01*
X150210273Y-89457435D01*
X150332495Y-89457435D01*
X150342395Y-89484973D01*
X150351171Y-89496769D01*
X150398791Y-89549151D01*
X150404792Y-89554574D01*
X150406016Y-89556102D01*
X150407951Y-89557429D01*
X150409699Y-89559008D01*
X150411475Y-89559845D01*
X150418143Y-89564416D01*
X150513381Y-89616796D01*
X150526896Y-89622585D01*
X150531039Y-89623043D01*
X150534892Y-89624639D01*
X150549524Y-89626080D01*
X150835238Y-89626080D01*
X150849870Y-89624639D01*
X150853722Y-89623043D01*
X150857866Y-89622585D01*
X150871381Y-89616796D01*
X150966619Y-89564416D01*
X150973286Y-89559845D01*
X150975063Y-89559008D01*
X150976810Y-89557429D01*
X150978746Y-89556102D01*
X150979969Y-89554574D01*
X150985972Y-89549150D01*
X151033591Y-89496769D01*
X151037572Y-89491417D01*
X151039006Y-89490078D01*
X151040539Y-89487429D01*
X151042367Y-89484973D01*
X151043030Y-89483126D01*
X151046373Y-89477354D01*
X151093992Y-89372592D01*
X151098735Y-89358675D01*
X151098778Y-89357381D01*
X151099273Y-89356189D01*
X151100714Y-89341557D01*
X151100714Y-89079652D01*
X151099273Y-89065020D01*
X151098778Y-89063827D01*
X151098735Y-89062534D01*
X151093992Y-89048617D01*
X151046373Y-88943855D01*
X151043030Y-88938082D01*
X151042367Y-88936236D01*
X151040539Y-88933779D01*
X151039006Y-88931131D01*
X151037572Y-88929791D01*
X151033591Y-88924440D01*
X150985972Y-88872059D01*
X150979969Y-88866634D01*
X150978746Y-88865107D01*
X150976809Y-88863779D01*
X150975063Y-88862201D01*
X150973287Y-88861364D01*
X150966620Y-88856793D01*
X150871382Y-88804412D01*
X150857867Y-88798623D01*
X150853722Y-88798164D01*
X150849870Y-88796569D01*
X150846955Y-88796282D01*
X151084409Y-88497769D01*
X151086887Y-88493934D01*
X151088074Y-88492748D01*
X151088823Y-88490939D01*
X151092390Y-88485421D01*
X151095271Y-88475373D01*
X151099273Y-88465712D01*
X151099273Y-88461416D01*
X151100456Y-88457291D01*
X151099273Y-88446905D01*
X151099273Y-88436448D01*
X151097629Y-88432481D01*
X151097144Y-88428216D01*
X151092074Y-88419070D01*
X151088074Y-88409412D01*
X151085038Y-88406376D01*
X151082957Y-88402621D01*
X151074773Y-88396111D01*
X151067382Y-88388720D01*
X151063415Y-88387076D01*
X151060055Y-88384404D01*
X151050007Y-88381522D01*
X151040346Y-88377521D01*
X151033803Y-88376876D01*
X151031925Y-88376338D01*
X151030259Y-88376527D01*
X151025714Y-88376080D01*
X150406667Y-88376080D01*
X150392035Y-88377521D01*
X150364999Y-88388720D01*
X150344307Y-88409412D01*
X150333108Y-88436448D01*
X150333108Y-88465712D01*
X150344307Y-88492748D01*
X150364999Y-88513440D01*
X150392035Y-88524639D01*
X150406667Y-88526080D01*
X150870221Y-88526080D01*
X150633686Y-88823439D01*
X150631207Y-88827273D01*
X150630021Y-88828460D01*
X150629271Y-88830268D01*
X150625705Y-88835787D01*
X150622823Y-88845834D01*
X150618822Y-88855496D01*
X150618822Y-88859791D01*
X150617639Y-88863917D01*
X150618822Y-88874302D01*
X150618822Y-88884760D01*
X150620465Y-88888726D01*
X150620951Y-88892992D01*
X150626020Y-88902137D01*
X150630021Y-88911796D01*
X150633056Y-88914831D01*
X150635138Y-88918587D01*
X150643321Y-88925096D01*
X150650713Y-88932488D01*
X150654679Y-88934131D01*
X150658040Y-88936804D01*
X150668087Y-88939685D01*
X150677749Y-88943687D01*
X150684291Y-88944331D01*
X150686170Y-88944870D01*
X150687835Y-88944680D01*
X150692381Y-88945128D01*
X150815974Y-88945128D01*
X150883384Y-88982203D01*
X150914685Y-89016634D01*
X150950714Y-89095896D01*
X150950714Y-89325312D01*
X150914685Y-89404574D01*
X150883383Y-89439006D01*
X150815975Y-89476080D01*
X150568787Y-89476080D01*
X150501378Y-89439006D01*
X150462163Y-89395869D01*
X150451254Y-89386011D01*
X150424781Y-89373539D01*
X150395551Y-89372147D01*
X150368013Y-89382047D01*
X150346359Y-89401732D01*
X150333887Y-89428205D01*
X150332495Y-89457435D01*
X150210273Y-89457435D01*
X150210273Y-88253858D01*
X151222936Y-88253858D01*
X151222936Y-89748302D01*
G37*
D10*
X175906265Y-86567657D02*
X175953884Y-86520038D01*
X175953884Y-86520038D02*
X176049122Y-86472419D01*
X176049122Y-86472419D02*
X176287217Y-86472419D01*
X176287217Y-86472419D02*
X176382455Y-86520038D01*
X176382455Y-86520038D02*
X176430074Y-86567657D01*
X176430074Y-86567657D02*
X176477693Y-86662895D01*
X176477693Y-86662895D02*
X176477693Y-86758133D01*
X176477693Y-86758133D02*
X176430074Y-86900990D01*
X176430074Y-86900990D02*
X175858646Y-87472419D01*
X175858646Y-87472419D02*
X176477693Y-87472419D01*
D12*
X196790001Y-116173247D02*
X196890001Y-116211342D01*
X196890001Y-116211342D02*
X196923334Y-116249438D01*
X196923334Y-116249438D02*
X196956667Y-116325628D01*
X196956667Y-116325628D02*
X196956667Y-116439914D01*
X196956667Y-116439914D02*
X196923334Y-116516104D01*
X196923334Y-116516104D02*
X196890001Y-116554200D01*
X196890001Y-116554200D02*
X196823334Y-116592295D01*
X196823334Y-116592295D02*
X196556667Y-116592295D01*
X196556667Y-116592295D02*
X196556667Y-115792295D01*
X196556667Y-115792295D02*
X196790001Y-115792295D01*
X196790001Y-115792295D02*
X196856667Y-115830390D01*
X196856667Y-115830390D02*
X196890001Y-115868485D01*
X196890001Y-115868485D02*
X196923334Y-115944676D01*
X196923334Y-115944676D02*
X196923334Y-116020866D01*
X196923334Y-116020866D02*
X196890001Y-116097057D01*
X196890001Y-116097057D02*
X196856667Y-116135152D01*
X196856667Y-116135152D02*
X196790001Y-116173247D01*
X196790001Y-116173247D02*
X196556667Y-116173247D01*
X197390001Y-115792295D02*
X197523334Y-115792295D01*
X197523334Y-115792295D02*
X197590001Y-115830390D01*
X197590001Y-115830390D02*
X197656667Y-115906580D01*
X197656667Y-115906580D02*
X197690001Y-116058961D01*
X197690001Y-116058961D02*
X197690001Y-116325628D01*
X197690001Y-116325628D02*
X197656667Y-116478009D01*
X197656667Y-116478009D02*
X197590001Y-116554200D01*
X197590001Y-116554200D02*
X197523334Y-116592295D01*
X197523334Y-116592295D02*
X197390001Y-116592295D01*
X197390001Y-116592295D02*
X197323334Y-116554200D01*
X197323334Y-116554200D02*
X197256667Y-116478009D01*
X197256667Y-116478009D02*
X197223334Y-116325628D01*
X197223334Y-116325628D02*
X197223334Y-116058961D01*
X197223334Y-116058961D02*
X197256667Y-115906580D01*
X197256667Y-115906580D02*
X197323334Y-115830390D01*
X197323334Y-115830390D02*
X197390001Y-115792295D01*
X198123334Y-115792295D02*
X198256667Y-115792295D01*
X198256667Y-115792295D02*
X198323334Y-115830390D01*
X198323334Y-115830390D02*
X198390000Y-115906580D01*
X198390000Y-115906580D02*
X198423334Y-116058961D01*
X198423334Y-116058961D02*
X198423334Y-116325628D01*
X198423334Y-116325628D02*
X198390000Y-116478009D01*
X198390000Y-116478009D02*
X198323334Y-116554200D01*
X198323334Y-116554200D02*
X198256667Y-116592295D01*
X198256667Y-116592295D02*
X198123334Y-116592295D01*
X198123334Y-116592295D02*
X198056667Y-116554200D01*
X198056667Y-116554200D02*
X197990000Y-116478009D01*
X197990000Y-116478009D02*
X197956667Y-116325628D01*
X197956667Y-116325628D02*
X197956667Y-116058961D01*
X197956667Y-116058961D02*
X197990000Y-115906580D01*
X197990000Y-115906580D02*
X198056667Y-115830390D01*
X198056667Y-115830390D02*
X198123334Y-115792295D01*
X198623333Y-115792295D02*
X199023333Y-115792295D01*
X198823333Y-116592295D02*
X198823333Y-115792295D01*
D10*
G36*
X190672617Y-91199724D02*
G01*
X189735280Y-91199724D01*
X189735280Y-90712629D01*
X189846391Y-90712629D01*
X189850071Y-90719989D01*
X189850071Y-90728219D01*
X189858300Y-90736448D01*
X189863505Y-90746858D01*
X189871312Y-90749460D01*
X189877131Y-90755279D01*
X189896265Y-90759085D01*
X190322455Y-90759085D01*
X190322455Y-91042419D01*
X190326261Y-91061553D01*
X190353321Y-91088613D01*
X190391589Y-91088613D01*
X190418649Y-91061553D01*
X190422455Y-91042419D01*
X190422455Y-90759085D01*
X190515312Y-90759085D01*
X190534446Y-90755279D01*
X190561506Y-90728219D01*
X190561506Y-90689951D01*
X190534446Y-90662891D01*
X190515312Y-90659085D01*
X190422455Y-90659085D01*
X190422455Y-90375752D01*
X190418649Y-90356618D01*
X190391589Y-90329558D01*
X190353321Y-90329558D01*
X190326261Y-90356618D01*
X190322455Y-90375752D01*
X190322455Y-90659085D01*
X189965636Y-90659085D01*
X190181794Y-90010612D01*
X190184234Y-89991256D01*
X190167120Y-89957028D01*
X190130816Y-89944926D01*
X190096587Y-89962041D01*
X190086926Y-89978989D01*
X189848831Y-90693274D01*
X189846391Y-90712629D01*
X189735280Y-90712629D01*
X189735280Y-89833815D01*
X190672617Y-89833815D01*
X190672617Y-91199724D01*
G37*
G36*
X190618804Y-95793530D02*
G01*
X189681341Y-95793530D01*
X189681341Y-94613285D01*
X189792452Y-94613285D01*
X189792452Y-94651553D01*
X189819512Y-94678613D01*
X189838646Y-94682419D01*
X190347505Y-94682419D01*
X190086731Y-94980446D01*
X190079636Y-94992766D01*
X190078166Y-94994237D01*
X190078166Y-94995320D01*
X190076996Y-94997352D01*
X190078166Y-95014906D01*
X190078166Y-95032505D01*
X190079422Y-95033761D01*
X190079541Y-95035536D01*
X190092785Y-95047124D01*
X190105226Y-95059565D01*
X190107526Y-95060022D01*
X190108341Y-95060735D01*
X190110413Y-95060596D01*
X190124360Y-95063371D01*
X190255414Y-95063371D01*
X190332837Y-95102082D01*
X190368981Y-95138227D01*
X190407693Y-95215650D01*
X190407693Y-95430138D01*
X190368981Y-95507561D01*
X190332835Y-95543708D01*
X190255414Y-95582419D01*
X189993307Y-95582419D01*
X189915884Y-95543708D01*
X189874002Y-95501825D01*
X189857781Y-95490986D01*
X189819512Y-95490986D01*
X189792452Y-95518045D01*
X189792452Y-95556314D01*
X189803290Y-95572535D01*
X189850909Y-95620155D01*
X189857575Y-95624609D01*
X189863904Y-95629521D01*
X189959142Y-95677140D01*
X189961557Y-95677801D01*
X189962369Y-95678613D01*
X189970230Y-95680176D01*
X189977958Y-95682293D01*
X189979046Y-95681930D01*
X189981503Y-95682419D01*
X190267217Y-95682419D01*
X190269673Y-95681930D01*
X190270762Y-95682293D01*
X190278489Y-95680176D01*
X190286351Y-95678613D01*
X190287162Y-95677801D01*
X190289578Y-95677140D01*
X190384815Y-95629522D01*
X190391142Y-95624611D01*
X190397811Y-95620155D01*
X190445430Y-95572535D01*
X190449883Y-95565869D01*
X190454795Y-95559541D01*
X190502414Y-95464303D01*
X190503075Y-95461887D01*
X190503887Y-95461076D01*
X190505450Y-95453214D01*
X190507567Y-95445487D01*
X190507204Y-95444398D01*
X190507693Y-95441942D01*
X190507693Y-95203847D01*
X190507204Y-95201390D01*
X190507567Y-95200302D01*
X190505450Y-95192574D01*
X190503887Y-95184713D01*
X190503075Y-95183901D01*
X190502414Y-95181486D01*
X190454795Y-95086248D01*
X190449883Y-95079919D01*
X190445429Y-95073253D01*
X190397810Y-95025635D01*
X190391148Y-95021183D01*
X190384815Y-95016268D01*
X190289578Y-94968650D01*
X190287162Y-94967988D01*
X190286351Y-94967177D01*
X190278489Y-94965613D01*
X190270762Y-94963497D01*
X190269673Y-94963859D01*
X190267217Y-94963371D01*
X190234548Y-94963371D01*
X190495322Y-94665344D01*
X190502416Y-94653023D01*
X190503887Y-94651553D01*
X190503887Y-94650469D01*
X190505057Y-94648438D01*
X190503887Y-94630883D01*
X190503887Y-94613285D01*
X190502630Y-94612028D01*
X190502512Y-94610254D01*
X190489267Y-94598665D01*
X190476827Y-94586225D01*
X190474526Y-94585767D01*
X190473712Y-94585055D01*
X190471639Y-94585193D01*
X190457693Y-94582419D01*
X189838646Y-94582419D01*
X189819512Y-94586225D01*
X189792452Y-94613285D01*
X189681341Y-94613285D01*
X189681341Y-94471308D01*
X190618804Y-94471308D01*
X190618804Y-95793530D01*
G37*
D12*
X189766667Y-116700390D02*
X189700000Y-116662295D01*
X189700000Y-116662295D02*
X189600000Y-116662295D01*
X189600000Y-116662295D02*
X189500000Y-116700390D01*
X189500000Y-116700390D02*
X189433334Y-116776580D01*
X189433334Y-116776580D02*
X189400000Y-116852771D01*
X189400000Y-116852771D02*
X189366667Y-117005152D01*
X189366667Y-117005152D02*
X189366667Y-117119438D01*
X189366667Y-117119438D02*
X189400000Y-117271819D01*
X189400000Y-117271819D02*
X189433334Y-117348009D01*
X189433334Y-117348009D02*
X189500000Y-117424200D01*
X189500000Y-117424200D02*
X189600000Y-117462295D01*
X189600000Y-117462295D02*
X189666667Y-117462295D01*
X189666667Y-117462295D02*
X189766667Y-117424200D01*
X189766667Y-117424200D02*
X189800000Y-117386104D01*
X189800000Y-117386104D02*
X189800000Y-117119438D01*
X189800000Y-117119438D02*
X189666667Y-117119438D01*
X190100000Y-117462295D02*
X190100000Y-116662295D01*
X190100000Y-116662295D02*
X190500000Y-117462295D01*
X190500000Y-117462295D02*
X190500000Y-116662295D01*
X190833333Y-117462295D02*
X190833333Y-116662295D01*
X190833333Y-116662295D02*
X191000000Y-116662295D01*
X191000000Y-116662295D02*
X191100000Y-116700390D01*
X191100000Y-116700390D02*
X191166667Y-116776580D01*
X191166667Y-116776580D02*
X191200000Y-116852771D01*
X191200000Y-116852771D02*
X191233333Y-117005152D01*
X191233333Y-117005152D02*
X191233333Y-117119438D01*
X191233333Y-117119438D02*
X191200000Y-117271819D01*
X191200000Y-117271819D02*
X191166667Y-117348009D01*
X191166667Y-117348009D02*
X191100000Y-117424200D01*
X191100000Y-117424200D02*
X191000000Y-117462295D01*
X191000000Y-117462295D02*
X190833333Y-117462295D01*
X193850000Y-106968318D02*
X193850000Y-106168318D01*
X193850000Y-106168318D02*
X194250000Y-106968318D01*
X194250000Y-106968318D02*
X194250000Y-106168318D01*
X194983333Y-106968318D02*
X194750000Y-106587365D01*
X194583333Y-106968318D02*
X194583333Y-106168318D01*
X194583333Y-106168318D02*
X194850000Y-106168318D01*
X194850000Y-106168318D02*
X194916667Y-106206413D01*
X194916667Y-106206413D02*
X194950000Y-106244508D01*
X194950000Y-106244508D02*
X194983333Y-106320699D01*
X194983333Y-106320699D02*
X194983333Y-106434984D01*
X194983333Y-106434984D02*
X194950000Y-106511175D01*
X194950000Y-106511175D02*
X194916667Y-106549270D01*
X194916667Y-106549270D02*
X194850000Y-106587365D01*
X194850000Y-106587365D02*
X194583333Y-106587365D01*
X195250000Y-106930223D02*
X195350000Y-106968318D01*
X195350000Y-106968318D02*
X195516667Y-106968318D01*
X195516667Y-106968318D02*
X195583333Y-106930223D01*
X195583333Y-106930223D02*
X195616667Y-106892127D01*
X195616667Y-106892127D02*
X195650000Y-106815937D01*
X195650000Y-106815937D02*
X195650000Y-106739746D01*
X195650000Y-106739746D02*
X195616667Y-106663556D01*
X195616667Y-106663556D02*
X195583333Y-106625461D01*
X195583333Y-106625461D02*
X195516667Y-106587365D01*
X195516667Y-106587365D02*
X195383333Y-106549270D01*
X195383333Y-106549270D02*
X195316667Y-106511175D01*
X195316667Y-106511175D02*
X195283333Y-106473080D01*
X195283333Y-106473080D02*
X195250000Y-106396889D01*
X195250000Y-106396889D02*
X195250000Y-106320699D01*
X195250000Y-106320699D02*
X195283333Y-106244508D01*
X195283333Y-106244508D02*
X195316667Y-106206413D01*
X195316667Y-106206413D02*
X195383333Y-106168318D01*
X195383333Y-106168318D02*
X195550000Y-106168318D01*
X195550000Y-106168318D02*
X195650000Y-106206413D01*
X195850000Y-106168318D02*
X196250000Y-106168318D01*
X196050000Y-106968318D02*
X196050000Y-106168318D01*
D10*
G36*
X190634998Y-105003530D02*
G01*
X189745280Y-105003530D01*
X189745280Y-104131678D01*
X189856391Y-104131678D01*
X189873505Y-104165906D01*
X189909810Y-104178007D01*
X189928626Y-104172854D01*
X190023863Y-104125236D01*
X190030196Y-104120320D01*
X190036858Y-104115869D01*
X190132096Y-104020631D01*
X190134844Y-104016517D01*
X190138344Y-104013011D01*
X190141979Y-104007558D01*
X190141979Y-104792419D01*
X189906265Y-104792419D01*
X189887131Y-104796225D01*
X189860071Y-104823285D01*
X189860071Y-104861553D01*
X189887131Y-104888613D01*
X189906265Y-104892419D01*
X190477693Y-104892419D01*
X190496827Y-104888613D01*
X190523887Y-104861553D01*
X190523887Y-104823285D01*
X190496827Y-104796225D01*
X190477693Y-104792419D01*
X190241979Y-104792419D01*
X190241979Y-103842419D01*
X190238173Y-103823285D01*
X190234532Y-103819644D01*
X190233523Y-103814597D01*
X190221407Y-103806519D01*
X190211113Y-103796225D01*
X190205967Y-103796225D01*
X190201683Y-103793369D01*
X190187405Y-103796225D01*
X190172845Y-103796225D01*
X190169204Y-103799865D01*
X190164157Y-103800875D01*
X190150377Y-103814684D01*
X190057882Y-103953424D01*
X189971886Y-104039421D01*
X189883904Y-104083412D01*
X189868492Y-104095373D01*
X189856391Y-104131678D01*
X189745280Y-104131678D01*
X189745280Y-103682258D01*
X190634998Y-103682258D01*
X190634998Y-105003530D01*
G37*
D13*
G36*
X194302867Y-78120438D02*
G01*
X194349208Y-78178365D01*
X194406415Y-78321383D01*
X194406415Y-78739796D01*
X194349208Y-78882814D01*
X194302867Y-78940741D01*
X194208633Y-78999638D01*
X193989911Y-78999638D01*
X193895677Y-78940742D01*
X193849335Y-78882814D01*
X193792129Y-78739798D01*
X193792129Y-78321381D01*
X193849335Y-78178365D01*
X193895677Y-78120437D01*
X193989911Y-78061542D01*
X194208633Y-78061542D01*
X194302867Y-78120438D01*
G37*
G36*
X196452138Y-79521860D02*
G01*
X193269907Y-79521860D01*
X193269907Y-78006623D01*
X193492129Y-78006623D01*
X193492139Y-78006675D01*
X193492129Y-78006780D01*
X193492129Y-78768685D01*
X193494683Y-78794624D01*
X193494665Y-78796153D01*
X193494921Y-78797035D01*
X193495011Y-78797949D01*
X193495595Y-78799359D01*
X193502858Y-78824394D01*
X193579049Y-79014870D01*
X193584129Y-79024660D01*
X193585159Y-79028213D01*
X193589189Y-79034410D01*
X193592593Y-79040970D01*
X193595175Y-79043615D01*
X193601189Y-79052864D01*
X193677379Y-79148104D01*
X193689503Y-79160534D01*
X193691722Y-79163646D01*
X193695010Y-79166181D01*
X193697911Y-79169155D01*
X193701258Y-79170998D01*
X193715010Y-79181600D01*
X193867391Y-79276838D01*
X193893735Y-79289904D01*
X193906071Y-79291969D01*
X193917627Y-79296756D01*
X193946891Y-79299638D01*
X194251653Y-79299638D01*
X194280917Y-79296756D01*
X194292472Y-79291969D01*
X194304809Y-79289904D01*
X194331153Y-79276838D01*
X194483534Y-79181600D01*
X194497285Y-79170998D01*
X194500633Y-79169155D01*
X194503532Y-79166182D01*
X194506822Y-79163646D01*
X194509041Y-79160533D01*
X194521164Y-79148104D01*
X194597355Y-79052865D01*
X194603369Y-79043615D01*
X194605952Y-79040970D01*
X194609354Y-79034412D01*
X194613386Y-79028214D01*
X194614415Y-79024661D01*
X194619497Y-79014869D01*
X194695687Y-78824393D01*
X194702948Y-78799360D01*
X194703533Y-78797949D01*
X194703623Y-78797034D01*
X194703879Y-78796152D01*
X194703860Y-78794624D01*
X194706415Y-78768685D01*
X194706415Y-78292495D01*
X194703860Y-78266555D01*
X194703879Y-78265028D01*
X194703623Y-78264145D01*
X194703533Y-78263231D01*
X194702948Y-78261819D01*
X194695687Y-78236787D01*
X194619497Y-78046311D01*
X194614415Y-78036518D01*
X194613386Y-78032966D01*
X194609354Y-78026767D01*
X194605952Y-78020210D01*
X194603369Y-78017564D01*
X194597355Y-78008315D01*
X194521164Y-77913076D01*
X194509041Y-77900646D01*
X194506822Y-77897534D01*
X194503532Y-77894997D01*
X194500633Y-77892025D01*
X194497285Y-77890181D01*
X194483534Y-77879580D01*
X194331153Y-77784342D01*
X194304809Y-77771276D01*
X194292472Y-77769210D01*
X194280917Y-77764424D01*
X194251653Y-77761542D01*
X193946891Y-77761542D01*
X193917627Y-77764424D01*
X193906071Y-77769210D01*
X193893735Y-77771276D01*
X193867391Y-77784342D01*
X193835615Y-77804201D01*
X193861072Y-77676916D01*
X193996513Y-77422965D01*
X194048059Y-77358533D01*
X194142292Y-77299638D01*
X194404034Y-77299638D01*
X194433298Y-77296756D01*
X194487370Y-77274358D01*
X194528754Y-77232974D01*
X194551152Y-77178902D01*
X194551152Y-77159269D01*
X194863867Y-77159269D01*
X194868623Y-77188287D01*
X195401957Y-79188287D01*
X195404528Y-79195143D01*
X195404911Y-79198024D01*
X195406890Y-79201443D01*
X195412282Y-79215821D01*
X195424316Y-79231542D01*
X195434234Y-79248674D01*
X195441949Y-79254580D01*
X195447856Y-79262296D01*
X195464987Y-79272213D01*
X195480709Y-79284248D01*
X195490099Y-79286752D01*
X195498506Y-79291619D01*
X195518127Y-79294226D01*
X195537261Y-79299329D01*
X195546892Y-79298049D01*
X195556523Y-79299329D01*
X195575656Y-79294226D01*
X195595278Y-79291619D01*
X195603684Y-79286752D01*
X195613075Y-79284248D01*
X195628796Y-79272213D01*
X195645928Y-79262296D01*
X195651834Y-79254580D01*
X195659550Y-79248674D01*
X195669467Y-79231542D01*
X195681502Y-79215821D01*
X195686893Y-79201443D01*
X195688873Y-79198024D01*
X195689255Y-79195143D01*
X195691827Y-79188287D01*
X196225160Y-77188287D01*
X196229916Y-77159269D01*
X196222206Y-77101251D01*
X196192883Y-77050602D01*
X196146408Y-77015028D01*
X196089856Y-76999947D01*
X196031839Y-77007656D01*
X195981189Y-77036980D01*
X195945615Y-77083455D01*
X195935290Y-77110989D01*
X195546891Y-78567482D01*
X195158493Y-77110989D01*
X195148168Y-77083455D01*
X195112594Y-77036980D01*
X195061944Y-77007657D01*
X195003927Y-76999947D01*
X194947375Y-77015028D01*
X194900900Y-77050602D01*
X194871577Y-77101252D01*
X194863867Y-77159269D01*
X194551152Y-77159269D01*
X194551152Y-77120374D01*
X194528754Y-77066302D01*
X194487370Y-77024918D01*
X194433298Y-77002520D01*
X194404034Y-76999638D01*
X194099272Y-76999638D01*
X194070008Y-77002520D01*
X194058452Y-77007306D01*
X194046116Y-77009372D01*
X194019772Y-77022438D01*
X193867391Y-77117676D01*
X193853639Y-77128277D01*
X193850292Y-77130121D01*
X193847392Y-77133093D01*
X193844103Y-77135630D01*
X193841883Y-77138742D01*
X193829761Y-77151172D01*
X193753570Y-77246410D01*
X193746021Y-77258018D01*
X193738348Y-77269526D01*
X193585967Y-77555240D01*
X193581838Y-77565233D01*
X193579798Y-77568280D01*
X193577608Y-77575472D01*
X193574739Y-77582417D01*
X193574383Y-77586064D01*
X193571233Y-77596411D01*
X193495042Y-77977362D01*
X193495031Y-77977466D01*
X193495011Y-77977516D01*
X193493568Y-77992166D01*
X193492129Y-78006623D01*
X193269907Y-78006623D01*
X193269907Y-76777416D01*
X196452138Y-76777416D01*
X196452138Y-79521860D01*
G37*
G36*
X198518637Y-79521860D02*
G01*
X196536098Y-79521860D01*
X196536098Y-78006780D01*
X196758320Y-78006780D01*
X196758320Y-78292495D01*
X196758822Y-78297598D01*
X196758497Y-78299786D01*
X196760116Y-78310736D01*
X196761202Y-78321759D01*
X196762049Y-78323803D01*
X196762799Y-78328875D01*
X196858037Y-78709827D01*
X196858807Y-78711982D01*
X196858884Y-78713066D01*
X196863551Y-78725262D01*
X196867930Y-78737518D01*
X196868574Y-78738388D01*
X196869394Y-78740529D01*
X196964632Y-78931005D01*
X196972559Y-78943598D01*
X196974075Y-78947258D01*
X196977456Y-78951377D01*
X196980297Y-78955891D01*
X196983291Y-78958487D01*
X196992730Y-78969989D01*
X197183205Y-79160465D01*
X197205936Y-79179120D01*
X197210915Y-79181182D01*
X197214987Y-79184714D01*
X197241838Y-79196703D01*
X197527553Y-79291941D01*
X197542065Y-79295240D01*
X197545723Y-79296756D01*
X197551025Y-79297278D01*
X197556227Y-79298461D01*
X197560181Y-79298179D01*
X197574987Y-79299638D01*
X197765463Y-79299638D01*
X197780274Y-79298179D01*
X197784224Y-79298460D01*
X197789418Y-79297278D01*
X197794727Y-79296756D01*
X197798389Y-79295238D01*
X197812897Y-79291940D01*
X198098611Y-79196702D01*
X198125462Y-79184714D01*
X198129533Y-79181182D01*
X198134513Y-79179120D01*
X198157244Y-79160465D01*
X198252482Y-79065226D01*
X198271137Y-79042495D01*
X198285177Y-79008597D01*
X198293533Y-78988425D01*
X198296415Y-78959161D01*
X198296415Y-78292495D01*
X198293533Y-78263231D01*
X198271135Y-78209159D01*
X198229751Y-78167775D01*
X198175679Y-78145377D01*
X198146415Y-78142495D01*
X197765463Y-78142495D01*
X197736199Y-78145377D01*
X197682127Y-78167775D01*
X197640743Y-78209159D01*
X197618345Y-78263231D01*
X197618345Y-78321759D01*
X197640743Y-78375831D01*
X197682127Y-78417215D01*
X197736199Y-78439613D01*
X197765463Y-78442495D01*
X197996415Y-78442495D01*
X197996415Y-78897029D01*
X197970148Y-78923296D01*
X197741123Y-78999638D01*
X197599330Y-78999638D01*
X197370298Y-78923294D01*
X197222074Y-78775069D01*
X197145085Y-78621091D01*
X197058320Y-78274030D01*
X197058320Y-78025244D01*
X197145085Y-77678183D01*
X197222074Y-77524206D01*
X197370298Y-77375981D01*
X197599330Y-77299638D01*
X197825291Y-77299638D01*
X197984095Y-77379040D01*
X198011559Y-77389550D01*
X198069939Y-77393698D01*
X198125461Y-77375191D01*
X198169676Y-77336844D01*
X198195851Y-77284495D01*
X198199999Y-77226115D01*
X198181492Y-77170592D01*
X198143145Y-77126377D01*
X198118259Y-77110712D01*
X197927783Y-77015474D01*
X197900320Y-77004964D01*
X197894942Y-77004581D01*
X197889965Y-77002520D01*
X197860701Y-76999638D01*
X197574987Y-76999638D01*
X197560181Y-77001096D01*
X197556227Y-77000815D01*
X197551025Y-77001997D01*
X197545723Y-77002520D01*
X197542065Y-77004035D01*
X197527553Y-77007335D01*
X197241838Y-77102573D01*
X197214987Y-77114562D01*
X197210916Y-77118092D01*
X197205937Y-77120155D01*
X197183206Y-77138810D01*
X196992730Y-77329286D01*
X196983291Y-77340787D01*
X196980297Y-77343384D01*
X196977456Y-77347897D01*
X196974075Y-77352017D01*
X196972559Y-77355676D01*
X196964632Y-77368270D01*
X196869394Y-77558746D01*
X196868574Y-77560886D01*
X196867930Y-77561757D01*
X196863551Y-77574012D01*
X196858884Y-77586209D01*
X196858807Y-77587292D01*
X196858037Y-77589448D01*
X196762799Y-77970400D01*
X196762049Y-77975471D01*
X196761202Y-77977516D01*
X196760116Y-77988538D01*
X196758497Y-77999489D01*
X196758822Y-78001676D01*
X196758320Y-78006780D01*
X196536098Y-78006780D01*
X196536098Y-76777416D01*
X198518637Y-76777416D01*
X198518637Y-79521860D01*
G37*
D10*
G36*
X183772837Y-80039701D02*
G01*
X183808981Y-80075846D01*
X183847693Y-80153269D01*
X183847693Y-80320138D01*
X183808981Y-80397561D01*
X183772835Y-80433708D01*
X183695414Y-80472419D01*
X183528545Y-80472419D01*
X183451122Y-80433708D01*
X183414976Y-80397561D01*
X183376265Y-80320139D01*
X183376265Y-80153269D01*
X183414976Y-80075845D01*
X183451121Y-80039701D01*
X183528545Y-80000990D01*
X183695414Y-80000990D01*
X183772837Y-80039701D01*
G37*
G36*
X183772837Y-79611130D02*
G01*
X183808981Y-79647275D01*
X183847693Y-79724698D01*
X183847693Y-79748710D01*
X183808981Y-79826133D01*
X183772837Y-79862278D01*
X183695414Y-79900990D01*
X183528545Y-79900990D01*
X183451121Y-79862278D01*
X183414976Y-79826134D01*
X183376265Y-79748711D01*
X183376265Y-79724698D01*
X183414976Y-79647274D01*
X183451121Y-79611130D01*
X183528545Y-79572419D01*
X183695414Y-79572419D01*
X183772837Y-79611130D01*
G37*
G36*
X184058804Y-80683530D02*
G01*
X183165154Y-80683530D01*
X183165154Y-79712895D01*
X183276265Y-79712895D01*
X183276265Y-79760514D01*
X183276753Y-79762970D01*
X183276391Y-79764059D01*
X183278507Y-79771786D01*
X183280071Y-79779648D01*
X183280882Y-79780459D01*
X183281544Y-79782875D01*
X183329162Y-79878112D01*
X183334077Y-79884445D01*
X183338529Y-79891107D01*
X183386147Y-79938726D01*
X183392813Y-79943180D01*
X183399142Y-79948092D01*
X183404938Y-79950990D01*
X183399142Y-79953888D01*
X183392813Y-79958799D01*
X183386147Y-79963254D01*
X183338529Y-80010873D01*
X183334077Y-80017534D01*
X183329162Y-80023868D01*
X183281544Y-80119105D01*
X183280882Y-80121520D01*
X183280071Y-80122332D01*
X183278507Y-80130193D01*
X183276391Y-80137921D01*
X183276753Y-80139009D01*
X183276265Y-80141466D01*
X183276265Y-80331942D01*
X183276753Y-80334398D01*
X183276391Y-80335487D01*
X183278507Y-80343214D01*
X183280071Y-80351076D01*
X183280882Y-80351887D01*
X183281544Y-80354303D01*
X183329162Y-80449540D01*
X183334073Y-80455868D01*
X183338528Y-80462535D01*
X183386147Y-80510155D01*
X183392813Y-80514609D01*
X183399142Y-80519521D01*
X183494380Y-80567140D01*
X183496795Y-80567801D01*
X183497607Y-80568613D01*
X183505468Y-80570176D01*
X183513196Y-80572293D01*
X183514284Y-80571930D01*
X183516741Y-80572419D01*
X183707217Y-80572419D01*
X183709673Y-80571930D01*
X183710762Y-80572293D01*
X183718489Y-80570176D01*
X183726351Y-80568613D01*
X183727162Y-80567801D01*
X183729578Y-80567140D01*
X183824815Y-80519522D01*
X183831142Y-80514611D01*
X183837811Y-80510155D01*
X183885430Y-80462535D01*
X183889883Y-80455869D01*
X183894795Y-80449541D01*
X183942414Y-80354303D01*
X183943075Y-80351887D01*
X183943887Y-80351076D01*
X183945450Y-80343214D01*
X183947567Y-80335487D01*
X183947204Y-80334398D01*
X183947693Y-80331942D01*
X183947693Y-80141466D01*
X183947204Y-80139009D01*
X183947567Y-80137921D01*
X183945450Y-80130193D01*
X183943887Y-80122332D01*
X183943075Y-80121520D01*
X183942414Y-80119105D01*
X183894795Y-80023867D01*
X183889883Y-80017538D01*
X183885429Y-80010872D01*
X183837810Y-79963254D01*
X183831148Y-79958802D01*
X183824815Y-79953887D01*
X183819020Y-79950990D01*
X183824815Y-79948093D01*
X183831148Y-79943177D01*
X183837810Y-79938726D01*
X183885429Y-79891108D01*
X183889883Y-79884441D01*
X183894795Y-79878113D01*
X183942414Y-79782875D01*
X183943075Y-79780459D01*
X183943887Y-79779648D01*
X183945450Y-79771786D01*
X183947567Y-79764059D01*
X183947204Y-79762970D01*
X183947693Y-79760514D01*
X183947693Y-79712895D01*
X183947204Y-79710438D01*
X183947567Y-79709350D01*
X183945450Y-79701622D01*
X183943887Y-79693761D01*
X183943075Y-79692949D01*
X183942414Y-79690534D01*
X183894795Y-79595296D01*
X183889883Y-79588967D01*
X183885429Y-79582301D01*
X183837810Y-79534683D01*
X183831148Y-79530231D01*
X183824815Y-79525316D01*
X183729578Y-79477698D01*
X183727162Y-79477036D01*
X183726351Y-79476225D01*
X183718489Y-79474661D01*
X183710762Y-79472545D01*
X183709673Y-79472907D01*
X183707217Y-79472419D01*
X183516741Y-79472419D01*
X183514284Y-79472907D01*
X183513196Y-79472545D01*
X183505468Y-79474661D01*
X183497607Y-79476225D01*
X183496795Y-79477036D01*
X183494380Y-79477698D01*
X183399142Y-79525317D01*
X183392813Y-79530228D01*
X183386147Y-79534683D01*
X183338529Y-79582302D01*
X183334077Y-79588963D01*
X183329162Y-79595297D01*
X183281544Y-79690534D01*
X183280882Y-79692949D01*
X183280071Y-79693761D01*
X183278507Y-79701622D01*
X183276391Y-79709350D01*
X183276753Y-79710438D01*
X183276265Y-79712895D01*
X183165154Y-79712895D01*
X183165154Y-79361308D01*
X184058804Y-79361308D01*
X184058804Y-80683530D01*
G37*
D12*
X158333333Y-99862295D02*
X158200000Y-99862295D01*
X158200000Y-99862295D02*
X158133333Y-99900390D01*
X158133333Y-99900390D02*
X158100000Y-99938485D01*
X158100000Y-99938485D02*
X158033333Y-100052771D01*
X158033333Y-100052771D02*
X158000000Y-100205152D01*
X158000000Y-100205152D02*
X158000000Y-100509914D01*
X158000000Y-100509914D02*
X158033333Y-100586104D01*
X158033333Y-100586104D02*
X158066667Y-100624200D01*
X158066667Y-100624200D02*
X158133333Y-100662295D01*
X158133333Y-100662295D02*
X158266667Y-100662295D01*
X158266667Y-100662295D02*
X158333333Y-100624200D01*
X158333333Y-100624200D02*
X158366667Y-100586104D01*
X158366667Y-100586104D02*
X158400000Y-100509914D01*
X158400000Y-100509914D02*
X158400000Y-100319438D01*
X158400000Y-100319438D02*
X158366667Y-100243247D01*
X158366667Y-100243247D02*
X158333333Y-100205152D01*
X158333333Y-100205152D02*
X158266667Y-100167057D01*
X158266667Y-100167057D02*
X158133333Y-100167057D01*
X158133333Y-100167057D02*
X158066667Y-100205152D01*
X158066667Y-100205152D02*
X158033333Y-100243247D01*
X158033333Y-100243247D02*
X158000000Y-100319438D01*
X158600000Y-99862295D02*
X158833334Y-100662295D01*
X158833334Y-100662295D02*
X159066667Y-99862295D01*
D10*
G36*
X161441185Y-80838530D02*
G01*
X159595280Y-80838530D01*
X159595280Y-79966678D01*
X159706391Y-79966678D01*
X159723505Y-80000906D01*
X159759810Y-80013007D01*
X159778626Y-80007854D01*
X159873863Y-79960236D01*
X159880196Y-79955320D01*
X159886858Y-79950869D01*
X159982096Y-79855631D01*
X159984844Y-79851517D01*
X159988344Y-79848011D01*
X159991979Y-79842558D01*
X159991979Y-80627419D01*
X159756265Y-80627419D01*
X159737131Y-80631225D01*
X159710071Y-80658285D01*
X159710071Y-80696553D01*
X159737131Y-80723613D01*
X159756265Y-80727419D01*
X160327693Y-80727419D01*
X160346827Y-80723613D01*
X160373887Y-80696553D01*
X160373887Y-80658285D01*
X160346827Y-80631225D01*
X160327693Y-80627419D01*
X160091979Y-80627419D01*
X160091979Y-79677419D01*
X160088173Y-79658285D01*
X160614833Y-79658285D01*
X160614833Y-79696553D01*
X160641893Y-79723613D01*
X160661027Y-79727419D01*
X161169886Y-79727419D01*
X160909112Y-80025446D01*
X160902017Y-80037766D01*
X160900547Y-80039237D01*
X160900547Y-80040320D01*
X160899377Y-80042352D01*
X160900547Y-80059906D01*
X160900547Y-80077505D01*
X160901803Y-80078761D01*
X160901922Y-80080536D01*
X160915166Y-80092124D01*
X160927607Y-80104565D01*
X160929907Y-80105022D01*
X160930722Y-80105735D01*
X160932794Y-80105596D01*
X160946741Y-80108371D01*
X161077795Y-80108371D01*
X161155218Y-80147082D01*
X161191362Y-80183227D01*
X161230074Y-80260650D01*
X161230074Y-80475138D01*
X161191362Y-80552561D01*
X161155216Y-80588708D01*
X161077795Y-80627419D01*
X160815688Y-80627419D01*
X160738265Y-80588708D01*
X160696383Y-80546825D01*
X160680162Y-80535986D01*
X160641893Y-80535986D01*
X160614833Y-80563045D01*
X160614833Y-80601314D01*
X160625671Y-80617535D01*
X160673290Y-80665155D01*
X160679956Y-80669609D01*
X160686285Y-80674521D01*
X160781523Y-80722140D01*
X160783938Y-80722801D01*
X160784750Y-80723613D01*
X160792611Y-80725176D01*
X160800339Y-80727293D01*
X160801427Y-80726930D01*
X160803884Y-80727419D01*
X161089598Y-80727419D01*
X161092054Y-80726930D01*
X161093143Y-80727293D01*
X161100870Y-80725176D01*
X161108732Y-80723613D01*
X161109543Y-80722801D01*
X161111959Y-80722140D01*
X161207196Y-80674522D01*
X161213523Y-80669611D01*
X161220192Y-80665155D01*
X161267811Y-80617535D01*
X161272264Y-80610869D01*
X161277176Y-80604541D01*
X161324795Y-80509303D01*
X161325456Y-80506887D01*
X161326268Y-80506076D01*
X161327831Y-80498214D01*
X161329948Y-80490487D01*
X161329585Y-80489398D01*
X161330074Y-80486942D01*
X161330074Y-80248847D01*
X161329585Y-80246390D01*
X161329948Y-80245302D01*
X161327831Y-80237574D01*
X161326268Y-80229713D01*
X161325456Y-80228901D01*
X161324795Y-80226486D01*
X161277176Y-80131248D01*
X161272264Y-80124919D01*
X161267810Y-80118253D01*
X161220191Y-80070635D01*
X161213529Y-80066183D01*
X161207196Y-80061268D01*
X161111959Y-80013650D01*
X161109543Y-80012988D01*
X161108732Y-80012177D01*
X161100870Y-80010613D01*
X161093143Y-80008497D01*
X161092054Y-80008859D01*
X161089598Y-80008371D01*
X161056929Y-80008371D01*
X161317703Y-79710344D01*
X161324797Y-79698023D01*
X161326268Y-79696553D01*
X161326268Y-79695469D01*
X161327438Y-79693438D01*
X161326268Y-79675883D01*
X161326268Y-79658285D01*
X161325011Y-79657028D01*
X161324893Y-79655254D01*
X161311648Y-79643665D01*
X161299208Y-79631225D01*
X161296907Y-79630767D01*
X161296093Y-79630055D01*
X161294020Y-79630193D01*
X161280074Y-79627419D01*
X160661027Y-79627419D01*
X160641893Y-79631225D01*
X160614833Y-79658285D01*
X160088173Y-79658285D01*
X160084532Y-79654644D01*
X160083523Y-79649597D01*
X160071407Y-79641519D01*
X160061113Y-79631225D01*
X160055967Y-79631225D01*
X160051683Y-79628369D01*
X160037405Y-79631225D01*
X160022845Y-79631225D01*
X160019204Y-79634865D01*
X160014157Y-79635875D01*
X160000377Y-79649684D01*
X159907882Y-79788424D01*
X159821886Y-79874421D01*
X159733904Y-79918412D01*
X159718492Y-79930373D01*
X159706391Y-79966678D01*
X159595280Y-79966678D01*
X159595280Y-79516308D01*
X161441185Y-79516308D01*
X161441185Y-80838530D01*
G37*
D12*
G36*
X151182936Y-91548302D02*
G01*
X150217372Y-91548302D01*
X150217372Y-90768100D01*
X150339594Y-90768100D01*
X150339704Y-90782802D01*
X150341257Y-90787787D01*
X150341506Y-90793004D01*
X150345572Y-90801636D01*
X150348410Y-90810741D01*
X150351751Y-90814750D01*
X150353978Y-90819477D01*
X150361038Y-90825895D01*
X150367143Y-90833221D01*
X150371766Y-90835647D01*
X150375632Y-90839162D01*
X150384609Y-90842389D01*
X150393054Y-90846822D01*
X150398254Y-90847294D01*
X150403170Y-90849062D01*
X150412698Y-90848608D01*
X150422198Y-90849472D01*
X150427183Y-90847918D01*
X150432400Y-90847670D01*
X150441032Y-90843603D01*
X150450137Y-90840766D01*
X150454146Y-90837424D01*
X150458873Y-90835198D01*
X150469782Y-90825340D01*
X150508996Y-90782203D01*
X150576407Y-90745128D01*
X150775974Y-90745128D01*
X150843384Y-90782203D01*
X150874685Y-90816634D01*
X150910714Y-90895896D01*
X150910714Y-91125312D01*
X150874685Y-91204574D01*
X150843383Y-91239006D01*
X150775975Y-91276080D01*
X150576406Y-91276080D01*
X150508997Y-91239006D01*
X150469782Y-91195869D01*
X150458873Y-91186011D01*
X150432400Y-91173539D01*
X150403170Y-91172147D01*
X150375632Y-91182047D01*
X150353978Y-91201732D01*
X150341506Y-91228205D01*
X150340114Y-91257435D01*
X150350014Y-91284973D01*
X150358790Y-91296769D01*
X150406410Y-91349151D01*
X150412411Y-91354574D01*
X150413635Y-91356102D01*
X150415570Y-91357429D01*
X150417318Y-91359008D01*
X150419094Y-91359845D01*
X150425762Y-91364416D01*
X150521000Y-91416796D01*
X150534515Y-91422585D01*
X150538658Y-91423043D01*
X150542511Y-91424639D01*
X150557143Y-91426080D01*
X150795238Y-91426080D01*
X150809870Y-91424639D01*
X150813722Y-91423043D01*
X150817866Y-91422585D01*
X150831381Y-91416796D01*
X150926619Y-91364416D01*
X150933286Y-91359845D01*
X150935063Y-91359008D01*
X150936810Y-91357429D01*
X150938746Y-91356102D01*
X150939969Y-91354574D01*
X150945972Y-91349150D01*
X150993591Y-91296769D01*
X150997572Y-91291417D01*
X150999006Y-91290078D01*
X151000539Y-91287429D01*
X151002367Y-91284973D01*
X151003030Y-91283126D01*
X151006373Y-91277354D01*
X151053992Y-91172592D01*
X151058735Y-91158675D01*
X151058778Y-91157381D01*
X151059273Y-91156189D01*
X151060714Y-91141557D01*
X151060714Y-90879652D01*
X151059273Y-90865020D01*
X151058778Y-90863827D01*
X151058735Y-90862534D01*
X151053992Y-90848617D01*
X151006373Y-90743855D01*
X151003030Y-90738082D01*
X151002367Y-90736236D01*
X151000539Y-90733779D01*
X150999006Y-90731131D01*
X150997572Y-90729791D01*
X150993591Y-90724440D01*
X150945972Y-90672059D01*
X150939969Y-90666634D01*
X150938746Y-90665107D01*
X150936809Y-90663779D01*
X150935063Y-90662201D01*
X150933287Y-90661364D01*
X150926620Y-90656793D01*
X150831382Y-90604412D01*
X150817867Y-90598623D01*
X150813722Y-90598164D01*
X150809870Y-90596569D01*
X150795238Y-90595128D01*
X150557143Y-90595128D01*
X150542511Y-90596569D01*
X150538658Y-90598164D01*
X150534514Y-90598623D01*
X150520999Y-90604412D01*
X150504256Y-90613620D01*
X150530396Y-90326080D01*
X150938095Y-90326080D01*
X150952727Y-90324639D01*
X150979763Y-90313440D01*
X151000455Y-90292748D01*
X151011654Y-90265712D01*
X151011654Y-90236448D01*
X151000455Y-90209412D01*
X150979763Y-90188720D01*
X150952727Y-90177521D01*
X150938095Y-90176080D01*
X150461905Y-90176080D01*
X150455899Y-90176671D01*
X150453993Y-90176498D01*
X150452298Y-90177026D01*
X150447273Y-90177521D01*
X150436836Y-90181844D01*
X150426054Y-90185204D01*
X150423413Y-90187404D01*
X150420237Y-90188720D01*
X150412249Y-90196707D01*
X150403574Y-90203937D01*
X150401976Y-90206980D01*
X150399545Y-90209412D01*
X150395222Y-90219847D01*
X150389973Y-90229848D01*
X150389024Y-90234809D01*
X150388346Y-90236448D01*
X150388346Y-90238361D01*
X150387213Y-90244290D01*
X150339594Y-90768100D01*
X150217372Y-90768100D01*
X150217372Y-90053858D01*
X151182936Y-90053858D01*
X151182936Y-91548302D01*
G37*
D10*
G36*
X190302837Y-81302082D02*
G01*
X190338981Y-81338227D01*
X190377693Y-81415650D01*
X190377693Y-81630138D01*
X190338981Y-81707561D01*
X190302835Y-81743708D01*
X190225414Y-81782419D01*
X190058545Y-81782419D01*
X189981122Y-81743708D01*
X189944976Y-81707561D01*
X189906265Y-81630139D01*
X189906265Y-81415650D01*
X189944976Y-81338226D01*
X189981121Y-81302082D01*
X190058545Y-81263371D01*
X190225414Y-81263371D01*
X190302837Y-81302082D01*
G37*
G36*
X190588804Y-81993530D02*
G01*
X189695154Y-81993530D01*
X189695154Y-81260990D01*
X189806265Y-81260990D01*
X189806265Y-81641942D01*
X189806753Y-81644398D01*
X189806391Y-81645487D01*
X189808507Y-81653214D01*
X189810071Y-81661076D01*
X189810882Y-81661887D01*
X189811544Y-81664303D01*
X189859162Y-81759540D01*
X189864073Y-81765868D01*
X189868528Y-81772535D01*
X189916147Y-81820155D01*
X189922813Y-81824609D01*
X189929142Y-81829521D01*
X190024380Y-81877140D01*
X190026795Y-81877801D01*
X190027607Y-81878613D01*
X190035468Y-81880176D01*
X190043196Y-81882293D01*
X190044284Y-81881930D01*
X190046741Y-81882419D01*
X190237217Y-81882419D01*
X190239673Y-81881930D01*
X190240762Y-81882293D01*
X190248489Y-81880176D01*
X190256351Y-81878613D01*
X190257162Y-81877801D01*
X190259578Y-81877140D01*
X190354815Y-81829522D01*
X190361142Y-81824611D01*
X190367811Y-81820155D01*
X190415430Y-81772535D01*
X190419883Y-81765869D01*
X190424795Y-81759541D01*
X190472414Y-81664303D01*
X190473075Y-81661887D01*
X190473887Y-81661076D01*
X190475450Y-81653214D01*
X190477567Y-81645487D01*
X190477204Y-81644398D01*
X190477693Y-81641942D01*
X190477693Y-81403847D01*
X190477204Y-81401390D01*
X190477567Y-81400302D01*
X190475450Y-81392574D01*
X190473887Y-81384713D01*
X190473075Y-81383901D01*
X190472414Y-81381486D01*
X190424795Y-81286248D01*
X190419883Y-81279919D01*
X190415429Y-81273253D01*
X190367810Y-81225635D01*
X190361148Y-81221183D01*
X190354815Y-81216268D01*
X190259578Y-81168650D01*
X190257162Y-81167988D01*
X190256351Y-81167177D01*
X190248489Y-81165613D01*
X190240762Y-81163497D01*
X190239673Y-81163859D01*
X190237217Y-81163371D01*
X190046741Y-81163371D01*
X190044284Y-81163859D01*
X190043196Y-81163497D01*
X190035468Y-81165613D01*
X190027607Y-81167177D01*
X190026795Y-81167988D01*
X190024380Y-81168650D01*
X189929142Y-81216269D01*
X189922813Y-81221180D01*
X189916741Y-81225237D01*
X189950290Y-81091044D01*
X190037980Y-80959508D01*
X190076359Y-80921130D01*
X190153783Y-80882419D01*
X190332455Y-80882419D01*
X190351589Y-80878613D01*
X190378649Y-80851553D01*
X190378649Y-80813285D01*
X190351589Y-80786225D01*
X190332455Y-80782419D01*
X190141979Y-80782419D01*
X190139522Y-80782907D01*
X190138434Y-80782545D01*
X190130706Y-80784661D01*
X190122845Y-80786225D01*
X190122033Y-80787036D01*
X190119618Y-80787698D01*
X190024380Y-80835317D01*
X190018051Y-80840228D01*
X190011385Y-80844683D01*
X189963767Y-80892302D01*
X189961016Y-80896417D01*
X189957520Y-80899922D01*
X189862281Y-81042779D01*
X189859021Y-81050671D01*
X189855377Y-81058387D01*
X189807758Y-81248863D01*
X189807460Y-81254980D01*
X189806265Y-81260990D01*
X189695154Y-81260990D01*
X189695154Y-80671308D01*
X190588804Y-80671308D01*
X190588804Y-81993530D01*
G37*
D12*
X147719700Y-112921428D02*
X147719700Y-111778571D01*
X147719700Y-123921428D02*
X147719700Y-122778571D01*
X148291128Y-123349999D02*
X147148271Y-123349999D01*
X147709700Y-108911428D02*
X147709700Y-107768571D01*
X148281128Y-108339999D02*
X147138271Y-108339999D01*
X147709700Y-97911428D02*
X147709700Y-96768571D01*
D14*
%TO.C,J3*%
X174040000Y-92600000D02*
X174040000Y-93730000D01*
X173280000Y-92600000D02*
X174040000Y-92600000D01*
X172520000Y-92600000D02*
X167505000Y-92600000D01*
X172520000Y-92600000D02*
X172520000Y-93166529D01*
X167505000Y-92600000D02*
X167505000Y-93422470D01*
X167505000Y-94037530D02*
X167505000Y-94692470D01*
X172520000Y-94293471D02*
X172520000Y-94436529D01*
X173975000Y-94490000D02*
X173975000Y-94692470D01*
X173843471Y-94490000D02*
X173975000Y-94490000D01*
X172573471Y-94490000D02*
X172716529Y-94490000D01*
X173975000Y-95307530D02*
X173975000Y-96130000D01*
X167505000Y-95307530D02*
X167505000Y-96130000D01*
X173975000Y-96130000D02*
X167505000Y-96130000D01*
%TO.C,U9*%
X168140000Y-100900000D02*
X168140000Y-101700000D01*
X168140000Y-100900000D02*
X168140000Y-100100000D01*
X171260000Y-100900000D02*
X171260000Y-101700000D01*
X171260000Y-100900000D02*
X171260000Y-100100000D01*
X168190000Y-102200000D02*
X167860000Y-102440000D01*
X167860000Y-101960000D01*
X168190000Y-102200000D01*
G36*
X168190000Y-102200000D02*
G01*
X167860000Y-102440000D01*
X167860000Y-101960000D01*
X168190000Y-102200000D01*
G37*
%TO.C,C17*%
X171840000Y-101007836D02*
X171840000Y-100792164D01*
X172560000Y-101007836D02*
X172560000Y-100792164D01*
%TO.C,C16*%
X166840000Y-101007836D02*
X166840000Y-100792164D01*
X167560000Y-101007836D02*
X167560000Y-100792164D01*
%TO.C,R9*%
X174980000Y-102346359D02*
X174980000Y-102653641D01*
X174220000Y-102346359D02*
X174220000Y-102653641D01*
%TO.C,R8*%
X174980000Y-100246359D02*
X174980000Y-100553641D01*
X174220000Y-100246359D02*
X174220000Y-100553641D01*
%TO.C,D6*%
X170110000Y-106890000D02*
X164490000Y-106890000D01*
X164490000Y-107140000D02*
X164490000Y-106890000D01*
X170110000Y-107290000D02*
X170110000Y-106890000D01*
X170110000Y-111110000D02*
X170110000Y-110720000D01*
X164490000Y-111110000D02*
X164490000Y-110860000D01*
X164490000Y-111110000D02*
X170110000Y-111110000D01*
X170785000Y-107290000D02*
X170505000Y-107290000D01*
X170505000Y-107010000D01*
X170785000Y-107290000D01*
G36*
X170785000Y-107290000D02*
G01*
X170505000Y-107290000D01*
X170505000Y-107010000D01*
X170785000Y-107290000D01*
G37*
%TO.C,C7*%
X186169190Y-85071693D02*
X186321693Y-84919190D01*
X186678307Y-85580810D02*
X186830810Y-85428307D01*
%TO.C,FB1*%
X184754478Y-84225727D02*
X184524273Y-83995522D01*
X185475727Y-83504478D02*
X185245522Y-83274273D01*
%TO.C,Q2*%
X167340000Y-111610000D02*
X173460000Y-111610000D01*
X167340000Y-116980000D02*
X173020000Y-116980000D01*
X173771622Y-117045270D02*
X173291622Y-117045270D01*
X173531622Y-116715270D01*
X173771622Y-117045270D01*
G36*
X173771622Y-117045270D02*
G01*
X173291622Y-117045270D01*
X173531622Y-116715270D01*
X173771622Y-117045270D01*
G37*
%TO.C,C11*%
X162377836Y-86890000D02*
X162162164Y-86890000D01*
X162377836Y-87610000D02*
X162162164Y-87610000D01*
%TO.C,COUT4*%
X174190000Y-105368748D02*
X174190000Y-106791252D01*
X176010000Y-105368748D02*
X176010000Y-106791252D01*
%TO.C,R3*%
X175620000Y-90903641D02*
X175620000Y-90596359D01*
X176380000Y-90903641D02*
X176380000Y-90596359D01*
%TO.C,TP7*%
X159200000Y-101900000D02*
G75*
G02*
X157800000Y-101900000I-700000J0D01*
G01*
X157800000Y-101900000D02*
G75*
G02*
X159200000Y-101900000I700000J0D01*
G01*
%TO.C,CSS1*%
X187624999Y-107414421D02*
X187624999Y-107695581D01*
X188644999Y-107414421D02*
X188644999Y-107695581D01*
%TO.C,J14*%
X177570000Y-71190000D02*
X178900000Y-71190000D01*
X177570000Y-72520000D02*
X177570000Y-71190000D01*
X177570000Y-73790000D02*
X177570000Y-78930000D01*
X177570000Y-73790000D02*
X180230000Y-73790000D01*
X177570000Y-78930000D02*
X180230000Y-78930000D01*
X180230000Y-73790000D02*
X180230000Y-78930000D01*
%TO.C,CIN2*%
X177710000Y-118075580D02*
X177710000Y-117794420D01*
X176690000Y-118075580D02*
X176690000Y-117794420D01*
%TO.C,J5*%
X142415000Y-92850000D02*
X142415000Y-91830000D01*
X142415000Y-91830000D02*
X140815000Y-91830000D01*
X142415000Y-83750000D02*
X140815000Y-83750000D01*
X142415000Y-82730000D02*
X142415000Y-83750000D01*
X140815000Y-91830000D02*
X140815000Y-90550000D01*
X140815000Y-85030000D02*
X143705000Y-85030000D01*
X140815000Y-83750000D02*
X140815000Y-85030000D01*
X138165000Y-92850000D02*
X142415000Y-92850000D01*
X138165000Y-82730000D02*
X142415000Y-82730000D01*
X134595000Y-84450000D02*
X134595000Y-91130000D01*
%TO.C,C5*%
X187419190Y-85821693D02*
X187571693Y-85669190D01*
X187928307Y-86330810D02*
X188080810Y-86178307D01*
%TO.C,R17*%
X145903641Y-90840000D02*
X145596359Y-90840000D01*
X145903641Y-90080000D02*
X145596359Y-90080000D01*
%TO.C,CIN1*%
X175710000Y-118075580D02*
X175710000Y-117794420D01*
X174690000Y-118075580D02*
X174690000Y-117794420D01*
%TO.C,CBoot1*%
X188844419Y-114895002D02*
X189125579Y-114895002D01*
X188844419Y-115915002D02*
X189125579Y-115915002D01*
%TO.C,TP5*%
X189200000Y-87500000D02*
G75*
G02*
X187800000Y-87500000I-700000J0D01*
G01*
X187800000Y-87500000D02*
G75*
G02*
X189200000Y-87500000I700000J0D01*
G01*
%TO.C,J18*%
X159170000Y-71290000D02*
X160500000Y-71290000D01*
X159170000Y-72620000D02*
X159170000Y-71290000D01*
X159170000Y-73890000D02*
X159170000Y-79030000D01*
X159170000Y-73890000D02*
X161830000Y-73890000D01*
X159170000Y-79030000D02*
X161830000Y-79030000D01*
X161830000Y-73890000D02*
X161830000Y-79030000D01*
%TO.C,RFB2*%
X188538640Y-103925002D02*
X188231358Y-103925002D01*
X188538640Y-104685002D02*
X188231358Y-104685002D01*
%TO.C,RPGOOD1*%
X182131357Y-110425002D02*
X182438639Y-110425002D01*
X182131357Y-111185002D02*
X182438639Y-111185002D01*
%TO.C,R4*%
X181590000Y-102027064D02*
X181590000Y-100572936D01*
X183410000Y-102027064D02*
X183410000Y-100572936D01*
%TO.C,J12*%
X186870000Y-71170000D02*
X188200000Y-71170000D01*
X186870000Y-72500000D02*
X186870000Y-71170000D01*
X186870000Y-73770000D02*
X186870000Y-78910000D01*
X186870000Y-73770000D02*
X189530000Y-73770000D01*
X186870000Y-78910000D02*
X189530000Y-78910000D01*
X189530000Y-73770000D02*
X189530000Y-78910000D01*
%TO.C,J21*%
X145370000Y-71290000D02*
X146700000Y-71290000D01*
X145370000Y-72620000D02*
X145370000Y-71290000D01*
X145370000Y-73890000D02*
X145370000Y-79030000D01*
X145370000Y-73890000D02*
X148030000Y-73890000D01*
X145370000Y-79030000D02*
X148030000Y-79030000D01*
X148030000Y-73890000D02*
X148030000Y-79030000D01*
%TO.C,U7*%
X178500000Y-100152500D02*
X177700000Y-100152500D01*
X178500000Y-100152500D02*
X179300000Y-100152500D01*
X178500000Y-103272500D02*
X177700000Y-103272500D01*
X178500000Y-103272500D02*
X179300000Y-103272500D01*
X180040000Y-103552500D02*
X179560000Y-103552500D01*
X179800000Y-103222500D01*
X180040000Y-103552500D01*
G36*
X180040000Y-103552500D02*
G01*
X179560000Y-103552500D01*
X179800000Y-103222500D01*
X180040000Y-103552500D01*
G37*
%TO.C,R5*%
X145903641Y-93580000D02*
X145596359Y-93580000D01*
X145903641Y-94340000D02*
X145596359Y-94340000D01*
%TO.C,RUV1*%
X190012499Y-112192259D02*
X190012499Y-111717743D01*
X191057499Y-112192259D02*
X191057499Y-111717743D01*
%TO.C,J19*%
X154570000Y-71290000D02*
X155900000Y-71290000D01*
X154570000Y-72620000D02*
X154570000Y-71290000D01*
X154570000Y-73890000D02*
X154570000Y-79030000D01*
X154570000Y-73890000D02*
X157230000Y-73890000D01*
X154570000Y-79030000D02*
X157230000Y-79030000D01*
X157230000Y-73890000D02*
X157230000Y-79030000D01*
%TO.C,C13*%
X162640000Y-89107836D02*
X162640000Y-88892164D01*
X163360000Y-89107836D02*
X163360000Y-88892164D01*
%TO.C,CIN4*%
X180790000Y-118075580D02*
X180790000Y-117794420D01*
X181810000Y-118075580D02*
X181810000Y-117794420D01*
%TO.C,TP10*%
X191000000Y-118700000D02*
G75*
G02*
X189600000Y-118700000I-700000J0D01*
G01*
X189600000Y-118700000D02*
G75*
G02*
X191000000Y-118700000I700000J0D01*
G01*
%TO.C,RRT1*%
X190288640Y-109175001D02*
X189981358Y-109175001D01*
X190288640Y-109935001D02*
X189981358Y-109935001D01*
%TO.C,J15*%
X172970000Y-71190000D02*
X174300000Y-71190000D01*
X172970000Y-72520000D02*
X172970000Y-71190000D01*
X172970000Y-73790000D02*
X172970000Y-78930000D01*
X172970000Y-73790000D02*
X175630000Y-73790000D01*
X172970000Y-78930000D02*
X175630000Y-78930000D01*
X175630000Y-73790000D02*
X175630000Y-78930000D01*
%TO.C,C1*%
X185109420Y-97490000D02*
X185390580Y-97490000D01*
X185109420Y-98510000D02*
X185390580Y-98510000D01*
%TO.C,C14*%
X154740000Y-84142164D02*
X154740000Y-84357836D01*
X155460000Y-84142164D02*
X155460000Y-84357836D01*
%TO.C,J6*%
X191090000Y-102970000D02*
X191090000Y-105630000D01*
X196230000Y-102970000D02*
X191090000Y-102970000D01*
X196230000Y-102970000D02*
X196230000Y-105630000D01*
X196230000Y-105630000D02*
X191090000Y-105630000D01*
X197500000Y-102970000D02*
X198830000Y-102970000D01*
X198830000Y-102970000D02*
X198830000Y-104300000D01*
%TO.C,R6*%
X188120000Y-96656359D02*
X188120000Y-96963641D01*
X188880000Y-96656359D02*
X188880000Y-96963641D01*
%TO.C,C12*%
X158890580Y-86990000D02*
X158609420Y-86990000D01*
X158890580Y-88010000D02*
X158609420Y-88010000D01*
%TO.C,RFB1*%
X185870000Y-102853641D02*
X185870000Y-102546359D01*
X186630000Y-102853641D02*
X186630000Y-102546359D01*
%TO.C,J13*%
X182270000Y-71170000D02*
X183600000Y-71170000D01*
X182270000Y-72500000D02*
X182270000Y-71170000D01*
X182270000Y-73770000D02*
X182270000Y-78910000D01*
X182270000Y-73770000D02*
X184930000Y-73770000D01*
X182270000Y-78910000D02*
X184930000Y-78910000D01*
X184930000Y-73770000D02*
X184930000Y-78910000D01*
%TO.C,CVcc1*%
X185774999Y-115764422D02*
X185774999Y-116045582D01*
X186794999Y-115764422D02*
X186794999Y-116045582D01*
%TO.C,C28*%
X149166252Y-95345000D02*
X148643748Y-95345000D01*
X149166252Y-93875000D02*
X148643748Y-93875000D01*
%TO.C,Q1*%
X172415270Y-118108378D02*
X172085270Y-117868378D01*
X172415270Y-117628378D01*
X172415270Y-118108378D01*
G36*
X172415270Y-118108378D02*
G01*
X172085270Y-117868378D01*
X172415270Y-117628378D01*
X172415270Y-118108378D01*
G37*
X172350000Y-124060000D02*
X172350000Y-118380000D01*
X166980000Y-124060000D02*
X166980000Y-117940000D01*
%TO.C,TP6*%
X174100000Y-98700000D02*
G75*
G02*
X172700000Y-98700000I-700000J0D01*
G01*
X172700000Y-98700000D02*
G75*
G02*
X174100000Y-98700000I700000J0D01*
G01*
%TO.C,CC2*%
X185240000Y-107107836D02*
X185240000Y-106892164D01*
X185960000Y-107107836D02*
X185960000Y-106892164D01*
%TO.C,C27*%
X155411252Y-100465000D02*
X154888748Y-100465000D01*
X155411252Y-101935000D02*
X154888748Y-101935000D01*
%TO.C,R16*%
X145903641Y-92590000D02*
X145596359Y-92590000D01*
X145903641Y-91830000D02*
X145596359Y-91830000D01*
%TO.C,R1*%
X178120000Y-96096359D02*
X178120000Y-96403641D01*
X178880000Y-96096359D02*
X178880000Y-96403641D01*
%TO.C,COUT1*%
X181690000Y-105418748D02*
X181690000Y-106841252D01*
X183510000Y-105418748D02*
X183510000Y-106841252D01*
%TO.C,TP2*%
X146005000Y-86610000D02*
G75*
G02*
X144605000Y-86610000I-700000J0D01*
G01*
X144605000Y-86610000D02*
G75*
G02*
X146005000Y-86610000I700000J0D01*
G01*
%TO.C,C15*%
X145640000Y-82872164D02*
X145640000Y-83087836D01*
X146360000Y-82872164D02*
X146360000Y-83087836D01*
%TO.C,COUT5*%
X171690000Y-105368748D02*
X171690000Y-106791252D01*
X173510000Y-105368748D02*
X173510000Y-106791252D01*
%TO.C,CC1*%
X186324999Y-107112838D02*
X186324999Y-106897166D01*
X187044999Y-107112838D02*
X187044999Y-106897166D01*
%TO.C,COUT3*%
X176690000Y-105368748D02*
X176690000Y-106791252D01*
X178510000Y-105368748D02*
X178510000Y-106791252D01*
%TO.C,J11*%
X191090000Y-79970000D02*
X191090000Y-82630000D01*
X196230000Y-79970000D02*
X191090000Y-79970000D01*
X196230000Y-79970000D02*
X196230000Y-82630000D01*
X196230000Y-82630000D02*
X191090000Y-82630000D01*
X197500000Y-79970000D02*
X198830000Y-79970000D01*
X198830000Y-79970000D02*
X198830000Y-81300000D01*
%TO.C,CIN3*%
X178690000Y-118075580D02*
X178690000Y-117794420D01*
X179710000Y-118075580D02*
X179710000Y-117794420D01*
%TO.C,C8*%
X187642164Y-83390000D02*
X187857836Y-83390000D01*
X187642164Y-84110000D02*
X187857836Y-84110000D01*
%TO.C,J17*%
X163770000Y-71290000D02*
X165100000Y-71290000D01*
X163770000Y-72620000D02*
X163770000Y-71290000D01*
X163770000Y-73890000D02*
X163770000Y-79030000D01*
X163770000Y-73890000D02*
X166430000Y-73890000D01*
X163770000Y-79030000D02*
X166430000Y-79030000D01*
X166430000Y-73890000D02*
X166430000Y-79030000D01*
%TO.C,J9*%
X191090000Y-89170000D02*
X191090000Y-91830000D01*
X196230000Y-89170000D02*
X191090000Y-89170000D01*
X196230000Y-89170000D02*
X196230000Y-91830000D01*
X196230000Y-91830000D02*
X191090000Y-91830000D01*
X197500000Y-89170000D02*
X198830000Y-89170000D01*
X198830000Y-89170000D02*
X198830000Y-90500000D01*
D15*
%TO.C,U4*%
X188884999Y-113255000D02*
X188884999Y-113505002D01*
X188884999Y-109605000D02*
X188884999Y-110255001D01*
X188635000Y-113505002D02*
X188884999Y-113505002D01*
X188635000Y-109605000D02*
X188884999Y-109605000D01*
X183984999Y-113505002D02*
X184234998Y-113505002D01*
X183984999Y-113255000D02*
X183984999Y-113505002D01*
X183984999Y-109605000D02*
X184234998Y-109605000D01*
X183984999Y-109605000D02*
X183984999Y-109855002D01*
D14*
%TO.C,J10*%
X191090000Y-84570000D02*
X191090000Y-87230000D01*
X196230000Y-84570000D02*
X191090000Y-84570000D01*
X196230000Y-84570000D02*
X196230000Y-87230000D01*
X196230000Y-87230000D02*
X191090000Y-87230000D01*
X197500000Y-84570000D02*
X198830000Y-84570000D01*
X198830000Y-84570000D02*
X198830000Y-85900000D01*
%TO.C,U6*%
X151895000Y-93300000D02*
X153155000Y-93300000D01*
X151895000Y-97060000D02*
X151895000Y-93300000D01*
X158715000Y-93300000D02*
X157455000Y-93300000D01*
X158715000Y-97060000D02*
X158715000Y-93300000D01*
X151995000Y-98340000D02*
X151665000Y-98580000D01*
X151665000Y-98100000D01*
X151995000Y-98340000D01*
G36*
X151995000Y-98340000D02*
G01*
X151665000Y-98580000D01*
X151665000Y-98100000D01*
X151995000Y-98340000D01*
G37*
%TO.C,U3*%
X150500000Y-81690000D02*
X148550000Y-81690000D01*
X150500000Y-81690000D02*
X152450000Y-81690000D01*
X150500000Y-86810000D02*
X148550000Y-86810000D01*
X150500000Y-86810000D02*
X152450000Y-86810000D01*
X153440000Y-87045000D02*
X152960000Y-87045000D01*
X153200000Y-86715000D01*
X153440000Y-87045000D01*
G36*
X153440000Y-87045000D02*
G01*
X152960000Y-87045000D01*
X153200000Y-86715000D01*
X153440000Y-87045000D01*
G37*
%TO.C,J22*%
X138715000Y-123500000D02*
G75*
G02*
X136495000Y-123500000I-1110000J0D01*
G01*
X136495000Y-112200000D02*
G75*
G02*
X138715000Y-112200000I1110000J0D01*
G01*
X143615000Y-122910000D02*
X143615000Y-112790000D01*
X138715000Y-123500000D02*
X138715000Y-122910000D01*
X138715000Y-122910000D02*
X143615000Y-122910000D01*
X138715000Y-112790000D02*
X143615000Y-112790000D01*
X138715000Y-112790000D02*
X138715000Y-112200000D01*
X136495000Y-123500000D02*
X136495000Y-122910000D01*
X136495000Y-112790000D02*
X136495000Y-112200000D01*
%TO.C,C30*%
X160223752Y-88765000D02*
X159701248Y-88765000D01*
X160223752Y-90235000D02*
X159701248Y-90235000D01*
%TO.C,C6*%
X175919190Y-88321693D02*
X176071693Y-88169190D01*
X176428307Y-88830810D02*
X176580810Y-88678307D01*
%TO.C,C4*%
X182571693Y-96919190D02*
X182419190Y-97071693D01*
X183080810Y-97428307D02*
X182928307Y-97580810D01*
%TO.C,D1*%
X147227500Y-91875000D02*
X147227500Y-93345000D01*
X147227500Y-93345000D02*
X149512500Y-93345000D01*
X149512500Y-91875000D02*
X147227500Y-91875000D01*
%TO.C,C31*%
X176160000Y-102412164D02*
X176160000Y-102627836D01*
X175440000Y-102412164D02*
X175440000Y-102627836D01*
%TO.C,J7*%
X191090000Y-98370000D02*
X191090000Y-101030000D01*
X196230000Y-98370000D02*
X191090000Y-98370000D01*
X196230000Y-98370000D02*
X196230000Y-101030000D01*
X196230000Y-101030000D02*
X191090000Y-101030000D01*
X197500000Y-98370000D02*
X198830000Y-98370000D01*
X198830000Y-98370000D02*
X198830000Y-99700000D01*
%TO.C,TP4*%
X173400000Y-90300000D02*
G75*
G02*
X172000000Y-90300000I-700000J0D01*
G01*
X172000000Y-90300000D02*
G75*
G02*
X173400000Y-90300000I700000J0D01*
G01*
%TO.C,U2*%
X165190000Y-80340000D02*
X165190000Y-80615000D01*
X165190000Y-90260000D02*
X165190000Y-89985000D01*
X167500000Y-80340000D02*
X165190000Y-80340000D01*
X167500000Y-80340000D02*
X169810000Y-80340000D01*
X167500000Y-90260000D02*
X165190000Y-90260000D01*
X167500000Y-90260000D02*
X169810000Y-90260000D01*
X169810000Y-80340000D02*
X169810000Y-80615000D01*
X169810000Y-90260000D02*
X169810000Y-89985000D01*
X170640000Y-90315000D02*
X170160000Y-90315000D01*
X170400000Y-89985000D01*
X170640000Y-90315000D01*
G36*
X170640000Y-90315000D02*
G01*
X170160000Y-90315000D01*
X170400000Y-89985000D01*
X170640000Y-90315000D01*
G37*
%TO.C,RUV2*%
X191620000Y-111546359D02*
X191620000Y-111853641D01*
X192380000Y-111546359D02*
X192380000Y-111853641D01*
%TO.C,U5*%
X159295000Y-93300000D02*
X160555000Y-93300000D01*
X159295000Y-97060000D02*
X159295000Y-93300000D01*
X166115000Y-93300000D02*
X164855000Y-93300000D01*
X166115000Y-97060000D02*
X166115000Y-93300000D01*
X159395000Y-98340000D02*
X159065000Y-98580000D01*
X159065000Y-98100000D01*
X159395000Y-98340000D01*
G36*
X159395000Y-98340000D02*
G01*
X159065000Y-98580000D01*
X159065000Y-98100000D01*
X159395000Y-98340000D01*
G37*
%TO.C,J8*%
X191090000Y-93770000D02*
X191090000Y-96430000D01*
X196230000Y-93770000D02*
X191090000Y-93770000D01*
X196230000Y-93770000D02*
X196230000Y-96430000D01*
X196230000Y-96430000D02*
X191090000Y-96430000D01*
X197500000Y-93770000D02*
X198830000Y-93770000D01*
X198830000Y-93770000D02*
X198830000Y-95100000D01*
%TO.C,J20*%
X149970000Y-71290000D02*
X151300000Y-71290000D01*
X149970000Y-72620000D02*
X149970000Y-71290000D01*
X149970000Y-73890000D02*
X149970000Y-79030000D01*
X149970000Y-73890000D02*
X152630000Y-73890000D01*
X149970000Y-79030000D02*
X152630000Y-79030000D01*
X152630000Y-73890000D02*
X152630000Y-79030000D01*
%TO.C,R7*%
X173925000Y-85856359D02*
X173925000Y-86163641D01*
X174685000Y-85856359D02*
X174685000Y-86163641D01*
%TO.C,TP1*%
X146005000Y-88810000D02*
G75*
G02*
X144605000Y-88810000I-700000J0D01*
G01*
X144605000Y-88810000D02*
G75*
G02*
X146005000Y-88810000I700000J0D01*
G01*
%TO.C,TP3*%
X173600000Y-88100000D02*
G75*
G02*
X172200000Y-88100000I-700000J0D01*
G01*
X172200000Y-88100000D02*
G75*
G02*
X173600000Y-88100000I700000J0D01*
G01*
%TO.C,Rilim1*%
X180349998Y-113377938D02*
X180349998Y-113832066D01*
X181819998Y-113377938D02*
X181819998Y-113832066D01*
%TO.C,Cilim1*%
X182424998Y-112709666D02*
X182424998Y-112925338D01*
X183144998Y-112709666D02*
X183144998Y-112925338D01*
%TO.C,D5*%
X175220000Y-84875000D02*
X175220000Y-86345000D01*
X175220000Y-86345000D02*
X177505000Y-86345000D01*
X177505000Y-84875000D02*
X175220000Y-84875000D01*
%TO.C,C2*%
X182669190Y-84071693D02*
X182821693Y-83919190D01*
X183178307Y-84580810D02*
X183330810Y-84428307D01*
%TO.C,TP9*%
X156400000Y-89300000D02*
G75*
G02*
X155000000Y-89300000I-700000J0D01*
G01*
X155000000Y-89300000D02*
G75*
G02*
X156400000Y-89300000I700000J0D01*
G01*
%TO.C,TP8*%
X153200000Y-89500000D02*
G75*
G02*
X151800000Y-89500000I-700000J0D01*
G01*
X151800000Y-89500000D02*
G75*
G02*
X153200000Y-89500000I700000J0D01*
G01*
%TO.C,J4*%
X142415000Y-80850000D02*
X142415000Y-79830000D01*
X142415000Y-79830000D02*
X140815000Y-79830000D01*
X142415000Y-71750000D02*
X140815000Y-71750000D01*
X142415000Y-70730000D02*
X142415000Y-71750000D01*
X140815000Y-79830000D02*
X140815000Y-78550000D01*
X140815000Y-73030000D02*
X143705000Y-73030000D01*
X140815000Y-71750000D02*
X140815000Y-73030000D01*
X138165000Y-80850000D02*
X142415000Y-80850000D01*
X138165000Y-70730000D02*
X142415000Y-70730000D01*
X134595000Y-72450000D02*
X134595000Y-79130000D01*
%TO.C,C9*%
X186392164Y-82390000D02*
X186607836Y-82390000D01*
X186392164Y-83110000D02*
X186607836Y-83110000D01*
%TO.C,C10*%
X186321693Y-94669190D02*
X186169190Y-94821693D01*
X186830810Y-95178307D02*
X186678307Y-95330810D01*
%TO.C,J2*%
X193645000Y-115080000D02*
X193645000Y-113750000D01*
X194975000Y-115080000D02*
X193645000Y-115080000D01*
X196245000Y-112420000D02*
X198845000Y-112420000D01*
X196245000Y-115080000D02*
X196245000Y-112420000D01*
X196245000Y-115080000D02*
X198845000Y-115080000D01*
X198845000Y-115080000D02*
X198845000Y-112420000D01*
%TO.C,D3*%
X147220000Y-88275000D02*
X147220000Y-89745000D01*
X147220000Y-89745000D02*
X149505000Y-89745000D01*
X149505000Y-88275000D02*
X147220000Y-88275000D01*
%TO.C,C3*%
X180321693Y-97080810D02*
X180169190Y-96928307D01*
X180830810Y-96571693D02*
X180678307Y-96419190D01*
%TO.C,R2*%
X176870000Y-96153641D02*
X176870000Y-95846359D01*
X177630000Y-96153641D02*
X177630000Y-95846359D01*
%TO.C,CC3*%
X185092835Y-103945002D02*
X184877163Y-103945002D01*
X185092835Y-104665002D02*
X184877163Y-104665002D01*
%TO.C,RC1*%
X186304999Y-104958643D02*
X186304999Y-104651361D01*
X187064999Y-104958643D02*
X187064999Y-104651361D01*
%TO.C,D2*%
X147227500Y-90075000D02*
X147227500Y-91545000D01*
X147227500Y-91545000D02*
X149512500Y-91545000D01*
X149512500Y-90075000D02*
X147227500Y-90075000D01*
%TO.C,U1*%
X177394689Y-90500000D02*
X177712887Y-90181802D01*
X177712887Y-90818198D02*
X177394689Y-90500000D01*
X182181802Y-95287113D02*
X182500000Y-95605311D01*
X182500000Y-85394689D02*
X182181802Y-85712887D01*
X182500000Y-95605311D02*
X182818198Y-95287113D01*
X182818198Y-85712887D02*
X182500000Y-85394689D01*
X187287113Y-90181802D02*
X187605311Y-90500000D01*
X187605311Y-90500000D02*
X187287113Y-90818198D01*
X183143467Y-96277062D02*
X182662635Y-95796230D01*
X183235391Y-95704306D01*
X183143467Y-96277062D01*
G36*
X183143467Y-96277062D02*
G01*
X182662635Y-95796230D01*
X183235391Y-95704306D01*
X183143467Y-96277062D01*
G37*
%TO.C,J16*%
X168370000Y-71290000D02*
X169700000Y-71290000D01*
X168370000Y-72620000D02*
X168370000Y-71290000D01*
X168370000Y-73890000D02*
X168370000Y-79030000D01*
X168370000Y-73890000D02*
X171030000Y-73890000D01*
X168370000Y-79030000D02*
X171030000Y-79030000D01*
X171030000Y-73890000D02*
X171030000Y-79030000D01*
%TO.C,J1*%
X193645000Y-110330000D02*
X193645000Y-109000000D01*
X194975000Y-110330000D02*
X193645000Y-110330000D01*
X196245000Y-107670000D02*
X198845000Y-107670000D01*
X196245000Y-110330000D02*
X196245000Y-107670000D01*
X196245000Y-110330000D02*
X198845000Y-110330000D01*
X198845000Y-110330000D02*
X198845000Y-107670000D01*
%TO.C,C29*%
X162911252Y-100465000D02*
X162388748Y-100465000D01*
X162911252Y-101935000D02*
X162388748Y-101935000D01*
%TO.C,D4*%
X187765000Y-93300000D02*
X187765000Y-95585000D01*
X187765000Y-95585000D02*
X189235000Y-95585000D01*
X189235000Y-95585000D02*
X189235000Y-93300000D01*
%TO.C,RC2*%
X184880000Y-105746359D02*
X184880000Y-106053641D01*
X184120000Y-105746359D02*
X184120000Y-106053641D01*
%TO.C,COUT2*%
X179190000Y-105388748D02*
X179190000Y-106811252D01*
X181010000Y-105388748D02*
X181010000Y-106811252D01*
D16*
%TO.C,L1*%
X150400000Y-118150000D02*
X150400000Y-104650000D01*
X163000000Y-118150000D02*
X163000000Y-104650000D01*
D14*
%TO.C,J23*%
X138705000Y-108490000D02*
G75*
G02*
X136485000Y-108490000I-1110000J0D01*
G01*
X136485000Y-97190000D02*
G75*
G02*
X138705000Y-97190000I1110000J0D01*
G01*
X143605000Y-107900000D02*
X143605000Y-97780000D01*
X138705000Y-108490000D02*
X138705000Y-107900000D01*
X138705000Y-107900000D02*
X143605000Y-107900000D01*
X138705000Y-97780000D02*
X143605000Y-97780000D01*
X138705000Y-97780000D02*
X138705000Y-97190000D01*
X136485000Y-108490000D02*
X136485000Y-107900000D01*
X136485000Y-97780000D02*
X136485000Y-97190000D01*
%TD*%
M02*
