%TF.GenerationSoftware,KiCad,Pcbnew,8.0.4*%
%TF.CreationDate,2024-12-15T00:35:54-05:00*%
%TF.ProjectId,V1.03,56312e30-332e-46b6-9963-61645f706362,rev?*%
%TF.SameCoordinates,Original*%
%TF.FileFunction,Legend,Bot*%
%TF.FilePolarity,Positive*%
%FSLAX46Y46*%
G04 Gerber Fmt 4.6, Leading zero omitted, Abs format (unit mm)*
G04 Created by KiCad (PCBNEW 8.0.4) date 2024-12-15 00:35:54*
%MOMM*%
%LPD*%
G01*
G04 APERTURE LIST*
%ADD10C,0.100000*%
G04 APERTURE END LIST*
D10*
X190091353Y-122422419D02*
X189853258Y-123422419D01*
X189853258Y-123422419D02*
X189662782Y-122708133D01*
X189662782Y-122708133D02*
X189472306Y-123422419D01*
X189472306Y-123422419D02*
X189234211Y-122422419D01*
X188424687Y-123422419D02*
X188424687Y-122898609D01*
X188424687Y-122898609D02*
X188472306Y-122803371D01*
X188472306Y-122803371D02*
X188567544Y-122755752D01*
X188567544Y-122755752D02*
X188758020Y-122755752D01*
X188758020Y-122755752D02*
X188853258Y-122803371D01*
X188424687Y-123374800D02*
X188519925Y-123422419D01*
X188519925Y-123422419D02*
X188758020Y-123422419D01*
X188758020Y-123422419D02*
X188853258Y-123374800D01*
X188853258Y-123374800D02*
X188900877Y-123279561D01*
X188900877Y-123279561D02*
X188900877Y-123184323D01*
X188900877Y-123184323D02*
X188853258Y-123089085D01*
X188853258Y-123089085D02*
X188758020Y-123041466D01*
X188758020Y-123041466D02*
X188519925Y-123041466D01*
X188519925Y-123041466D02*
X188424687Y-122993847D01*
X188043734Y-122755752D02*
X187805639Y-123422419D01*
X187567544Y-122755752D02*
X187805639Y-123422419D01*
X187805639Y-123422419D02*
X187900877Y-123660514D01*
X187900877Y-123660514D02*
X187948496Y-123708133D01*
X187948496Y-123708133D02*
X188043734Y-123755752D01*
X187281829Y-122422419D02*
X187043734Y-123422419D01*
X187043734Y-123422419D02*
X186853258Y-122708133D01*
X186853258Y-122708133D02*
X186662782Y-123422419D01*
X186662782Y-123422419D02*
X186424687Y-122422419D01*
X185615163Y-123422419D02*
X185615163Y-122898609D01*
X185615163Y-122898609D02*
X185662782Y-122803371D01*
X185662782Y-122803371D02*
X185758020Y-122755752D01*
X185758020Y-122755752D02*
X185948496Y-122755752D01*
X185948496Y-122755752D02*
X186043734Y-122803371D01*
X185615163Y-123374800D02*
X185710401Y-123422419D01*
X185710401Y-123422419D02*
X185948496Y-123422419D01*
X185948496Y-123422419D02*
X186043734Y-123374800D01*
X186043734Y-123374800D02*
X186091353Y-123279561D01*
X186091353Y-123279561D02*
X186091353Y-123184323D01*
X186091353Y-123184323D02*
X186043734Y-123089085D01*
X186043734Y-123089085D02*
X185948496Y-123041466D01*
X185948496Y-123041466D02*
X185710401Y-123041466D01*
X185710401Y-123041466D02*
X185615163Y-122993847D01*
X185234210Y-122755752D02*
X184996115Y-123422419D01*
X184758020Y-122755752D02*
X184996115Y-123422419D01*
X184996115Y-123422419D02*
X185091353Y-123660514D01*
X185091353Y-123660514D02*
X185138972Y-123708133D01*
X185138972Y-123708133D02*
X185234210Y-123755752D01*
X184472305Y-122422419D02*
X184234210Y-123422419D01*
X184234210Y-123422419D02*
X184043734Y-122708133D01*
X184043734Y-122708133D02*
X183853258Y-123422419D01*
X183853258Y-123422419D02*
X183615163Y-122422419D01*
X182805639Y-123422419D02*
X182805639Y-122898609D01*
X182805639Y-122898609D02*
X182853258Y-122803371D01*
X182853258Y-122803371D02*
X182948496Y-122755752D01*
X182948496Y-122755752D02*
X183138972Y-122755752D01*
X183138972Y-122755752D02*
X183234210Y-122803371D01*
X182805639Y-123374800D02*
X182900877Y-123422419D01*
X182900877Y-123422419D02*
X183138972Y-123422419D01*
X183138972Y-123422419D02*
X183234210Y-123374800D01*
X183234210Y-123374800D02*
X183281829Y-123279561D01*
X183281829Y-123279561D02*
X183281829Y-123184323D01*
X183281829Y-123184323D02*
X183234210Y-123089085D01*
X183234210Y-123089085D02*
X183138972Y-123041466D01*
X183138972Y-123041466D02*
X182900877Y-123041466D01*
X182900877Y-123041466D02*
X182805639Y-122993847D01*
X182424686Y-122755752D02*
X182186591Y-123422419D01*
X181948496Y-122755752D02*
X182186591Y-123422419D01*
X182186591Y-123422419D02*
X182281829Y-123660514D01*
X182281829Y-123660514D02*
X182329448Y-123708133D01*
X182329448Y-123708133D02*
X182424686Y-123755752D01*
M02*
