M48
; DRILL file {KiCad 8.0.4} date 2025-01-10T17:55:42-0500
; FORMAT={-:-/ absolute / metric / decimal}
; #@! TF.CreationDate,2025-01-10T17:55:42-05:00
; #@! TF.GenerationSoftware,Kicad,Pcbnew,8.0.4
; #@! TF.FileFunction,MixedPlating,1,2
FMAT,2
METRIC
; #@! TA.AperFunction,Plated,PTH,ViaDrill
T1C0.300
; #@! TA.AperFunction,Plated,PTH,ComponentDrill
T2C0.650
; #@! TA.AperFunction,Plated,PTH,ComponentDrill
T3C0.750
; #@! TA.AperFunction,Plated,PTH,ComponentDrill
T4C1.000
; #@! TA.AperFunction,Plated,PTH,ComponentDrill
T5C1.900
; #@! TA.AperFunction,NonPlated,NPTH,ComponentDrill
T6C3.200
%
G90
G05
T1
X140.799Y-104.099
X141.401Y-104.701
X142.8Y-100.8
X143.6Y-113.0
X144.8Y-102.925
X144.8Y-103.775
X147.6Y-115.4
X148.7Y-105.6
X148.7Y-116.5
X153.0Y-132.0
X153.0Y-134.0
X153.0Y-136.0
X153.3Y-114.4
X153.4Y-109.9
X155.0Y-121.8
X155.0Y-132.0
X155.0Y-134.0
X155.0Y-136.0
X156.0Y-119.4
X156.4Y-116.1
X157.0Y-132.0
X157.0Y-134.0
X157.0Y-136.0
X160.2Y-102.0
X161.2Y-122.0
X162.6Y-97.9
X162.6Y-102.075
X163.9Y-109.7
X164.4Y-102.725
X165.0Y-105.475
X165.2Y-137.8
X166.0Y-120.4
X166.8Y-116.6
X168.5Y-136.0
X169.5Y-136.0
X170.5Y-136.0
X171.0Y-141.0
X171.0Y-142.0
X171.0Y-143.0
X171.5Y-136.0
X172.0Y-142.0
X172.0Y-143.0
X173.0Y-106.4
X173.0Y-108.4
X176.1Y-120.4
X176.5Y-138.2
X176.53Y-114.825
X177.4Y-114.8
X177.5Y-138.2
X177.8Y-108.2
X178.03Y-116.37
X178.5Y-138.2
X178.901Y-116.325
X179.0Y-108.2
X179.2Y-111.4
X179.5Y-138.2
X179.6Y-114.45
X180.181Y-111.7
X180.2Y-109.4
X180.2Y-110.8
X180.2Y-130.455
X181.0Y-105.8
X181.181Y-117.619
X182.0Y-129.855
X182.14Y-117.66
X182.8Y-114.5
X183.0Y-113.6
X183.575Y-105.175
X183.8Y-129.855
X184.0Y-113.4
X184.6Y-108.8
X184.6Y-109.6
X184.6Y-110.4
X185.2Y-124.8
X185.5Y-114.1
X185.6Y-108.8
X185.6Y-109.6
X185.6Y-110.4
X185.6Y-111.2
X185.8Y-113.0
X186.3Y-120.9
X186.4Y-114.1
X186.5Y-114.9
X187.125Y-102.725
X187.2Y-105.0
X187.6Y-105.8
X188.0Y-126.4
X188.6Y-130.6
X188.75Y-121.25
X188.9Y-119.9
X188.942Y-117.379
X189.175Y-108.775
X189.175Y-111.975
X189.313Y-127.642
X189.45Y-104.9
X189.582Y-116.75
X189.83Y-128.12
X189.95Y-110.15
X190.0Y-138.35
X190.1Y-104.9
X190.142Y-116.179
X190.2Y-125.0
X190.49Y-110.81
X190.75Y-104.9
X190.927Y-116.023
X190.975Y-108.775
X191.0Y-112.001
X191.0Y-103.8
X191.0Y-126.1
X191.3Y-122.0
X191.4Y-102.0
X192.0Y-114.7
X192.03Y-119.92
X192.2Y-98.4
X192.2Y-99.8
X192.2Y-100.6
X192.3Y-115.3
X192.575Y-105.8
X192.8Y-114.7
X193.0Y-132.45
X193.1Y-115.3
X193.2Y-129.8
X193.29Y-133.4
X193.644Y-114.801
X193.9Y-118.3
X194.09Y-123.61
X194.119Y-113.45
X194.4Y-108.8
X194.4Y-109.6
X194.4Y-110.4
X194.4Y-111.2
X194.4Y-117.611
X194.478Y-116.311
X195.1Y-122.7
X195.1Y-127.5
X195.2Y-116.9
X195.514Y-131.837
X195.6Y-103.6
X195.75Y-113.5
X195.9Y-118.261
X195.913Y-133.913
X196.3Y-125.3
X196.3Y-126.4
X196.4Y-127.637
X196.5Y-135.8
X196.6Y-108.8
X196.6Y-109.6
X196.6Y-110.4
X196.6Y-111.2
X196.6Y-112.0
X196.8Y-115.6
X197.2Y-134.8
X197.23Y-118.48
X197.5Y-132.0
X197.7Y-122.9
X197.8Y-104.2
X197.881Y-117.219
X198.72Y-134.4
X198.75Y-116.25
X199.4Y-126.4
X199.7Y-123.6
X199.8Y-112.4
X199.965Y-117.685
X200.0Y-110.075
X200.0Y-116.2
X200.0Y-132.5
X200.785Y-130.715
X200.791Y-129.993
X201.0Y-117.8
X201.1Y-114.175
X201.4Y-112.4
X201.4Y-133.6
X201.7Y-121.9
X202.2Y-112.4
X202.4Y-116.2
X202.645Y-109.105
X202.8Y-108.2
X203.2Y-116.2
X203.4Y-107.6
X203.4Y-112.2
X203.65Y-123.6
X204.15Y-109.9
X204.2Y-100.1
X204.2Y-115.025
X204.674Y-130.526
X205.74Y-127.46
X206.0Y-108.8
X206.6Y-110.0
X207.193Y-108.079
X208.85Y-136.3
X208.855Y-127.725
X208.9Y-109.5
X209.7Y-122.8
X210.2Y-106.5
X210.29Y-134.91
X212.29Y-134.91
T2
X182.56Y-133.755
X182.56Y-135.025
X183.83Y-133.755
X183.83Y-135.025
X185.1Y-133.755
X185.1Y-135.025
X186.37Y-133.755
X186.37Y-135.025
X187.64Y-133.755
X187.64Y-135.025
T3
X182.0Y-141.05
X184.0Y-141.05
X186.0Y-141.05
X188.0Y-141.05
X190.0Y-141.05
X192.0Y-141.05
X194.0Y-141.05
X199.5Y-141.05
X201.5Y-141.05
X203.5Y-141.05
X205.5Y-141.05
X207.5Y-141.05
X209.5Y-141.05
X211.5Y-141.05
X216.8Y-124.3
X216.8Y-126.3
X216.8Y-128.3
X216.8Y-130.3
X216.8Y-132.3
X216.8Y-134.3
X216.8Y-136.3
T4
X138.0Y-119.0
X138.0Y-130.0
X138.0Y-134.35
X138.0Y-145.35
X147.5Y-85.513
X158.5Y-85.513
X162.85Y-85.513
X173.85Y-85.513
X178.2Y-85.513
X189.2Y-85.513
X193.6Y-85.438
X202.735Y-136.2
X204.6Y-85.438
X205.275Y-136.2
X210.425Y-124.4
X212.965Y-124.4
X219.9Y-94.0
X219.9Y-105.0
X219.925Y-108.9
X219.925Y-119.9
T5
X148.0Y-122.0
X148.0Y-127.0
X148.0Y-137.35
X148.0Y-142.35
X150.5Y-95.512
X155.5Y-95.512
X165.85Y-95.512
X170.85Y-95.512
X181.2Y-95.512
X186.2Y-95.512
X196.6Y-95.438
X201.6Y-95.438
X209.9Y-97.0
X209.9Y-102.0
X209.925Y-111.9
X209.925Y-116.9
T6
X140.0Y-87.527
X154.6Y-143.4
X218.0Y-87.5
X218.0Y-142.5
M30
