%TF.GenerationSoftware,KiCad,Pcbnew,8.0.4*%
%TF.CreationDate,2025-01-10T17:56:01-05:00*%
%TF.ProjectId,V1.0,56312e30-2e6b-4696-9361-645f70636258,rev?*%
%TF.SameCoordinates,Original*%
%TF.FileFunction,Copper,L2,Bot*%
%TF.FilePolarity,Positive*%
%FSLAX46Y46*%
G04 Gerber Fmt 4.6, Leading zero omitted, Abs format (unit mm)*
G04 Created by KiCad (PCBNEW 8.0.4) date 2025-01-10 17:56:01*
%MOMM*%
%LPD*%
G01*
G04 APERTURE LIST*
G04 Aperture macros list*
%AMRoundRect*
0 Rectangle with rounded corners*
0 $1 Rounding radius*
0 $2 $3 $4 $5 $6 $7 $8 $9 X,Y pos of 4 corners*
0 Add a 4 corners polygon primitive as box body*
4,1,4,$2,$3,$4,$5,$6,$7,$8,$9,$2,$3,0*
0 Add four circle primitives for the rounded corners*
1,1,$1+$1,$2,$3*
1,1,$1+$1,$4,$5*
1,1,$1+$1,$6,$7*
1,1,$1+$1,$8,$9*
0 Add four rect primitives between the rounded corners*
20,1,$1+$1,$2,$3,$4,$5,0*
20,1,$1+$1,$4,$5,$6,$7,0*
20,1,$1+$1,$6,$7,$8,$9,0*
20,1,$1+$1,$8,$9,$2,$3,0*%
G04 Aperture macros list end*
%TA.AperFunction,ComponentPad*%
%ADD10C,1.400000*%
%TD*%
%TA.AperFunction,ComponentPad*%
%ADD11R,3.500000X3.500000*%
%TD*%
%TA.AperFunction,ComponentPad*%
%ADD12C,3.500000*%
%TD*%
%TA.AperFunction,ComponentPad*%
%ADD13RoundRect,0.250000X-0.350000X-0.625000X0.350000X-0.625000X0.350000X0.625000X-0.350000X0.625000X0*%
%TD*%
%TA.AperFunction,ComponentPad*%
%ADD14O,1.200000X1.750000*%
%TD*%
%TA.AperFunction,ComponentPad*%
%ADD15RoundRect,0.250000X0.625000X-0.350000X0.625000X0.350000X-0.625000X0.350000X-0.625000X-0.350000X0*%
%TD*%
%TA.AperFunction,ComponentPad*%
%ADD16O,1.750000X1.200000*%
%TD*%
%TA.AperFunction,ComponentPad*%
%ADD17R,1.700000X1.700000*%
%TD*%
%TA.AperFunction,ComponentPad*%
%ADD18O,1.700000X1.700000*%
%TD*%
%TA.AperFunction,ComponentPad*%
%ADD19R,1.000000X1.000000*%
%TD*%
%TA.AperFunction,ComponentPad*%
%ADD20O,1.000000X1.000000*%
%TD*%
%TA.AperFunction,SMDPad,CuDef*%
%ADD21C,1.000000*%
%TD*%
%TA.AperFunction,ViaPad*%
%ADD22C,0.600000*%
%TD*%
%TA.AperFunction,Conductor*%
%ADD23C,0.500000*%
%TD*%
%TA.AperFunction,Conductor*%
%ADD24C,0.300000*%
%TD*%
%TA.AperFunction,Conductor*%
%ADD25C,2.000000*%
%TD*%
%TA.AperFunction,Conductor*%
%ADD26C,0.200000*%
%TD*%
%TA.AperFunction,Conductor*%
%ADD27C,0.750000*%
%TD*%
G04 APERTURE END LIST*
D10*
%TO.P,J8,*%
%TO.N,*%
X147500000Y-85512500D03*
X158500000Y-85512500D03*
D11*
%TO.P,J8,1,Pin_1*%
%TO.N,M1_IN+*%
X155500000Y-95512500D03*
D12*
%TO.P,J8,2,Pin_2*%
%TO.N,M1_OUT*%
X150500000Y-95512500D03*
%TD*%
D10*
%TO.P,J7,*%
%TO.N,*%
X138000000Y-130000000D03*
X138000000Y-119000000D03*
D11*
%TO.P,J7,1,Pin_1*%
%TO.N,+BATT*%
X148000000Y-122000000D03*
D12*
%TO.P,J7,2,Pin_2*%
%TO.N,GND*%
X148000000Y-127000000D03*
%TD*%
D13*
%TO.P,J15,1,Pin_1*%
%TO.N,+3.3V*%
X199500000Y-141050000D03*
D14*
%TO.P,J15,2,Pin_2*%
%TO.N,GND*%
X201500000Y-141050000D03*
%TO.P,J15,3,Pin_3*%
%TO.N,SCL*%
X203500000Y-141050000D03*
%TO.P,J15,4,Pin_4*%
%TO.N,SDA*%
X205500000Y-141050000D03*
%TO.P,J15,5,Pin_5*%
%TO.N,RDY2*%
X207500000Y-141050000D03*
%TO.P,J15,6,Pin_6*%
%TO.N,PWM2*%
X209500000Y-141050000D03*
%TO.P,J15,7,Pin_7*%
%TO.N,GPIO2*%
X211500000Y-141050000D03*
%TD*%
D15*
%TO.P,J16,1,Pin_1*%
%TO.N,+3.3V*%
X216800000Y-136300000D03*
D16*
%TO.P,J16,2,Pin_2*%
%TO.N,GND*%
X216800000Y-134300000D03*
%TO.P,J16,3,Pin_3*%
%TO.N,SCL*%
X216800000Y-132300000D03*
%TO.P,J16,4,Pin_4*%
%TO.N,SDA*%
X216800000Y-130300000D03*
%TO.P,J16,5,Pin_5*%
%TO.N,RDY3*%
X216800000Y-128300000D03*
%TO.P,J16,6,Pin_6*%
%TO.N,PWM3*%
X216800000Y-126300000D03*
%TO.P,J16,7,Pin_7*%
%TO.N,GPIO3*%
X216800000Y-124300000D03*
%TD*%
D10*
%TO.P,J13,*%
%TO.N,*%
X219900000Y-94000000D03*
X219900000Y-105000000D03*
D11*
%TO.P,J13,1,Pin_1*%
%TO.N,M5_IN+*%
X209900000Y-102000000D03*
D12*
%TO.P,J13,2,Pin_2*%
%TO.N,M5_OUT*%
X209900000Y-97000000D03*
%TD*%
D10*
%TO.P,J9,*%
%TO.N,*%
X162850000Y-85512500D03*
X173850000Y-85512500D03*
D11*
%TO.P,J9,1,Pin_1*%
%TO.N,M2_IN+*%
X170850000Y-95512500D03*
D12*
%TO.P,J9,2,Pin_2*%
%TO.N,M2_OUT*%
X165850000Y-95512500D03*
%TD*%
D10*
%TO.P,J6,*%
%TO.N,*%
X138000000Y-145350000D03*
X138000000Y-134350000D03*
D11*
%TO.P,J6,1,Pin_1*%
%TO.N,+BATT*%
X148000000Y-137350000D03*
D12*
%TO.P,J6,2,Pin_2*%
%TO.N,GND*%
X148000000Y-142350000D03*
%TD*%
D13*
%TO.P,J14,1,Pin_1*%
%TO.N,+3.3V*%
X182000000Y-141050000D03*
D14*
%TO.P,J14,2,Pin_2*%
%TO.N,GND*%
X184000000Y-141050000D03*
%TO.P,J14,3,Pin_3*%
%TO.N,SCL*%
X186000000Y-141050000D03*
%TO.P,J14,4,Pin_4*%
%TO.N,SDA*%
X188000000Y-141050000D03*
%TO.P,J14,5,Pin_5*%
%TO.N,RDY1*%
X190000000Y-141050000D03*
%TO.P,J14,6,Pin_6*%
%TO.N,PWM1*%
X192000000Y-141050000D03*
%TO.P,J14,7,Pin_7*%
%TO.N,GPIO1*%
X194000000Y-141050000D03*
%TD*%
D10*
%TO.P,J11,*%
%TO.N,*%
X219925000Y-108900000D03*
X219925000Y-119900000D03*
D11*
%TO.P,J11,1,Pin_1*%
%TO.N,M6_IN+*%
X209925000Y-116900000D03*
D12*
%TO.P,J11,2,Pin_2*%
%TO.N,M6_OUT*%
X209925000Y-111900000D03*
%TD*%
D10*
%TO.P,J10,*%
%TO.N,*%
X178200000Y-85512500D03*
X189200000Y-85512500D03*
D11*
%TO.P,J10,1,Pin_1*%
%TO.N,M3_IN+*%
X186200000Y-95512500D03*
D12*
%TO.P,J10,2,Pin_2*%
%TO.N,M3_OUT*%
X181200000Y-95512500D03*
%TD*%
D17*
%TO.P,J2,1,Pin_1*%
%TO.N,+3.3V*%
X205275000Y-136200000D03*
D18*
%TO.P,J2,2,Pin_2*%
%TO.N,/MCU/BOOT0*%
X202735000Y-136200000D03*
%TD*%
D17*
%TO.P,J1,1,Pin_1*%
%TO.N,NREST*%
X210425000Y-124400000D03*
D18*
%TO.P,J1,2,Pin_2*%
%TO.N,GND*%
X212965000Y-124400000D03*
%TD*%
D19*
%TO.P,J3,1,VTref*%
%TO.N,+3.3V*%
X182560000Y-135025000D03*
D20*
%TO.P,J3,2,SWDIO/TMS*%
%TO.N,/MCU/SWDIO*%
X182560000Y-133755000D03*
%TO.P,J3,3,GND*%
%TO.N,GND*%
X183830000Y-135025000D03*
%TO.P,J3,4,SWCLK/TCK*%
%TO.N,/MCU/SWCLK*%
X183830000Y-133755000D03*
%TO.P,J3,5,GND*%
%TO.N,GND*%
X185100000Y-135025000D03*
%TO.P,J3,6,SWO/TDO*%
%TO.N,SWO*%
X185100000Y-133755000D03*
%TO.P,J3,7,KEY*%
%TO.N,unconnected-(J3-KEY-Pad7)*%
X186370000Y-135025000D03*
%TO.P,J3,8,NC/TDI*%
%TO.N,unconnected-(J3-NC{slash}TDI-Pad8)*%
X186370000Y-133755000D03*
%TO.P,J3,9,GNDDetect*%
%TO.N,GND*%
X187640000Y-135025000D03*
%TO.P,J3,10,~{RESET}*%
%TO.N,NREST*%
X187640000Y-133755000D03*
%TD*%
D10*
%TO.P,J12,*%
%TO.N,*%
X193600000Y-85437500D03*
X204600000Y-85437500D03*
D11*
%TO.P,J12,1,Pin_1*%
%TO.N,M4_IN+*%
X201600000Y-95437500D03*
D12*
%TO.P,J12,2,Pin_2*%
%TO.N,M4_OUT*%
X196600000Y-95437500D03*
%TD*%
D21*
%TO.P,TP8,1,1*%
%TO.N,SCLK*%
X200700000Y-119000000D03*
%TD*%
%TO.P,TP12,1,1*%
%TO.N,CS2*%
X197700000Y-121400000D03*
%TD*%
D22*
%TO.N,GND*%
X184600000Y-108800000D03*
X183800000Y-129855000D03*
X197230000Y-118480000D03*
X171000000Y-143000000D03*
X192000000Y-114700000D03*
X148700000Y-105600000D03*
X194400000Y-110400000D03*
X185600000Y-110400000D03*
X196600000Y-108800000D03*
X185500000Y-114100000D03*
X201400000Y-133600000D03*
X155000000Y-136000000D03*
X193643990Y-114801187D03*
X201400000Y-112400001D03*
X143600000Y-113000000D03*
X172000000Y-142000000D03*
X153000000Y-132000000D03*
X157000000Y-134000000D03*
X180200000Y-130455000D03*
X201100000Y-114175001D03*
X155000000Y-134000000D03*
X177500000Y-138200000D03*
X187200000Y-105000000D03*
X193100000Y-115300000D03*
X171000000Y-142000000D03*
X189313362Y-127641770D03*
X176500000Y-138200000D03*
X200791157Y-129993140D03*
X196600000Y-110400000D03*
X153400000Y-109900000D03*
X148700000Y-116500000D03*
X196600000Y-109600000D03*
X202200000Y-112400001D03*
X187600000Y-105800000D03*
X210290000Y-134910000D03*
X184600000Y-110400000D03*
X153000000Y-134000000D03*
X185600000Y-109600000D03*
X192300000Y-115300000D03*
X184600000Y-109600000D03*
X178500000Y-138200000D03*
X194400000Y-109600000D03*
X190100000Y-104900000D03*
X192800000Y-114700000D03*
X179500000Y-138200000D03*
X189830000Y-128120000D03*
X169500000Y-136000000D03*
X157000000Y-132000000D03*
X153000000Y-136000000D03*
X185600000Y-111200000D03*
X196600000Y-111200000D03*
X163900000Y-109700000D03*
X170500000Y-136000000D03*
X186500000Y-114900000D03*
X157000000Y-136000000D03*
X192575001Y-105800000D03*
X189450000Y-104900000D03*
X195900000Y-118260867D03*
X194400000Y-111200000D03*
X162600000Y-97900000D03*
X179000000Y-108200000D03*
X192200000Y-98400000D03*
X200784620Y-130715380D03*
X155000000Y-121800000D03*
X156400000Y-116100000D03*
X171500000Y-136000000D03*
X212290000Y-134910000D03*
X172000000Y-143000000D03*
X190750000Y-104900000D03*
X142800000Y-100800000D03*
X196600000Y-112000000D03*
X185600000Y-108800000D03*
X206600000Y-110000000D03*
X166800000Y-116600000D03*
X200000000Y-132500000D03*
X155000000Y-132000000D03*
X168500000Y-136000000D03*
X181000000Y-105800000D03*
X194400000Y-108800000D03*
X182000000Y-129855000D03*
X186400000Y-114100000D03*
X177800000Y-108200000D03*
X208855380Y-127725380D03*
X192030000Y-119920000D03*
X171000000Y-141000000D03*
%TO.N,+3.3V*%
X197800000Y-104200000D03*
X179200000Y-111400000D03*
X179600000Y-114450001D03*
X188750000Y-121250000D03*
X173000000Y-108400000D03*
X191000000Y-103800000D03*
X193290000Y-133400000D03*
X197200000Y-134800000D03*
X202800000Y-108200000D03*
X208850000Y-136300000D03*
X185200000Y-124800000D03*
%TO.N,NREST*%
X188600000Y-130600000D03*
X193200000Y-129800000D03*
X196300000Y-125300000D03*
%TO.N,+12V*%
X190999741Y-112000926D03*
X166000000Y-120400000D03*
X176100000Y-120400000D03*
X190975001Y-108775001D03*
X189175001Y-111975001D03*
X189175001Y-108775001D03*
%TO.N,SWO*%
X195514452Y-131837269D03*
X193000000Y-132450000D03*
%TO.N,CAN-*%
X140799479Y-104099479D03*
X144800000Y-102925000D03*
%TO.N,CAN+*%
X141400521Y-104700521D03*
X144800000Y-103775000D03*
%TO.N,NFAULT1*%
X194090380Y-123609620D03*
X191300000Y-122000000D03*
%TO.N,NFAULT2*%
X201700000Y-121900000D03*
X210200000Y-106500000D03*
X204200000Y-100100000D03*
X209700000Y-122800000D03*
%TO.N,M4_IN*%
X194118622Y-113450000D03*
X195600000Y-103600000D03*
%TO.N,SCLK*%
X201000000Y-117800000D03*
X196800000Y-115600000D03*
X195750000Y-113500000D03*
X189950000Y-110150000D03*
%TO.N,MOSI*%
X199800000Y-112400000D03*
X190142402Y-116178920D03*
X184000000Y-113400000D03*
X194477867Y-116310867D03*
X180200000Y-109400000D03*
X198750000Y-116250000D03*
%TO.N,FDCAN_RX*%
X182140380Y-117659620D03*
X153300000Y-114400000D03*
%TO.N,MISO*%
X197880761Y-117219239D03*
X183000000Y-113600000D03*
X199965380Y-117684620D03*
X200000000Y-116200000D03*
X180200000Y-110800000D03*
X200000000Y-110075000D03*
X195200000Y-116900000D03*
X189582160Y-116750000D03*
%TO.N,FDCAN_TX*%
X147600000Y-115400000D03*
X181180761Y-117619239D03*
%TO.N,NSLEEP1*%
X180180782Y-111700021D03*
X182800000Y-114500000D03*
X188942002Y-117379319D03*
X194400000Y-117610867D03*
%TO.N,CS1*%
X190490380Y-110809620D03*
X190927136Y-116023368D03*
X195100000Y-122700000D03*
X188900000Y-119900000D03*
%TO.N,M3_OUT*%
X185800000Y-113000000D03*
X183575001Y-105175001D03*
%TO.N,CS2*%
X197700000Y-122900000D03*
X193900000Y-118300000D03*
%TO.N,NSLEEP2*%
X208900000Y-109500000D03*
X203650000Y-123600000D03*
X202644669Y-109105331D03*
X199700000Y-123600000D03*
%TO.N,M6_OUT*%
X204200000Y-115025000D03*
%TO.N,CSA1*%
X160200000Y-102000000D03*
X176530331Y-114825001D03*
X165000000Y-105475000D03*
X178030331Y-116369669D03*
%TO.N,+2.8V*%
X164400000Y-102725000D03*
X191400000Y-102000000D03*
X203400000Y-107600000D03*
X187125000Y-102725000D03*
%TO.N,CSA2*%
X178900823Y-116325001D03*
X177400000Y-114800000D03*
X162600000Y-102075000D03*
X173000000Y-106400000D03*
%TO.N,TEMP*%
X156000000Y-119400000D03*
X186300000Y-120900000D03*
%TO.N,/Power/PGATE*%
X161200000Y-122000000D03*
X165200000Y-137800000D03*
%TO.N,RDY1*%
X190000000Y-138350000D03*
%TO.N,PWM1*%
X191000000Y-126100000D03*
%TO.N,GPIO1*%
X197500000Y-132000000D03*
X196500000Y-135800000D03*
%TO.N,RDY2*%
X195913173Y-133913173D03*
X198720000Y-134400000D03*
%TO.N,PWM2*%
X196400000Y-127637500D03*
X204674264Y-130525736D03*
%TO.N,CSA4*%
X192200000Y-100600000D03*
X206000000Y-108800000D03*
%TO.N,CSA3*%
X207193145Y-108078685D03*
X192200000Y-99800000D03*
%TO.N,CSA6*%
X202400000Y-116200000D03*
X203400000Y-112200000D03*
%TO.N,CSA5*%
X204150000Y-109900000D03*
X203200000Y-116200000D03*
%TO.N,PWM3*%
X205740380Y-127459620D03*
X199400000Y-126400000D03*
X196300000Y-126400000D03*
X195100000Y-127500000D03*
%TO.N,/MCU/LED3*%
X190200000Y-125000000D03*
X188000000Y-126400000D03*
%TD*%
D23*
%TO.N,+3.3V*%
X179600000Y-114450001D02*
X179200000Y-114050001D01*
X196775000Y-102175000D02*
X198300000Y-103700000D01*
X185200000Y-124800000D02*
X188750000Y-121250000D01*
D24*
X197800000Y-104200000D02*
X198300000Y-103700000D01*
D23*
X173000000Y-108400000D02*
X177600000Y-103800000D01*
X216800000Y-136300000D02*
X208850000Y-136300000D01*
X191000000Y-103800000D02*
X192625000Y-102175000D01*
X177600000Y-103800000D02*
X191000000Y-103800000D01*
X179200000Y-114050001D02*
X179200000Y-111400000D01*
X198300000Y-103700000D02*
X202800000Y-108200000D01*
X194690000Y-134800000D02*
X197200000Y-134800000D01*
X193290000Y-133400000D02*
X194690000Y-134800000D01*
X192625000Y-102175000D02*
X196775000Y-102175000D01*
D24*
%TO.N,NREST*%
X188600000Y-130600000D02*
X187640000Y-131560000D01*
X196300000Y-125300000D02*
X193200000Y-128400000D01*
X187640000Y-131560000D02*
X187640000Y-133755000D01*
X193200000Y-128400000D02*
X193200000Y-129800000D01*
D25*
%TO.N,+12V*%
X189200000Y-112000000D02*
X189200000Y-115000000D01*
D23*
X189200000Y-112000000D02*
X189175001Y-111975001D01*
D25*
X183800000Y-120400000D02*
X176100000Y-120400000D01*
X189200000Y-115000000D02*
X183800000Y-120400000D01*
D23*
X166000000Y-120400000D02*
X176100000Y-120400000D01*
D24*
%TO.N,SWO*%
X194901721Y-132450000D02*
X193000000Y-132450000D01*
X195514452Y-131837269D02*
X194901721Y-132450000D01*
D26*
%TO.N,CAN-*%
X144600001Y-103124999D02*
X142056802Y-103124999D01*
X142056802Y-103124999D02*
X141082322Y-104099479D01*
X141082322Y-104099479D02*
X140799479Y-104099479D01*
X144800000Y-102925000D02*
X144600001Y-103124999D01*
%TO.N,CAN+*%
X144600001Y-103575001D02*
X142243198Y-103575001D01*
X144800000Y-103775000D02*
X144600001Y-103575001D01*
X142243198Y-103575001D02*
X141400521Y-104417678D01*
X141400521Y-104417678D02*
X141400521Y-104700521D01*
D24*
%TO.N,NFAULT1*%
X191300000Y-122000000D02*
X192480760Y-122000000D01*
X192480760Y-122000000D02*
X194090380Y-123609620D01*
%TO.N,NFAULT2*%
X202600000Y-122800000D02*
X201700000Y-121900000D01*
X209700000Y-122800000D02*
X202600000Y-122800000D01*
X204200000Y-100500000D02*
X210200000Y-106500000D01*
X204200000Y-100100000D02*
X204200000Y-100500000D01*
D27*
%TO.N,M4_IN*%
X195600000Y-103600000D02*
X195600000Y-111968622D01*
X195600000Y-111968622D02*
X194118622Y-113450000D01*
D24*
%TO.N,SCLK*%
X194418926Y-114175000D02*
X195093926Y-113500000D01*
X192800000Y-111200000D02*
X192800000Y-113156682D01*
X196800000Y-115600000D02*
X197600000Y-115600000D01*
X200700000Y-118100000D02*
X200700000Y-119000000D01*
X197600000Y-115600000D02*
X198100000Y-116100000D01*
X198100000Y-116100000D02*
X198100000Y-116519239D01*
X200100000Y-116900000D02*
X201000000Y-117800000D01*
X193818318Y-114175000D02*
X194418926Y-114175000D01*
X198480761Y-116900000D02*
X200100000Y-116900000D01*
X198100000Y-116519239D02*
X198480761Y-116900000D01*
X201000000Y-117800000D02*
X200700000Y-118100000D01*
X189950000Y-110150000D02*
X191750000Y-110150000D01*
X195093926Y-113500000D02*
X195750000Y-113500000D01*
X192800000Y-113156682D02*
X193818318Y-114175000D01*
X191750000Y-110150000D02*
X192800000Y-111200000D01*
%TO.N,MOSI*%
X184000000Y-113200000D02*
X184000000Y-113400000D01*
X193555680Y-116310867D02*
X194477867Y-116310867D01*
X190142402Y-116178920D02*
X190763482Y-116800000D01*
X193066547Y-116800000D02*
X193555680Y-116310867D01*
X199800000Y-112400000D02*
X198750000Y-113450000D01*
X190763482Y-116800000D02*
X193066547Y-116800000D01*
X198750000Y-113450000D02*
X198750000Y-116250000D01*
X180200000Y-109400000D02*
X184000000Y-113200000D01*
%TO.N,FDCAN_RX*%
X180911522Y-116969239D02*
X180480761Y-117400000D01*
X174800000Y-114400000D02*
X153300000Y-114400000D01*
X180480761Y-117400000D02*
X177800000Y-117400000D01*
X181449999Y-116969239D02*
X180911522Y-116969239D01*
X182140380Y-117659620D02*
X181449999Y-116969239D01*
X177800000Y-117400000D02*
X174800000Y-114400000D01*
%TO.N,MISO*%
X200000000Y-110075000D02*
X200100000Y-110175000D01*
X195139133Y-116960867D02*
X195200000Y-116900000D01*
X200100000Y-111380761D02*
X200450000Y-111730761D01*
X193612787Y-116960867D02*
X195139133Y-116960867D01*
X190132160Y-117300000D02*
X193273654Y-117300000D01*
X200450000Y-112669239D02*
X200000000Y-113119239D01*
X189582160Y-116750000D02*
X190132160Y-117300000D01*
X200450000Y-111730761D02*
X200450000Y-112669239D01*
X197880761Y-117219239D02*
X198092893Y-117219239D01*
X198558274Y-117684620D02*
X199965380Y-117684620D01*
X180200000Y-110800000D02*
X183000000Y-113600000D01*
X193273654Y-117300000D02*
X193612787Y-116960867D01*
X200000000Y-113119239D02*
X200000000Y-116200000D01*
X200100000Y-110175000D02*
X200100000Y-111380761D01*
X198092893Y-117219239D02*
X198558274Y-117684620D01*
%TO.N,FDCAN_TX*%
X174400000Y-115400000D02*
X147600000Y-115400000D01*
X180900000Y-117900000D02*
X176900000Y-117900000D01*
X176900000Y-117900000D02*
X174400000Y-115400000D01*
X181180761Y-117619239D02*
X180900000Y-117900000D01*
%TO.N,NSLEEP1*%
X189362683Y-117800000D02*
X188942002Y-117379319D01*
X194400000Y-117610867D02*
X193669894Y-117610867D01*
X193480761Y-117800000D02*
X189362683Y-117800000D01*
X193669894Y-117610867D02*
X193480761Y-117800000D01*
X180180782Y-111700021D02*
X180180782Y-111880782D01*
X180180782Y-111880782D02*
X182800000Y-114500000D01*
%TO.N,CS1*%
X192300000Y-112950259D02*
X190800000Y-114450259D01*
X190800000Y-115700000D02*
X190800000Y-115896232D01*
X193750000Y-121350000D02*
X195100000Y-122700000D01*
X190490380Y-110809620D02*
X191509620Y-110809620D01*
X189900000Y-119900000D02*
X191350000Y-121350000D01*
X190800000Y-115896232D02*
X190927136Y-116023368D01*
X191509620Y-110809620D02*
X192300000Y-111600000D01*
X190800000Y-114450259D02*
X190800000Y-115700000D01*
X191350000Y-121350000D02*
X193750000Y-121350000D01*
X192300000Y-111600000D02*
X192300000Y-112950259D01*
X188900000Y-119900000D02*
X189900000Y-119900000D01*
D27*
%TO.N,M3_OUT*%
X183575001Y-110775001D02*
X183575001Y-105175001D01*
X185800000Y-113000000D02*
X183575001Y-110775001D01*
D24*
%TO.N,CS2*%
X197700000Y-121479340D02*
X197700000Y-122900000D01*
X193900000Y-118300000D02*
X194520660Y-118300000D01*
X194520660Y-118300000D02*
X197700000Y-121479340D01*
%TO.N,NSLEEP2*%
X202644669Y-109105331D02*
X204274570Y-109105331D01*
X203365079Y-123884921D02*
X199984921Y-123884921D01*
X207400000Y-111000000D02*
X208900000Y-109500000D01*
X206169239Y-111000000D02*
X207400000Y-111000000D01*
X204274570Y-109105331D02*
X206169239Y-111000000D01*
X199984921Y-123884921D02*
X199700000Y-123600000D01*
X203650000Y-123600000D02*
X203365079Y-123884921D01*
D27*
%TO.N,M6_OUT*%
X204200000Y-115025000D02*
X206800000Y-115025000D01*
X206800000Y-115025000D02*
X209925000Y-111900000D01*
D24*
%TO.N,CSA1*%
X163675000Y-105475000D02*
X165000000Y-105475000D01*
X176530331Y-114869669D02*
X178030331Y-116369669D01*
X176530331Y-114825001D02*
X176530331Y-114869669D01*
X160200000Y-102000000D02*
X163675000Y-105475000D01*
%TO.N,+2.8V*%
X197200000Y-101400000D02*
X192000000Y-101400000D01*
X187125000Y-102725000D02*
X164400000Y-102725000D01*
X203400000Y-107600000D02*
X197200000Y-101400000D01*
X192000000Y-101400000D02*
X191400000Y-102000000D01*
%TO.N,CSA2*%
X162600000Y-103200000D02*
X164000000Y-104600000D01*
X164000000Y-104600000D02*
X171200000Y-104600000D01*
X171200000Y-104600000D02*
X173000000Y-106400000D01*
X177400000Y-114800000D02*
X178900823Y-116300823D01*
X178900823Y-116300823D02*
X178900823Y-116325001D01*
X162600000Y-102075000D02*
X162600000Y-103200000D01*
%TO.N,TEMP*%
X156200000Y-119600000D02*
X156000000Y-119400000D01*
X185400000Y-121800000D02*
X164800000Y-121800000D01*
X164800000Y-121800000D02*
X162600000Y-119600000D01*
X162600000Y-119600000D02*
X156200000Y-119600000D01*
X186300000Y-120900000D02*
X185400000Y-121800000D01*
D25*
%TO.N,/Power/PGATE*%
X161200000Y-128400000D02*
X165200000Y-132400000D01*
X165200000Y-132400000D02*
X165200000Y-137800000D01*
X161200000Y-122000000D02*
X161200000Y-128400000D01*
D24*
%TO.N,RDY1*%
X190000000Y-141050000D02*
X190000000Y-138350000D01*
%TO.N,PWM1*%
X191000000Y-138300000D02*
X192000000Y-139300000D01*
X191000000Y-126100000D02*
X191000000Y-138300000D01*
X192000000Y-139300000D02*
X192000000Y-141050000D01*
%TO.N,GPIO1*%
X196600000Y-135700000D02*
X198600000Y-135700000D01*
X198600000Y-135700000D02*
X199500000Y-134800000D01*
X199500000Y-134000000D02*
X197500000Y-132000000D01*
X196500000Y-135800000D02*
X196600000Y-135700000D01*
X199500000Y-134800000D02*
X199500000Y-134000000D01*
%TO.N,RDY2*%
X197528871Y-134150000D02*
X197778871Y-134400000D01*
X195913173Y-133913173D02*
X196150000Y-134150000D01*
X196150000Y-134150000D02*
X197528871Y-134150000D01*
X197778871Y-134400000D02*
X198720000Y-134400000D01*
%TO.N,PWM2*%
X197562500Y-128800000D02*
X196400000Y-127637500D01*
X204674264Y-130525736D02*
X202948528Y-128800000D01*
X202948528Y-128800000D02*
X197562500Y-128800000D01*
%TO.N,CSA4*%
X197800000Y-100600000D02*
X206000000Y-108800000D01*
X192200000Y-100600000D02*
X197800000Y-100600000D01*
%TO.N,CSA3*%
X192200000Y-99800000D02*
X198200000Y-99800000D01*
X198200000Y-99800000D02*
X206478685Y-108078685D01*
X206478685Y-108078685D02*
X207193145Y-108078685D01*
%TO.N,CSA6*%
X202400000Y-116080761D02*
X202400000Y-116200000D01*
X203400000Y-112892894D02*
X202700000Y-113592894D01*
X202700000Y-115780761D02*
X202400000Y-116080761D01*
X202700000Y-113592894D02*
X202700000Y-115780761D01*
X203400000Y-112200000D02*
X203400000Y-112892894D01*
%TO.N,CSA5*%
X203400000Y-113600000D02*
X203400000Y-116000000D01*
X204150000Y-112850000D02*
X203400000Y-113600000D01*
X204150000Y-109900000D02*
X204150000Y-112850000D01*
X203400000Y-116000000D02*
X203200000Y-116200000D01*
%TO.N,PWM3*%
X195200000Y-127500000D02*
X196300000Y-126400000D01*
X204680760Y-126400000D02*
X199400000Y-126400000D01*
X195100000Y-127500000D02*
X195200000Y-127500000D01*
X205740380Y-127459620D02*
X204680760Y-126400000D01*
%TO.N,/MCU/LED3*%
X188000000Y-126400000D02*
X188800000Y-126400000D01*
X188800000Y-126400000D02*
X190200000Y-125000000D01*
%TD*%
%TA.AperFunction,Conductor*%
%TO.N,+12V*%
G36*
X191518040Y-108394686D02*
G01*
X191563795Y-108447490D01*
X191575001Y-108499001D01*
X191575001Y-109575500D01*
X191555316Y-109642539D01*
X191502512Y-109688294D01*
X191451001Y-109699500D01*
X190391419Y-109699500D01*
X190324380Y-109679815D01*
X190315933Y-109673876D01*
X190252842Y-109625464D01*
X190106762Y-109564956D01*
X190106760Y-109564955D01*
X189950001Y-109544318D01*
X189949999Y-109544318D01*
X189793239Y-109564955D01*
X189793237Y-109564956D01*
X189647160Y-109625463D01*
X189521718Y-109721718D01*
X189425463Y-109847160D01*
X189364956Y-109993237D01*
X189364955Y-109993239D01*
X189344318Y-110149998D01*
X189344318Y-110150001D01*
X189364955Y-110306760D01*
X189364956Y-110306762D01*
X189425464Y-110452841D01*
X189521718Y-110578282D01*
X189647159Y-110674536D01*
X189793238Y-110735044D01*
X189793241Y-110735044D01*
X189797834Y-110736275D01*
X189857495Y-110772641D01*
X189888023Y-110835488D01*
X189888679Y-110839864D01*
X189899675Y-110923386D01*
X189905336Y-110966382D01*
X189965844Y-111112461D01*
X190062098Y-111237902D01*
X190187539Y-111334156D01*
X190333618Y-111394664D01*
X190411999Y-111404983D01*
X190490379Y-111415302D01*
X190490380Y-111415302D01*
X190490381Y-111415302D01*
X190542634Y-111408422D01*
X190647142Y-111394664D01*
X190793221Y-111334156D01*
X190856313Y-111285743D01*
X190921482Y-111260550D01*
X190931799Y-111260120D01*
X191271655Y-111260120D01*
X191338694Y-111279805D01*
X191359336Y-111296439D01*
X191538682Y-111475785D01*
X191572167Y-111537108D01*
X191575001Y-111563466D01*
X191575001Y-112451001D01*
X191555316Y-112518040D01*
X191502512Y-112563795D01*
X191451001Y-112575001D01*
X188699001Y-112575001D01*
X188631962Y-112555316D01*
X188586207Y-112502512D01*
X188575001Y-112451001D01*
X188575001Y-108499001D01*
X188594686Y-108431962D01*
X188647490Y-108386207D01*
X188699001Y-108375001D01*
X191451001Y-108375001D01*
X191518040Y-108394686D01*
G37*
%TD.AperFunction*%
%TD*%
%TA.AperFunction,Conductor*%
%TO.N,GND*%
G36*
X218002702Y-83028118D02*
G01*
X218015261Y-83028666D01*
X218384372Y-83044781D01*
X218395107Y-83045721D01*
X218771192Y-83095233D01*
X218781830Y-83097109D01*
X219152161Y-83179209D01*
X219162592Y-83182005D01*
X219524368Y-83296072D01*
X219534503Y-83299761D01*
X219884956Y-83444924D01*
X219894748Y-83449490D01*
X219899702Y-83452069D01*
X220231192Y-83624631D01*
X220240560Y-83630039D01*
X220560471Y-83833845D01*
X220569332Y-83840050D01*
X220870252Y-84070954D01*
X220878533Y-84077903D01*
X221158189Y-84334161D01*
X221165838Y-84341810D01*
X221422096Y-84621466D01*
X221429046Y-84629749D01*
X221483155Y-84700264D01*
X221659949Y-84930667D01*
X221666154Y-84939528D01*
X221869960Y-85259439D01*
X221875368Y-85268807D01*
X222050506Y-85605245D01*
X222055078Y-85615049D01*
X222200232Y-85965481D01*
X222203932Y-85975646D01*
X222317991Y-86337395D01*
X222320791Y-86347845D01*
X222402889Y-86718166D01*
X222404767Y-86728818D01*
X222454276Y-87104869D01*
X222455219Y-87115646D01*
X222471882Y-87497297D01*
X222472000Y-87502706D01*
X222472000Y-87573514D01*
X222472036Y-87574072D01*
X222499498Y-142497262D01*
X222499380Y-142502733D01*
X222482614Y-142886750D01*
X222481671Y-142897526D01*
X222431849Y-143275957D01*
X222429971Y-143286610D01*
X222347354Y-143659272D01*
X222344554Y-143669721D01*
X222229775Y-144033755D01*
X222226075Y-144043921D01*
X222080002Y-144396572D01*
X222075430Y-144406376D01*
X221899183Y-144744942D01*
X221893775Y-144754310D01*
X221688681Y-145076244D01*
X221682476Y-145085105D01*
X221450110Y-145387930D01*
X221443156Y-145396217D01*
X221185284Y-145677635D01*
X221177635Y-145685284D01*
X220896217Y-145943156D01*
X220887930Y-145950110D01*
X220585105Y-146182476D01*
X220576244Y-146188681D01*
X220254310Y-146393775D01*
X220244942Y-146399183D01*
X219906376Y-146575430D01*
X219896572Y-146580002D01*
X219543921Y-146726075D01*
X219533755Y-146729775D01*
X219169721Y-146844554D01*
X219159272Y-146847354D01*
X218786610Y-146929971D01*
X218775957Y-146931849D01*
X218397526Y-146981671D01*
X218386750Y-146982614D01*
X218002703Y-146999382D01*
X217997294Y-146999500D01*
X140002706Y-146999500D01*
X139997297Y-146999382D01*
X139613249Y-146982614D01*
X139602473Y-146981671D01*
X139224042Y-146931849D01*
X139213389Y-146929971D01*
X138840727Y-146847354D01*
X138830278Y-146844554D01*
X138466244Y-146729775D01*
X138456078Y-146726075D01*
X138410961Y-146707387D01*
X138356558Y-146663546D01*
X138334493Y-146597252D01*
X138351772Y-146529553D01*
X138402909Y-146481942D01*
X138413607Y-146477204D01*
X138537401Y-146429247D01*
X138726562Y-146312124D01*
X138890981Y-146162236D01*
X139025058Y-145984689D01*
X139124229Y-145785528D01*
X139185115Y-145571536D01*
X139205643Y-145350000D01*
X139185115Y-145128464D01*
X139124229Y-144914472D01*
X139065873Y-144797278D01*
X139025061Y-144715316D01*
X139025056Y-144715308D01*
X138890979Y-144537761D01*
X138726562Y-144387876D01*
X138726560Y-144387874D01*
X138537404Y-144270754D01*
X138537398Y-144270752D01*
X138329940Y-144190382D01*
X138111243Y-144149500D01*
X137888757Y-144149500D01*
X137670060Y-144190382D01*
X137538864Y-144241207D01*
X137462601Y-144270752D01*
X137462595Y-144270754D01*
X137273439Y-144387874D01*
X137273437Y-144387876D01*
X137109020Y-144537761D01*
X136974943Y-144715308D01*
X136974938Y-144715316D01*
X136875775Y-144914461D01*
X136875769Y-144914476D01*
X136814885Y-145128462D01*
X136814884Y-145128464D01*
X136794477Y-145348702D01*
X136768691Y-145413639D01*
X136711890Y-145454327D01*
X136642109Y-145457847D01*
X136581503Y-145423082D01*
X136579584Y-145421035D01*
X136572807Y-145413639D01*
X136556834Y-145396208D01*
X136549889Y-145387930D01*
X136317523Y-145085105D01*
X136311318Y-145076244D01*
X136106224Y-144754310D01*
X136100816Y-144744942D01*
X136085391Y-144715311D01*
X135924566Y-144406369D01*
X135919997Y-144396572D01*
X135916395Y-144387876D01*
X135773920Y-144043911D01*
X135770224Y-144033755D01*
X135758757Y-143997386D01*
X135655442Y-143669710D01*
X135652648Y-143659284D01*
X135570025Y-143286597D01*
X135568590Y-143278456D01*
X152745500Y-143278456D01*
X152745500Y-143521543D01*
X152745501Y-143521559D01*
X152777230Y-143762569D01*
X152840149Y-143997386D01*
X152933175Y-144221972D01*
X152933182Y-144221987D01*
X153054730Y-144432516D01*
X153202722Y-144625380D01*
X153202730Y-144625389D01*
X153374611Y-144797270D01*
X153374619Y-144797277D01*
X153567483Y-144945269D01*
X153778012Y-145066817D01*
X153778027Y-145066824D01*
X153822162Y-145085105D01*
X154002612Y-145159850D01*
X154237429Y-145222769D01*
X154478450Y-145254500D01*
X154478457Y-145254500D01*
X154721543Y-145254500D01*
X154721550Y-145254500D01*
X154962571Y-145222769D01*
X155197388Y-145159850D01*
X155421984Y-145066819D01*
X155632516Y-144945269D01*
X155825380Y-144797278D01*
X155825384Y-144797273D01*
X155825389Y-144797270D01*
X155997270Y-144625389D01*
X155997273Y-144625384D01*
X155997278Y-144625380D01*
X156145269Y-144432516D01*
X156266819Y-144221984D01*
X156359850Y-143997388D01*
X156422769Y-143762571D01*
X156454500Y-143521550D01*
X156454500Y-143278450D01*
X156422769Y-143037429D01*
X156359850Y-142802612D01*
X156284855Y-142621559D01*
X156266824Y-142578027D01*
X156266817Y-142578012D01*
X156145269Y-142367483D01*
X155997277Y-142174619D01*
X155997270Y-142174611D01*
X155825389Y-142002730D01*
X155825380Y-142002722D01*
X155632516Y-141854730D01*
X155421987Y-141733182D01*
X155421972Y-141733175D01*
X155197386Y-141640149D01*
X154962569Y-141577230D01*
X154721559Y-141545501D01*
X154721556Y-141545500D01*
X154721550Y-141545500D01*
X154478450Y-141545500D01*
X154478444Y-141545500D01*
X154478440Y-141545501D01*
X154237430Y-141577230D01*
X154002613Y-141640149D01*
X153778027Y-141733175D01*
X153778012Y-141733182D01*
X153567483Y-141854730D01*
X153374619Y-142002722D01*
X153202722Y-142174619D01*
X153054730Y-142367483D01*
X152933182Y-142578012D01*
X152933175Y-142578027D01*
X152840149Y-142802613D01*
X152777230Y-143037430D01*
X152745501Y-143278440D01*
X152745500Y-143278456D01*
X135568590Y-143278456D01*
X135568152Y-143275971D01*
X135518326Y-142897506D01*
X135517386Y-142886771D01*
X135500618Y-142502702D01*
X135500500Y-142497293D01*
X135500500Y-140374983D01*
X180899500Y-140374983D01*
X180899500Y-141725001D01*
X180899501Y-141725018D01*
X180910000Y-141827796D01*
X180910001Y-141827799D01*
X180965185Y-141994331D01*
X180965187Y-141994336D01*
X180994542Y-142041928D01*
X181057288Y-142143656D01*
X181181344Y-142267712D01*
X181330666Y-142359814D01*
X181497203Y-142414999D01*
X181599991Y-142425500D01*
X182400008Y-142425499D01*
X182400016Y-142425498D01*
X182400019Y-142425498D01*
X182456302Y-142419748D01*
X182502797Y-142414999D01*
X182669334Y-142359814D01*
X182818656Y-142267712D01*
X182942712Y-142143656D01*
X183034814Y-141994334D01*
X183089999Y-141827797D01*
X183100500Y-141725009D01*
X183100499Y-140688389D01*
X184899500Y-140688389D01*
X184899500Y-141411610D01*
X184925731Y-141577231D01*
X184926598Y-141582701D01*
X184980127Y-141747445D01*
X185058768Y-141901788D01*
X185160586Y-142041928D01*
X185283072Y-142164414D01*
X185423212Y-142266232D01*
X185577555Y-142344873D01*
X185742299Y-142398402D01*
X185913389Y-142425500D01*
X185913390Y-142425500D01*
X186086610Y-142425500D01*
X186086611Y-142425500D01*
X186257701Y-142398402D01*
X186422445Y-142344873D01*
X186576788Y-142266232D01*
X186716928Y-142164414D01*
X186839414Y-142041928D01*
X186899682Y-141958975D01*
X186955012Y-141916311D01*
X187024626Y-141910332D01*
X187086421Y-141942938D01*
X187100315Y-141958973D01*
X187160586Y-142041928D01*
X187283072Y-142164414D01*
X187423212Y-142266232D01*
X187577555Y-142344873D01*
X187742299Y-142398402D01*
X187913389Y-142425500D01*
X187913390Y-142425500D01*
X188086610Y-142425500D01*
X188086611Y-142425500D01*
X188257701Y-142398402D01*
X188422445Y-142344873D01*
X188576788Y-142266232D01*
X188716928Y-142164414D01*
X188839414Y-142041928D01*
X188899682Y-141958975D01*
X188955012Y-141916311D01*
X189024626Y-141910332D01*
X189086421Y-141942938D01*
X189100315Y-141958973D01*
X189160586Y-142041928D01*
X189283072Y-142164414D01*
X189423212Y-142266232D01*
X189577555Y-142344873D01*
X189742299Y-142398402D01*
X189913389Y-142425500D01*
X189913390Y-142425500D01*
X190086610Y-142425500D01*
X190086611Y-142425500D01*
X190257701Y-142398402D01*
X190422445Y-142344873D01*
X190576788Y-142266232D01*
X190716928Y-142164414D01*
X190839414Y-142041928D01*
X190899682Y-141958975D01*
X190955012Y-141916311D01*
X191024626Y-141910332D01*
X191086421Y-141942938D01*
X191100315Y-141958973D01*
X191160586Y-142041928D01*
X191283072Y-142164414D01*
X191423212Y-142266232D01*
X191577555Y-142344873D01*
X191742299Y-142398402D01*
X191913389Y-142425500D01*
X191913390Y-142425500D01*
X192086610Y-142425500D01*
X192086611Y-142425500D01*
X192257701Y-142398402D01*
X192422445Y-142344873D01*
X192576788Y-142266232D01*
X192716928Y-142164414D01*
X192839414Y-142041928D01*
X192899682Y-141958975D01*
X192955012Y-141916311D01*
X193024626Y-141910332D01*
X193086421Y-141942938D01*
X193100315Y-141958973D01*
X193160586Y-142041928D01*
X193283072Y-142164414D01*
X193423212Y-142266232D01*
X193577555Y-142344873D01*
X193742299Y-142398402D01*
X193913389Y-142425500D01*
X193913390Y-142425500D01*
X194086610Y-142425500D01*
X194086611Y-142425500D01*
X194257701Y-142398402D01*
X194422445Y-142344873D01*
X194576788Y-142266232D01*
X194716928Y-142164414D01*
X194839414Y-142041928D01*
X194941232Y-141901788D01*
X195019873Y-141747445D01*
X195073402Y-141582701D01*
X195100500Y-141411611D01*
X195100500Y-140688389D01*
X195073402Y-140517299D01*
X195027160Y-140374983D01*
X198399500Y-140374983D01*
X198399500Y-141725001D01*
X198399501Y-141725018D01*
X198410000Y-141827796D01*
X198410001Y-141827799D01*
X198465185Y-141994331D01*
X198465187Y-141994336D01*
X198494542Y-142041928D01*
X198557288Y-142143656D01*
X198681344Y-142267712D01*
X198830666Y-142359814D01*
X198997203Y-142414999D01*
X199099991Y-142425500D01*
X199900008Y-142425499D01*
X199900016Y-142425498D01*
X199900019Y-142425498D01*
X199956302Y-142419748D01*
X200002797Y-142414999D01*
X200169334Y-142359814D01*
X200318656Y-142267712D01*
X200442712Y-142143656D01*
X200534814Y-141994334D01*
X200589999Y-141827797D01*
X200600500Y-141725009D01*
X200600499Y-140688389D01*
X202399500Y-140688389D01*
X202399500Y-141411610D01*
X202425731Y-141577231D01*
X202426598Y-141582701D01*
X202480127Y-141747445D01*
X202558768Y-141901788D01*
X202660586Y-142041928D01*
X202783072Y-142164414D01*
X202923212Y-142266232D01*
X203077555Y-142344873D01*
X203242299Y-142398402D01*
X203413389Y-142425500D01*
X203413390Y-142425500D01*
X203586610Y-142425500D01*
X203586611Y-142425500D01*
X203757701Y-142398402D01*
X203922445Y-142344873D01*
X204076788Y-142266232D01*
X204216928Y-142164414D01*
X204339414Y-142041928D01*
X204399682Y-141958975D01*
X204455012Y-141916311D01*
X204524626Y-141910332D01*
X204586421Y-141942938D01*
X204600315Y-141958973D01*
X204660586Y-142041928D01*
X204783072Y-142164414D01*
X204923212Y-142266232D01*
X205077555Y-142344873D01*
X205242299Y-142398402D01*
X205413389Y-142425500D01*
X205413390Y-142425500D01*
X205586610Y-142425500D01*
X205586611Y-142425500D01*
X205757701Y-142398402D01*
X205922445Y-142344873D01*
X206076788Y-142266232D01*
X206216928Y-142164414D01*
X206339414Y-142041928D01*
X206399682Y-141958975D01*
X206455012Y-141916311D01*
X206524626Y-141910332D01*
X206586421Y-141942938D01*
X206600315Y-141958973D01*
X206660586Y-142041928D01*
X206783072Y-142164414D01*
X206923212Y-142266232D01*
X207077555Y-142344873D01*
X207242299Y-142398402D01*
X207413389Y-142425500D01*
X207413390Y-142425500D01*
X207586610Y-142425500D01*
X207586611Y-142425500D01*
X207757701Y-142398402D01*
X207922445Y-142344873D01*
X208076788Y-142266232D01*
X208216928Y-142164414D01*
X208339414Y-142041928D01*
X208399682Y-141958975D01*
X208455012Y-141916311D01*
X208524626Y-141910332D01*
X208586421Y-141942938D01*
X208600315Y-141958973D01*
X208660586Y-142041928D01*
X208783072Y-142164414D01*
X208923212Y-142266232D01*
X209077555Y-142344873D01*
X209242299Y-142398402D01*
X209413389Y-142425500D01*
X209413390Y-142425500D01*
X209586610Y-142425500D01*
X209586611Y-142425500D01*
X209757701Y-142398402D01*
X209922445Y-142344873D01*
X210076788Y-142266232D01*
X210216928Y-142164414D01*
X210339414Y-142041928D01*
X210399682Y-141958975D01*
X210455012Y-141916311D01*
X210524626Y-141910332D01*
X210586421Y-141942938D01*
X210600315Y-141958973D01*
X210660586Y-142041928D01*
X210783072Y-142164414D01*
X210923212Y-142266232D01*
X211077555Y-142344873D01*
X211242299Y-142398402D01*
X211413389Y-142425500D01*
X211413390Y-142425500D01*
X211586610Y-142425500D01*
X211586611Y-142425500D01*
X211757701Y-142398402D01*
X211819088Y-142378456D01*
X216145500Y-142378456D01*
X216145500Y-142621543D01*
X216145501Y-142621559D01*
X216177230Y-142862569D01*
X216240149Y-143097386D01*
X216333175Y-143321972D01*
X216333182Y-143321987D01*
X216454730Y-143532516D01*
X216602722Y-143725380D01*
X216602730Y-143725389D01*
X216774611Y-143897270D01*
X216774619Y-143897277D01*
X216967483Y-144045269D01*
X217178012Y-144166817D01*
X217178027Y-144166824D01*
X217294171Y-144214932D01*
X217402612Y-144259850D01*
X217637429Y-144322769D01*
X217878450Y-144354500D01*
X217878457Y-144354500D01*
X218121543Y-144354500D01*
X218121550Y-144354500D01*
X218362571Y-144322769D01*
X218597388Y-144259850D01*
X218821984Y-144166819D01*
X219032516Y-144045269D01*
X219225380Y-143897278D01*
X219225384Y-143897273D01*
X219225389Y-143897270D01*
X219397270Y-143725389D01*
X219397273Y-143725384D01*
X219397278Y-143725380D01*
X219545269Y-143532516D01*
X219666819Y-143321984D01*
X219759850Y-143097388D01*
X219822769Y-142862571D01*
X219854500Y-142621550D01*
X219854500Y-142378450D01*
X219822769Y-142137429D01*
X219759850Y-141902612D01*
X219711733Y-141786448D01*
X219666824Y-141678027D01*
X219666817Y-141678012D01*
X219545269Y-141467483D01*
X219397277Y-141274619D01*
X219397270Y-141274611D01*
X219225389Y-141102730D01*
X219225380Y-141102722D01*
X219032516Y-140954730D01*
X218821987Y-140833182D01*
X218821972Y-140833175D01*
X218597386Y-140740149D01*
X218362569Y-140677230D01*
X218121559Y-140645501D01*
X218121556Y-140645500D01*
X218121550Y-140645500D01*
X217878450Y-140645500D01*
X217878444Y-140645500D01*
X217878440Y-140645501D01*
X217637430Y-140677230D01*
X217402613Y-140740149D01*
X217178027Y-140833175D01*
X217178012Y-140833182D01*
X216967483Y-140954730D01*
X216774619Y-141102722D01*
X216602722Y-141274619D01*
X216454730Y-141467483D01*
X216333182Y-141678012D01*
X216333175Y-141678027D01*
X216240149Y-141902613D01*
X216177230Y-142137430D01*
X216145501Y-142378440D01*
X216145500Y-142378456D01*
X211819088Y-142378456D01*
X211922445Y-142344873D01*
X212076788Y-142266232D01*
X212216928Y-142164414D01*
X212339414Y-142041928D01*
X212441232Y-141901788D01*
X212519873Y-141747445D01*
X212573402Y-141582701D01*
X212600500Y-141411611D01*
X212600500Y-140688389D01*
X212573402Y-140517299D01*
X212519873Y-140352555D01*
X212441232Y-140198212D01*
X212339414Y-140058072D01*
X212216928Y-139935586D01*
X212076788Y-139833768D01*
X211922445Y-139755127D01*
X211757701Y-139701598D01*
X211757699Y-139701597D01*
X211757698Y-139701597D01*
X211626271Y-139680781D01*
X211586611Y-139674500D01*
X211413389Y-139674500D01*
X211373728Y-139680781D01*
X211242302Y-139701597D01*
X211077552Y-139755128D01*
X210923211Y-139833768D01*
X210874543Y-139869128D01*
X210783072Y-139935586D01*
X210783070Y-139935588D01*
X210783069Y-139935588D01*
X210660588Y-140058069D01*
X210660581Y-140058078D01*
X210600317Y-140141023D01*
X210544987Y-140183689D01*
X210475374Y-140189667D01*
X210413579Y-140157061D01*
X210399683Y-140141023D01*
X210339418Y-140058078D01*
X210339414Y-140058072D01*
X210216928Y-139935586D01*
X210076788Y-139833768D01*
X209922445Y-139755127D01*
X209757701Y-139701598D01*
X209757699Y-139701597D01*
X209757698Y-139701597D01*
X209626271Y-139680781D01*
X209586611Y-139674500D01*
X209413389Y-139674500D01*
X209373728Y-139680781D01*
X209242302Y-139701597D01*
X209077552Y-139755128D01*
X208923211Y-139833768D01*
X208874543Y-139869128D01*
X208783072Y-139935586D01*
X208783070Y-139935588D01*
X208783069Y-139935588D01*
X208660588Y-140058069D01*
X208660581Y-140058078D01*
X208600317Y-140141023D01*
X208544987Y-140183689D01*
X208475374Y-140189667D01*
X208413579Y-140157061D01*
X208399683Y-140141023D01*
X208339418Y-140058078D01*
X208339414Y-140058072D01*
X208216928Y-139935586D01*
X208076788Y-139833768D01*
X207922445Y-139755127D01*
X207757701Y-139701598D01*
X207757699Y-139701597D01*
X207757698Y-139701597D01*
X207626271Y-139680781D01*
X207586611Y-139674500D01*
X207413389Y-139674500D01*
X207373728Y-139680781D01*
X207242302Y-139701597D01*
X207077552Y-139755128D01*
X206923211Y-139833768D01*
X206874543Y-139869128D01*
X206783072Y-139935586D01*
X206783070Y-139935588D01*
X206783069Y-139935588D01*
X206660588Y-140058069D01*
X206660581Y-140058078D01*
X206600317Y-140141023D01*
X206544987Y-140183689D01*
X206475374Y-140189667D01*
X206413579Y-140157061D01*
X206399683Y-140141023D01*
X206339418Y-140058078D01*
X206339414Y-140058072D01*
X206216928Y-139935586D01*
X206076788Y-139833768D01*
X205922445Y-139755127D01*
X205757701Y-139701598D01*
X205757699Y-139701597D01*
X205757698Y-139701597D01*
X205626271Y-139680781D01*
X205586611Y-139674500D01*
X205413389Y-139674500D01*
X205373728Y-139680781D01*
X205242302Y-139701597D01*
X205077552Y-139755128D01*
X204923211Y-139833768D01*
X204874543Y-139869128D01*
X204783072Y-139935586D01*
X204783070Y-139935588D01*
X204783069Y-139935588D01*
X204660588Y-140058069D01*
X204660581Y-140058078D01*
X204600317Y-140141023D01*
X204544987Y-140183689D01*
X204475374Y-140189667D01*
X204413579Y-140157061D01*
X204399683Y-140141023D01*
X204339418Y-140058078D01*
X204339414Y-140058072D01*
X204216928Y-139935586D01*
X204076788Y-139833768D01*
X203922445Y-139755127D01*
X203757701Y-139701598D01*
X203757699Y-139701597D01*
X203757698Y-139701597D01*
X203626271Y-139680781D01*
X203586611Y-139674500D01*
X203413389Y-139674500D01*
X203373728Y-139680781D01*
X203242302Y-139701597D01*
X203077552Y-139755128D01*
X202923211Y-139833768D01*
X202874543Y-139869128D01*
X202783072Y-139935586D01*
X202783070Y-139935588D01*
X202783069Y-139935588D01*
X202660588Y-140058069D01*
X202660588Y-140058070D01*
X202660586Y-140058072D01*
X202660582Y-140058078D01*
X202558768Y-140198211D01*
X202480128Y-140352552D01*
X202426597Y-140517302D01*
X202399500Y-140688389D01*
X200600499Y-140688389D01*
X200600499Y-140374992D01*
X200589999Y-140272203D01*
X200534814Y-140105666D01*
X200442712Y-139956344D01*
X200318656Y-139832288D01*
X200193559Y-139755128D01*
X200169336Y-139740187D01*
X200169331Y-139740185D01*
X200167862Y-139739698D01*
X200002797Y-139685001D01*
X200002795Y-139685000D01*
X199900010Y-139674500D01*
X199099998Y-139674500D01*
X199099980Y-139674501D01*
X198997203Y-139685000D01*
X198997200Y-139685001D01*
X198830668Y-139740185D01*
X198830663Y-139740187D01*
X198681342Y-139832289D01*
X198557289Y-139956342D01*
X198465187Y-140105663D01*
X198465186Y-140105666D01*
X198410001Y-140272203D01*
X198410001Y-140272204D01*
X198410000Y-140272204D01*
X198399500Y-140374983D01*
X195027160Y-140374983D01*
X195019873Y-140352555D01*
X194941232Y-140198212D01*
X194839414Y-140058072D01*
X194716928Y-139935586D01*
X194576788Y-139833768D01*
X194422445Y-139755127D01*
X194257701Y-139701598D01*
X194257699Y-139701597D01*
X194257698Y-139701597D01*
X194126271Y-139680781D01*
X194086611Y-139674500D01*
X193913389Y-139674500D01*
X193873728Y-139680781D01*
X193742302Y-139701597D01*
X193577552Y-139755128D01*
X193423211Y-139833768D01*
X193374543Y-139869128D01*
X193283072Y-139935586D01*
X193283070Y-139935588D01*
X193283069Y-139935588D01*
X193160588Y-140058069D01*
X193160581Y-140058078D01*
X193100317Y-140141023D01*
X193044987Y-140183689D01*
X192975374Y-140189667D01*
X192913579Y-140157061D01*
X192899683Y-140141023D01*
X192839418Y-140058078D01*
X192839414Y-140058072D01*
X192716928Y-139935586D01*
X192701612Y-139924458D01*
X192658948Y-139869128D01*
X192650500Y-139824142D01*
X192650500Y-139235928D01*
X192625502Y-139110260D01*
X192625500Y-139110254D01*
X192622399Y-139102769D01*
X192605189Y-139061221D01*
X192605187Y-139061216D01*
X192576468Y-138991878D01*
X192576462Y-138991868D01*
X192505278Y-138885332D01*
X192505272Y-138885325D01*
X191686819Y-138066872D01*
X191653334Y-138005549D01*
X191650500Y-137979191D01*
X191650500Y-132449996D01*
X192194435Y-132449996D01*
X192194435Y-132450003D01*
X192214630Y-132629249D01*
X192214631Y-132629254D01*
X192274211Y-132799523D01*
X192370184Y-132952262D01*
X192484281Y-133066359D01*
X192517766Y-133127682D01*
X192513642Y-133194992D01*
X192504632Y-133220742D01*
X192504631Y-133220746D01*
X192484435Y-133399996D01*
X192484435Y-133400003D01*
X192504630Y-133579249D01*
X192504631Y-133579254D01*
X192564211Y-133749523D01*
X192602376Y-133810261D01*
X192660184Y-133902262D01*
X192787738Y-134029816D01*
X192940478Y-134125789D01*
X192940480Y-134125789D01*
X192940484Y-134125792D01*
X192946756Y-134128813D01*
X192945869Y-134130653D01*
X192981939Y-134153307D01*
X194211586Y-135382954D01*
X194237056Y-135399971D01*
X194275265Y-135425501D01*
X194334505Y-135465084D01*
X194334507Y-135465085D01*
X194334511Y-135465087D01*
X194471082Y-135521656D01*
X194471087Y-135521658D01*
X194471091Y-135521658D01*
X194471092Y-135521659D01*
X194616079Y-135550500D01*
X194616082Y-135550500D01*
X194616083Y-135550500D01*
X194763917Y-135550500D01*
X195583791Y-135550500D01*
X195650830Y-135570185D01*
X195696585Y-135622989D01*
X195707011Y-135688384D01*
X195694435Y-135799997D01*
X195694435Y-135800003D01*
X195714630Y-135979249D01*
X195714631Y-135979254D01*
X195774211Y-136149523D01*
X195805928Y-136200000D01*
X195870184Y-136302262D01*
X195997738Y-136429816D01*
X196150478Y-136525789D01*
X196320745Y-136585368D01*
X196320750Y-136585369D01*
X196499996Y-136605565D01*
X196500000Y-136605565D01*
X196500004Y-136605565D01*
X196679249Y-136585369D01*
X196679252Y-136585368D01*
X196679255Y-136585368D01*
X196849522Y-136525789D01*
X197002262Y-136429816D01*
X197045259Y-136386819D01*
X197106582Y-136353334D01*
X197132940Y-136350500D01*
X198664071Y-136350500D01*
X198748615Y-136333682D01*
X198789744Y-136325501D01*
X198908127Y-136276465D01*
X198957282Y-136243621D01*
X199014669Y-136205277D01*
X199019947Y-136199999D01*
X201379341Y-136199999D01*
X201379341Y-136200000D01*
X201399936Y-136435403D01*
X201399938Y-136435413D01*
X201461094Y-136663655D01*
X201461096Y-136663659D01*
X201461097Y-136663663D01*
X201545499Y-136844663D01*
X201560965Y-136877830D01*
X201560967Y-136877834D01*
X201625037Y-136969334D01*
X201696505Y-137071401D01*
X201863599Y-137238495D01*
X201960384Y-137306265D01*
X202057165Y-137374032D01*
X202057167Y-137374033D01*
X202057170Y-137374035D01*
X202271337Y-137473903D01*
X202499592Y-137535063D01*
X202676034Y-137550500D01*
X202734999Y-137555659D01*
X202735000Y-137555659D01*
X202735001Y-137555659D01*
X202793966Y-137550500D01*
X202970408Y-137535063D01*
X203198663Y-137473903D01*
X203412830Y-137374035D01*
X203606401Y-137238495D01*
X203728329Y-137116566D01*
X203789648Y-137083084D01*
X203859340Y-137088068D01*
X203915274Y-137129939D01*
X203932189Y-137160917D01*
X203981202Y-137292328D01*
X203981206Y-137292335D01*
X204067452Y-137407544D01*
X204067455Y-137407547D01*
X204182664Y-137493793D01*
X204182671Y-137493797D01*
X204317517Y-137544091D01*
X204317516Y-137544091D01*
X204324444Y-137544835D01*
X204377127Y-137550500D01*
X206172872Y-137550499D01*
X206232483Y-137544091D01*
X206367331Y-137493796D01*
X206482546Y-137407546D01*
X206568796Y-137292331D01*
X206619091Y-137157483D01*
X206625500Y-137097873D01*
X206625500Y-136299996D01*
X208044435Y-136299996D01*
X208044435Y-136300003D01*
X208064630Y-136479249D01*
X208064631Y-136479254D01*
X208124211Y-136649523D01*
X208220184Y-136802262D01*
X208347738Y-136929816D01*
X208500478Y-137025789D01*
X208664218Y-137083084D01*
X208670745Y-137085368D01*
X208670750Y-137085369D01*
X208849996Y-137105565D01*
X208850000Y-137105565D01*
X208850004Y-137105565D01*
X209029249Y-137085369D01*
X209029252Y-137085368D01*
X209029255Y-137085368D01*
X209109017Y-137057457D01*
X209149972Y-137050500D01*
X215471042Y-137050500D01*
X215538081Y-137070185D01*
X215576580Y-137109402D01*
X215581000Y-137116569D01*
X215582288Y-137118656D01*
X215706344Y-137242712D01*
X215855666Y-137334814D01*
X216022203Y-137389999D01*
X216124991Y-137400500D01*
X217475008Y-137400499D01*
X217577797Y-137389999D01*
X217744334Y-137334814D01*
X217893656Y-137242712D01*
X218017712Y-137118656D01*
X218109814Y-136969334D01*
X218164999Y-136802797D01*
X218175500Y-136700009D01*
X218175499Y-135899992D01*
X218164999Y-135797203D01*
X218109814Y-135630666D01*
X218017712Y-135481344D01*
X217893656Y-135357288D01*
X217792696Y-135295016D01*
X217744336Y-135265187D01*
X217744331Y-135265185D01*
X217742862Y-135264698D01*
X217577797Y-135210001D01*
X217577795Y-135210000D01*
X217475010Y-135199500D01*
X216124998Y-135199500D01*
X216124981Y-135199501D01*
X216022203Y-135210000D01*
X216022200Y-135210001D01*
X215855668Y-135265185D01*
X215855663Y-135265187D01*
X215706342Y-135357289D01*
X215582287Y-135481344D01*
X215576580Y-135490598D01*
X215524632Y-135537322D01*
X215471042Y-135549500D01*
X209149972Y-135549500D01*
X209109017Y-135542542D01*
X209029254Y-135514631D01*
X209029249Y-135514630D01*
X208850004Y-135494435D01*
X208849996Y-135494435D01*
X208670750Y-135514630D01*
X208670745Y-135514631D01*
X208500476Y-135574211D01*
X208347737Y-135670184D01*
X208220184Y-135797737D01*
X208124211Y-135950476D01*
X208064631Y-136120745D01*
X208064630Y-136120750D01*
X208044435Y-136299996D01*
X206625500Y-136299996D01*
X206625499Y-135302128D01*
X206619091Y-135242517D01*
X206617810Y-135239083D01*
X206568797Y-135107671D01*
X206568793Y-135107664D01*
X206482547Y-134992455D01*
X206482544Y-134992452D01*
X206367335Y-134906206D01*
X206367328Y-134906202D01*
X206232482Y-134855908D01*
X206232483Y-134855908D01*
X206172883Y-134849501D01*
X206172881Y-134849500D01*
X206172873Y-134849500D01*
X206172864Y-134849500D01*
X204377129Y-134849500D01*
X204377123Y-134849501D01*
X204317516Y-134855908D01*
X204182671Y-134906202D01*
X204182664Y-134906206D01*
X204067455Y-134992452D01*
X204067452Y-134992455D01*
X203981206Y-135107664D01*
X203981203Y-135107669D01*
X203932189Y-135239083D01*
X203890317Y-135295016D01*
X203824853Y-135319433D01*
X203756580Y-135304581D01*
X203728326Y-135283430D01*
X203606402Y-135161506D01*
X203606395Y-135161501D01*
X203598827Y-135156202D01*
X203530178Y-135108133D01*
X203412834Y-135025967D01*
X203412830Y-135025965D01*
X203410758Y-135024999D01*
X203198663Y-134926097D01*
X203198659Y-134926096D01*
X203198655Y-134926094D01*
X202970413Y-134864938D01*
X202970403Y-134864936D01*
X202735001Y-134844341D01*
X202734999Y-134844341D01*
X202499596Y-134864936D01*
X202499586Y-134864938D01*
X202271344Y-134926094D01*
X202271335Y-134926098D01*
X202057171Y-135025964D01*
X202057169Y-135025965D01*
X201863597Y-135161505D01*
X201696505Y-135328597D01*
X201560965Y-135522169D01*
X201560964Y-135522171D01*
X201461098Y-135736335D01*
X201461094Y-135736344D01*
X201399938Y-135964586D01*
X201399936Y-135964596D01*
X201379341Y-136199999D01*
X199019947Y-136199999D01*
X200005276Y-135214669D01*
X200076465Y-135108127D01*
X200125501Y-134989744D01*
X200125891Y-134987782D01*
X200125893Y-134987774D01*
X200125894Y-134987774D01*
X200125894Y-134987766D01*
X200150327Y-134864938D01*
X200150500Y-134864070D01*
X200150500Y-133935928D01*
X200125502Y-133810261D01*
X200125501Y-133810260D01*
X200125501Y-133810256D01*
X200076465Y-133691873D01*
X200076464Y-133691872D01*
X200076461Y-133691866D01*
X200005277Y-133585332D01*
X199963489Y-133543544D01*
X199914669Y-133494724D01*
X198321722Y-131901776D01*
X198288237Y-131840453D01*
X198286182Y-131827973D01*
X198285368Y-131820745D01*
X198225789Y-131650478D01*
X198129816Y-131497738D01*
X198002262Y-131370184D01*
X197962163Y-131344988D01*
X197849523Y-131274211D01*
X197679254Y-131214631D01*
X197679249Y-131214630D01*
X197500004Y-131194435D01*
X197499996Y-131194435D01*
X197320750Y-131214630D01*
X197320745Y-131214631D01*
X197150476Y-131274211D01*
X196997737Y-131370184D01*
X196870184Y-131497737D01*
X196774211Y-131650476D01*
X196714631Y-131820745D01*
X196714630Y-131820750D01*
X196694435Y-131999996D01*
X196694435Y-132000003D01*
X196714630Y-132179249D01*
X196714631Y-132179254D01*
X196774211Y-132349523D01*
X196837347Y-132450003D01*
X196870184Y-132502262D01*
X196997738Y-132629816D01*
X197150478Y-132725789D01*
X197320745Y-132785368D01*
X197327974Y-132786182D01*
X197392388Y-132813246D01*
X197401776Y-132821722D01*
X197936650Y-133356596D01*
X197970135Y-133417919D01*
X197965151Y-133487611D01*
X197923279Y-133543544D01*
X197857815Y-133567961D01*
X197801516Y-133558838D01*
X197764593Y-133543544D01*
X197718615Y-133524499D01*
X197718609Y-133524497D01*
X197592942Y-133499500D01*
X197592940Y-133499500D01*
X196667186Y-133499500D01*
X196600147Y-133479815D01*
X196562193Y-133441473D01*
X196542990Y-133410913D01*
X196542988Y-133410910D01*
X196415435Y-133283357D01*
X196262696Y-133187384D01*
X196092427Y-133127804D01*
X196092422Y-133127803D01*
X195913177Y-133107608D01*
X195913169Y-133107608D01*
X195733923Y-133127803D01*
X195733918Y-133127804D01*
X195563649Y-133187384D01*
X195410910Y-133283357D01*
X195283357Y-133410910D01*
X195187384Y-133563649D01*
X195127804Y-133733918D01*
X195127803Y-133733922D01*
X195111823Y-133875757D01*
X195084756Y-133940171D01*
X195027162Y-133979726D01*
X194957325Y-133981863D01*
X194900922Y-133949554D01*
X194263549Y-133312181D01*
X194230064Y-133250858D01*
X194235048Y-133181166D01*
X194276920Y-133125233D01*
X194342384Y-133100816D01*
X194351230Y-133100500D01*
X194965792Y-133100500D01*
X195050336Y-133083682D01*
X195091465Y-133075501D01*
X195209848Y-133026465D01*
X195224121Y-133016928D01*
X195316390Y-132955277D01*
X195612677Y-132658988D01*
X195673996Y-132625506D01*
X195686471Y-132623452D01*
X195693707Y-132622637D01*
X195863974Y-132563058D01*
X196016714Y-132467085D01*
X196144268Y-132339531D01*
X196240241Y-132186791D01*
X196299820Y-132016524D01*
X196299821Y-132016518D01*
X196320017Y-131837272D01*
X196320017Y-131837265D01*
X196299821Y-131658019D01*
X196299820Y-131658014D01*
X196297182Y-131650476D01*
X196240241Y-131487747D01*
X196223171Y-131460581D01*
X196185305Y-131400317D01*
X196144268Y-131335007D01*
X196016714Y-131207453D01*
X195995996Y-131194435D01*
X195863975Y-131111480D01*
X195693706Y-131051900D01*
X195693701Y-131051899D01*
X195514456Y-131031704D01*
X195514448Y-131031704D01*
X195335202Y-131051899D01*
X195335197Y-131051900D01*
X195164928Y-131111480D01*
X195012189Y-131207453D01*
X194884636Y-131335006D01*
X194788662Y-131487747D01*
X194729084Y-131658013D01*
X194729082Y-131658021D01*
X194728267Y-131665257D01*
X194701194Y-131729669D01*
X194692733Y-131739040D01*
X194668597Y-131763178D01*
X194607275Y-131796665D01*
X194580912Y-131799500D01*
X193505068Y-131799500D01*
X193439096Y-131780494D01*
X193349522Y-131724210D01*
X193349518Y-131724209D01*
X193179262Y-131664633D01*
X193179249Y-131664630D01*
X193000004Y-131644435D01*
X192999996Y-131644435D01*
X192820750Y-131664630D01*
X192820745Y-131664631D01*
X192650476Y-131724211D01*
X192497737Y-131820184D01*
X192370184Y-131947737D01*
X192274211Y-132100476D01*
X192214631Y-132270745D01*
X192214630Y-132270750D01*
X192194435Y-132449996D01*
X191650500Y-132449996D01*
X191650500Y-129799996D01*
X192394435Y-129799996D01*
X192394435Y-129800003D01*
X192414630Y-129979249D01*
X192414631Y-129979254D01*
X192474211Y-130149523D01*
X192537646Y-130250478D01*
X192570184Y-130302262D01*
X192697738Y-130429816D01*
X192706821Y-130435523D01*
X192850393Y-130525736D01*
X192850478Y-130525789D01*
X193020745Y-130585368D01*
X193020750Y-130585369D01*
X193199996Y-130605565D01*
X193200000Y-130605565D01*
X193200004Y-130605565D01*
X193379249Y-130585369D01*
X193379252Y-130585368D01*
X193379255Y-130585368D01*
X193549522Y-130525789D01*
X193702262Y-130429816D01*
X193829816Y-130302262D01*
X193925789Y-130149522D01*
X193985368Y-129979255D01*
X193997204Y-129874211D01*
X194005565Y-129800003D01*
X194005565Y-129799996D01*
X193985369Y-129620750D01*
X193985366Y-129620737D01*
X193925790Y-129450481D01*
X193925789Y-129450478D01*
X193904008Y-129415814D01*
X193869506Y-129360903D01*
X193850500Y-129294931D01*
X193850500Y-128720808D01*
X193870185Y-128653769D01*
X193886819Y-128633127D01*
X194406253Y-128113693D01*
X194467576Y-128080208D01*
X194537268Y-128085192D01*
X194581615Y-128113693D01*
X194597738Y-128129816D01*
X194613567Y-128139762D01*
X194746890Y-128223535D01*
X194750478Y-128225789D01*
X194910857Y-128281908D01*
X194920745Y-128285368D01*
X194920750Y-128285369D01*
X195099996Y-128305565D01*
X195100000Y-128305565D01*
X195100004Y-128305565D01*
X195279249Y-128285369D01*
X195279252Y-128285368D01*
X195279255Y-128285368D01*
X195449522Y-128225789D01*
X195602262Y-128129816D01*
X195602274Y-128129803D01*
X195603504Y-128128824D01*
X195604464Y-128128431D01*
X195608158Y-128126111D01*
X195608564Y-128126757D01*
X195668189Y-128102411D01*
X195736885Y-128115161D01*
X195768506Y-128138084D01*
X195770184Y-128139762D01*
X195897738Y-128267316D01*
X196050478Y-128363289D01*
X196220745Y-128422868D01*
X196227974Y-128423682D01*
X196292388Y-128450746D01*
X196301776Y-128459222D01*
X197147824Y-129305271D01*
X197147827Y-129305274D01*
X197233052Y-129362219D01*
X197233051Y-129362219D01*
X197249059Y-129372914D01*
X197254373Y-129376465D01*
X197372756Y-129425501D01*
X197372760Y-129425501D01*
X197372761Y-129425502D01*
X197498428Y-129450500D01*
X197498431Y-129450500D01*
X202627720Y-129450500D01*
X202694759Y-129470185D01*
X202715401Y-129486819D01*
X203852541Y-130623959D01*
X203886026Y-130685282D01*
X203888079Y-130697748D01*
X203888894Y-130704982D01*
X203888896Y-130704991D01*
X203948474Y-130875257D01*
X204044448Y-131027998D01*
X204172002Y-131155552D01*
X204242236Y-131199683D01*
X204308360Y-131241232D01*
X204324742Y-131251525D01*
X204389575Y-131274211D01*
X204495009Y-131311104D01*
X204495014Y-131311105D01*
X204674260Y-131331301D01*
X204674264Y-131331301D01*
X204674268Y-131331301D01*
X204853513Y-131311105D01*
X204853516Y-131311104D01*
X204853519Y-131311104D01*
X205023786Y-131251525D01*
X205176526Y-131155552D01*
X205304080Y-131027998D01*
X205400053Y-130875258D01*
X205459632Y-130704991D01*
X205470835Y-130605565D01*
X205479829Y-130525739D01*
X205479829Y-130525732D01*
X205459633Y-130346486D01*
X205459632Y-130346481D01*
X205415912Y-130221536D01*
X205400053Y-130176214D01*
X205304080Y-130023474D01*
X205176526Y-129895920D01*
X205141976Y-129874211D01*
X205023785Y-129799946D01*
X204853519Y-129740368D01*
X204853510Y-129740366D01*
X204846276Y-129739551D01*
X204781864Y-129712480D01*
X204772487Y-129704013D01*
X203363202Y-128294727D01*
X203363201Y-128294726D01*
X203363197Y-128294723D01*
X203256655Y-128223535D01*
X203232160Y-128213389D01*
X203138272Y-128174499D01*
X203138266Y-128174497D01*
X203012599Y-128149500D01*
X203012597Y-128149500D01*
X197883308Y-128149500D01*
X197816269Y-128129815D01*
X197795627Y-128113181D01*
X197221722Y-127539276D01*
X197188237Y-127477953D01*
X197186182Y-127465473D01*
X197185368Y-127458245D01*
X197125789Y-127287978D01*
X197121005Y-127280365D01*
X197074005Y-127205565D01*
X197029816Y-127135238D01*
X196948427Y-127053849D01*
X196914942Y-126992526D01*
X196919926Y-126922834D01*
X196931114Y-126900196D01*
X197025788Y-126749523D01*
X197025789Y-126749522D01*
X197085368Y-126579255D01*
X197099985Y-126449524D01*
X197105565Y-126400003D01*
X197105565Y-126399996D01*
X198594435Y-126399996D01*
X198594435Y-126400003D01*
X198614630Y-126579249D01*
X198614631Y-126579254D01*
X198674211Y-126749523D01*
X198754178Y-126876788D01*
X198770184Y-126902262D01*
X198897738Y-127029816D01*
X199050478Y-127125789D01*
X199220739Y-127185366D01*
X199220745Y-127185368D01*
X199220750Y-127185369D01*
X199399996Y-127205565D01*
X199400000Y-127205565D01*
X199400004Y-127205565D01*
X199579249Y-127185369D01*
X199579251Y-127185368D01*
X199579255Y-127185368D01*
X199579258Y-127185366D01*
X199579262Y-127185366D01*
X199669377Y-127153832D01*
X199749522Y-127125789D01*
X199839096Y-127069505D01*
X199905068Y-127050500D01*
X204359952Y-127050500D01*
X204426991Y-127070185D01*
X204447633Y-127086819D01*
X204918657Y-127557843D01*
X204952142Y-127619166D01*
X204954195Y-127631632D01*
X204955010Y-127638866D01*
X204955012Y-127638875D01*
X205014590Y-127809141D01*
X205018141Y-127814792D01*
X205110564Y-127961882D01*
X205238118Y-128089436D01*
X205302387Y-128129819D01*
X205373491Y-128174497D01*
X205390858Y-128185409D01*
X205561125Y-128244988D01*
X205561130Y-128244989D01*
X205740376Y-128265185D01*
X205740380Y-128265185D01*
X205740384Y-128265185D01*
X205919629Y-128244989D01*
X205919632Y-128244988D01*
X205919635Y-128244988D01*
X206089902Y-128185409D01*
X206242642Y-128089436D01*
X206370196Y-127961882D01*
X206466169Y-127809142D01*
X206525748Y-127638875D01*
X206531421Y-127588524D01*
X206545945Y-127459623D01*
X206545945Y-127459616D01*
X206525749Y-127280370D01*
X206525748Y-127280365D01*
X206512055Y-127241232D01*
X206466169Y-127110098D01*
X206370196Y-126957358D01*
X206242642Y-126829804D01*
X206114876Y-126749523D01*
X206089901Y-126733830D01*
X205919635Y-126674252D01*
X205919626Y-126674250D01*
X205912392Y-126673435D01*
X205847980Y-126646364D01*
X205838603Y-126637897D01*
X205095434Y-125894727D01*
X205095433Y-125894726D01*
X205095429Y-125894723D01*
X204988887Y-125823535D01*
X204870504Y-125774499D01*
X204870498Y-125774497D01*
X204744831Y-125749500D01*
X204744829Y-125749500D01*
X199905068Y-125749500D01*
X199839096Y-125730494D01*
X199749522Y-125674210D01*
X199749518Y-125674209D01*
X199579262Y-125614633D01*
X199579249Y-125614630D01*
X199400004Y-125594435D01*
X199399996Y-125594435D01*
X199220750Y-125614630D01*
X199220745Y-125614631D01*
X199050476Y-125674211D01*
X198897737Y-125770184D01*
X198770184Y-125897737D01*
X198674211Y-126050476D01*
X198614631Y-126220745D01*
X198614630Y-126220750D01*
X198594435Y-126399996D01*
X197105565Y-126399996D01*
X197085369Y-126220750D01*
X197085368Y-126220745D01*
X197025788Y-126050475D01*
X196944272Y-125920745D01*
X196941272Y-125915970D01*
X196922272Y-125848736D01*
X196941272Y-125784029D01*
X197010276Y-125674211D01*
X197025788Y-125649524D01*
X197037997Y-125614633D01*
X197085368Y-125479255D01*
X197086390Y-125470184D01*
X197105565Y-125300003D01*
X197105565Y-125299996D01*
X197085369Y-125120750D01*
X197085368Y-125120745D01*
X197080929Y-125108059D01*
X197025789Y-124950478D01*
X196929816Y-124797738D01*
X196802262Y-124670184D01*
X196770897Y-124650476D01*
X196649523Y-124574211D01*
X196479254Y-124514631D01*
X196479249Y-124514630D01*
X196300004Y-124494435D01*
X196299996Y-124494435D01*
X196120750Y-124514630D01*
X196120745Y-124514631D01*
X195950476Y-124574211D01*
X195797737Y-124670184D01*
X195670184Y-124797737D01*
X195574210Y-124950478D01*
X195514632Y-125120744D01*
X195514630Y-125120752D01*
X195513815Y-125127988D01*
X195486743Y-125192400D01*
X195478277Y-125201775D01*
X192694727Y-127985325D01*
X192694721Y-127985332D01*
X192625165Y-128089431D01*
X192625166Y-128089432D01*
X192623534Y-128091874D01*
X192574499Y-128210255D01*
X192574497Y-128210261D01*
X192549500Y-128335928D01*
X192549500Y-129294931D01*
X192530494Y-129360903D01*
X192474211Y-129450477D01*
X192474209Y-129450481D01*
X192414633Y-129620737D01*
X192414630Y-129620750D01*
X192394435Y-129799996D01*
X191650500Y-129799996D01*
X191650500Y-126605067D01*
X191669507Y-126539094D01*
X191725788Y-126449524D01*
X191743119Y-126399996D01*
X191785368Y-126279255D01*
X191791960Y-126220750D01*
X191805565Y-126100003D01*
X191805565Y-126099996D01*
X191785369Y-125920750D01*
X191785368Y-125920745D01*
X191783698Y-125915973D01*
X191725789Y-125750478D01*
X191725174Y-125749500D01*
X191640431Y-125614632D01*
X191629816Y-125597738D01*
X191502262Y-125470184D01*
X191438017Y-125429816D01*
X191349523Y-125374211D01*
X191179254Y-125314631D01*
X191179249Y-125314630D01*
X191095957Y-125305246D01*
X191031543Y-125278180D01*
X190991987Y-125220585D01*
X190986620Y-125168142D01*
X190989857Y-125139418D01*
X190993390Y-125108059D01*
X191005565Y-125000002D01*
X191005565Y-124999996D01*
X190985369Y-124820750D01*
X190985368Y-124820745D01*
X190978108Y-124799996D01*
X190925789Y-124650478D01*
X190907106Y-124620745D01*
X190840431Y-124514632D01*
X190829816Y-124497738D01*
X190702262Y-124370184D01*
X190646918Y-124335409D01*
X190549523Y-124274211D01*
X190379254Y-124214631D01*
X190379249Y-124214630D01*
X190200004Y-124194435D01*
X190199996Y-124194435D01*
X190020750Y-124214630D01*
X190020745Y-124214631D01*
X189850476Y-124274211D01*
X189697737Y-124370184D01*
X189570184Y-124497737D01*
X189474210Y-124650478D01*
X189414632Y-124820744D01*
X189414630Y-124820752D01*
X189413815Y-124827988D01*
X189386743Y-124892400D01*
X189378277Y-124901775D01*
X188576858Y-125703195D01*
X188515535Y-125736680D01*
X188445844Y-125731696D01*
X188423206Y-125720508D01*
X188349527Y-125674213D01*
X188349518Y-125674209D01*
X188179262Y-125614633D01*
X188179249Y-125614630D01*
X188000004Y-125594435D01*
X187999996Y-125594435D01*
X187820750Y-125614630D01*
X187820745Y-125614631D01*
X187650476Y-125674211D01*
X187497737Y-125770184D01*
X187370184Y-125897737D01*
X187274211Y-126050476D01*
X187214631Y-126220745D01*
X187214630Y-126220750D01*
X187194435Y-126399996D01*
X187194435Y-126400003D01*
X187214630Y-126579249D01*
X187214631Y-126579254D01*
X187274211Y-126749523D01*
X187354178Y-126876788D01*
X187370184Y-126902262D01*
X187497738Y-127029816D01*
X187650478Y-127125789D01*
X187820739Y-127185366D01*
X187820745Y-127185368D01*
X187820750Y-127185369D01*
X187999996Y-127205565D01*
X188000000Y-127205565D01*
X188000004Y-127205565D01*
X188179249Y-127185369D01*
X188179251Y-127185368D01*
X188179255Y-127185368D01*
X188179258Y-127185366D01*
X188179262Y-127185366D01*
X188269377Y-127153832D01*
X188349522Y-127125789D01*
X188439096Y-127069505D01*
X188505068Y-127050500D01*
X188864071Y-127050500D01*
X188948615Y-127033682D01*
X188989744Y-127025501D01*
X189108127Y-126976465D01*
X189136723Y-126957358D01*
X189214669Y-126905277D01*
X189994695Y-126125249D01*
X190056016Y-126091766D01*
X190125707Y-126096750D01*
X190181641Y-126138621D01*
X190205594Y-126199048D01*
X190214630Y-126279250D01*
X190214631Y-126279254D01*
X190274211Y-126449524D01*
X190330493Y-126539094D01*
X190349500Y-126605067D01*
X190349500Y-137449441D01*
X190329815Y-137516480D01*
X190277011Y-137562235D01*
X190207853Y-137572179D01*
X190184546Y-137566483D01*
X190179257Y-137564632D01*
X190179249Y-137564630D01*
X190000004Y-137544435D01*
X189999996Y-137544435D01*
X189820750Y-137564630D01*
X189820745Y-137564631D01*
X189650476Y-137624211D01*
X189497737Y-137720184D01*
X189370184Y-137847737D01*
X189274211Y-138000476D01*
X189214631Y-138170745D01*
X189214630Y-138170750D01*
X189194435Y-138349996D01*
X189194435Y-138350003D01*
X189214630Y-138529249D01*
X189214631Y-138529254D01*
X189274211Y-138699524D01*
X189330493Y-138789094D01*
X189349500Y-138855067D01*
X189349500Y-139824142D01*
X189329815Y-139891181D01*
X189298387Y-139924459D01*
X189283072Y-139935585D01*
X189160588Y-140058069D01*
X189160581Y-140058078D01*
X189100317Y-140141023D01*
X189044987Y-140183689D01*
X188975374Y-140189667D01*
X188913579Y-140157061D01*
X188899683Y-140141023D01*
X188839418Y-140058078D01*
X188839414Y-140058072D01*
X188716928Y-139935586D01*
X188576788Y-139833768D01*
X188422445Y-139755127D01*
X188257701Y-139701598D01*
X188257699Y-139701597D01*
X188257698Y-139701597D01*
X188126271Y-139680781D01*
X188086611Y-139674500D01*
X187913389Y-139674500D01*
X187873728Y-139680781D01*
X187742302Y-139701597D01*
X187577552Y-139755128D01*
X187423211Y-139833768D01*
X187374543Y-139869128D01*
X187283072Y-139935586D01*
X187283070Y-139935588D01*
X187283069Y-139935588D01*
X187160588Y-140058069D01*
X187160581Y-140058078D01*
X187100317Y-140141023D01*
X187044987Y-140183689D01*
X186975374Y-140189667D01*
X186913579Y-140157061D01*
X186899683Y-140141023D01*
X186839418Y-140058078D01*
X186839414Y-140058072D01*
X186716928Y-139935586D01*
X186576788Y-139833768D01*
X186422445Y-139755127D01*
X186257701Y-139701598D01*
X186257699Y-139701597D01*
X186257698Y-139701597D01*
X186126271Y-139680781D01*
X186086611Y-139674500D01*
X185913389Y-139674500D01*
X185873728Y-139680781D01*
X185742302Y-139701597D01*
X185577552Y-139755128D01*
X185423211Y-139833768D01*
X185374543Y-139869128D01*
X185283072Y-139935586D01*
X185283070Y-139935588D01*
X185283069Y-139935588D01*
X185160588Y-140058069D01*
X185160588Y-140058070D01*
X185160586Y-140058072D01*
X185160582Y-140058078D01*
X185058768Y-140198211D01*
X184980128Y-140352552D01*
X184926597Y-140517302D01*
X184899500Y-140688389D01*
X183100499Y-140688389D01*
X183100499Y-140374992D01*
X183089999Y-140272203D01*
X183034814Y-140105666D01*
X182942712Y-139956344D01*
X182818656Y-139832288D01*
X182693559Y-139755128D01*
X182669336Y-139740187D01*
X182669331Y-139740185D01*
X182667862Y-139739698D01*
X182502797Y-139685001D01*
X182502795Y-139685000D01*
X182400010Y-139674500D01*
X181599998Y-139674500D01*
X181599980Y-139674501D01*
X181497203Y-139685000D01*
X181497200Y-139685001D01*
X181330668Y-139740185D01*
X181330663Y-139740187D01*
X181181342Y-139832289D01*
X181057289Y-139956342D01*
X180965187Y-140105663D01*
X180965186Y-140105666D01*
X180910001Y-140272203D01*
X180910001Y-140272204D01*
X180910000Y-140272204D01*
X180899500Y-140374983D01*
X135500500Y-140374983D01*
X135500500Y-135552135D01*
X145749500Y-135552135D01*
X145749500Y-139147870D01*
X145749501Y-139147876D01*
X145755908Y-139207483D01*
X145806202Y-139342328D01*
X145806206Y-139342335D01*
X145892452Y-139457544D01*
X145892455Y-139457547D01*
X146007664Y-139543793D01*
X146007671Y-139543797D01*
X146142517Y-139594091D01*
X146142516Y-139594091D01*
X146145856Y-139594450D01*
X146202127Y-139600500D01*
X149797872Y-139600499D01*
X149857483Y-139594091D01*
X149992331Y-139543796D01*
X150107546Y-139457546D01*
X150193796Y-139342331D01*
X150244091Y-139207483D01*
X150250500Y-139147873D01*
X150250499Y-135552128D01*
X150244091Y-135492517D01*
X150243375Y-135490598D01*
X150193797Y-135357671D01*
X150193793Y-135357664D01*
X150107547Y-135242455D01*
X150107544Y-135242452D01*
X149992335Y-135156206D01*
X149992328Y-135156202D01*
X149857482Y-135105908D01*
X149857483Y-135105908D01*
X149797883Y-135099501D01*
X149797881Y-135099500D01*
X149797873Y-135099500D01*
X149797864Y-135099500D01*
X146202129Y-135099500D01*
X146202123Y-135099501D01*
X146142516Y-135105908D01*
X146007671Y-135156202D01*
X146007664Y-135156206D01*
X145892455Y-135242452D01*
X145892452Y-135242455D01*
X145806206Y-135357664D01*
X145806202Y-135357671D01*
X145755908Y-135492517D01*
X145749782Y-135549500D01*
X145749501Y-135552123D01*
X145749500Y-135552135D01*
X135500500Y-135552135D01*
X135500500Y-134349999D01*
X136794357Y-134349999D01*
X136794357Y-134350000D01*
X136814884Y-134571535D01*
X136814885Y-134571537D01*
X136875769Y-134785523D01*
X136875775Y-134785538D01*
X136974938Y-134984683D01*
X136974943Y-134984691D01*
X137109020Y-135162238D01*
X137273437Y-135312123D01*
X137273439Y-135312125D01*
X137462595Y-135429245D01*
X137462596Y-135429245D01*
X137462599Y-135429247D01*
X137670060Y-135509618D01*
X137888757Y-135550500D01*
X137888759Y-135550500D01*
X138111241Y-135550500D01*
X138111243Y-135550500D01*
X138329940Y-135509618D01*
X138537401Y-135429247D01*
X138726562Y-135312124D01*
X138890981Y-135162236D01*
X139025058Y-134984689D01*
X139124229Y-134785528D01*
X139185115Y-134571536D01*
X139205643Y-134350000D01*
X139202264Y-134313539D01*
X139185115Y-134128464D01*
X139185114Y-134128462D01*
X139184354Y-134125792D01*
X139124229Y-133914472D01*
X139124224Y-133914461D01*
X139025061Y-133715316D01*
X139025056Y-133715308D01*
X138890979Y-133537761D01*
X138726562Y-133387876D01*
X138726560Y-133387874D01*
X138537404Y-133270754D01*
X138537398Y-133270752D01*
X138329940Y-133190382D01*
X138111243Y-133149500D01*
X137888757Y-133149500D01*
X137670060Y-133190382D01*
X137591682Y-133220746D01*
X137462601Y-133270752D01*
X137462595Y-133270754D01*
X137273439Y-133387874D01*
X137273437Y-133387876D01*
X137109020Y-133537761D01*
X136974943Y-133715308D01*
X136974938Y-133715316D01*
X136875775Y-133914461D01*
X136875769Y-133914476D01*
X136814885Y-134128462D01*
X136814884Y-134128464D01*
X136794357Y-134349999D01*
X135500500Y-134349999D01*
X135500500Y-129999999D01*
X136794357Y-129999999D01*
X136794357Y-130000000D01*
X136814884Y-130221535D01*
X136814885Y-130221537D01*
X136875769Y-130435523D01*
X136875775Y-130435538D01*
X136974938Y-130634683D01*
X136974943Y-130634691D01*
X137109020Y-130812238D01*
X137273437Y-130962123D01*
X137273439Y-130962125D01*
X137462595Y-131079245D01*
X137462596Y-131079245D01*
X137462599Y-131079247D01*
X137670060Y-131159618D01*
X137888757Y-131200500D01*
X137888759Y-131200500D01*
X138111241Y-131200500D01*
X138111243Y-131200500D01*
X138329940Y-131159618D01*
X138537401Y-131079247D01*
X138726562Y-130962124D01*
X138890981Y-130812236D01*
X139025058Y-130634689D01*
X139124229Y-130435528D01*
X139185115Y-130221536D01*
X139205643Y-130000000D01*
X139185115Y-129778464D01*
X139124229Y-129564472D01*
X139124224Y-129564461D01*
X139025061Y-129365316D01*
X139025056Y-129365308D01*
X138890979Y-129187761D01*
X138726562Y-129037876D01*
X138726560Y-129037874D01*
X138537404Y-128920754D01*
X138537398Y-128920752D01*
X138329940Y-128840382D01*
X138111243Y-128799500D01*
X137888757Y-128799500D01*
X137670060Y-128840382D01*
X137538864Y-128891207D01*
X137462601Y-128920752D01*
X137462595Y-128920754D01*
X137273439Y-129037874D01*
X137273437Y-129037876D01*
X137109020Y-129187761D01*
X136974943Y-129365308D01*
X136974938Y-129365316D01*
X136875775Y-129564461D01*
X136875769Y-129564476D01*
X136814885Y-129778462D01*
X136814884Y-129778464D01*
X136794357Y-129999999D01*
X135500500Y-129999999D01*
X135500500Y-120202135D01*
X145749500Y-120202135D01*
X145749500Y-123797870D01*
X145749501Y-123797876D01*
X145755908Y-123857483D01*
X145806202Y-123992328D01*
X145806206Y-123992335D01*
X145892452Y-124107544D01*
X145892455Y-124107547D01*
X146007664Y-124193793D01*
X146007671Y-124193797D01*
X146142517Y-124244091D01*
X146142516Y-124244091D01*
X146149444Y-124244835D01*
X146202127Y-124250500D01*
X149797872Y-124250499D01*
X149857483Y-124244091D01*
X149992331Y-124193796D01*
X150107546Y-124107546D01*
X150193796Y-123992331D01*
X150244091Y-123857483D01*
X150250500Y-123797873D01*
X150250499Y-121881902D01*
X159699500Y-121881902D01*
X159699500Y-128518097D01*
X159736446Y-128751368D01*
X159809433Y-128975996D01*
X159892699Y-129139414D01*
X159916657Y-129186434D01*
X160046623Y-129365316D01*
X160055484Y-129377511D01*
X163663181Y-132985208D01*
X163696666Y-133046531D01*
X163699500Y-133072889D01*
X163699500Y-137918097D01*
X163736446Y-138151368D01*
X163809433Y-138375996D01*
X163887520Y-138529249D01*
X163916657Y-138586433D01*
X164055483Y-138777510D01*
X164222490Y-138944517D01*
X164413567Y-139083343D01*
X164451693Y-139102769D01*
X164624003Y-139190566D01*
X164624005Y-139190566D01*
X164624008Y-139190568D01*
X164744412Y-139229689D01*
X164848631Y-139263553D01*
X165081903Y-139300500D01*
X165081908Y-139300500D01*
X165318097Y-139300500D01*
X165551368Y-139263553D01*
X165636379Y-139235931D01*
X165775992Y-139190568D01*
X165986433Y-139083343D01*
X166177510Y-138944517D01*
X166344517Y-138777510D01*
X166483343Y-138586433D01*
X166590568Y-138375992D01*
X166663553Y-138151368D01*
X166682688Y-138030554D01*
X166700500Y-137918097D01*
X166700500Y-133755000D01*
X181554659Y-133755000D01*
X181573975Y-133951129D01*
X181573976Y-133951132D01*
X181629234Y-134133293D01*
X181631187Y-134139729D01*
X181632321Y-134141850D01*
X181632580Y-134143094D01*
X181633518Y-134145359D01*
X181633088Y-134145536D01*
X181646564Y-134210253D01*
X181622233Y-134274614D01*
X181616205Y-134282666D01*
X181616202Y-134282671D01*
X181565908Y-134417517D01*
X181559501Y-134477116D01*
X181559500Y-134477135D01*
X181559500Y-135572870D01*
X181559501Y-135572876D01*
X181565908Y-135632483D01*
X181616202Y-135767328D01*
X181616206Y-135767335D01*
X181702452Y-135882544D01*
X181702455Y-135882547D01*
X181817664Y-135968793D01*
X181817671Y-135968797D01*
X181952517Y-136019091D01*
X181952516Y-136019091D01*
X181959444Y-136019835D01*
X182012127Y-136025500D01*
X183107872Y-136025499D01*
X183167483Y-136019091D01*
X183302331Y-135968796D01*
X183417546Y-135882546D01*
X183503796Y-135767331D01*
X183554091Y-135632483D01*
X183560500Y-135572873D01*
X183560499Y-134870609D01*
X183580183Y-134803571D01*
X183632987Y-134757816D01*
X183696650Y-134747207D01*
X183830000Y-134760341D01*
X184026132Y-134741024D01*
X184214727Y-134683814D01*
X184388538Y-134590910D01*
X184388544Y-134590904D01*
X184393607Y-134587523D01*
X184394703Y-134589164D01*
X184450639Y-134565405D01*
X184519507Y-134577194D01*
X184536148Y-134587888D01*
X184536393Y-134587523D01*
X184541458Y-134590907D01*
X184541462Y-134590910D01*
X184715273Y-134683814D01*
X184903868Y-134741024D01*
X185100000Y-134760341D01*
X185243208Y-134746236D01*
X185311852Y-134759255D01*
X185362562Y-134807320D01*
X185379237Y-134875170D01*
X185378763Y-134881793D01*
X185364659Y-135024999D01*
X185383975Y-135221129D01*
X185383976Y-135221132D01*
X185433064Y-135382954D01*
X185441188Y-135409733D01*
X185534086Y-135583532D01*
X185534090Y-135583539D01*
X185659116Y-135735883D01*
X185811460Y-135860909D01*
X185811467Y-135860913D01*
X185985266Y-135953811D01*
X185985269Y-135953811D01*
X185985273Y-135953814D01*
X186173868Y-136011024D01*
X186370000Y-136030341D01*
X186566132Y-136011024D01*
X186754727Y-135953814D01*
X186760969Y-135950478D01*
X186888060Y-135882546D01*
X186928538Y-135860910D01*
X187080883Y-135735883D01*
X187205910Y-135583538D01*
X187260535Y-135481342D01*
X187298811Y-135409733D01*
X187298811Y-135409732D01*
X187298814Y-135409727D01*
X187356024Y-135221132D01*
X187375341Y-135025000D01*
X187361236Y-134881791D01*
X187374255Y-134813147D01*
X187422320Y-134762437D01*
X187490170Y-134745762D01*
X187496771Y-134746234D01*
X187640000Y-134760341D01*
X187836132Y-134741024D01*
X188024727Y-134683814D01*
X188198538Y-134590910D01*
X188350883Y-134465883D01*
X188475910Y-134313538D01*
X188531117Y-134210253D01*
X188568811Y-134139733D01*
X188568811Y-134139732D01*
X188568814Y-134139727D01*
X188626024Y-133951132D01*
X188645341Y-133755000D01*
X188626024Y-133558868D01*
X188568814Y-133370273D01*
X188568811Y-133370269D01*
X188568811Y-133370266D01*
X188475913Y-133196467D01*
X188475909Y-133196460D01*
X188350884Y-133044118D01*
X188335833Y-133031765D01*
X188296500Y-132974019D01*
X188290500Y-132935914D01*
X188290500Y-131880807D01*
X188310185Y-131813768D01*
X188326815Y-131793130D01*
X188698224Y-131421720D01*
X188759545Y-131388237D01*
X188772019Y-131386183D01*
X188779255Y-131385368D01*
X188949522Y-131325789D01*
X189102262Y-131229816D01*
X189229816Y-131102262D01*
X189325789Y-130949522D01*
X189385368Y-130779255D01*
X189391769Y-130722445D01*
X189405565Y-130600003D01*
X189405565Y-130599996D01*
X189385369Y-130420750D01*
X189385368Y-130420745D01*
X189325788Y-130250476D01*
X189279126Y-130176214D01*
X189229816Y-130097738D01*
X189102262Y-129970184D01*
X188984072Y-129895920D01*
X188949523Y-129874211D01*
X188779254Y-129814631D01*
X188779249Y-129814630D01*
X188600004Y-129794435D01*
X188599996Y-129794435D01*
X188420750Y-129814630D01*
X188420745Y-129814631D01*
X188250476Y-129874211D01*
X188097737Y-129970184D01*
X187970184Y-130097737D01*
X187874210Y-130250478D01*
X187814632Y-130420744D01*
X187814630Y-130420752D01*
X187813815Y-130427988D01*
X187786743Y-130492400D01*
X187778277Y-130501775D01*
X187134724Y-131145328D01*
X187081775Y-131224574D01*
X187063535Y-131251872D01*
X187014499Y-131370255D01*
X187014497Y-131370261D01*
X186989500Y-131495928D01*
X186989500Y-132744792D01*
X186969815Y-132811831D01*
X186917011Y-132857586D01*
X186847853Y-132867530D01*
X186807048Y-132854151D01*
X186754731Y-132826188D01*
X186754730Y-132826187D01*
X186754727Y-132826186D01*
X186566132Y-132768976D01*
X186566129Y-132768975D01*
X186370000Y-132749659D01*
X186173870Y-132768975D01*
X185985266Y-132826188D01*
X185811467Y-132919086D01*
X185806399Y-132922473D01*
X185805305Y-132920836D01*
X185749337Y-132944596D01*
X185680471Y-132932795D01*
X185663843Y-132922109D01*
X185663601Y-132922473D01*
X185658532Y-132919086D01*
X185484733Y-132826188D01*
X185484727Y-132826186D01*
X185296132Y-132768976D01*
X185296129Y-132768975D01*
X185100000Y-132749659D01*
X184903870Y-132768975D01*
X184715266Y-132826188D01*
X184541467Y-132919086D01*
X184536399Y-132922473D01*
X184535305Y-132920836D01*
X184479337Y-132944596D01*
X184410471Y-132932795D01*
X184393843Y-132922109D01*
X184393601Y-132922473D01*
X184388532Y-132919086D01*
X184214733Y-132826188D01*
X184214727Y-132826186D01*
X184026132Y-132768976D01*
X184026129Y-132768975D01*
X183830000Y-132749659D01*
X183633870Y-132768975D01*
X183445266Y-132826188D01*
X183271467Y-132919086D01*
X183266399Y-132922473D01*
X183265305Y-132920836D01*
X183209337Y-132944596D01*
X183140471Y-132932795D01*
X183123843Y-132922109D01*
X183123601Y-132922473D01*
X183118532Y-132919086D01*
X182944733Y-132826188D01*
X182944727Y-132826186D01*
X182756132Y-132768976D01*
X182756129Y-132768975D01*
X182560000Y-132749659D01*
X182363870Y-132768975D01*
X182175266Y-132826188D01*
X182001467Y-132919086D01*
X182001460Y-132919090D01*
X181849116Y-133044116D01*
X181724090Y-133196460D01*
X181724086Y-133196467D01*
X181631188Y-133370266D01*
X181573975Y-133558870D01*
X181554659Y-133755000D01*
X166700500Y-133755000D01*
X166700500Y-132281902D01*
X166663553Y-132048631D01*
X166615836Y-131901776D01*
X166590568Y-131824008D01*
X166552729Y-131749744D01*
X166483343Y-131613566D01*
X166344517Y-131422490D01*
X162736819Y-127814792D01*
X162703334Y-127753469D01*
X162700500Y-127727111D01*
X162700500Y-124799996D01*
X184394435Y-124799996D01*
X184394435Y-124800003D01*
X184414630Y-124979249D01*
X184414631Y-124979254D01*
X184474211Y-125149523D01*
X184518863Y-125220585D01*
X184570184Y-125302262D01*
X184697738Y-125429816D01*
X184850478Y-125525789D01*
X185014175Y-125583069D01*
X185020745Y-125585368D01*
X185020750Y-125585369D01*
X185199996Y-125605565D01*
X185200000Y-125605565D01*
X185200004Y-125605565D01*
X185379249Y-125585369D01*
X185379252Y-125585368D01*
X185379255Y-125585368D01*
X185549522Y-125525789D01*
X185702262Y-125429816D01*
X185829816Y-125302262D01*
X185925789Y-125149522D01*
X185925792Y-125149510D01*
X185928810Y-125143248D01*
X185930650Y-125144134D01*
X185953305Y-125108061D01*
X189058059Y-122003306D01*
X189094132Y-121980657D01*
X189093244Y-121978813D01*
X189099515Y-121975792D01*
X189099516Y-121975790D01*
X189099522Y-121975789D01*
X189252262Y-121879816D01*
X189379816Y-121752262D01*
X189475789Y-121599522D01*
X189535368Y-121429255D01*
X189535369Y-121429249D01*
X189555565Y-121250003D01*
X189555565Y-121249996D01*
X189535369Y-121070750D01*
X189535368Y-121070745D01*
X189518482Y-121022487D01*
X189475789Y-120900478D01*
X189438705Y-120841460D01*
X189396025Y-120773534D01*
X189379816Y-120747738D01*
X189379815Y-120747737D01*
X189376111Y-120741842D01*
X189378409Y-120740397D01*
X189356659Y-120687151D01*
X189369401Y-120618453D01*
X189417261Y-120567550D01*
X189480012Y-120550500D01*
X189579192Y-120550500D01*
X189646231Y-120570185D01*
X189666873Y-120586819D01*
X190564608Y-121484554D01*
X190598093Y-121545877D01*
X190593109Y-121615569D01*
X190581923Y-121638204D01*
X190574209Y-121650481D01*
X190514633Y-121820737D01*
X190514630Y-121820750D01*
X190494435Y-121999996D01*
X190494435Y-122000003D01*
X190514630Y-122179249D01*
X190514631Y-122179254D01*
X190574211Y-122349523D01*
X190637646Y-122450478D01*
X190670184Y-122502262D01*
X190797738Y-122629816D01*
X190860904Y-122669506D01*
X190942450Y-122720745D01*
X190950478Y-122725789D01*
X191120739Y-122785366D01*
X191120745Y-122785368D01*
X191120750Y-122785369D01*
X191299996Y-122805565D01*
X191300000Y-122805565D01*
X191300004Y-122805565D01*
X191479249Y-122785369D01*
X191479251Y-122785368D01*
X191479255Y-122785368D01*
X191479258Y-122785366D01*
X191479262Y-122785366D01*
X191569377Y-122753832D01*
X191649522Y-122725789D01*
X191739096Y-122669505D01*
X191805068Y-122650500D01*
X192159952Y-122650500D01*
X192226991Y-122670185D01*
X192247633Y-122686819D01*
X193268657Y-123707843D01*
X193302142Y-123769166D01*
X193304195Y-123781632D01*
X193305010Y-123788866D01*
X193305012Y-123788875D01*
X193364590Y-123959141D01*
X193457840Y-124107547D01*
X193460564Y-124111882D01*
X193588118Y-124239436D01*
X193740858Y-124335409D01*
X193883630Y-124385367D01*
X193911125Y-124394988D01*
X193911130Y-124394989D01*
X194090376Y-124415185D01*
X194090380Y-124415185D01*
X194090384Y-124415185D01*
X194269629Y-124394989D01*
X194269632Y-124394988D01*
X194269635Y-124394988D01*
X194439902Y-124335409D01*
X194592642Y-124239436D01*
X194720196Y-124111882D01*
X194816169Y-123959142D01*
X194875748Y-123788875D01*
X194883147Y-123723211D01*
X194894123Y-123625788D01*
X194895945Y-123609620D01*
X194895944Y-123609617D01*
X194896196Y-123607387D01*
X194923262Y-123542973D01*
X194980856Y-123503418D01*
X195033300Y-123498050D01*
X195099997Y-123505565D01*
X195100000Y-123505565D01*
X195100004Y-123505565D01*
X195279249Y-123485369D01*
X195279252Y-123485368D01*
X195279255Y-123485368D01*
X195449522Y-123425789D01*
X195602262Y-123329816D01*
X195729816Y-123202262D01*
X195825789Y-123049522D01*
X195885368Y-122879255D01*
X195885369Y-122879249D01*
X195905565Y-122700003D01*
X195905565Y-122699996D01*
X195885369Y-122520750D01*
X195885368Y-122520745D01*
X195825789Y-122350478D01*
X195825188Y-122349522D01*
X195729815Y-122197737D01*
X195602262Y-122070184D01*
X195449521Y-121974210D01*
X195279255Y-121914632D01*
X195279246Y-121914630D01*
X195272012Y-121913815D01*
X195207600Y-121886744D01*
X195198223Y-121878277D01*
X194164674Y-120844727D01*
X194164673Y-120844726D01*
X194164669Y-120844723D01*
X194058127Y-120773535D01*
X193995845Y-120747737D01*
X193939744Y-120724499D01*
X193939738Y-120724497D01*
X193814071Y-120699500D01*
X193814069Y-120699500D01*
X191670808Y-120699500D01*
X191603769Y-120679815D01*
X191583127Y-120663181D01*
X190314674Y-119394727D01*
X190314673Y-119394726D01*
X190314669Y-119394723D01*
X190208127Y-119323535D01*
X190089744Y-119274499D01*
X190089738Y-119274497D01*
X189964071Y-119249500D01*
X189964069Y-119249500D01*
X189405068Y-119249500D01*
X189339096Y-119230494D01*
X189249522Y-119174210D01*
X189249518Y-119174209D01*
X189079262Y-119114633D01*
X189079249Y-119114630D01*
X188900004Y-119094435D01*
X188899996Y-119094435D01*
X188720750Y-119114630D01*
X188720745Y-119114631D01*
X188550476Y-119174211D01*
X188397737Y-119270184D01*
X188270184Y-119397737D01*
X188174211Y-119550476D01*
X188114631Y-119720745D01*
X188114630Y-119720750D01*
X188094435Y-119899996D01*
X188094435Y-119900003D01*
X188114630Y-120079249D01*
X188114631Y-120079254D01*
X188174211Y-120249523D01*
X188270184Y-120402262D01*
X188285404Y-120417482D01*
X188318889Y-120478805D01*
X188313905Y-120548497D01*
X188272033Y-120604430D01*
X188263698Y-120610155D01*
X188247739Y-120620183D01*
X188247737Y-120620184D01*
X188120184Y-120747737D01*
X188061293Y-120841462D01*
X188024510Y-120900003D01*
X188024208Y-120900483D01*
X188021186Y-120906758D01*
X188019361Y-120905878D01*
X187996692Y-120941939D01*
X184891937Y-124046693D01*
X184855873Y-124069370D01*
X184856750Y-124071191D01*
X184850475Y-124074212D01*
X184697737Y-124170184D01*
X184570184Y-124297737D01*
X184474211Y-124450476D01*
X184414631Y-124620745D01*
X184414630Y-124620750D01*
X184394435Y-124799996D01*
X162700500Y-124799996D01*
X162700500Y-121881902D01*
X162663553Y-121648631D01*
X162624947Y-121529815D01*
X162590568Y-121424008D01*
X162590566Y-121424005D01*
X162590566Y-121424003D01*
X162501908Y-121250003D01*
X162483343Y-121213567D01*
X162344517Y-121022490D01*
X162177510Y-120855483D01*
X161986433Y-120716657D01*
X161977756Y-120712236D01*
X161775996Y-120609433D01*
X161551368Y-120536446D01*
X161318097Y-120499500D01*
X161318092Y-120499500D01*
X161081908Y-120499500D01*
X161081903Y-120499500D01*
X160848631Y-120536446D01*
X160624003Y-120609433D01*
X160413566Y-120716657D01*
X160335281Y-120773535D01*
X160222490Y-120855483D01*
X160222488Y-120855485D01*
X160222487Y-120855485D01*
X160055485Y-121022487D01*
X160055485Y-121022488D01*
X160055483Y-121022490D01*
X160014241Y-121079255D01*
X159916657Y-121213566D01*
X159809433Y-121424003D01*
X159736446Y-121648631D01*
X159699500Y-121881902D01*
X150250499Y-121881902D01*
X150250499Y-120202128D01*
X150244091Y-120142517D01*
X150237851Y-120125788D01*
X150193797Y-120007671D01*
X150193793Y-120007664D01*
X150107547Y-119892455D01*
X150107544Y-119892452D01*
X149992335Y-119806206D01*
X149992328Y-119806202D01*
X149857482Y-119755908D01*
X149857483Y-119755908D01*
X149797883Y-119749501D01*
X149797881Y-119749500D01*
X149797873Y-119749500D01*
X149797864Y-119749500D01*
X146202129Y-119749500D01*
X146202123Y-119749501D01*
X146142516Y-119755908D01*
X146007671Y-119806202D01*
X146007664Y-119806206D01*
X145892455Y-119892452D01*
X145892452Y-119892455D01*
X145806206Y-120007664D01*
X145806202Y-120007671D01*
X145755908Y-120142517D01*
X145749675Y-120200500D01*
X145749501Y-120202123D01*
X145749500Y-120202135D01*
X135500500Y-120202135D01*
X135500500Y-118999999D01*
X136794357Y-118999999D01*
X136794357Y-119000000D01*
X136814884Y-119221535D01*
X136814885Y-119221537D01*
X136875769Y-119435523D01*
X136875775Y-119435538D01*
X136974938Y-119634683D01*
X136974943Y-119634691D01*
X137109020Y-119812238D01*
X137273437Y-119962123D01*
X137273439Y-119962125D01*
X137462595Y-120079245D01*
X137462596Y-120079245D01*
X137462599Y-120079247D01*
X137670060Y-120159618D01*
X137888757Y-120200500D01*
X137888759Y-120200500D01*
X138111241Y-120200500D01*
X138111243Y-120200500D01*
X138329940Y-120159618D01*
X138537401Y-120079247D01*
X138726562Y-119962124D01*
X138890981Y-119812236D01*
X139025058Y-119634689D01*
X139124229Y-119435528D01*
X139134339Y-119399996D01*
X155194435Y-119399996D01*
X155194435Y-119400003D01*
X155214630Y-119579249D01*
X155214631Y-119579254D01*
X155274211Y-119749523D01*
X155328492Y-119835910D01*
X155370184Y-119902262D01*
X155497738Y-120029816D01*
X155576404Y-120079245D01*
X155643707Y-120121535D01*
X155650478Y-120125789D01*
X155820745Y-120185368D01*
X155930586Y-120197743D01*
X155964140Y-120206399D01*
X156010256Y-120225501D01*
X156010260Y-120225501D01*
X156010261Y-120225502D01*
X156135928Y-120250500D01*
X156135931Y-120250500D01*
X162279192Y-120250500D01*
X162346231Y-120270185D01*
X162366873Y-120286819D01*
X164385325Y-122305272D01*
X164385328Y-122305275D01*
X164468305Y-122360718D01*
X164468304Y-122360718D01*
X164491871Y-122376464D01*
X164491872Y-122376464D01*
X164491873Y-122376465D01*
X164610256Y-122425501D01*
X164610260Y-122425501D01*
X164610261Y-122425502D01*
X164735928Y-122450500D01*
X164735931Y-122450500D01*
X185464071Y-122450500D01*
X185548615Y-122433682D01*
X185589744Y-122425501D01*
X185708127Y-122376465D01*
X185731696Y-122360717D01*
X185814669Y-122305277D01*
X186398224Y-121721720D01*
X186459545Y-121688237D01*
X186472019Y-121686183D01*
X186479255Y-121685368D01*
X186649522Y-121625789D01*
X186802262Y-121529816D01*
X186929816Y-121402262D01*
X187025789Y-121249522D01*
X187085368Y-121079255D01*
X187085369Y-121079249D01*
X187105565Y-120900003D01*
X187105565Y-120899996D01*
X187085369Y-120720750D01*
X187085368Y-120720745D01*
X187074301Y-120689117D01*
X187025789Y-120550478D01*
X187024544Y-120548497D01*
X186937162Y-120409429D01*
X186929816Y-120397738D01*
X186802262Y-120270184D01*
X186769379Y-120249522D01*
X186649523Y-120174211D01*
X186479245Y-120114628D01*
X186476641Y-120114034D01*
X186475129Y-120113188D01*
X186472682Y-120112332D01*
X186472832Y-120111903D01*
X186415665Y-120079922D01*
X186382812Y-120018258D01*
X186388511Y-119948621D01*
X186416558Y-119905467D01*
X188291918Y-118030108D01*
X188353239Y-117996625D01*
X188422931Y-118001609D01*
X188445569Y-118012798D01*
X188592475Y-118105106D01*
X188592479Y-118105107D01*
X188592480Y-118105108D01*
X188762747Y-118164687D01*
X188769976Y-118165501D01*
X188834390Y-118192565D01*
X188843768Y-118201031D01*
X188948014Y-118305277D01*
X189033234Y-118362218D01*
X189033233Y-118362218D01*
X189037870Y-118365316D01*
X189054556Y-118376465D01*
X189172939Y-118425501D01*
X189172943Y-118425501D01*
X189172944Y-118425502D01*
X189298611Y-118450500D01*
X189298614Y-118450500D01*
X193016588Y-118450500D01*
X193083627Y-118470185D01*
X193129382Y-118522989D01*
X193133624Y-118533531D01*
X193139562Y-118550500D01*
X193174210Y-118649521D01*
X193174211Y-118649522D01*
X193270184Y-118802262D01*
X193397738Y-118929816D01*
X193429065Y-118949500D01*
X193546890Y-119023535D01*
X193550478Y-119025789D01*
X193720739Y-119085366D01*
X193720745Y-119085368D01*
X193720750Y-119085369D01*
X193899996Y-119105565D01*
X193900000Y-119105565D01*
X193900004Y-119105565D01*
X194079249Y-119085369D01*
X194079251Y-119085368D01*
X194079255Y-119085368D01*
X194079258Y-119085366D01*
X194079262Y-119085366D01*
X194185929Y-119048041D01*
X194233006Y-119031567D01*
X194302784Y-119028005D01*
X194361642Y-119060928D01*
X196662624Y-121361910D01*
X196696109Y-121423233D01*
X196698346Y-121437437D01*
X196713975Y-121596129D01*
X196713976Y-121596132D01*
X196742766Y-121691041D01*
X196771188Y-121784733D01*
X196864086Y-121958532D01*
X196864090Y-121958539D01*
X196989116Y-122110883D01*
X197004161Y-122123229D01*
X197043498Y-122180973D01*
X197049500Y-122219085D01*
X197049500Y-122394931D01*
X197030494Y-122460903D01*
X196974211Y-122550477D01*
X196974209Y-122550481D01*
X196914633Y-122720737D01*
X196914630Y-122720750D01*
X196894435Y-122899996D01*
X196894435Y-122900003D01*
X196914630Y-123079249D01*
X196914631Y-123079254D01*
X196974211Y-123249523D01*
X196993441Y-123280127D01*
X197070184Y-123402262D01*
X197197738Y-123529816D01*
X197350478Y-123625789D01*
X197520745Y-123685368D01*
X197520750Y-123685369D01*
X197699996Y-123705565D01*
X197700000Y-123705565D01*
X197700004Y-123705565D01*
X197879249Y-123685369D01*
X197879252Y-123685368D01*
X197879255Y-123685368D01*
X198049522Y-123625789D01*
X198090571Y-123599996D01*
X198894435Y-123599996D01*
X198894435Y-123600003D01*
X198914630Y-123779249D01*
X198914631Y-123779254D01*
X198974211Y-123949523D01*
X199050661Y-124071191D01*
X199070184Y-124102262D01*
X199197738Y-124229816D01*
X199350478Y-124325789D01*
X199520745Y-124385368D01*
X199541649Y-124387722D01*
X199596657Y-124407840D01*
X199676794Y-124461386D01*
X199795177Y-124510422D01*
X199795181Y-124510422D01*
X199795182Y-124510423D01*
X199920849Y-124535421D01*
X199920852Y-124535421D01*
X203429150Y-124535421D01*
X203533658Y-124514632D01*
X203554823Y-124510422D01*
X203673206Y-124461386D01*
X203698469Y-124444506D01*
X203753345Y-124407838D01*
X203808350Y-124387723D01*
X203829255Y-124385368D01*
X203999522Y-124325789D01*
X204152262Y-124229816D01*
X204279816Y-124102262D01*
X204375789Y-123949522D01*
X204435368Y-123779255D01*
X204436505Y-123769166D01*
X204455565Y-123600003D01*
X204455565Y-123600001D01*
X204455565Y-123600000D01*
X204454256Y-123588384D01*
X204466309Y-123519564D01*
X204513657Y-123468184D01*
X204577476Y-123450500D01*
X208950500Y-123450500D01*
X209017539Y-123470185D01*
X209063294Y-123522989D01*
X209074500Y-123574500D01*
X209074500Y-125297870D01*
X209074501Y-125297876D01*
X209080908Y-125357483D01*
X209131202Y-125492328D01*
X209131206Y-125492335D01*
X209217452Y-125607544D01*
X209217455Y-125607547D01*
X209332664Y-125693793D01*
X209332671Y-125693797D01*
X209467517Y-125744091D01*
X209467516Y-125744091D01*
X209474444Y-125744835D01*
X209527127Y-125750500D01*
X211322872Y-125750499D01*
X211382483Y-125744091D01*
X211517331Y-125693796D01*
X211632546Y-125607546D01*
X211718796Y-125492331D01*
X211769091Y-125357483D01*
X211775500Y-125297873D01*
X211775499Y-124213389D01*
X215424500Y-124213389D01*
X215424500Y-124386610D01*
X215444776Y-124514632D01*
X215451598Y-124557701D01*
X215505127Y-124722445D01*
X215583768Y-124876788D01*
X215685586Y-125016928D01*
X215808072Y-125139414D01*
X215821986Y-125149523D01*
X215891023Y-125199683D01*
X215933689Y-125255013D01*
X215939667Y-125324626D01*
X215907061Y-125386421D01*
X215891023Y-125400317D01*
X215808078Y-125460581D01*
X215808069Y-125460588D01*
X215685588Y-125583069D01*
X215685588Y-125583070D01*
X215685586Y-125583072D01*
X215662656Y-125614633D01*
X215583768Y-125723211D01*
X215505128Y-125877552D01*
X215451597Y-126042302D01*
X215436342Y-126138621D01*
X215424500Y-126213389D01*
X215424500Y-126386611D01*
X215451598Y-126557701D01*
X215505127Y-126722445D01*
X215583768Y-126876788D01*
X215685586Y-127016928D01*
X215808072Y-127139414D01*
X215808078Y-127139418D01*
X215891023Y-127199683D01*
X215933689Y-127255013D01*
X215939667Y-127324626D01*
X215907061Y-127386421D01*
X215891023Y-127400317D01*
X215808078Y-127460581D01*
X215808069Y-127460588D01*
X215685588Y-127583069D01*
X215685588Y-127583070D01*
X215685586Y-127583072D01*
X215681625Y-127588524D01*
X215583768Y-127723211D01*
X215505128Y-127877552D01*
X215451597Y-128042302D01*
X215428932Y-128185408D01*
X215424500Y-128213389D01*
X215424500Y-128386611D01*
X215431141Y-128428541D01*
X215445324Y-128518092D01*
X215451598Y-128557701D01*
X215505127Y-128722445D01*
X215583768Y-128876788D01*
X215685586Y-129016928D01*
X215808072Y-129139414D01*
X215808078Y-129139418D01*
X215891023Y-129199683D01*
X215933689Y-129255013D01*
X215939667Y-129324626D01*
X215907061Y-129386421D01*
X215891023Y-129400317D01*
X215808078Y-129460581D01*
X215808069Y-129460588D01*
X215685588Y-129583069D01*
X215685588Y-129583070D01*
X215685586Y-129583072D01*
X215658221Y-129620737D01*
X215583768Y-129723211D01*
X215505128Y-129877552D01*
X215451597Y-130042302D01*
X215434615Y-130149523D01*
X215424500Y-130213389D01*
X215424500Y-130386611D01*
X215431343Y-130429815D01*
X215446543Y-130525789D01*
X215451598Y-130557701D01*
X215505127Y-130722445D01*
X215583768Y-130876788D01*
X215685586Y-131016928D01*
X215808072Y-131139414D01*
X215808078Y-131139418D01*
X215891023Y-131199683D01*
X215933689Y-131255013D01*
X215939667Y-131324626D01*
X215907061Y-131386421D01*
X215891023Y-131400317D01*
X215808078Y-131460581D01*
X215808069Y-131460588D01*
X215685588Y-131583069D01*
X215685588Y-131583070D01*
X215685586Y-131583072D01*
X215663431Y-131613566D01*
X215583768Y-131723211D01*
X215505128Y-131877552D01*
X215451597Y-132042302D01*
X215424500Y-132213389D01*
X215424500Y-132386611D01*
X215451598Y-132557701D01*
X215505127Y-132722445D01*
X215583768Y-132876788D01*
X215685586Y-133016928D01*
X215808072Y-133139414D01*
X215948212Y-133241232D01*
X216102555Y-133319873D01*
X216267299Y-133373402D01*
X216438389Y-133400500D01*
X216438390Y-133400500D01*
X217161610Y-133400500D01*
X217161611Y-133400500D01*
X217332701Y-133373402D01*
X217497445Y-133319873D01*
X217651788Y-133241232D01*
X217791928Y-133139414D01*
X217914414Y-133016928D01*
X218016232Y-132876788D01*
X218094873Y-132722445D01*
X218148402Y-132557701D01*
X218175500Y-132386611D01*
X218175500Y-132213389D01*
X218148402Y-132042299D01*
X218094873Y-131877555D01*
X218016232Y-131723212D01*
X217914414Y-131583072D01*
X217791928Y-131460586D01*
X217708975Y-131400317D01*
X217666311Y-131344988D01*
X217660332Y-131275374D01*
X217692938Y-131213579D01*
X217708976Y-131199682D01*
X217716198Y-131194435D01*
X217791928Y-131139414D01*
X217914414Y-131016928D01*
X218016232Y-130876788D01*
X218094873Y-130722445D01*
X218148402Y-130557701D01*
X218175500Y-130386611D01*
X218175500Y-130213389D01*
X218148402Y-130042299D01*
X218094873Y-129877555D01*
X218016232Y-129723212D01*
X217914414Y-129583072D01*
X217791928Y-129460586D01*
X217708975Y-129400317D01*
X217666311Y-129344988D01*
X217660332Y-129275374D01*
X217692938Y-129213579D01*
X217708976Y-129199682D01*
X217791928Y-129139414D01*
X217914414Y-129016928D01*
X218016232Y-128876788D01*
X218094873Y-128722445D01*
X218148402Y-128557701D01*
X218175500Y-128386611D01*
X218175500Y-128213389D01*
X218148402Y-128042299D01*
X218094873Y-127877555D01*
X218016232Y-127723212D01*
X217914414Y-127583072D01*
X217791928Y-127460586D01*
X217708975Y-127400317D01*
X217666311Y-127344988D01*
X217660332Y-127275374D01*
X217692938Y-127213579D01*
X217708976Y-127199682D01*
X217791928Y-127139414D01*
X217914414Y-127016928D01*
X218016232Y-126876788D01*
X218094873Y-126722445D01*
X218148402Y-126557701D01*
X218175500Y-126386611D01*
X218175500Y-126213389D01*
X218148402Y-126042299D01*
X218094873Y-125877555D01*
X218016232Y-125723212D01*
X217914414Y-125583072D01*
X217791928Y-125460586D01*
X217708975Y-125400317D01*
X217666311Y-125344988D01*
X217660332Y-125275374D01*
X217692938Y-125213579D01*
X217708976Y-125199682D01*
X217791928Y-125139414D01*
X217914414Y-125016928D01*
X218016232Y-124876788D01*
X218094873Y-124722445D01*
X218148402Y-124557701D01*
X218175500Y-124386611D01*
X218175500Y-124213389D01*
X218148402Y-124042299D01*
X218094873Y-123877555D01*
X218016232Y-123723212D01*
X217914414Y-123583072D01*
X217791928Y-123460586D01*
X217651788Y-123358768D01*
X217497445Y-123280127D01*
X217332701Y-123226598D01*
X217332699Y-123226597D01*
X217332698Y-123226597D01*
X217201271Y-123205781D01*
X217161611Y-123199500D01*
X216438389Y-123199500D01*
X216398728Y-123205781D01*
X216267302Y-123226597D01*
X216102552Y-123280128D01*
X215948211Y-123358768D01*
X215888348Y-123402262D01*
X215808072Y-123460586D01*
X215808070Y-123460588D01*
X215808069Y-123460588D01*
X215685588Y-123583069D01*
X215685588Y-123583070D01*
X215685586Y-123583072D01*
X215673285Y-123600003D01*
X215583768Y-123723211D01*
X215505128Y-123877552D01*
X215451597Y-124042302D01*
X215424500Y-124213389D01*
X211775499Y-124213389D01*
X211775499Y-123502128D01*
X211769091Y-123442517D01*
X211762851Y-123425788D01*
X211718797Y-123307671D01*
X211718793Y-123307664D01*
X211632547Y-123192455D01*
X211632544Y-123192452D01*
X211517335Y-123106206D01*
X211517328Y-123106202D01*
X211382482Y-123055908D01*
X211382483Y-123055908D01*
X211322883Y-123049501D01*
X211322881Y-123049500D01*
X211322873Y-123049500D01*
X211322865Y-123049500D01*
X210616209Y-123049500D01*
X210549170Y-123029815D01*
X210503415Y-122977011D01*
X210492989Y-122911616D01*
X210505565Y-122800002D01*
X210505565Y-122799996D01*
X210485369Y-122620750D01*
X210485368Y-122620745D01*
X210425789Y-122450478D01*
X210329816Y-122297738D01*
X210202262Y-122170184D01*
X210139096Y-122130494D01*
X210049523Y-122074211D01*
X209879254Y-122014631D01*
X209879249Y-122014630D01*
X209700004Y-121994435D01*
X209699996Y-121994435D01*
X209520750Y-122014630D01*
X209520737Y-122014633D01*
X209350481Y-122074209D01*
X209350477Y-122074210D01*
X209260904Y-122130494D01*
X209194932Y-122149500D01*
X202920807Y-122149500D01*
X202853768Y-122129815D01*
X202833126Y-122113181D01*
X202678484Y-121958539D01*
X202521722Y-121801776D01*
X202488237Y-121740453D01*
X202486182Y-121727973D01*
X202485368Y-121720745D01*
X202425789Y-121550478D01*
X202329816Y-121397738D01*
X202202262Y-121270184D01*
X202170144Y-121250003D01*
X202049523Y-121174211D01*
X201879254Y-121114631D01*
X201879249Y-121114630D01*
X201700004Y-121094435D01*
X201699996Y-121094435D01*
X201520750Y-121114630D01*
X201520745Y-121114631D01*
X201350476Y-121174211D01*
X201197737Y-121270184D01*
X201070184Y-121397737D01*
X200974211Y-121550476D01*
X200914631Y-121720745D01*
X200914630Y-121720750D01*
X200894435Y-121899996D01*
X200894435Y-121900003D01*
X200914630Y-122079249D01*
X200914631Y-122079254D01*
X200974211Y-122249523D01*
X201044080Y-122360718D01*
X201070184Y-122402262D01*
X201197738Y-122529816D01*
X201288080Y-122586582D01*
X201342450Y-122620745D01*
X201350478Y-122625789D01*
X201520745Y-122685368D01*
X201527974Y-122686182D01*
X201592388Y-122713246D01*
X201601776Y-122721722D01*
X201791670Y-122911616D01*
X201902795Y-123022740D01*
X201936280Y-123084063D01*
X201931296Y-123153754D01*
X201889425Y-123209688D01*
X201823960Y-123234105D01*
X201815114Y-123234421D01*
X200484232Y-123234421D01*
X200417193Y-123214736D01*
X200379238Y-123176393D01*
X200335136Y-123106206D01*
X200329816Y-123097738D01*
X200202262Y-122970184D01*
X200090570Y-122900003D01*
X200049523Y-122874211D01*
X199879254Y-122814631D01*
X199879249Y-122814630D01*
X199700004Y-122794435D01*
X199699996Y-122794435D01*
X199520750Y-122814630D01*
X199520745Y-122814631D01*
X199350476Y-122874211D01*
X199197737Y-122970184D01*
X199070184Y-123097737D01*
X198974211Y-123250476D01*
X198914631Y-123420745D01*
X198914630Y-123420750D01*
X198894435Y-123599996D01*
X198090571Y-123599996D01*
X198202262Y-123529816D01*
X198329816Y-123402262D01*
X198425789Y-123249522D01*
X198485368Y-123079255D01*
X198485369Y-123079249D01*
X198505565Y-122900003D01*
X198505565Y-122899996D01*
X198485369Y-122720750D01*
X198485366Y-122720737D01*
X198425790Y-122550481D01*
X198425789Y-122550478D01*
X198395493Y-122502262D01*
X198369506Y-122460903D01*
X198350500Y-122394931D01*
X198350500Y-122219085D01*
X198370185Y-122152046D01*
X198395839Y-122123229D01*
X198410883Y-122110883D01*
X198489874Y-122014633D01*
X198535910Y-121958538D01*
X198628814Y-121784727D01*
X198686024Y-121596132D01*
X198705341Y-121400000D01*
X198686024Y-121203868D01*
X198628814Y-121015273D01*
X198628811Y-121015269D01*
X198628811Y-121015266D01*
X198535913Y-120841467D01*
X198535909Y-120841460D01*
X198410883Y-120689116D01*
X198258539Y-120564090D01*
X198258532Y-120564086D01*
X198084733Y-120471188D01*
X198084727Y-120471186D01*
X197896132Y-120413976D01*
X197896129Y-120413975D01*
X197700000Y-120394659D01*
X197699999Y-120394659D01*
X197608398Y-120403680D01*
X197539752Y-120390661D01*
X197508564Y-120367958D01*
X195174456Y-118033850D01*
X195140971Y-117972527D01*
X195145096Y-117905214D01*
X195187669Y-117783549D01*
X195189010Y-117784018D01*
X195219314Y-117729831D01*
X195280972Y-117696967D01*
X195292218Y-117695174D01*
X195322491Y-117691763D01*
X195379249Y-117685369D01*
X195379252Y-117685368D01*
X195379255Y-117685368D01*
X195549522Y-117625789D01*
X195702262Y-117529816D01*
X195829816Y-117402262D01*
X195925789Y-117249522D01*
X195985368Y-117079255D01*
X195985369Y-117079249D01*
X196005565Y-116900003D01*
X196005565Y-116899996D01*
X195985369Y-116720750D01*
X195985368Y-116720745D01*
X195982721Y-116713181D01*
X195925789Y-116550478D01*
X195925188Y-116549522D01*
X195829815Y-116397737D01*
X195702262Y-116270184D01*
X195549521Y-116174210D01*
X195379249Y-116114630D01*
X195329711Y-116109049D01*
X195265297Y-116081982D01*
X195226553Y-116026783D01*
X195226104Y-116025500D01*
X195203656Y-115961345D01*
X195107683Y-115808605D01*
X194980129Y-115681051D01*
X194872933Y-115613695D01*
X194851131Y-115599996D01*
X195994435Y-115599996D01*
X195994435Y-115600003D01*
X196014630Y-115779249D01*
X196014631Y-115779254D01*
X196074211Y-115949523D01*
X196168968Y-116100326D01*
X196170184Y-116102262D01*
X196297738Y-116229816D01*
X196346557Y-116260491D01*
X196449228Y-116325004D01*
X196450478Y-116325789D01*
X196620739Y-116385366D01*
X196620745Y-116385368D01*
X196620750Y-116385369D01*
X196799996Y-116405565D01*
X196800000Y-116405565D01*
X196800004Y-116405565D01*
X196979249Y-116385369D01*
X196979251Y-116385368D01*
X196979255Y-116385368D01*
X196979258Y-116385366D01*
X196979262Y-116385366D01*
X197069377Y-116353832D01*
X197149522Y-116325789D01*
X197223205Y-116279491D01*
X197290442Y-116260491D01*
X197357277Y-116280859D01*
X197376858Y-116296804D01*
X197413181Y-116333127D01*
X197446666Y-116394450D01*
X197449500Y-116420808D01*
X197449500Y-116476277D01*
X197429815Y-116543316D01*
X197391475Y-116581269D01*
X197378500Y-116589421D01*
X197250945Y-116716976D01*
X197154972Y-116869715D01*
X197095392Y-117039984D01*
X197095391Y-117039989D01*
X197075196Y-117219235D01*
X197075196Y-117219242D01*
X197095391Y-117398488D01*
X197095392Y-117398493D01*
X197154972Y-117568762D01*
X197212064Y-117659623D01*
X197250945Y-117721501D01*
X197378499Y-117849055D01*
X197467875Y-117905214D01*
X197492605Y-117920753D01*
X197531239Y-117945028D01*
X197678695Y-117996625D01*
X197701506Y-118004607D01*
X197701511Y-118004608D01*
X197880758Y-118024804D01*
X197880761Y-118024804D01*
X197909273Y-118021591D01*
X197978094Y-118033644D01*
X198010839Y-118057130D01*
X198052998Y-118099289D01*
X198103231Y-118149522D01*
X198143606Y-118189897D01*
X198250140Y-118261081D01*
X198250146Y-118261084D01*
X198250147Y-118261085D01*
X198368530Y-118310121D01*
X198368534Y-118310121D01*
X198368535Y-118310122D01*
X198494202Y-118335120D01*
X198494205Y-118335120D01*
X199460312Y-118335120D01*
X199526284Y-118354126D01*
X199615857Y-118410409D01*
X199615861Y-118410410D01*
X199702311Y-118440661D01*
X199759087Y-118481382D01*
X199784834Y-118546335D01*
X199772491Y-118609221D01*
X199773517Y-118609646D01*
X199771410Y-118614731D01*
X199771378Y-118614897D01*
X199771210Y-118615214D01*
X199771188Y-118615267D01*
X199713975Y-118803870D01*
X199694659Y-119000000D01*
X199713975Y-119196129D01*
X199771188Y-119384733D01*
X199864086Y-119558532D01*
X199864090Y-119558539D01*
X199989116Y-119710883D01*
X200141460Y-119835909D01*
X200141467Y-119835913D01*
X200315266Y-119928811D01*
X200315269Y-119928811D01*
X200315273Y-119928814D01*
X200503868Y-119986024D01*
X200700000Y-120005341D01*
X200896132Y-119986024D01*
X201084727Y-119928814D01*
X201138636Y-119899999D01*
X218719357Y-119899999D01*
X218719357Y-119900000D01*
X218739884Y-120121535D01*
X218739885Y-120121537D01*
X218800769Y-120335523D01*
X218800775Y-120335538D01*
X218899938Y-120534683D01*
X218899943Y-120534691D01*
X219034020Y-120712238D01*
X219198437Y-120862123D01*
X219198439Y-120862125D01*
X219387595Y-120979245D01*
X219387596Y-120979245D01*
X219387599Y-120979247D01*
X219595060Y-121059618D01*
X219813757Y-121100500D01*
X219813759Y-121100500D01*
X220036241Y-121100500D01*
X220036243Y-121100500D01*
X220254940Y-121059618D01*
X220462401Y-120979247D01*
X220651562Y-120862124D01*
X220806647Y-120720745D01*
X220815979Y-120712238D01*
X220825599Y-120699500D01*
X220950058Y-120534689D01*
X221049229Y-120335528D01*
X221110115Y-120121536D01*
X221130643Y-119900000D01*
X221121951Y-119806202D01*
X221110115Y-119678464D01*
X221110114Y-119678462D01*
X221108904Y-119674211D01*
X221049229Y-119464472D01*
X221049224Y-119464461D01*
X220950061Y-119265316D01*
X220950056Y-119265308D01*
X220815979Y-119087761D01*
X220651562Y-118937876D01*
X220651560Y-118937874D01*
X220462404Y-118820754D01*
X220462398Y-118820752D01*
X220254940Y-118740382D01*
X220036243Y-118699500D01*
X219813757Y-118699500D01*
X219595060Y-118740382D01*
X219496759Y-118778464D01*
X219387601Y-118820752D01*
X219387595Y-118820754D01*
X219198439Y-118937874D01*
X219198437Y-118937876D01*
X219034020Y-119087761D01*
X218899943Y-119265308D01*
X218899938Y-119265316D01*
X218800775Y-119464461D01*
X218800769Y-119464476D01*
X218739885Y-119678462D01*
X218739884Y-119678464D01*
X218719357Y-119899999D01*
X201138636Y-119899999D01*
X201152756Y-119892452D01*
X201258532Y-119835913D01*
X201258538Y-119835910D01*
X201410883Y-119710883D01*
X201535910Y-119558538D01*
X201620649Y-119400003D01*
X201628811Y-119384733D01*
X201628811Y-119384732D01*
X201628814Y-119384727D01*
X201686024Y-119196132D01*
X201705341Y-119000000D01*
X201686024Y-118803868D01*
X201628814Y-118615273D01*
X201628811Y-118615267D01*
X201628811Y-118615266D01*
X201563485Y-118493049D01*
X201549243Y-118424646D01*
X201574243Y-118359402D01*
X201585158Y-118346918D01*
X201629816Y-118302262D01*
X201725789Y-118149522D01*
X201785368Y-117979255D01*
X201787494Y-117960389D01*
X201805565Y-117800003D01*
X201805565Y-117799996D01*
X201785369Y-117620750D01*
X201785368Y-117620745D01*
X201767178Y-117568761D01*
X201725789Y-117450478D01*
X201693121Y-117398488D01*
X201629815Y-117297737D01*
X201502262Y-117170184D01*
X201349521Y-117074210D01*
X201179255Y-117014632D01*
X201179246Y-117014630D01*
X201172012Y-117013815D01*
X201107600Y-116986744D01*
X201098223Y-116978277D01*
X200766283Y-116646338D01*
X200732798Y-116585015D01*
X200736922Y-116517703D01*
X200780051Y-116394450D01*
X200785367Y-116379259D01*
X200785369Y-116379249D01*
X200805565Y-116200003D01*
X200805565Y-116199996D01*
X200785369Y-116020750D01*
X200785366Y-116020737D01*
X200725790Y-115850481D01*
X200725789Y-115850478D01*
X200681033Y-115779249D01*
X200669506Y-115760903D01*
X200650500Y-115694931D01*
X200650500Y-113440047D01*
X200670185Y-113373008D01*
X200686819Y-113352366D01*
X200955273Y-113083912D01*
X200955277Y-113083908D01*
X201026465Y-112977366D01*
X201075501Y-112858983D01*
X201075501Y-112858979D01*
X201075503Y-112858976D01*
X201083219Y-112820185D01*
X201083219Y-112820184D01*
X201100500Y-112733310D01*
X201100500Y-111666689D01*
X201075502Y-111541022D01*
X201075501Y-111541021D01*
X201075501Y-111541017D01*
X201026465Y-111422634D01*
X201018194Y-111410256D01*
X200955277Y-111316092D01*
X200955275Y-111316090D01*
X200955273Y-111316087D01*
X200786819Y-111147633D01*
X200753334Y-111086310D01*
X200750500Y-111059952D01*
X200750500Y-110374972D01*
X200757458Y-110334017D01*
X200767527Y-110305241D01*
X200785368Y-110254255D01*
X200785901Y-110249524D01*
X200805565Y-110075003D01*
X200805565Y-110074996D01*
X200785369Y-109895750D01*
X200785368Y-109895745D01*
X200773604Y-109862125D01*
X200725789Y-109725478D01*
X200723301Y-109721519D01*
X200675047Y-109644722D01*
X200629816Y-109572738D01*
X200502262Y-109445184D01*
X200477804Y-109429816D01*
X200349523Y-109349211D01*
X200179254Y-109289631D01*
X200179249Y-109289630D01*
X200000004Y-109269435D01*
X199999996Y-109269435D01*
X199820750Y-109289630D01*
X199820745Y-109289631D01*
X199650476Y-109349211D01*
X199497737Y-109445184D01*
X199370184Y-109572737D01*
X199274211Y-109725476D01*
X199214631Y-109895745D01*
X199214630Y-109895750D01*
X199194435Y-110074996D01*
X199194435Y-110075003D01*
X199214630Y-110254249D01*
X199214631Y-110254254D01*
X199274211Y-110424523D01*
X199370184Y-110577262D01*
X199413181Y-110620259D01*
X199446666Y-110681582D01*
X199449500Y-110707940D01*
X199449500Y-111444832D01*
X199472477Y-111560340D01*
X199473507Y-111565518D01*
X199467280Y-111635110D01*
X199424417Y-111690287D01*
X199417863Y-111694703D01*
X199297739Y-111770182D01*
X199170184Y-111897737D01*
X199074210Y-112050478D01*
X199014632Y-112220744D01*
X199014630Y-112220752D01*
X199013815Y-112227988D01*
X198986743Y-112292400D01*
X198978277Y-112301775D01*
X198244722Y-113035331D01*
X198244718Y-113035336D01*
X198210712Y-113086233D01*
X198203025Y-113097738D01*
X198188280Y-113119805D01*
X198173535Y-113141872D01*
X198173533Y-113141875D01*
X198124499Y-113260255D01*
X198124497Y-113260261D01*
X198099500Y-113385928D01*
X198099500Y-114919418D01*
X198079815Y-114986457D01*
X198027011Y-115032212D01*
X197957853Y-115042156D01*
X197914047Y-115025374D01*
X197913497Y-115026405D01*
X197908129Y-115023535D01*
X197789744Y-114974499D01*
X197789738Y-114974497D01*
X197664071Y-114949500D01*
X197664069Y-114949500D01*
X197305068Y-114949500D01*
X197239096Y-114930494D01*
X197149522Y-114874210D01*
X197149518Y-114874209D01*
X196979262Y-114814633D01*
X196979249Y-114814630D01*
X196800004Y-114794435D01*
X196799996Y-114794435D01*
X196620750Y-114814630D01*
X196620745Y-114814631D01*
X196450476Y-114874211D01*
X196297737Y-114970184D01*
X196170184Y-115097737D01*
X196074211Y-115250476D01*
X196014631Y-115420745D01*
X196014630Y-115420750D01*
X195994435Y-115599996D01*
X194851131Y-115599996D01*
X194827390Y-115585078D01*
X194657121Y-115525498D01*
X194657116Y-115525497D01*
X194477871Y-115505302D01*
X194477863Y-115505302D01*
X194298617Y-115525497D01*
X194298604Y-115525500D01*
X194128348Y-115585076D01*
X194128344Y-115585077D01*
X194038771Y-115641361D01*
X193972799Y-115660367D01*
X193491609Y-115660367D01*
X193365941Y-115685364D01*
X193365931Y-115685367D01*
X193335021Y-115698170D01*
X193335022Y-115698171D01*
X193247557Y-115734399D01*
X193247543Y-115734407D01*
X193141012Y-115805588D01*
X193141005Y-115805594D01*
X192833420Y-116113181D01*
X192772097Y-116146666D01*
X192745739Y-116149500D01*
X191856701Y-116149500D01*
X191789662Y-116129815D01*
X191743907Y-116077011D01*
X191733736Y-116030258D01*
X191733481Y-116030287D01*
X191733200Y-116027794D01*
X191732701Y-116025500D01*
X191732701Y-116023364D01*
X191712505Y-115844118D01*
X191712504Y-115844113D01*
X191699024Y-115805590D01*
X191652925Y-115673846D01*
X191556952Y-115521106D01*
X191486819Y-115450973D01*
X191453334Y-115389650D01*
X191450500Y-115363292D01*
X191450500Y-114771066D01*
X191470185Y-114704027D01*
X191486815Y-114683389D01*
X192359109Y-113811094D01*
X192420430Y-113777611D01*
X192490121Y-113782595D01*
X192534466Y-113811094D01*
X193313042Y-114589669D01*
X193363826Y-114640453D01*
X193403650Y-114680277D01*
X193510184Y-114751461D01*
X193510190Y-114751464D01*
X193510191Y-114751465D01*
X193628574Y-114800501D01*
X193628578Y-114800501D01*
X193628579Y-114800502D01*
X193754246Y-114825500D01*
X193754249Y-114825500D01*
X194482997Y-114825500D01*
X194567541Y-114808682D01*
X194608670Y-114800501D01*
X194727053Y-114751465D01*
X194729994Y-114749500D01*
X194833595Y-114680277D01*
X195262403Y-114251466D01*
X195323724Y-114217983D01*
X195393416Y-114222967D01*
X195398011Y-114224925D01*
X195400475Y-114225787D01*
X195400478Y-114225789D01*
X195482160Y-114254370D01*
X195570737Y-114285366D01*
X195570743Y-114285367D01*
X195570745Y-114285368D01*
X195570746Y-114285368D01*
X195570750Y-114285369D01*
X195749996Y-114305565D01*
X195750000Y-114305565D01*
X195750004Y-114305565D01*
X195929249Y-114285369D01*
X195929252Y-114285368D01*
X195929255Y-114285368D01*
X196099522Y-114225789D01*
X196252262Y-114129816D01*
X196379816Y-114002262D01*
X196475789Y-113849522D01*
X196535368Y-113679255D01*
X196535369Y-113679249D01*
X196555565Y-113500003D01*
X196555565Y-113499996D01*
X196535369Y-113320750D01*
X196535368Y-113320745D01*
X196518646Y-113272957D01*
X196475789Y-113150478D01*
X196470383Y-113141875D01*
X196379815Y-112997737D01*
X196252262Y-112870184D01*
X196251664Y-112869808D01*
X196190051Y-112831094D01*
X196143762Y-112778762D01*
X196133113Y-112709708D01*
X196161489Y-112645860D01*
X196168338Y-112638426D01*
X196280045Y-112526721D01*
X196375858Y-112383327D01*
X196441855Y-112223996D01*
X196475500Y-112054851D01*
X196475500Y-111882393D01*
X196475500Y-103513771D01*
X196475500Y-103513768D01*
X196475499Y-103513766D01*
X196462415Y-103447989D01*
X196441855Y-103344626D01*
X196429215Y-103314110D01*
X196375861Y-103185301D01*
X196375854Y-103185288D01*
X196374424Y-103183148D01*
X196374018Y-103181854D01*
X196372985Y-103179920D01*
X196373351Y-103179723D01*
X196353543Y-103116471D01*
X196372025Y-103049090D01*
X196424002Y-103002398D01*
X196492971Y-102991219D01*
X196557036Y-103019102D01*
X196565204Y-103026572D01*
X197125800Y-103587167D01*
X197159285Y-103648490D01*
X197154301Y-103718181D01*
X197143113Y-103740820D01*
X197074211Y-103850476D01*
X197014631Y-104020745D01*
X197014630Y-104020750D01*
X196994435Y-104199996D01*
X196994435Y-104200003D01*
X197014630Y-104379249D01*
X197014631Y-104379254D01*
X197074211Y-104549523D01*
X197120373Y-104622989D01*
X197170184Y-104702262D01*
X197297738Y-104829816D01*
X197450478Y-104925789D01*
X197620745Y-104985368D01*
X197620750Y-104985369D01*
X197799996Y-105005565D01*
X197800000Y-105005565D01*
X197800004Y-105005565D01*
X197979249Y-104985369D01*
X197979252Y-104985368D01*
X197979255Y-104985368D01*
X198149522Y-104925789D01*
X198259180Y-104856886D01*
X198326413Y-104837886D01*
X198393249Y-104858253D01*
X198412831Y-104874199D01*
X201993877Y-108455245D01*
X202027362Y-108516568D01*
X202022378Y-108586260D01*
X202011190Y-108608898D01*
X201918880Y-108755807D01*
X201859300Y-108926076D01*
X201859299Y-108926081D01*
X201839104Y-109105327D01*
X201839104Y-109105334D01*
X201859299Y-109284580D01*
X201859300Y-109284585D01*
X201918880Y-109454854D01*
X201997043Y-109579249D01*
X202014853Y-109607593D01*
X202142407Y-109735147D01*
X202175472Y-109755923D01*
X202290690Y-109828320D01*
X202295147Y-109831120D01*
X202465408Y-109890697D01*
X202465414Y-109890699D01*
X202465419Y-109890700D01*
X202644665Y-109910896D01*
X202644669Y-109910896D01*
X202644673Y-109910896D01*
X202823918Y-109890700D01*
X202823920Y-109890699D01*
X202823924Y-109890699D01*
X202823927Y-109890697D01*
X202823931Y-109890697D01*
X202914046Y-109859163D01*
X202994191Y-109831120D01*
X203083765Y-109774836D01*
X203149737Y-109755831D01*
X203221923Y-109755831D01*
X203288962Y-109775516D01*
X203334717Y-109828320D01*
X203345143Y-109893716D01*
X203344435Y-109899999D01*
X203344435Y-109900003D01*
X203364630Y-110079249D01*
X203364631Y-110079254D01*
X203424211Y-110249524D01*
X203480493Y-110339094D01*
X203499500Y-110405067D01*
X203499500Y-111272410D01*
X203479815Y-111339449D01*
X203427011Y-111385204D01*
X203389384Y-111395630D01*
X203220749Y-111414630D01*
X203220745Y-111414631D01*
X203050476Y-111474211D01*
X202897737Y-111570184D01*
X202770184Y-111697737D01*
X202674211Y-111850476D01*
X202614631Y-112020745D01*
X202614630Y-112020750D01*
X202594435Y-112199996D01*
X202594435Y-112200003D01*
X202614630Y-112379249D01*
X202614633Y-112379262D01*
X202674209Y-112549518D01*
X202674210Y-112549520D01*
X202674211Y-112549522D01*
X202679179Y-112557428D01*
X202698179Y-112624665D01*
X202677811Y-112691500D01*
X202661866Y-112711081D01*
X202194724Y-113178223D01*
X202194723Y-113178225D01*
X202139910Y-113260261D01*
X202137366Y-113264068D01*
X202137364Y-113264071D01*
X202123536Y-113284764D01*
X202123533Y-113284769D01*
X202074499Y-113403149D01*
X202074497Y-113403155D01*
X202049500Y-113528822D01*
X202049500Y-115406292D01*
X202029815Y-115473331D01*
X201991473Y-115511285D01*
X201897741Y-115570181D01*
X201897739Y-115570182D01*
X201770184Y-115697737D01*
X201674211Y-115850476D01*
X201614631Y-116020745D01*
X201614630Y-116020750D01*
X201594435Y-116199996D01*
X201594435Y-116200003D01*
X201614630Y-116379249D01*
X201614631Y-116379254D01*
X201674211Y-116549523D01*
X201752754Y-116674523D01*
X201770184Y-116702262D01*
X201897738Y-116829816D01*
X201988080Y-116886582D01*
X202048254Y-116924392D01*
X202050478Y-116925789D01*
X202073461Y-116933831D01*
X202220745Y-116985368D01*
X202220750Y-116985369D01*
X202399996Y-117005565D01*
X202400000Y-117005565D01*
X202400004Y-117005565D01*
X202579249Y-116985369D01*
X202579251Y-116985368D01*
X202579255Y-116985368D01*
X202579258Y-116985366D01*
X202579262Y-116985366D01*
X202756095Y-116923489D01*
X202756846Y-116925637D01*
X202815128Y-116916035D01*
X202843588Y-116924392D01*
X202843905Y-116923489D01*
X203020737Y-116985366D01*
X203020743Y-116985367D01*
X203020745Y-116985368D01*
X203020746Y-116985368D01*
X203020750Y-116985369D01*
X203199996Y-117005565D01*
X203200000Y-117005565D01*
X203200004Y-117005565D01*
X203379249Y-116985369D01*
X203379252Y-116985368D01*
X203379255Y-116985368D01*
X203549522Y-116925789D01*
X203702262Y-116829816D01*
X203829816Y-116702262D01*
X203925789Y-116549522D01*
X203985368Y-116379255D01*
X203997744Y-116269410D01*
X204006400Y-116235856D01*
X204025501Y-116189744D01*
X204047926Y-116077011D01*
X204050500Y-116064071D01*
X204050500Y-116024500D01*
X204070185Y-115957461D01*
X204122989Y-115911706D01*
X204174500Y-115900500D01*
X206886231Y-115900500D01*
X206886232Y-115900499D01*
X207055374Y-115866855D01*
X207196002Y-115808605D01*
X207214698Y-115800861D01*
X207214698Y-115800860D01*
X207214705Y-115800858D01*
X207358099Y-115705045D01*
X207462819Y-115600324D01*
X207524141Y-115566840D01*
X207593833Y-115571824D01*
X207649767Y-115613695D01*
X207674184Y-115679159D01*
X207674500Y-115688006D01*
X207674500Y-118697870D01*
X207674501Y-118697876D01*
X207680908Y-118757483D01*
X207731202Y-118892328D01*
X207731206Y-118892335D01*
X207817452Y-119007544D01*
X207817455Y-119007547D01*
X207932664Y-119093793D01*
X207932671Y-119093797D01*
X208067517Y-119144091D01*
X208067516Y-119144091D01*
X208074444Y-119144835D01*
X208127127Y-119150500D01*
X211722872Y-119150499D01*
X211782483Y-119144091D01*
X211917331Y-119093796D01*
X212032546Y-119007546D01*
X212118796Y-118892331D01*
X212169091Y-118757483D01*
X212175500Y-118697873D01*
X212175499Y-115102128D01*
X212169091Y-115042517D01*
X212168956Y-115042156D01*
X212118797Y-114907671D01*
X212118793Y-114907664D01*
X212032547Y-114792455D01*
X212032544Y-114792452D01*
X211917335Y-114706206D01*
X211917328Y-114706202D01*
X211782482Y-114655908D01*
X211782483Y-114655908D01*
X211722883Y-114649501D01*
X211722881Y-114649500D01*
X211722873Y-114649500D01*
X211722865Y-114649500D01*
X208713005Y-114649500D01*
X208645966Y-114629815D01*
X208600211Y-114577011D01*
X208590267Y-114507853D01*
X208619292Y-114444297D01*
X208625324Y-114437819D01*
X208817249Y-114245894D01*
X209020517Y-114042625D01*
X209081838Y-114009142D01*
X209148051Y-114012888D01*
X209328693Y-114074209D01*
X209336947Y-114077011D01*
X209341278Y-114078481D01*
X209630620Y-114136034D01*
X209658888Y-114137886D01*
X209924993Y-114155329D01*
X209925000Y-114155329D01*
X209925007Y-114155329D01*
X210160675Y-114139881D01*
X210219380Y-114136034D01*
X210508722Y-114078481D01*
X210788077Y-113983652D01*
X211052665Y-113853172D01*
X211297957Y-113689273D01*
X211519758Y-113494758D01*
X211714273Y-113272957D01*
X211878172Y-113027665D01*
X212008652Y-112763077D01*
X212103481Y-112483722D01*
X212161034Y-112194380D01*
X212170179Y-112054853D01*
X212180329Y-111900007D01*
X212180329Y-111899992D01*
X212161035Y-111605636D01*
X212161034Y-111605620D01*
X212103481Y-111316278D01*
X212008652Y-111036923D01*
X211878172Y-110772336D01*
X211714273Y-110527043D01*
X211580910Y-110374972D01*
X211519758Y-110305241D01*
X211297955Y-110110725D01*
X211052667Y-109946829D01*
X211052660Y-109946825D01*
X210788080Y-109816349D01*
X210508730Y-109721521D01*
X210508724Y-109721519D01*
X210508722Y-109721519D01*
X210219380Y-109663966D01*
X210219373Y-109663965D01*
X210219363Y-109663964D01*
X209925007Y-109644671D01*
X209925006Y-109644671D01*
X209925002Y-109644671D01*
X209925000Y-109644671D01*
X209868933Y-109648345D01*
X209835438Y-109650541D01*
X209767255Y-109635282D01*
X209718145Y-109585584D01*
X209703700Y-109517223D01*
X209704109Y-109512920D01*
X209705565Y-109499999D01*
X209705565Y-109499997D01*
X209685369Y-109320750D01*
X209685368Y-109320745D01*
X209685368Y-109320744D01*
X209625789Y-109150478D01*
X209625188Y-109149522D01*
X209562955Y-109050478D01*
X209529816Y-108997738D01*
X209432077Y-108899999D01*
X218719357Y-108899999D01*
X218719357Y-108900000D01*
X218739884Y-109121535D01*
X218739885Y-109121537D01*
X218800769Y-109335523D01*
X218800775Y-109335538D01*
X218899938Y-109534683D01*
X218899943Y-109534691D01*
X219034020Y-109712238D01*
X219198437Y-109862123D01*
X219198439Y-109862125D01*
X219387595Y-109979245D01*
X219387596Y-109979245D01*
X219387599Y-109979247D01*
X219595060Y-110059618D01*
X219813757Y-110100500D01*
X219813759Y-110100500D01*
X220036241Y-110100500D01*
X220036243Y-110100500D01*
X220254940Y-110059618D01*
X220462401Y-109979247D01*
X220651562Y-109862124D01*
X220801455Y-109725478D01*
X220815979Y-109712238D01*
X220852433Y-109663966D01*
X220950058Y-109534689D01*
X221049229Y-109335528D01*
X221110115Y-109121536D01*
X221130643Y-108900000D01*
X221128937Y-108881594D01*
X221110115Y-108678464D01*
X221110114Y-108678462D01*
X221108904Y-108674211D01*
X221049229Y-108464472D01*
X221049224Y-108464461D01*
X220950061Y-108265316D01*
X220950056Y-108265308D01*
X220815979Y-108087761D01*
X220651562Y-107937876D01*
X220651560Y-107937874D01*
X220462404Y-107820754D01*
X220462398Y-107820752D01*
X220254940Y-107740382D01*
X220036243Y-107699500D01*
X219813757Y-107699500D01*
X219595060Y-107740382D01*
X219463864Y-107791207D01*
X219387601Y-107820752D01*
X219387595Y-107820754D01*
X219198439Y-107937874D01*
X219198437Y-107937876D01*
X219034020Y-108087761D01*
X218899943Y-108265308D01*
X218899938Y-108265316D01*
X218800775Y-108464461D01*
X218800769Y-108464476D01*
X218739885Y-108678462D01*
X218739884Y-108678464D01*
X218719357Y-108899999D01*
X209432077Y-108899999D01*
X209402262Y-108870184D01*
X209358757Y-108842848D01*
X209249523Y-108774211D01*
X209079254Y-108714631D01*
X209079249Y-108714630D01*
X208900004Y-108694435D01*
X208899996Y-108694435D01*
X208720750Y-108714630D01*
X208720745Y-108714631D01*
X208550476Y-108774211D01*
X208397737Y-108870184D01*
X208270184Y-108997737D01*
X208174210Y-109150478D01*
X208114632Y-109320744D01*
X208114630Y-109320752D01*
X208113815Y-109327988D01*
X208086743Y-109392400D01*
X208078277Y-109401775D01*
X207166873Y-110313181D01*
X207105550Y-110346666D01*
X207079192Y-110349500D01*
X206490047Y-110349500D01*
X206423008Y-110329815D01*
X206402366Y-110313181D01*
X205906431Y-109817246D01*
X205872946Y-109755923D01*
X205877930Y-109686231D01*
X205919802Y-109630298D01*
X205985266Y-109605881D01*
X205994112Y-109605565D01*
X206000004Y-109605565D01*
X206179249Y-109585369D01*
X206179252Y-109585368D01*
X206179255Y-109585368D01*
X206349522Y-109525789D01*
X206502262Y-109429816D01*
X206629816Y-109302262D01*
X206725789Y-109149522D01*
X206785368Y-108979255D01*
X206789114Y-108946004D01*
X206816179Y-108881594D01*
X206873773Y-108842037D01*
X206943610Y-108839898D01*
X206953290Y-108842848D01*
X207013885Y-108864052D01*
X207013895Y-108864054D01*
X207193141Y-108884250D01*
X207193145Y-108884250D01*
X207193149Y-108884250D01*
X207372394Y-108864054D01*
X207372397Y-108864053D01*
X207372400Y-108864053D01*
X207542667Y-108804474D01*
X207695407Y-108708501D01*
X207822961Y-108580947D01*
X207918934Y-108428207D01*
X207978513Y-108257940D01*
X207980816Y-108237503D01*
X207998710Y-108078688D01*
X207998710Y-108078681D01*
X207978514Y-107899435D01*
X207978513Y-107899430D01*
X207933288Y-107770184D01*
X207918934Y-107729163D01*
X207900295Y-107699500D01*
X207822960Y-107576422D01*
X207695407Y-107448869D01*
X207542668Y-107352896D01*
X207372399Y-107293316D01*
X207372394Y-107293315D01*
X207193149Y-107273120D01*
X207193141Y-107273120D01*
X207013895Y-107293315D01*
X207013882Y-107293318D01*
X206843623Y-107352895D01*
X206822471Y-107366186D01*
X206755234Y-107385186D01*
X206688399Y-107364818D01*
X206668819Y-107348873D01*
X199419943Y-100099996D01*
X203394435Y-100099996D01*
X203394435Y-100100003D01*
X203414630Y-100279249D01*
X203414631Y-100279254D01*
X203474211Y-100449522D01*
X203538872Y-100552429D01*
X203555495Y-100594208D01*
X203556647Y-100600000D01*
X203567741Y-100655769D01*
X203574499Y-100689744D01*
X203623534Y-100808125D01*
X203694726Y-100914673D01*
X203694727Y-100914674D01*
X209378277Y-106598223D01*
X209411762Y-106659546D01*
X209413815Y-106672012D01*
X209414630Y-106679246D01*
X209414632Y-106679255D01*
X209474210Y-106849521D01*
X209507350Y-106902262D01*
X209570184Y-107002262D01*
X209697738Y-107129816D01*
X209850478Y-107225789D01*
X209985742Y-107273120D01*
X210020745Y-107285368D01*
X210020750Y-107285369D01*
X210199996Y-107305565D01*
X210200000Y-107305565D01*
X210200004Y-107305565D01*
X210379249Y-107285369D01*
X210379252Y-107285368D01*
X210379255Y-107285368D01*
X210549522Y-107225789D01*
X210702262Y-107129816D01*
X210829816Y-107002262D01*
X210925789Y-106849522D01*
X210985368Y-106679255D01*
X210994498Y-106598223D01*
X211005565Y-106500003D01*
X211005565Y-106499996D01*
X210985369Y-106320750D01*
X210985368Y-106320745D01*
X210965414Y-106263720D01*
X210925789Y-106150478D01*
X210829816Y-105997738D01*
X210702262Y-105870184D01*
X210629593Y-105824523D01*
X210549521Y-105774210D01*
X210379255Y-105714632D01*
X210379246Y-105714630D01*
X210372012Y-105713815D01*
X210307600Y-105686744D01*
X210298223Y-105678277D01*
X209619945Y-104999999D01*
X218694357Y-104999999D01*
X218694357Y-105000000D01*
X218714884Y-105221535D01*
X218714885Y-105221537D01*
X218775769Y-105435523D01*
X218775775Y-105435538D01*
X218874938Y-105634683D01*
X218874943Y-105634691D01*
X219009020Y-105812238D01*
X219173437Y-105962123D01*
X219173439Y-105962125D01*
X219362595Y-106079245D01*
X219362596Y-106079245D01*
X219362599Y-106079247D01*
X219570060Y-106159618D01*
X219788757Y-106200500D01*
X219788759Y-106200500D01*
X220011241Y-106200500D01*
X220011243Y-106200500D01*
X220229940Y-106159618D01*
X220437401Y-106079247D01*
X220626562Y-105962124D01*
X220790981Y-105812236D01*
X220925058Y-105634689D01*
X221024229Y-105435528D01*
X221085115Y-105221536D01*
X221105643Y-105000000D01*
X221098766Y-104925789D01*
X221085115Y-104778464D01*
X221085114Y-104778462D01*
X221079945Y-104760296D01*
X221024229Y-104564472D01*
X221024224Y-104564461D01*
X220925061Y-104365316D01*
X220925056Y-104365308D01*
X220790979Y-104187761D01*
X220626562Y-104037876D01*
X220626560Y-104037874D01*
X220437404Y-103920754D01*
X220437398Y-103920752D01*
X220417855Y-103913181D01*
X220229940Y-103840382D01*
X220011243Y-103799500D01*
X219788757Y-103799500D01*
X219570060Y-103840382D01*
X219438864Y-103891207D01*
X219362601Y-103920752D01*
X219362595Y-103920754D01*
X219173439Y-104037874D01*
X219173437Y-104037876D01*
X219009020Y-104187761D01*
X218874943Y-104365308D01*
X218874938Y-104365316D01*
X218775775Y-104564461D01*
X218775769Y-104564476D01*
X218714885Y-104778462D01*
X218714884Y-104778464D01*
X218694357Y-104999999D01*
X209619945Y-104999999D01*
X209082126Y-104462180D01*
X209048641Y-104400857D01*
X209053625Y-104331165D01*
X209095497Y-104275232D01*
X209160961Y-104250815D01*
X209169807Y-104250499D01*
X211697871Y-104250499D01*
X211697872Y-104250499D01*
X211757483Y-104244091D01*
X211892331Y-104193796D01*
X212007546Y-104107546D01*
X212093796Y-103992331D01*
X212144091Y-103857483D01*
X212150500Y-103797873D01*
X212150499Y-100202128D01*
X212144091Y-100142517D01*
X212128234Y-100100003D01*
X212093797Y-100007671D01*
X212093793Y-100007664D01*
X212007547Y-99892455D01*
X212007544Y-99892452D01*
X211892335Y-99806206D01*
X211892328Y-99806202D01*
X211757482Y-99755908D01*
X211757483Y-99755908D01*
X211697883Y-99749501D01*
X211697881Y-99749500D01*
X211697873Y-99749500D01*
X211697864Y-99749500D01*
X208102129Y-99749500D01*
X208102123Y-99749501D01*
X208042516Y-99755908D01*
X207907671Y-99806202D01*
X207907664Y-99806206D01*
X207792455Y-99892452D01*
X207792452Y-99892455D01*
X207706206Y-100007664D01*
X207706202Y-100007671D01*
X207655908Y-100142517D01*
X207649501Y-100202116D01*
X207649501Y-100202123D01*
X207649500Y-100202135D01*
X207649500Y-102730192D01*
X207629815Y-102797231D01*
X207577011Y-102842986D01*
X207507853Y-102852930D01*
X207444297Y-102823905D01*
X207437819Y-102817873D01*
X205017815Y-100397869D01*
X204984330Y-100336546D01*
X204984608Y-100282583D01*
X204985365Y-100279261D01*
X204985368Y-100279255D01*
X204989351Y-100243906D01*
X205005565Y-100100003D01*
X205005565Y-100099996D01*
X204985369Y-99920750D01*
X204985368Y-99920745D01*
X204945288Y-99806204D01*
X204925789Y-99750478D01*
X204925174Y-99749500D01*
X204829815Y-99597737D01*
X204702262Y-99470184D01*
X204549523Y-99374211D01*
X204379254Y-99314631D01*
X204379249Y-99314630D01*
X204200004Y-99294435D01*
X204199996Y-99294435D01*
X204020750Y-99314630D01*
X204020745Y-99314631D01*
X203850476Y-99374211D01*
X203697737Y-99470184D01*
X203570184Y-99597737D01*
X203474211Y-99750476D01*
X203414631Y-99920745D01*
X203414630Y-99920750D01*
X203394435Y-100099996D01*
X199419943Y-100099996D01*
X198614674Y-99294727D01*
X198614673Y-99294726D01*
X198614669Y-99294723D01*
X198508127Y-99223535D01*
X198389744Y-99174499D01*
X198389738Y-99174497D01*
X198264071Y-99149500D01*
X198264069Y-99149500D01*
X192705068Y-99149500D01*
X192639096Y-99130494D01*
X192549522Y-99074210D01*
X192549518Y-99074209D01*
X192379262Y-99014633D01*
X192379249Y-99014630D01*
X192200004Y-98994435D01*
X192199996Y-98994435D01*
X192020750Y-99014630D01*
X192020745Y-99014631D01*
X191850476Y-99074211D01*
X191697737Y-99170184D01*
X191570184Y-99297737D01*
X191474211Y-99450476D01*
X191414631Y-99620745D01*
X191414630Y-99620750D01*
X191394435Y-99799996D01*
X191394435Y-99800003D01*
X191414630Y-99979249D01*
X191414633Y-99979262D01*
X191476510Y-100156094D01*
X191474364Y-100156844D01*
X191483962Y-100215144D01*
X191475609Y-100243590D01*
X191476510Y-100243906D01*
X191414633Y-100420737D01*
X191414630Y-100420750D01*
X191394435Y-100599996D01*
X191394435Y-100600003D01*
X191414630Y-100779249D01*
X191414632Y-100779257D01*
X191463076Y-100917702D01*
X191466637Y-100987480D01*
X191433715Y-101046337D01*
X191301775Y-101178277D01*
X191240452Y-101211762D01*
X191227988Y-101213815D01*
X191220752Y-101214630D01*
X191220744Y-101214632D01*
X191050478Y-101274210D01*
X190897737Y-101370184D01*
X190770184Y-101497737D01*
X190674211Y-101650476D01*
X190614631Y-101820745D01*
X190614630Y-101820750D01*
X190594435Y-101999996D01*
X190594435Y-102000003D01*
X190614630Y-102179249D01*
X190614631Y-102179254D01*
X190674211Y-102349523D01*
X190770184Y-102502262D01*
X190897737Y-102629815D01*
X190903184Y-102634159D01*
X190901993Y-102635651D01*
X190941993Y-102680862D01*
X190952648Y-102749915D01*
X190924279Y-102813766D01*
X190917417Y-102821214D01*
X190725449Y-103013182D01*
X190664129Y-103046666D01*
X190637770Y-103049500D01*
X188032708Y-103049500D01*
X187965669Y-103029815D01*
X187919914Y-102977011D01*
X187910461Y-102911273D01*
X187909589Y-102911175D01*
X187930565Y-102725003D01*
X187930565Y-102724996D01*
X187910369Y-102545750D01*
X187910368Y-102545745D01*
X187867326Y-102422738D01*
X187850789Y-102375478D01*
X187834480Y-102349523D01*
X187800337Y-102295184D01*
X187754816Y-102222738D01*
X187627262Y-102095184D01*
X187595144Y-102075003D01*
X187474523Y-101999211D01*
X187304254Y-101939631D01*
X187304249Y-101939630D01*
X187125004Y-101919435D01*
X187124996Y-101919435D01*
X186945750Y-101939630D01*
X186945737Y-101939633D01*
X186775481Y-101999209D01*
X186775477Y-101999210D01*
X186685904Y-102055494D01*
X186619932Y-102074500D01*
X164905068Y-102074500D01*
X164839096Y-102055494D01*
X164749522Y-101999210D01*
X164749518Y-101999209D01*
X164579262Y-101939633D01*
X164579249Y-101939630D01*
X164400004Y-101919435D01*
X164399996Y-101919435D01*
X164220750Y-101939630D01*
X164220745Y-101939631D01*
X164050476Y-101999211D01*
X163897737Y-102095184D01*
X163770184Y-102222737D01*
X163674211Y-102375476D01*
X163614631Y-102545745D01*
X163614630Y-102545750D01*
X163594435Y-102724996D01*
X163594435Y-102725003D01*
X163614630Y-102904249D01*
X163614632Y-102904257D01*
X163645351Y-102992047D01*
X163648912Y-103061826D01*
X163614183Y-103122453D01*
X163552190Y-103154680D01*
X163482614Y-103148274D01*
X163440628Y-103120682D01*
X163286819Y-102966873D01*
X163253334Y-102905550D01*
X163250500Y-102879192D01*
X163250500Y-102580067D01*
X163269507Y-102514094D01*
X163325788Y-102424524D01*
X163326413Y-102422738D01*
X163385368Y-102254255D01*
X163388919Y-102222738D01*
X163405565Y-102075003D01*
X163405565Y-102074996D01*
X163385369Y-101895750D01*
X163385368Y-101895745D01*
X163366020Y-101840453D01*
X163325789Y-101725478D01*
X163229816Y-101572738D01*
X163102262Y-101445184D01*
X162949523Y-101349211D01*
X162779254Y-101289631D01*
X162779249Y-101289630D01*
X162600004Y-101269435D01*
X162599996Y-101269435D01*
X162420750Y-101289630D01*
X162420745Y-101289631D01*
X162250476Y-101349211D01*
X162097737Y-101445184D01*
X161970184Y-101572737D01*
X161874211Y-101725476D01*
X161814631Y-101895745D01*
X161814630Y-101895750D01*
X161794435Y-102074996D01*
X161794435Y-102075003D01*
X161814630Y-102254249D01*
X161814632Y-102254257D01*
X161872264Y-102418960D01*
X161875825Y-102488738D01*
X161841096Y-102549366D01*
X161779103Y-102581593D01*
X161709527Y-102575188D01*
X161667541Y-102547595D01*
X161021722Y-101901776D01*
X160988237Y-101840453D01*
X160986182Y-101827973D01*
X160985368Y-101820745D01*
X160925789Y-101650478D01*
X160829816Y-101497738D01*
X160702262Y-101370184D01*
X160668884Y-101349211D01*
X160549523Y-101274211D01*
X160379254Y-101214631D01*
X160379249Y-101214630D01*
X160200004Y-101194435D01*
X160199996Y-101194435D01*
X160020750Y-101214630D01*
X160020745Y-101214631D01*
X159850476Y-101274211D01*
X159697737Y-101370184D01*
X159570184Y-101497737D01*
X159474211Y-101650476D01*
X159414631Y-101820745D01*
X159414630Y-101820750D01*
X159394435Y-101999996D01*
X159394435Y-102000003D01*
X159414630Y-102179249D01*
X159414631Y-102179254D01*
X159474211Y-102349523D01*
X159521338Y-102424524D01*
X159570184Y-102502262D01*
X159697738Y-102629816D01*
X159850478Y-102725789D01*
X160020745Y-102785368D01*
X160027974Y-102786182D01*
X160092388Y-102813246D01*
X160101776Y-102821722D01*
X163169724Y-105889669D01*
X163242178Y-105962123D01*
X163260332Y-105980277D01*
X163366866Y-106051461D01*
X163366872Y-106051464D01*
X163366873Y-106051465D01*
X163485256Y-106100501D01*
X163485260Y-106100501D01*
X163485261Y-106100502D01*
X163610928Y-106125500D01*
X163610931Y-106125500D01*
X164494932Y-106125500D01*
X164560904Y-106144506D01*
X164650477Y-106200789D01*
X164650481Y-106200790D01*
X164820737Y-106260366D01*
X164820743Y-106260367D01*
X164820745Y-106260368D01*
X164820746Y-106260368D01*
X164820750Y-106260369D01*
X164999996Y-106280565D01*
X165000000Y-106280565D01*
X165000004Y-106280565D01*
X165179249Y-106260369D01*
X165179252Y-106260368D01*
X165179255Y-106260368D01*
X165349522Y-106200789D01*
X165502262Y-106104816D01*
X165629816Y-105977262D01*
X165725789Y-105824522D01*
X165785368Y-105654255D01*
X165785369Y-105654249D01*
X165805565Y-105475003D01*
X165805565Y-105474997D01*
X165795806Y-105388384D01*
X165807860Y-105319562D01*
X165855209Y-105268182D01*
X165919026Y-105250500D01*
X170879192Y-105250500D01*
X170946231Y-105270185D01*
X170966873Y-105286819D01*
X172178277Y-106498223D01*
X172211762Y-106559546D01*
X172213815Y-106572012D01*
X172214630Y-106579246D01*
X172214632Y-106579255D01*
X172274210Y-106749521D01*
X172337045Y-106849522D01*
X172370184Y-106902262D01*
X172497738Y-107029816D01*
X172650478Y-107125789D01*
X172820745Y-107185368D01*
X172863722Y-107190210D01*
X172928134Y-107217275D01*
X172967690Y-107274869D01*
X172969829Y-107344706D01*
X172937519Y-107401111D01*
X172691939Y-107646692D01*
X172655872Y-107669359D01*
X172656753Y-107671188D01*
X172650483Y-107674207D01*
X172497737Y-107770184D01*
X172370184Y-107897737D01*
X172274211Y-108050476D01*
X172214631Y-108220745D01*
X172214630Y-108220750D01*
X172194435Y-108399996D01*
X172194435Y-108400003D01*
X172214630Y-108579249D01*
X172214631Y-108579254D01*
X172274211Y-108749523D01*
X172346175Y-108864052D01*
X172370184Y-108902262D01*
X172497738Y-109029816D01*
X172588080Y-109086582D01*
X172643707Y-109121535D01*
X172650478Y-109125789D01*
X172820745Y-109185368D01*
X172820750Y-109185369D01*
X172999996Y-109205565D01*
X173000000Y-109205565D01*
X173000004Y-109205565D01*
X173179249Y-109185369D01*
X173179252Y-109185368D01*
X173179255Y-109185368D01*
X173349522Y-109125789D01*
X173502262Y-109029816D01*
X173629816Y-108902262D01*
X173725789Y-108749522D01*
X173725790Y-108749520D01*
X173728812Y-108743245D01*
X173730652Y-108744131D01*
X173753307Y-108708058D01*
X177874548Y-104586819D01*
X177935871Y-104553334D01*
X177962229Y-104550500D01*
X182707336Y-104550500D01*
X182774375Y-104570185D01*
X182820130Y-104622989D01*
X182830074Y-104692147D01*
X182810438Y-104743391D01*
X182799146Y-104760289D01*
X182799139Y-104760302D01*
X182733147Y-104919622D01*
X182733144Y-104919634D01*
X182699501Y-105088767D01*
X182699501Y-110680193D01*
X182679816Y-110747232D01*
X182627012Y-110792987D01*
X182557854Y-110802931D01*
X182494298Y-110773906D01*
X182487820Y-110767874D01*
X181021722Y-109301776D01*
X180988237Y-109240453D01*
X180986182Y-109227973D01*
X180985368Y-109220745D01*
X180925789Y-109050478D01*
X180829816Y-108897738D01*
X180702262Y-108770184D01*
X180669379Y-108749522D01*
X180549523Y-108674211D01*
X180379254Y-108614631D01*
X180379249Y-108614630D01*
X180200004Y-108594435D01*
X180199996Y-108594435D01*
X180020750Y-108614630D01*
X180020745Y-108614631D01*
X179850476Y-108674211D01*
X179697737Y-108770184D01*
X179570184Y-108897737D01*
X179474211Y-109050476D01*
X179414631Y-109220745D01*
X179414630Y-109220750D01*
X179394435Y-109399996D01*
X179394435Y-109400003D01*
X179414630Y-109579249D01*
X179414631Y-109579254D01*
X179474211Y-109749523D01*
X179570184Y-109902262D01*
X179680241Y-110012319D01*
X179713726Y-110073642D01*
X179708742Y-110143334D01*
X179680241Y-110187681D01*
X179570184Y-110297737D01*
X179474209Y-110450480D01*
X179448007Y-110525361D01*
X179407286Y-110582137D01*
X179342333Y-110607884D01*
X179317083Y-110607626D01*
X179200004Y-110594435D01*
X179199996Y-110594435D01*
X179020750Y-110614630D01*
X179020745Y-110614631D01*
X178850476Y-110674211D01*
X178697737Y-110770184D01*
X178570184Y-110897737D01*
X178474211Y-111050476D01*
X178414631Y-111220745D01*
X178414630Y-111220750D01*
X178394435Y-111399996D01*
X178394435Y-111400003D01*
X178414630Y-111579249D01*
X178414631Y-111579254D01*
X178442542Y-111659017D01*
X178449500Y-111699972D01*
X178449500Y-114123919D01*
X178449500Y-114123921D01*
X178449499Y-114123921D01*
X178478340Y-114268908D01*
X178478343Y-114268918D01*
X178534912Y-114405489D01*
X178534917Y-114405498D01*
X178541127Y-114414792D01*
X178555250Y-114435928D01*
X178555251Y-114435931D01*
X178617046Y-114528415D01*
X178617052Y-114528422D01*
X178846692Y-114758061D01*
X178869356Y-114794124D01*
X178871186Y-114793243D01*
X178874208Y-114799517D01*
X178874210Y-114799520D01*
X178874211Y-114799523D01*
X178970184Y-114952263D01*
X179097738Y-115079817D01*
X179250478Y-115175790D01*
X179393364Y-115225788D01*
X179420745Y-115235369D01*
X179420750Y-115235370D01*
X179599996Y-115255566D01*
X179600000Y-115255566D01*
X179600004Y-115255566D01*
X179779249Y-115235370D01*
X179779252Y-115235369D01*
X179779255Y-115235369D01*
X179949522Y-115175790D01*
X180102262Y-115079817D01*
X180229816Y-114952263D01*
X180325789Y-114799523D01*
X180385368Y-114629256D01*
X180388865Y-114598223D01*
X180405565Y-114450004D01*
X180405565Y-114449997D01*
X180385369Y-114270751D01*
X180385368Y-114270746D01*
X180369637Y-114225789D01*
X180325789Y-114100479D01*
X180324992Y-114099211D01*
X180281388Y-114029815D01*
X180229816Y-113947739D01*
X180102262Y-113820185D01*
X180102260Y-113820183D01*
X180102258Y-113820182D01*
X180008527Y-113761286D01*
X179962237Y-113708952D01*
X179950500Y-113656293D01*
X179950500Y-112869808D01*
X179970185Y-112802769D01*
X180022989Y-112757014D01*
X180092147Y-112747070D01*
X180155703Y-112776095D01*
X180162181Y-112782127D01*
X181978277Y-114598223D01*
X182011762Y-114659546D01*
X182013815Y-114672012D01*
X182014630Y-114679246D01*
X182014632Y-114679255D01*
X182074210Y-114849521D01*
X182150028Y-114970184D01*
X182170184Y-115002262D01*
X182297738Y-115129816D01*
X182388080Y-115186582D01*
X182442450Y-115220745D01*
X182450478Y-115225789D01*
X182535576Y-115255566D01*
X182620745Y-115285368D01*
X182620750Y-115285369D01*
X182799996Y-115305565D01*
X182800000Y-115305565D01*
X182800004Y-115305565D01*
X182979249Y-115285369D01*
X182979252Y-115285368D01*
X182979255Y-115285368D01*
X183149522Y-115225789D01*
X183302262Y-115129816D01*
X183429816Y-115002262D01*
X183525789Y-114849522D01*
X183585368Y-114679255D01*
X183585369Y-114679246D01*
X183605565Y-114500003D01*
X183605565Y-114499996D01*
X183585369Y-114320752D01*
X183585368Y-114320751D01*
X183585368Y-114320745D01*
X183583591Y-114315668D01*
X183580026Y-114245894D01*
X183614751Y-114185265D01*
X183676743Y-114153034D01*
X183741586Y-114157669D01*
X183820745Y-114185368D01*
X183820750Y-114185369D01*
X183999996Y-114205565D01*
X184000000Y-114205565D01*
X184000004Y-114205565D01*
X184179249Y-114185369D01*
X184179252Y-114185368D01*
X184179255Y-114185368D01*
X184349522Y-114125789D01*
X184502262Y-114029816D01*
X184629816Y-113902262D01*
X184725789Y-113749522D01*
X184785368Y-113579255D01*
X184787752Y-113558102D01*
X184792562Y-113515407D01*
X184819628Y-113450992D01*
X184877222Y-113411437D01*
X184947059Y-113409298D01*
X185003463Y-113441608D01*
X185241897Y-113680042D01*
X185241901Y-113680045D01*
X185385288Y-113775854D01*
X185385301Y-113775861D01*
X185523552Y-113833126D01*
X185544626Y-113841855D01*
X185713766Y-113875499D01*
X185713769Y-113875500D01*
X185713771Y-113875500D01*
X185886231Y-113875500D01*
X185886232Y-113875499D01*
X186055374Y-113841855D01*
X186178604Y-113790811D01*
X186214698Y-113775861D01*
X186214698Y-113775860D01*
X186214705Y-113775858D01*
X186358099Y-113680045D01*
X186480045Y-113558099D01*
X186575858Y-113414705D01*
X186641855Y-113255374D01*
X186675500Y-113086229D01*
X186675500Y-112913771D01*
X186675500Y-112913768D01*
X186675499Y-112913766D01*
X186664602Y-112858983D01*
X186641855Y-112744626D01*
X186627392Y-112709708D01*
X186575861Y-112585301D01*
X186575854Y-112585288D01*
X186480045Y-112441901D01*
X186480042Y-112441897D01*
X184486820Y-110448675D01*
X184453335Y-110387352D01*
X184450501Y-110360994D01*
X184450501Y-105088769D01*
X184450500Y-105088767D01*
X184416856Y-104919627D01*
X184398039Y-104874199D01*
X184350862Y-104760302D01*
X184350855Y-104760289D01*
X184339564Y-104743391D01*
X184318686Y-104676714D01*
X184337170Y-104609334D01*
X184389149Y-104562643D01*
X184442666Y-104550500D01*
X190700028Y-104550500D01*
X190740982Y-104557457D01*
X190807019Y-104580565D01*
X190820745Y-104585368D01*
X190820750Y-104585369D01*
X190999996Y-104605565D01*
X191000000Y-104605565D01*
X191000004Y-104605565D01*
X191179249Y-104585369D01*
X191179252Y-104585368D01*
X191179255Y-104585368D01*
X191349522Y-104525789D01*
X191502262Y-104429816D01*
X191629816Y-104302262D01*
X191725789Y-104149522D01*
X191725790Y-104149518D01*
X191728811Y-104143246D01*
X191730655Y-104144134D01*
X191753305Y-104108061D01*
X192899549Y-102961819D01*
X192960872Y-102928334D01*
X192987230Y-102925500D01*
X194765743Y-102925500D01*
X194832782Y-102945185D01*
X194878537Y-102997989D01*
X194888481Y-103067147D01*
X194868845Y-103118391D01*
X194824145Y-103185288D01*
X194824138Y-103185301D01*
X194758146Y-103344621D01*
X194758143Y-103344633D01*
X194724500Y-103513766D01*
X194724500Y-111554616D01*
X194704815Y-111621655D01*
X194688181Y-111642297D01*
X193662181Y-112668297D01*
X193600858Y-112701782D01*
X193531166Y-112696798D01*
X193475233Y-112654926D01*
X193450816Y-112589462D01*
X193450500Y-112580616D01*
X193450500Y-111135928D01*
X193425502Y-111010261D01*
X193425501Y-111010260D01*
X193425501Y-111010256D01*
X193376465Y-110891873D01*
X193338074Y-110834416D01*
X193338074Y-110834415D01*
X193305279Y-110785334D01*
X193305273Y-110785326D01*
X192164674Y-109644727D01*
X192164668Y-109644722D01*
X192135609Y-109625305D01*
X192090804Y-109571692D01*
X192080501Y-109522204D01*
X192080501Y-108499011D01*
X192080501Y-108499001D01*
X192068948Y-108391545D01*
X192057742Y-108340034D01*
X192052904Y-108325497D01*
X192023617Y-108237503D01*
X192023614Y-108237497D01*
X191945829Y-108116463D01*
X191945826Y-108116458D01*
X191933525Y-108102262D01*
X191900077Y-108063660D01*
X191900073Y-108063657D01*
X191900071Y-108063654D01*
X191791337Y-107969434D01*
X191791334Y-107969432D01*
X191791332Y-107969431D01*
X191660466Y-107909665D01*
X191660461Y-107909663D01*
X191660460Y-107909663D01*
X191593421Y-107889978D01*
X191593423Y-107889978D01*
X191593418Y-107889977D01*
X191531348Y-107881053D01*
X191451001Y-107869501D01*
X188699001Y-107869501D01*
X188698992Y-107869501D01*
X188698991Y-107869502D01*
X188591550Y-107881053D01*
X188591538Y-107881055D01*
X188540028Y-107892261D01*
X188437503Y-107926384D01*
X188437497Y-107926387D01*
X188316463Y-108004172D01*
X188316452Y-108004180D01*
X188263660Y-108049924D01*
X188169434Y-108158665D01*
X188169431Y-108158669D01*
X188109665Y-108289535D01*
X188089977Y-108356583D01*
X188079679Y-108428207D01*
X188069503Y-108498991D01*
X188069501Y-108499002D01*
X188069501Y-110962906D01*
X188049816Y-111029945D01*
X188045826Y-111035780D01*
X188009115Y-111086310D01*
X187916657Y-111213566D01*
X187809433Y-111424003D01*
X187736446Y-111648631D01*
X187699500Y-111881902D01*
X187699500Y-114327111D01*
X187679815Y-114394150D01*
X187663181Y-114414792D01*
X183214792Y-118863181D01*
X183153469Y-118896666D01*
X183127111Y-118899500D01*
X175981903Y-118899500D01*
X175748631Y-118936446D01*
X175524003Y-119009433D01*
X175313566Y-119116657D01*
X175234352Y-119174210D01*
X175122490Y-119255483D01*
X175122488Y-119255485D01*
X175122487Y-119255485D01*
X174955485Y-119422487D01*
X174955485Y-119422488D01*
X174955483Y-119422490D01*
X174827687Y-119598386D01*
X174772357Y-119641051D01*
X174727369Y-119649500D01*
X166299972Y-119649500D01*
X166259017Y-119642542D01*
X166179254Y-119614631D01*
X166179249Y-119614630D01*
X166000004Y-119594435D01*
X165999996Y-119594435D01*
X165820750Y-119614630D01*
X165820745Y-119614631D01*
X165650476Y-119674211D01*
X165497737Y-119770184D01*
X165370184Y-119897737D01*
X165274211Y-120050476D01*
X165214631Y-120220745D01*
X165214630Y-120220750D01*
X165194435Y-120399996D01*
X165194435Y-120400003D01*
X165214630Y-120579249D01*
X165214631Y-120579254D01*
X165274211Y-120749523D01*
X165370184Y-120902262D01*
X165405741Y-120937819D01*
X165439226Y-120999142D01*
X165434242Y-121068834D01*
X165392370Y-121124767D01*
X165326906Y-121149184D01*
X165318060Y-121149500D01*
X165120808Y-121149500D01*
X165053769Y-121129815D01*
X165033127Y-121113181D01*
X163014674Y-119094727D01*
X163014673Y-119094726D01*
X163014669Y-119094723D01*
X162908127Y-119023535D01*
X162874079Y-119009432D01*
X162789744Y-118974499D01*
X162789738Y-118974497D01*
X162664071Y-118949500D01*
X162664069Y-118949500D01*
X156730810Y-118949500D01*
X156663771Y-118929815D01*
X156633865Y-118902815D01*
X156629816Y-118897738D01*
X156502262Y-118770184D01*
X156349523Y-118674211D01*
X156179254Y-118614631D01*
X156179249Y-118614630D01*
X156000004Y-118594435D01*
X155999996Y-118594435D01*
X155820750Y-118614630D01*
X155820745Y-118614631D01*
X155650476Y-118674211D01*
X155497737Y-118770184D01*
X155370184Y-118897737D01*
X155274211Y-119050476D01*
X155214631Y-119220745D01*
X155214630Y-119220750D01*
X155194435Y-119399996D01*
X139134339Y-119399996D01*
X139185115Y-119221536D01*
X139205643Y-119000000D01*
X139199886Y-118937876D01*
X139185115Y-118778464D01*
X139185114Y-118778462D01*
X139174279Y-118740382D01*
X139124229Y-118564472D01*
X139108830Y-118533546D01*
X139025061Y-118365316D01*
X139025056Y-118365308D01*
X138890979Y-118187761D01*
X138726562Y-118037876D01*
X138726560Y-118037874D01*
X138537404Y-117920754D01*
X138537398Y-117920752D01*
X138329940Y-117840382D01*
X138111243Y-117799500D01*
X137888757Y-117799500D01*
X137670060Y-117840382D01*
X137538864Y-117891207D01*
X137462601Y-117920752D01*
X137462595Y-117920754D01*
X137273439Y-118037874D01*
X137273437Y-118037876D01*
X137109020Y-118187761D01*
X136974943Y-118365308D01*
X136974938Y-118365316D01*
X136875775Y-118564461D01*
X136875769Y-118564476D01*
X136814885Y-118778462D01*
X136814884Y-118778464D01*
X136794357Y-118999999D01*
X135500500Y-118999999D01*
X135500500Y-115399996D01*
X146794435Y-115399996D01*
X146794435Y-115400003D01*
X146814630Y-115579249D01*
X146814631Y-115579254D01*
X146874211Y-115749523D01*
X146969076Y-115900499D01*
X146970184Y-115902262D01*
X147097738Y-116029816D01*
X147160904Y-116069506D01*
X147232721Y-116114632D01*
X147250478Y-116125789D01*
X147388857Y-116174210D01*
X147420745Y-116185368D01*
X147420750Y-116185369D01*
X147599996Y-116205565D01*
X147600000Y-116205565D01*
X147600004Y-116205565D01*
X147779249Y-116185369D01*
X147779251Y-116185368D01*
X147779255Y-116185368D01*
X147779258Y-116185366D01*
X147779262Y-116185366D01*
X147892488Y-116145746D01*
X147949522Y-116125789D01*
X148039096Y-116069505D01*
X148105068Y-116050500D01*
X174079192Y-116050500D01*
X174146231Y-116070185D01*
X174166873Y-116086819D01*
X176485325Y-118405272D01*
X176485332Y-118405278D01*
X176562466Y-118456817D01*
X176562469Y-118456818D01*
X176572315Y-118463397D01*
X176591872Y-118476465D01*
X176631910Y-118493049D01*
X176710256Y-118525501D01*
X176710260Y-118525501D01*
X176710261Y-118525502D01*
X176835928Y-118550500D01*
X176835931Y-118550500D01*
X180964071Y-118550500D01*
X181049300Y-118533546D01*
X181089744Y-118525501D01*
X181208127Y-118476465D01*
X181208127Y-118476464D01*
X181208129Y-118476464D01*
X181225009Y-118465185D01*
X181237531Y-118456818D01*
X181281619Y-118427359D01*
X181336624Y-118407242D01*
X181360016Y-118404607D01*
X181530283Y-118345028D01*
X181562465Y-118324806D01*
X181629699Y-118305806D01*
X181694409Y-118324806D01*
X181776623Y-118376465D01*
X181790858Y-118385409D01*
X181905437Y-118425502D01*
X181961125Y-118444988D01*
X181961130Y-118444989D01*
X182140376Y-118465185D01*
X182140380Y-118465185D01*
X182140384Y-118465185D01*
X182319629Y-118444989D01*
X182319632Y-118444988D01*
X182319635Y-118444988D01*
X182489902Y-118385409D01*
X182642642Y-118289436D01*
X182770196Y-118161882D01*
X182866169Y-118009142D01*
X182925748Y-117838875D01*
X182930129Y-117799996D01*
X182945945Y-117659623D01*
X182945945Y-117659616D01*
X182925749Y-117480370D01*
X182925748Y-117480365D01*
X182915289Y-117450476D01*
X182866169Y-117310098D01*
X182770196Y-117157358D01*
X182642642Y-117029804D01*
X182604066Y-117005565D01*
X182489901Y-116933830D01*
X182319635Y-116874252D01*
X182319626Y-116874250D01*
X182312392Y-116873435D01*
X182247980Y-116846364D01*
X182238603Y-116837897D01*
X181864673Y-116463966D01*
X181864672Y-116463965D01*
X181758124Y-116392772D01*
X181639746Y-116343738D01*
X181637699Y-116343331D01*
X181637043Y-116343201D01*
X181637037Y-116343199D01*
X181514070Y-116318739D01*
X181514068Y-116318739D01*
X180847453Y-116318739D01*
X180847451Y-116318739D01*
X180724483Y-116343199D01*
X180724478Y-116343201D01*
X180723954Y-116343305D01*
X180721774Y-116343738D01*
X180603396Y-116392772D01*
X180496848Y-116463965D01*
X180496847Y-116463966D01*
X180247634Y-116713181D01*
X180186311Y-116746666D01*
X180159953Y-116749500D01*
X179775138Y-116749500D01*
X179708099Y-116729815D01*
X179662344Y-116677011D01*
X179652400Y-116607853D01*
X179658097Y-116584545D01*
X179686189Y-116504263D01*
X179686192Y-116504250D01*
X179706388Y-116325004D01*
X179706388Y-116324997D01*
X179686192Y-116145751D01*
X179686191Y-116145746D01*
X179626612Y-115975479D01*
X179530639Y-115822739D01*
X179403085Y-115695185D01*
X179273395Y-115613695D01*
X179250344Y-115599211D01*
X179122615Y-115554517D01*
X179080078Y-115539633D01*
X179080077Y-115539632D01*
X179075259Y-115537947D01*
X179028532Y-115508586D01*
X178221722Y-114701776D01*
X178188237Y-114640453D01*
X178186182Y-114627973D01*
X178185368Y-114620745D01*
X178125789Y-114450478D01*
X178125489Y-114450001D01*
X178075931Y-114371129D01*
X178029816Y-114297738D01*
X177902262Y-114170184D01*
X177882345Y-114157669D01*
X177749523Y-114074211D01*
X177579254Y-114014631D01*
X177579249Y-114014630D01*
X177400004Y-113994435D01*
X177399996Y-113994435D01*
X177220750Y-114014630D01*
X177220737Y-114014633D01*
X177050480Y-114074209D01*
X177011240Y-114098865D01*
X176944003Y-114117864D01*
X176886701Y-114101035D01*
X176886125Y-114102232D01*
X176879852Y-114099211D01*
X176709593Y-114039634D01*
X176709580Y-114039631D01*
X176530335Y-114019436D01*
X176530327Y-114019436D01*
X176351081Y-114039631D01*
X176351076Y-114039632D01*
X176180807Y-114099212D01*
X176028068Y-114195185D01*
X175900515Y-114322738D01*
X175900513Y-114322741D01*
X175883749Y-114349421D01*
X175831414Y-114395712D01*
X175762360Y-114406359D01*
X175698512Y-114377983D01*
X175691075Y-114371129D01*
X175214674Y-113894727D01*
X175214673Y-113894726D01*
X175108123Y-113823532D01*
X174989749Y-113774501D01*
X174989748Y-113774500D01*
X174989744Y-113774499D01*
X174989741Y-113774498D01*
X174989737Y-113774497D01*
X174988286Y-113774209D01*
X174988286Y-113774208D01*
X174864071Y-113749500D01*
X174864069Y-113749500D01*
X153805068Y-113749500D01*
X153739096Y-113730494D01*
X153649522Y-113674210D01*
X153649518Y-113674209D01*
X153479262Y-113614633D01*
X153479249Y-113614630D01*
X153300004Y-113594435D01*
X153299996Y-113594435D01*
X153120750Y-113614630D01*
X153120745Y-113614631D01*
X152950476Y-113674211D01*
X152797737Y-113770184D01*
X152670184Y-113897737D01*
X152574211Y-114050476D01*
X152514631Y-114220745D01*
X152514630Y-114220750D01*
X152494435Y-114399996D01*
X152494435Y-114400003D01*
X152514630Y-114579249D01*
X152514632Y-114579257D01*
X152516483Y-114584546D01*
X152520044Y-114654325D01*
X152485315Y-114714952D01*
X152423322Y-114747179D01*
X152399441Y-114749500D01*
X148105068Y-114749500D01*
X148039096Y-114730494D01*
X147949522Y-114674210D01*
X147949518Y-114674209D01*
X147779262Y-114614633D01*
X147779249Y-114614630D01*
X147600004Y-114594435D01*
X147599996Y-114594435D01*
X147420750Y-114614630D01*
X147420745Y-114614631D01*
X147250476Y-114674211D01*
X147097737Y-114770184D01*
X146970184Y-114897737D01*
X146874211Y-115050476D01*
X146814631Y-115220745D01*
X146814630Y-115220750D01*
X146794435Y-115399996D01*
X135500500Y-115399996D01*
X135500500Y-104099475D01*
X139993914Y-104099475D01*
X139993914Y-104099482D01*
X140014109Y-104278728D01*
X140014110Y-104278733D01*
X140073690Y-104449002D01*
X140143667Y-104560369D01*
X140169663Y-104601741D01*
X140297217Y-104729295D01*
X140449957Y-104825268D01*
X140560102Y-104863809D01*
X140616878Y-104904531D01*
X140636189Y-104939894D01*
X140653598Y-104989645D01*
X140674732Y-105050044D01*
X140699065Y-105088769D01*
X140770705Y-105202783D01*
X140898259Y-105330337D01*
X141050999Y-105426310D01*
X141190147Y-105475000D01*
X141221266Y-105485889D01*
X141221271Y-105485890D01*
X141400517Y-105506086D01*
X141400521Y-105506086D01*
X141400525Y-105506086D01*
X141579770Y-105485890D01*
X141579773Y-105485889D01*
X141579776Y-105485889D01*
X141750043Y-105426310D01*
X141902783Y-105330337D01*
X142030337Y-105202783D01*
X142126310Y-105050043D01*
X142185889Y-104879776D01*
X142185890Y-104879770D01*
X142206086Y-104700524D01*
X142206086Y-104700517D01*
X142188553Y-104544904D01*
X142200608Y-104476082D01*
X142224086Y-104443346D01*
X142455615Y-104211817D01*
X142516937Y-104178335D01*
X142543295Y-104175501D01*
X144037711Y-104175501D01*
X144104750Y-104195186D01*
X144142703Y-104233527D01*
X144170184Y-104277262D01*
X144297738Y-104404816D01*
X144450478Y-104500789D01*
X144589749Y-104549522D01*
X144620745Y-104560368D01*
X144620750Y-104560369D01*
X144799996Y-104580565D01*
X144800000Y-104580565D01*
X144800004Y-104580565D01*
X144979249Y-104560369D01*
X144979252Y-104560368D01*
X144979255Y-104560368D01*
X145149522Y-104500789D01*
X145302262Y-104404816D01*
X145429816Y-104277262D01*
X145525789Y-104124522D01*
X145585368Y-103954255D01*
X145589202Y-103920229D01*
X145605565Y-103775003D01*
X145605565Y-103774996D01*
X145585369Y-103595750D01*
X145585366Y-103595737D01*
X145525789Y-103425479D01*
X145525789Y-103425478D01*
X145519815Y-103415971D01*
X145500815Y-103348737D01*
X145519816Y-103284027D01*
X145525789Y-103274522D01*
X145569965Y-103148274D01*
X145585366Y-103104262D01*
X145585369Y-103104249D01*
X145605565Y-102925003D01*
X145605565Y-102924996D01*
X145585369Y-102745750D01*
X145585368Y-102745745D01*
X145546322Y-102634159D01*
X145525789Y-102575478D01*
X145519470Y-102565422D01*
X145479784Y-102502262D01*
X145429816Y-102422738D01*
X145302262Y-102295184D01*
X145149523Y-102199211D01*
X144979254Y-102139631D01*
X144979249Y-102139630D01*
X144800004Y-102119435D01*
X144799996Y-102119435D01*
X144620750Y-102139630D01*
X144620745Y-102139631D01*
X144450476Y-102199211D01*
X144297737Y-102295184D01*
X144170184Y-102422737D01*
X144142705Y-102466471D01*
X144090370Y-102512762D01*
X144037711Y-102524499D01*
X142143471Y-102524499D01*
X142143455Y-102524498D01*
X142135859Y-102524498D01*
X141977745Y-102524498D01*
X141825017Y-102565422D01*
X141825015Y-102565423D01*
X141804508Y-102577261D01*
X141804509Y-102577262D01*
X141688089Y-102644476D01*
X141688084Y-102644480D01*
X141576280Y-102756285D01*
X141056657Y-103275907D01*
X140995334Y-103309392D01*
X140955093Y-103311446D01*
X140799483Y-103293914D01*
X140799475Y-103293914D01*
X140620229Y-103314109D01*
X140620224Y-103314110D01*
X140449955Y-103373690D01*
X140297216Y-103469663D01*
X140169663Y-103597216D01*
X140073690Y-103749955D01*
X140014110Y-103920224D01*
X140014109Y-103920229D01*
X139993914Y-104099475D01*
X135500500Y-104099475D01*
X135500500Y-95512492D01*
X148244671Y-95512492D01*
X148244671Y-95512507D01*
X148263964Y-95806863D01*
X148263965Y-95806873D01*
X148263966Y-95806880D01*
X148276985Y-95872334D01*
X148321518Y-96096216D01*
X148321521Y-96096230D01*
X148416349Y-96375580D01*
X148546825Y-96640160D01*
X148546829Y-96640167D01*
X148710725Y-96885455D01*
X148905241Y-97107258D01*
X149127044Y-97301774D01*
X149318691Y-97429828D01*
X149372335Y-97465672D01*
X149636923Y-97596152D01*
X149916278Y-97690981D01*
X150205620Y-97748534D01*
X150233888Y-97750386D01*
X150499993Y-97767829D01*
X150500000Y-97767829D01*
X150500007Y-97767829D01*
X150735675Y-97752381D01*
X150794380Y-97748534D01*
X151083722Y-97690981D01*
X151363077Y-97596152D01*
X151627665Y-97465672D01*
X151872957Y-97301773D01*
X152094758Y-97107258D01*
X152289273Y-96885457D01*
X152453172Y-96640165D01*
X152583652Y-96375577D01*
X152678481Y-96096222D01*
X152736034Y-95806880D01*
X152740951Y-95731863D01*
X152755329Y-95512507D01*
X152755329Y-95512492D01*
X152736035Y-95218136D01*
X152736034Y-95218120D01*
X152678481Y-94928778D01*
X152583652Y-94649423D01*
X152453172Y-94384836D01*
X152289273Y-94139543D01*
X152166896Y-93999999D01*
X152094758Y-93917741D01*
X151872955Y-93723225D01*
X151860099Y-93714635D01*
X153249500Y-93714635D01*
X153249500Y-97310370D01*
X153249501Y-97310376D01*
X153255908Y-97369983D01*
X153306202Y-97504828D01*
X153306206Y-97504835D01*
X153392452Y-97620044D01*
X153392455Y-97620047D01*
X153507664Y-97706293D01*
X153507671Y-97706297D01*
X153642517Y-97756591D01*
X153642516Y-97756591D01*
X153649444Y-97757335D01*
X153702127Y-97763000D01*
X157297872Y-97762999D01*
X157357483Y-97756591D01*
X157492331Y-97706296D01*
X157607546Y-97620046D01*
X157693796Y-97504831D01*
X157744091Y-97369983D01*
X157750500Y-97310373D01*
X157750499Y-95512492D01*
X163594671Y-95512492D01*
X163594671Y-95512507D01*
X163613964Y-95806863D01*
X163613965Y-95806873D01*
X163613966Y-95806880D01*
X163626985Y-95872334D01*
X163671518Y-96096216D01*
X163671521Y-96096230D01*
X163766349Y-96375580D01*
X163896825Y-96640160D01*
X163896829Y-96640167D01*
X164060725Y-96885455D01*
X164255241Y-97107258D01*
X164477044Y-97301774D01*
X164668691Y-97429828D01*
X164722335Y-97465672D01*
X164986923Y-97596152D01*
X165266278Y-97690981D01*
X165555620Y-97748534D01*
X165583888Y-97750386D01*
X165849993Y-97767829D01*
X165850000Y-97767829D01*
X165850007Y-97767829D01*
X166085675Y-97752381D01*
X166144380Y-97748534D01*
X166433722Y-97690981D01*
X166713077Y-97596152D01*
X166977665Y-97465672D01*
X167222957Y-97301773D01*
X167444758Y-97107258D01*
X167639273Y-96885457D01*
X167803172Y-96640165D01*
X167933652Y-96375577D01*
X168028481Y-96096222D01*
X168086034Y-95806880D01*
X168090951Y-95731863D01*
X168105329Y-95512507D01*
X168105329Y-95512492D01*
X168086035Y-95218136D01*
X168086034Y-95218120D01*
X168028481Y-94928778D01*
X167933652Y-94649423D01*
X167803172Y-94384836D01*
X167639273Y-94139543D01*
X167516896Y-93999999D01*
X167444758Y-93917741D01*
X167222955Y-93723225D01*
X167210099Y-93714635D01*
X168599500Y-93714635D01*
X168599500Y-97310370D01*
X168599501Y-97310376D01*
X168605908Y-97369983D01*
X168656202Y-97504828D01*
X168656206Y-97504835D01*
X168742452Y-97620044D01*
X168742455Y-97620047D01*
X168857664Y-97706293D01*
X168857671Y-97706297D01*
X168992517Y-97756591D01*
X168992516Y-97756591D01*
X168999444Y-97757335D01*
X169052127Y-97763000D01*
X172647872Y-97762999D01*
X172707483Y-97756591D01*
X172842331Y-97706296D01*
X172957546Y-97620046D01*
X173043796Y-97504831D01*
X173094091Y-97369983D01*
X173100500Y-97310373D01*
X173100499Y-95512492D01*
X178944671Y-95512492D01*
X178944671Y-95512507D01*
X178963964Y-95806863D01*
X178963965Y-95806873D01*
X178963966Y-95806880D01*
X178976985Y-95872334D01*
X179021518Y-96096216D01*
X179021521Y-96096230D01*
X179116349Y-96375580D01*
X179246825Y-96640160D01*
X179246829Y-96640167D01*
X179410725Y-96885455D01*
X179605241Y-97107258D01*
X179827044Y-97301774D01*
X180018691Y-97429828D01*
X180072335Y-97465672D01*
X180336923Y-97596152D01*
X180616278Y-97690981D01*
X180905620Y-97748534D01*
X180933888Y-97750386D01*
X181199993Y-97767829D01*
X181200000Y-97767829D01*
X181200007Y-97767829D01*
X181435675Y-97752381D01*
X181494380Y-97748534D01*
X181783722Y-97690981D01*
X182063077Y-97596152D01*
X182327665Y-97465672D01*
X182572957Y-97301773D01*
X182794758Y-97107258D01*
X182989273Y-96885457D01*
X183153172Y-96640165D01*
X183283652Y-96375577D01*
X183378481Y-96096222D01*
X183436034Y-95806880D01*
X183440951Y-95731863D01*
X183455329Y-95512507D01*
X183455329Y-95512492D01*
X183436035Y-95218136D01*
X183436034Y-95218120D01*
X183378481Y-94928778D01*
X183283652Y-94649423D01*
X183153172Y-94384836D01*
X182989273Y-94139543D01*
X182866896Y-93999999D01*
X182794758Y-93917741D01*
X182572955Y-93723225D01*
X182560099Y-93714635D01*
X183949500Y-93714635D01*
X183949500Y-97310370D01*
X183949501Y-97310376D01*
X183955908Y-97369983D01*
X184006202Y-97504828D01*
X184006206Y-97504835D01*
X184092452Y-97620044D01*
X184092455Y-97620047D01*
X184207664Y-97706293D01*
X184207671Y-97706297D01*
X184342517Y-97756591D01*
X184342516Y-97756591D01*
X184349444Y-97757335D01*
X184402127Y-97763000D01*
X187997872Y-97762999D01*
X188057483Y-97756591D01*
X188192331Y-97706296D01*
X188307546Y-97620046D01*
X188393796Y-97504831D01*
X188444091Y-97369983D01*
X188450500Y-97310373D01*
X188450499Y-95437492D01*
X194344671Y-95437492D01*
X194344671Y-95437507D01*
X194363964Y-95731863D01*
X194363965Y-95731873D01*
X194363966Y-95731880D01*
X194363968Y-95731890D01*
X194421518Y-96021216D01*
X194421521Y-96021230D01*
X194516349Y-96300580D01*
X194646825Y-96565160D01*
X194646829Y-96565167D01*
X194810725Y-96810455D01*
X195005241Y-97032258D01*
X195227044Y-97226774D01*
X195352174Y-97310383D01*
X195472335Y-97390672D01*
X195736923Y-97521152D01*
X196016278Y-97615981D01*
X196305620Y-97673534D01*
X196333888Y-97675386D01*
X196599993Y-97692829D01*
X196600000Y-97692829D01*
X196600007Y-97692829D01*
X196835675Y-97677381D01*
X196894380Y-97673534D01*
X197183722Y-97615981D01*
X197463077Y-97521152D01*
X197727665Y-97390672D01*
X197972957Y-97226773D01*
X198194758Y-97032258D01*
X198389273Y-96810457D01*
X198553172Y-96565165D01*
X198683652Y-96300577D01*
X198778481Y-96021222D01*
X198836034Y-95731880D01*
X198839881Y-95673175D01*
X198855329Y-95437507D01*
X198855329Y-95437492D01*
X198836035Y-95143136D01*
X198836034Y-95143120D01*
X198778481Y-94853778D01*
X198683652Y-94574423D01*
X198553172Y-94309836D01*
X198389273Y-94064543D01*
X198332669Y-93999999D01*
X198194758Y-93842741D01*
X197972955Y-93648225D01*
X197960099Y-93639635D01*
X199349500Y-93639635D01*
X199349500Y-97235370D01*
X199349501Y-97235376D01*
X199355908Y-97294983D01*
X199406202Y-97429828D01*
X199406206Y-97429835D01*
X199492452Y-97545044D01*
X199492455Y-97545047D01*
X199607664Y-97631293D01*
X199607671Y-97631297D01*
X199742517Y-97681591D01*
X199742516Y-97681591D01*
X199749444Y-97682335D01*
X199802127Y-97688000D01*
X203397872Y-97687999D01*
X203457483Y-97681591D01*
X203592331Y-97631296D01*
X203707546Y-97545046D01*
X203793796Y-97429831D01*
X203844091Y-97294983D01*
X203850500Y-97235373D01*
X203850500Y-96999992D01*
X207644671Y-96999992D01*
X207644671Y-97000007D01*
X207663964Y-97294363D01*
X207663965Y-97294373D01*
X207663966Y-97294380D01*
X207683119Y-97390672D01*
X207721518Y-97583716D01*
X207721521Y-97583730D01*
X207816349Y-97863080D01*
X207946825Y-98127660D01*
X207946829Y-98127667D01*
X208110725Y-98372955D01*
X208305241Y-98594758D01*
X208527043Y-98789273D01*
X208772335Y-98953172D01*
X209036923Y-99083652D01*
X209316278Y-99178481D01*
X209605620Y-99236034D01*
X209633888Y-99237886D01*
X209899993Y-99255329D01*
X209900000Y-99255329D01*
X209900007Y-99255329D01*
X210135675Y-99239881D01*
X210194380Y-99236034D01*
X210483722Y-99178481D01*
X210763077Y-99083652D01*
X211027665Y-98953172D01*
X211272957Y-98789273D01*
X211494758Y-98594758D01*
X211689273Y-98372957D01*
X211853172Y-98127665D01*
X211983652Y-97863077D01*
X212078481Y-97583722D01*
X212136034Y-97294380D01*
X212155329Y-97000000D01*
X212155329Y-96999992D01*
X212136035Y-96705636D01*
X212136034Y-96705620D01*
X212078481Y-96416278D01*
X211983652Y-96136923D01*
X211853172Y-95872336D01*
X211809424Y-95806863D01*
X211759329Y-95731890D01*
X211689273Y-95627043D01*
X211646655Y-95578447D01*
X211494758Y-95405241D01*
X211272955Y-95210725D01*
X211027667Y-95046829D01*
X211027660Y-95046825D01*
X210763080Y-94916349D01*
X210483730Y-94821521D01*
X210483724Y-94821519D01*
X210483722Y-94821519D01*
X210194380Y-94763966D01*
X210194373Y-94763965D01*
X210194363Y-94763964D01*
X209900007Y-94744671D01*
X209899993Y-94744671D01*
X209605636Y-94763964D01*
X209605624Y-94763965D01*
X209605620Y-94763966D01*
X209605612Y-94763967D01*
X209605609Y-94763968D01*
X209316283Y-94821518D01*
X209316269Y-94821521D01*
X209036919Y-94916349D01*
X208772334Y-95046828D01*
X208527041Y-95210728D01*
X208305241Y-95405241D01*
X208110728Y-95627041D01*
X207946828Y-95872334D01*
X207816349Y-96136919D01*
X207721521Y-96416269D01*
X207721518Y-96416283D01*
X207663968Y-96705609D01*
X207663964Y-96705636D01*
X207644671Y-96999992D01*
X203850500Y-96999992D01*
X203850499Y-93999999D01*
X218694357Y-93999999D01*
X218694357Y-94000000D01*
X218714884Y-94221535D01*
X218714885Y-94221537D01*
X218775769Y-94435523D01*
X218775775Y-94435538D01*
X218874938Y-94634683D01*
X218874943Y-94634691D01*
X219009020Y-94812238D01*
X219173437Y-94962123D01*
X219173439Y-94962125D01*
X219362595Y-95079245D01*
X219362596Y-95079245D01*
X219362599Y-95079247D01*
X219570060Y-95159618D01*
X219788757Y-95200500D01*
X219788759Y-95200500D01*
X220011241Y-95200500D01*
X220011243Y-95200500D01*
X220229940Y-95159618D01*
X220437401Y-95079247D01*
X220626562Y-94962124D01*
X220790981Y-94812236D01*
X220925058Y-94634689D01*
X221024229Y-94435528D01*
X221085115Y-94221536D01*
X221105643Y-94000000D01*
X221085115Y-93778464D01*
X221024229Y-93564472D01*
X221024224Y-93564461D01*
X220925061Y-93365316D01*
X220925056Y-93365308D01*
X220790979Y-93187761D01*
X220626562Y-93037876D01*
X220626560Y-93037874D01*
X220437404Y-92920754D01*
X220437398Y-92920752D01*
X220229940Y-92840382D01*
X220011243Y-92799500D01*
X219788757Y-92799500D01*
X219570060Y-92840382D01*
X219438864Y-92891207D01*
X219362601Y-92920752D01*
X219362595Y-92920754D01*
X219173439Y-93037874D01*
X219173437Y-93037876D01*
X219009020Y-93187761D01*
X218874943Y-93365308D01*
X218874938Y-93365316D01*
X218775775Y-93564461D01*
X218775769Y-93564476D01*
X218714885Y-93778462D01*
X218714884Y-93778464D01*
X218694357Y-93999999D01*
X203850499Y-93999999D01*
X203850499Y-93639628D01*
X203844091Y-93580017D01*
X203836373Y-93559325D01*
X203793797Y-93445171D01*
X203793793Y-93445164D01*
X203707547Y-93329955D01*
X203707544Y-93329952D01*
X203592335Y-93243706D01*
X203592328Y-93243702D01*
X203457482Y-93193408D01*
X203457483Y-93193408D01*
X203397883Y-93187001D01*
X203397881Y-93187000D01*
X203397873Y-93187000D01*
X203397864Y-93187000D01*
X199802129Y-93187000D01*
X199802123Y-93187001D01*
X199742516Y-93193408D01*
X199607671Y-93243702D01*
X199607664Y-93243706D01*
X199492455Y-93329952D01*
X199492452Y-93329955D01*
X199406206Y-93445164D01*
X199406202Y-93445171D01*
X199355908Y-93580017D01*
X199349501Y-93639616D01*
X199349501Y-93639623D01*
X199349500Y-93639635D01*
X197960099Y-93639635D01*
X197727667Y-93484329D01*
X197727660Y-93484325D01*
X197463080Y-93353849D01*
X197183730Y-93259021D01*
X197183724Y-93259019D01*
X197183722Y-93259019D01*
X196894380Y-93201466D01*
X196894373Y-93201465D01*
X196894363Y-93201464D01*
X196600007Y-93182171D01*
X196599993Y-93182171D01*
X196305636Y-93201464D01*
X196305624Y-93201465D01*
X196305620Y-93201466D01*
X196305612Y-93201467D01*
X196305609Y-93201468D01*
X196016283Y-93259018D01*
X196016269Y-93259021D01*
X195736919Y-93353849D01*
X195472334Y-93484328D01*
X195227041Y-93648228D01*
X195005241Y-93842741D01*
X194810728Y-94064541D01*
X194646828Y-94309834D01*
X194516349Y-94574419D01*
X194421521Y-94853769D01*
X194421518Y-94853783D01*
X194363968Y-95143109D01*
X194363964Y-95143136D01*
X194344671Y-95437492D01*
X188450499Y-95437492D01*
X188450499Y-93714628D01*
X188444091Y-93655017D01*
X188441558Y-93648227D01*
X188393797Y-93520171D01*
X188393793Y-93520164D01*
X188307547Y-93404955D01*
X188307544Y-93404952D01*
X188192335Y-93318706D01*
X188192328Y-93318702D01*
X188057482Y-93268408D01*
X188057483Y-93268408D01*
X187997883Y-93262001D01*
X187997881Y-93262000D01*
X187997873Y-93262000D01*
X187997864Y-93262000D01*
X184402129Y-93262000D01*
X184402123Y-93262001D01*
X184342516Y-93268408D01*
X184207671Y-93318702D01*
X184207664Y-93318706D01*
X184092455Y-93404952D01*
X184092452Y-93404955D01*
X184006206Y-93520164D01*
X184006202Y-93520171D01*
X183955908Y-93655017D01*
X183949501Y-93714616D01*
X183949501Y-93714623D01*
X183949500Y-93714635D01*
X182560099Y-93714635D01*
X182327667Y-93559329D01*
X182327660Y-93559325D01*
X182063080Y-93428849D01*
X181783730Y-93334021D01*
X181783724Y-93334019D01*
X181783722Y-93334019D01*
X181494380Y-93276466D01*
X181494373Y-93276465D01*
X181494363Y-93276464D01*
X181200007Y-93257171D01*
X181199993Y-93257171D01*
X180905636Y-93276464D01*
X180905624Y-93276465D01*
X180905620Y-93276466D01*
X180905612Y-93276467D01*
X180905609Y-93276468D01*
X180616283Y-93334018D01*
X180616269Y-93334021D01*
X180336919Y-93428849D01*
X180072334Y-93559328D01*
X179827041Y-93723228D01*
X179605241Y-93917741D01*
X179410728Y-94139541D01*
X179246828Y-94384834D01*
X179116349Y-94649419D01*
X179021521Y-94928769D01*
X179021518Y-94928783D01*
X178963968Y-95218109D01*
X178963964Y-95218136D01*
X178944671Y-95512492D01*
X173100499Y-95512492D01*
X173100499Y-93714628D01*
X173094091Y-93655017D01*
X173091558Y-93648227D01*
X173043797Y-93520171D01*
X173043793Y-93520164D01*
X172957547Y-93404955D01*
X172957544Y-93404952D01*
X172842335Y-93318706D01*
X172842328Y-93318702D01*
X172707482Y-93268408D01*
X172707483Y-93268408D01*
X172647883Y-93262001D01*
X172647881Y-93262000D01*
X172647873Y-93262000D01*
X172647864Y-93262000D01*
X169052129Y-93262000D01*
X169052123Y-93262001D01*
X168992516Y-93268408D01*
X168857671Y-93318702D01*
X168857664Y-93318706D01*
X168742455Y-93404952D01*
X168742452Y-93404955D01*
X168656206Y-93520164D01*
X168656202Y-93520171D01*
X168605908Y-93655017D01*
X168599501Y-93714616D01*
X168599501Y-93714623D01*
X168599500Y-93714635D01*
X167210099Y-93714635D01*
X166977667Y-93559329D01*
X166977660Y-93559325D01*
X166713080Y-93428849D01*
X166433730Y-93334021D01*
X166433724Y-93334019D01*
X166433722Y-93334019D01*
X166144380Y-93276466D01*
X166144373Y-93276465D01*
X166144363Y-93276464D01*
X165850007Y-93257171D01*
X165849993Y-93257171D01*
X165555636Y-93276464D01*
X165555624Y-93276465D01*
X165555620Y-93276466D01*
X165555612Y-93276467D01*
X165555609Y-93276468D01*
X165266283Y-93334018D01*
X165266269Y-93334021D01*
X164986919Y-93428849D01*
X164722334Y-93559328D01*
X164477041Y-93723228D01*
X164255241Y-93917741D01*
X164060728Y-94139541D01*
X163896828Y-94384834D01*
X163766349Y-94649419D01*
X163671521Y-94928769D01*
X163671518Y-94928783D01*
X163613968Y-95218109D01*
X163613964Y-95218136D01*
X163594671Y-95512492D01*
X157750499Y-95512492D01*
X157750499Y-93714628D01*
X157744091Y-93655017D01*
X157741558Y-93648227D01*
X157693797Y-93520171D01*
X157693793Y-93520164D01*
X157607547Y-93404955D01*
X157607544Y-93404952D01*
X157492335Y-93318706D01*
X157492328Y-93318702D01*
X157357482Y-93268408D01*
X157357483Y-93268408D01*
X157297883Y-93262001D01*
X157297881Y-93262000D01*
X157297873Y-93262000D01*
X157297864Y-93262000D01*
X153702129Y-93262000D01*
X153702123Y-93262001D01*
X153642516Y-93268408D01*
X153507671Y-93318702D01*
X153507664Y-93318706D01*
X153392455Y-93404952D01*
X153392452Y-93404955D01*
X153306206Y-93520164D01*
X153306202Y-93520171D01*
X153255908Y-93655017D01*
X153249501Y-93714616D01*
X153249501Y-93714623D01*
X153249500Y-93714635D01*
X151860099Y-93714635D01*
X151627667Y-93559329D01*
X151627660Y-93559325D01*
X151363080Y-93428849D01*
X151083730Y-93334021D01*
X151083724Y-93334019D01*
X151083722Y-93334019D01*
X150794380Y-93276466D01*
X150794373Y-93276465D01*
X150794363Y-93276464D01*
X150500007Y-93257171D01*
X150499993Y-93257171D01*
X150205636Y-93276464D01*
X150205624Y-93276465D01*
X150205620Y-93276466D01*
X150205612Y-93276467D01*
X150205609Y-93276468D01*
X149916283Y-93334018D01*
X149916269Y-93334021D01*
X149636919Y-93428849D01*
X149372334Y-93559328D01*
X149127041Y-93723228D01*
X148905241Y-93917741D01*
X148710728Y-94139541D01*
X148546828Y-94384834D01*
X148416349Y-94649419D01*
X148321521Y-94928769D01*
X148321518Y-94928783D01*
X148263968Y-95218109D01*
X148263964Y-95218136D01*
X148244671Y-95512492D01*
X135500500Y-95512492D01*
X135500500Y-87530206D01*
X135500618Y-87524797D01*
X135505806Y-87405956D01*
X138145500Y-87405956D01*
X138145500Y-87649043D01*
X138145501Y-87649059D01*
X138177230Y-87890069D01*
X138240149Y-88124886D01*
X138333175Y-88349472D01*
X138333182Y-88349487D01*
X138454730Y-88560016D01*
X138602722Y-88752880D01*
X138602730Y-88752889D01*
X138774611Y-88924770D01*
X138774619Y-88924777D01*
X138967483Y-89072769D01*
X139178012Y-89194317D01*
X139178027Y-89194324D01*
X139294171Y-89242432D01*
X139402612Y-89287350D01*
X139637429Y-89350269D01*
X139878450Y-89382000D01*
X139878457Y-89382000D01*
X140121543Y-89382000D01*
X140121550Y-89382000D01*
X140362571Y-89350269D01*
X140597388Y-89287350D01*
X140821984Y-89194319D01*
X141032516Y-89072769D01*
X141225380Y-88924778D01*
X141225384Y-88924773D01*
X141225389Y-88924770D01*
X141397270Y-88752889D01*
X141397273Y-88752884D01*
X141397278Y-88752880D01*
X141545269Y-88560016D01*
X141666819Y-88349484D01*
X141759850Y-88124888D01*
X141822769Y-87890071D01*
X141854500Y-87649050D01*
X141854500Y-87405950D01*
X141850880Y-87378456D01*
X216145500Y-87378456D01*
X216145500Y-87621543D01*
X216145501Y-87621559D01*
X216177230Y-87862569D01*
X216240149Y-88097386D01*
X216333175Y-88321972D01*
X216333182Y-88321987D01*
X216454730Y-88532516D01*
X216602722Y-88725380D01*
X216602730Y-88725389D01*
X216774611Y-88897270D01*
X216774619Y-88897277D01*
X216967483Y-89045269D01*
X217178012Y-89166817D01*
X217178027Y-89166824D01*
X217294171Y-89214932D01*
X217402612Y-89259850D01*
X217637429Y-89322769D01*
X217878450Y-89354500D01*
X217878457Y-89354500D01*
X218121543Y-89354500D01*
X218121550Y-89354500D01*
X218362571Y-89322769D01*
X218597388Y-89259850D01*
X218821984Y-89166819D01*
X219032516Y-89045269D01*
X219225380Y-88897278D01*
X219225384Y-88897273D01*
X219225389Y-88897270D01*
X219397270Y-88725389D01*
X219397273Y-88725384D01*
X219397278Y-88725380D01*
X219545269Y-88532516D01*
X219666819Y-88321984D01*
X219759850Y-88097388D01*
X219822769Y-87862571D01*
X219854500Y-87621550D01*
X219854500Y-87378450D01*
X219822769Y-87137429D01*
X219759850Y-86902612D01*
X219697275Y-86751542D01*
X219666824Y-86678027D01*
X219666817Y-86678012D01*
X219545269Y-86467483D01*
X219397277Y-86274619D01*
X219397270Y-86274611D01*
X219225389Y-86102730D01*
X219225380Y-86102722D01*
X219032516Y-85954730D01*
X218821987Y-85833182D01*
X218821972Y-85833175D01*
X218597386Y-85740149D01*
X218362569Y-85677230D01*
X218121559Y-85645501D01*
X218121556Y-85645500D01*
X218121550Y-85645500D01*
X217878450Y-85645500D01*
X217878444Y-85645500D01*
X217878440Y-85645501D01*
X217637430Y-85677230D01*
X217402613Y-85740149D01*
X217178027Y-85833175D01*
X217178012Y-85833182D01*
X216967483Y-85954730D01*
X216774619Y-86102722D01*
X216602722Y-86274619D01*
X216454730Y-86467483D01*
X216333182Y-86678012D01*
X216333175Y-86678027D01*
X216240149Y-86902613D01*
X216177230Y-87137430D01*
X216145501Y-87378440D01*
X216145500Y-87378456D01*
X141850880Y-87378456D01*
X141822769Y-87164929D01*
X141759850Y-86930112D01*
X141685884Y-86751542D01*
X141666824Y-86705527D01*
X141666817Y-86705512D01*
X141545269Y-86494983D01*
X141424346Y-86337395D01*
X141397278Y-86302120D01*
X141397277Y-86302119D01*
X141397270Y-86302111D01*
X141225389Y-86130230D01*
X141225380Y-86130222D01*
X141032516Y-85982230D01*
X140821987Y-85860682D01*
X140821972Y-85860675D01*
X140597386Y-85767649D01*
X140362569Y-85704730D01*
X140121559Y-85673001D01*
X140121556Y-85673000D01*
X140121550Y-85673000D01*
X139878450Y-85673000D01*
X139878444Y-85673000D01*
X139878440Y-85673001D01*
X139637430Y-85704730D01*
X139402613Y-85767649D01*
X139178027Y-85860675D01*
X139178012Y-85860682D01*
X138967483Y-85982230D01*
X138774619Y-86130222D01*
X138602722Y-86302119D01*
X138454730Y-86494983D01*
X138333182Y-86705512D01*
X138333175Y-86705527D01*
X138240149Y-86930113D01*
X138177230Y-87164930D01*
X138145501Y-87405940D01*
X138145500Y-87405956D01*
X135505806Y-87405956D01*
X135517386Y-87140726D01*
X135518326Y-87129995D01*
X135568152Y-86751525D01*
X135570025Y-86740905D01*
X135652649Y-86368209D01*
X135655440Y-86357795D01*
X135770230Y-85993727D01*
X135773917Y-85983595D01*
X135920003Y-85630912D01*
X135924561Y-85621138D01*
X135981115Y-85512499D01*
X146294357Y-85512499D01*
X146294357Y-85512500D01*
X146314884Y-85734035D01*
X146314885Y-85734037D01*
X146375769Y-85948023D01*
X146375775Y-85948038D01*
X146474938Y-86147183D01*
X146474943Y-86147191D01*
X146609020Y-86324738D01*
X146773437Y-86474623D01*
X146773439Y-86474625D01*
X146962595Y-86591745D01*
X146962596Y-86591745D01*
X146962599Y-86591747D01*
X147170060Y-86672118D01*
X147388757Y-86713000D01*
X147388759Y-86713000D01*
X147611241Y-86713000D01*
X147611243Y-86713000D01*
X147829940Y-86672118D01*
X148037401Y-86591747D01*
X148226562Y-86474624D01*
X148390981Y-86324736D01*
X148525058Y-86147189D01*
X148624229Y-85948028D01*
X148685115Y-85734036D01*
X148705643Y-85512500D01*
X148705643Y-85512499D01*
X157294357Y-85512499D01*
X157294357Y-85512500D01*
X157314884Y-85734035D01*
X157314885Y-85734037D01*
X157375769Y-85948023D01*
X157375775Y-85948038D01*
X157474938Y-86147183D01*
X157474943Y-86147191D01*
X157609020Y-86324738D01*
X157773437Y-86474623D01*
X157773439Y-86474625D01*
X157962595Y-86591745D01*
X157962596Y-86591745D01*
X157962599Y-86591747D01*
X158170060Y-86672118D01*
X158388757Y-86713000D01*
X158388759Y-86713000D01*
X158611241Y-86713000D01*
X158611243Y-86713000D01*
X158829940Y-86672118D01*
X159037401Y-86591747D01*
X159226562Y-86474624D01*
X159390981Y-86324736D01*
X159525058Y-86147189D01*
X159624229Y-85948028D01*
X159685115Y-85734036D01*
X159705643Y-85512500D01*
X159705643Y-85512499D01*
X161644357Y-85512499D01*
X161644357Y-85512500D01*
X161664884Y-85734035D01*
X161664885Y-85734037D01*
X161725769Y-85948023D01*
X161725775Y-85948038D01*
X161824938Y-86147183D01*
X161824943Y-86147191D01*
X161959020Y-86324738D01*
X162123437Y-86474623D01*
X162123439Y-86474625D01*
X162312595Y-86591745D01*
X162312596Y-86591745D01*
X162312599Y-86591747D01*
X162520060Y-86672118D01*
X162738757Y-86713000D01*
X162738759Y-86713000D01*
X162961241Y-86713000D01*
X162961243Y-86713000D01*
X163179940Y-86672118D01*
X163387401Y-86591747D01*
X163576562Y-86474624D01*
X163740981Y-86324736D01*
X163875058Y-86147189D01*
X163974229Y-85948028D01*
X164035115Y-85734036D01*
X164055643Y-85512500D01*
X164055643Y-85512499D01*
X172644357Y-85512499D01*
X172644357Y-85512500D01*
X172664884Y-85734035D01*
X172664885Y-85734037D01*
X172725769Y-85948023D01*
X172725775Y-85948038D01*
X172824938Y-86147183D01*
X172824943Y-86147191D01*
X172959020Y-86324738D01*
X173123437Y-86474623D01*
X173123439Y-86474625D01*
X173312595Y-86591745D01*
X173312596Y-86591745D01*
X173312599Y-86591747D01*
X173520060Y-86672118D01*
X173738757Y-86713000D01*
X173738759Y-86713000D01*
X173961241Y-86713000D01*
X173961243Y-86713000D01*
X174179940Y-86672118D01*
X174387401Y-86591747D01*
X174576562Y-86474624D01*
X174740981Y-86324736D01*
X174875058Y-86147189D01*
X174974229Y-85948028D01*
X175035115Y-85734036D01*
X175055643Y-85512500D01*
X175055643Y-85512499D01*
X176994357Y-85512499D01*
X176994357Y-85512500D01*
X177014884Y-85734035D01*
X177014885Y-85734037D01*
X177075769Y-85948023D01*
X177075775Y-85948038D01*
X177174938Y-86147183D01*
X177174943Y-86147191D01*
X177309020Y-86324738D01*
X177473437Y-86474623D01*
X177473439Y-86474625D01*
X177662595Y-86591745D01*
X177662596Y-86591745D01*
X177662599Y-86591747D01*
X177870060Y-86672118D01*
X178088757Y-86713000D01*
X178088759Y-86713000D01*
X178311241Y-86713000D01*
X178311243Y-86713000D01*
X178529940Y-86672118D01*
X178737401Y-86591747D01*
X178926562Y-86474624D01*
X179090981Y-86324736D01*
X179225058Y-86147189D01*
X179324229Y-85948028D01*
X179385115Y-85734036D01*
X179405643Y-85512500D01*
X179405643Y-85512499D01*
X187994357Y-85512499D01*
X187994357Y-85512500D01*
X188014884Y-85734035D01*
X188014885Y-85734037D01*
X188075769Y-85948023D01*
X188075775Y-85948038D01*
X188174938Y-86147183D01*
X188174943Y-86147191D01*
X188309020Y-86324738D01*
X188473437Y-86474623D01*
X188473439Y-86474625D01*
X188662595Y-86591745D01*
X188662596Y-86591745D01*
X188662599Y-86591747D01*
X188870060Y-86672118D01*
X189088757Y-86713000D01*
X189088759Y-86713000D01*
X189311241Y-86713000D01*
X189311243Y-86713000D01*
X189529940Y-86672118D01*
X189737401Y-86591747D01*
X189926562Y-86474624D01*
X190090981Y-86324736D01*
X190225058Y-86147189D01*
X190324229Y-85948028D01*
X190385115Y-85734036D01*
X190405643Y-85512500D01*
X190398693Y-85437499D01*
X192394357Y-85437499D01*
X192394357Y-85437500D01*
X192414884Y-85659035D01*
X192414885Y-85659037D01*
X192475769Y-85873023D01*
X192475775Y-85873038D01*
X192574938Y-86072183D01*
X192574943Y-86072191D01*
X192709020Y-86249738D01*
X192873437Y-86399623D01*
X192873439Y-86399625D01*
X193062595Y-86516745D01*
X193062596Y-86516745D01*
X193062599Y-86516747D01*
X193270060Y-86597118D01*
X193488757Y-86638000D01*
X193488759Y-86638000D01*
X193711241Y-86638000D01*
X193711243Y-86638000D01*
X193929940Y-86597118D01*
X194137401Y-86516747D01*
X194326562Y-86399624D01*
X194490981Y-86249736D01*
X194625058Y-86072189D01*
X194724229Y-85873028D01*
X194785115Y-85659036D01*
X194805643Y-85437500D01*
X194805643Y-85437499D01*
X203394357Y-85437499D01*
X203394357Y-85437500D01*
X203414884Y-85659035D01*
X203414885Y-85659037D01*
X203475769Y-85873023D01*
X203475775Y-85873038D01*
X203574938Y-86072183D01*
X203574943Y-86072191D01*
X203709020Y-86249738D01*
X203873437Y-86399623D01*
X203873439Y-86399625D01*
X204062595Y-86516745D01*
X204062596Y-86516745D01*
X204062599Y-86516747D01*
X204270060Y-86597118D01*
X204488757Y-86638000D01*
X204488759Y-86638000D01*
X204711241Y-86638000D01*
X204711243Y-86638000D01*
X204929940Y-86597118D01*
X205137401Y-86516747D01*
X205326562Y-86399624D01*
X205490981Y-86249736D01*
X205625058Y-86072189D01*
X205724229Y-85873028D01*
X205785115Y-85659036D01*
X205805643Y-85437500D01*
X205792064Y-85290962D01*
X205785115Y-85215964D01*
X205785114Y-85215962D01*
X205724230Y-85001976D01*
X205724229Y-85001972D01*
X205698975Y-84951255D01*
X205625061Y-84802816D01*
X205625056Y-84802808D01*
X205490979Y-84625261D01*
X205326562Y-84475376D01*
X205326560Y-84475374D01*
X205137404Y-84358254D01*
X205137398Y-84358252D01*
X204929940Y-84277882D01*
X204711243Y-84237000D01*
X204488757Y-84237000D01*
X204270060Y-84277882D01*
X204168961Y-84317048D01*
X204062601Y-84358252D01*
X204062595Y-84358254D01*
X203873439Y-84475374D01*
X203873437Y-84475376D01*
X203709020Y-84625261D01*
X203574943Y-84802808D01*
X203574938Y-84802816D01*
X203475775Y-85001961D01*
X203475769Y-85001976D01*
X203414885Y-85215962D01*
X203414884Y-85215964D01*
X203394357Y-85437499D01*
X194805643Y-85437499D01*
X194792064Y-85290962D01*
X194785115Y-85215964D01*
X194785114Y-85215962D01*
X194724230Y-85001976D01*
X194724229Y-85001972D01*
X194698975Y-84951255D01*
X194625061Y-84802816D01*
X194625056Y-84802808D01*
X194490979Y-84625261D01*
X194326562Y-84475376D01*
X194326560Y-84475374D01*
X194137404Y-84358254D01*
X194137398Y-84358252D01*
X193929940Y-84277882D01*
X193711243Y-84237000D01*
X193488757Y-84237000D01*
X193270060Y-84277882D01*
X193168961Y-84317048D01*
X193062601Y-84358252D01*
X193062595Y-84358254D01*
X192873439Y-84475374D01*
X192873437Y-84475376D01*
X192709020Y-84625261D01*
X192574943Y-84802808D01*
X192574938Y-84802816D01*
X192475775Y-85001961D01*
X192475769Y-85001976D01*
X192414885Y-85215962D01*
X192414884Y-85215964D01*
X192394357Y-85437499D01*
X190398693Y-85437499D01*
X190385115Y-85290964D01*
X190324229Y-85076972D01*
X190324224Y-85076961D01*
X190225061Y-84877816D01*
X190225056Y-84877808D01*
X190090979Y-84700261D01*
X189926562Y-84550376D01*
X189926560Y-84550374D01*
X189737404Y-84433254D01*
X189737398Y-84433252D01*
X189529940Y-84352882D01*
X189311243Y-84312000D01*
X189088757Y-84312000D01*
X188870060Y-84352882D01*
X188738864Y-84403707D01*
X188662601Y-84433252D01*
X188662595Y-84433254D01*
X188473439Y-84550374D01*
X188473437Y-84550376D01*
X188309020Y-84700261D01*
X188174943Y-84877808D01*
X188174938Y-84877816D01*
X188075775Y-85076961D01*
X188075769Y-85076976D01*
X188014885Y-85290962D01*
X188014884Y-85290964D01*
X187994357Y-85512499D01*
X179405643Y-85512499D01*
X179385115Y-85290964D01*
X179324229Y-85076972D01*
X179324224Y-85076961D01*
X179225061Y-84877816D01*
X179225056Y-84877808D01*
X179090979Y-84700261D01*
X178926562Y-84550376D01*
X178926560Y-84550374D01*
X178737404Y-84433254D01*
X178737398Y-84433252D01*
X178529940Y-84352882D01*
X178311243Y-84312000D01*
X178088757Y-84312000D01*
X177870060Y-84352882D01*
X177738864Y-84403707D01*
X177662601Y-84433252D01*
X177662595Y-84433254D01*
X177473439Y-84550374D01*
X177473437Y-84550376D01*
X177309020Y-84700261D01*
X177174943Y-84877808D01*
X177174938Y-84877816D01*
X177075775Y-85076961D01*
X177075769Y-85076976D01*
X177014885Y-85290962D01*
X177014884Y-85290964D01*
X176994357Y-85512499D01*
X175055643Y-85512499D01*
X175035115Y-85290964D01*
X174974229Y-85076972D01*
X174974224Y-85076961D01*
X174875061Y-84877816D01*
X174875056Y-84877808D01*
X174740979Y-84700261D01*
X174576562Y-84550376D01*
X174576560Y-84550374D01*
X174387404Y-84433254D01*
X174387398Y-84433252D01*
X174179940Y-84352882D01*
X173961243Y-84312000D01*
X173738757Y-84312000D01*
X173520060Y-84352882D01*
X173388864Y-84403707D01*
X173312601Y-84433252D01*
X173312595Y-84433254D01*
X173123439Y-84550374D01*
X173123437Y-84550376D01*
X172959020Y-84700261D01*
X172824943Y-84877808D01*
X172824938Y-84877816D01*
X172725775Y-85076961D01*
X172725769Y-85076976D01*
X172664885Y-85290962D01*
X172664884Y-85290964D01*
X172644357Y-85512499D01*
X164055643Y-85512499D01*
X164035115Y-85290964D01*
X163974229Y-85076972D01*
X163974224Y-85076961D01*
X163875061Y-84877816D01*
X163875056Y-84877808D01*
X163740979Y-84700261D01*
X163576562Y-84550376D01*
X163576560Y-84550374D01*
X163387404Y-84433254D01*
X163387398Y-84433252D01*
X163179940Y-84352882D01*
X162961243Y-84312000D01*
X162738757Y-84312000D01*
X162520060Y-84352882D01*
X162388864Y-84403707D01*
X162312601Y-84433252D01*
X162312595Y-84433254D01*
X162123439Y-84550374D01*
X162123437Y-84550376D01*
X161959020Y-84700261D01*
X161824943Y-84877808D01*
X161824938Y-84877816D01*
X161725775Y-85076961D01*
X161725769Y-85076976D01*
X161664885Y-85290962D01*
X161664884Y-85290964D01*
X161644357Y-85512499D01*
X159705643Y-85512499D01*
X159685115Y-85290964D01*
X159624229Y-85076972D01*
X159624224Y-85076961D01*
X159525061Y-84877816D01*
X159525056Y-84877808D01*
X159390979Y-84700261D01*
X159226562Y-84550376D01*
X159226560Y-84550374D01*
X159037404Y-84433254D01*
X159037398Y-84433252D01*
X158829940Y-84352882D01*
X158611243Y-84312000D01*
X158388757Y-84312000D01*
X158170060Y-84352882D01*
X158038864Y-84403707D01*
X157962601Y-84433252D01*
X157962595Y-84433254D01*
X157773439Y-84550374D01*
X157773437Y-84550376D01*
X157609020Y-84700261D01*
X157474943Y-84877808D01*
X157474938Y-84877816D01*
X157375775Y-85076961D01*
X157375769Y-85076976D01*
X157314885Y-85290962D01*
X157314884Y-85290964D01*
X157294357Y-85512499D01*
X148705643Y-85512499D01*
X148685115Y-85290964D01*
X148624229Y-85076972D01*
X148624224Y-85076961D01*
X148525061Y-84877816D01*
X148525056Y-84877808D01*
X148390979Y-84700261D01*
X148226562Y-84550376D01*
X148226560Y-84550374D01*
X148037404Y-84433254D01*
X148037398Y-84433252D01*
X147829940Y-84352882D01*
X147611243Y-84312000D01*
X147388757Y-84312000D01*
X147170060Y-84352882D01*
X147038864Y-84403707D01*
X146962601Y-84433252D01*
X146962595Y-84433254D01*
X146773439Y-84550374D01*
X146773437Y-84550376D01*
X146609020Y-84700261D01*
X146474943Y-84877808D01*
X146474938Y-84877816D01*
X146375775Y-85076961D01*
X146375769Y-85076976D01*
X146314885Y-85290962D01*
X146314884Y-85290964D01*
X146294357Y-85512499D01*
X135981115Y-85512499D01*
X136100822Y-85282545D01*
X136106217Y-85273200D01*
X136311325Y-84951244D01*
X136317515Y-84942405D01*
X136549896Y-84639560D01*
X136556834Y-84631291D01*
X136814726Y-84349852D01*
X136822352Y-84342226D01*
X137103791Y-84084334D01*
X137112060Y-84077396D01*
X137414905Y-83845015D01*
X137423744Y-83838825D01*
X137745700Y-83633717D01*
X137755045Y-83628322D01*
X138093638Y-83452061D01*
X138103412Y-83447503D01*
X138456095Y-83301417D01*
X138466227Y-83297730D01*
X138830295Y-83182940D01*
X138840709Y-83180149D01*
X139213405Y-83097525D01*
X139224025Y-83095652D01*
X139602495Y-83045826D01*
X139613226Y-83044886D01*
X139997297Y-83028117D01*
X140002706Y-83028000D01*
X140065892Y-83028000D01*
X217934108Y-83028000D01*
X217997294Y-83028000D01*
X218002702Y-83028118D01*
G37*
%TD.AperFunction*%
%TD*%
M02*
