%TF.GenerationSoftware,KiCad,Pcbnew,8.0.4*%
%TF.CreationDate,2025-01-10T17:56:01-05:00*%
%TF.ProjectId,V1.0,56312e30-2e6b-4696-9361-645f70636258,rev?*%
%TF.SameCoordinates,Original*%
%TF.FileFunction,Copper,L1,Top*%
%TF.FilePolarity,Positive*%
%FSLAX46Y46*%
G04 Gerber Fmt 4.6, Leading zero omitted, Abs format (unit mm)*
G04 Created by KiCad (PCBNEW 8.0.4) date 2025-01-10 17:56:01*
%MOMM*%
%LPD*%
G01*
G04 APERTURE LIST*
G04 Aperture macros list*
%AMRoundRect*
0 Rectangle with rounded corners*
0 $1 Rounding radius*
0 $2 $3 $4 $5 $6 $7 $8 $9 X,Y pos of 4 corners*
0 Add a 4 corners polygon primitive as box body*
4,1,4,$2,$3,$4,$5,$6,$7,$8,$9,$2,$3,0*
0 Add four circle primitives for the rounded corners*
1,1,$1+$1,$2,$3*
1,1,$1+$1,$4,$5*
1,1,$1+$1,$6,$7*
1,1,$1+$1,$8,$9*
0 Add four rect primitives between the rounded corners*
20,1,$1+$1,$2,$3,$4,$5,0*
20,1,$1+$1,$4,$5,$6,$7,0*
20,1,$1+$1,$6,$7,$8,$9,0*
20,1,$1+$1,$8,$9,$2,$3,0*%
G04 Aperture macros list end*
%TA.AperFunction,SMDPad,CuDef*%
%ADD10C,1.000000*%
%TD*%
%TA.AperFunction,SMDPad,CuDef*%
%ADD11RoundRect,0.225000X0.250000X-0.225000X0.250000X0.225000X-0.250000X0.225000X-0.250000X-0.225000X0*%
%TD*%
%TA.AperFunction,SMDPad,CuDef*%
%ADD12RoundRect,0.250000X0.650000X-0.325000X0.650000X0.325000X-0.650000X0.325000X-0.650000X-0.325000X0*%
%TD*%
%TA.AperFunction,SMDPad,CuDef*%
%ADD13RoundRect,0.250000X0.325000X0.650000X-0.325000X0.650000X-0.325000X-0.650000X0.325000X-0.650000X0*%
%TD*%
%TA.AperFunction,SMDPad,CuDef*%
%ADD14RoundRect,0.218750X0.256250X-0.218750X0.256250X0.218750X-0.256250X0.218750X-0.256250X-0.218750X0*%
%TD*%
%TA.AperFunction,SMDPad,CuDef*%
%ADD15RoundRect,0.135000X0.185000X-0.135000X0.185000X0.135000X-0.185000X0.135000X-0.185000X-0.135000X0*%
%TD*%
%TA.AperFunction,SMDPad,CuDef*%
%ADD16RoundRect,0.218750X-0.256250X0.218750X-0.256250X-0.218750X0.256250X-0.218750X0.256250X0.218750X0*%
%TD*%
%TA.AperFunction,SMDPad,CuDef*%
%ADD17RoundRect,0.075000X0.662500X0.075000X-0.662500X0.075000X-0.662500X-0.075000X0.662500X-0.075000X0*%
%TD*%
%TA.AperFunction,SMDPad,CuDef*%
%ADD18RoundRect,0.075000X0.075000X0.662500X-0.075000X0.662500X-0.075000X-0.662500X0.075000X-0.662500X0*%
%TD*%
%TA.AperFunction,SMDPad,CuDef*%
%ADD19RoundRect,0.250000X0.450000X-0.262500X0.450000X0.262500X-0.450000X0.262500X-0.450000X-0.262500X0*%
%TD*%
%TA.AperFunction,SMDPad,CuDef*%
%ADD20RoundRect,0.250000X-0.475000X0.250000X-0.475000X-0.250000X0.475000X-0.250000X0.475000X0.250000X0*%
%TD*%
%TA.AperFunction,SMDPad,CuDef*%
%ADD21RoundRect,0.150000X0.150000X-0.825000X0.150000X0.825000X-0.150000X0.825000X-0.150000X-0.825000X0*%
%TD*%
%TA.AperFunction,SMDPad,CuDef*%
%ADD22RoundRect,0.200000X-0.275000X0.200000X-0.275000X-0.200000X0.275000X-0.200000X0.275000X0.200000X0*%
%TD*%
%TA.AperFunction,SMDPad,CuDef*%
%ADD23RoundRect,0.375000X0.375000X-0.625000X0.375000X0.625000X-0.375000X0.625000X-0.375000X-0.625000X0*%
%TD*%
%TA.AperFunction,SMDPad,CuDef*%
%ADD24RoundRect,0.500000X1.400000X-0.500000X1.400000X0.500000X-1.400000X0.500000X-1.400000X-0.500000X0*%
%TD*%
%TA.AperFunction,SMDPad,CuDef*%
%ADD25RoundRect,0.200000X0.200000X0.275000X-0.200000X0.275000X-0.200000X-0.275000X0.200000X-0.275000X0*%
%TD*%
%TA.AperFunction,SMDPad,CuDef*%
%ADD26RoundRect,0.200000X0.275000X-0.200000X0.275000X0.200000X-0.275000X0.200000X-0.275000X-0.200000X0*%
%TD*%
%TA.AperFunction,SMDPad,CuDef*%
%ADD27RoundRect,0.140000X-0.170000X0.140000X-0.170000X-0.140000X0.170000X-0.140000X0.170000X0.140000X0*%
%TD*%
%TA.AperFunction,SMDPad,CuDef*%
%ADD28RoundRect,0.218750X-0.218750X-0.256250X0.218750X-0.256250X0.218750X0.256250X-0.218750X0.256250X0*%
%TD*%
%TA.AperFunction,ComponentPad*%
%ADD29C,1.400000*%
%TD*%
%TA.AperFunction,ComponentPad*%
%ADD30R,3.500000X3.500000*%
%TD*%
%TA.AperFunction,ComponentPad*%
%ADD31C,3.500000*%
%TD*%
%TA.AperFunction,SMDPad,CuDef*%
%ADD32RoundRect,0.125000X0.687500X0.125000X-0.687500X0.125000X-0.687500X-0.125000X0.687500X-0.125000X0*%
%TD*%
%TA.AperFunction,SMDPad,CuDef*%
%ADD33RoundRect,0.135000X-0.135000X-0.185000X0.135000X-0.185000X0.135000X0.185000X-0.135000X0.185000X0*%
%TD*%
%TA.AperFunction,SMDPad,CuDef*%
%ADD34RoundRect,0.140000X0.170000X-0.140000X0.170000X0.140000X-0.170000X0.140000X-0.170000X-0.140000X0*%
%TD*%
%TA.AperFunction,SMDPad,CuDef*%
%ADD35RoundRect,0.135000X-0.185000X0.135000X-0.185000X-0.135000X0.185000X-0.135000X0.185000X0.135000X0*%
%TD*%
%TA.AperFunction,SMDPad,CuDef*%
%ADD36RoundRect,0.250000X-1.500000X0.250000X-1.500000X-0.250000X1.500000X-0.250000X1.500000X0.250000X0*%
%TD*%
%TA.AperFunction,SMDPad,CuDef*%
%ADD37RoundRect,0.250001X-1.449999X0.499999X-1.449999X-0.499999X1.449999X-0.499999X1.449999X0.499999X0*%
%TD*%
%TA.AperFunction,SMDPad,CuDef*%
%ADD38RoundRect,0.218750X0.218750X0.256250X-0.218750X0.256250X-0.218750X-0.256250X0.218750X-0.256250X0*%
%TD*%
%TA.AperFunction,ComponentPad*%
%ADD39RoundRect,0.250000X-0.350000X-0.625000X0.350000X-0.625000X0.350000X0.625000X-0.350000X0.625000X0*%
%TD*%
%TA.AperFunction,ComponentPad*%
%ADD40O,1.200000X1.750000*%
%TD*%
%TA.AperFunction,SMDPad,CuDef*%
%ADD41RoundRect,0.250000X0.625000X-0.312500X0.625000X0.312500X-0.625000X0.312500X-0.625000X-0.312500X0*%
%TD*%
%TA.AperFunction,SMDPad,CuDef*%
%ADD42RoundRect,0.140000X0.140000X0.170000X-0.140000X0.170000X-0.140000X-0.170000X0.140000X-0.170000X0*%
%TD*%
%TA.AperFunction,SMDPad,CuDef*%
%ADD43RoundRect,0.250000X0.250000X0.475000X-0.250000X0.475000X-0.250000X-0.475000X0.250000X-0.475000X0*%
%TD*%
%TA.AperFunction,SMDPad,CuDef*%
%ADD44RoundRect,0.140000X-0.140000X-0.170000X0.140000X-0.170000X0.140000X0.170000X-0.140000X0.170000X0*%
%TD*%
%TA.AperFunction,ComponentPad*%
%ADD45RoundRect,0.250000X0.625000X-0.350000X0.625000X0.350000X-0.625000X0.350000X-0.625000X-0.350000X0*%
%TD*%
%TA.AperFunction,ComponentPad*%
%ADD46O,1.750000X1.200000*%
%TD*%
%TA.AperFunction,SMDPad,CuDef*%
%ADD47RoundRect,0.200000X-0.200000X-0.275000X0.200000X-0.275000X0.200000X0.275000X-0.200000X0.275000X0*%
%TD*%
%TA.AperFunction,SMDPad,CuDef*%
%ADD48R,1.409700X0.355600*%
%TD*%
%TA.AperFunction,SMDPad,CuDef*%
%ADD49R,2.971800X4.013200*%
%TD*%
%TA.AperFunction,SMDPad,CuDef*%
%ADD50RoundRect,0.125000X0.125000X-0.687500X0.125000X0.687500X-0.125000X0.687500X-0.125000X-0.687500X0*%
%TD*%
%TA.AperFunction,SMDPad,CuDef*%
%ADD51RoundRect,0.250000X0.850000X0.350000X-0.850000X0.350000X-0.850000X-0.350000X0.850000X-0.350000X0*%
%TD*%
%TA.AperFunction,SMDPad,CuDef*%
%ADD52RoundRect,0.250000X1.275000X1.125000X-1.275000X1.125000X-1.275000X-1.125000X1.275000X-1.125000X0*%
%TD*%
%TA.AperFunction,SMDPad,CuDef*%
%ADD53RoundRect,0.249997X2.950003X2.650003X-2.950003X2.650003X-2.950003X-2.650003X2.950003X-2.650003X0*%
%TD*%
%TA.AperFunction,SMDPad,CuDef*%
%ADD54RoundRect,0.250000X-0.325000X-0.650000X0.325000X-0.650000X0.325000X0.650000X-0.325000X0.650000X0*%
%TD*%
%TA.AperFunction,ComponentPad*%
%ADD55R,1.700000X1.700000*%
%TD*%
%TA.AperFunction,ComponentPad*%
%ADD56O,1.700000X1.700000*%
%TD*%
%TA.AperFunction,SMDPad,CuDef*%
%ADD57RoundRect,0.125000X0.600000X0.125000X-0.600000X0.125000X-0.600000X-0.125000X0.600000X-0.125000X0*%
%TD*%
%TA.AperFunction,HeatsinkPad*%
%ADD58R,1.570000X1.890000*%
%TD*%
%TA.AperFunction,SMDPad,CuDef*%
%ADD59R,3.098800X5.003800*%
%TD*%
%TA.AperFunction,SMDPad,CuDef*%
%ADD60RoundRect,0.250000X-0.262500X-0.450000X0.262500X-0.450000X0.262500X0.450000X-0.262500X0.450000X0*%
%TD*%
%TA.AperFunction,SMDPad,CuDef*%
%ADD61RoundRect,0.225000X0.225000X0.250000X-0.225000X0.250000X-0.225000X-0.250000X0.225000X-0.250000X0*%
%TD*%
%TA.AperFunction,ComponentPad*%
%ADD62R,1.000000X1.000000*%
%TD*%
%TA.AperFunction,ComponentPad*%
%ADD63O,1.000000X1.000000*%
%TD*%
%TA.AperFunction,SMDPad,CuDef*%
%ADD64RoundRect,0.250000X-0.650000X0.325000X-0.650000X-0.325000X0.650000X-0.325000X0.650000X0.325000X0*%
%TD*%
%TA.AperFunction,SMDPad,CuDef*%
%ADD65RoundRect,0.250000X-0.625000X0.312500X-0.625000X-0.312500X0.625000X-0.312500X0.625000X0.312500X0*%
%TD*%
%TA.AperFunction,SMDPad,CuDef*%
%ADD66RoundRect,0.150000X-0.825000X-0.150000X0.825000X-0.150000X0.825000X0.150000X-0.825000X0.150000X0*%
%TD*%
%TA.AperFunction,ViaPad*%
%ADD67C,0.600000*%
%TD*%
%TA.AperFunction,Conductor*%
%ADD68C,0.300000*%
%TD*%
%TA.AperFunction,Conductor*%
%ADD69C,1.250000*%
%TD*%
%TA.AperFunction,Conductor*%
%ADD70C,0.500000*%
%TD*%
%TA.AperFunction,Conductor*%
%ADD71C,2.000000*%
%TD*%
%TA.AperFunction,Conductor*%
%ADD72C,0.750000*%
%TD*%
%TA.AperFunction,Conductor*%
%ADD73C,0.200000*%
%TD*%
G04 APERTURE END LIST*
D10*
%TO.P,TP15,1,1*%
%TO.N,M2_IN*%
X167050000Y-101650000D03*
%TD*%
D11*
%TO.P,C19,1*%
%TO.N,+BATT*%
X176140000Y-142820000D03*
%TO.P,C19,2*%
%TO.N,Net-(BUCK_REG1-ADJ)*%
X176140000Y-141270000D03*
%TD*%
D10*
%TO.P,TP20,1,1*%
%TO.N,M4_OUT*%
X195700000Y-104900000D03*
%TD*%
D12*
%TO.P,C38,1*%
%TO.N,M6_IN+*%
X206000000Y-118375000D03*
%TO.P,C38,2*%
%TO.N,M6_OUT*%
X206000000Y-115425000D03*
%TD*%
D13*
%TO.P,C37,1*%
%TO.N,M3_IN+*%
X185375000Y-99437500D03*
%TO.P,C37,2*%
%TO.N,M3_OUT*%
X182425000Y-99437500D03*
%TD*%
D14*
%TO.P,D4,1,K*%
%TO.N,Net-(D4-K)*%
X180200000Y-125855000D03*
%TO.P,D4,2,A*%
%TO.N,+12V*%
X180200000Y-124280000D03*
%TD*%
D15*
%TO.P,R29,1*%
%TO.N,GND*%
X211200000Y-134910000D03*
%TO.P,R29,2*%
%TO.N,Net-(D17-K)*%
X211200000Y-133890000D03*
%TD*%
D16*
%TO.P,D14,1,K*%
%TO.N,M4_IN+*%
X200668750Y-101425000D03*
%TO.P,D14,2,A*%
%TO.N,Net-(D13-K)*%
X200668750Y-103000000D03*
%TD*%
D17*
%TO.P,U1,1,VBAT*%
%TO.N,+3.3V*%
X201162500Y-128287500D03*
%TO.P,U1,2,PC13*%
%TO.N,GPIO2*%
X201162500Y-127787500D03*
%TO.P,U1,3,PC14*%
%TO.N,/MCU/LED1*%
X201162500Y-127287500D03*
%TO.P,U1,4,PC15*%
%TO.N,/MCU/LED2*%
X201162500Y-126787500D03*
%TO.P,U1,5,PF0*%
%TO.N,RDY3*%
X201162500Y-126287500D03*
%TO.P,U1,6,PF1*%
%TO.N,GPIO3*%
X201162500Y-125787500D03*
%TO.P,U1,7,PG10*%
%TO.N,NREST*%
X201162500Y-125287500D03*
%TO.P,U1,8,PA0*%
%TO.N,CSA3*%
X201162500Y-124787500D03*
%TO.P,U1,9,PA1*%
%TO.N,CSA4*%
X201162500Y-124287500D03*
%TO.P,U1,10,PA2*%
%TO.N,CSA5*%
X201162500Y-123787500D03*
%TO.P,U1,11,PA3*%
%TO.N,CSA6*%
X201162500Y-123287500D03*
%TO.P,U1,12,PA4*%
%TO.N,NFAULT2*%
X201162500Y-122787500D03*
D18*
%TO.P,U1,13,PA5*%
%TO.N,SCLK*%
X199750000Y-121375000D03*
%TO.P,U1,14,PA6*%
%TO.N,MISO*%
X199250000Y-121375000D03*
%TO.P,U1,15,PA7*%
%TO.N,MOSI*%
X198750000Y-121375000D03*
%TO.P,U1,16,PB0*%
%TO.N,NSLEEP2*%
X198250000Y-121375000D03*
%TO.P,U1,17,PB1*%
%TO.N,NSLEEP1*%
X197750000Y-121375000D03*
%TO.P,U1,18,PB2*%
%TO.N,CS2*%
X197250000Y-121375000D03*
%TO.P,U1,19,VSSA*%
%TO.N,GND*%
X196750000Y-121375000D03*
%TO.P,U1,20,VREF+*%
%TO.N,+3.3V*%
X196250000Y-121375000D03*
%TO.P,U1,21,VDDA*%
%TO.N,+3.3VA*%
X195750000Y-121375000D03*
%TO.P,U1,22,PB10*%
%TO.N,CS1*%
X195250000Y-121375000D03*
%TO.P,U1,23,VSS*%
%TO.N,GND*%
X194750000Y-121375000D03*
%TO.P,U1,24,VDD*%
%TO.N,+3.3V*%
X194250000Y-121375000D03*
D17*
%TO.P,U1,25,PB11*%
%TO.N,TEMP*%
X192837500Y-122787500D03*
%TO.P,U1,26,PB12*%
%TO.N,CSA2*%
X192837500Y-123287500D03*
%TO.P,U1,27,PB13*%
%TO.N,NFAULT1*%
X192837500Y-123787500D03*
%TO.P,U1,28,PB14*%
%TO.N,CSA1*%
X192837500Y-124287500D03*
%TO.P,U1,29,PB15*%
%TO.N,/MCU/LED3*%
X192837500Y-124787500D03*
%TO.P,U1,30,PA8*%
%TO.N,PWM1*%
X192837500Y-125287500D03*
%TO.P,U1,31,PA9*%
%TO.N,PWM2*%
X192837500Y-125787500D03*
%TO.P,U1,32,PA10*%
%TO.N,PWM3*%
X192837500Y-126287500D03*
%TO.P,U1,33,PA11*%
%TO.N,FDCAN_RX*%
X192837500Y-126787500D03*
%TO.P,U1,34,PA12*%
%TO.N,FDCAN_TX*%
X192837500Y-127287500D03*
%TO.P,U1,35,VSS*%
%TO.N,GND*%
X192837500Y-127787500D03*
%TO.P,U1,36,VDD*%
%TO.N,+3.3V*%
X192837500Y-128287500D03*
D18*
%TO.P,U1,37,PA13*%
%TO.N,/MCU/SWDIO*%
X194250000Y-129700000D03*
%TO.P,U1,38,PA14*%
%TO.N,/MCU/SWCLK*%
X194750000Y-129700000D03*
%TO.P,U1,39,PA15*%
%TO.N,SCL*%
X195250000Y-129700000D03*
%TO.P,U1,40,PB3*%
%TO.N,SWO*%
X195750000Y-129700000D03*
%TO.P,U1,41,PB4*%
%TO.N,RDY1*%
X196250000Y-129700000D03*
%TO.P,U1,42,PB5*%
%TO.N,RDY2*%
X196750000Y-129700000D03*
%TO.P,U1,43,PB6*%
%TO.N,GPIO1*%
X197250000Y-129700000D03*
%TO.P,U1,44,PB7*%
%TO.N,SDA*%
X197750000Y-129700000D03*
%TO.P,U1,45,PB8*%
%TO.N,/MCU/BOOT0*%
X198250000Y-129700000D03*
%TO.P,U1,46,PB9*%
%TO.N,unconnected-(U1-PB9-Pad46)*%
X198750000Y-129700000D03*
%TO.P,U1,47,VSS*%
%TO.N,GND*%
X199250000Y-129700000D03*
%TO.P,U1,48,VDD*%
%TO.N,+3.3V*%
X199750000Y-129700000D03*
%TD*%
D10*
%TO.P,TP16,1,1*%
%TO.N,M2_OUT*%
X178950000Y-103700000D03*
%TD*%
%TO.P,TP14,1,1*%
%TO.N,M1_OUT*%
X148800000Y-99700000D03*
%TD*%
D19*
%TO.P,R12,1*%
%TO.N,M1_IN*%
X156100000Y-100712500D03*
%TO.P,R12,2*%
%TO.N,M1_IN+*%
X156100000Y-98887500D03*
%TD*%
D16*
%TO.P,D6,1,K*%
%TO.N,M1_IN+*%
X152400000Y-101850000D03*
%TO.P,D6,2,A*%
%TO.N,Net-(D5-K)*%
X152400000Y-103425000D03*
%TD*%
D20*
%TO.P,C24,1*%
%TO.N,+5V*%
X153400000Y-106700000D03*
%TO.P,C24,2*%
%TO.N,GND*%
X153400000Y-108600000D03*
%TD*%
D21*
%TO.P,U6,1,TXD*%
%TO.N,FDCAN_TX*%
X147295000Y-113475000D03*
%TO.P,U6,2,GND*%
%TO.N,GND*%
X148565000Y-113475000D03*
%TO.P,U6,3,VCC*%
%TO.N,+5V*%
X149835000Y-113475000D03*
%TO.P,U6,4,RXD*%
%TO.N,FDCAN_RX*%
X151105000Y-113475000D03*
%TO.P,U6,5,VIO*%
%TO.N,+3.3V*%
X151105000Y-108525000D03*
%TO.P,U6,6,CANL*%
%TO.N,CAN-*%
X149835000Y-108525000D03*
%TO.P,U6,7,CANH*%
%TO.N,CAN+*%
X148565000Y-108525000D03*
%TO.P,U6,8,STB*%
%TO.N,GND*%
X147295000Y-108525000D03*
%TD*%
D22*
%TO.P,R17,1*%
%TO.N,Net-(D4-K)*%
X180200000Y-127630000D03*
%TO.P,R17,2*%
%TO.N,GND*%
X180200000Y-129280000D03*
%TD*%
D23*
%TO.P,U5,1,GND*%
%TO.N,GND*%
X166700000Y-113300000D03*
%TO.P,U5,2,VO*%
%TO.N,+3.3V*%
X169000000Y-113300000D03*
D24*
X169000000Y-107000000D03*
D23*
%TO.P,U5,3,VI*%
%TO.N,+5V*%
X171300000Y-113300000D03*
%TD*%
D25*
%TO.P,R7,1*%
%TO.N,Net-(C20-Pad2)*%
X165625000Y-131800000D03*
%TO.P,R7,2*%
%TO.N,Net-(D1-K)*%
X163975000Y-131800000D03*
%TD*%
D26*
%TO.P,R22,1*%
%TO.N,Net-(D13-K)*%
X202568750Y-103037500D03*
%TO.P,R22,2*%
%TO.N,M4_IN+*%
X202568750Y-101387500D03*
%TD*%
D22*
%TO.P,R6,1*%
%TO.N,Net-(BUCK_REG1-RT)*%
X177940000Y-141220000D03*
%TO.P,R6,2*%
%TO.N,+BATT*%
X177940000Y-142870000D03*
%TD*%
D10*
%TO.P,TP17,1,1*%
%TO.N,M3_IN*%
X185800000Y-102900000D03*
%TD*%
D27*
%TO.P,C14,1*%
%TO.N,+3.3V*%
X201200000Y-110620000D03*
%TO.P,C14,2*%
%TO.N,GND*%
X201200000Y-111580000D03*
%TD*%
D15*
%TO.P,R30,1*%
%TO.N,GND*%
X213200000Y-134910000D03*
%TO.P,R30,2*%
%TO.N,Net-(D18-K)*%
X213200000Y-133890000D03*
%TD*%
D22*
%TO.P,R8,1*%
%TO.N,+12V*%
X174800000Y-133775000D03*
%TO.P,R8,2*%
%TO.N,Net-(BUCK_REG1-FB)*%
X174800000Y-135425000D03*
%TD*%
D28*
%TO.P,D11,1,K*%
%TO.N,Net-(D11-K)*%
X204912500Y-120050000D03*
%TO.P,D11,2,A*%
%TO.N,M6_IN+*%
X206487500Y-120050000D03*
%TD*%
D16*
%TO.P,D10,1,K*%
%TO.N,M3_IN+*%
X178800000Y-99050000D03*
%TO.P,D10,2,A*%
%TO.N,Net-(D10-A)*%
X178800000Y-100625000D03*
%TD*%
D29*
%TO.P,J8,*%
%TO.N,*%
X147500000Y-85512500D03*
X158500000Y-85512500D03*
D30*
%TO.P,J8,1,Pin_1*%
%TO.N,M1_IN+*%
X155500000Y-95512500D03*
D31*
%TO.P,J8,2,Pin_2*%
%TO.N,M1_OUT*%
X150500000Y-95512500D03*
%TD*%
D32*
%TO.P,U8,1,OUT1*%
%TO.N,CSA4*%
X193725000Y-100787500D03*
%TO.P,U8,2,IN-1*%
%TO.N,M4_IN*%
X193725000Y-100137500D03*
%TO.P,U8,3,IN+1*%
%TO.N,M4_IN+*%
X193725000Y-99487500D03*
%TO.P,U8,4,GND*%
%TO.N,GND*%
X193725000Y-98837500D03*
%TO.P,U8,5,IN+2*%
%TO.N,M3_IN+*%
X189500000Y-98837500D03*
%TO.P,U8,6,IN-2*%
%TO.N,M3_IN*%
X189500000Y-99487500D03*
%TO.P,U8,7,OUT2*%
%TO.N,CSA3*%
X189500000Y-100137500D03*
%TO.P,U8,8,VS*%
%TO.N,+2.8V*%
X189500000Y-100787500D03*
%TD*%
D33*
%TO.P,R2,1*%
%TO.N,+3.3V*%
X180665001Y-115575001D03*
%TO.P,R2,2*%
%TO.N,NFAULT1*%
X181685001Y-115575001D03*
%TD*%
D11*
%TO.P,C21,1*%
%TO.N,Net-(BUCK_REG1-FB)*%
X173000000Y-135375000D03*
%TO.P,C21,2*%
%TO.N,Net-(C20-Pad2)*%
X173000000Y-133825000D03*
%TD*%
D34*
%TO.P,C12,1*%
%TO.N,+3.3V*%
X178975001Y-110055001D03*
%TO.P,C12,2*%
%TO.N,GND*%
X178975001Y-109095001D03*
%TD*%
D27*
%TO.P,C10,1*%
%TO.N,NREST*%
X208000000Y-126320000D03*
%TO.P,C10,2*%
%TO.N,GND*%
X208000000Y-127280000D03*
%TD*%
D29*
%TO.P,J7,*%
%TO.N,*%
X138000000Y-130000000D03*
X138000000Y-119000000D03*
D30*
%TO.P,J7,1,Pin_1*%
%TO.N,+BATT*%
X148000000Y-122000000D03*
D31*
%TO.P,J7,2,Pin_2*%
%TO.N,GND*%
X148000000Y-127000000D03*
%TD*%
D10*
%TO.P,TP10,1,1*%
%TO.N,SDA*%
X193400000Y-137600000D03*
%TD*%
D35*
%TO.P,R10,1*%
%TO.N,Net-(D3-K)*%
X183800000Y-127745000D03*
%TO.P,R10,2*%
%TO.N,GND*%
X183800000Y-128765000D03*
%TD*%
D15*
%TO.P,R27,1*%
%TO.N,+3.3V*%
X197400000Y-133910000D03*
%TO.P,R27,2*%
%TO.N,SDA*%
X197400000Y-132890000D03*
%TD*%
D14*
%TO.P,D19,1,K*%
%TO.N,Net-(D19-K)*%
X186800000Y-127987500D03*
%TO.P,D19,2,A*%
%TO.N,/MCU/LED3*%
X186800000Y-126412500D03*
%TD*%
D36*
%TO.P,J4,1,Pin_1*%
%TO.N,CAN+*%
X142500000Y-95527500D03*
%TO.P,J4,2,Pin_2*%
%TO.N,CAN-*%
X142500000Y-97527500D03*
%TO.P,J4,3,Pin_3*%
%TO.N,GND*%
X142500000Y-99527500D03*
D37*
%TO.P,J4,MP*%
%TO.N,N/C*%
X136750000Y-93177500D03*
X136750000Y-101877500D03*
%TD*%
D10*
%TO.P,TP6,1,1*%
%TO.N,MISO*%
X200600000Y-119400000D03*
%TD*%
D38*
%TO.P,FB1,1*%
%TO.N,+3.3VA*%
X192775000Y-118353750D03*
%TO.P,FB1,2*%
%TO.N,+3.3V*%
X191200000Y-118353750D03*
%TD*%
D14*
%TO.P,D7,1,K*%
%TO.N,Net-(D7-K)*%
X171825000Y-100612500D03*
%TO.P,D7,2,A*%
%TO.N,M2_IN+*%
X171825000Y-99037500D03*
%TD*%
D35*
%TO.P,R9,1*%
%TO.N,+5V*%
X182000000Y-127745000D03*
%TO.P,R9,2*%
%TO.N,GND*%
X182000000Y-128765000D03*
%TD*%
D39*
%TO.P,J15,1,Pin_1*%
%TO.N,+3.3V*%
X199500000Y-141050000D03*
D40*
%TO.P,J15,2,Pin_2*%
%TO.N,GND*%
X201500000Y-141050000D03*
%TO.P,J15,3,Pin_3*%
%TO.N,SCL*%
X203500000Y-141050000D03*
%TO.P,J15,4,Pin_4*%
%TO.N,SDA*%
X205500000Y-141050000D03*
%TO.P,J15,5,Pin_5*%
%TO.N,RDY2*%
X207500000Y-141050000D03*
%TO.P,J15,6,Pin_6*%
%TO.N,PWM2*%
X209500000Y-141050000D03*
%TO.P,J15,7,Pin_7*%
%TO.N,GPIO2*%
X211500000Y-141050000D03*
%TD*%
D26*
%TO.P,R19,1*%
%TO.N,Net-(D7-K)*%
X175425000Y-100650000D03*
%TO.P,R19,2*%
%TO.N,M2_IN+*%
X175425000Y-99000000D03*
%TD*%
D41*
%TO.P,R4,1*%
%TO.N,+BATT*%
X161340000Y-142047500D03*
%TO.P,R4,2*%
%TO.N,/Power/ISEN*%
X161340000Y-139122500D03*
%TD*%
D42*
%TO.P,C30,1*%
%TO.N,+12V*%
X191680000Y-105700000D03*
%TO.P,C30,2*%
%TO.N,GND*%
X190720000Y-105700000D03*
%TD*%
D10*
%TO.P,TP3,1,1*%
%TO.N,+12V*%
X161900000Y-117100000D03*
%TD*%
D43*
%TO.P,C25,1*%
%TO.N,+5V*%
X170050000Y-116050000D03*
%TO.P,C25,2*%
%TO.N,GND*%
X168150000Y-116050000D03*
%TD*%
D44*
%TO.P,C9,1*%
%TO.N,+3.3V*%
X196220000Y-119400000D03*
%TO.P,C9,2*%
%TO.N,GND*%
X197180000Y-119400000D03*
%TD*%
D10*
%TO.P,TP1,1,1*%
%TO.N,+3.3V*%
X163900000Y-111200000D03*
%TD*%
D42*
%TO.P,C2,1*%
%TO.N,+3.3V*%
X200430000Y-131600000D03*
%TO.P,C2,2*%
%TO.N,GND*%
X199470000Y-131600000D03*
%TD*%
D19*
%TO.P,R25,1*%
%TO.N,M3_IN*%
X187300000Y-100712500D03*
%TO.P,R25,2*%
%TO.N,M3_IN+*%
X187300000Y-98887500D03*
%TD*%
D10*
%TO.P,TP19,1,1*%
%TO.N,M4_IN*%
X196000000Y-102600000D03*
%TD*%
D33*
%TO.P,R3,1*%
%TO.N,+3.3V*%
X197490000Y-105200000D03*
%TO.P,R3,2*%
%TO.N,NFAULT2*%
X198510000Y-105200000D03*
%TD*%
D45*
%TO.P,J16,1,Pin_1*%
%TO.N,+3.3V*%
X216800000Y-136300000D03*
D46*
%TO.P,J16,2,Pin_2*%
%TO.N,GND*%
X216800000Y-134300000D03*
%TO.P,J16,3,Pin_3*%
%TO.N,SCL*%
X216800000Y-132300000D03*
%TO.P,J16,4,Pin_4*%
%TO.N,SDA*%
X216800000Y-130300000D03*
%TO.P,J16,5,Pin_5*%
%TO.N,RDY3*%
X216800000Y-128300000D03*
%TO.P,J16,6,Pin_6*%
%TO.N,PWM3*%
X216800000Y-126300000D03*
%TO.P,J16,7,Pin_7*%
%TO.N,GPIO3*%
X216800000Y-124300000D03*
%TD*%
D10*
%TO.P,TP2,1,1*%
%TO.N,+5V*%
X153400000Y-111400000D03*
%TD*%
D38*
%TO.P,D12,1,K*%
%TO.N,M6_IN+*%
X206487500Y-121750000D03*
%TO.P,D12,2,A*%
%TO.N,Net-(D11-K)*%
X204912500Y-121750000D03*
%TD*%
D14*
%TO.P,D3,1,K*%
%TO.N,Net-(D3-K)*%
X183800000Y-125855000D03*
%TO.P,D3,2,A*%
%TO.N,+3.3V*%
X183800000Y-124280000D03*
%TD*%
D29*
%TO.P,J13,*%
%TO.N,*%
X219900000Y-94000000D03*
X219900000Y-105000000D03*
D30*
%TO.P,J13,1,Pin_1*%
%TO.N,M5_IN+*%
X209900000Y-102000000D03*
D31*
%TO.P,J13,2,Pin_2*%
%TO.N,M5_OUT*%
X209900000Y-97000000D03*
%TD*%
D33*
%TO.P,R1,1*%
%TO.N,/MCU/BOOT0*%
X199490000Y-133600000D03*
%TO.P,R1,2*%
%TO.N,GND*%
X200510000Y-133600000D03*
%TD*%
D12*
%TO.P,C40,1*%
%TO.N,M5_IN+*%
X206100000Y-103075000D03*
%TO.P,C40,2*%
%TO.N,M5_OUT*%
X206100000Y-100125000D03*
%TD*%
D14*
%TO.P,D13,1,K*%
%TO.N,Net-(D13-K)*%
X198768750Y-103000000D03*
%TO.P,D13,2,A*%
%TO.N,M4_IN+*%
X198768750Y-101425000D03*
%TD*%
D47*
%TO.P,R21,1*%
%TO.N,Net-(D11-K)*%
X204875000Y-123450000D03*
%TO.P,R21,2*%
%TO.N,M6_IN+*%
X206525000Y-123450000D03*
%TD*%
D10*
%TO.P,TP24,1,1*%
%TO.N,M6_OUT*%
X200450000Y-115150000D03*
%TD*%
D48*
%TO.P,U2,1,GND*%
%TO.N,GND*%
X181669501Y-106825001D03*
%TO.P,U2,2,OUT1*%
%TO.N,M2_IN*%
X181669501Y-107475000D03*
%TO.P,U2,3,OUT5*%
%TO.N,M2_OUT*%
X181669501Y-108124998D03*
%TO.P,U2,4,NC*%
%TO.N,unconnected-(U2-NC-Pad4)*%
X181669501Y-108774999D03*
%TO.P,U2,5,SDI*%
%TO.N,MOSI*%
X181669501Y-109424998D03*
%TO.P,U2,6,VDD*%
%TO.N,+3.3V*%
X181669501Y-110074999D03*
%TO.P,U2,7,SDO*%
%TO.N,MISO*%
X181669501Y-110724998D03*
%TO.P,U2,8,NSLEEP*%
%TO.N,NSLEEP1*%
X181669501Y-111374999D03*
%TO.P,U2,9,NC*%
%TO.N,unconnected-(U2-NC-Pad9)*%
X181669501Y-112024998D03*
%TO.P,U2,10,OUT6*%
%TO.N,M1_IN*%
X181669501Y-112674999D03*
%TO.P,U2,11,OUT4*%
%TO.N,M1_OUT*%
X181669501Y-113324998D03*
%TO.P,U2,12,NFAULT*%
%TO.N,NFAULT1*%
X181669501Y-113974999D03*
%TO.P,U2,13,GND*%
%TO.N,GND*%
X187575001Y-113974999D03*
%TO.P,U2,14,OUT3*%
%TO.N,M3_OUT*%
X187575001Y-113325000D03*
%TO.P,U2,15,NC*%
%TO.N,unconnected-(U2-NC-Pad15)*%
X187575001Y-112674999D03*
%TO.P,U2,16,VM*%
%TO.N,+12V*%
X187575001Y-112025001D03*
%TO.P,U2,17,NC*%
%TO.N,unconnected-(U2-NC-Pad17)*%
X187575001Y-111374999D03*
%TO.P,U2,18,NC*%
%TO.N,unconnected-(U2-NC-Pad18)*%
X187575001Y-110725001D03*
%TO.P,U2,19,NSCS*%
%TO.N,CS1*%
X187575001Y-110075002D03*
%TO.P,U2,20,SCLK*%
%TO.N,SCLK*%
X187575001Y-109425001D03*
%TO.P,U2,21,VM*%
%TO.N,+12V*%
X187575001Y-108775002D03*
%TO.P,U2,22,NC*%
%TO.N,unconnected-(U2-NC-Pad22)*%
X187575001Y-108125001D03*
%TO.P,U2,23,OUT2*%
%TO.N,M3_IN*%
X187575001Y-107475002D03*
%TO.P,U2,24,GND*%
%TO.N,GND*%
X187575001Y-106825001D03*
D49*
%TO.P,U2,EPAD,GND*%
X184622251Y-110400000D03*
%TD*%
D38*
%TO.P,D16,1,K*%
%TO.N,M5_IN+*%
X210775000Y-87800000D03*
%TO.P,D16,2,A*%
%TO.N,Net-(D15-K)*%
X209200000Y-87800000D03*
%TD*%
D14*
%TO.P,D5,1,K*%
%TO.N,Net-(D5-K)*%
X154400000Y-103425000D03*
%TO.P,D5,2,A*%
%TO.N,M1_IN+*%
X154400000Y-101850000D03*
%TD*%
D42*
%TO.P,C33,1*%
%TO.N,+12V*%
X189080000Y-115050000D03*
%TO.P,C33,2*%
%TO.N,GND*%
X188120000Y-115050000D03*
%TD*%
D14*
%TO.P,D9,1,K*%
%TO.N,Net-(D10-A)*%
X180500000Y-100625000D03*
%TO.P,D9,2,A*%
%TO.N,M3_IN+*%
X180500000Y-99050000D03*
%TD*%
D28*
%TO.P,D15,1,K*%
%TO.N,Net-(D15-K)*%
X209200000Y-85800000D03*
%TO.P,D15,2,A*%
%TO.N,M5_IN+*%
X210775000Y-85800000D03*
%TD*%
D29*
%TO.P,J9,*%
%TO.N,*%
X162850000Y-85512500D03*
X173850000Y-85512500D03*
D30*
%TO.P,J9,1,Pin_1*%
%TO.N,M2_IN+*%
X170850000Y-95512500D03*
D31*
%TO.P,J9,2,Pin_2*%
%TO.N,M2_OUT*%
X165850000Y-95512500D03*
%TD*%
D33*
%TO.P,R28,1*%
%TO.N,+3.3V*%
X194090000Y-132600000D03*
%TO.P,R28,2*%
%TO.N,SCL*%
X195110000Y-132600000D03*
%TD*%
D10*
%TO.P,TP21,1,1*%
%TO.N,M5_IN*%
X201650000Y-107250000D03*
%TD*%
%TO.P,TP23,1,1*%
%TO.N,M6_IN*%
X202650000Y-113300000D03*
%TD*%
%TO.P,TP4,1,1*%
%TO.N,CAN+*%
X146500000Y-104600000D03*
%TD*%
D34*
%TO.P,C6,1*%
%TO.N,+3.3V*%
X192950000Y-120880000D03*
%TO.P,C6,2*%
%TO.N,GND*%
X192950000Y-119920000D03*
%TD*%
D50*
%TO.P,U9,1,OUT1*%
%TO.N,CSA6*%
X204525000Y-111412500D03*
%TO.P,U9,2,IN-1*%
%TO.N,M6_IN*%
X205175000Y-111412500D03*
%TO.P,U9,3,IN+1*%
%TO.N,M6_IN+*%
X205825000Y-111412500D03*
%TO.P,U9,4,GND*%
%TO.N,GND*%
X206475000Y-111412500D03*
%TO.P,U9,5,IN+2*%
%TO.N,M5_IN+*%
X206475000Y-107187500D03*
%TO.P,U9,6,IN-2*%
%TO.N,M5_IN*%
X205825000Y-107187500D03*
%TO.P,U9,7,OUT2*%
%TO.N,CSA5*%
X205175000Y-107187500D03*
%TO.P,U9,8,VS*%
%TO.N,+2.8V*%
X204525000Y-107187500D03*
%TD*%
D13*
%TO.P,C35,1*%
%TO.N,M1_IN+*%
X153975000Y-99437500D03*
%TO.P,C35,2*%
%TO.N,M1_OUT*%
X151025000Y-99437500D03*
%TD*%
D34*
%TO.P,C11,1*%
%TO.N,+3.3V*%
X177775001Y-110055001D03*
%TO.P,C11,2*%
%TO.N,GND*%
X177775001Y-109095001D03*
%TD*%
D29*
%TO.P,J6,*%
%TO.N,*%
X138000000Y-145350000D03*
X138000000Y-134350000D03*
D30*
%TO.P,J6,1,Pin_1*%
%TO.N,+BATT*%
X148000000Y-137350000D03*
D31*
%TO.P,J6,2,Pin_2*%
%TO.N,GND*%
X148000000Y-142350000D03*
%TD*%
D35*
%TO.P,R14,1*%
%TO.N,+2.8V*%
X188400000Y-102890000D03*
%TO.P,R14,2*%
%TO.N,GND*%
X188400000Y-103910000D03*
%TD*%
D51*
%TO.P,Q1,1,S*%
%TO.N,Net-(D1-K)*%
X161225000Y-128722500D03*
D52*
%TO.P,Q1,2,D*%
%TO.N,/Power/ISEN*%
X156600000Y-127967500D03*
X156600000Y-124917500D03*
D53*
X154925000Y-126442500D03*
D52*
X153250000Y-127967500D03*
X153250000Y-124917500D03*
D51*
%TO.P,Q1,3,G*%
%TO.N,/Power/PGATE*%
X161225000Y-124162500D03*
%TD*%
D32*
%TO.P,U7,1,OUT1*%
%TO.N,CSA2*%
X162612500Y-100812500D03*
%TO.P,U7,2,IN-1*%
%TO.N,M2_IN*%
X162612500Y-100162500D03*
%TO.P,U7,3,IN+1*%
%TO.N,M2_IN+*%
X162612500Y-99512500D03*
%TO.P,U7,4,GND*%
%TO.N,GND*%
X162612500Y-98862500D03*
%TO.P,U7,5,IN+2*%
%TO.N,M1_IN+*%
X158387500Y-98862500D03*
%TO.P,U7,6,IN-2*%
%TO.N,M1_IN*%
X158387500Y-99512500D03*
%TO.P,U7,7,OUT2*%
%TO.N,CSA1*%
X158387500Y-100162500D03*
%TO.P,U7,8,VS*%
%TO.N,+2.8V*%
X158387500Y-100812500D03*
%TD*%
D39*
%TO.P,J14,1,Pin_1*%
%TO.N,+3.3V*%
X182000000Y-141050000D03*
D40*
%TO.P,J14,2,Pin_2*%
%TO.N,GND*%
X184000000Y-141050000D03*
%TO.P,J14,3,Pin_3*%
%TO.N,SCL*%
X186000000Y-141050000D03*
%TO.P,J14,4,Pin_4*%
%TO.N,SDA*%
X188000000Y-141050000D03*
%TO.P,J14,5,Pin_5*%
%TO.N,RDY1*%
X190000000Y-141050000D03*
%TO.P,J14,6,Pin_6*%
%TO.N,PWM1*%
X192000000Y-141050000D03*
%TO.P,J14,7,Pin_7*%
%TO.N,GPIO1*%
X194000000Y-141050000D03*
%TD*%
D15*
%TO.P,R13,1*%
%TO.N,+3.3V*%
X189800000Y-103910000D03*
%TO.P,R13,2*%
%TO.N,+2.8V*%
X189800000Y-102890000D03*
%TD*%
D29*
%TO.P,J11,*%
%TO.N,*%
X219925000Y-108900000D03*
X219925000Y-119900000D03*
D30*
%TO.P,J11,1,Pin_1*%
%TO.N,M6_IN+*%
X209925000Y-116900000D03*
D31*
%TO.P,J11,2,Pin_2*%
%TO.N,M6_OUT*%
X209925000Y-111900000D03*
%TD*%
D42*
%TO.P,C28,1*%
%TO.N,+3.3V*%
X149580000Y-106400000D03*
%TO.P,C28,2*%
%TO.N,GND*%
X148620000Y-106400000D03*
%TD*%
D54*
%TO.P,C16,1*%
%TO.N,+BATT*%
X166465000Y-144245000D03*
%TO.P,C16,2*%
%TO.N,GND*%
X169415000Y-144245000D03*
%TD*%
D29*
%TO.P,J10,*%
%TO.N,*%
X178200000Y-85512500D03*
X189200000Y-85512500D03*
D30*
%TO.P,J10,1,Pin_1*%
%TO.N,M3_IN+*%
X186200000Y-95512500D03*
D31*
%TO.P,J10,2,Pin_2*%
%TO.N,M3_OUT*%
X181200000Y-95512500D03*
%TD*%
D10*
%TO.P,TP22,1,1*%
%TO.N,M5_OUT*%
X207500000Y-91150000D03*
%TD*%
D13*
%TO.P,C39,1*%
%TO.N,M4_IN+*%
X200975000Y-99237500D03*
%TO.P,C39,2*%
%TO.N,M4_OUT*%
X198025000Y-99237500D03*
%TD*%
D20*
%TO.P,C26,1*%
%TO.N,+3.3V*%
X163900000Y-106500000D03*
%TO.P,C26,2*%
%TO.N,GND*%
X163900000Y-108400000D03*
%TD*%
D10*
%TO.P,TP5,1,1*%
%TO.N,CAN-*%
X146500000Y-102100000D03*
%TD*%
D11*
%TO.P,C15,1*%
%TO.N,+BATT*%
X171400000Y-146175000D03*
%TO.P,C15,2*%
%TO.N,GND*%
X171400000Y-144625000D03*
%TD*%
D23*
%TO.P,U4,1,GND*%
%TO.N,GND*%
X156300000Y-113400000D03*
%TO.P,U4,2,VO*%
%TO.N,+5V*%
X158600000Y-113400000D03*
D24*
X158600000Y-107100000D03*
D23*
%TO.P,U4,3,VI*%
%TO.N,+12V*%
X160900000Y-113400000D03*
%TD*%
D10*
%TO.P,TP18,1,1*%
%TO.N,M3_OUT*%
X182400000Y-102500000D03*
%TD*%
D34*
%TO.P,C3,1*%
%TO.N,+3.3V*%
X191800000Y-117080000D03*
%TO.P,C3,2*%
%TO.N,GND*%
X191800000Y-116120000D03*
%TD*%
D14*
%TO.P,D18,1,K*%
%TO.N,Net-(D18-K)*%
X213210000Y-132387500D03*
%TO.P,D18,2,A*%
%TO.N,/MCU/LED2*%
X213210000Y-130812500D03*
%TD*%
D10*
%TO.P,TP9,1,1*%
%TO.N,SCL*%
X192800000Y-135400000D03*
%TD*%
%TO.P,TP11,1,1*%
%TO.N,CS1*%
X189300000Y-118700000D03*
%TD*%
%TO.P,TP7,1,1*%
%TO.N,MOSI*%
X198800000Y-117900000D03*
%TD*%
D51*
%TO.P,D1,1,A_2*%
%TO.N,GND*%
X161225000Y-136205000D03*
D52*
%TO.P,D1,2,A*%
X156600000Y-135450000D03*
X156600000Y-132400000D03*
D53*
X154925000Y-133925000D03*
D52*
X153250000Y-135450000D03*
X153250000Y-132400000D03*
D51*
%TO.P,D1,3,K*%
%TO.N,Net-(D1-K)*%
X161225000Y-131645000D03*
%TD*%
D55*
%TO.P,J2,1,Pin_1*%
%TO.N,+3.3V*%
X205275000Y-136200000D03*
D56*
%TO.P,J2,2,Pin_2*%
%TO.N,/MCU/BOOT0*%
X202735000Y-136200000D03*
%TD*%
D26*
%TO.P,R24,1*%
%TO.N,GND*%
X176600000Y-137025000D03*
%TO.P,R24,2*%
%TO.N,Net-(BUCK_REG1-FB)*%
X176600000Y-135375000D03*
%TD*%
D10*
%TO.P,TP13,1,1*%
%TO.N,M1_IN*%
X156600000Y-103000000D03*
%TD*%
D44*
%TO.P,C34,1*%
%TO.N,+12V*%
X190220000Y-115050000D03*
%TO.P,C34,2*%
%TO.N,GND*%
X191180000Y-115050000D03*
%TD*%
D34*
%TO.P,C31,1*%
%TO.N,+12V*%
X190650000Y-107880000D03*
%TO.P,C31,2*%
%TO.N,GND*%
X190650000Y-106920000D03*
%TD*%
D19*
%TO.P,R11,1*%
%TO.N,M2_IN*%
X164900000Y-100750000D03*
%TO.P,R11,2*%
%TO.N,M2_IN+*%
X164900000Y-98925000D03*
%TD*%
D14*
%TO.P,D17,1,K*%
%TO.N,Net-(D17-K)*%
X211200000Y-132387500D03*
%TO.P,D17,2,A*%
%TO.N,/MCU/LED1*%
X211200000Y-130812500D03*
%TD*%
D57*
%TO.P,BUCK_REG1,1,ADJ*%
%TO.N,Net-(BUCK_REG1-ADJ)*%
X170900000Y-139290000D03*
%TO.P,BUCK_REG1,2,RT*%
%TO.N,Net-(BUCK_REG1-RT)*%
X170900000Y-138640000D03*
%TO.P,BUCK_REG1,3,FB*%
%TO.N,Net-(BUCK_REG1-FB)*%
X170900000Y-137990000D03*
%TO.P,BUCK_REG1,4,GND*%
%TO.N,GND*%
X170900000Y-137340000D03*
%TO.P,BUCK_REG1,5,ISEN*%
%TO.N,/Power/ISEN*%
X166600000Y-137340000D03*
%TO.P,BUCK_REG1,6,PGATE*%
%TO.N,/Power/PGATE*%
X166600000Y-137990000D03*
%TO.P,BUCK_REG1,7,VCC*%
%TO.N,Net-(BUCK_REG1-VCC)*%
X166600000Y-138640000D03*
%TO.P,BUCK_REG1,8,VIN*%
%TO.N,+BATT*%
X166600000Y-139290000D03*
D58*
%TO.P,BUCK_REG1,9,EP*%
%TO.N,GND*%
X168750000Y-138315000D03*
%TD*%
D26*
%TO.P,R18,1*%
%TO.N,Net-(D5-K)*%
X150400000Y-103462500D03*
%TO.P,R18,2*%
%TO.N,M1_IN+*%
X150400000Y-101812500D03*
%TD*%
D19*
%TO.P,R15,1*%
%TO.N,M4_IN*%
X196000000Y-100750000D03*
%TO.P,R15,2*%
%TO.N,M4_IN+*%
X196000000Y-98925000D03*
%TD*%
D54*
%TO.P,C17,1*%
%TO.N,+BATT*%
X166465000Y-141645000D03*
%TO.P,C17,2*%
%TO.N,GND*%
X169415000Y-141645000D03*
%TD*%
D44*
%TO.P,C29,1*%
%TO.N,+12V*%
X188520000Y-105700000D03*
%TO.P,C29,2*%
%TO.N,GND*%
X189480000Y-105700000D03*
%TD*%
D35*
%TO.P,R31,1*%
%TO.N,GND*%
X188400000Y-127290000D03*
%TO.P,R31,2*%
%TO.N,Net-(D19-K)*%
X188400000Y-128310000D03*
%TD*%
D27*
%TO.P,C32,1*%
%TO.N,+12V*%
X191000000Y-112920000D03*
%TO.P,C32,2*%
%TO.N,GND*%
X191000000Y-113880000D03*
%TD*%
D47*
%TO.P,R23,1*%
%TO.N,Net-(D15-K)*%
X209162500Y-89800000D03*
%TO.P,R23,2*%
%TO.N,M5_IN+*%
X210812500Y-89800000D03*
%TD*%
D59*
%TO.P,L1,1,1*%
%TO.N,+12V*%
X176149900Y-124200000D03*
%TO.P,L1,2,2*%
%TO.N,Net-(D1-K)*%
X165050100Y-124200000D03*
%TD*%
D13*
%TO.P,C36,1*%
%TO.N,M2_IN+*%
X169900000Y-99437500D03*
%TO.P,C36,2*%
%TO.N,M2_OUT*%
X166950000Y-99437500D03*
%TD*%
D55*
%TO.P,J1,1,Pin_1*%
%TO.N,NREST*%
X210425000Y-124400000D03*
D56*
%TO.P,J1,2,Pin_2*%
%TO.N,GND*%
X212965000Y-124400000D03*
%TD*%
D27*
%TO.P,C42,1*%
%TO.N,+12V*%
X189200000Y-112920000D03*
%TO.P,C42,2*%
%TO.N,GND*%
X189200000Y-113880000D03*
%TD*%
D34*
%TO.P,C8,1*%
%TO.N,+3.3VA*%
X194950000Y-119480000D03*
%TO.P,C8,2*%
%TO.N,GND*%
X194950000Y-118520000D03*
%TD*%
D27*
%TO.P,C13,1*%
%TO.N,+3.3V*%
X202400000Y-110620000D03*
%TO.P,C13,2*%
%TO.N,GND*%
X202400000Y-111580000D03*
%TD*%
D26*
%TO.P,R20,1*%
%TO.N,Net-(D10-A)*%
X177100000Y-100662500D03*
%TO.P,R20,2*%
%TO.N,M3_IN+*%
X177100000Y-99012500D03*
%TD*%
D16*
%TO.P,D8,1,K*%
%TO.N,M2_IN+*%
X173625000Y-99037500D03*
%TO.P,D8,2,A*%
%TO.N,Net-(D7-K)*%
X173625000Y-100612500D03*
%TD*%
D42*
%TO.P,C27,1*%
%TO.N,+5V*%
X149680000Y-115500000D03*
%TO.P,C27,2*%
%TO.N,GND*%
X148720000Y-115500000D03*
%TD*%
D60*
%TO.P,R26,1*%
%TO.N,M5_IN*%
X204887500Y-105000000D03*
%TO.P,R26,2*%
%TO.N,M5_IN+*%
X206712500Y-105000000D03*
%TD*%
%TO.P,R16,1*%
%TO.N,M6_IN*%
X204637500Y-113550000D03*
%TO.P,R16,2*%
%TO.N,M6_IN+*%
X206462500Y-113550000D03*
%TD*%
D34*
%TO.P,C7,1*%
%TO.N,+3.3VA*%
X193000000Y-117080000D03*
%TO.P,C7,2*%
%TO.N,GND*%
X193000000Y-116120000D03*
%TD*%
D61*
%TO.P,C20,1*%
%TO.N,+12V*%
X174775000Y-132200000D03*
%TO.P,C20,2*%
%TO.N,Net-(C20-Pad2)*%
X173225000Y-132200000D03*
%TD*%
D62*
%TO.P,J3,1,VTref*%
%TO.N,+3.3V*%
X182560000Y-135025000D03*
D63*
%TO.P,J3,2,SWDIO/TMS*%
%TO.N,/MCU/SWDIO*%
X182560000Y-133755000D03*
%TO.P,J3,3,GND*%
%TO.N,GND*%
X183830000Y-135025000D03*
%TO.P,J3,4,SWCLK/TCK*%
%TO.N,/MCU/SWCLK*%
X183830000Y-133755000D03*
%TO.P,J3,5,GND*%
%TO.N,GND*%
X185100000Y-135025000D03*
%TO.P,J3,6,SWO/TDO*%
%TO.N,SWO*%
X185100000Y-133755000D03*
%TO.P,J3,7,KEY*%
%TO.N,unconnected-(J3-KEY-Pad7)*%
X186370000Y-135025000D03*
%TO.P,J3,8,NC/TDI*%
%TO.N,unconnected-(J3-NC{slash}TDI-Pad8)*%
X186370000Y-133755000D03*
%TO.P,J3,9,GNDDetect*%
%TO.N,GND*%
X187640000Y-135025000D03*
%TO.P,J3,10,~{RESET}*%
%TO.N,NREST*%
X187640000Y-133755000D03*
%TD*%
D42*
%TO.P,C4,1*%
%TO.N,+3.3V*%
X202630000Y-130000000D03*
%TO.P,C4,2*%
%TO.N,GND*%
X201670000Y-130000000D03*
%TD*%
D64*
%TO.P,C22,1*%
%TO.N,+12V*%
X178800000Y-133925000D03*
%TO.P,C22,2*%
%TO.N,GND*%
X178800000Y-136875000D03*
%TD*%
D65*
%TO.P,R5,1*%
%TO.N,Net-(BUCK_REG1-ADJ)*%
X173740000Y-141382500D03*
%TO.P,R5,2*%
%TO.N,+BATT*%
X173740000Y-144307500D03*
%TD*%
D14*
%TO.P,D2,1,K*%
%TO.N,+5V*%
X182000000Y-125855000D03*
%TO.P,D2,2,A*%
X182000000Y-124280000D03*
%TD*%
D29*
%TO.P,J12,*%
%TO.N,*%
X193600000Y-85437500D03*
X204600000Y-85437500D03*
D30*
%TO.P,J12,1,Pin_1*%
%TO.N,M4_IN+*%
X201600000Y-95437500D03*
D31*
%TO.P,J12,2,Pin_2*%
%TO.N,M4_OUT*%
X196600000Y-95437500D03*
%TD*%
D66*
%TO.P,U13,1,V_{OUT}*%
%TO.N,TEMP*%
X153125000Y-118095000D03*
%TO.P,U13,2,NC*%
%TO.N,unconnected-(U13-NC-Pad2)*%
X153125000Y-119365000D03*
%TO.P,U13,3,NC*%
%TO.N,unconnected-(U13-NC-Pad3)*%
X153125000Y-120635000D03*
%TO.P,U13,4,GND*%
%TO.N,GND*%
X153125000Y-121905000D03*
%TO.P,U13,5,NC*%
%TO.N,unconnected-(U13-NC-Pad5)*%
X158075000Y-121905000D03*
%TO.P,U13,6,NC*%
%TO.N,unconnected-(U13-NC-Pad6)*%
X158075000Y-120635000D03*
%TO.P,U13,7,NC*%
%TO.N,unconnected-(U13-NC-Pad7)*%
X158075000Y-119365000D03*
%TO.P,U13,8,+V_{S}*%
%TO.N,+5V*%
X158075000Y-118095000D03*
%TD*%
D61*
%TO.P,C1,1*%
%TO.N,+3.3V*%
X203550000Y-131400000D03*
%TO.P,C1,2*%
%TO.N,GND*%
X202000000Y-131400000D03*
%TD*%
D12*
%TO.P,C18,1*%
%TO.N,+BATT*%
X164140000Y-142045000D03*
%TO.P,C18,2*%
%TO.N,Net-(BUCK_REG1-VCC)*%
X164140000Y-139095000D03*
%TD*%
D34*
%TO.P,C5,1*%
%TO.N,+3.3V*%
X190950000Y-129080000D03*
%TO.P,C5,2*%
%TO.N,GND*%
X190950000Y-128120000D03*
%TD*%
D48*
%TO.P,U3,1,GND*%
%TO.N,GND*%
X198480501Y-113974998D03*
%TO.P,U3,2,OUT1*%
%TO.N,M6_IN*%
X198480501Y-113324999D03*
%TO.P,U3,3,OUT5*%
%TO.N,M6_OUT*%
X198480501Y-112675001D03*
%TO.P,U3,4,NC*%
%TO.N,unconnected-(U3-NC-Pad4)*%
X198480501Y-112025000D03*
%TO.P,U3,5,SDI*%
%TO.N,MOSI*%
X198480501Y-111375001D03*
%TO.P,U3,6,VDD*%
%TO.N,+3.3V*%
X198480501Y-110725000D03*
%TO.P,U3,7,SDO*%
%TO.N,MISO*%
X198480501Y-110075001D03*
%TO.P,U3,8,NSLEEP*%
%TO.N,NSLEEP2*%
X198480501Y-109425000D03*
%TO.P,U3,9,NC*%
%TO.N,unconnected-(U3-NC-Pad9)*%
X198480501Y-108775001D03*
%TO.P,U3,10,OUT6*%
%TO.N,M5_IN*%
X198480501Y-108125000D03*
%TO.P,U3,11,OUT4*%
%TO.N,M5_OUT*%
X198480501Y-107475001D03*
%TO.P,U3,12,NFAULT*%
%TO.N,NFAULT2*%
X198480501Y-106825000D03*
%TO.P,U3,13,GND*%
%TO.N,GND*%
X192575001Y-106825000D03*
%TO.P,U3,14,OUT3*%
%TO.N,M4_OUT*%
X192575001Y-107474999D03*
%TO.P,U3,15,NC*%
%TO.N,unconnected-(U3-NC-Pad15)*%
X192575001Y-108125000D03*
%TO.P,U3,16,VM*%
%TO.N,+12V*%
X192575001Y-108774998D03*
%TO.P,U3,17,NC*%
%TO.N,unconnected-(U3-NC-Pad17)*%
X192575001Y-109425000D03*
%TO.P,U3,18,NC*%
%TO.N,unconnected-(U3-NC-Pad18)*%
X192575001Y-110074998D03*
%TO.P,U3,19,NSCS*%
%TO.N,CS2*%
X192575001Y-110724997D03*
%TO.P,U3,20,SCLK*%
%TO.N,SCLK*%
X192575001Y-111374998D03*
%TO.P,U3,21,VM*%
%TO.N,+12V*%
X192575001Y-112024997D03*
%TO.P,U3,22,NC*%
%TO.N,unconnected-(U3-NC-Pad22)*%
X192575001Y-112674998D03*
%TO.P,U3,23,OUT2*%
%TO.N,M4_IN*%
X192575001Y-113324997D03*
%TO.P,U3,24,GND*%
%TO.N,GND*%
X192575001Y-113974998D03*
D49*
%TO.P,U3,EPAD,GND*%
X195527751Y-110399999D03*
%TD*%
D36*
%TO.P,J5,1,Pin_1*%
%TO.N,CAN+*%
X142500000Y-107527500D03*
%TO.P,J5,2,Pin_2*%
%TO.N,CAN-*%
X142500000Y-109527500D03*
%TO.P,J5,3,Pin_3*%
%TO.N,GND*%
X142500000Y-111527500D03*
D37*
%TO.P,J5,MP*%
%TO.N,N/C*%
X136750000Y-105177500D03*
X136750000Y-113877500D03*
%TD*%
D43*
%TO.P,C23,1*%
%TO.N,+12V*%
X159750000Y-116050000D03*
%TO.P,C23,2*%
%TO.N,GND*%
X157850000Y-116050000D03*
%TD*%
D34*
%TO.P,C41,1*%
%TO.N,+12V*%
X189550000Y-107880000D03*
%TO.P,C41,2*%
%TO.N,GND*%
X189550000Y-106920000D03*
%TD*%
D67*
%TO.N,GND*%
X184600000Y-108800000D03*
X183800000Y-129855000D03*
X197230000Y-118480000D03*
X171000000Y-143000000D03*
X192000000Y-114700000D03*
X148700000Y-105600000D03*
X194400000Y-110400000D03*
X185600000Y-110400000D03*
X196600000Y-108800000D03*
X185500000Y-114100000D03*
X201400000Y-133600000D03*
X155000000Y-136000000D03*
X193643990Y-114801187D03*
X201400000Y-112400001D03*
X143600000Y-113000000D03*
X172000000Y-142000000D03*
X153000000Y-132000000D03*
X157000000Y-134000000D03*
X180200000Y-130455000D03*
X201100000Y-114175001D03*
X155000000Y-134000000D03*
X177500000Y-138200000D03*
X187200000Y-105000000D03*
X193100000Y-115300000D03*
X171000000Y-142000000D03*
X189313362Y-127641770D03*
X176500000Y-138200000D03*
X200791157Y-129993140D03*
X196600000Y-110400000D03*
X153400000Y-109900000D03*
X148700000Y-116500000D03*
X196600000Y-109600000D03*
X202200000Y-112400001D03*
X187600000Y-105800000D03*
X210290000Y-134910000D03*
X184600000Y-110400000D03*
X153000000Y-134000000D03*
X185600000Y-109600000D03*
X192300000Y-115300000D03*
X184600000Y-109600000D03*
X178500000Y-138200000D03*
X194400000Y-109600000D03*
X190100000Y-104900000D03*
X192800000Y-114700000D03*
X179500000Y-138200000D03*
X189830000Y-128120000D03*
X169500000Y-136000000D03*
X157000000Y-132000000D03*
X153000000Y-136000000D03*
X185600000Y-111200000D03*
X196600000Y-111200000D03*
X163900000Y-109700000D03*
X170500000Y-136000000D03*
X186500000Y-114900000D03*
X157000000Y-136000000D03*
X192575001Y-105800000D03*
X189450000Y-104900000D03*
X195900000Y-118260867D03*
X194400000Y-111200000D03*
X162600000Y-97900000D03*
X179000000Y-108200000D03*
X192200000Y-98400000D03*
X200784620Y-130715380D03*
X155000000Y-121800000D03*
X156400000Y-116100000D03*
X171500000Y-136000000D03*
X212290000Y-134910000D03*
X172000000Y-143000000D03*
X190750000Y-104900000D03*
X142800000Y-100800000D03*
X196600000Y-112000000D03*
X185600000Y-108800000D03*
X206600000Y-110000000D03*
X166800000Y-116600000D03*
X200000000Y-132500000D03*
X155000000Y-132000000D03*
X168500000Y-136000000D03*
X181000000Y-105800000D03*
X194400000Y-108800000D03*
X182000000Y-129855000D03*
X186400000Y-114100000D03*
X177800000Y-108200000D03*
X208855380Y-127725380D03*
X192030000Y-119920000D03*
X171000000Y-141000000D03*
%TO.N,+3.3V*%
X197800000Y-104200000D03*
X179200000Y-111400000D03*
X179600000Y-114450001D03*
X188750000Y-121250000D03*
X173000000Y-108400000D03*
X191000000Y-103800000D03*
X193290000Y-133400000D03*
X197200000Y-134800000D03*
X202800000Y-108200000D03*
X208850000Y-136300000D03*
X185200000Y-124800000D03*
%TO.N,NREST*%
X188600000Y-130600000D03*
X193200000Y-129800000D03*
X196300000Y-125300000D03*
%TO.N,+12V*%
X190999741Y-112000926D03*
X166000000Y-120400000D03*
X176100000Y-120400000D03*
X190975001Y-108775001D03*
X189175001Y-111975001D03*
X189175001Y-108775001D03*
%TO.N,SWO*%
X195514452Y-131837269D03*
X193000000Y-132450000D03*
%TO.N,CAN-*%
X140799479Y-104099479D03*
X144800000Y-102925000D03*
%TO.N,CAN+*%
X141400521Y-104700521D03*
X144800000Y-103775000D03*
%TO.N,NFAULT1*%
X194090380Y-123609620D03*
X191300000Y-122000000D03*
%TO.N,NFAULT2*%
X201700000Y-121900000D03*
X210200000Y-106500000D03*
X204200000Y-100100000D03*
X209700000Y-122800000D03*
%TO.N,M4_IN*%
X194118622Y-113450000D03*
X195600000Y-103600000D03*
%TO.N,SCLK*%
X201000000Y-117800000D03*
X196800000Y-115600000D03*
X195750000Y-113500000D03*
X189950000Y-110150000D03*
%TO.N,MOSI*%
X199800000Y-112400000D03*
X190142402Y-116178920D03*
X184000000Y-113400000D03*
X194477867Y-116310867D03*
X180200000Y-109400000D03*
X198750000Y-116250000D03*
%TO.N,FDCAN_RX*%
X182140380Y-117659620D03*
X153300000Y-114400000D03*
%TO.N,MISO*%
X197880761Y-117219239D03*
X183000000Y-113600000D03*
X199965380Y-117684620D03*
X200000000Y-116200000D03*
X180200000Y-110800000D03*
X200000000Y-110075000D03*
X195200000Y-116900000D03*
X189582160Y-116750000D03*
%TO.N,FDCAN_TX*%
X147600000Y-115400000D03*
X181180761Y-117619239D03*
%TO.N,NSLEEP1*%
X180180782Y-111700021D03*
X182800000Y-114500000D03*
X188942002Y-117379319D03*
X194400000Y-117610867D03*
%TO.N,CS1*%
X190490380Y-110809620D03*
X190927136Y-116023368D03*
X195100000Y-122700000D03*
X188900000Y-119900000D03*
%TO.N,M3_OUT*%
X185800000Y-113000000D03*
X183575001Y-105175001D03*
%TO.N,CS2*%
X197700000Y-122900000D03*
X193900000Y-118300000D03*
%TO.N,NSLEEP2*%
X208900000Y-109500000D03*
X203650000Y-123600000D03*
X202644669Y-109105331D03*
X199700000Y-123600000D03*
%TO.N,M6_OUT*%
X204200000Y-115025000D03*
%TO.N,CSA1*%
X160200000Y-102000000D03*
X176530331Y-114825001D03*
X165000000Y-105475000D03*
X178030331Y-116369669D03*
%TO.N,+2.8V*%
X164400000Y-102725000D03*
X191400000Y-102000000D03*
X203400000Y-107600000D03*
X187125000Y-102725000D03*
%TO.N,CSA2*%
X178900823Y-116325001D03*
X177400000Y-114800000D03*
X162600000Y-102075000D03*
X173000000Y-106400000D03*
%TO.N,TEMP*%
X156000000Y-119400000D03*
X186300000Y-120900000D03*
%TO.N,/Power/PGATE*%
X161200000Y-122000000D03*
X165200000Y-137800000D03*
%TO.N,RDY1*%
X190000000Y-138350000D03*
%TO.N,PWM1*%
X191000000Y-126100000D03*
%TO.N,GPIO1*%
X197500000Y-132000000D03*
X196500000Y-135800000D03*
%TO.N,RDY2*%
X195913173Y-133913173D03*
X198720000Y-134400000D03*
%TO.N,PWM2*%
X196400000Y-127637500D03*
X204674264Y-130525736D03*
%TO.N,CSA4*%
X192200000Y-100600000D03*
X206000000Y-108800000D03*
%TO.N,CSA3*%
X207193145Y-108078685D03*
X192200000Y-99800000D03*
%TO.N,CSA6*%
X202400000Y-116200000D03*
X203400000Y-112200000D03*
%TO.N,CSA5*%
X204150000Y-109900000D03*
X203200000Y-116200000D03*
%TO.N,PWM3*%
X205740380Y-127459620D03*
X199400000Y-126400000D03*
X196300000Y-126400000D03*
X195100000Y-127500000D03*
%TO.N,/MCU/LED3*%
X190200000Y-125000000D03*
X188000000Y-126400000D03*
%TD*%
D68*
%TO.N,+BATT*%
X166600000Y-141510000D02*
X166465000Y-141645000D01*
X166600000Y-139290000D02*
X166600000Y-141510000D01*
D69*
%TO.N,Net-(BUCK_REG1-RT)*%
X174270610Y-139820000D02*
X173225305Y-138774695D01*
X177940000Y-141220000D02*
X177940000Y-140820000D01*
D68*
X170900000Y-138640000D02*
X173090610Y-138640000D01*
D69*
X177940000Y-140820000D02*
X176940000Y-139820000D01*
D68*
X173090610Y-138640000D02*
X173225305Y-138774695D01*
D69*
X176940000Y-139820000D02*
X174400000Y-139820000D01*
X174400000Y-139820000D02*
X174270610Y-139820000D01*
%TO.N,Net-(BUCK_REG1-FB)*%
X176550000Y-135425000D02*
X176600000Y-135375000D01*
X173000000Y-135375000D02*
X173000000Y-137124695D01*
X173050000Y-135425000D02*
X173000000Y-135375000D01*
D68*
X170900000Y-137990000D02*
X172134695Y-137990000D01*
D69*
X174800000Y-135425000D02*
X173050000Y-135425000D01*
D68*
X172134695Y-137990000D02*
X172800000Y-137324695D01*
D69*
X174800000Y-135425000D02*
X176550000Y-135425000D01*
X173000000Y-137124695D02*
X172800000Y-137324695D01*
D68*
%TO.N,Net-(BUCK_REG1-VCC)*%
X164595000Y-138640000D02*
X164140000Y-139095000D01*
X166600000Y-138640000D02*
X164595000Y-138640000D01*
D70*
%TO.N,GND*%
X189830000Y-128120000D02*
X190950000Y-128120000D01*
X188290000Y-103910000D02*
X187200000Y-105000000D01*
X181669501Y-106469501D02*
X181000000Y-105800000D01*
D68*
X148720000Y-115500000D02*
X148720000Y-116480000D01*
X198680504Y-114175001D02*
X198480501Y-113974998D01*
D70*
X166700000Y-114600000D02*
X168150000Y-116050000D01*
D68*
X148620000Y-106400000D02*
X148620000Y-105680000D01*
D70*
X156300000Y-114500000D02*
X157850000Y-116050000D01*
D71*
X157355000Y-136205000D02*
X157150000Y-136000000D01*
D70*
X187600000Y-105800000D02*
X187575001Y-105824999D01*
D68*
X208510000Y-127380000D02*
X208050000Y-127380000D01*
D70*
X142500000Y-111527500D02*
X142500000Y-111900000D01*
X153400000Y-108600000D02*
X153400000Y-109900000D01*
X154895000Y-121905000D02*
X155000000Y-121800000D01*
D68*
X210290000Y-134910000D02*
X211200000Y-134910000D01*
D71*
X157000000Y-136000000D02*
X157000000Y-135850000D01*
D68*
X162600000Y-97900000D02*
X162612500Y-97912500D01*
D70*
X142500000Y-99527500D02*
X142500000Y-100500000D01*
X192030000Y-119920000D02*
X192950000Y-119920000D01*
X187575001Y-105824999D02*
X187575001Y-106825001D01*
X183800000Y-128765000D02*
X183800000Y-129855000D01*
X156300000Y-113400000D02*
X156300000Y-114500000D01*
X180200000Y-129280000D02*
X180200000Y-130455000D01*
D68*
X191282500Y-127787500D02*
X190950000Y-128120000D01*
X148620000Y-105680000D02*
X148700000Y-105600000D01*
D70*
X178975001Y-108224999D02*
X179000000Y-108200000D01*
D71*
X157000000Y-135850000D02*
X156600000Y-135450000D01*
D70*
X195900000Y-118260867D02*
X195640867Y-118520000D01*
X153125000Y-121905000D02*
X154895000Y-121905000D01*
D68*
X201670000Y-130000000D02*
X200798017Y-130000000D01*
D70*
X201200000Y-112200001D02*
X201400000Y-112400001D01*
D68*
X197180000Y-119400000D02*
X197180000Y-119770000D01*
X201469240Y-131400000D02*
X200784620Y-130715380D01*
X189313362Y-127641770D02*
X188961592Y-127290000D01*
X162612500Y-97912500D02*
X162612500Y-98862500D01*
X148565000Y-113475000D02*
X148565000Y-115345000D01*
X194750000Y-120534380D02*
X194750000Y-121375000D01*
D70*
X142500000Y-100500000D02*
X142800000Y-100800000D01*
X192575001Y-105800000D02*
X192575001Y-106825000D01*
X157850000Y-116050000D02*
X156450000Y-116050000D01*
D68*
X212290000Y-134910000D02*
X213200000Y-134910000D01*
X201100000Y-114175001D02*
X198680504Y-114175001D01*
D70*
X197230000Y-118480000D02*
X197200000Y-118510000D01*
X168150000Y-116050000D02*
X167350000Y-116050000D01*
X177775001Y-109095001D02*
X177775001Y-108224999D01*
X197200000Y-118510000D02*
X197200000Y-119380000D01*
X178975001Y-109095001D02*
X178975001Y-108224999D01*
D68*
X188961592Y-127290000D02*
X188400000Y-127290000D01*
D70*
X142500000Y-111900000D02*
X143600000Y-113000000D01*
X182000000Y-128765000D02*
X182000000Y-129855000D01*
D68*
X148720000Y-116480000D02*
X148700000Y-116500000D01*
X197180000Y-119770000D02*
X196750000Y-120200000D01*
X199470000Y-131600000D02*
X199250000Y-131380000D01*
X194135620Y-119920000D02*
X194750000Y-120534380D01*
X192200000Y-98400000D02*
X192637500Y-98837500D01*
D71*
X157150000Y-136000000D02*
X157000000Y-136000000D01*
D68*
X206475000Y-110125000D02*
X206600000Y-110000000D01*
D70*
X166700000Y-113300000D02*
X166700000Y-114600000D01*
X163900000Y-108400000D02*
X163900000Y-109700000D01*
D68*
X192637500Y-98837500D02*
X193725000Y-98837500D01*
X147295000Y-107205000D02*
X148100000Y-106400000D01*
D70*
X177775001Y-108224999D02*
X177800000Y-108200000D01*
D68*
X148100000Y-106400000D02*
X148620000Y-106400000D01*
D70*
X195640867Y-118520000D02*
X194950000Y-118520000D01*
D68*
X192837500Y-127787500D02*
X191282500Y-127787500D01*
D70*
X188400000Y-103910000D02*
X188290000Y-103910000D01*
D68*
X199470000Y-131970000D02*
X199470000Y-131600000D01*
X200798017Y-130000000D02*
X200791157Y-129993140D01*
X200000000Y-132500000D02*
X199470000Y-131970000D01*
D70*
X202400000Y-111580000D02*
X202400000Y-112200001D01*
D68*
X206475000Y-111412500D02*
X206475000Y-110125000D01*
X147295000Y-108525000D02*
X147295000Y-107205000D01*
X192950000Y-119920000D02*
X194135620Y-119920000D01*
X196750000Y-120200000D02*
X196750000Y-121375000D01*
X199250000Y-131380000D02*
X199250000Y-129700000D01*
D70*
X197200000Y-119380000D02*
X197180000Y-119400000D01*
D68*
X208855380Y-127725380D02*
X208510000Y-127380000D01*
D70*
X167350000Y-116050000D02*
X166800000Y-116600000D01*
X202400000Y-112200001D02*
X202200000Y-112400001D01*
D71*
X161225000Y-136205000D02*
X157355000Y-136205000D01*
D70*
X201200000Y-111580000D02*
X201200000Y-112200001D01*
D68*
X148565000Y-115345000D02*
X148720000Y-115500000D01*
X202000000Y-131400000D02*
X201469240Y-131400000D01*
D70*
X181669501Y-106825001D02*
X181669501Y-106469501D01*
X156450000Y-116050000D02*
X156400000Y-116100000D01*
D68*
X200510000Y-133600000D02*
X201400000Y-133600000D01*
%TO.N,Net-(BUCK_REG1-ADJ)*%
X171690000Y-139290000D02*
X170900000Y-139290000D01*
X172400000Y-140000000D02*
X171690000Y-139290000D01*
D69*
X172400000Y-140000000D02*
X173740000Y-141340000D01*
X176140000Y-141270000D02*
X173852500Y-141270000D01*
X173852500Y-141270000D02*
X173740000Y-141382500D01*
X173740000Y-141340000D02*
X173740000Y-141382500D01*
D70*
%TO.N,+3.3V*%
X182595000Y-130605000D02*
X180800000Y-132400000D01*
X208850000Y-136300000D02*
X205375000Y-136300000D01*
X188750000Y-121250000D02*
X189120000Y-120880000D01*
D68*
X198480501Y-110725000D02*
X201155000Y-110725000D01*
D70*
X205275000Y-134475000D02*
X205275000Y-136200000D01*
D68*
X192720000Y-122000000D02*
X191600000Y-120880000D01*
X201155000Y-110725000D02*
X201200000Y-110680000D01*
D70*
X205375000Y-136300000D02*
X205275000Y-136200000D01*
X163900000Y-106500000D02*
X168500000Y-106500000D01*
X199500000Y-137100000D02*
X199500000Y-141050000D01*
X163000000Y-105600000D02*
X151300000Y-105600000D01*
D68*
X199750000Y-128859380D02*
X199750000Y-129700000D01*
X178994999Y-110074999D02*
X178975001Y-110055001D01*
D70*
X185200000Y-128000000D02*
X185200000Y-130000000D01*
X189120000Y-120880000D02*
X191200000Y-118800000D01*
X182000000Y-138000000D02*
X180800000Y-136800000D01*
D68*
X196250000Y-122950000D02*
X195800000Y-123400000D01*
X178975001Y-111175001D02*
X178975001Y-110055001D01*
D70*
X176175001Y-115575001D02*
X176000000Y-115400000D01*
D68*
X193400000Y-122000000D02*
X192720000Y-122000000D01*
D70*
X185200000Y-130000000D02*
X184595000Y-130605000D01*
X197200000Y-134800000D02*
X199500000Y-137100000D01*
X181825000Y-135025000D02*
X182560000Y-135025000D01*
X179600000Y-115575001D02*
X176175001Y-115575001D01*
D68*
X200430000Y-131600000D02*
X200430000Y-131280000D01*
D70*
X189120000Y-120880000D02*
X191600000Y-120880000D01*
X203400000Y-110200000D02*
X202944999Y-110655001D01*
D68*
X195800000Y-123400000D02*
X194800000Y-123400000D01*
D70*
X190890000Y-103910000D02*
X191000000Y-103800000D01*
X168500000Y-106500000D02*
X169000000Y-107000000D01*
X184595000Y-130605000D02*
X182595000Y-130605000D01*
D68*
X192837500Y-128287500D02*
X198400000Y-128287500D01*
X198400000Y-128287500D02*
X199178120Y-128287500D01*
D70*
X171800000Y-111200000D02*
X169000000Y-111200000D01*
X182000000Y-141050000D02*
X182000000Y-138000000D01*
X203550000Y-131400000D02*
X203550000Y-132750000D01*
X180800000Y-134000000D02*
X181825000Y-135025000D01*
D68*
X194800000Y-123400000D02*
X193400000Y-122000000D01*
X197490000Y-105200000D02*
X197490000Y-104510000D01*
X181669501Y-110074999D02*
X178994999Y-110074999D01*
D70*
X150500000Y-106400000D02*
X149580000Y-106400000D01*
X180665001Y-115575001D02*
X179600000Y-115575001D01*
D68*
X202630000Y-130000000D02*
X202630000Y-129755000D01*
D70*
X203550000Y-130250000D02*
X203300000Y-130000000D01*
X202400000Y-110655001D02*
X201224999Y-110655001D01*
X180800000Y-136800000D02*
X180800000Y-134000000D01*
X184680000Y-124280000D02*
X185200000Y-124800000D01*
X203300000Y-130000000D02*
X202630000Y-130000000D01*
X169000000Y-113300000D02*
X169000000Y-111200000D01*
D68*
X192062500Y-128287500D02*
X191270000Y-129080000D01*
D70*
X189400000Y-134600000D02*
X189400000Y-135600000D01*
X202800000Y-108200000D02*
X203400000Y-108800000D01*
X193290000Y-133400000D02*
X190600000Y-133400000D01*
X203550000Y-132750000D02*
X205275000Y-134475000D01*
X169000000Y-111200000D02*
X169000000Y-107000000D01*
X151105000Y-107005000D02*
X151105000Y-108525000D01*
D68*
X199178120Y-128287500D02*
X199750000Y-128859380D01*
D70*
X183800000Y-123200000D02*
X176000000Y-115400000D01*
X194090000Y-132600000D02*
X193290000Y-133400000D01*
D68*
X196250000Y-121375000D02*
X196250000Y-119420000D01*
D70*
X189800000Y-103910000D02*
X190890000Y-103910000D01*
D68*
X196250000Y-119420000D02*
X196270000Y-119400000D01*
D70*
X171800000Y-111200000D02*
X171800000Y-109600000D01*
X183800000Y-124280000D02*
X183800000Y-123200000D01*
X202944999Y-110655001D02*
X202400000Y-110655001D01*
D68*
X194250000Y-121375000D02*
X193445000Y-121375000D01*
D70*
X203400000Y-108800000D02*
X203400000Y-110200000D01*
D68*
X201162500Y-128287500D02*
X198400000Y-128287500D01*
X191270000Y-129080000D02*
X190950000Y-129080000D01*
D70*
X179600000Y-115575001D02*
X179600000Y-114450001D01*
X185200000Y-124800000D02*
X185200000Y-128000000D01*
X177775001Y-110055001D02*
X178975001Y-110055001D01*
X191200000Y-118800000D02*
X191200000Y-118353750D01*
X176000000Y-115400000D02*
X171800000Y-111200000D01*
X191200000Y-118353750D02*
X191800000Y-117753750D01*
D68*
X179200000Y-111400000D02*
X178975001Y-111175001D01*
D70*
X163900000Y-106500000D02*
X163000000Y-105600000D01*
X169000000Y-111200000D02*
X163900000Y-111200000D01*
D68*
X202630000Y-129755000D02*
X201162500Y-128287500D01*
X193445000Y-121375000D02*
X192950000Y-120880000D01*
X200430000Y-131280000D02*
X199750000Y-130600000D01*
X199750000Y-130600000D02*
X199750000Y-129700000D01*
X192837500Y-128287500D02*
X192062500Y-128287500D01*
D70*
X180800000Y-132400000D02*
X180800000Y-134000000D01*
X197400000Y-134600000D02*
X197200000Y-134800000D01*
D68*
X196250000Y-121375000D02*
X196250000Y-122950000D01*
D70*
X171800000Y-109600000D02*
X173000000Y-108400000D01*
X197400000Y-133910000D02*
X197400000Y-134600000D01*
X150500000Y-106400000D02*
X151105000Y-107005000D01*
X183800000Y-124280000D02*
X184680000Y-124280000D01*
X151300000Y-105600000D02*
X150500000Y-106400000D01*
X190600000Y-133400000D02*
X189400000Y-134600000D01*
X189400000Y-135600000D02*
X188200000Y-136800000D01*
X191600000Y-120880000D02*
X192950000Y-120880000D01*
X185200000Y-128000000D02*
X186280000Y-129080000D01*
X186280000Y-129080000D02*
X190950000Y-129080000D01*
X188200000Y-136800000D02*
X180800000Y-136800000D01*
D68*
X197490000Y-104510000D02*
X197800000Y-104200000D01*
D70*
X191800000Y-117753750D02*
X191800000Y-117080000D01*
X201224999Y-110655001D02*
X201200000Y-110680000D01*
X203550000Y-131400000D02*
X203550000Y-130250000D01*
D68*
%TO.N,NREST*%
X196300000Y-125300000D02*
X196312500Y-125287500D01*
X204505787Y-125920000D02*
X204885787Y-126300000D01*
X196312500Y-125287500D02*
X201162500Y-125287500D01*
X203073288Y-125287500D02*
X203705788Y-125920000D01*
X210425000Y-125875000D02*
X210425000Y-124400000D01*
X192400000Y-130600000D02*
X188600000Y-130600000D01*
X203705788Y-125920000D02*
X204505787Y-125920000D01*
X193200000Y-129800000D02*
X192400000Y-130600000D01*
X201162500Y-125287500D02*
X203073288Y-125287500D01*
X210000000Y-126300000D02*
X210425000Y-125875000D01*
X204885787Y-126300000D02*
X210000000Y-126300000D01*
D70*
%TO.N,+3.3VA*%
X192775000Y-117305000D02*
X193000000Y-117080000D01*
X192853750Y-118353750D02*
X193820000Y-119320000D01*
D68*
X195750000Y-120200000D02*
X195030000Y-119480000D01*
D70*
X193820000Y-119320000D02*
X194790000Y-119320000D01*
X192775000Y-118353750D02*
X192853750Y-118353750D01*
X194790000Y-119320000D02*
X194950000Y-119480000D01*
X192775000Y-118353750D02*
X192775000Y-117305000D01*
D68*
X195750000Y-121375000D02*
X195750000Y-120200000D01*
X195030000Y-119480000D02*
X194950000Y-119480000D01*
D70*
%TO.N,+12V*%
X166000000Y-120400000D02*
X165200000Y-120400000D01*
D68*
X191023812Y-112024997D02*
X190999741Y-112000926D01*
D70*
X190909999Y-107880000D02*
X191420151Y-107369848D01*
X190380000Y-112920000D02*
X191000000Y-112920000D01*
X176229900Y-124280000D02*
X176149900Y-124200000D01*
X188729851Y-107329851D02*
X188729851Y-105909851D01*
X189200000Y-112920000D02*
X189200000Y-112000000D01*
X190100000Y-114600000D02*
X190220000Y-114720000D01*
X189080000Y-115050000D02*
X189650000Y-115050000D01*
D68*
X187575001Y-108775002D02*
X189175000Y-108775002D01*
D70*
X189820000Y-112920000D02*
X190100000Y-113200000D01*
X189200000Y-112920000D02*
X189820000Y-112920000D01*
X190700000Y-107880000D02*
X190700000Y-108500000D01*
X189280000Y-107880000D02*
X188729851Y-107329851D01*
X189200000Y-112000000D02*
X189175001Y-111975001D01*
D68*
X187575001Y-112025001D02*
X189125001Y-112025001D01*
D70*
X190220000Y-114720000D02*
X190220000Y-115050000D01*
D68*
X190975004Y-108774998D02*
X190975001Y-108775001D01*
D70*
X189500000Y-107880000D02*
X189500000Y-108450002D01*
D68*
X192575001Y-112024997D02*
X191023812Y-112024997D01*
D70*
X190100000Y-113200000D02*
X190380000Y-112920000D01*
X189600000Y-107880000D02*
X189280000Y-107880000D01*
X191420151Y-106197200D02*
X191680000Y-105937351D01*
X189650000Y-115050000D02*
X190100000Y-114600000D01*
X176149900Y-120449900D02*
X176100000Y-120400000D01*
X160850000Y-116050000D02*
X159750000Y-116050000D01*
X191000000Y-112001185D02*
X190999741Y-112000926D01*
X191420151Y-107369848D02*
X191420151Y-106197200D01*
D71*
X176149900Y-124200000D02*
X176149900Y-120449900D01*
D70*
X191000000Y-112920000D02*
X191000000Y-112001185D01*
D68*
X192575001Y-108774998D02*
X190975004Y-108774998D01*
D70*
X191680000Y-105937351D02*
X191680000Y-105700000D01*
D68*
X189175000Y-108775002D02*
X189175001Y-108775001D01*
D70*
X160850000Y-116050000D02*
X160900000Y-116000000D01*
X160900000Y-116000000D02*
X160900000Y-113400000D01*
X188729851Y-105909851D02*
X188520000Y-105700000D01*
D68*
X189125001Y-112025001D02*
X189175001Y-111975001D01*
D70*
X180200000Y-124280000D02*
X177229900Y-124280000D01*
X189500000Y-108450002D02*
X189175001Y-108775001D01*
X165200000Y-120400000D02*
X160850000Y-116050000D01*
X190700000Y-108500000D02*
X190975001Y-108775001D01*
X190600000Y-107880000D02*
X190909999Y-107880000D01*
X190100000Y-113200000D02*
X190100000Y-114600000D01*
%TO.N,+5V*%
X170050000Y-116050000D02*
X171050000Y-116050000D01*
X158600000Y-111400000D02*
X158600000Y-107100000D01*
X154200000Y-116200000D02*
X154200000Y-112400000D01*
X156095000Y-118095000D02*
X154200000Y-116200000D01*
X154200000Y-112400000D02*
X155200000Y-111400000D01*
X155200000Y-111400000D02*
X150935001Y-111400000D01*
X170050000Y-116950000D02*
X170050000Y-116050000D01*
X172100000Y-113300000D02*
X182000000Y-123200000D01*
X171050000Y-116050000D02*
X171300000Y-115800000D01*
X158600000Y-111400000D02*
X162200000Y-111400000D01*
X171300000Y-115800000D02*
X171300000Y-113300000D01*
X182000000Y-123200000D02*
X182000000Y-124280000D01*
X158600000Y-107100000D02*
X158200000Y-106700000D01*
X149835000Y-112500001D02*
X149835000Y-113475000D01*
D68*
X149835000Y-113475000D02*
X149835000Y-115345000D01*
D70*
X171300000Y-113300000D02*
X172100000Y-113300000D01*
X162200000Y-111400000D02*
X163400000Y-112600000D01*
X158075000Y-118095000D02*
X156095000Y-118095000D01*
X163400000Y-116000000D02*
X164800000Y-117400000D01*
X169600000Y-117400000D02*
X170050000Y-116950000D01*
X163400000Y-112600000D02*
X163400000Y-116000000D01*
X158200000Y-106700000D02*
X153400000Y-106700000D01*
X150935001Y-111400000D02*
X149835000Y-112500001D01*
X164800000Y-117400000D02*
X169600000Y-117400000D01*
X158600000Y-111400000D02*
X155200000Y-111400000D01*
D68*
X149835000Y-115345000D02*
X149680000Y-115500000D01*
D70*
X158600000Y-113400000D02*
X158600000Y-111400000D01*
X182000000Y-125855000D02*
X182000000Y-127745000D01*
D68*
%TO.N,M1_IN+*%
X157525000Y-98862500D02*
X157190000Y-98527500D01*
X157190000Y-98527500D02*
X156600000Y-98527500D01*
X158387500Y-98862500D02*
X157525000Y-98862500D01*
%TO.N,M1_OUT*%
X181669501Y-113324998D02*
X180825004Y-113324998D01*
X180575001Y-113575001D02*
X180175001Y-113575001D01*
D72*
X151525000Y-96537500D02*
X150500000Y-95512500D01*
X172712996Y-105500000D02*
X171812996Y-104600000D01*
D68*
X180825004Y-113324998D02*
X180575001Y-113575001D01*
D72*
X177375001Y-113575001D02*
X175200000Y-111400000D01*
X171812996Y-104600000D02*
X149200000Y-104600000D01*
X148600000Y-104000000D02*
X148600000Y-100000000D01*
X175200000Y-106800000D02*
X173900000Y-105500000D01*
X151525000Y-99437500D02*
X151525000Y-96537500D01*
X149162500Y-99437500D02*
X151525000Y-99437500D01*
X148600000Y-100000000D02*
X149162500Y-99437500D01*
X175200000Y-111400000D02*
X175200000Y-106800000D01*
X173900000Y-105500000D02*
X172712996Y-105500000D01*
X149200000Y-104600000D02*
X148600000Y-104000000D01*
X180175001Y-113575001D02*
X177375001Y-113575001D01*
D70*
%TO.N,Net-(D3-K)*%
X183800000Y-125855000D02*
X183800000Y-127745000D01*
%TO.N,Net-(D4-K)*%
X180200000Y-125855000D02*
X180200000Y-127630000D01*
%TO.N,Net-(D5-K)*%
X152400000Y-103425000D02*
X150437500Y-103425000D01*
X154400000Y-103425000D02*
X152400000Y-103425000D01*
X150437500Y-103425000D02*
X150400000Y-103462500D01*
%TO.N,Net-(D7-K)*%
X173625000Y-100612500D02*
X175387500Y-100612500D01*
X171825000Y-100612500D02*
X173625000Y-100612500D01*
X175387500Y-100612500D02*
X175425000Y-100650000D01*
%TO.N,Net-(D10-A)*%
X181000000Y-100625000D02*
X179000000Y-100625000D01*
X179000000Y-100625000D02*
X177237500Y-100625000D01*
X177237500Y-100625000D02*
X177200000Y-100662500D01*
%TO.N,Net-(D11-K)*%
X204912500Y-121600000D02*
X204912500Y-119800000D01*
X204875000Y-123400000D02*
X204875000Y-121637500D01*
X204875000Y-121637500D02*
X204912500Y-121600000D01*
%TO.N,Net-(D13-K)*%
X198768750Y-103000000D02*
X200668750Y-103000000D01*
X202531250Y-103000000D02*
X202568750Y-103037500D01*
X200668750Y-103000000D02*
X202531250Y-103000000D01*
%TO.N,Net-(D15-K)*%
X209200000Y-87800000D02*
X209200000Y-89762500D01*
X209200000Y-89762500D02*
X209162500Y-89800000D01*
X209200000Y-85800000D02*
X209200000Y-87800000D01*
D68*
%TO.N,/MCU/BOOT0*%
X201200000Y-136200000D02*
X202735000Y-136200000D01*
X198250000Y-129700000D02*
X198250000Y-131050000D01*
X198250000Y-131050000D02*
X198800000Y-131600000D01*
X199490000Y-134490000D02*
X201200000Y-136200000D01*
X198800000Y-131600000D02*
X198800000Y-132910000D01*
X198800000Y-132910000D02*
X199490000Y-133600000D01*
X199490000Y-133600000D02*
X199490000Y-134490000D01*
%TO.N,/MCU/SWDIO*%
X183200000Y-131300000D02*
X193700000Y-131300000D01*
X182560000Y-133755000D02*
X182560000Y-131940000D01*
X194250000Y-130750000D02*
X194250000Y-129700000D01*
X182560000Y-131940000D02*
X183200000Y-131300000D01*
X193700000Y-131300000D02*
X194250000Y-130750000D01*
%TO.N,/MCU/SWCLK*%
X183830000Y-132170000D02*
X184200000Y-131800000D01*
X194750000Y-130957106D02*
X194750000Y-129700000D01*
X193907106Y-131800000D02*
X194750000Y-130957106D01*
X184200000Y-131800000D02*
X193907106Y-131800000D01*
X183830000Y-133755000D02*
X183830000Y-132170000D01*
%TO.N,SWO*%
X185550000Y-132450000D02*
X185100000Y-132900000D01*
X185100000Y-132900000D02*
X185100000Y-133755000D01*
X195514452Y-131837269D02*
X195750000Y-131601721D01*
X195750000Y-131601721D02*
X195750000Y-129700000D01*
X193000000Y-132450000D02*
X185550000Y-132450000D01*
D73*
%TO.N,CAN-*%
X143750000Y-97527500D02*
X142500000Y-97527500D01*
X145569778Y-109087978D02*
X145234300Y-108752500D01*
X139734300Y-108752500D02*
X139075000Y-108093200D01*
X149425000Y-109610000D02*
X149425000Y-110251643D01*
X145234300Y-108752500D02*
X144525000Y-108752500D01*
X144999999Y-103124999D02*
X144800000Y-102925000D01*
X146206800Y-110925000D02*
X145569778Y-110287978D01*
X146500000Y-102100000D02*
X145475001Y-103124999D01*
X139075000Y-106106801D02*
X140799479Y-104382322D01*
X142500000Y-109527500D02*
X141250000Y-109527500D01*
X143750000Y-109527500D02*
X142500000Y-109527500D01*
X141082322Y-104099479D02*
X146075000Y-99106801D01*
X149835000Y-108525000D02*
X149835000Y-109200000D01*
X144525000Y-96752500D02*
X143750000Y-97527500D01*
X141250000Y-109527500D02*
X140475000Y-108752500D01*
X149425000Y-110251643D02*
X148751643Y-110925000D01*
X146075000Y-97193200D02*
X145634300Y-96752500D01*
X148751643Y-110925000D02*
X146206800Y-110925000D01*
X146075000Y-99106801D02*
X146075000Y-97193200D01*
X145569778Y-110287978D02*
X145569778Y-109087978D01*
X144525000Y-108752500D02*
X143750000Y-109527500D01*
X149835000Y-109200000D02*
X149425000Y-109610000D01*
X145634300Y-96752500D02*
X144525000Y-96752500D01*
X140799479Y-104099479D02*
X141082322Y-104099479D01*
X139075000Y-108093200D02*
X139075000Y-106106801D01*
X140475000Y-108752500D02*
X139734300Y-108752500D01*
X140799479Y-104382322D02*
X140799479Y-104099479D01*
X145475001Y-103124999D02*
X144999999Y-103124999D01*
%TO.N,CAN+*%
X146525000Y-97006800D02*
X145820700Y-96302500D01*
X141117678Y-104700521D02*
X141400521Y-104700521D01*
X139920700Y-108302500D02*
X139525000Y-107906800D01*
X148565000Y-109200000D02*
X148975000Y-109610000D01*
X145475001Y-103575001D02*
X144999999Y-103575001D01*
X146019778Y-110101578D02*
X146019778Y-108901578D01*
X142500000Y-107527500D02*
X141250000Y-107527500D01*
X145820700Y-96302500D02*
X144525000Y-96302500D01*
X148565243Y-110475000D02*
X146393200Y-110475000D01*
X146019778Y-108901578D02*
X145420700Y-108302500D01*
X145420700Y-108302500D02*
X144525000Y-108302500D01*
X148975000Y-110065243D02*
X148565243Y-110475000D01*
X140475000Y-108302500D02*
X139920700Y-108302500D01*
X144999999Y-103575001D02*
X144800000Y-103775000D01*
X141400521Y-104700521D02*
X141400521Y-104417678D01*
X144525000Y-108302500D02*
X143750000Y-107527500D01*
X141400521Y-104417678D02*
X146525000Y-99293199D01*
X146393200Y-110475000D02*
X146019778Y-110101578D01*
X146525000Y-99293199D02*
X146525000Y-97006800D01*
X141250000Y-107527500D02*
X140475000Y-108302500D01*
X148975000Y-109610000D02*
X148975000Y-110065243D01*
X139525000Y-107906800D02*
X139525000Y-106293199D01*
X144525000Y-96302500D02*
X143750000Y-95527500D01*
X146500000Y-104600000D02*
X145475001Y-103575001D01*
X143750000Y-95527500D02*
X142500000Y-95527500D01*
X143750000Y-107527500D02*
X142500000Y-107527500D01*
X148565000Y-108525000D02*
X148565000Y-109200000D01*
X139525000Y-106293199D02*
X141117678Y-104700521D01*
D68*
%TO.N,NFAULT1*%
X184300000Y-118500000D02*
X184300000Y-118900000D01*
X186400000Y-119900000D02*
X187100000Y-120600000D01*
X181669501Y-113974999D02*
X181669501Y-115559501D01*
X187100000Y-120600000D02*
X187700000Y-121200000D01*
X184300000Y-118900000D02*
X185300000Y-119900000D01*
X183800000Y-116200000D02*
X184300000Y-116700000D01*
X181669501Y-115559501D02*
X181685001Y-115575001D01*
X185300000Y-119900000D02*
X186400000Y-119900000D01*
X192837500Y-123787500D02*
X193912500Y-123787500D01*
X183175001Y-115575001D02*
X183800000Y-116200000D01*
X181685001Y-115575001D02*
X183175001Y-115575001D01*
X184300000Y-116700000D02*
X184300000Y-118500000D01*
X188500000Y-122000000D02*
X191300000Y-122000000D01*
X193912500Y-123787500D02*
X194090380Y-123609620D01*
X187700000Y-121200000D02*
X188500000Y-122000000D01*
%TO.N,NFAULT2*%
X203393750Y-100906250D02*
X204200000Y-100100000D01*
X198510000Y-105200000D02*
X199100000Y-105200000D01*
X198480501Y-106825000D02*
X198480501Y-105229499D01*
X215100000Y-119300000D02*
X215100000Y-120300000D01*
X198480501Y-105229499D02*
X198510000Y-105200000D01*
X203393750Y-103506250D02*
X203393750Y-100906250D01*
X215100000Y-109700000D02*
X215100000Y-119300000D01*
X201700000Y-121900000D02*
X200700000Y-121900000D01*
X200487500Y-122787500D02*
X201162500Y-122787500D01*
X211900000Y-106500000D02*
X214500000Y-109100000D01*
X200300000Y-122300000D02*
X200300000Y-122600000D01*
X214000000Y-121400000D02*
X212600000Y-122800000D01*
X214500000Y-109100000D02*
X215100000Y-109700000D01*
X202500000Y-104400000D02*
X203393750Y-103506250D01*
X212600000Y-122800000D02*
X209700000Y-122800000D01*
X200700000Y-121900000D02*
X200300000Y-122300000D01*
X215100000Y-120300000D02*
X214000000Y-121400000D01*
X200300000Y-122600000D02*
X200487500Y-122787500D01*
X210200000Y-106500000D02*
X211900000Y-106500000D01*
X199100000Y-105200000D02*
X199900000Y-104400000D01*
X199900000Y-104400000D02*
X202500000Y-104400000D01*
%TO.N,M2_IN+*%
X162612500Y-99512500D02*
X163450216Y-99512500D01*
X163450216Y-99512500D02*
X163862716Y-99100000D01*
X163862716Y-99100000D02*
X164725000Y-99100000D01*
X164725000Y-99100000D02*
X164900000Y-98925000D01*
%TO.N,M2_IN*%
X180675002Y-107475000D02*
X181669501Y-107475000D01*
D72*
X164900000Y-100750000D02*
X164900000Y-101700000D01*
X173500000Y-103600000D02*
X172500000Y-102600000D01*
D68*
X164900000Y-100750000D02*
X164212500Y-100750000D01*
X180175003Y-106975001D02*
X180675002Y-107475000D01*
D72*
X172500000Y-102600000D02*
X167050000Y-102600000D01*
D68*
X180175001Y-106975001D02*
X180175003Y-106975001D01*
D72*
X164900000Y-101700000D02*
X165800000Y-102600000D01*
D68*
X163625000Y-100162500D02*
X162612500Y-100162500D01*
D72*
X167050000Y-102600000D02*
X165800000Y-102600000D01*
X176800000Y-103600000D02*
X173500000Y-103600000D01*
X180175001Y-106975001D02*
X176800000Y-103600000D01*
D68*
X164212500Y-100750000D02*
X163625000Y-100162500D01*
D72*
X167050000Y-101650000D02*
X167050000Y-102600000D01*
%TO.N,M1_IN*%
X176400000Y-110800000D02*
X178175001Y-112575001D01*
X172156498Y-103600000D02*
X173106498Y-104550000D01*
D68*
X156887500Y-100712500D02*
X157225000Y-100375000D01*
D72*
X156100000Y-100712500D02*
X156100000Y-102500000D01*
X174750000Y-104550000D02*
X176400000Y-106200000D01*
X173106498Y-104550000D02*
X174750000Y-104550000D01*
X157200000Y-103600000D02*
X172156498Y-103600000D01*
X178175001Y-112575001D02*
X180175001Y-112575001D01*
D68*
X157225000Y-99837284D02*
X157549784Y-99512500D01*
D72*
X176400000Y-106200000D02*
X176400000Y-110800000D01*
D68*
X156100000Y-100712500D02*
X156887500Y-100712500D01*
X157225000Y-100375000D02*
X157225000Y-99837284D01*
X157549784Y-99512500D02*
X158387500Y-99512500D01*
D72*
X156100000Y-102500000D02*
X157200000Y-103600000D01*
D68*
X180874999Y-112674999D02*
X180775001Y-112575001D01*
X181669501Y-112674999D02*
X180874999Y-112674999D01*
X180775001Y-112575001D02*
X180175001Y-112575001D01*
%TO.N,M3_IN*%
X187575001Y-107475002D02*
X186275002Y-107475002D01*
X188087500Y-100712500D02*
X188337500Y-100462500D01*
X188662284Y-99487500D02*
X189500000Y-99487500D01*
X187300000Y-100712500D02*
X188087500Y-100712500D01*
D72*
X187300000Y-101100000D02*
X185800000Y-102600000D01*
D68*
X188337500Y-100462500D02*
X188337500Y-99812284D01*
X188337500Y-99812284D02*
X188662284Y-99487500D01*
D72*
X185800000Y-102600000D02*
X185800000Y-107000000D01*
X187300000Y-100712500D02*
X187300000Y-101100000D01*
D68*
X186275002Y-107475002D02*
X186175001Y-107375001D01*
D72*
X185800000Y-107000000D02*
X186175001Y-107375001D01*
D68*
%TO.N,M3_IN+*%
X189500000Y-98837500D02*
X187350000Y-98837500D01*
X187350000Y-98837500D02*
X187300000Y-98887500D01*
D72*
%TO.N,M4_IN*%
X196000000Y-100750000D02*
X196000000Y-103200000D01*
D68*
X194700000Y-100137500D02*
X193725000Y-100137500D01*
X192575001Y-113324997D02*
X193993619Y-113324997D01*
D72*
X196000000Y-103200000D02*
X195600000Y-103600000D01*
D68*
X196000000Y-100750000D02*
X195312500Y-100750000D01*
X195312500Y-100750000D02*
X194700000Y-100137500D01*
X193993619Y-113324997D02*
X194118622Y-113450000D01*
%TO.N,M4_IN+*%
X194910000Y-99327500D02*
X195600000Y-99327500D01*
X194750000Y-99487500D02*
X194910000Y-99327500D01*
X193725000Y-99487500D02*
X194750000Y-99487500D01*
%TO.N,M5_IN*%
X205500216Y-106025000D02*
X205825000Y-106349784D01*
D72*
X202324999Y-107275001D02*
X200975001Y-107275001D01*
X204600000Y-105000000D02*
X202324999Y-107275001D01*
D68*
X205825000Y-106349784D02*
X205825000Y-107187500D01*
D72*
X200975001Y-107275001D02*
X200175001Y-108075001D01*
D68*
X200125002Y-108125000D02*
X200175001Y-108075001D01*
X205125000Y-106025000D02*
X205500216Y-106025000D01*
X204887500Y-105000000D02*
X204887500Y-105787500D01*
X198480501Y-108125000D02*
X200125002Y-108125000D01*
X204887500Y-105787500D02*
X205125000Y-106025000D01*
D72*
X204887500Y-105000000D02*
X204600000Y-105000000D01*
D68*
%TO.N,M5_IN+*%
X206475000Y-107187500D02*
X206475000Y-106125000D01*
X206475000Y-106125000D02*
X206910000Y-105690000D01*
X206910000Y-105690000D02*
X206910000Y-105300000D01*
D72*
%TO.N,M6_IN+*%
X206462500Y-113550000D02*
X207950000Y-113550000D01*
D68*
X206462500Y-112912500D02*
X205825000Y-112275000D01*
D72*
X209925000Y-115525000D02*
X209925000Y-116900000D01*
X207950000Y-113550000D02*
X209925000Y-115525000D01*
D68*
X206462500Y-113550000D02*
X206462500Y-112912500D01*
X205825000Y-112275000D02*
X205825000Y-111412500D01*
D72*
%TO.N,M6_IN*%
X204637500Y-113550000D02*
X204050000Y-113550000D01*
X204050000Y-113550000D02*
X203775001Y-113275001D01*
D68*
X205175000Y-112275000D02*
X205175000Y-111412500D01*
X198480501Y-113324999D02*
X200025003Y-113324999D01*
X204637500Y-112812500D02*
X205175000Y-112275000D01*
X200025003Y-113324999D02*
X200075001Y-113275001D01*
X204637500Y-113550000D02*
X204637500Y-112812500D01*
D72*
X203775001Y-113275001D02*
X200075001Y-113275001D01*
D68*
%TO.N,SCLK*%
X200225000Y-121375000D02*
X201700000Y-119900000D01*
X189950000Y-110150000D02*
X189225001Y-109425001D01*
X191642352Y-111374998D02*
X192575001Y-111374998D01*
X189225001Y-109425001D02*
X187575001Y-109425001D01*
X191520151Y-110920151D02*
X191520151Y-111252797D01*
X201700000Y-118500000D02*
X201000000Y-117800000D01*
X199750000Y-121375000D02*
X200225000Y-121375000D01*
X189950000Y-110150000D02*
X190750000Y-110150000D01*
X195750000Y-114550000D02*
X196800000Y-115600000D01*
X190750000Y-110150000D02*
X191520151Y-110920151D01*
X201700000Y-119900000D02*
X201700000Y-118500000D01*
X195750000Y-113500000D02*
X195750000Y-114550000D01*
X191520151Y-111252797D02*
X191642352Y-111374998D01*
%TO.N,MOSI*%
X181669501Y-109424998D02*
X180224998Y-109424998D01*
X180224998Y-109424998D02*
X180200000Y-109400000D01*
X184000000Y-113600000D02*
X184000000Y-113400000D01*
X198750000Y-116250000D02*
X198750000Y-121375000D01*
X186500000Y-116100000D02*
X184000000Y-113600000D01*
X194538734Y-116250000D02*
X198750000Y-116250000D01*
X190142402Y-116178920D02*
X190063482Y-116100000D01*
X190063482Y-116100000D02*
X186500000Y-116100000D01*
X199485351Y-111375001D02*
X198480501Y-111375001D01*
X194477867Y-116310867D02*
X194538734Y-116250000D01*
X199800000Y-112400000D02*
X199800000Y-111689650D01*
X199800000Y-111689650D02*
X199485351Y-111375001D01*
%TO.N,FDCAN_RX*%
X190587500Y-126787500D02*
X192837500Y-126787500D01*
X153300000Y-114400000D02*
X152030000Y-114400000D01*
X182140380Y-117659620D02*
X182140380Y-119540380D01*
X152030000Y-114400000D02*
X151105000Y-113475000D01*
X182140380Y-119540380D02*
X187387500Y-124787500D01*
X188587500Y-124787500D02*
X190587500Y-126787500D01*
X187387500Y-124787500D02*
X188587500Y-124787500D01*
%TO.N,MISO*%
X197561522Y-116900000D02*
X195200000Y-116900000D01*
X186100000Y-116700000D02*
X183000000Y-113600000D01*
X200400000Y-119400000D02*
X200000000Y-119000000D01*
X181669501Y-110724998D02*
X180275002Y-110724998D01*
X198480501Y-110075001D02*
X199999999Y-110075001D01*
X197880761Y-117219239D02*
X197561522Y-116900000D01*
X189532160Y-116700000D02*
X186100000Y-116700000D01*
X199250000Y-119750000D02*
X199250000Y-121375000D01*
X200000000Y-119000000D02*
X199250000Y-119750000D01*
X200000000Y-116200000D02*
X200000000Y-119000000D01*
X189582160Y-116750000D02*
X189532160Y-116700000D01*
X180275002Y-110724998D02*
X180200000Y-110800000D01*
X199999999Y-110075001D02*
X200000000Y-110075000D01*
X200600000Y-119400000D02*
X200400000Y-119400000D01*
%TO.N,FDCAN_TX*%
X147295000Y-113475000D02*
X147295000Y-115095000D01*
X181180761Y-119580761D02*
X187000000Y-125400000D01*
X147295000Y-115095000D02*
X147600000Y-115400000D01*
X187000000Y-125400000D02*
X188000000Y-125400000D01*
X189887500Y-127287500D02*
X192837500Y-127287500D01*
X188000000Y-125400000D02*
X189887500Y-127287500D01*
X181180761Y-117619239D02*
X181180761Y-119580761D01*
%TO.N,NSLEEP1*%
X194400000Y-117610867D02*
X197280106Y-117610867D01*
X197750000Y-120250000D02*
X197750000Y-121375000D01*
X180505804Y-111374999D02*
X180180782Y-111700021D01*
X188942002Y-117379319D02*
X185686425Y-117379319D01*
X198000000Y-118330761D02*
X198000000Y-120000000D01*
X181669501Y-111374999D02*
X180505804Y-111374999D01*
X197280106Y-117610867D02*
X198000000Y-118330761D01*
X185686425Y-117379319D02*
X182807106Y-114500000D01*
X182807106Y-114500000D02*
X182800000Y-114500000D01*
X198000000Y-120000000D02*
X197750000Y-120250000D01*
%TO.N,CS1*%
X190927136Y-116023368D02*
X190927136Y-116472864D01*
X189300000Y-119500000D02*
X188900000Y-119900000D01*
X195250000Y-122550000D02*
X195250000Y-121375000D01*
X195100000Y-122700000D02*
X195250000Y-122550000D01*
X188875002Y-110075002D02*
X187575001Y-110075002D01*
X189300000Y-118100000D02*
X189300000Y-118700000D01*
X190490380Y-110809620D02*
X189609620Y-110809620D01*
X190927136Y-116472864D02*
X189300000Y-118100000D01*
X189300000Y-118700000D02*
X189300000Y-119500000D01*
X189609620Y-110809620D02*
X188875002Y-110075002D01*
%TO.N,M3_OUT*%
X186125000Y-113325000D02*
X187575001Y-113325000D01*
D72*
X182425000Y-96737500D02*
X181200000Y-95512500D01*
X183575001Y-105175001D02*
X182425000Y-104025000D01*
X182425000Y-104025000D02*
X182425000Y-96737500D01*
D68*
X185800000Y-113000000D02*
X186125000Y-113325000D01*
D72*
%TO.N,M2_OUT*%
X172893502Y-101650000D02*
X169162500Y-101650000D01*
X183375001Y-107575001D02*
X183375001Y-106575001D01*
X178400000Y-103150000D02*
X178400000Y-102600000D01*
X166950000Y-99437500D02*
X166950000Y-96612500D01*
X166950000Y-96612500D02*
X165850000Y-95512500D01*
X169162500Y-101650000D02*
X166950000Y-99437500D01*
X173843502Y-102600000D02*
X172893502Y-101650000D01*
X183375001Y-106575001D02*
X179400000Y-102600000D01*
X179400000Y-102600000D02*
X178400000Y-102600000D01*
D68*
X182825004Y-108124998D02*
X183375001Y-107575001D01*
D72*
X178950000Y-103700000D02*
X178400000Y-103150000D01*
D68*
X181669501Y-108124998D02*
X182825004Y-108124998D01*
D72*
X178400000Y-102600000D02*
X173843502Y-102600000D01*
D68*
%TO.N,M5_OUT*%
X199675001Y-107475001D02*
X199975001Y-107175001D01*
D72*
X207600000Y-97000000D02*
X207500000Y-96900000D01*
X207600000Y-97000000D02*
X209900000Y-97000000D01*
X207500000Y-96900000D02*
X207500000Y-91150000D01*
X206100000Y-100125000D02*
X205475000Y-100125000D01*
X206100000Y-98500000D02*
X206100000Y-100125000D01*
X207600000Y-97000000D02*
X206100000Y-98500000D01*
X202800304Y-105125000D02*
X201625002Y-105125000D01*
D68*
X199975001Y-107175001D02*
X199975001Y-106775001D01*
D72*
X205475000Y-100125000D02*
X204300000Y-101300000D01*
D68*
X198480501Y-107475001D02*
X199675001Y-107475001D01*
D72*
X204300000Y-103625304D02*
X202800304Y-105125000D01*
X204300000Y-101300000D02*
X204300000Y-103625304D01*
X201625002Y-105125000D02*
X199975001Y-106775001D01*
D68*
%TO.N,CS2*%
X193691851Y-112566851D02*
X193691851Y-110836997D01*
X197700000Y-122900000D02*
X197250000Y-122450000D01*
X193579851Y-110724997D02*
X192575001Y-110724997D01*
X195100000Y-114700000D02*
X195100000Y-113200000D01*
X194700000Y-112800000D02*
X193925000Y-112800000D01*
X197250000Y-122450000D02*
X197250000Y-121375000D01*
X193700000Y-116100000D02*
X195100000Y-114700000D01*
X193900000Y-118300000D02*
X193700000Y-118100000D01*
X195100000Y-113200000D02*
X194700000Y-112800000D01*
X193691851Y-110836997D02*
X193579851Y-110724997D01*
X193925000Y-112800000D02*
X193691851Y-112566851D01*
X193700000Y-118100000D02*
X193700000Y-116100000D01*
%TO.N,NSLEEP2*%
X199475000Y-109425000D02*
X199600000Y-109300000D01*
X204997107Y-124290000D02*
X205407107Y-124700000D01*
X207600000Y-124700000D02*
X207900000Y-124400000D01*
X203650000Y-123600000D02*
X204340000Y-124290000D01*
X199600000Y-109300000D02*
X199800000Y-109100000D01*
X204340000Y-124290000D02*
X204997107Y-124290000D01*
X211100000Y-109500000D02*
X208900000Y-109500000D01*
X207900000Y-124400000D02*
X207900000Y-121992894D01*
X211000000Y-120900000D02*
X212500000Y-119400000D01*
X202639338Y-109100000D02*
X202644669Y-109105331D01*
X198480501Y-109425000D02*
X199475000Y-109425000D01*
X212500000Y-119400000D02*
X212500000Y-110900000D01*
X205407107Y-124700000D02*
X207600000Y-124700000D01*
X207900000Y-121992894D02*
X208992894Y-120900000D01*
X199800000Y-109100000D02*
X201300000Y-109100000D01*
X198250000Y-122215620D02*
X198250000Y-121375000D01*
X212500000Y-110900000D02*
X211100000Y-109500000D01*
X199700000Y-123600000D02*
X199634380Y-123600000D01*
X208992894Y-120900000D02*
X211000000Y-120900000D01*
X201300000Y-109100000D02*
X202639338Y-109100000D01*
X199634380Y-123600000D02*
X198250000Y-122215620D01*
D72*
%TO.N,M4_OUT*%
X197400000Y-100800000D02*
X198025000Y-100175000D01*
X197400000Y-103200000D02*
X197400000Y-100800000D01*
X198025000Y-96862500D02*
X196600000Y-95437500D01*
X193975001Y-106624999D02*
X197400000Y-103200000D01*
D68*
X193875003Y-107474999D02*
X193975001Y-107375001D01*
D72*
X193975001Y-107375001D02*
X193975001Y-106624999D01*
D68*
X192575001Y-107474999D02*
X193875003Y-107474999D01*
D72*
X198025000Y-99237500D02*
X198025000Y-96862500D01*
X198025000Y-100175000D02*
X198025000Y-99237500D01*
D68*
%TO.N,M6_OUT*%
X197175001Y-113375001D02*
X197175001Y-112863651D01*
D72*
X204200000Y-115025000D02*
X206000000Y-115025000D01*
D68*
X197363651Y-112675001D02*
X198480501Y-112675001D01*
D72*
X197647854Y-115175001D02*
X204049999Y-115175001D01*
D68*
X197175001Y-112863651D02*
X197363651Y-112675001D01*
D72*
X204049999Y-115175001D02*
X204200000Y-115025000D01*
X197175001Y-114702148D02*
X197647854Y-115175001D01*
X197175001Y-113375001D02*
X197175001Y-114702148D01*
D68*
%TO.N,CSA1*%
X183000000Y-117400000D02*
X183000000Y-119400000D01*
X182569239Y-116969239D02*
X183000000Y-117400000D01*
X173650000Y-108050000D02*
X173650000Y-112050000D01*
X176425001Y-114825001D02*
X176530331Y-114825001D01*
X165000000Y-105475000D02*
X171075000Y-105475000D01*
X159562500Y-100162500D02*
X160000000Y-100600000D01*
X179175824Y-116969239D02*
X182569239Y-116969239D01*
X179170062Y-116975001D02*
X179175824Y-116969239D01*
X158387500Y-100162500D02*
X159562500Y-100162500D01*
X160000000Y-100600000D02*
X160200000Y-100800000D01*
X178631584Y-116975001D02*
X179170062Y-116975001D01*
X171075000Y-105475000D02*
X173650000Y-108050000D01*
X160200000Y-100800000D02*
X160200000Y-102000000D01*
X183000000Y-119400000D02*
X187887500Y-124287500D01*
X178030331Y-116369669D02*
X178030331Y-116373748D01*
X178030331Y-116373748D02*
X178631584Y-116975001D01*
X187887500Y-124287500D02*
X192837500Y-124287500D01*
X173650000Y-112050000D02*
X176425001Y-114825001D01*
D70*
%TO.N,+2.8V*%
X189200000Y-101087500D02*
X189450000Y-100837500D01*
D68*
X190690000Y-102000000D02*
X189800000Y-102890000D01*
D70*
X189800000Y-102890000D02*
X189200000Y-102890000D01*
D68*
X158925000Y-102725000D02*
X158387500Y-102187500D01*
X204112500Y-107600000D02*
X204525000Y-107187500D01*
D70*
X189450000Y-100837500D02*
X189500000Y-100837500D01*
D68*
X164400000Y-102725000D02*
X158925000Y-102725000D01*
D70*
X189200000Y-102890000D02*
X188400000Y-102890000D01*
D68*
X203400000Y-107600000D02*
X204112500Y-107600000D01*
X187290000Y-102890000D02*
X188400000Y-102890000D01*
X158387500Y-102187500D02*
X158387500Y-100812500D01*
X187125000Y-102725000D02*
X187290000Y-102890000D01*
D70*
X189200000Y-102890000D02*
X189200000Y-101087500D01*
D68*
X191400000Y-102000000D02*
X190690000Y-102000000D01*
%TO.N,CSA2*%
X176571016Y-113946447D02*
X177400000Y-114775431D01*
X178900823Y-116325001D02*
X178900000Y-116325824D01*
X187980761Y-123500000D02*
X191784380Y-123500000D01*
X178900823Y-116325001D02*
X182925001Y-116325001D01*
X162600000Y-100825000D02*
X162612500Y-100812500D01*
X191996880Y-123287500D02*
X192837500Y-123287500D01*
X183600000Y-117000000D02*
X183600000Y-119119239D01*
X191784380Y-123500000D02*
X191996880Y-123287500D01*
X173000000Y-106400000D02*
X174200000Y-107600000D01*
X182925001Y-116325001D02*
X183600000Y-117000000D01*
X162600000Y-102075000D02*
X162600000Y-100825000D01*
X177400000Y-114775431D02*
X177400000Y-114800000D01*
X174200000Y-111892894D02*
X176253553Y-113946447D01*
X183600000Y-119119239D02*
X187980761Y-123500000D01*
X174200000Y-111800000D02*
X174200000Y-111892894D01*
X176253553Y-113946447D02*
X176571016Y-113946447D01*
X174200000Y-107600000D02*
X174200000Y-111800000D01*
%TO.N,TEMP*%
X154695000Y-118095000D02*
X156000000Y-119400000D01*
X153125000Y-118095000D02*
X154695000Y-118095000D01*
X188187500Y-122787500D02*
X192837500Y-122787500D01*
X186300000Y-120900000D02*
X188187500Y-122787500D01*
D71*
%TO.N,/Power/PGATE*%
X161225000Y-122025000D02*
X161200000Y-122000000D01*
D68*
X165390000Y-137990000D02*
X165200000Y-137800000D01*
X166600000Y-137990000D02*
X165390000Y-137990000D01*
D71*
X161225000Y-124162500D02*
X161225000Y-122025000D01*
D68*
%TO.N,SDA*%
X198300000Y-132700000D02*
X198300000Y-131807107D01*
X188000000Y-139800000D02*
X188800000Y-139000000D01*
X188800000Y-139000000D02*
X191950000Y-139000000D01*
X197400366Y-132900000D02*
X198100000Y-132900000D01*
X197800000Y-133290000D02*
X197800000Y-133300366D01*
X196730000Y-134220000D02*
X196730000Y-133570366D01*
X197800000Y-133300366D02*
X198070000Y-133570366D01*
X212400000Y-142700000D02*
X214800000Y-140300000D01*
X205000000Y-139000000D02*
X205500000Y-139500000D01*
X198070000Y-134770000D02*
X200400000Y-137100000D01*
X214800000Y-140300000D02*
X214800000Y-130700000D01*
X198300000Y-131807107D02*
X197750000Y-131257107D01*
X198100000Y-132900000D02*
X198300000Y-132700000D01*
X205500000Y-141050000D02*
X207150000Y-142700000D01*
X191950000Y-139000000D02*
X196730000Y-134220000D01*
X200400000Y-138000000D02*
X201400000Y-139000000D01*
X205500000Y-139500000D02*
X205500000Y-141050000D01*
X197750000Y-131257107D02*
X197750000Y-129700000D01*
X196730000Y-133570366D02*
X197400366Y-132900000D01*
X201400000Y-139000000D02*
X205000000Y-139000000D01*
X198070000Y-133570366D02*
X198070000Y-134770000D01*
X215200000Y-130300000D02*
X216800000Y-130300000D01*
X207150000Y-142700000D02*
X212400000Y-142700000D01*
X197400000Y-132890000D02*
X197800000Y-133290000D01*
X214800000Y-130700000D02*
X215200000Y-130300000D01*
X200400000Y-137100000D02*
X200400000Y-138000000D01*
X188000000Y-141050000D02*
X188000000Y-139800000D01*
%TO.N,RDY1*%
X195200000Y-134400000D02*
X195200000Y-133707106D01*
X190000000Y-138350000D02*
X191250000Y-138350000D01*
X195730000Y-133177106D02*
X195730000Y-132589239D01*
X191250000Y-138350000D02*
X195200000Y-134400000D01*
X195200000Y-133707106D02*
X195730000Y-133177106D01*
X195730000Y-132589239D02*
X196250000Y-132069239D01*
X196250000Y-132069239D02*
X196250000Y-129700000D01*
%TO.N,SCL*%
X203500000Y-142700000D02*
X203500000Y-141050000D01*
X194600000Y-132100366D02*
X195110000Y-132610366D01*
X195250000Y-129700000D02*
X195250000Y-131164213D01*
X195110000Y-132610366D02*
X195110000Y-133090000D01*
X195110000Y-133090000D02*
X190700000Y-137500000D01*
X202800000Y-143400000D02*
X213100000Y-143400000D01*
X190700000Y-137500000D02*
X189550000Y-137500000D01*
X195250000Y-131164213D02*
X194600000Y-131814213D01*
X202800000Y-143400000D02*
X203500000Y-142700000D01*
X186600000Y-143400000D02*
X202800000Y-143400000D01*
X186000000Y-142800000D02*
X186600000Y-143400000D01*
X218400000Y-132300000D02*
X216800000Y-132300000D01*
X194600000Y-131814213D02*
X194600000Y-132100366D01*
X186000000Y-141050000D02*
X186000000Y-142800000D01*
X219200000Y-137300000D02*
X219200000Y-133100000D01*
X189550000Y-137500000D02*
X186000000Y-141050000D01*
X213100000Y-143400000D02*
X219200000Y-137300000D01*
X219200000Y-133100000D02*
X218400000Y-132300000D01*
%TO.N,PWM1*%
X191812500Y-125287500D02*
X191000000Y-126100000D01*
X192837500Y-125287500D02*
X191812500Y-125287500D01*
%TO.N,GPIO1*%
X194600000Y-137700000D02*
X196500000Y-135800000D01*
X194000000Y-141050000D02*
X194000000Y-138300000D01*
X197250000Y-131850000D02*
X197250000Y-129700000D01*
X197500000Y-132000000D02*
X197400000Y-132000000D01*
X197400000Y-132000000D02*
X197250000Y-131850000D01*
X194000000Y-138300000D02*
X194600000Y-137700000D01*
%TO.N,RDY2*%
X198720000Y-134520000D02*
X198720000Y-134400000D01*
X196230000Y-133570000D02*
X196230000Y-133050366D01*
X201700000Y-138000000D02*
X201700000Y-137500000D01*
X206300000Y-138200000D02*
X201900000Y-138200000D01*
X207500000Y-139400000D02*
X206300000Y-138200000D01*
X196000000Y-133800000D02*
X195913173Y-133886827D01*
X207500000Y-141050000D02*
X207500000Y-139400000D01*
X201900000Y-138200000D02*
X201700000Y-138000000D01*
X201700000Y-137500000D02*
X201300000Y-137100000D01*
X196000000Y-133800000D02*
X196230000Y-133570000D01*
X201300000Y-137100000D02*
X198720000Y-134520000D01*
X195913173Y-133886827D02*
X195913173Y-133913173D01*
X196230000Y-133050366D02*
X196750000Y-132530366D01*
X196750000Y-132530366D02*
X196750000Y-129700000D01*
%TO.N,GPIO2*%
X204091356Y-129875736D02*
X202003120Y-127787500D01*
X211500000Y-137300000D02*
X205400000Y-131200000D01*
X211500000Y-141050000D02*
X211500000Y-137300000D01*
X204943503Y-129875736D02*
X204091356Y-129875736D01*
X205400000Y-131200000D02*
X205400000Y-130332233D01*
X205400000Y-130332233D02*
X204943503Y-129875736D01*
X202003120Y-127787500D02*
X201162500Y-127787500D01*
%TO.N,PWM2*%
X204800000Y-130651472D02*
X204800000Y-131800000D01*
X209500000Y-136030761D02*
X209500000Y-141050000D01*
X204800000Y-131800000D02*
X208650000Y-135650000D01*
X194550000Y-125787500D02*
X196400000Y-127637500D01*
X208650000Y-135650000D02*
X209119239Y-135650000D01*
X192837500Y-125787500D02*
X194550000Y-125787500D01*
X204674264Y-130525736D02*
X204800000Y-130651472D01*
X209119239Y-135650000D02*
X209500000Y-136030761D01*
%TO.N,CSA4*%
X209200000Y-121400000D02*
X208400000Y-122200000D01*
X205200000Y-125200000D02*
X204790000Y-124790000D01*
X208400000Y-124692894D02*
X207892894Y-125200000D01*
X211800000Y-121400000D02*
X209200000Y-121400000D01*
X192387500Y-100787500D02*
X192200000Y-100600000D01*
X203487500Y-124287500D02*
X201162500Y-124287500D01*
X213400000Y-110600000D02*
X213400000Y-119800000D01*
X206000000Y-108800000D02*
X211600000Y-108800000D01*
X211600000Y-108800000D02*
X213400000Y-110600000D01*
X204790000Y-124790000D02*
X203990000Y-124790000D01*
X213400000Y-119800000D02*
X211800000Y-121400000D01*
X203990000Y-124790000D02*
X203487500Y-124287500D01*
X193725000Y-100787500D02*
X192387500Y-100787500D01*
X207892894Y-125200000D02*
X205200000Y-125200000D01*
X208400000Y-122200000D02*
X208400000Y-124692894D01*
%TO.N,CSA3*%
X191400000Y-99800000D02*
X192200000Y-99800000D01*
X214200000Y-120000000D02*
X212200000Y-122000000D01*
X204582894Y-125290000D02*
X203782894Y-125290000D01*
X208100000Y-125700000D02*
X204992894Y-125700000D01*
X203782894Y-125290000D02*
X203280394Y-124787500D01*
X209400000Y-122000000D02*
X208900000Y-122500000D01*
X189500000Y-100137500D02*
X191062500Y-100137500D01*
X212078685Y-108078685D02*
X214200000Y-110200000D01*
X214200000Y-110200000D02*
X214200000Y-120000000D01*
X207193145Y-108078685D02*
X212078685Y-108078685D01*
X204992894Y-125700000D02*
X204582894Y-125290000D01*
X208900000Y-124900000D02*
X208100000Y-125700000D01*
X208900000Y-122500000D02*
X208900000Y-124900000D01*
X212200000Y-122000000D02*
X209400000Y-122000000D01*
X203280394Y-124787500D02*
X201162500Y-124787500D01*
X191062500Y-100137500D02*
X191400000Y-99800000D01*
%TO.N,CSA6*%
X202400000Y-122890620D02*
X202003120Y-123287500D01*
X202400000Y-116200000D02*
X202400000Y-122890620D01*
X204187500Y-111412500D02*
X203400000Y-112200000D01*
X202003120Y-123287500D02*
X201162500Y-123287500D01*
X204525000Y-111412500D02*
X204187500Y-111412500D01*
%TO.N,CSA5*%
X202503120Y-123787500D02*
X201162500Y-123787500D01*
X203200000Y-123090620D02*
X202503120Y-123787500D01*
X205175000Y-108875000D02*
X205175000Y-107187500D01*
X204150000Y-109900000D02*
X205175000Y-108875000D01*
X203200000Y-116200000D02*
X203200000Y-123090620D01*
%TO.N,PWM3*%
X207480760Y-129200000D02*
X209400000Y-129200000D01*
X196300000Y-126400000D02*
X199400000Y-126400000D01*
X192837500Y-126287500D02*
X193887500Y-126287500D01*
X214000000Y-127000000D02*
X214700000Y-126300000D01*
X211600000Y-127000000D02*
X214000000Y-127000000D01*
X214700000Y-126300000D02*
X216800000Y-126300000D01*
X205740380Y-127459620D02*
X207480760Y-129200000D01*
X193887500Y-126287500D02*
X195100000Y-127500000D01*
X209400000Y-129200000D02*
X211600000Y-127000000D01*
%TO.N,RDY3*%
X202630394Y-126287500D02*
X201162500Y-126287500D01*
X210000000Y-129800000D02*
X207107106Y-129800000D01*
X204091575Y-126920000D02*
X203262894Y-126920000D01*
X205371575Y-128200000D02*
X204091575Y-126920000D01*
X216800000Y-128300000D02*
X211500000Y-128300000D01*
X211500000Y-128300000D02*
X210000000Y-129800000D01*
X205507106Y-128200000D02*
X205371575Y-128200000D01*
X203262894Y-126920000D02*
X202630394Y-126287500D01*
X207107106Y-129800000D02*
X205507106Y-128200000D01*
%TO.N,GPIO3*%
X213500000Y-126300000D02*
X211200000Y-126300000D01*
X216800000Y-124300000D02*
X215500000Y-124300000D01*
X203470000Y-126420000D02*
X202837500Y-125787500D01*
X204678681Y-126800000D02*
X204298681Y-126420000D01*
X215500000Y-124300000D02*
X213500000Y-126300000D01*
X206463154Y-126800000D02*
X204678681Y-126800000D01*
X208163154Y-128500000D02*
X206463154Y-126800000D01*
X204298681Y-126420000D02*
X203470000Y-126420000D01*
X202837500Y-125787500D02*
X201162500Y-125787500D01*
X209000000Y-128500000D02*
X208163154Y-128500000D01*
X211200000Y-126300000D02*
X209000000Y-128500000D01*
%TO.N,Net-(D17-K)*%
X211200000Y-132387500D02*
X211200000Y-133890000D01*
%TO.N,Net-(D18-K)*%
X213210000Y-132387500D02*
X213210000Y-133880000D01*
X213210000Y-133880000D02*
X213200000Y-133890000D01*
%TO.N,Net-(D19-K)*%
X187122500Y-128310000D02*
X186800000Y-127987500D01*
X188400000Y-128310000D02*
X187122500Y-128310000D01*
%TO.N,/MCU/LED1*%
X210200000Y-131400000D02*
X210787500Y-130812500D01*
X207200000Y-131400000D02*
X210200000Y-131400000D01*
X205000000Y-129200000D02*
X207200000Y-131400000D01*
X202210226Y-127287500D02*
X202842726Y-127920000D01*
X210787500Y-130812500D02*
X211200000Y-130812500D01*
X202842726Y-127920000D02*
X203120000Y-127920000D01*
X203120000Y-127920000D02*
X204400000Y-129200000D01*
X201162500Y-127287500D02*
X202210226Y-127287500D01*
X204400000Y-129200000D02*
X205000000Y-129200000D01*
%TO.N,/MCU/LED2*%
X210107106Y-130400000D02*
X210907106Y-129600000D01*
X203620000Y-127420000D02*
X204900000Y-128700000D01*
X201162500Y-126787500D02*
X202423288Y-126787500D01*
X202423288Y-126787500D02*
X203055788Y-127420000D01*
X203055788Y-127420000D02*
X203620000Y-127420000D01*
X207000000Y-130400000D02*
X210107106Y-130400000D01*
X204900000Y-128700000D02*
X205300000Y-128700000D01*
X210907106Y-129600000D02*
X211997500Y-129600000D01*
X205300000Y-128700000D02*
X207000000Y-130400000D01*
X211997500Y-129600000D02*
X213210000Y-130812500D01*
%TO.N,/MCU/LED3*%
X192837500Y-124787500D02*
X190412500Y-124787500D01*
X188000000Y-126400000D02*
X187987500Y-126412500D01*
X190412500Y-124787500D02*
X190200000Y-125000000D01*
X187987500Y-126412500D02*
X187000000Y-126412500D01*
%TD*%
%TA.AperFunction,Conductor*%
%TO.N,+12V*%
G36*
X177945494Y-121419685D02*
G01*
X177991249Y-121472489D01*
X178002430Y-121521520D01*
X178199999Y-131399999D01*
X178200000Y-131400000D01*
X179876000Y-131400000D01*
X179943039Y-131419685D01*
X179988794Y-131472489D01*
X180000000Y-131524000D01*
X180000000Y-134476000D01*
X179980315Y-134543039D01*
X179927511Y-134588794D01*
X179876000Y-134600000D01*
X177603644Y-134600000D01*
X177596362Y-134599786D01*
X177452303Y-134591311D01*
X177386535Y-134567723D01*
X177371904Y-134555206D01*
X177333212Y-134516514D01*
X177333207Y-134516510D01*
X177189894Y-134412388D01*
X177189893Y-134412387D01*
X177189891Y-134412386D01*
X177139320Y-134386618D01*
X177032042Y-134331957D01*
X177032039Y-134331956D01*
X176863557Y-134277214D01*
X176776067Y-134263357D01*
X176688579Y-134249500D01*
X176511422Y-134249500D01*
X176453096Y-134258738D01*
X176336443Y-134277214D01*
X176286533Y-134293431D01*
X176248215Y-134299500D01*
X174429500Y-134299500D01*
X174362461Y-134279815D01*
X174316706Y-134227011D01*
X174305500Y-134175500D01*
X174305500Y-133228340D01*
X174317679Y-133174749D01*
X174360679Y-133085024D01*
X174374833Y-133055491D01*
X174395755Y-132988827D01*
X174418863Y-132846817D01*
X174401027Y-132704047D01*
X174382587Y-132636655D01*
X174374271Y-132617516D01*
X174370299Y-132607117D01*
X174336294Y-132504495D01*
X174330000Y-132465492D01*
X174330000Y-131934502D01*
X174336291Y-131895506D01*
X174344697Y-131870139D01*
X174356862Y-131844054D01*
X174404111Y-131767452D01*
X174406062Y-131764435D01*
X174407884Y-131761335D01*
X174409584Y-131758581D01*
X174409583Y-131758580D01*
X174410360Y-131757322D01*
X174410749Y-131756693D01*
X174410753Y-131756685D01*
X174411801Y-131754992D01*
X174411881Y-131754857D01*
X174423958Y-131735279D01*
X174424021Y-131734104D01*
X174431120Y-131717799D01*
X174444204Y-131692820D01*
X174444208Y-131692805D01*
X174444704Y-131691550D01*
X174445208Y-131690901D01*
X174447288Y-131686931D01*
X174448004Y-131687306D01*
X174450827Y-131683675D01*
X174464396Y-131637467D01*
X174464524Y-131637081D01*
X174465527Y-131633618D01*
X174465593Y-131633389D01*
X174465595Y-131633386D01*
X174465670Y-131633127D01*
X174465671Y-131633128D01*
X174485021Y-131567233D01*
X174485024Y-131567223D01*
X174505500Y-131424807D01*
X174505500Y-131124000D01*
X174493947Y-131016544D01*
X174482741Y-130965033D01*
X174480155Y-130957262D01*
X174448616Y-130862502D01*
X174448611Y-130862492D01*
X174370558Y-130741039D01*
X174350873Y-130674000D01*
X174370558Y-130606961D01*
X174423362Y-130561206D01*
X174474873Y-130550000D01*
X174549700Y-130550000D01*
X174549700Y-121524000D01*
X174569385Y-121456961D01*
X174622189Y-121411206D01*
X174673700Y-121400000D01*
X177878455Y-121400000D01*
X177945494Y-121419685D01*
G37*
%TD.AperFunction*%
%TD*%
%TA.AperFunction,Conductor*%
%TO.N,/Power/ISEN*%
G36*
X159667539Y-123219685D02*
G01*
X159713294Y-123272489D01*
X159724500Y-123324000D01*
X159724500Y-123402367D01*
X159706040Y-123467461D01*
X159690187Y-123493163D01*
X159690186Y-123493165D01*
X159690186Y-123493166D01*
X159635001Y-123659703D01*
X159635001Y-123659704D01*
X159635000Y-123659704D01*
X159624500Y-123762483D01*
X159624500Y-124562501D01*
X159624501Y-124562519D01*
X159635000Y-124665296D01*
X159635001Y-124665299D01*
X159690185Y-124831831D01*
X159690186Y-124831834D01*
X159781539Y-124979943D01*
X159800000Y-125045037D01*
X159800000Y-127839962D01*
X159781539Y-127905058D01*
X159690189Y-128053159D01*
X159690185Y-128053168D01*
X159686407Y-128064570D01*
X159635001Y-128219703D01*
X159635001Y-128219704D01*
X159635000Y-128219704D01*
X159624500Y-128322483D01*
X159624500Y-129122501D01*
X159624501Y-129122519D01*
X159635000Y-129225296D01*
X159635001Y-129225299D01*
X159690185Y-129391831D01*
X159690186Y-129391834D01*
X159781539Y-129539943D01*
X159800000Y-129605037D01*
X159800000Y-130762462D01*
X159781539Y-130827558D01*
X159690189Y-130975659D01*
X159690186Y-130975666D01*
X159635001Y-131142203D01*
X159635001Y-131142204D01*
X159635000Y-131142204D01*
X159624500Y-131244983D01*
X159624500Y-132045001D01*
X159624501Y-132045019D01*
X159635000Y-132147796D01*
X159635001Y-132147799D01*
X159653027Y-132202196D01*
X159690186Y-132314334D01*
X159781539Y-132462443D01*
X159800000Y-132527537D01*
X159800000Y-132800000D01*
X164523842Y-132800000D01*
X164590881Y-132819685D01*
X164626330Y-132855134D01*
X164626518Y-132854994D01*
X164627492Y-132856295D01*
X164628156Y-132856959D01*
X164629168Y-132858533D01*
X164629179Y-132858548D01*
X164674923Y-132911340D01*
X164674926Y-132911343D01*
X164674930Y-132911347D01*
X164783664Y-133005567D01*
X164783667Y-133005568D01*
X164783668Y-133005569D01*
X164892979Y-133055491D01*
X164914541Y-133065338D01*
X164981580Y-133085023D01*
X164981584Y-133085024D01*
X165124000Y-133105500D01*
X167476000Y-133105500D01*
X167543039Y-133125185D01*
X167588794Y-133177989D01*
X167600000Y-133229500D01*
X167600000Y-134923842D01*
X167580315Y-134990881D01*
X167544865Y-135026330D01*
X167545006Y-135026518D01*
X167543704Y-135027492D01*
X167543041Y-135028156D01*
X167541466Y-135029168D01*
X167541451Y-135029179D01*
X167488659Y-135074923D01*
X167394433Y-135183664D01*
X167394430Y-135183668D01*
X167334664Y-135314534D01*
X167314976Y-135381582D01*
X167294500Y-135524001D01*
X167294500Y-137020562D01*
X167299540Y-137091765D01*
X167300432Y-137098033D01*
X167290387Y-137167177D01*
X167244554Y-137219914D01*
X167177668Y-137239500D01*
X165936849Y-137239500D01*
X165936824Y-137239501D01*
X165901374Y-137242290D01*
X165873376Y-137250424D01*
X165803506Y-137250221D01*
X165751105Y-137219027D01*
X165702262Y-137170184D01*
X165549523Y-137074211D01*
X165379254Y-137014631D01*
X165379249Y-137014630D01*
X165200004Y-136994435D01*
X165199996Y-136994435D01*
X165020750Y-137014630D01*
X165020745Y-137014631D01*
X164850476Y-137074211D01*
X164697737Y-137170184D01*
X164570184Y-137297737D01*
X164474211Y-137450476D01*
X164414631Y-137620745D01*
X164414630Y-137620750D01*
X164394435Y-137799996D01*
X164394435Y-137800004D01*
X164403630Y-137881617D01*
X164391575Y-137950439D01*
X164344226Y-138001818D01*
X164280410Y-138019500D01*
X163439998Y-138019500D01*
X163439980Y-138019501D01*
X163337203Y-138030000D01*
X163337200Y-138030001D01*
X163170668Y-138085185D01*
X163170663Y-138085187D01*
X163021342Y-138177289D01*
X162897289Y-138301342D01*
X162805187Y-138450663D01*
X162805186Y-138450666D01*
X162750001Y-138617203D01*
X162750001Y-138617204D01*
X162750000Y-138617204D01*
X162739500Y-138719983D01*
X162739500Y-139470001D01*
X162739501Y-139470019D01*
X162750000Y-139572796D01*
X162763978Y-139614976D01*
X162804412Y-139736998D01*
X162806814Y-139806824D01*
X162771083Y-139866866D01*
X162708562Y-139898059D01*
X162686706Y-139900000D01*
X159898626Y-139900000D01*
X159831587Y-139880315D01*
X159807219Y-139859790D01*
X158232593Y-138142016D01*
X158201803Y-138079296D01*
X158200000Y-138058226D01*
X158200000Y-137829500D01*
X158219685Y-137762461D01*
X158272489Y-137716706D01*
X158324000Y-137705500D01*
X161343097Y-137705500D01*
X161576368Y-137668553D01*
X161589854Y-137664171D01*
X161800992Y-137595568D01*
X162011433Y-137488343D01*
X162202510Y-137349517D01*
X162226527Y-137325500D01*
X162250734Y-137301293D01*
X162299411Y-137271267D01*
X162394334Y-137239814D01*
X162543656Y-137147712D01*
X162667712Y-137023656D01*
X162759814Y-136874334D01*
X162814999Y-136707797D01*
X162825500Y-136605009D01*
X162825499Y-135804992D01*
X162814999Y-135702203D01*
X162759814Y-135535666D01*
X162667712Y-135386344D01*
X162543656Y-135262288D01*
X162394334Y-135170186D01*
X162307637Y-135141457D01*
X162299408Y-135138730D01*
X162250732Y-135108705D01*
X162202512Y-135060485D01*
X162202510Y-135060483D01*
X162011433Y-134921657D01*
X162010379Y-134921120D01*
X161800996Y-134814433D01*
X161576368Y-134741446D01*
X161343097Y-134704500D01*
X161343092Y-134704500D01*
X158749500Y-134704500D01*
X158682461Y-134684815D01*
X158636706Y-134632011D01*
X158625500Y-134580500D01*
X158625500Y-131224993D01*
X158625499Y-131224980D01*
X158614999Y-131122200D01*
X158559815Y-130955664D01*
X158559811Y-130955658D01*
X158559810Y-130955655D01*
X158467714Y-130806346D01*
X158467713Y-130806345D01*
X158467712Y-130806343D01*
X158343657Y-130682288D01*
X158343656Y-130682287D01*
X158258902Y-130630009D01*
X158212178Y-130578060D01*
X158200000Y-130524471D01*
X158200000Y-130200000D01*
X151524000Y-130200000D01*
X151456961Y-130180315D01*
X151411206Y-130127511D01*
X151400000Y-130076000D01*
X151400000Y-123324000D01*
X151419685Y-123256961D01*
X151472489Y-123211206D01*
X151524000Y-123200000D01*
X159600500Y-123200000D01*
X159667539Y-123219685D01*
G37*
%TD.AperFunction*%
%TD*%
%TA.AperFunction,Conductor*%
%TO.N,Net-(D1-K)*%
G36*
X166593339Y-121419685D02*
G01*
X166639094Y-121472489D01*
X166650300Y-121524000D01*
X166650300Y-130370500D01*
X166630615Y-130437539D01*
X166577811Y-130483294D01*
X166526300Y-130494500D01*
X165124000Y-130494500D01*
X165123991Y-130494500D01*
X165123990Y-130494501D01*
X165016549Y-130506052D01*
X165016537Y-130506054D01*
X164965027Y-130517260D01*
X164862502Y-130551383D01*
X164862496Y-130551386D01*
X164741462Y-130629171D01*
X164741451Y-130629179D01*
X164688659Y-130674923D01*
X164594433Y-130783664D01*
X164594430Y-130783668D01*
X164534664Y-130914534D01*
X164514976Y-130981582D01*
X164494500Y-131124001D01*
X164494500Y-132170500D01*
X164474815Y-132237539D01*
X164422011Y-132283294D01*
X164370500Y-132294500D01*
X160335562Y-132294500D01*
X160268523Y-132274815D01*
X160222768Y-132222011D01*
X160222064Y-132220441D01*
X160211785Y-132197080D01*
X160211777Y-132197065D01*
X160159051Y-132111582D01*
X160146884Y-132085489D01*
X160136527Y-132054233D01*
X160130872Y-132027801D01*
X160130637Y-132025500D01*
X160130000Y-132012942D01*
X160130000Y-131277058D01*
X160130637Y-131264501D01*
X160130872Y-131262200D01*
X160136528Y-131235764D01*
X160138887Y-131228647D01*
X160146886Y-131204507D01*
X160159050Y-131178418D01*
X160211779Y-131092934D01*
X160267860Y-130965477D01*
X160286321Y-130900381D01*
X160305500Y-130762462D01*
X160305500Y-129605037D01*
X160286320Y-129467114D01*
X160267859Y-129402020D01*
X160211781Y-129274572D01*
X160159048Y-129189077D01*
X160146883Y-129162988D01*
X160136527Y-129131735D01*
X160130871Y-129105292D01*
X160130636Y-129102992D01*
X160130000Y-129090442D01*
X160130000Y-128354558D01*
X160130637Y-128342001D01*
X160130872Y-128339700D01*
X160136528Y-128313264D01*
X160146886Y-128282007D01*
X160159050Y-128255918D01*
X160211779Y-128170434D01*
X160267860Y-128042977D01*
X160286321Y-127977881D01*
X160296189Y-127906921D01*
X160324920Y-127843231D01*
X160383522Y-127805186D01*
X160419007Y-127800000D01*
X163200000Y-127800000D01*
X163200000Y-121524000D01*
X163219685Y-121456961D01*
X163272489Y-121411206D01*
X163324000Y-121400000D01*
X166526300Y-121400000D01*
X166593339Y-121419685D01*
G37*
%TD.AperFunction*%
%TD*%
%TA.AperFunction,Conductor*%
%TO.N,+BATT*%
G36*
X150543039Y-119419685D02*
G01*
X150588794Y-119472489D01*
X150600000Y-119524000D01*
X150600000Y-138200000D01*
X157545452Y-138200000D01*
X157612491Y-138219685D01*
X157636859Y-138240210D01*
X159494153Y-140266349D01*
X159800000Y-140600000D01*
X167676000Y-140600000D01*
X167743039Y-140619685D01*
X167788794Y-140672489D01*
X167800000Y-140724000D01*
X167800000Y-145500000D01*
X168115585Y-145500000D01*
X168182624Y-145519685D01*
X168196788Y-145530288D01*
X168283660Y-145605564D01*
X168283661Y-145605565D01*
X168283664Y-145605567D01*
X168283666Y-145605568D01*
X168283668Y-145605569D01*
X168377925Y-145648616D01*
X168414541Y-145665338D01*
X168481580Y-145685023D01*
X168481584Y-145685024D01*
X168624000Y-145705500D01*
X168624003Y-145705500D01*
X172175990Y-145705500D01*
X172176000Y-145705500D01*
X172283456Y-145693947D01*
X172334967Y-145682741D01*
X172369197Y-145671347D01*
X172437497Y-145648616D01*
X172437501Y-145648613D01*
X172437504Y-145648613D01*
X172558543Y-145570825D01*
X172611347Y-145525070D01*
X172705567Y-145416336D01*
X172765338Y-145285459D01*
X172785023Y-145218420D01*
X172785024Y-145218416D01*
X172805500Y-145076000D01*
X172805500Y-143124000D01*
X172825185Y-143056961D01*
X172877989Y-143011206D01*
X172929500Y-143000000D01*
X174800000Y-143000000D01*
X175216175Y-142445100D01*
X175272146Y-142403279D01*
X175315375Y-142395500D01*
X176228578Y-142395500D01*
X176228579Y-142395500D01*
X176403555Y-142367786D01*
X176572042Y-142313042D01*
X176729890Y-142232614D01*
X176742185Y-142223680D01*
X176807992Y-142200202D01*
X176815070Y-142200000D01*
X177354461Y-142200000D01*
X177410756Y-142213515D01*
X177507957Y-142263042D01*
X177507960Y-142263043D01*
X177537033Y-142272489D01*
X177676445Y-142317786D01*
X177851421Y-142345500D01*
X177851422Y-142345500D01*
X178028578Y-142345500D01*
X178028579Y-142345500D01*
X178203555Y-142317786D01*
X178372042Y-142263042D01*
X178449292Y-142223681D01*
X178469244Y-142213515D01*
X178525539Y-142200000D01*
X178676000Y-142200000D01*
X178743039Y-142219685D01*
X178788794Y-142272489D01*
X178800000Y-142324000D01*
X178800000Y-146875500D01*
X178780315Y-146942539D01*
X178727511Y-146988294D01*
X178676000Y-146999500D01*
X145324000Y-146999500D01*
X145256961Y-146979815D01*
X145211206Y-146927011D01*
X145200000Y-146875500D01*
X145200000Y-142349992D01*
X145744671Y-142349992D01*
X145744671Y-142350007D01*
X145763964Y-142644363D01*
X145763965Y-142644373D01*
X145763966Y-142644380D01*
X145763968Y-142644390D01*
X145821518Y-142933716D01*
X145821521Y-142933730D01*
X145916349Y-143213080D01*
X146046825Y-143477660D01*
X146046829Y-143477667D01*
X146210725Y-143722955D01*
X146405241Y-143944758D01*
X146627044Y-144139274D01*
X146750833Y-144221987D01*
X146872335Y-144303172D01*
X147136923Y-144433652D01*
X147416278Y-144528481D01*
X147705620Y-144586034D01*
X147733888Y-144587886D01*
X147999993Y-144605329D01*
X148000000Y-144605329D01*
X148000007Y-144605329D01*
X148235675Y-144589881D01*
X148294380Y-144586034D01*
X148583722Y-144528481D01*
X148863077Y-144433652D01*
X149127665Y-144303172D01*
X149372957Y-144139273D01*
X149594758Y-143944758D01*
X149789273Y-143722957D01*
X149953172Y-143477665D01*
X150051411Y-143278456D01*
X152745500Y-143278456D01*
X152745500Y-143521543D01*
X152745501Y-143521559D01*
X152777230Y-143762569D01*
X152840149Y-143997386D01*
X152933175Y-144221972D01*
X152933182Y-144221987D01*
X153054730Y-144432516D01*
X153202722Y-144625380D01*
X153202730Y-144625389D01*
X153374611Y-144797270D01*
X153374619Y-144797277D01*
X153567483Y-144945269D01*
X153778012Y-145066817D01*
X153778027Y-145066824D01*
X153894171Y-145114932D01*
X154002612Y-145159850D01*
X154237429Y-145222769D01*
X154478450Y-145254500D01*
X154478457Y-145254500D01*
X154721543Y-145254500D01*
X154721550Y-145254500D01*
X154962571Y-145222769D01*
X155197388Y-145159850D01*
X155421984Y-145066819D01*
X155632516Y-144945269D01*
X155825380Y-144797278D01*
X155825384Y-144797273D01*
X155825389Y-144797270D01*
X155997270Y-144625389D01*
X155997273Y-144625384D01*
X155997278Y-144625380D01*
X156145269Y-144432516D01*
X156266819Y-144221984D01*
X156359850Y-143997388D01*
X156422769Y-143762571D01*
X156454500Y-143521550D01*
X156454500Y-143278450D01*
X156422769Y-143037429D01*
X156359850Y-142802612D01*
X156266819Y-142578016D01*
X156266817Y-142578012D01*
X156145269Y-142367483D01*
X155997277Y-142174619D01*
X155997270Y-142174611D01*
X155825389Y-142002730D01*
X155825380Y-142002722D01*
X155632516Y-141854730D01*
X155421987Y-141733182D01*
X155421972Y-141733175D01*
X155197386Y-141640149D01*
X154962569Y-141577230D01*
X154721559Y-141545501D01*
X154721556Y-141545500D01*
X154721550Y-141545500D01*
X154478450Y-141545500D01*
X154478444Y-141545500D01*
X154478440Y-141545501D01*
X154237430Y-141577230D01*
X154002613Y-141640149D01*
X153778027Y-141733175D01*
X153778012Y-141733182D01*
X153567483Y-141854730D01*
X153374619Y-142002722D01*
X153202722Y-142174619D01*
X153054730Y-142367483D01*
X152933182Y-142578012D01*
X152933175Y-142578027D01*
X152840149Y-142802613D01*
X152777230Y-143037430D01*
X152745501Y-143278440D01*
X152745500Y-143278456D01*
X150051411Y-143278456D01*
X150083652Y-143213077D01*
X150178481Y-142933722D01*
X150236034Y-142644380D01*
X150244973Y-142508000D01*
X150255329Y-142350007D01*
X150255329Y-142349992D01*
X150236035Y-142055636D01*
X150236034Y-142055620D01*
X150178481Y-141766278D01*
X150083652Y-141486923D01*
X149953172Y-141222336D01*
X149789273Y-140977043D01*
X149746655Y-140928447D01*
X149594758Y-140755241D01*
X149372955Y-140560725D01*
X149127667Y-140396829D01*
X149127660Y-140396825D01*
X148863080Y-140266349D01*
X148583730Y-140171521D01*
X148583724Y-140171519D01*
X148583722Y-140171519D01*
X148294380Y-140113966D01*
X148294373Y-140113965D01*
X148294363Y-140113964D01*
X148000007Y-140094671D01*
X147999993Y-140094671D01*
X147705636Y-140113964D01*
X147705624Y-140113965D01*
X147705620Y-140113966D01*
X147705612Y-140113967D01*
X147705609Y-140113968D01*
X147416283Y-140171518D01*
X147416269Y-140171521D01*
X147136919Y-140266349D01*
X146872334Y-140396828D01*
X146627041Y-140560728D01*
X146405241Y-140755241D01*
X146210728Y-140977041D01*
X146046828Y-141222334D01*
X145916349Y-141486919D01*
X145821521Y-141766269D01*
X145821518Y-141766283D01*
X145763968Y-142055609D01*
X145763964Y-142055636D01*
X145744671Y-142349992D01*
X145200000Y-142349992D01*
X145200000Y-126999992D01*
X145744671Y-126999992D01*
X145744671Y-127000007D01*
X145763964Y-127294363D01*
X145763965Y-127294373D01*
X145763966Y-127294380D01*
X145763968Y-127294390D01*
X145821518Y-127583716D01*
X145821521Y-127583730D01*
X145916349Y-127863080D01*
X146046825Y-128127660D01*
X146046829Y-128127667D01*
X146210725Y-128372955D01*
X146405241Y-128594758D01*
X146627043Y-128789273D01*
X146872335Y-128953172D01*
X147136923Y-129083652D01*
X147416278Y-129178481D01*
X147705620Y-129236034D01*
X147733888Y-129237886D01*
X147999993Y-129255329D01*
X148000000Y-129255329D01*
X148000007Y-129255329D01*
X148235675Y-129239881D01*
X148294380Y-129236034D01*
X148583722Y-129178481D01*
X148863077Y-129083652D01*
X149127665Y-128953172D01*
X149372957Y-128789273D01*
X149594758Y-128594758D01*
X149789273Y-128372957D01*
X149953172Y-128127665D01*
X150083652Y-127863077D01*
X150178481Y-127583722D01*
X150236034Y-127294380D01*
X150242083Y-127202085D01*
X150255329Y-127000007D01*
X150255329Y-126999992D01*
X150236035Y-126705636D01*
X150236034Y-126705620D01*
X150178481Y-126416278D01*
X150083652Y-126136923D01*
X149953172Y-125872336D01*
X149789273Y-125627043D01*
X149746655Y-125578447D01*
X149594758Y-125405241D01*
X149372955Y-125210725D01*
X149127667Y-125046829D01*
X149127660Y-125046825D01*
X148863080Y-124916349D01*
X148583730Y-124821521D01*
X148583724Y-124821519D01*
X148583722Y-124821519D01*
X148294380Y-124763966D01*
X148294373Y-124763965D01*
X148294363Y-124763964D01*
X148000007Y-124744671D01*
X147999993Y-124744671D01*
X147705636Y-124763964D01*
X147705624Y-124763965D01*
X147705620Y-124763966D01*
X147705612Y-124763967D01*
X147705609Y-124763968D01*
X147416283Y-124821518D01*
X147416269Y-124821521D01*
X147136919Y-124916349D01*
X146872334Y-125046828D01*
X146627041Y-125210728D01*
X146405241Y-125405241D01*
X146210728Y-125627041D01*
X146046828Y-125872334D01*
X145916349Y-126136919D01*
X145821521Y-126416269D01*
X145821518Y-126416283D01*
X145763968Y-126705609D01*
X145763964Y-126705636D01*
X145744671Y-126999992D01*
X145200000Y-126999992D01*
X145200000Y-119524000D01*
X145219685Y-119456961D01*
X145272489Y-119411206D01*
X145324000Y-119400000D01*
X150476000Y-119400000D01*
X150543039Y-119419685D01*
G37*
%TD.AperFunction*%
%TD*%
%TA.AperFunction,Conductor*%
%TO.N,GND*%
G36*
X171817539Y-135419685D02*
G01*
X171863294Y-135472489D01*
X171874500Y-135524000D01*
X171874500Y-136643433D01*
X171854815Y-136710472D01*
X171850819Y-136716317D01*
X171837387Y-136734804D01*
X171837386Y-136734806D01*
X171756957Y-136892655D01*
X171702214Y-137061137D01*
X171690516Y-137134994D01*
X171660586Y-137198128D01*
X171601275Y-137235059D01*
X171565598Y-137239225D01*
X171565598Y-137239500D01*
X171563246Y-137239500D01*
X171563229Y-137239502D01*
X171563177Y-137239500D01*
X170236849Y-137239500D01*
X170236824Y-137239501D01*
X170201372Y-137242291D01*
X170049614Y-137286380D01*
X170049609Y-137286382D01*
X169913583Y-137366827D01*
X169913574Y-137366834D01*
X169801834Y-137478574D01*
X169801827Y-137478583D01*
X169721382Y-137614609D01*
X169721380Y-137614614D01*
X169677292Y-137766366D01*
X169677290Y-137766379D01*
X169674500Y-137801829D01*
X169674500Y-138178150D01*
X169674501Y-138178175D01*
X169677290Y-138213625D01*
X169677291Y-138213627D01*
X169696691Y-138280407D01*
X169696691Y-138349591D01*
X169677292Y-138416366D01*
X169677290Y-138416379D01*
X169674500Y-138451829D01*
X169674500Y-138828150D01*
X169674501Y-138828175D01*
X169677290Y-138863625D01*
X169677291Y-138863627D01*
X169696691Y-138930407D01*
X169696691Y-138999591D01*
X169677292Y-139066366D01*
X169677290Y-139066379D01*
X169674500Y-139101829D01*
X169674500Y-139478150D01*
X169674501Y-139478175D01*
X169677290Y-139513624D01*
X169721381Y-139665389D01*
X169721382Y-139665390D01*
X169782732Y-139769128D01*
X169800000Y-139832247D01*
X169800000Y-140100000D01*
X171170403Y-140100000D01*
X171237442Y-140119685D01*
X171283197Y-140172489D01*
X171292876Y-140204601D01*
X171302214Y-140263556D01*
X171356958Y-140432042D01*
X171391585Y-140500000D01*
X171437386Y-140589889D01*
X171541517Y-140733214D01*
X172263681Y-141455378D01*
X172297166Y-141516701D01*
X172300000Y-141543059D01*
X172300000Y-145076000D01*
X172280315Y-145143039D01*
X172227511Y-145188794D01*
X172176000Y-145200000D01*
X168624000Y-145200000D01*
X168556961Y-145180315D01*
X168511206Y-145127511D01*
X168500000Y-145076000D01*
X168500000Y-140500000D01*
X167836319Y-139836319D01*
X167802834Y-139774996D01*
X167800000Y-139748638D01*
X167800000Y-139609438D01*
X167804924Y-139574842D01*
X167810269Y-139556445D01*
X167822709Y-139513627D01*
X167825500Y-139478163D01*
X167825499Y-139101838D01*
X167822709Y-139066373D01*
X167804924Y-139005157D01*
X167800000Y-138970562D01*
X167800000Y-138959437D01*
X167804924Y-138924841D01*
X167822709Y-138863627D01*
X167825500Y-138828163D01*
X167825499Y-138451838D01*
X167822709Y-138416373D01*
X167804924Y-138355157D01*
X167800000Y-138320562D01*
X167800000Y-138309437D01*
X167804924Y-138274841D01*
X167822709Y-138213627D01*
X167825500Y-138178163D01*
X167825499Y-137801838D01*
X167822709Y-137766373D01*
X167804924Y-137705157D01*
X167800000Y-137670562D01*
X167800000Y-137659437D01*
X167804924Y-137624841D01*
X167822709Y-137563627D01*
X167825500Y-137528163D01*
X167825499Y-137151838D01*
X167822709Y-137116373D01*
X167813519Y-137084740D01*
X167804923Y-137055151D01*
X167800000Y-137020558D01*
X167800000Y-135524000D01*
X167819685Y-135456961D01*
X167872489Y-135411206D01*
X167924000Y-135400000D01*
X171750500Y-135400000D01*
X171817539Y-135419685D01*
G37*
%TD.AperFunction*%
%TD*%
%TA.AperFunction,Conductor*%
%TO.N,M5_IN+*%
G36*
X213343039Y-85019685D02*
G01*
X213388794Y-85072489D01*
X213400000Y-85124000D01*
X213400000Y-105676000D01*
X213380315Y-105743039D01*
X213327511Y-105788794D01*
X213276000Y-105800000D01*
X210626289Y-105800000D01*
X210560315Y-105780993D01*
X210549521Y-105774210D01*
X210379254Y-105714631D01*
X210379249Y-105714630D01*
X210200004Y-105694435D01*
X210199996Y-105694435D01*
X210020750Y-105714630D01*
X210020745Y-105714631D01*
X209850478Y-105774210D01*
X209839685Y-105780993D01*
X209773711Y-105800000D01*
X206246524Y-105800000D01*
X206179485Y-105780315D01*
X206158843Y-105763681D01*
X206136319Y-105741157D01*
X206102834Y-105679834D01*
X206100000Y-105653476D01*
X206100000Y-104100000D01*
X205812730Y-104100000D01*
X205745691Y-104080315D01*
X205725049Y-104063681D01*
X205618657Y-103957289D01*
X205618656Y-103957288D01*
X205469334Y-103865186D01*
X205302797Y-103810001D01*
X205298965Y-103809609D01*
X205286894Y-103808376D01*
X205222203Y-103781978D01*
X205182053Y-103724796D01*
X205175500Y-103685018D01*
X205175500Y-102424000D01*
X205195185Y-102356961D01*
X205247989Y-102311206D01*
X205299500Y-102300000D01*
X207800000Y-102300000D01*
X207800000Y-99524000D01*
X207819685Y-99456961D01*
X207872489Y-99411206D01*
X207924000Y-99400000D01*
X210000000Y-99400000D01*
X210000000Y-99364913D01*
X210019685Y-99297874D01*
X210072489Y-99252119D01*
X210115886Y-99241178D01*
X210194380Y-99236034D01*
X210483722Y-99178481D01*
X210763077Y-99083652D01*
X211027665Y-98953172D01*
X211272957Y-98789273D01*
X211494758Y-98594758D01*
X211689273Y-98372957D01*
X211853172Y-98127665D01*
X211983652Y-97863077D01*
X212078481Y-97583722D01*
X212136034Y-97294380D01*
X212155329Y-97000000D01*
X212155329Y-96999992D01*
X212136035Y-96705636D01*
X212136034Y-96705620D01*
X212078481Y-96416278D01*
X211983652Y-96136923D01*
X211853172Y-95872336D01*
X211689273Y-95627043D01*
X211646655Y-95578447D01*
X211494758Y-95405241D01*
X211272955Y-95210725D01*
X211027667Y-95046829D01*
X211027660Y-95046825D01*
X210763080Y-94916349D01*
X210483730Y-94821521D01*
X210483724Y-94821519D01*
X210483722Y-94821519D01*
X210194380Y-94763966D01*
X210194373Y-94763965D01*
X210194363Y-94763964D01*
X210115889Y-94758820D01*
X210050280Y-94734793D01*
X210008078Y-94679109D01*
X210000000Y-94635086D01*
X210000000Y-90402663D01*
X210005614Y-90365774D01*
X210021719Y-90314090D01*
X210056586Y-90202196D01*
X210063000Y-90131616D01*
X210063000Y-89468384D01*
X210056586Y-89397804D01*
X210005978Y-89235394D01*
X210005977Y-89235393D01*
X210005614Y-89234226D01*
X210000000Y-89197337D01*
X210000000Y-88519125D01*
X210018461Y-88454029D01*
X210075049Y-88362287D01*
X210127936Y-88202685D01*
X210138000Y-88104174D01*
X210138000Y-87495826D01*
X210127936Y-87397315D01*
X210075049Y-87237713D01*
X210075045Y-87237707D01*
X210075044Y-87237704D01*
X210018462Y-87145971D01*
X210000000Y-87080874D01*
X210000000Y-86519125D01*
X210018461Y-86454029D01*
X210075049Y-86362287D01*
X210127936Y-86202685D01*
X210138000Y-86104174D01*
X210138000Y-85495826D01*
X210127936Y-85397315D01*
X210075049Y-85237713D01*
X210045061Y-85189095D01*
X210026621Y-85121706D01*
X210047543Y-85055042D01*
X210101184Y-85010272D01*
X210150600Y-85000000D01*
X213276000Y-85000000D01*
X213343039Y-85019685D01*
G37*
%TD.AperFunction*%
%TD*%
%TA.AperFunction,Conductor*%
%TO.N,M6_IN+*%
G36*
X211792539Y-114819685D02*
G01*
X211838294Y-114872489D01*
X211849500Y-114924000D01*
X211849500Y-119079190D01*
X211829815Y-119146229D01*
X211813181Y-119166871D01*
X211732873Y-119247179D01*
X211704251Y-119268530D01*
X209920864Y-120234532D01*
X209861805Y-120249500D01*
X208928823Y-120249500D01*
X208803155Y-120274497D01*
X208803145Y-120274500D01*
X208754114Y-120294810D01*
X208684775Y-120323530D01*
X208684757Y-120323540D01*
X208578226Y-120394721D01*
X208578219Y-120394727D01*
X207394726Y-121578220D01*
X207330785Y-121673917D01*
X207330783Y-121673919D01*
X207323537Y-121684762D01*
X207323534Y-121684768D01*
X207274499Y-121803149D01*
X207274497Y-121803155D01*
X207249500Y-121928822D01*
X207249500Y-123925500D01*
X207229815Y-123992539D01*
X207177011Y-124038294D01*
X207125500Y-124049500D01*
X205924000Y-124049500D01*
X205856961Y-124029815D01*
X205811206Y-123977011D01*
X205800000Y-123925500D01*
X205800000Y-122294721D01*
X205806294Y-122255717D01*
X205840436Y-122152685D01*
X205850500Y-122054174D01*
X205850500Y-121445826D01*
X205840436Y-121347315D01*
X205820906Y-121288379D01*
X205806294Y-121244280D01*
X205800000Y-121205277D01*
X205800000Y-120594721D01*
X205806294Y-120555717D01*
X205840436Y-120452685D01*
X205850500Y-120354174D01*
X205850500Y-119745826D01*
X205840436Y-119647315D01*
X205820906Y-119588379D01*
X205806294Y-119544280D01*
X205800000Y-119505277D01*
X205800000Y-119200000D01*
X205573860Y-119200000D01*
X205508763Y-119181538D01*
X205437287Y-119137451D01*
X205277685Y-119084564D01*
X205277683Y-119084563D01*
X205179181Y-119074500D01*
X205179174Y-119074500D01*
X205124310Y-119074500D01*
X205100118Y-119072117D01*
X204986420Y-119049500D01*
X204986418Y-119049500D01*
X204924000Y-119049500D01*
X204856961Y-119029815D01*
X204811206Y-118977011D01*
X204800000Y-118925500D01*
X204800000Y-117624000D01*
X204819685Y-117556961D01*
X204872489Y-117511206D01*
X204924000Y-117500000D01*
X207800000Y-117500000D01*
X207800000Y-114924000D01*
X207819685Y-114856961D01*
X207872489Y-114811206D01*
X207924000Y-114800000D01*
X211725500Y-114800000D01*
X211792539Y-114819685D01*
G37*
%TD.AperFunction*%
%TD*%
%TA.AperFunction,Conductor*%
%TO.N,M3_IN+*%
G36*
X179753683Y-92023202D02*
G01*
X184099900Y-92037500D01*
X184100000Y-92037500D01*
X188276000Y-92037500D01*
X188343039Y-92057185D01*
X188388794Y-92109989D01*
X188400000Y-92161500D01*
X188400000Y-98814124D01*
X188380315Y-98881163D01*
X188344890Y-98917226D01*
X188247616Y-98982221D01*
X188247609Y-98982227D01*
X187828657Y-99401181D01*
X187767334Y-99434666D01*
X187740976Y-99437500D01*
X186200000Y-99437500D01*
X186200000Y-100039057D01*
X186181539Y-100104153D01*
X186165189Y-100130659D01*
X186165186Y-100130666D01*
X186110001Y-100297203D01*
X186110001Y-100297204D01*
X186110000Y-100297204D01*
X186099500Y-100399983D01*
X186099500Y-100413500D01*
X186079815Y-100480539D01*
X186027011Y-100526294D01*
X185975500Y-100537500D01*
X184624000Y-100537500D01*
X184556961Y-100517815D01*
X184511206Y-100465011D01*
X184500000Y-100413500D01*
X184500000Y-98237500D01*
X183424500Y-98237500D01*
X183357461Y-98217815D01*
X183311706Y-98165011D01*
X183300500Y-98113500D01*
X183300500Y-96651268D01*
X183300499Y-96651266D01*
X183265667Y-96476151D01*
X183267391Y-96475808D01*
X183266839Y-96414275D01*
X183274910Y-96393301D01*
X183283652Y-96375577D01*
X183378481Y-96096222D01*
X183436034Y-95806880D01*
X183455329Y-95512500D01*
X183455329Y-95512492D01*
X183436035Y-95218136D01*
X183436034Y-95218120D01*
X183378481Y-94928778D01*
X183283652Y-94649423D01*
X183153172Y-94384836D01*
X182989273Y-94139543D01*
X182946655Y-94090947D01*
X182794758Y-93917741D01*
X182572955Y-93723225D01*
X182327667Y-93559329D01*
X182327660Y-93559325D01*
X182063080Y-93428849D01*
X181783730Y-93334021D01*
X181783724Y-93334019D01*
X181783722Y-93334019D01*
X181494380Y-93276466D01*
X181494373Y-93276465D01*
X181494363Y-93276464D01*
X181200007Y-93257171D01*
X181199993Y-93257171D01*
X180905636Y-93276464D01*
X180905624Y-93276465D01*
X180905620Y-93276466D01*
X180905612Y-93276467D01*
X180905609Y-93276468D01*
X180616283Y-93334018D01*
X180616269Y-93334021D01*
X180336919Y-93428849D01*
X180072334Y-93559328D01*
X179827041Y-93723228D01*
X179605241Y-93917741D01*
X179410728Y-94139541D01*
X179246828Y-94384834D01*
X179116349Y-94649419D01*
X179021521Y-94928769D01*
X179021518Y-94928783D01*
X178963968Y-95218109D01*
X178963964Y-95218136D01*
X178944671Y-95512492D01*
X178944671Y-95512507D01*
X178963964Y-95806863D01*
X178963965Y-95806873D01*
X178963966Y-95806880D01*
X178963968Y-95806890D01*
X179021518Y-96096216D01*
X179021521Y-96096230D01*
X179116349Y-96375580D01*
X179246825Y-96640160D01*
X179246829Y-96640167D01*
X179410725Y-96885455D01*
X179605241Y-97107258D01*
X179827043Y-97301773D01*
X180072335Y-97465672D01*
X180336923Y-97596152D01*
X180616278Y-97690981D01*
X180905620Y-97748534D01*
X180933888Y-97750386D01*
X181199993Y-97767829D01*
X181200000Y-97767829D01*
X181200006Y-97767829D01*
X181316714Y-97760179D01*
X181417390Y-97753580D01*
X181485573Y-97768837D01*
X181534684Y-97818535D01*
X181549500Y-97877314D01*
X181549500Y-98225270D01*
X181529815Y-98292309D01*
X181513181Y-98312951D01*
X181507289Y-98318842D01*
X181415187Y-98468163D01*
X181415186Y-98468166D01*
X181360001Y-98634703D01*
X181360001Y-98634704D01*
X181360000Y-98634704D01*
X181349500Y-98737483D01*
X181349500Y-99610375D01*
X181329815Y-99677414D01*
X181277011Y-99723169D01*
X181224926Y-99734374D01*
X181032023Y-99733481D01*
X180993594Y-99727188D01*
X180902688Y-99697065D01*
X180902685Y-99697064D01*
X180902680Y-99697063D01*
X180902678Y-99697063D01*
X180804181Y-99687000D01*
X180804174Y-99687000D01*
X180195826Y-99687000D01*
X180195818Y-99687000D01*
X180097310Y-99697064D01*
X180021079Y-99722324D01*
X179981503Y-99728617D01*
X179307936Y-99725499D01*
X179269506Y-99719206D01*
X179202686Y-99697064D01*
X179104181Y-99687000D01*
X179104174Y-99687000D01*
X178495826Y-99687000D01*
X178495818Y-99687000D01*
X178397313Y-99697064D01*
X178344506Y-99714563D01*
X178304928Y-99720856D01*
X176623426Y-99713071D01*
X176556478Y-99693076D01*
X176510968Y-99640061D01*
X176500000Y-99589072D01*
X176500000Y-92136908D01*
X176519685Y-92069869D01*
X176572489Y-92024114D01*
X176624406Y-92012909D01*
X179753683Y-92023202D01*
G37*
%TD.AperFunction*%
%TD*%
%TA.AperFunction,Conductor*%
%TO.N,GND*%
G36*
X191526668Y-113519685D02*
G01*
X191572423Y-113572489D01*
X191573063Y-113573914D01*
X191617944Y-113675561D01*
X191617945Y-113675562D01*
X191697386Y-113755003D01*
X191800160Y-113800382D01*
X191825286Y-113803297D01*
X193324715Y-113803296D01*
X193324730Y-113803294D01*
X193324733Y-113803294D01*
X193349838Y-113800383D01*
X193349842Y-113800382D01*
X193382272Y-113786063D01*
X193432358Y-113775497D01*
X193550321Y-113775497D01*
X193617360Y-113795182D01*
X193648696Y-113824010D01*
X193690340Y-113878282D01*
X193815781Y-113974536D01*
X193961860Y-114035044D01*
X194118622Y-114055682D01*
X194159816Y-114050258D01*
X194228848Y-114061023D01*
X194281105Y-114107402D01*
X194300000Y-114173197D01*
X194300000Y-114811535D01*
X194280315Y-114878574D01*
X194263681Y-114899216D01*
X193339513Y-115823383D01*
X193339509Y-115823389D01*
X193280201Y-115926112D01*
X193280200Y-115926117D01*
X193249500Y-116040691D01*
X193249500Y-116375500D01*
X193229815Y-116442539D01*
X193177011Y-116488294D01*
X193125500Y-116499500D01*
X192776923Y-116499500D01*
X192774038Y-116499635D01*
X192774037Y-116499614D01*
X192765802Y-116500000D01*
X192034198Y-116500000D01*
X192025962Y-116499614D01*
X192025962Y-116499635D01*
X192023077Y-116499500D01*
X192023066Y-116499500D01*
X191576934Y-116499500D01*
X191576923Y-116499500D01*
X191574038Y-116499635D01*
X191574037Y-116499614D01*
X191565802Y-116500000D01*
X191565265Y-116500000D01*
X191498226Y-116480315D01*
X191452471Y-116427511D01*
X191442527Y-116358353D01*
X191450704Y-116328548D01*
X191507805Y-116190691D01*
X191512180Y-116180130D01*
X191532818Y-116023368D01*
X191512180Y-115866606D01*
X191451672Y-115720527D01*
X191355418Y-115595086D01*
X191229977Y-115498832D01*
X191083898Y-115438324D01*
X191083896Y-115438323D01*
X190927138Y-115417686D01*
X190924000Y-115417686D01*
X190921449Y-115416937D01*
X190919079Y-115416625D01*
X190919127Y-115416255D01*
X190856961Y-115398001D01*
X190811206Y-115345197D01*
X190800000Y-115293686D01*
X190800000Y-115284197D01*
X190800385Y-115275962D01*
X190800365Y-115275962D01*
X190800500Y-115273076D01*
X190800500Y-114826925D01*
X190800365Y-114824041D01*
X190800384Y-114824040D01*
X190800000Y-114815800D01*
X190800000Y-114700001D01*
X190800000Y-114700000D01*
X190755964Y-114589910D01*
X190751326Y-114575970D01*
X190732984Y-114507515D01*
X190704945Y-114458950D01*
X190697200Y-114443001D01*
X190659369Y-114348422D01*
X190650500Y-114302370D01*
X190650500Y-113624500D01*
X190670185Y-113557461D01*
X190722989Y-113511706D01*
X190774500Y-113500500D01*
X191223077Y-113500500D01*
X191225962Y-113500365D01*
X191225962Y-113500385D01*
X191234198Y-113500000D01*
X191459629Y-113500000D01*
X191526668Y-113519685D01*
G37*
%TD.AperFunction*%
%TD*%
%TA.AperFunction,Conductor*%
%TO.N,M4_IN+*%
G36*
X203643039Y-92257185D02*
G01*
X203688794Y-92309989D01*
X203700000Y-92361500D01*
X203700000Y-97476519D01*
X203680315Y-97543558D01*
X203651703Y-97574728D01*
X203100000Y-97999999D01*
X203100000Y-100228691D01*
X203080315Y-100295730D01*
X203063681Y-100316372D01*
X202888475Y-100491578D01*
X202888472Y-100491582D01*
X202847989Y-100552168D01*
X202847990Y-100552169D01*
X202817284Y-100598124D01*
X202768249Y-100716505D01*
X202768247Y-100716511D01*
X202743250Y-100842178D01*
X202743250Y-102013000D01*
X202723565Y-102080039D01*
X202670761Y-102125794D01*
X202619250Y-102137000D01*
X202237133Y-102137000D01*
X202234337Y-102137127D01*
X202234336Y-102137123D01*
X202226013Y-102137500D01*
X201285438Y-102137500D01*
X201237973Y-102126977D01*
X201237892Y-102127223D01*
X201235491Y-102126427D01*
X201233035Y-102125883D01*
X201231037Y-102124951D01*
X201202603Y-102115529D01*
X201071435Y-102072064D01*
X201071433Y-102072063D01*
X200972931Y-102062000D01*
X200972924Y-102062000D01*
X200364576Y-102062000D01*
X200364568Y-102062000D01*
X200266066Y-102072063D01*
X200266065Y-102072064D01*
X200186264Y-102098507D01*
X200106462Y-102124951D01*
X200104465Y-102125883D01*
X200102008Y-102126427D01*
X200099608Y-102127223D01*
X200099526Y-102126977D01*
X200052062Y-102137500D01*
X199385438Y-102137500D01*
X199337973Y-102126977D01*
X199337892Y-102127223D01*
X199335491Y-102126427D01*
X199333035Y-102125883D01*
X199331037Y-102124951D01*
X199302603Y-102115529D01*
X199171435Y-102072064D01*
X199171433Y-102072063D01*
X199072931Y-102062000D01*
X199072924Y-102062000D01*
X198464576Y-102062000D01*
X198464563Y-102062000D01*
X198412101Y-102067360D01*
X198343408Y-102054590D01*
X198292524Y-102006709D01*
X198275500Y-101944002D01*
X198275500Y-101214006D01*
X198295185Y-101146967D01*
X198311819Y-101126325D01*
X198705042Y-100733102D01*
X198705045Y-100733099D01*
X198800858Y-100589705D01*
X198856259Y-100455953D01*
X198883134Y-100415732D01*
X198942712Y-100356156D01*
X199034814Y-100206834D01*
X199089999Y-100040297D01*
X199100500Y-99937509D01*
X199100499Y-98537492D01*
X199089999Y-98434703D01*
X199034814Y-98268166D01*
X198942712Y-98118844D01*
X198936819Y-98112951D01*
X198903334Y-98051628D01*
X198900500Y-98025270D01*
X198900500Y-96776268D01*
X198900499Y-96776266D01*
X198866856Y-96607133D01*
X198866855Y-96607126D01*
X198849472Y-96565160D01*
X198800861Y-96447801D01*
X198800854Y-96447788D01*
X198723971Y-96332725D01*
X198703093Y-96266048D01*
X198709653Y-96223978D01*
X198778481Y-96021222D01*
X198836034Y-95731880D01*
X198855329Y-95437500D01*
X198855329Y-95437492D01*
X198836035Y-95143136D01*
X198836034Y-95143120D01*
X198778481Y-94853778D01*
X198683652Y-94574423D01*
X198553172Y-94309836D01*
X198389273Y-94064543D01*
X198346655Y-94015947D01*
X198194758Y-93842741D01*
X197972955Y-93648225D01*
X197727667Y-93484329D01*
X197727660Y-93484325D01*
X197463080Y-93353849D01*
X197183730Y-93259021D01*
X197183724Y-93259019D01*
X197183722Y-93259019D01*
X196894380Y-93201466D01*
X196894373Y-93201465D01*
X196894363Y-93201464D01*
X196600007Y-93182171D01*
X196599993Y-93182171D01*
X196305636Y-93201464D01*
X196305624Y-93201465D01*
X196305620Y-93201466D01*
X196305612Y-93201467D01*
X196305609Y-93201468D01*
X196016283Y-93259018D01*
X196016269Y-93259021D01*
X195736919Y-93353849D01*
X195472334Y-93484328D01*
X195227041Y-93648228D01*
X195005241Y-93842741D01*
X194810728Y-94064541D01*
X194646828Y-94309834D01*
X194516349Y-94574419D01*
X194421521Y-94853769D01*
X194421518Y-94853783D01*
X194363968Y-95143109D01*
X194363964Y-95143136D01*
X194344671Y-95437492D01*
X194344671Y-95437507D01*
X194363964Y-95731863D01*
X194363965Y-95731873D01*
X194363966Y-95731880D01*
X194363968Y-95731890D01*
X194421518Y-96021216D01*
X194421521Y-96021230D01*
X194516349Y-96300580D01*
X194646825Y-96565160D01*
X194646829Y-96565167D01*
X194810725Y-96810455D01*
X195005241Y-97032258D01*
X195227043Y-97226773D01*
X195472335Y-97390672D01*
X195736923Y-97521152D01*
X196016278Y-97615981D01*
X196305620Y-97673534D01*
X196333888Y-97675386D01*
X196599993Y-97692829D01*
X196600000Y-97692829D01*
X196600007Y-97692829D01*
X196835675Y-97677381D01*
X196894380Y-97673534D01*
X197001311Y-97652264D01*
X197070900Y-97658491D01*
X197126077Y-97701354D01*
X197149322Y-97767243D01*
X197149500Y-97773881D01*
X197149500Y-98025270D01*
X197129815Y-98092309D01*
X197113181Y-98112951D01*
X197107289Y-98118842D01*
X197015187Y-98268163D01*
X197015186Y-98268166D01*
X196960001Y-98434703D01*
X196960001Y-98434704D01*
X196960000Y-98434704D01*
X196949500Y-98537483D01*
X196949500Y-99613500D01*
X196929815Y-99680539D01*
X196877011Y-99726294D01*
X196825500Y-99737500D01*
X196511223Y-99737500D01*
X196503169Y-99737089D01*
X196503166Y-99737161D01*
X196500014Y-99737000D01*
X196500009Y-99737000D01*
X196500003Y-99737000D01*
X195499998Y-99737000D01*
X195496836Y-99737162D01*
X195496832Y-99737090D01*
X195488789Y-99737500D01*
X195271308Y-99737500D01*
X195204269Y-99717815D01*
X195183631Y-99701185D01*
X195114669Y-99632223D01*
X195086648Y-99613500D01*
X195055109Y-99592426D01*
X195010304Y-99538813D01*
X195000000Y-99489324D01*
X195000000Y-99199963D01*
X195004923Y-99165371D01*
X195035209Y-99061127D01*
X195038000Y-99025663D01*
X195037999Y-98649338D01*
X195035209Y-98613873D01*
X195004924Y-98509630D01*
X195000000Y-98475035D01*
X195000000Y-97837500D01*
X193224000Y-97837500D01*
X193156961Y-97817815D01*
X193111206Y-97765011D01*
X193100000Y-97713500D01*
X193100000Y-92361500D01*
X193119685Y-92294461D01*
X193172489Y-92248706D01*
X193224000Y-92237500D01*
X203576000Y-92237500D01*
X203643039Y-92257185D01*
G37*
%TD.AperFunction*%
%TD*%
%TA.AperFunction,Conductor*%
%TO.N,M2_IN+*%
G36*
X175846104Y-92039977D02*
G01*
X175913140Y-92059674D01*
X175958885Y-92112486D01*
X175970081Y-92163895D01*
X175974918Y-99513418D01*
X175955278Y-99580471D01*
X175902504Y-99626260D01*
X175850918Y-99637500D01*
X170400000Y-99637500D01*
X170400000Y-100413500D01*
X170380315Y-100480539D01*
X170327511Y-100526294D01*
X170276000Y-100537500D01*
X169339506Y-100537500D01*
X169272467Y-100517815D01*
X169251825Y-100501181D01*
X168061818Y-99311174D01*
X168028333Y-99249851D01*
X168025499Y-99223493D01*
X168025499Y-98737498D01*
X168025498Y-98737481D01*
X168014999Y-98634703D01*
X168014998Y-98634700D01*
X167959814Y-98468166D01*
X167867712Y-98318844D01*
X167861819Y-98312951D01*
X167828334Y-98251628D01*
X167825500Y-98225270D01*
X167825500Y-96623800D01*
X167838288Y-96568956D01*
X167933652Y-96375577D01*
X168028481Y-96096222D01*
X168086034Y-95806880D01*
X168105329Y-95512500D01*
X168105329Y-95512492D01*
X168086035Y-95218136D01*
X168086034Y-95218120D01*
X168028481Y-94928778D01*
X167933652Y-94649423D01*
X167803172Y-94384836D01*
X167639273Y-94139543D01*
X167596655Y-94090947D01*
X167444758Y-93917741D01*
X167222955Y-93723225D01*
X166977667Y-93559329D01*
X166977660Y-93559325D01*
X166713080Y-93428849D01*
X166433730Y-93334021D01*
X166433724Y-93334019D01*
X166433722Y-93334019D01*
X166144380Y-93276466D01*
X166144373Y-93276465D01*
X166144363Y-93276464D01*
X165850007Y-93257171D01*
X165849993Y-93257171D01*
X165555636Y-93276464D01*
X165555624Y-93276465D01*
X165555620Y-93276466D01*
X165555612Y-93276467D01*
X165555609Y-93276468D01*
X165266283Y-93334018D01*
X165266269Y-93334021D01*
X164986919Y-93428849D01*
X164722334Y-93559328D01*
X164477041Y-93723228D01*
X164255241Y-93917741D01*
X164060728Y-94139541D01*
X163896828Y-94384834D01*
X163766349Y-94649419D01*
X163671521Y-94928769D01*
X163671518Y-94928783D01*
X163613968Y-95218109D01*
X163613964Y-95218136D01*
X163594671Y-95512492D01*
X163594671Y-95512507D01*
X163613964Y-95806863D01*
X163613965Y-95806873D01*
X163613966Y-95806880D01*
X163613968Y-95806890D01*
X163671518Y-96096216D01*
X163671521Y-96096230D01*
X163766349Y-96375580D01*
X163896825Y-96640160D01*
X163896829Y-96640167D01*
X164060725Y-96885455D01*
X164255241Y-97107258D01*
X164477044Y-97301774D01*
X164722332Y-97465670D01*
X164722335Y-97465672D01*
X164986923Y-97596152D01*
X165266278Y-97690981D01*
X165555620Y-97748534D01*
X165583888Y-97750386D01*
X165849993Y-97767829D01*
X165850000Y-97767829D01*
X165850007Y-97767829D01*
X165905697Y-97764178D01*
X165942390Y-97761773D01*
X166010572Y-97777030D01*
X166059683Y-97826728D01*
X166074500Y-97885507D01*
X166074500Y-98225270D01*
X166054815Y-98292309D01*
X166038181Y-98312951D01*
X166032289Y-98318842D01*
X165940187Y-98468163D01*
X165940185Y-98468168D01*
X165933907Y-98487114D01*
X165885001Y-98634703D01*
X165885001Y-98634704D01*
X165885000Y-98634704D01*
X165874500Y-98737483D01*
X165874500Y-99707058D01*
X165854815Y-99774097D01*
X165802011Y-99819852D01*
X165732853Y-99829796D01*
X165685406Y-99812599D01*
X165675553Y-99806522D01*
X165669334Y-99802686D01*
X165502797Y-99747501D01*
X165502795Y-99747500D01*
X165400010Y-99737000D01*
X164399998Y-99737000D01*
X164399980Y-99737001D01*
X164297203Y-99747500D01*
X164297196Y-99747502D01*
X164244176Y-99765071D01*
X164174347Y-99767472D01*
X164117493Y-99735047D01*
X164039669Y-99657223D01*
X163933127Y-99586035D01*
X163933128Y-99586035D01*
X163933126Y-99586034D01*
X163855982Y-99554080D01*
X163801579Y-99510238D01*
X163779515Y-99443944D01*
X163796704Y-99376398D01*
X163798168Y-99373921D01*
X163798170Y-99373920D01*
X163878618Y-99237890D01*
X163922709Y-99086127D01*
X163925500Y-99050663D01*
X163925499Y-98674338D01*
X163922709Y-98638873D01*
X163878618Y-98487110D01*
X163798170Y-98351080D01*
X163798168Y-98351078D01*
X163798165Y-98351074D01*
X163686425Y-98239334D01*
X163686416Y-98239327D01*
X163550390Y-98158882D01*
X163550384Y-98158880D01*
X163482233Y-98139080D01*
X163423347Y-98101474D01*
X163394141Y-98038001D01*
X163393608Y-98006120D01*
X163405565Y-97900002D01*
X163405565Y-97899996D01*
X163385369Y-97720750D01*
X163385368Y-97720745D01*
X163325788Y-97550476D01*
X163272502Y-97465672D01*
X163229816Y-97397738D01*
X163102262Y-97270184D01*
X162949523Y-97174211D01*
X162779254Y-97114631D01*
X162779250Y-97114630D01*
X162610116Y-97095574D01*
X162545702Y-97068507D01*
X162506147Y-97010913D01*
X162500000Y-96972354D01*
X162500000Y-92161523D01*
X162519685Y-92094484D01*
X162572489Y-92048729D01*
X162624022Y-92037523D01*
X175846104Y-92039977D01*
G37*
%TD.AperFunction*%
%TD*%
%TA.AperFunction,Conductor*%
%TO.N,Net-(C20-Pad2)*%
G36*
X173943039Y-131019685D02*
G01*
X173988794Y-131072489D01*
X174000000Y-131124000D01*
X174000000Y-131424807D01*
X173980650Y-131490702D01*
X173980823Y-131490809D01*
X173980434Y-131491438D01*
X173980315Y-131491846D01*
X173979345Y-131493204D01*
X173888001Y-131641294D01*
X173887996Y-131641305D01*
X173834651Y-131802290D01*
X173824500Y-131901647D01*
X173824500Y-132498337D01*
X173824501Y-132498355D01*
X173834650Y-132597707D01*
X173834651Y-132597710D01*
X173835410Y-132600000D01*
X173887997Y-132758697D01*
X173887998Y-132758698D01*
X173895010Y-132770067D01*
X173913450Y-132837459D01*
X173892528Y-132904123D01*
X173877154Y-132922844D01*
X173800000Y-133000000D01*
X173800000Y-134175500D01*
X173780315Y-134242539D01*
X173727511Y-134288294D01*
X173676000Y-134299500D01*
X173351786Y-134299500D01*
X173313468Y-134293431D01*
X173263557Y-134277214D01*
X173176067Y-134263357D01*
X173088579Y-134249500D01*
X172911421Y-134249500D01*
X172853095Y-134258738D01*
X172736442Y-134277214D01*
X172736439Y-134277214D01*
X172582559Y-134327214D01*
X172582556Y-134327215D01*
X172567958Y-134331957D01*
X172567957Y-134331957D01*
X172410109Y-134412386D01*
X172341291Y-134462386D01*
X172266786Y-134516517D01*
X172266784Y-134516519D01*
X172266783Y-134516519D01*
X172219622Y-134563681D01*
X172158299Y-134597166D01*
X172131941Y-134600000D01*
X172028017Y-134600000D01*
X171974705Y-134587955D01*
X167800000Y-132600000D01*
X167799999Y-132600000D01*
X165124000Y-132600000D01*
X165056961Y-132580315D01*
X165011206Y-132527511D01*
X165000000Y-132476000D01*
X165000000Y-131124000D01*
X165019685Y-131056961D01*
X165072489Y-131011206D01*
X165124000Y-131000000D01*
X173876000Y-131000000D01*
X173943039Y-131019685D01*
G37*
%TD.AperFunction*%
%TD*%
%TA.AperFunction,Conductor*%
%TO.N,M1_IN+*%
G36*
X157743039Y-93257185D02*
G01*
X157788794Y-93309989D01*
X157800000Y-93361500D01*
X157800000Y-97460863D01*
X157780315Y-97527902D01*
X157731455Y-97571772D01*
X157200000Y-97837499D01*
X157200000Y-98897588D01*
X157180315Y-98964627D01*
X157144893Y-99000688D01*
X157135120Y-99007218D01*
X157135111Y-99007225D01*
X156719726Y-99422610D01*
X156719723Y-99422615D01*
X156679782Y-99482391D01*
X156626172Y-99527195D01*
X156576681Y-99537500D01*
X155500000Y-99537500D01*
X155500000Y-99619533D01*
X155480315Y-99686572D01*
X155427511Y-99732327D01*
X155415008Y-99737237D01*
X155392712Y-99744626D01*
X155330666Y-99765186D01*
X155330663Y-99765187D01*
X155181342Y-99857289D01*
X155057289Y-99981342D01*
X154965187Y-100130663D01*
X154965186Y-100130666D01*
X154910001Y-100297203D01*
X154910001Y-100297204D01*
X154910000Y-100297204D01*
X154899500Y-100399983D01*
X154899500Y-101025001D01*
X154899501Y-101025019D01*
X154910000Y-101127796D01*
X154910001Y-101127799D01*
X154965185Y-101294331D01*
X154965186Y-101294334D01*
X155052362Y-101435670D01*
X155057289Y-101443657D01*
X155186451Y-101572819D01*
X155184559Y-101574710D01*
X155217774Y-101621583D01*
X155224500Y-101661867D01*
X155224500Y-102413500D01*
X155204815Y-102480539D01*
X155152011Y-102526294D01*
X155100500Y-102537500D01*
X154944722Y-102537500D01*
X154905718Y-102531206D01*
X154865307Y-102517815D01*
X154802685Y-102497064D01*
X154802683Y-102497063D01*
X154704181Y-102487000D01*
X154704174Y-102487000D01*
X154095826Y-102487000D01*
X154095818Y-102487000D01*
X153997316Y-102497063D01*
X153997315Y-102497064D01*
X153894282Y-102531206D01*
X153855278Y-102537500D01*
X152944722Y-102537500D01*
X152905718Y-102531206D01*
X152865307Y-102517815D01*
X152802685Y-102497064D01*
X152802683Y-102497063D01*
X152704181Y-102487000D01*
X152704174Y-102487000D01*
X152095826Y-102487000D01*
X152095818Y-102487000D01*
X151997316Y-102497063D01*
X151997315Y-102497064D01*
X151894282Y-102531206D01*
X151855278Y-102537500D01*
X149799000Y-102537500D01*
X149731961Y-102517815D01*
X149686206Y-102465011D01*
X149675000Y-102413500D01*
X149675000Y-101186500D01*
X149694685Y-101119461D01*
X149747489Y-101073706D01*
X149799000Y-101062500D01*
X153100000Y-101062500D01*
X153100000Y-93361500D01*
X153119685Y-93294461D01*
X153172489Y-93248706D01*
X153224000Y-93237500D01*
X157676000Y-93237500D01*
X157743039Y-93257185D01*
G37*
%TD.AperFunction*%
%TD*%
%TA.AperFunction,Conductor*%
%TO.N,GND*%
G36*
X185490131Y-113519685D02*
G01*
X185496438Y-113524119D01*
X185497155Y-113524533D01*
X185497159Y-113524536D01*
X185643238Y-113585044D01*
X185722083Y-113595424D01*
X185785978Y-113623689D01*
X185793578Y-113630681D01*
X185848386Y-113685489D01*
X185848388Y-113685490D01*
X185848392Y-113685493D01*
X185878438Y-113702840D01*
X185878443Y-113702842D01*
X185951108Y-113744796D01*
X185951109Y-113744797D01*
X185951111Y-113744797D01*
X185951114Y-113744799D01*
X186065691Y-113775500D01*
X186717644Y-113775500D01*
X186767730Y-113786065D01*
X186800160Y-113800385D01*
X186825286Y-113803300D01*
X188324715Y-113803299D01*
X188324730Y-113803297D01*
X188324733Y-113803297D01*
X188349838Y-113800386D01*
X188349839Y-113800385D01*
X188349842Y-113800385D01*
X188452616Y-113755006D01*
X188532057Y-113675565D01*
X188576941Y-113573913D01*
X188622027Y-113520537D01*
X188688813Y-113500010D01*
X188690375Y-113500000D01*
X188965802Y-113500000D01*
X188974037Y-113500385D01*
X188974038Y-113500365D01*
X188976923Y-113500500D01*
X189425500Y-113500500D01*
X189492539Y-113520185D01*
X189538294Y-113572989D01*
X189549500Y-113624500D01*
X189549500Y-114148614D01*
X189529815Y-114215653D01*
X189480954Y-114259523D01*
X189147182Y-114426409D01*
X189091728Y-114439500D01*
X188886930Y-114439500D01*
X188857185Y-114442289D01*
X188857173Y-114442291D01*
X188731844Y-114486147D01*
X188625001Y-114565001D01*
X188546147Y-114671844D01*
X188502291Y-114797173D01*
X188502289Y-114797185D01*
X188499500Y-114826929D01*
X188499500Y-115275965D01*
X188497663Y-115275965D01*
X188483472Y-115336979D01*
X188433364Y-115385672D01*
X188375502Y-115400000D01*
X186488465Y-115400000D01*
X186421426Y-115380315D01*
X186400784Y-115363681D01*
X184748784Y-113711681D01*
X184715299Y-113650358D01*
X184720283Y-113580666D01*
X184762155Y-113524733D01*
X184827619Y-113500316D01*
X184836465Y-113500000D01*
X185423092Y-113500000D01*
X185490131Y-113519685D01*
G37*
%TD.AperFunction*%
%TD*%
%TA.AperFunction,Conductor*%
%TO.N,GND*%
G36*
X179992539Y-136119685D02*
G01*
X180038294Y-136172489D01*
X180049500Y-136224000D01*
X180049500Y-136726082D01*
X180049500Y-136873918D01*
X180049500Y-136873920D01*
X180049499Y-136873920D01*
X180078340Y-137018907D01*
X180078342Y-137018913D01*
X180090561Y-137048412D01*
X180100000Y-137095865D01*
X180100000Y-139076000D01*
X180080315Y-139143039D01*
X180027511Y-139188794D01*
X179976000Y-139200000D01*
X177963059Y-139200000D01*
X177896020Y-139180315D01*
X177875378Y-139163681D01*
X177673216Y-138961519D01*
X177673214Y-138961517D01*
X177529890Y-138857386D01*
X177372042Y-138776957D01*
X177372036Y-138776955D01*
X177290613Y-138750500D01*
X177290612Y-138750500D01*
X177203557Y-138722214D01*
X177116067Y-138708357D01*
X177028579Y-138694500D01*
X175924000Y-138694500D01*
X175856961Y-138674815D01*
X175811206Y-138622011D01*
X175800000Y-138570500D01*
X175800000Y-136674500D01*
X175819685Y-136607461D01*
X175872489Y-136561706D01*
X175924000Y-136550500D01*
X176638578Y-136550500D01*
X176638579Y-136550500D01*
X176813556Y-136522786D01*
X176982042Y-136468042D01*
X177089057Y-136413515D01*
X177145352Y-136400000D01*
X177300000Y-136400000D01*
X177563681Y-136136319D01*
X177625004Y-136102834D01*
X177651362Y-136100000D01*
X179925500Y-136100000D01*
X179992539Y-136119685D01*
G37*
%TD.AperFunction*%
%TD*%
%TA.AperFunction,Conductor*%
%TO.N,GND*%
G36*
X190993039Y-104619685D02*
G01*
X191038794Y-104672489D01*
X191050000Y-104724000D01*
X191050000Y-105737464D01*
X191030315Y-105804503D01*
X191013681Y-105825145D01*
X190979642Y-105859183D01*
X190979638Y-105859188D01*
X190948870Y-105912483D01*
X190948869Y-105912485D01*
X190907167Y-105984715D01*
X190869651Y-106124725D01*
X190869651Y-106124727D01*
X190869651Y-107090461D01*
X190849966Y-107157500D01*
X190833332Y-107178142D01*
X190748293Y-107263181D01*
X190686970Y-107296666D01*
X190660612Y-107299500D01*
X190426930Y-107299500D01*
X190397185Y-107302289D01*
X190397173Y-107302291D01*
X190280721Y-107343041D01*
X190239766Y-107350000D01*
X189960234Y-107350000D01*
X189919279Y-107343041D01*
X189802826Y-107302291D01*
X189802814Y-107302289D01*
X189773070Y-107299500D01*
X189773066Y-107299500D01*
X189529387Y-107299500D01*
X189462348Y-107279815D01*
X189441706Y-107263181D01*
X189316670Y-107138145D01*
X189283185Y-107076822D01*
X189280351Y-107050464D01*
X189280351Y-105837378D01*
X189280351Y-105837376D01*
X189242835Y-105697366D01*
X189202513Y-105627526D01*
X189202512Y-105627524D01*
X189166612Y-105565341D01*
X189150000Y-105503343D01*
X189150000Y-104724000D01*
X189169685Y-104656961D01*
X189222489Y-104611206D01*
X189274000Y-104600000D01*
X190926000Y-104600000D01*
X190993039Y-104619685D01*
G37*
%TD.AperFunction*%
%TD*%
M02*
