%TF.GenerationSoftware,KiCad,Pcbnew,8.0.4*%
%TF.CreationDate,2025-01-10T17:55:48-05:00*%
%TF.ProjectId,V1.0,56312e30-2e6b-4696-9361-645f70636258,rev?*%
%TF.SameCoordinates,Original*%
%TF.FileFunction,Drillmap*%
%TF.FilePolarity,Positive*%
%FSLAX45Y45*%
G04 Gerber Fmt 4.5, Leading zero omitted, Abs format (unit mm)*
G04 Created by KiCad (PCBNEW 8.0.4) date 2025-01-10 17:55:48*
%MOMM*%
%LPD*%
G01*
G04 APERTURE LIST*
%ADD10C,0.050000*%
%ADD11C,0.200000*%
%ADD12C,0.100000*%
%ADD13C,0.190000*%
%ADD14C,0.320000*%
G04 APERTURE END LIST*
D10*
X13500000Y-8752750D02*
X13500000Y-14250000D01*
X21800000Y-8252750D02*
G75*
G02*
X22297250Y-8750000I0J-497250D01*
G01*
X22300000Y-14250000D02*
G75*
G02*
X21800000Y-14750000I-500000J0D01*
G01*
X13500000Y-8752750D02*
G75*
G02*
X14000000Y-8252750I500000J0D01*
G01*
X22297250Y-8750000D02*
X22300000Y-14250000D01*
X14000000Y-8252750D02*
X21800000Y-8252750D01*
X14000000Y-14750000D02*
G75*
G02*
X13500000Y-14250000I0J500000D01*
G01*
X14000000Y-14750000D02*
X21800000Y-14750000D01*
D11*
D12*
X14064948Y-10394948D02*
X14094948Y-10424948D01*
X14094948Y-10394948D02*
X14064948Y-10424948D01*
X14125052Y-10455052D02*
X14155052Y-10485052D01*
X14155052Y-10455052D02*
X14125052Y-10485052D01*
X14265000Y-10065000D02*
X14295000Y-10095000D01*
X14295000Y-10065000D02*
X14265000Y-10095000D01*
X14345000Y-11285000D02*
X14375000Y-11315000D01*
X14375000Y-11285000D02*
X14345000Y-11315000D01*
X14465000Y-10277500D02*
X14495000Y-10307500D01*
X14495000Y-10277500D02*
X14465000Y-10307500D01*
X14465000Y-10362500D02*
X14495000Y-10392500D01*
X14495000Y-10362500D02*
X14465000Y-10392500D01*
X14745000Y-11525000D02*
X14775000Y-11555000D01*
X14775000Y-11525000D02*
X14745000Y-11555000D01*
X14855000Y-10545000D02*
X14885000Y-10575000D01*
X14885000Y-10545000D02*
X14855000Y-10575000D01*
X14855000Y-11635000D02*
X14885000Y-11665000D01*
X14885000Y-11635000D02*
X14855000Y-11665000D01*
X15285000Y-13185000D02*
X15315000Y-13215000D01*
X15315000Y-13185000D02*
X15285000Y-13215000D01*
X15285000Y-13385000D02*
X15315000Y-13415000D01*
X15315000Y-13385000D02*
X15285000Y-13415000D01*
X15285000Y-13585000D02*
X15315000Y-13615000D01*
X15315000Y-13585000D02*
X15285000Y-13615000D01*
X15315000Y-11425000D02*
X15345000Y-11455000D01*
X15345000Y-11425000D02*
X15315000Y-11455000D01*
X15325000Y-10975000D02*
X15355000Y-11005000D01*
X15355000Y-10975000D02*
X15325000Y-11005000D01*
X15485000Y-12165000D02*
X15515000Y-12195000D01*
X15515000Y-12165000D02*
X15485000Y-12195000D01*
X15485000Y-13185000D02*
X15515000Y-13215000D01*
X15515000Y-13185000D02*
X15485000Y-13215000D01*
X15485000Y-13385000D02*
X15515000Y-13415000D01*
X15515000Y-13385000D02*
X15485000Y-13415000D01*
X15485000Y-13585000D02*
X15515000Y-13615000D01*
X15515000Y-13585000D02*
X15485000Y-13615000D01*
X15585000Y-11925000D02*
X15615000Y-11955000D01*
X15615000Y-11925000D02*
X15585000Y-11955000D01*
X15625000Y-11595000D02*
X15655000Y-11625000D01*
X15655000Y-11595000D02*
X15625000Y-11625000D01*
X15685000Y-13185000D02*
X15715000Y-13215000D01*
X15715000Y-13185000D02*
X15685000Y-13215000D01*
X15685000Y-13385000D02*
X15715000Y-13415000D01*
X15715000Y-13385000D02*
X15685000Y-13415000D01*
X15685000Y-13585000D02*
X15715000Y-13615000D01*
X15715000Y-13585000D02*
X15685000Y-13615000D01*
X16005000Y-10185000D02*
X16035000Y-10215000D01*
X16035000Y-10185000D02*
X16005000Y-10215000D01*
X16105000Y-12185000D02*
X16135000Y-12215000D01*
X16135000Y-12185000D02*
X16105000Y-12215000D01*
X16245000Y-9775000D02*
X16275000Y-9805000D01*
X16275000Y-9775000D02*
X16245000Y-9805000D01*
X16245000Y-10192500D02*
X16275000Y-10222500D01*
X16275000Y-10192500D02*
X16245000Y-10222500D01*
X16375000Y-10955000D02*
X16405000Y-10985000D01*
X16405000Y-10955000D02*
X16375000Y-10985000D01*
X16425000Y-10257500D02*
X16455000Y-10287500D01*
X16455000Y-10257500D02*
X16425000Y-10287500D01*
X16485000Y-10532500D02*
X16515000Y-10562500D01*
X16515000Y-10532500D02*
X16485000Y-10562500D01*
X16505000Y-13765000D02*
X16535000Y-13795000D01*
X16535000Y-13765000D02*
X16505000Y-13795000D01*
X16585000Y-12025000D02*
X16615000Y-12055000D01*
X16615000Y-12025000D02*
X16585000Y-12055000D01*
X16665000Y-11645000D02*
X16695000Y-11675000D01*
X16695000Y-11645000D02*
X16665000Y-11675000D01*
X16835000Y-13585000D02*
X16865000Y-13615000D01*
X16865000Y-13585000D02*
X16835000Y-13615000D01*
X16935000Y-13585000D02*
X16965000Y-13615000D01*
X16965000Y-13585000D02*
X16935000Y-13615000D01*
X17035000Y-13585000D02*
X17065000Y-13615000D01*
X17065000Y-13585000D02*
X17035000Y-13615000D01*
X17085000Y-14085000D02*
X17115000Y-14115000D01*
X17115000Y-14085000D02*
X17085000Y-14115000D01*
X17085000Y-14185000D02*
X17115000Y-14215000D01*
X17115000Y-14185000D02*
X17085000Y-14215000D01*
X17085000Y-14285000D02*
X17115000Y-14315000D01*
X17115000Y-14285000D02*
X17085000Y-14315000D01*
X17135000Y-13585000D02*
X17165000Y-13615000D01*
X17165000Y-13585000D02*
X17135000Y-13615000D01*
X17185000Y-14185000D02*
X17215000Y-14215000D01*
X17215000Y-14185000D02*
X17185000Y-14215000D01*
X17185000Y-14285000D02*
X17215000Y-14315000D01*
X17215000Y-14285000D02*
X17185000Y-14315000D01*
X17285000Y-10625000D02*
X17315000Y-10655000D01*
X17315000Y-10625000D02*
X17285000Y-10655000D01*
X17285000Y-10825000D02*
X17315000Y-10855000D01*
X17315000Y-10825000D02*
X17285000Y-10855000D01*
X17595000Y-12025000D02*
X17625000Y-12055000D01*
X17625000Y-12025000D02*
X17595000Y-12055000D01*
X17635000Y-13805000D02*
X17665000Y-13835000D01*
X17665000Y-13805000D02*
X17635000Y-13835000D01*
X17638033Y-11467500D02*
X17668033Y-11497500D01*
X17668033Y-11467500D02*
X17638033Y-11497500D01*
X17725000Y-11465000D02*
X17755000Y-11495000D01*
X17755000Y-11465000D02*
X17725000Y-11495000D01*
X17735000Y-13805000D02*
X17765000Y-13835000D01*
X17765000Y-13805000D02*
X17735000Y-13835000D01*
X17765000Y-10805000D02*
X17795000Y-10835000D01*
X17795000Y-10805000D02*
X17765000Y-10835000D01*
X17788033Y-11621967D02*
X17818033Y-11651967D01*
X17818033Y-11621967D02*
X17788033Y-11651967D01*
X17835000Y-13805000D02*
X17865000Y-13835000D01*
X17865000Y-13805000D02*
X17835000Y-13835000D01*
X17875082Y-11617500D02*
X17905082Y-11647500D01*
X17905082Y-11617500D02*
X17875082Y-11647500D01*
X17885000Y-10805000D02*
X17915000Y-10835000D01*
X17915000Y-10805000D02*
X17885000Y-10835000D01*
X17905000Y-11125000D02*
X17935000Y-11155000D01*
X17935000Y-11125000D02*
X17905000Y-11155000D01*
X17935000Y-13805000D02*
X17965000Y-13835000D01*
X17965000Y-13805000D02*
X17935000Y-13835000D01*
X17945000Y-11430000D02*
X17975000Y-11460000D01*
X17975000Y-11430000D02*
X17945000Y-11460000D01*
X18003078Y-11155002D02*
X18033078Y-11185002D01*
X18033078Y-11155002D02*
X18003078Y-11185002D01*
X18005000Y-10925000D02*
X18035000Y-10955000D01*
X18035000Y-10925000D02*
X18005000Y-10955000D01*
X18005000Y-11065000D02*
X18035000Y-11095000D01*
X18035000Y-11065000D02*
X18005000Y-11095000D01*
X18005000Y-13030500D02*
X18035000Y-13060500D01*
X18035000Y-13030500D02*
X18005000Y-13060500D01*
X18085000Y-10565000D02*
X18115000Y-10595000D01*
X18115000Y-10565000D02*
X18085000Y-10595000D01*
X18103076Y-11746924D02*
X18133076Y-11776924D01*
X18133076Y-11746924D02*
X18103076Y-11776924D01*
X18185000Y-12970500D02*
X18215000Y-13000500D01*
X18215000Y-12970500D02*
X18185000Y-13000500D01*
X18199038Y-11750962D02*
X18229038Y-11780962D01*
X18229038Y-11750962D02*
X18199038Y-11780962D01*
X18265000Y-11435000D02*
X18295000Y-11465000D01*
X18295000Y-11435000D02*
X18265000Y-11465000D01*
X18285000Y-11345000D02*
X18315000Y-11375000D01*
X18315000Y-11345000D02*
X18285000Y-11375000D01*
X18342500Y-10502500D02*
X18372500Y-10532500D01*
X18372500Y-10502500D02*
X18342500Y-10532500D01*
X18365000Y-12970500D02*
X18395000Y-13000500D01*
X18395000Y-12970500D02*
X18365000Y-13000500D01*
X18385000Y-11325000D02*
X18415000Y-11355000D01*
X18415000Y-11325000D02*
X18385000Y-11355000D01*
X18445000Y-10865000D02*
X18475000Y-10895000D01*
X18475000Y-10865000D02*
X18445000Y-10895000D01*
X18445000Y-10945000D02*
X18475000Y-10975000D01*
X18475000Y-10945000D02*
X18445000Y-10975000D01*
X18445000Y-11025000D02*
X18475000Y-11055000D01*
X18475000Y-11025000D02*
X18445000Y-11055000D01*
X18505000Y-12465000D02*
X18535000Y-12495000D01*
X18535000Y-12465000D02*
X18505000Y-12495000D01*
X18535000Y-11395000D02*
X18565000Y-11425000D01*
X18565000Y-11395000D02*
X18535000Y-11425000D01*
X18545000Y-10865000D02*
X18575000Y-10895000D01*
X18575000Y-10865000D02*
X18545000Y-10895000D01*
X18545000Y-10945000D02*
X18575000Y-10975000D01*
X18575000Y-10945000D02*
X18545000Y-10975000D01*
X18545000Y-11025000D02*
X18575000Y-11055000D01*
X18575000Y-11025000D02*
X18545000Y-11055000D01*
X18545000Y-11105000D02*
X18575000Y-11135000D01*
X18575000Y-11105000D02*
X18545000Y-11135000D01*
X18565000Y-11285000D02*
X18595000Y-11315000D01*
X18595000Y-11285000D02*
X18565000Y-11315000D01*
X18615000Y-12075000D02*
X18645000Y-12105000D01*
X18645000Y-12075000D02*
X18615000Y-12105000D01*
X18625000Y-11395000D02*
X18655000Y-11425000D01*
X18655000Y-11395000D02*
X18625000Y-11425000D01*
X18635000Y-11475000D02*
X18665000Y-11505000D01*
X18665000Y-11475000D02*
X18635000Y-11505000D01*
X18697500Y-10257500D02*
X18727500Y-10287500D01*
X18727500Y-10257500D02*
X18697500Y-10287500D01*
X18705000Y-10485000D02*
X18735000Y-10515000D01*
X18735000Y-10485000D02*
X18705000Y-10515000D01*
X18745000Y-10565000D02*
X18775000Y-10595000D01*
X18775000Y-10565000D02*
X18745000Y-10595000D01*
X18785000Y-12625000D02*
X18815000Y-12655000D01*
X18815000Y-12625000D02*
X18785000Y-12655000D01*
X18845000Y-13045000D02*
X18875000Y-13075000D01*
X18875000Y-13045000D02*
X18845000Y-13075000D01*
X18860000Y-12110000D02*
X18890000Y-12140000D01*
X18890000Y-12110000D02*
X18860000Y-12140000D01*
X18875000Y-11975000D02*
X18905000Y-12005000D01*
X18905000Y-11975000D02*
X18875000Y-12005000D01*
X18879200Y-11722932D02*
X18909200Y-11752932D01*
X18909200Y-11722932D02*
X18879200Y-11752932D01*
X18902500Y-10862500D02*
X18932500Y-10892500D01*
X18932500Y-10862500D02*
X18902500Y-10892500D01*
X18902500Y-11182500D02*
X18932500Y-11212500D01*
X18932500Y-11182500D02*
X18902500Y-11212500D01*
X18916336Y-12749177D02*
X18946336Y-12779177D01*
X18946336Y-12749177D02*
X18916336Y-12779177D01*
X18930000Y-10475000D02*
X18960000Y-10505000D01*
X18960000Y-10475000D02*
X18930000Y-10505000D01*
X18943216Y-11660000D02*
X18973216Y-11690000D01*
X18973216Y-11660000D02*
X18943216Y-11690000D01*
X18968000Y-12797000D02*
X18998000Y-12827000D01*
X18998000Y-12797000D02*
X18968000Y-12827000D01*
X18980000Y-11000000D02*
X19010000Y-11030000D01*
X19010000Y-11000000D02*
X18980000Y-11030000D01*
X18985000Y-13820000D02*
X19015000Y-13850000D01*
X19015000Y-13820000D02*
X18985000Y-13850000D01*
X18995000Y-10475000D02*
X19025000Y-10505000D01*
X19025000Y-10475000D02*
X18995000Y-10505000D01*
X18999240Y-11602892D02*
X19029240Y-11632892D01*
X19029240Y-11602892D02*
X18999240Y-11632892D01*
X19005000Y-12485000D02*
X19035000Y-12515000D01*
X19035000Y-12485000D02*
X19005000Y-12515000D01*
X19034038Y-11065962D02*
X19064038Y-11095962D01*
X19064038Y-11065962D02*
X19034038Y-11095962D01*
X19060000Y-10475000D02*
X19090000Y-10505000D01*
X19090000Y-10475000D02*
X19060000Y-10505000D01*
X19077714Y-11587337D02*
X19107714Y-11617337D01*
X19107714Y-11587337D02*
X19077714Y-11617337D01*
X19082500Y-10862500D02*
X19112500Y-10892500D01*
X19112500Y-10862500D02*
X19082500Y-10892500D01*
X19084974Y-11185093D02*
X19114974Y-11215093D01*
X19114974Y-11185093D02*
X19084974Y-11215093D01*
X19085000Y-10365000D02*
X19115000Y-10395000D01*
X19115000Y-10365000D02*
X19085000Y-10395000D01*
X19085000Y-12595000D02*
X19115000Y-12625000D01*
X19115000Y-12595000D02*
X19085000Y-12625000D01*
X19115000Y-12185000D02*
X19145000Y-12215000D01*
X19145000Y-12185000D02*
X19115000Y-12215000D01*
X19125000Y-10185000D02*
X19155000Y-10215000D01*
X19155000Y-10185000D02*
X19125000Y-10215000D01*
X19185000Y-11455000D02*
X19215000Y-11485000D01*
X19215000Y-11455000D02*
X19185000Y-11485000D01*
X19188000Y-11977000D02*
X19218000Y-12007000D01*
X19218000Y-11977000D02*
X19188000Y-12007000D01*
X19205000Y-9825000D02*
X19235000Y-9855000D01*
X19235000Y-9825000D02*
X19205000Y-9855000D01*
X19205000Y-9965000D02*
X19235000Y-9995000D01*
X19235000Y-9965000D02*
X19205000Y-9995000D01*
X19205000Y-10045000D02*
X19235000Y-10075000D01*
X19235000Y-10045000D02*
X19205000Y-10075000D01*
X19215000Y-11515000D02*
X19245000Y-11545000D01*
X19245000Y-11515000D02*
X19215000Y-11545000D01*
X19242500Y-10565000D02*
X19272500Y-10595000D01*
X19272500Y-10565000D02*
X19242500Y-10595000D01*
X19265000Y-11455000D02*
X19295000Y-11485000D01*
X19295000Y-11455000D02*
X19265000Y-11485000D01*
X19285000Y-13230000D02*
X19315000Y-13260000D01*
X19315000Y-13230000D02*
X19285000Y-13260000D01*
X19295000Y-11515000D02*
X19325000Y-11545000D01*
X19325000Y-11515000D02*
X19295000Y-11545000D01*
X19305000Y-12965000D02*
X19335000Y-12995000D01*
X19335000Y-12965000D02*
X19305000Y-12995000D01*
X19314000Y-13325000D02*
X19344000Y-13355000D01*
X19344000Y-13325000D02*
X19314000Y-13355000D01*
X19349399Y-11465119D02*
X19379399Y-11495119D01*
X19379399Y-11465119D02*
X19349399Y-11495119D01*
X19375000Y-11815000D02*
X19405000Y-11845000D01*
X19405000Y-11815000D02*
X19375000Y-11845000D01*
X19394038Y-12345962D02*
X19424038Y-12375962D01*
X19424038Y-12345962D02*
X19394038Y-12375962D01*
X19396862Y-11330000D02*
X19426862Y-11360000D01*
X19426862Y-11330000D02*
X19396862Y-11360000D01*
X19425000Y-10865000D02*
X19455000Y-10895000D01*
X19455000Y-10865000D02*
X19425000Y-10895000D01*
X19425000Y-10945000D02*
X19455000Y-10975000D01*
X19455000Y-10945000D02*
X19425000Y-10975000D01*
X19425000Y-11025000D02*
X19455000Y-11055000D01*
X19455000Y-11025000D02*
X19425000Y-11055000D01*
X19425000Y-11105000D02*
X19455000Y-11135000D01*
X19455000Y-11105000D02*
X19425000Y-11135000D01*
X19425000Y-11746087D02*
X19455000Y-11776087D01*
X19455000Y-11746087D02*
X19425000Y-11776087D01*
X19432787Y-11616087D02*
X19462787Y-11646087D01*
X19462787Y-11616087D02*
X19432787Y-11646087D01*
X19495000Y-12255000D02*
X19525000Y-12285000D01*
X19525000Y-12255000D02*
X19495000Y-12285000D01*
X19495000Y-12735000D02*
X19525000Y-12765000D01*
X19525000Y-12735000D02*
X19495000Y-12765000D01*
X19505000Y-11675000D02*
X19535000Y-11705000D01*
X19535000Y-11675000D02*
X19505000Y-11705000D01*
X19536445Y-13168727D02*
X19566445Y-13198727D01*
X19566445Y-13168727D02*
X19536445Y-13198727D01*
X19545000Y-10345000D02*
X19575000Y-10375000D01*
X19575000Y-10345000D02*
X19545000Y-10375000D01*
X19560000Y-11335000D02*
X19590000Y-11365000D01*
X19590000Y-11335000D02*
X19560000Y-11365000D01*
X19575000Y-11811087D02*
X19605000Y-11841087D01*
X19605000Y-11811087D02*
X19575000Y-11841087D01*
X19576317Y-13376317D02*
X19606317Y-13406317D01*
X19606317Y-13376317D02*
X19576317Y-13406317D01*
X19615000Y-12515000D02*
X19645000Y-12545000D01*
X19645000Y-12515000D02*
X19615000Y-12545000D01*
X19615000Y-12625000D02*
X19645000Y-12655000D01*
X19645000Y-12625000D02*
X19615000Y-12655000D01*
X19625000Y-12748750D02*
X19655000Y-12778750D01*
X19655000Y-12748750D02*
X19625000Y-12778750D01*
X19635000Y-13565000D02*
X19665000Y-13595000D01*
X19665000Y-13565000D02*
X19635000Y-13595000D01*
X19645000Y-10865000D02*
X19675000Y-10895000D01*
X19675000Y-10865000D02*
X19645000Y-10895000D01*
X19645000Y-10945000D02*
X19675000Y-10975000D01*
X19675000Y-10945000D02*
X19645000Y-10975000D01*
X19645000Y-11025000D02*
X19675000Y-11055000D01*
X19675000Y-11025000D02*
X19645000Y-11055000D01*
X19645000Y-11105000D02*
X19675000Y-11135000D01*
X19675000Y-11105000D02*
X19645000Y-11135000D01*
X19645000Y-11185000D02*
X19675000Y-11215000D01*
X19675000Y-11185000D02*
X19645000Y-11215000D01*
X19665000Y-11545000D02*
X19695000Y-11575000D01*
X19695000Y-11545000D02*
X19665000Y-11575000D01*
X19705000Y-13465000D02*
X19735000Y-13495000D01*
X19735000Y-13465000D02*
X19705000Y-13495000D01*
X19708000Y-11833000D02*
X19738000Y-11863000D01*
X19738000Y-11833000D02*
X19708000Y-11863000D01*
X19735000Y-13185000D02*
X19765000Y-13215000D01*
X19765000Y-13185000D02*
X19735000Y-13215000D01*
X19755000Y-12275000D02*
X19785000Y-12305000D01*
X19785000Y-12275000D02*
X19755000Y-12305000D01*
X19765000Y-10405000D02*
X19795000Y-10435000D01*
X19795000Y-10405000D02*
X19765000Y-10435000D01*
X19773076Y-11706924D02*
X19803076Y-11736924D01*
X19803076Y-11706924D02*
X19773076Y-11736924D01*
X19857000Y-13425000D02*
X19887000Y-13455000D01*
X19887000Y-13425000D02*
X19857000Y-13455000D01*
X19860000Y-11610000D02*
X19890000Y-11640000D01*
X19890000Y-11610000D02*
X19860000Y-11640000D01*
X19925000Y-12625000D02*
X19955000Y-12655000D01*
X19955000Y-12625000D02*
X19925000Y-12655000D01*
X19955000Y-12345000D02*
X19985000Y-12375000D01*
X19985000Y-12345000D02*
X19955000Y-12375000D01*
X19965000Y-11225000D02*
X19995000Y-11255000D01*
X19995000Y-11225000D02*
X19965000Y-11255000D01*
X19981538Y-11753462D02*
X20011538Y-11783462D01*
X20011538Y-11753462D02*
X19981538Y-11783462D01*
X19985000Y-10992500D02*
X20015000Y-11022500D01*
X20015000Y-10992500D02*
X19985000Y-11022500D01*
X19985000Y-11605000D02*
X20015000Y-11635000D01*
X20015000Y-11605000D02*
X19985000Y-11635000D01*
X19985000Y-13235000D02*
X20015000Y-13265000D01*
X20015000Y-13235000D02*
X19985000Y-13265000D01*
X20063462Y-13056538D02*
X20093462Y-13086538D01*
X20093462Y-13056538D02*
X20063462Y-13086538D01*
X20064116Y-12984314D02*
X20094116Y-13014314D01*
X20094116Y-12984314D02*
X20064116Y-13014314D01*
X20085000Y-11765000D02*
X20115000Y-11795000D01*
X20115000Y-11765000D02*
X20085000Y-11795000D01*
X20095000Y-11402500D02*
X20125000Y-11432500D01*
X20125000Y-11402500D02*
X20095000Y-11432500D01*
X20125000Y-11225000D02*
X20155000Y-11255000D01*
X20155000Y-11225000D02*
X20125000Y-11255000D01*
X20125000Y-13345000D02*
X20155000Y-13375000D01*
X20155000Y-13345000D02*
X20125000Y-13375000D01*
X20155000Y-12175000D02*
X20185000Y-12205000D01*
X20185000Y-12175000D02*
X20155000Y-12205000D01*
X20205000Y-11225000D02*
X20235000Y-11255000D01*
X20235000Y-11225000D02*
X20205000Y-11255000D01*
X20225000Y-11605000D02*
X20255000Y-11635000D01*
X20255000Y-11605000D02*
X20225000Y-11635000D01*
X20249467Y-10895533D02*
X20279467Y-10925533D01*
X20279467Y-10895533D02*
X20249467Y-10925533D01*
X20265000Y-10805000D02*
X20295000Y-10835000D01*
X20295000Y-10805000D02*
X20265000Y-10835000D01*
X20305000Y-11605000D02*
X20335000Y-11635000D01*
X20335000Y-11605000D02*
X20305000Y-11635000D01*
X20325000Y-10745000D02*
X20355000Y-10775000D01*
X20355000Y-10745000D02*
X20325000Y-10775000D01*
X20325000Y-11205000D02*
X20355000Y-11235000D01*
X20355000Y-11205000D02*
X20325000Y-11235000D01*
X20350000Y-12345000D02*
X20380000Y-12375000D01*
X20380000Y-12345000D02*
X20350000Y-12375000D01*
X20400000Y-10975000D02*
X20430000Y-11005000D01*
X20430000Y-10975000D02*
X20400000Y-11005000D01*
X20405000Y-9995000D02*
X20435000Y-10025000D01*
X20435000Y-9995000D02*
X20405000Y-10025000D01*
X20405000Y-11487500D02*
X20435000Y-11517500D01*
X20435000Y-11487500D02*
X20405000Y-11517500D01*
X20452426Y-13037574D02*
X20482426Y-13067574D01*
X20482426Y-13037574D02*
X20452426Y-13067574D01*
X20559038Y-12730962D02*
X20589038Y-12760962D01*
X20589038Y-12730962D02*
X20559038Y-12760962D01*
X20585000Y-10865000D02*
X20615000Y-10895000D01*
X20615000Y-10865000D02*
X20585000Y-10895000D01*
X20645000Y-10985000D02*
X20675000Y-11015000D01*
X20675000Y-10985000D02*
X20645000Y-11015000D01*
X20704315Y-10792869D02*
X20734315Y-10822869D01*
X20734315Y-10792869D02*
X20704315Y-10822869D01*
X20870000Y-13615000D02*
X20900000Y-13645000D01*
X20900000Y-13615000D02*
X20870000Y-13645000D01*
X20870538Y-12757538D02*
X20900538Y-12787538D01*
X20900538Y-12757538D02*
X20870538Y-12787538D01*
X20875000Y-10935000D02*
X20905000Y-10965000D01*
X20905000Y-10935000D02*
X20875000Y-10965000D01*
X20955000Y-12265000D02*
X20985000Y-12295000D01*
X20985000Y-12265000D02*
X20955000Y-12295000D01*
X21005000Y-10635000D02*
X21035000Y-10665000D01*
X21035000Y-10635000D02*
X21005000Y-10665000D01*
X21014000Y-13476000D02*
X21044000Y-13506000D01*
X21044000Y-13476000D02*
X21014000Y-13506000D01*
X21214000Y-13476000D02*
X21244000Y-13506000D01*
X21244000Y-13476000D02*
X21214000Y-13506000D01*
X18288500Y-13375500D02*
G75*
G02*
X18223500Y-13375500I-32500J0D01*
G01*
X18223500Y-13375500D02*
G75*
G02*
X18288500Y-13375500I32500J0D01*
G01*
X18288500Y-13502500D02*
G75*
G02*
X18223500Y-13502500I-32500J0D01*
G01*
X18223500Y-13502500D02*
G75*
G02*
X18288500Y-13502500I32500J0D01*
G01*
X18415500Y-13375500D02*
G75*
G02*
X18350500Y-13375500I-32500J0D01*
G01*
X18350500Y-13375500D02*
G75*
G02*
X18415500Y-13375500I32500J0D01*
G01*
X18415500Y-13502500D02*
G75*
G02*
X18350500Y-13502500I-32500J0D01*
G01*
X18350500Y-13502500D02*
G75*
G02*
X18415500Y-13502500I32500J0D01*
G01*
X18542500Y-13375500D02*
G75*
G02*
X18477500Y-13375500I-32500J0D01*
G01*
X18477500Y-13375500D02*
G75*
G02*
X18542500Y-13375500I32500J0D01*
G01*
X18542500Y-13502500D02*
G75*
G02*
X18477500Y-13502500I-32500J0D01*
G01*
X18477500Y-13502500D02*
G75*
G02*
X18542500Y-13502500I32500J0D01*
G01*
X18669500Y-13375500D02*
G75*
G02*
X18604500Y-13375500I-32500J0D01*
G01*
X18604500Y-13375500D02*
G75*
G02*
X18669500Y-13375500I32500J0D01*
G01*
X18669500Y-13502500D02*
G75*
G02*
X18604500Y-13502500I-32500J0D01*
G01*
X18604500Y-13502500D02*
G75*
G02*
X18669500Y-13502500I32500J0D01*
G01*
X18796500Y-13375500D02*
G75*
G02*
X18731500Y-13375500I-32500J0D01*
G01*
X18731500Y-13375500D02*
G75*
G02*
X18796500Y-13375500I32500J0D01*
G01*
X18796500Y-13502500D02*
G75*
G02*
X18731500Y-13502500I-32500J0D01*
G01*
X18731500Y-13502500D02*
G75*
G02*
X18796500Y-13502500I32500J0D01*
G01*
X18200000Y-14067500D02*
X18200000Y-14142500D01*
X18162500Y-14105000D02*
X18237500Y-14105000D01*
X18400000Y-14067500D02*
X18400000Y-14142500D01*
X18362500Y-14105000D02*
X18437500Y-14105000D01*
X18600000Y-14067500D02*
X18600000Y-14142500D01*
X18562500Y-14105000D02*
X18637500Y-14105000D01*
X18800000Y-14067500D02*
X18800000Y-14142500D01*
X18762500Y-14105000D02*
X18837500Y-14105000D01*
X19000000Y-14067500D02*
X19000000Y-14142500D01*
X18962500Y-14105000D02*
X19037500Y-14105000D01*
X19200000Y-14067500D02*
X19200000Y-14142500D01*
X19162500Y-14105000D02*
X19237500Y-14105000D01*
X19400000Y-14067500D02*
X19400000Y-14142500D01*
X19362500Y-14105000D02*
X19437500Y-14105000D01*
X19950000Y-14067500D02*
X19950000Y-14142500D01*
X19912500Y-14105000D02*
X19987500Y-14105000D01*
X20150000Y-14067500D02*
X20150000Y-14142500D01*
X20112500Y-14105000D02*
X20187500Y-14105000D01*
X20350000Y-14067500D02*
X20350000Y-14142500D01*
X20312500Y-14105000D02*
X20387500Y-14105000D01*
X20550000Y-14067500D02*
X20550000Y-14142500D01*
X20512500Y-14105000D02*
X20587500Y-14105000D01*
X20750000Y-14067500D02*
X20750000Y-14142500D01*
X20712500Y-14105000D02*
X20787500Y-14105000D01*
X20950000Y-14067500D02*
X20950000Y-14142500D01*
X20912500Y-14105000D02*
X20987500Y-14105000D01*
X21150000Y-14067500D02*
X21150000Y-14142500D01*
X21112500Y-14105000D02*
X21187500Y-14105000D01*
X21680000Y-12392500D02*
X21680000Y-12467500D01*
X21642500Y-12430000D02*
X21717500Y-12430000D01*
X21680000Y-12592500D02*
X21680000Y-12667500D01*
X21642500Y-12630000D02*
X21717500Y-12630000D01*
X21680000Y-12792500D02*
X21680000Y-12867500D01*
X21642500Y-12830000D02*
X21717500Y-12830000D01*
X21680000Y-12992500D02*
X21680000Y-13067500D01*
X21642500Y-13030000D02*
X21717500Y-13030000D01*
X21680000Y-13192500D02*
X21680000Y-13267500D01*
X21642500Y-13230000D02*
X21717500Y-13230000D01*
X21680000Y-13392500D02*
X21680000Y-13467500D01*
X21642500Y-13430000D02*
X21717500Y-13430000D01*
X21680000Y-13592500D02*
X21680000Y-13667500D01*
X21642500Y-13630000D02*
X21717500Y-13630000D01*
X13835356Y-11935356D02*
X13835356Y-11864644D01*
X13764644Y-11864644D01*
X13764644Y-11935356D01*
X13835356Y-11935356D01*
X13835356Y-13035356D02*
X13835356Y-12964644D01*
X13764644Y-12964644D01*
X13764644Y-13035356D01*
X13835356Y-13035356D01*
X13835356Y-13470356D02*
X13835356Y-13399644D01*
X13764644Y-13399644D01*
X13764644Y-13470356D01*
X13835356Y-13470356D01*
X13835356Y-14570356D02*
X13835356Y-14499644D01*
X13764644Y-14499644D01*
X13764644Y-14570356D01*
X13835356Y-14570356D01*
X14785356Y-8586606D02*
X14785356Y-8515894D01*
X14714644Y-8515894D01*
X14714644Y-8586606D01*
X14785356Y-8586606D01*
X15885356Y-8586606D02*
X15885356Y-8515894D01*
X15814644Y-8515894D01*
X15814644Y-8586606D01*
X15885356Y-8586606D01*
X16320356Y-8586606D02*
X16320356Y-8515894D01*
X16249644Y-8515894D01*
X16249644Y-8586606D01*
X16320356Y-8586606D01*
X17420356Y-8586606D02*
X17420356Y-8515894D01*
X17349644Y-8515894D01*
X17349644Y-8586606D01*
X17420356Y-8586606D01*
X17855356Y-8586606D02*
X17855356Y-8515894D01*
X17784644Y-8515894D01*
X17784644Y-8586606D01*
X17855356Y-8586606D01*
X18955356Y-8586606D02*
X18955356Y-8515894D01*
X18884644Y-8515894D01*
X18884644Y-8586606D01*
X18955356Y-8586606D01*
X19395356Y-8579106D02*
X19395356Y-8508394D01*
X19324644Y-8508394D01*
X19324644Y-8579106D01*
X19395356Y-8579106D01*
X20308856Y-13655356D02*
X20308856Y-13584644D01*
X20238144Y-13584644D01*
X20238144Y-13655356D01*
X20308856Y-13655356D01*
X20495356Y-8579106D02*
X20495356Y-8508394D01*
X20424644Y-8508394D01*
X20424644Y-8579106D01*
X20495356Y-8579106D01*
X20562856Y-13655356D02*
X20562856Y-13584644D01*
X20492144Y-13584644D01*
X20492144Y-13655356D01*
X20562856Y-13655356D01*
X21077856Y-12475356D02*
X21077856Y-12404644D01*
X21007144Y-12404644D01*
X21007144Y-12475356D01*
X21077856Y-12475356D01*
X21331856Y-12475356D02*
X21331856Y-12404644D01*
X21261144Y-12404644D01*
X21261144Y-12475356D01*
X21331856Y-12475356D01*
X22025356Y-9435356D02*
X22025356Y-9364644D01*
X21954644Y-9364644D01*
X21954644Y-9435356D01*
X22025356Y-9435356D01*
X22025356Y-10535356D02*
X22025356Y-10464644D01*
X21954644Y-10464644D01*
X21954644Y-10535356D01*
X22025356Y-10535356D01*
X22027856Y-10925356D02*
X22027856Y-10854644D01*
X21957144Y-10854644D01*
X21957144Y-10925356D01*
X22027856Y-10925356D01*
X22027856Y-12025356D02*
X22027856Y-11954644D01*
X21957144Y-11954644D01*
X21957144Y-12025356D01*
X22027856Y-12025356D01*
D13*
X14800000Y-12295000D02*
X14895000Y-12200000D01*
X14800000Y-12105000D01*
X14705000Y-12200000D01*
X14800000Y-12295000D01*
X14800000Y-12795000D02*
X14895000Y-12700000D01*
X14800000Y-12605000D01*
X14705000Y-12700000D01*
X14800000Y-12795000D01*
X14800000Y-13830000D02*
X14895000Y-13735000D01*
X14800000Y-13640000D01*
X14705000Y-13735000D01*
X14800000Y-13830000D01*
X14800000Y-14330000D02*
X14895000Y-14235000D01*
X14800000Y-14140000D01*
X14705000Y-14235000D01*
X14800000Y-14330000D01*
X15050000Y-9646250D02*
X15145000Y-9551250D01*
X15050000Y-9456250D01*
X14955000Y-9551250D01*
X15050000Y-9646250D01*
X15550000Y-9646250D02*
X15645000Y-9551250D01*
X15550000Y-9456250D01*
X15455000Y-9551250D01*
X15550000Y-9646250D01*
X16585000Y-9646250D02*
X16680000Y-9551250D01*
X16585000Y-9456250D01*
X16490000Y-9551250D01*
X16585000Y-9646250D01*
X17085000Y-9646250D02*
X17180000Y-9551250D01*
X17085000Y-9456250D01*
X16990000Y-9551250D01*
X17085000Y-9646250D01*
X18120000Y-9646250D02*
X18215000Y-9551250D01*
X18120000Y-9456250D01*
X18025000Y-9551250D01*
X18120000Y-9646250D01*
X18620000Y-9646250D02*
X18715000Y-9551250D01*
X18620000Y-9456250D01*
X18525000Y-9551250D01*
X18620000Y-9646250D01*
X19660000Y-9638750D02*
X19755000Y-9543750D01*
X19660000Y-9448750D01*
X19565000Y-9543750D01*
X19660000Y-9638750D01*
X20160000Y-9638750D02*
X20255000Y-9543750D01*
X20160000Y-9448750D01*
X20065000Y-9543750D01*
X20160000Y-9638750D01*
X20990000Y-9795000D02*
X21085000Y-9700000D01*
X20990000Y-9605000D01*
X20895000Y-9700000D01*
X20990000Y-9795000D01*
X20990000Y-10295000D02*
X21085000Y-10200000D01*
X20990000Y-10105000D01*
X20895000Y-10200000D01*
X20990000Y-10295000D01*
X20992500Y-11285000D02*
X21087500Y-11190000D01*
X20992500Y-11095000D01*
X20897500Y-11190000D01*
X20992500Y-11285000D01*
X20992500Y-11785000D02*
X21087500Y-11690000D01*
X20992500Y-11595000D01*
X20897500Y-11690000D01*
X20992500Y-11785000D01*
D14*
X13840000Y-8592750D02*
X14160000Y-8912750D01*
X14160000Y-8592750D02*
X13840000Y-8912750D01*
X14160000Y-8752750D02*
G75*
G02*
X13840000Y-8752750I-160000J0D01*
G01*
X13840000Y-8752750D02*
G75*
G02*
X14160000Y-8752750I160000J0D01*
G01*
X15300000Y-14180000D02*
X15620000Y-14500000D01*
X15620000Y-14180000D02*
X15300000Y-14500000D01*
X15620000Y-14340000D02*
G75*
G02*
X15300000Y-14340000I-160000J0D01*
G01*
X15300000Y-14340000D02*
G75*
G02*
X15620000Y-14340000I160000J0D01*
G01*
X21640000Y-8590000D02*
X21960000Y-8910000D01*
X21960000Y-8590000D02*
X21640000Y-8910000D01*
X21960000Y-8750000D02*
G75*
G02*
X21640000Y-8750000I-160000J0D01*
G01*
X21640000Y-8750000D02*
G75*
G02*
X21960000Y-8750000I160000J0D01*
G01*
X21640000Y-14090000D02*
X21960000Y-14410000D01*
X21960000Y-14090000D02*
X21640000Y-14410000D01*
X21960000Y-14250000D02*
G75*
G02*
X21640000Y-14250000I-160000J0D01*
G01*
X21640000Y-14250000D02*
G75*
G02*
X21960000Y-14250000I160000J0D01*
G01*
D11*
X13758277Y-15063984D02*
X13758277Y-14863984D01*
X13758277Y-14863984D02*
X13805896Y-14863984D01*
X13805896Y-14863984D02*
X13834467Y-14873508D01*
X13834467Y-14873508D02*
X13853515Y-14892555D01*
X13853515Y-14892555D02*
X13863039Y-14911603D01*
X13863039Y-14911603D02*
X13872562Y-14949698D01*
X13872562Y-14949698D02*
X13872562Y-14978269D01*
X13872562Y-14978269D02*
X13863039Y-15016365D01*
X13863039Y-15016365D02*
X13853515Y-15035412D01*
X13853515Y-15035412D02*
X13834467Y-15054460D01*
X13834467Y-15054460D02*
X13805896Y-15063984D01*
X13805896Y-15063984D02*
X13758277Y-15063984D01*
X13958277Y-15063984D02*
X13958277Y-14930650D01*
X13958277Y-14968746D02*
X13967801Y-14949698D01*
X13967801Y-14949698D02*
X13977324Y-14940174D01*
X13977324Y-14940174D02*
X13996372Y-14930650D01*
X13996372Y-14930650D02*
X14015420Y-14930650D01*
X14082086Y-15063984D02*
X14082086Y-14930650D01*
X14082086Y-14863984D02*
X14072562Y-14873508D01*
X14072562Y-14873508D02*
X14082086Y-14883031D01*
X14082086Y-14883031D02*
X14091610Y-14873508D01*
X14091610Y-14873508D02*
X14082086Y-14863984D01*
X14082086Y-14863984D02*
X14082086Y-14883031D01*
X14205896Y-15063984D02*
X14186848Y-15054460D01*
X14186848Y-15054460D02*
X14177324Y-15035412D01*
X14177324Y-15035412D02*
X14177324Y-14863984D01*
X14310658Y-15063984D02*
X14291610Y-15054460D01*
X14291610Y-15054460D02*
X14282086Y-15035412D01*
X14282086Y-15035412D02*
X14282086Y-14863984D01*
X14539229Y-15063984D02*
X14539229Y-14863984D01*
X14539229Y-14863984D02*
X14605896Y-15006841D01*
X14605896Y-15006841D02*
X14672562Y-14863984D01*
X14672562Y-14863984D02*
X14672562Y-15063984D01*
X14853515Y-15063984D02*
X14853515Y-14959222D01*
X14853515Y-14959222D02*
X14843991Y-14940174D01*
X14843991Y-14940174D02*
X14824943Y-14930650D01*
X14824943Y-14930650D02*
X14786848Y-14930650D01*
X14786848Y-14930650D02*
X14767801Y-14940174D01*
X14853515Y-15054460D02*
X14834467Y-15063984D01*
X14834467Y-15063984D02*
X14786848Y-15063984D01*
X14786848Y-15063984D02*
X14767801Y-15054460D01*
X14767801Y-15054460D02*
X14758277Y-15035412D01*
X14758277Y-15035412D02*
X14758277Y-15016365D01*
X14758277Y-15016365D02*
X14767801Y-14997317D01*
X14767801Y-14997317D02*
X14786848Y-14987793D01*
X14786848Y-14987793D02*
X14834467Y-14987793D01*
X14834467Y-14987793D02*
X14853515Y-14978269D01*
X14948753Y-14930650D02*
X14948753Y-15130650D01*
X14948753Y-14940174D02*
X14967801Y-14930650D01*
X14967801Y-14930650D02*
X15005896Y-14930650D01*
X15005896Y-14930650D02*
X15024943Y-14940174D01*
X15024943Y-14940174D02*
X15034467Y-14949698D01*
X15034467Y-14949698D02*
X15043991Y-14968746D01*
X15043991Y-14968746D02*
X15043991Y-15025888D01*
X15043991Y-15025888D02*
X15034467Y-15044936D01*
X15034467Y-15044936D02*
X15024943Y-15054460D01*
X15024943Y-15054460D02*
X15005896Y-15063984D01*
X15005896Y-15063984D02*
X14967801Y-15063984D01*
X14967801Y-15063984D02*
X14948753Y-15054460D01*
X15129705Y-15044936D02*
X15139229Y-15054460D01*
X15139229Y-15054460D02*
X15129705Y-15063984D01*
X15129705Y-15063984D02*
X15120182Y-15054460D01*
X15120182Y-15054460D02*
X15129705Y-15044936D01*
X15129705Y-15044936D02*
X15129705Y-15063984D01*
X15129705Y-14940174D02*
X15139229Y-14949698D01*
X15139229Y-14949698D02*
X15129705Y-14959222D01*
X15129705Y-14959222D02*
X15120182Y-14949698D01*
X15120182Y-14949698D02*
X15129705Y-14940174D01*
X15129705Y-14940174D02*
X15129705Y-14959222D01*
D12*
X13467500Y-15377500D02*
X13497500Y-15407500D01*
X13497500Y-15377500D02*
X13467500Y-15407500D01*
D11*
X13796372Y-15283984D02*
X13815420Y-15283984D01*
X13815420Y-15283984D02*
X13834467Y-15293508D01*
X13834467Y-15293508D02*
X13843991Y-15303031D01*
X13843991Y-15303031D02*
X13853515Y-15322079D01*
X13853515Y-15322079D02*
X13863039Y-15360174D01*
X13863039Y-15360174D02*
X13863039Y-15407793D01*
X13863039Y-15407793D02*
X13853515Y-15445888D01*
X13853515Y-15445888D02*
X13843991Y-15464936D01*
X13843991Y-15464936D02*
X13834467Y-15474460D01*
X13834467Y-15474460D02*
X13815420Y-15483984D01*
X13815420Y-15483984D02*
X13796372Y-15483984D01*
X13796372Y-15483984D02*
X13777324Y-15474460D01*
X13777324Y-15474460D02*
X13767801Y-15464936D01*
X13767801Y-15464936D02*
X13758277Y-15445888D01*
X13758277Y-15445888D02*
X13748753Y-15407793D01*
X13748753Y-15407793D02*
X13748753Y-15360174D01*
X13748753Y-15360174D02*
X13758277Y-15322079D01*
X13758277Y-15322079D02*
X13767801Y-15303031D01*
X13767801Y-15303031D02*
X13777324Y-15293508D01*
X13777324Y-15293508D02*
X13796372Y-15283984D01*
X13948753Y-15464936D02*
X13958277Y-15474460D01*
X13958277Y-15474460D02*
X13948753Y-15483984D01*
X13948753Y-15483984D02*
X13939229Y-15474460D01*
X13939229Y-15474460D02*
X13948753Y-15464936D01*
X13948753Y-15464936D02*
X13948753Y-15483984D01*
X14024943Y-15283984D02*
X14148753Y-15283984D01*
X14148753Y-15283984D02*
X14082086Y-15360174D01*
X14082086Y-15360174D02*
X14110658Y-15360174D01*
X14110658Y-15360174D02*
X14129705Y-15369698D01*
X14129705Y-15369698D02*
X14139229Y-15379222D01*
X14139229Y-15379222D02*
X14148753Y-15398269D01*
X14148753Y-15398269D02*
X14148753Y-15445888D01*
X14148753Y-15445888D02*
X14139229Y-15464936D01*
X14139229Y-15464936D02*
X14129705Y-15474460D01*
X14129705Y-15474460D02*
X14110658Y-15483984D01*
X14110658Y-15483984D02*
X14053515Y-15483984D01*
X14053515Y-15483984D02*
X14034467Y-15474460D01*
X14034467Y-15474460D02*
X14024943Y-15464936D01*
X14272562Y-15283984D02*
X14291610Y-15283984D01*
X14291610Y-15283984D02*
X14310658Y-15293508D01*
X14310658Y-15293508D02*
X14320182Y-15303031D01*
X14320182Y-15303031D02*
X14329705Y-15322079D01*
X14329705Y-15322079D02*
X14339229Y-15360174D01*
X14339229Y-15360174D02*
X14339229Y-15407793D01*
X14339229Y-15407793D02*
X14329705Y-15445888D01*
X14329705Y-15445888D02*
X14320182Y-15464936D01*
X14320182Y-15464936D02*
X14310658Y-15474460D01*
X14310658Y-15474460D02*
X14291610Y-15483984D01*
X14291610Y-15483984D02*
X14272562Y-15483984D01*
X14272562Y-15483984D02*
X14253515Y-15474460D01*
X14253515Y-15474460D02*
X14243991Y-15464936D01*
X14243991Y-15464936D02*
X14234467Y-15445888D01*
X14234467Y-15445888D02*
X14224943Y-15407793D01*
X14224943Y-15407793D02*
X14224943Y-15360174D01*
X14224943Y-15360174D02*
X14234467Y-15322079D01*
X14234467Y-15322079D02*
X14243991Y-15303031D01*
X14243991Y-15303031D02*
X14253515Y-15293508D01*
X14253515Y-15293508D02*
X14272562Y-15283984D01*
X14463039Y-15283984D02*
X14482086Y-15283984D01*
X14482086Y-15283984D02*
X14501134Y-15293508D01*
X14501134Y-15293508D02*
X14510658Y-15303031D01*
X14510658Y-15303031D02*
X14520182Y-15322079D01*
X14520182Y-15322079D02*
X14529705Y-15360174D01*
X14529705Y-15360174D02*
X14529705Y-15407793D01*
X14529705Y-15407793D02*
X14520182Y-15445888D01*
X14520182Y-15445888D02*
X14510658Y-15464936D01*
X14510658Y-15464936D02*
X14501134Y-15474460D01*
X14501134Y-15474460D02*
X14482086Y-15483984D01*
X14482086Y-15483984D02*
X14463039Y-15483984D01*
X14463039Y-15483984D02*
X14443991Y-15474460D01*
X14443991Y-15474460D02*
X14434467Y-15464936D01*
X14434467Y-15464936D02*
X14424943Y-15445888D01*
X14424943Y-15445888D02*
X14415420Y-15407793D01*
X14415420Y-15407793D02*
X14415420Y-15360174D01*
X14415420Y-15360174D02*
X14424943Y-15322079D01*
X14424943Y-15322079D02*
X14434467Y-15303031D01*
X14434467Y-15303031D02*
X14443991Y-15293508D01*
X14443991Y-15293508D02*
X14463039Y-15283984D01*
X14615420Y-15483984D02*
X14615420Y-15350650D01*
X14615420Y-15369698D02*
X14624943Y-15360174D01*
X14624943Y-15360174D02*
X14643991Y-15350650D01*
X14643991Y-15350650D02*
X14672563Y-15350650D01*
X14672563Y-15350650D02*
X14691610Y-15360174D01*
X14691610Y-15360174D02*
X14701134Y-15379222D01*
X14701134Y-15379222D02*
X14701134Y-15483984D01*
X14701134Y-15379222D02*
X14710658Y-15360174D01*
X14710658Y-15360174D02*
X14729705Y-15350650D01*
X14729705Y-15350650D02*
X14758277Y-15350650D01*
X14758277Y-15350650D02*
X14777324Y-15360174D01*
X14777324Y-15360174D02*
X14786848Y-15379222D01*
X14786848Y-15379222D02*
X14786848Y-15483984D01*
X14882086Y-15483984D02*
X14882086Y-15350650D01*
X14882086Y-15369698D02*
X14891610Y-15360174D01*
X14891610Y-15360174D02*
X14910658Y-15350650D01*
X14910658Y-15350650D02*
X14939229Y-15350650D01*
X14939229Y-15350650D02*
X14958277Y-15360174D01*
X14958277Y-15360174D02*
X14967801Y-15379222D01*
X14967801Y-15379222D02*
X14967801Y-15483984D01*
X14967801Y-15379222D02*
X14977324Y-15360174D01*
X14977324Y-15360174D02*
X14996372Y-15350650D01*
X14996372Y-15350650D02*
X15024943Y-15350650D01*
X15024943Y-15350650D02*
X15043991Y-15360174D01*
X15043991Y-15360174D02*
X15053515Y-15379222D01*
X15053515Y-15379222D02*
X15053515Y-15483984D01*
X15443991Y-15274460D02*
X15272563Y-15531603D01*
X15701134Y-15283984D02*
X15720182Y-15283984D01*
X15720182Y-15283984D02*
X15739229Y-15293508D01*
X15739229Y-15293508D02*
X15748753Y-15303031D01*
X15748753Y-15303031D02*
X15758277Y-15322079D01*
X15758277Y-15322079D02*
X15767801Y-15360174D01*
X15767801Y-15360174D02*
X15767801Y-15407793D01*
X15767801Y-15407793D02*
X15758277Y-15445888D01*
X15758277Y-15445888D02*
X15748753Y-15464936D01*
X15748753Y-15464936D02*
X15739229Y-15474460D01*
X15739229Y-15474460D02*
X15720182Y-15483984D01*
X15720182Y-15483984D02*
X15701134Y-15483984D01*
X15701134Y-15483984D02*
X15682086Y-15474460D01*
X15682086Y-15474460D02*
X15672563Y-15464936D01*
X15672563Y-15464936D02*
X15663039Y-15445888D01*
X15663039Y-15445888D02*
X15653515Y-15407793D01*
X15653515Y-15407793D02*
X15653515Y-15360174D01*
X15653515Y-15360174D02*
X15663039Y-15322079D01*
X15663039Y-15322079D02*
X15672563Y-15303031D01*
X15672563Y-15303031D02*
X15682086Y-15293508D01*
X15682086Y-15293508D02*
X15701134Y-15283984D01*
X15853515Y-15464936D02*
X15863039Y-15474460D01*
X15863039Y-15474460D02*
X15853515Y-15483984D01*
X15853515Y-15483984D02*
X15843991Y-15474460D01*
X15843991Y-15474460D02*
X15853515Y-15464936D01*
X15853515Y-15464936D02*
X15853515Y-15483984D01*
X15986848Y-15283984D02*
X16005896Y-15283984D01*
X16005896Y-15283984D02*
X16024944Y-15293508D01*
X16024944Y-15293508D02*
X16034467Y-15303031D01*
X16034467Y-15303031D02*
X16043991Y-15322079D01*
X16043991Y-15322079D02*
X16053515Y-15360174D01*
X16053515Y-15360174D02*
X16053515Y-15407793D01*
X16053515Y-15407793D02*
X16043991Y-15445888D01*
X16043991Y-15445888D02*
X16034467Y-15464936D01*
X16034467Y-15464936D02*
X16024944Y-15474460D01*
X16024944Y-15474460D02*
X16005896Y-15483984D01*
X16005896Y-15483984D02*
X15986848Y-15483984D01*
X15986848Y-15483984D02*
X15967801Y-15474460D01*
X15967801Y-15474460D02*
X15958277Y-15464936D01*
X15958277Y-15464936D02*
X15948753Y-15445888D01*
X15948753Y-15445888D02*
X15939229Y-15407793D01*
X15939229Y-15407793D02*
X15939229Y-15360174D01*
X15939229Y-15360174D02*
X15948753Y-15322079D01*
X15948753Y-15322079D02*
X15958277Y-15303031D01*
X15958277Y-15303031D02*
X15967801Y-15293508D01*
X15967801Y-15293508D02*
X15986848Y-15283984D01*
X16243991Y-15483984D02*
X16129706Y-15483984D01*
X16186848Y-15483984D02*
X16186848Y-15283984D01*
X16186848Y-15283984D02*
X16167801Y-15312555D01*
X16167801Y-15312555D02*
X16148753Y-15331603D01*
X16148753Y-15331603D02*
X16129706Y-15341127D01*
X16434467Y-15483984D02*
X16320182Y-15483984D01*
X16377325Y-15483984D02*
X16377325Y-15283984D01*
X16377325Y-15283984D02*
X16358277Y-15312555D01*
X16358277Y-15312555D02*
X16339229Y-15331603D01*
X16339229Y-15331603D02*
X16320182Y-15341127D01*
X16548753Y-15369698D02*
X16529706Y-15360174D01*
X16529706Y-15360174D02*
X16520182Y-15350650D01*
X16520182Y-15350650D02*
X16510658Y-15331603D01*
X16510658Y-15331603D02*
X16510658Y-15322079D01*
X16510658Y-15322079D02*
X16520182Y-15303031D01*
X16520182Y-15303031D02*
X16529706Y-15293508D01*
X16529706Y-15293508D02*
X16548753Y-15283984D01*
X16548753Y-15283984D02*
X16586848Y-15283984D01*
X16586848Y-15283984D02*
X16605896Y-15293508D01*
X16605896Y-15293508D02*
X16615420Y-15303031D01*
X16615420Y-15303031D02*
X16624944Y-15322079D01*
X16624944Y-15322079D02*
X16624944Y-15331603D01*
X16624944Y-15331603D02*
X16615420Y-15350650D01*
X16615420Y-15350650D02*
X16605896Y-15360174D01*
X16605896Y-15360174D02*
X16586848Y-15369698D01*
X16586848Y-15369698D02*
X16548753Y-15369698D01*
X16548753Y-15369698D02*
X16529706Y-15379222D01*
X16529706Y-15379222D02*
X16520182Y-15388746D01*
X16520182Y-15388746D02*
X16510658Y-15407793D01*
X16510658Y-15407793D02*
X16510658Y-15445888D01*
X16510658Y-15445888D02*
X16520182Y-15464936D01*
X16520182Y-15464936D02*
X16529706Y-15474460D01*
X16529706Y-15474460D02*
X16548753Y-15483984D01*
X16548753Y-15483984D02*
X16586848Y-15483984D01*
X16586848Y-15483984D02*
X16605896Y-15474460D01*
X16605896Y-15474460D02*
X16615420Y-15464936D01*
X16615420Y-15464936D02*
X16624944Y-15445888D01*
X16624944Y-15445888D02*
X16624944Y-15407793D01*
X16624944Y-15407793D02*
X16615420Y-15388746D01*
X16615420Y-15388746D02*
X16605896Y-15379222D01*
X16605896Y-15379222D02*
X16586848Y-15369698D01*
X16701134Y-15283984D02*
X16701134Y-15322079D01*
X16777325Y-15283984D02*
X16777325Y-15322079D01*
X17072563Y-15560174D02*
X17063039Y-15550650D01*
X17063039Y-15550650D02*
X17043991Y-15522079D01*
X17043991Y-15522079D02*
X17034468Y-15503031D01*
X17034468Y-15503031D02*
X17024944Y-15474460D01*
X17024944Y-15474460D02*
X17015420Y-15426841D01*
X17015420Y-15426841D02*
X17015420Y-15388746D01*
X17015420Y-15388746D02*
X17024944Y-15341127D01*
X17024944Y-15341127D02*
X17034468Y-15312555D01*
X17034468Y-15312555D02*
X17043991Y-15293508D01*
X17043991Y-15293508D02*
X17063039Y-15264936D01*
X17063039Y-15264936D02*
X17072563Y-15255412D01*
X17253515Y-15483984D02*
X17139230Y-15483984D01*
X17196372Y-15483984D02*
X17196372Y-15283984D01*
X17196372Y-15283984D02*
X17177325Y-15312555D01*
X17177325Y-15312555D02*
X17158277Y-15331603D01*
X17158277Y-15331603D02*
X17139230Y-15341127D01*
X17348753Y-15483984D02*
X17386849Y-15483984D01*
X17386849Y-15483984D02*
X17405896Y-15474460D01*
X17405896Y-15474460D02*
X17415420Y-15464936D01*
X17415420Y-15464936D02*
X17434468Y-15436365D01*
X17434468Y-15436365D02*
X17443991Y-15398269D01*
X17443991Y-15398269D02*
X17443991Y-15322079D01*
X17443991Y-15322079D02*
X17434468Y-15303031D01*
X17434468Y-15303031D02*
X17424944Y-15293508D01*
X17424944Y-15293508D02*
X17405896Y-15283984D01*
X17405896Y-15283984D02*
X17367801Y-15283984D01*
X17367801Y-15283984D02*
X17348753Y-15293508D01*
X17348753Y-15293508D02*
X17339230Y-15303031D01*
X17339230Y-15303031D02*
X17329706Y-15322079D01*
X17329706Y-15322079D02*
X17329706Y-15369698D01*
X17329706Y-15369698D02*
X17339230Y-15388746D01*
X17339230Y-15388746D02*
X17348753Y-15398269D01*
X17348753Y-15398269D02*
X17367801Y-15407793D01*
X17367801Y-15407793D02*
X17405896Y-15407793D01*
X17405896Y-15407793D02*
X17424944Y-15398269D01*
X17424944Y-15398269D02*
X17434468Y-15388746D01*
X17434468Y-15388746D02*
X17443991Y-15369698D01*
X17615420Y-15283984D02*
X17577325Y-15283984D01*
X17577325Y-15283984D02*
X17558277Y-15293508D01*
X17558277Y-15293508D02*
X17548753Y-15303031D01*
X17548753Y-15303031D02*
X17529706Y-15331603D01*
X17529706Y-15331603D02*
X17520182Y-15369698D01*
X17520182Y-15369698D02*
X17520182Y-15445888D01*
X17520182Y-15445888D02*
X17529706Y-15464936D01*
X17529706Y-15464936D02*
X17539230Y-15474460D01*
X17539230Y-15474460D02*
X17558277Y-15483984D01*
X17558277Y-15483984D02*
X17596372Y-15483984D01*
X17596372Y-15483984D02*
X17615420Y-15474460D01*
X17615420Y-15474460D02*
X17624944Y-15464936D01*
X17624944Y-15464936D02*
X17634468Y-15445888D01*
X17634468Y-15445888D02*
X17634468Y-15398269D01*
X17634468Y-15398269D02*
X17624944Y-15379222D01*
X17624944Y-15379222D02*
X17615420Y-15369698D01*
X17615420Y-15369698D02*
X17596372Y-15360174D01*
X17596372Y-15360174D02*
X17558277Y-15360174D01*
X17558277Y-15360174D02*
X17539230Y-15369698D01*
X17539230Y-15369698D02*
X17529706Y-15379222D01*
X17529706Y-15379222D02*
X17520182Y-15398269D01*
X17872563Y-15483984D02*
X17872563Y-15283984D01*
X17958277Y-15483984D02*
X17958277Y-15379222D01*
X17958277Y-15379222D02*
X17948753Y-15360174D01*
X17948753Y-15360174D02*
X17929706Y-15350650D01*
X17929706Y-15350650D02*
X17901134Y-15350650D01*
X17901134Y-15350650D02*
X17882087Y-15360174D01*
X17882087Y-15360174D02*
X17872563Y-15369698D01*
X18082087Y-15483984D02*
X18063039Y-15474460D01*
X18063039Y-15474460D02*
X18053515Y-15464936D01*
X18053515Y-15464936D02*
X18043992Y-15445888D01*
X18043992Y-15445888D02*
X18043992Y-15388746D01*
X18043992Y-15388746D02*
X18053515Y-15369698D01*
X18053515Y-15369698D02*
X18063039Y-15360174D01*
X18063039Y-15360174D02*
X18082087Y-15350650D01*
X18082087Y-15350650D02*
X18110658Y-15350650D01*
X18110658Y-15350650D02*
X18129706Y-15360174D01*
X18129706Y-15360174D02*
X18139230Y-15369698D01*
X18139230Y-15369698D02*
X18148753Y-15388746D01*
X18148753Y-15388746D02*
X18148753Y-15445888D01*
X18148753Y-15445888D02*
X18139230Y-15464936D01*
X18139230Y-15464936D02*
X18129706Y-15474460D01*
X18129706Y-15474460D02*
X18110658Y-15483984D01*
X18110658Y-15483984D02*
X18082087Y-15483984D01*
X18263039Y-15483984D02*
X18243992Y-15474460D01*
X18243992Y-15474460D02*
X18234468Y-15455412D01*
X18234468Y-15455412D02*
X18234468Y-15283984D01*
X18415420Y-15474460D02*
X18396373Y-15483984D01*
X18396373Y-15483984D02*
X18358277Y-15483984D01*
X18358277Y-15483984D02*
X18339230Y-15474460D01*
X18339230Y-15474460D02*
X18329706Y-15455412D01*
X18329706Y-15455412D02*
X18329706Y-15379222D01*
X18329706Y-15379222D02*
X18339230Y-15360174D01*
X18339230Y-15360174D02*
X18358277Y-15350650D01*
X18358277Y-15350650D02*
X18396373Y-15350650D01*
X18396373Y-15350650D02*
X18415420Y-15360174D01*
X18415420Y-15360174D02*
X18424944Y-15379222D01*
X18424944Y-15379222D02*
X18424944Y-15398269D01*
X18424944Y-15398269D02*
X18329706Y-15417317D01*
X18501134Y-15474460D02*
X18520182Y-15483984D01*
X18520182Y-15483984D02*
X18558277Y-15483984D01*
X18558277Y-15483984D02*
X18577325Y-15474460D01*
X18577325Y-15474460D02*
X18586849Y-15455412D01*
X18586849Y-15455412D02*
X18586849Y-15445888D01*
X18586849Y-15445888D02*
X18577325Y-15426841D01*
X18577325Y-15426841D02*
X18558277Y-15417317D01*
X18558277Y-15417317D02*
X18529706Y-15417317D01*
X18529706Y-15417317D02*
X18510658Y-15407793D01*
X18510658Y-15407793D02*
X18501134Y-15388746D01*
X18501134Y-15388746D02*
X18501134Y-15379222D01*
X18501134Y-15379222D02*
X18510658Y-15360174D01*
X18510658Y-15360174D02*
X18529706Y-15350650D01*
X18529706Y-15350650D02*
X18558277Y-15350650D01*
X18558277Y-15350650D02*
X18577325Y-15360174D01*
X18653515Y-15560174D02*
X18663039Y-15550650D01*
X18663039Y-15550650D02*
X18682087Y-15522079D01*
X18682087Y-15522079D02*
X18691611Y-15503031D01*
X18691611Y-15503031D02*
X18701134Y-15474460D01*
X18701134Y-15474460D02*
X18710658Y-15426841D01*
X18710658Y-15426841D02*
X18710658Y-15388746D01*
X18710658Y-15388746D02*
X18701134Y-15341127D01*
X18701134Y-15341127D02*
X18691611Y-15312555D01*
X18691611Y-15312555D02*
X18682087Y-15293508D01*
X18682087Y-15293508D02*
X18663039Y-15264936D01*
X18663039Y-15264936D02*
X18653515Y-15255412D01*
D12*
X13497500Y-15656500D02*
G75*
G02*
X13432500Y-15656500I-32500J0D01*
G01*
X13432500Y-15656500D02*
G75*
G02*
X13497500Y-15656500I32500J0D01*
G01*
D11*
X13796372Y-15547984D02*
X13815420Y-15547984D01*
X13815420Y-15547984D02*
X13834467Y-15557508D01*
X13834467Y-15557508D02*
X13843991Y-15567031D01*
X13843991Y-15567031D02*
X13853515Y-15586079D01*
X13853515Y-15586079D02*
X13863039Y-15624174D01*
X13863039Y-15624174D02*
X13863039Y-15671793D01*
X13863039Y-15671793D02*
X13853515Y-15709888D01*
X13853515Y-15709888D02*
X13843991Y-15728936D01*
X13843991Y-15728936D02*
X13834467Y-15738460D01*
X13834467Y-15738460D02*
X13815420Y-15747984D01*
X13815420Y-15747984D02*
X13796372Y-15747984D01*
X13796372Y-15747984D02*
X13777324Y-15738460D01*
X13777324Y-15738460D02*
X13767801Y-15728936D01*
X13767801Y-15728936D02*
X13758277Y-15709888D01*
X13758277Y-15709888D02*
X13748753Y-15671793D01*
X13748753Y-15671793D02*
X13748753Y-15624174D01*
X13748753Y-15624174D02*
X13758277Y-15586079D01*
X13758277Y-15586079D02*
X13767801Y-15567031D01*
X13767801Y-15567031D02*
X13777324Y-15557508D01*
X13777324Y-15557508D02*
X13796372Y-15547984D01*
X13948753Y-15728936D02*
X13958277Y-15738460D01*
X13958277Y-15738460D02*
X13948753Y-15747984D01*
X13948753Y-15747984D02*
X13939229Y-15738460D01*
X13939229Y-15738460D02*
X13948753Y-15728936D01*
X13948753Y-15728936D02*
X13948753Y-15747984D01*
X14129705Y-15547984D02*
X14091610Y-15547984D01*
X14091610Y-15547984D02*
X14072562Y-15557508D01*
X14072562Y-15557508D02*
X14063039Y-15567031D01*
X14063039Y-15567031D02*
X14043991Y-15595603D01*
X14043991Y-15595603D02*
X14034467Y-15633698D01*
X14034467Y-15633698D02*
X14034467Y-15709888D01*
X14034467Y-15709888D02*
X14043991Y-15728936D01*
X14043991Y-15728936D02*
X14053515Y-15738460D01*
X14053515Y-15738460D02*
X14072562Y-15747984D01*
X14072562Y-15747984D02*
X14110658Y-15747984D01*
X14110658Y-15747984D02*
X14129705Y-15738460D01*
X14129705Y-15738460D02*
X14139229Y-15728936D01*
X14139229Y-15728936D02*
X14148753Y-15709888D01*
X14148753Y-15709888D02*
X14148753Y-15662269D01*
X14148753Y-15662269D02*
X14139229Y-15643222D01*
X14139229Y-15643222D02*
X14129705Y-15633698D01*
X14129705Y-15633698D02*
X14110658Y-15624174D01*
X14110658Y-15624174D02*
X14072562Y-15624174D01*
X14072562Y-15624174D02*
X14053515Y-15633698D01*
X14053515Y-15633698D02*
X14043991Y-15643222D01*
X14043991Y-15643222D02*
X14034467Y-15662269D01*
X14329705Y-15547984D02*
X14234467Y-15547984D01*
X14234467Y-15547984D02*
X14224943Y-15643222D01*
X14224943Y-15643222D02*
X14234467Y-15633698D01*
X14234467Y-15633698D02*
X14253515Y-15624174D01*
X14253515Y-15624174D02*
X14301134Y-15624174D01*
X14301134Y-15624174D02*
X14320182Y-15633698D01*
X14320182Y-15633698D02*
X14329705Y-15643222D01*
X14329705Y-15643222D02*
X14339229Y-15662269D01*
X14339229Y-15662269D02*
X14339229Y-15709888D01*
X14339229Y-15709888D02*
X14329705Y-15728936D01*
X14329705Y-15728936D02*
X14320182Y-15738460D01*
X14320182Y-15738460D02*
X14301134Y-15747984D01*
X14301134Y-15747984D02*
X14253515Y-15747984D01*
X14253515Y-15747984D02*
X14234467Y-15738460D01*
X14234467Y-15738460D02*
X14224943Y-15728936D01*
X14463039Y-15547984D02*
X14482086Y-15547984D01*
X14482086Y-15547984D02*
X14501134Y-15557508D01*
X14501134Y-15557508D02*
X14510658Y-15567031D01*
X14510658Y-15567031D02*
X14520182Y-15586079D01*
X14520182Y-15586079D02*
X14529705Y-15624174D01*
X14529705Y-15624174D02*
X14529705Y-15671793D01*
X14529705Y-15671793D02*
X14520182Y-15709888D01*
X14520182Y-15709888D02*
X14510658Y-15728936D01*
X14510658Y-15728936D02*
X14501134Y-15738460D01*
X14501134Y-15738460D02*
X14482086Y-15747984D01*
X14482086Y-15747984D02*
X14463039Y-15747984D01*
X14463039Y-15747984D02*
X14443991Y-15738460D01*
X14443991Y-15738460D02*
X14434467Y-15728936D01*
X14434467Y-15728936D02*
X14424943Y-15709888D01*
X14424943Y-15709888D02*
X14415420Y-15671793D01*
X14415420Y-15671793D02*
X14415420Y-15624174D01*
X14415420Y-15624174D02*
X14424943Y-15586079D01*
X14424943Y-15586079D02*
X14434467Y-15567031D01*
X14434467Y-15567031D02*
X14443991Y-15557508D01*
X14443991Y-15557508D02*
X14463039Y-15547984D01*
X14615420Y-15747984D02*
X14615420Y-15614650D01*
X14615420Y-15633698D02*
X14624943Y-15624174D01*
X14624943Y-15624174D02*
X14643991Y-15614650D01*
X14643991Y-15614650D02*
X14672563Y-15614650D01*
X14672563Y-15614650D02*
X14691610Y-15624174D01*
X14691610Y-15624174D02*
X14701134Y-15643222D01*
X14701134Y-15643222D02*
X14701134Y-15747984D01*
X14701134Y-15643222D02*
X14710658Y-15624174D01*
X14710658Y-15624174D02*
X14729705Y-15614650D01*
X14729705Y-15614650D02*
X14758277Y-15614650D01*
X14758277Y-15614650D02*
X14777324Y-15624174D01*
X14777324Y-15624174D02*
X14786848Y-15643222D01*
X14786848Y-15643222D02*
X14786848Y-15747984D01*
X14882086Y-15747984D02*
X14882086Y-15614650D01*
X14882086Y-15633698D02*
X14891610Y-15624174D01*
X14891610Y-15624174D02*
X14910658Y-15614650D01*
X14910658Y-15614650D02*
X14939229Y-15614650D01*
X14939229Y-15614650D02*
X14958277Y-15624174D01*
X14958277Y-15624174D02*
X14967801Y-15643222D01*
X14967801Y-15643222D02*
X14967801Y-15747984D01*
X14967801Y-15643222D02*
X14977324Y-15624174D01*
X14977324Y-15624174D02*
X14996372Y-15614650D01*
X14996372Y-15614650D02*
X15024943Y-15614650D01*
X15024943Y-15614650D02*
X15043991Y-15624174D01*
X15043991Y-15624174D02*
X15053515Y-15643222D01*
X15053515Y-15643222D02*
X15053515Y-15747984D01*
X15443991Y-15538460D02*
X15272563Y-15795603D01*
X15701134Y-15547984D02*
X15720182Y-15547984D01*
X15720182Y-15547984D02*
X15739229Y-15557508D01*
X15739229Y-15557508D02*
X15748753Y-15567031D01*
X15748753Y-15567031D02*
X15758277Y-15586079D01*
X15758277Y-15586079D02*
X15767801Y-15624174D01*
X15767801Y-15624174D02*
X15767801Y-15671793D01*
X15767801Y-15671793D02*
X15758277Y-15709888D01*
X15758277Y-15709888D02*
X15748753Y-15728936D01*
X15748753Y-15728936D02*
X15739229Y-15738460D01*
X15739229Y-15738460D02*
X15720182Y-15747984D01*
X15720182Y-15747984D02*
X15701134Y-15747984D01*
X15701134Y-15747984D02*
X15682086Y-15738460D01*
X15682086Y-15738460D02*
X15672563Y-15728936D01*
X15672563Y-15728936D02*
X15663039Y-15709888D01*
X15663039Y-15709888D02*
X15653515Y-15671793D01*
X15653515Y-15671793D02*
X15653515Y-15624174D01*
X15653515Y-15624174D02*
X15663039Y-15586079D01*
X15663039Y-15586079D02*
X15672563Y-15567031D01*
X15672563Y-15567031D02*
X15682086Y-15557508D01*
X15682086Y-15557508D02*
X15701134Y-15547984D01*
X15853515Y-15728936D02*
X15863039Y-15738460D01*
X15863039Y-15738460D02*
X15853515Y-15747984D01*
X15853515Y-15747984D02*
X15843991Y-15738460D01*
X15843991Y-15738460D02*
X15853515Y-15728936D01*
X15853515Y-15728936D02*
X15853515Y-15747984D01*
X15986848Y-15547984D02*
X16005896Y-15547984D01*
X16005896Y-15547984D02*
X16024944Y-15557508D01*
X16024944Y-15557508D02*
X16034467Y-15567031D01*
X16034467Y-15567031D02*
X16043991Y-15586079D01*
X16043991Y-15586079D02*
X16053515Y-15624174D01*
X16053515Y-15624174D02*
X16053515Y-15671793D01*
X16053515Y-15671793D02*
X16043991Y-15709888D01*
X16043991Y-15709888D02*
X16034467Y-15728936D01*
X16034467Y-15728936D02*
X16024944Y-15738460D01*
X16024944Y-15738460D02*
X16005896Y-15747984D01*
X16005896Y-15747984D02*
X15986848Y-15747984D01*
X15986848Y-15747984D02*
X15967801Y-15738460D01*
X15967801Y-15738460D02*
X15958277Y-15728936D01*
X15958277Y-15728936D02*
X15948753Y-15709888D01*
X15948753Y-15709888D02*
X15939229Y-15671793D01*
X15939229Y-15671793D02*
X15939229Y-15624174D01*
X15939229Y-15624174D02*
X15948753Y-15586079D01*
X15948753Y-15586079D02*
X15958277Y-15567031D01*
X15958277Y-15567031D02*
X15967801Y-15557508D01*
X15967801Y-15557508D02*
X15986848Y-15547984D01*
X16129706Y-15567031D02*
X16139229Y-15557508D01*
X16139229Y-15557508D02*
X16158277Y-15547984D01*
X16158277Y-15547984D02*
X16205896Y-15547984D01*
X16205896Y-15547984D02*
X16224944Y-15557508D01*
X16224944Y-15557508D02*
X16234467Y-15567031D01*
X16234467Y-15567031D02*
X16243991Y-15586079D01*
X16243991Y-15586079D02*
X16243991Y-15605127D01*
X16243991Y-15605127D02*
X16234467Y-15633698D01*
X16234467Y-15633698D02*
X16120182Y-15747984D01*
X16120182Y-15747984D02*
X16243991Y-15747984D01*
X16424944Y-15547984D02*
X16329706Y-15547984D01*
X16329706Y-15547984D02*
X16320182Y-15643222D01*
X16320182Y-15643222D02*
X16329706Y-15633698D01*
X16329706Y-15633698D02*
X16348753Y-15624174D01*
X16348753Y-15624174D02*
X16396372Y-15624174D01*
X16396372Y-15624174D02*
X16415420Y-15633698D01*
X16415420Y-15633698D02*
X16424944Y-15643222D01*
X16424944Y-15643222D02*
X16434467Y-15662269D01*
X16434467Y-15662269D02*
X16434467Y-15709888D01*
X16434467Y-15709888D02*
X16424944Y-15728936D01*
X16424944Y-15728936D02*
X16415420Y-15738460D01*
X16415420Y-15738460D02*
X16396372Y-15747984D01*
X16396372Y-15747984D02*
X16348753Y-15747984D01*
X16348753Y-15747984D02*
X16329706Y-15738460D01*
X16329706Y-15738460D02*
X16320182Y-15728936D01*
X16605896Y-15547984D02*
X16567801Y-15547984D01*
X16567801Y-15547984D02*
X16548753Y-15557508D01*
X16548753Y-15557508D02*
X16539229Y-15567031D01*
X16539229Y-15567031D02*
X16520182Y-15595603D01*
X16520182Y-15595603D02*
X16510658Y-15633698D01*
X16510658Y-15633698D02*
X16510658Y-15709888D01*
X16510658Y-15709888D02*
X16520182Y-15728936D01*
X16520182Y-15728936D02*
X16529706Y-15738460D01*
X16529706Y-15738460D02*
X16548753Y-15747984D01*
X16548753Y-15747984D02*
X16586848Y-15747984D01*
X16586848Y-15747984D02*
X16605896Y-15738460D01*
X16605896Y-15738460D02*
X16615420Y-15728936D01*
X16615420Y-15728936D02*
X16624944Y-15709888D01*
X16624944Y-15709888D02*
X16624944Y-15662269D01*
X16624944Y-15662269D02*
X16615420Y-15643222D01*
X16615420Y-15643222D02*
X16605896Y-15633698D01*
X16605896Y-15633698D02*
X16586848Y-15624174D01*
X16586848Y-15624174D02*
X16548753Y-15624174D01*
X16548753Y-15624174D02*
X16529706Y-15633698D01*
X16529706Y-15633698D02*
X16520182Y-15643222D01*
X16520182Y-15643222D02*
X16510658Y-15662269D01*
X16701134Y-15547984D02*
X16701134Y-15586079D01*
X16777325Y-15547984D02*
X16777325Y-15586079D01*
X17072563Y-15824174D02*
X17063039Y-15814650D01*
X17063039Y-15814650D02*
X17043991Y-15786079D01*
X17043991Y-15786079D02*
X17034468Y-15767031D01*
X17034468Y-15767031D02*
X17024944Y-15738460D01*
X17024944Y-15738460D02*
X17015420Y-15690841D01*
X17015420Y-15690841D02*
X17015420Y-15652746D01*
X17015420Y-15652746D02*
X17024944Y-15605127D01*
X17024944Y-15605127D02*
X17034468Y-15576555D01*
X17034468Y-15576555D02*
X17043991Y-15557508D01*
X17043991Y-15557508D02*
X17063039Y-15528936D01*
X17063039Y-15528936D02*
X17072563Y-15519412D01*
X17253515Y-15747984D02*
X17139230Y-15747984D01*
X17196372Y-15747984D02*
X17196372Y-15547984D01*
X17196372Y-15547984D02*
X17177325Y-15576555D01*
X17177325Y-15576555D02*
X17158277Y-15595603D01*
X17158277Y-15595603D02*
X17139230Y-15605127D01*
X17377325Y-15547984D02*
X17396372Y-15547984D01*
X17396372Y-15547984D02*
X17415420Y-15557508D01*
X17415420Y-15557508D02*
X17424944Y-15567031D01*
X17424944Y-15567031D02*
X17434468Y-15586079D01*
X17434468Y-15586079D02*
X17443991Y-15624174D01*
X17443991Y-15624174D02*
X17443991Y-15671793D01*
X17443991Y-15671793D02*
X17434468Y-15709888D01*
X17434468Y-15709888D02*
X17424944Y-15728936D01*
X17424944Y-15728936D02*
X17415420Y-15738460D01*
X17415420Y-15738460D02*
X17396372Y-15747984D01*
X17396372Y-15747984D02*
X17377325Y-15747984D01*
X17377325Y-15747984D02*
X17358277Y-15738460D01*
X17358277Y-15738460D02*
X17348753Y-15728936D01*
X17348753Y-15728936D02*
X17339230Y-15709888D01*
X17339230Y-15709888D02*
X17329706Y-15671793D01*
X17329706Y-15671793D02*
X17329706Y-15624174D01*
X17329706Y-15624174D02*
X17339230Y-15586079D01*
X17339230Y-15586079D02*
X17348753Y-15567031D01*
X17348753Y-15567031D02*
X17358277Y-15557508D01*
X17358277Y-15557508D02*
X17377325Y-15547984D01*
X17682087Y-15747984D02*
X17682087Y-15547984D01*
X17767801Y-15747984D02*
X17767801Y-15643222D01*
X17767801Y-15643222D02*
X17758277Y-15624174D01*
X17758277Y-15624174D02*
X17739230Y-15614650D01*
X17739230Y-15614650D02*
X17710658Y-15614650D01*
X17710658Y-15614650D02*
X17691611Y-15624174D01*
X17691611Y-15624174D02*
X17682087Y-15633698D01*
X17891611Y-15747984D02*
X17872563Y-15738460D01*
X17872563Y-15738460D02*
X17863039Y-15728936D01*
X17863039Y-15728936D02*
X17853515Y-15709888D01*
X17853515Y-15709888D02*
X17853515Y-15652746D01*
X17853515Y-15652746D02*
X17863039Y-15633698D01*
X17863039Y-15633698D02*
X17872563Y-15624174D01*
X17872563Y-15624174D02*
X17891611Y-15614650D01*
X17891611Y-15614650D02*
X17920182Y-15614650D01*
X17920182Y-15614650D02*
X17939230Y-15624174D01*
X17939230Y-15624174D02*
X17948753Y-15633698D01*
X17948753Y-15633698D02*
X17958277Y-15652746D01*
X17958277Y-15652746D02*
X17958277Y-15709888D01*
X17958277Y-15709888D02*
X17948753Y-15728936D01*
X17948753Y-15728936D02*
X17939230Y-15738460D01*
X17939230Y-15738460D02*
X17920182Y-15747984D01*
X17920182Y-15747984D02*
X17891611Y-15747984D01*
X18072563Y-15747984D02*
X18053515Y-15738460D01*
X18053515Y-15738460D02*
X18043992Y-15719412D01*
X18043992Y-15719412D02*
X18043992Y-15547984D01*
X18224944Y-15738460D02*
X18205896Y-15747984D01*
X18205896Y-15747984D02*
X18167801Y-15747984D01*
X18167801Y-15747984D02*
X18148753Y-15738460D01*
X18148753Y-15738460D02*
X18139230Y-15719412D01*
X18139230Y-15719412D02*
X18139230Y-15643222D01*
X18139230Y-15643222D02*
X18148753Y-15624174D01*
X18148753Y-15624174D02*
X18167801Y-15614650D01*
X18167801Y-15614650D02*
X18205896Y-15614650D01*
X18205896Y-15614650D02*
X18224944Y-15624174D01*
X18224944Y-15624174D02*
X18234468Y-15643222D01*
X18234468Y-15643222D02*
X18234468Y-15662269D01*
X18234468Y-15662269D02*
X18139230Y-15681317D01*
X18310658Y-15738460D02*
X18329706Y-15747984D01*
X18329706Y-15747984D02*
X18367801Y-15747984D01*
X18367801Y-15747984D02*
X18386849Y-15738460D01*
X18386849Y-15738460D02*
X18396373Y-15719412D01*
X18396373Y-15719412D02*
X18396373Y-15709888D01*
X18396373Y-15709888D02*
X18386849Y-15690841D01*
X18386849Y-15690841D02*
X18367801Y-15681317D01*
X18367801Y-15681317D02*
X18339230Y-15681317D01*
X18339230Y-15681317D02*
X18320182Y-15671793D01*
X18320182Y-15671793D02*
X18310658Y-15652746D01*
X18310658Y-15652746D02*
X18310658Y-15643222D01*
X18310658Y-15643222D02*
X18320182Y-15624174D01*
X18320182Y-15624174D02*
X18339230Y-15614650D01*
X18339230Y-15614650D02*
X18367801Y-15614650D01*
X18367801Y-15614650D02*
X18386849Y-15624174D01*
X18463039Y-15824174D02*
X18472563Y-15814650D01*
X18472563Y-15814650D02*
X18491611Y-15786079D01*
X18491611Y-15786079D02*
X18501134Y-15767031D01*
X18501134Y-15767031D02*
X18510658Y-15738460D01*
X18510658Y-15738460D02*
X18520182Y-15690841D01*
X18520182Y-15690841D02*
X18520182Y-15652746D01*
X18520182Y-15652746D02*
X18510658Y-15605127D01*
X18510658Y-15605127D02*
X18501134Y-15576555D01*
X18501134Y-15576555D02*
X18491611Y-15557508D01*
X18491611Y-15557508D02*
X18472563Y-15528936D01*
X18472563Y-15528936D02*
X18463039Y-15519412D01*
D12*
X13460000Y-15883000D02*
X13460000Y-15958000D01*
X13422500Y-15920500D02*
X13497500Y-15920500D01*
D11*
X13796372Y-15811984D02*
X13815420Y-15811984D01*
X13815420Y-15811984D02*
X13834467Y-15821508D01*
X13834467Y-15821508D02*
X13843991Y-15831031D01*
X13843991Y-15831031D02*
X13853515Y-15850079D01*
X13853515Y-15850079D02*
X13863039Y-15888174D01*
X13863039Y-15888174D02*
X13863039Y-15935793D01*
X13863039Y-15935793D02*
X13853515Y-15973888D01*
X13853515Y-15973888D02*
X13843991Y-15992936D01*
X13843991Y-15992936D02*
X13834467Y-16002460D01*
X13834467Y-16002460D02*
X13815420Y-16011984D01*
X13815420Y-16011984D02*
X13796372Y-16011984D01*
X13796372Y-16011984D02*
X13777324Y-16002460D01*
X13777324Y-16002460D02*
X13767801Y-15992936D01*
X13767801Y-15992936D02*
X13758277Y-15973888D01*
X13758277Y-15973888D02*
X13748753Y-15935793D01*
X13748753Y-15935793D02*
X13748753Y-15888174D01*
X13748753Y-15888174D02*
X13758277Y-15850079D01*
X13758277Y-15850079D02*
X13767801Y-15831031D01*
X13767801Y-15831031D02*
X13777324Y-15821508D01*
X13777324Y-15821508D02*
X13796372Y-15811984D01*
X13948753Y-15992936D02*
X13958277Y-16002460D01*
X13958277Y-16002460D02*
X13948753Y-16011984D01*
X13948753Y-16011984D02*
X13939229Y-16002460D01*
X13939229Y-16002460D02*
X13948753Y-15992936D01*
X13948753Y-15992936D02*
X13948753Y-16011984D01*
X14024943Y-15811984D02*
X14158277Y-15811984D01*
X14158277Y-15811984D02*
X14072562Y-16011984D01*
X14329705Y-15811984D02*
X14234467Y-15811984D01*
X14234467Y-15811984D02*
X14224943Y-15907222D01*
X14224943Y-15907222D02*
X14234467Y-15897698D01*
X14234467Y-15897698D02*
X14253515Y-15888174D01*
X14253515Y-15888174D02*
X14301134Y-15888174D01*
X14301134Y-15888174D02*
X14320182Y-15897698D01*
X14320182Y-15897698D02*
X14329705Y-15907222D01*
X14329705Y-15907222D02*
X14339229Y-15926269D01*
X14339229Y-15926269D02*
X14339229Y-15973888D01*
X14339229Y-15973888D02*
X14329705Y-15992936D01*
X14329705Y-15992936D02*
X14320182Y-16002460D01*
X14320182Y-16002460D02*
X14301134Y-16011984D01*
X14301134Y-16011984D02*
X14253515Y-16011984D01*
X14253515Y-16011984D02*
X14234467Y-16002460D01*
X14234467Y-16002460D02*
X14224943Y-15992936D01*
X14463039Y-15811984D02*
X14482086Y-15811984D01*
X14482086Y-15811984D02*
X14501134Y-15821508D01*
X14501134Y-15821508D02*
X14510658Y-15831031D01*
X14510658Y-15831031D02*
X14520182Y-15850079D01*
X14520182Y-15850079D02*
X14529705Y-15888174D01*
X14529705Y-15888174D02*
X14529705Y-15935793D01*
X14529705Y-15935793D02*
X14520182Y-15973888D01*
X14520182Y-15973888D02*
X14510658Y-15992936D01*
X14510658Y-15992936D02*
X14501134Y-16002460D01*
X14501134Y-16002460D02*
X14482086Y-16011984D01*
X14482086Y-16011984D02*
X14463039Y-16011984D01*
X14463039Y-16011984D02*
X14443991Y-16002460D01*
X14443991Y-16002460D02*
X14434467Y-15992936D01*
X14434467Y-15992936D02*
X14424943Y-15973888D01*
X14424943Y-15973888D02*
X14415420Y-15935793D01*
X14415420Y-15935793D02*
X14415420Y-15888174D01*
X14415420Y-15888174D02*
X14424943Y-15850079D01*
X14424943Y-15850079D02*
X14434467Y-15831031D01*
X14434467Y-15831031D02*
X14443991Y-15821508D01*
X14443991Y-15821508D02*
X14463039Y-15811984D01*
X14615420Y-16011984D02*
X14615420Y-15878650D01*
X14615420Y-15897698D02*
X14624943Y-15888174D01*
X14624943Y-15888174D02*
X14643991Y-15878650D01*
X14643991Y-15878650D02*
X14672563Y-15878650D01*
X14672563Y-15878650D02*
X14691610Y-15888174D01*
X14691610Y-15888174D02*
X14701134Y-15907222D01*
X14701134Y-15907222D02*
X14701134Y-16011984D01*
X14701134Y-15907222D02*
X14710658Y-15888174D01*
X14710658Y-15888174D02*
X14729705Y-15878650D01*
X14729705Y-15878650D02*
X14758277Y-15878650D01*
X14758277Y-15878650D02*
X14777324Y-15888174D01*
X14777324Y-15888174D02*
X14786848Y-15907222D01*
X14786848Y-15907222D02*
X14786848Y-16011984D01*
X14882086Y-16011984D02*
X14882086Y-15878650D01*
X14882086Y-15897698D02*
X14891610Y-15888174D01*
X14891610Y-15888174D02*
X14910658Y-15878650D01*
X14910658Y-15878650D02*
X14939229Y-15878650D01*
X14939229Y-15878650D02*
X14958277Y-15888174D01*
X14958277Y-15888174D02*
X14967801Y-15907222D01*
X14967801Y-15907222D02*
X14967801Y-16011984D01*
X14967801Y-15907222D02*
X14977324Y-15888174D01*
X14977324Y-15888174D02*
X14996372Y-15878650D01*
X14996372Y-15878650D02*
X15024943Y-15878650D01*
X15024943Y-15878650D02*
X15043991Y-15888174D01*
X15043991Y-15888174D02*
X15053515Y-15907222D01*
X15053515Y-15907222D02*
X15053515Y-16011984D01*
X15443991Y-15802460D02*
X15272563Y-16059603D01*
X15701134Y-15811984D02*
X15720182Y-15811984D01*
X15720182Y-15811984D02*
X15739229Y-15821508D01*
X15739229Y-15821508D02*
X15748753Y-15831031D01*
X15748753Y-15831031D02*
X15758277Y-15850079D01*
X15758277Y-15850079D02*
X15767801Y-15888174D01*
X15767801Y-15888174D02*
X15767801Y-15935793D01*
X15767801Y-15935793D02*
X15758277Y-15973888D01*
X15758277Y-15973888D02*
X15748753Y-15992936D01*
X15748753Y-15992936D02*
X15739229Y-16002460D01*
X15739229Y-16002460D02*
X15720182Y-16011984D01*
X15720182Y-16011984D02*
X15701134Y-16011984D01*
X15701134Y-16011984D02*
X15682086Y-16002460D01*
X15682086Y-16002460D02*
X15672563Y-15992936D01*
X15672563Y-15992936D02*
X15663039Y-15973888D01*
X15663039Y-15973888D02*
X15653515Y-15935793D01*
X15653515Y-15935793D02*
X15653515Y-15888174D01*
X15653515Y-15888174D02*
X15663039Y-15850079D01*
X15663039Y-15850079D02*
X15672563Y-15831031D01*
X15672563Y-15831031D02*
X15682086Y-15821508D01*
X15682086Y-15821508D02*
X15701134Y-15811984D01*
X15853515Y-15992936D02*
X15863039Y-16002460D01*
X15863039Y-16002460D02*
X15853515Y-16011984D01*
X15853515Y-16011984D02*
X15843991Y-16002460D01*
X15843991Y-16002460D02*
X15853515Y-15992936D01*
X15853515Y-15992936D02*
X15853515Y-16011984D01*
X15986848Y-15811984D02*
X16005896Y-15811984D01*
X16005896Y-15811984D02*
X16024944Y-15821508D01*
X16024944Y-15821508D02*
X16034467Y-15831031D01*
X16034467Y-15831031D02*
X16043991Y-15850079D01*
X16043991Y-15850079D02*
X16053515Y-15888174D01*
X16053515Y-15888174D02*
X16053515Y-15935793D01*
X16053515Y-15935793D02*
X16043991Y-15973888D01*
X16043991Y-15973888D02*
X16034467Y-15992936D01*
X16034467Y-15992936D02*
X16024944Y-16002460D01*
X16024944Y-16002460D02*
X16005896Y-16011984D01*
X16005896Y-16011984D02*
X15986848Y-16011984D01*
X15986848Y-16011984D02*
X15967801Y-16002460D01*
X15967801Y-16002460D02*
X15958277Y-15992936D01*
X15958277Y-15992936D02*
X15948753Y-15973888D01*
X15948753Y-15973888D02*
X15939229Y-15935793D01*
X15939229Y-15935793D02*
X15939229Y-15888174D01*
X15939229Y-15888174D02*
X15948753Y-15850079D01*
X15948753Y-15850079D02*
X15958277Y-15831031D01*
X15958277Y-15831031D02*
X15967801Y-15821508D01*
X15967801Y-15821508D02*
X15986848Y-15811984D01*
X16129706Y-15831031D02*
X16139229Y-15821508D01*
X16139229Y-15821508D02*
X16158277Y-15811984D01*
X16158277Y-15811984D02*
X16205896Y-15811984D01*
X16205896Y-15811984D02*
X16224944Y-15821508D01*
X16224944Y-15821508D02*
X16234467Y-15831031D01*
X16234467Y-15831031D02*
X16243991Y-15850079D01*
X16243991Y-15850079D02*
X16243991Y-15869127D01*
X16243991Y-15869127D02*
X16234467Y-15897698D01*
X16234467Y-15897698D02*
X16120182Y-16011984D01*
X16120182Y-16011984D02*
X16243991Y-16011984D01*
X16339229Y-16011984D02*
X16377325Y-16011984D01*
X16377325Y-16011984D02*
X16396372Y-16002460D01*
X16396372Y-16002460D02*
X16405896Y-15992936D01*
X16405896Y-15992936D02*
X16424944Y-15964365D01*
X16424944Y-15964365D02*
X16434467Y-15926269D01*
X16434467Y-15926269D02*
X16434467Y-15850079D01*
X16434467Y-15850079D02*
X16424944Y-15831031D01*
X16424944Y-15831031D02*
X16415420Y-15821508D01*
X16415420Y-15821508D02*
X16396372Y-15811984D01*
X16396372Y-15811984D02*
X16358277Y-15811984D01*
X16358277Y-15811984D02*
X16339229Y-15821508D01*
X16339229Y-15821508D02*
X16329706Y-15831031D01*
X16329706Y-15831031D02*
X16320182Y-15850079D01*
X16320182Y-15850079D02*
X16320182Y-15897698D01*
X16320182Y-15897698D02*
X16329706Y-15916746D01*
X16329706Y-15916746D02*
X16339229Y-15926269D01*
X16339229Y-15926269D02*
X16358277Y-15935793D01*
X16358277Y-15935793D02*
X16396372Y-15935793D01*
X16396372Y-15935793D02*
X16415420Y-15926269D01*
X16415420Y-15926269D02*
X16424944Y-15916746D01*
X16424944Y-15916746D02*
X16434467Y-15897698D01*
X16615420Y-15811984D02*
X16520182Y-15811984D01*
X16520182Y-15811984D02*
X16510658Y-15907222D01*
X16510658Y-15907222D02*
X16520182Y-15897698D01*
X16520182Y-15897698D02*
X16539229Y-15888174D01*
X16539229Y-15888174D02*
X16586848Y-15888174D01*
X16586848Y-15888174D02*
X16605896Y-15897698D01*
X16605896Y-15897698D02*
X16615420Y-15907222D01*
X16615420Y-15907222D02*
X16624944Y-15926269D01*
X16624944Y-15926269D02*
X16624944Y-15973888D01*
X16624944Y-15973888D02*
X16615420Y-15992936D01*
X16615420Y-15992936D02*
X16605896Y-16002460D01*
X16605896Y-16002460D02*
X16586848Y-16011984D01*
X16586848Y-16011984D02*
X16539229Y-16011984D01*
X16539229Y-16011984D02*
X16520182Y-16002460D01*
X16520182Y-16002460D02*
X16510658Y-15992936D01*
X16701134Y-15811984D02*
X16701134Y-15850079D01*
X16777325Y-15811984D02*
X16777325Y-15850079D01*
X17072563Y-16088174D02*
X17063039Y-16078650D01*
X17063039Y-16078650D02*
X17043991Y-16050079D01*
X17043991Y-16050079D02*
X17034468Y-16031031D01*
X17034468Y-16031031D02*
X17024944Y-16002460D01*
X17024944Y-16002460D02*
X17015420Y-15954841D01*
X17015420Y-15954841D02*
X17015420Y-15916746D01*
X17015420Y-15916746D02*
X17024944Y-15869127D01*
X17024944Y-15869127D02*
X17034468Y-15840555D01*
X17034468Y-15840555D02*
X17043991Y-15821508D01*
X17043991Y-15821508D02*
X17063039Y-15792936D01*
X17063039Y-15792936D02*
X17072563Y-15783412D01*
X17139230Y-15831031D02*
X17148753Y-15821508D01*
X17148753Y-15821508D02*
X17167801Y-15811984D01*
X17167801Y-15811984D02*
X17215420Y-15811984D01*
X17215420Y-15811984D02*
X17234468Y-15821508D01*
X17234468Y-15821508D02*
X17243991Y-15831031D01*
X17243991Y-15831031D02*
X17253515Y-15850079D01*
X17253515Y-15850079D02*
X17253515Y-15869127D01*
X17253515Y-15869127D02*
X17243991Y-15897698D01*
X17243991Y-15897698D02*
X17129706Y-16011984D01*
X17129706Y-16011984D02*
X17253515Y-16011984D01*
X17443991Y-16011984D02*
X17329706Y-16011984D01*
X17386849Y-16011984D02*
X17386849Y-15811984D01*
X17386849Y-15811984D02*
X17367801Y-15840555D01*
X17367801Y-15840555D02*
X17348753Y-15859603D01*
X17348753Y-15859603D02*
X17329706Y-15869127D01*
X17682087Y-16011984D02*
X17682087Y-15811984D01*
X17767801Y-16011984D02*
X17767801Y-15907222D01*
X17767801Y-15907222D02*
X17758277Y-15888174D01*
X17758277Y-15888174D02*
X17739230Y-15878650D01*
X17739230Y-15878650D02*
X17710658Y-15878650D01*
X17710658Y-15878650D02*
X17691611Y-15888174D01*
X17691611Y-15888174D02*
X17682087Y-15897698D01*
X17891611Y-16011984D02*
X17872563Y-16002460D01*
X17872563Y-16002460D02*
X17863039Y-15992936D01*
X17863039Y-15992936D02*
X17853515Y-15973888D01*
X17853515Y-15973888D02*
X17853515Y-15916746D01*
X17853515Y-15916746D02*
X17863039Y-15897698D01*
X17863039Y-15897698D02*
X17872563Y-15888174D01*
X17872563Y-15888174D02*
X17891611Y-15878650D01*
X17891611Y-15878650D02*
X17920182Y-15878650D01*
X17920182Y-15878650D02*
X17939230Y-15888174D01*
X17939230Y-15888174D02*
X17948753Y-15897698D01*
X17948753Y-15897698D02*
X17958277Y-15916746D01*
X17958277Y-15916746D02*
X17958277Y-15973888D01*
X17958277Y-15973888D02*
X17948753Y-15992936D01*
X17948753Y-15992936D02*
X17939230Y-16002460D01*
X17939230Y-16002460D02*
X17920182Y-16011984D01*
X17920182Y-16011984D02*
X17891611Y-16011984D01*
X18072563Y-16011984D02*
X18053515Y-16002460D01*
X18053515Y-16002460D02*
X18043992Y-15983412D01*
X18043992Y-15983412D02*
X18043992Y-15811984D01*
X18224944Y-16002460D02*
X18205896Y-16011984D01*
X18205896Y-16011984D02*
X18167801Y-16011984D01*
X18167801Y-16011984D02*
X18148753Y-16002460D01*
X18148753Y-16002460D02*
X18139230Y-15983412D01*
X18139230Y-15983412D02*
X18139230Y-15907222D01*
X18139230Y-15907222D02*
X18148753Y-15888174D01*
X18148753Y-15888174D02*
X18167801Y-15878650D01*
X18167801Y-15878650D02*
X18205896Y-15878650D01*
X18205896Y-15878650D02*
X18224944Y-15888174D01*
X18224944Y-15888174D02*
X18234468Y-15907222D01*
X18234468Y-15907222D02*
X18234468Y-15926269D01*
X18234468Y-15926269D02*
X18139230Y-15945317D01*
X18310658Y-16002460D02*
X18329706Y-16011984D01*
X18329706Y-16011984D02*
X18367801Y-16011984D01*
X18367801Y-16011984D02*
X18386849Y-16002460D01*
X18386849Y-16002460D02*
X18396373Y-15983412D01*
X18396373Y-15983412D02*
X18396373Y-15973888D01*
X18396373Y-15973888D02*
X18386849Y-15954841D01*
X18386849Y-15954841D02*
X18367801Y-15945317D01*
X18367801Y-15945317D02*
X18339230Y-15945317D01*
X18339230Y-15945317D02*
X18320182Y-15935793D01*
X18320182Y-15935793D02*
X18310658Y-15916746D01*
X18310658Y-15916746D02*
X18310658Y-15907222D01*
X18310658Y-15907222D02*
X18320182Y-15888174D01*
X18320182Y-15888174D02*
X18339230Y-15878650D01*
X18339230Y-15878650D02*
X18367801Y-15878650D01*
X18367801Y-15878650D02*
X18386849Y-15888174D01*
X18463039Y-16088174D02*
X18472563Y-16078650D01*
X18472563Y-16078650D02*
X18491611Y-16050079D01*
X18491611Y-16050079D02*
X18501134Y-16031031D01*
X18501134Y-16031031D02*
X18510658Y-16002460D01*
X18510658Y-16002460D02*
X18520182Y-15954841D01*
X18520182Y-15954841D02*
X18520182Y-15916746D01*
X18520182Y-15916746D02*
X18510658Y-15869127D01*
X18510658Y-15869127D02*
X18501134Y-15840555D01*
X18501134Y-15840555D02*
X18491611Y-15821508D01*
X18491611Y-15821508D02*
X18472563Y-15792936D01*
X18472563Y-15792936D02*
X18463039Y-15783412D01*
D12*
X13482856Y-16219856D02*
X13482856Y-16149144D01*
X13412144Y-16149144D01*
X13412144Y-16219856D01*
X13482856Y-16219856D01*
D11*
X13863039Y-16275984D02*
X13748753Y-16275984D01*
X13805896Y-16275984D02*
X13805896Y-16075984D01*
X13805896Y-16075984D02*
X13786848Y-16104555D01*
X13786848Y-16104555D02*
X13767801Y-16123603D01*
X13767801Y-16123603D02*
X13748753Y-16133127D01*
X13948753Y-16256936D02*
X13958277Y-16266460D01*
X13958277Y-16266460D02*
X13948753Y-16275984D01*
X13948753Y-16275984D02*
X13939229Y-16266460D01*
X13939229Y-16266460D02*
X13948753Y-16256936D01*
X13948753Y-16256936D02*
X13948753Y-16275984D01*
X14082086Y-16075984D02*
X14101134Y-16075984D01*
X14101134Y-16075984D02*
X14120182Y-16085508D01*
X14120182Y-16085508D02*
X14129705Y-16095031D01*
X14129705Y-16095031D02*
X14139229Y-16114079D01*
X14139229Y-16114079D02*
X14148753Y-16152174D01*
X14148753Y-16152174D02*
X14148753Y-16199793D01*
X14148753Y-16199793D02*
X14139229Y-16237888D01*
X14139229Y-16237888D02*
X14129705Y-16256936D01*
X14129705Y-16256936D02*
X14120182Y-16266460D01*
X14120182Y-16266460D02*
X14101134Y-16275984D01*
X14101134Y-16275984D02*
X14082086Y-16275984D01*
X14082086Y-16275984D02*
X14063039Y-16266460D01*
X14063039Y-16266460D02*
X14053515Y-16256936D01*
X14053515Y-16256936D02*
X14043991Y-16237888D01*
X14043991Y-16237888D02*
X14034467Y-16199793D01*
X14034467Y-16199793D02*
X14034467Y-16152174D01*
X14034467Y-16152174D02*
X14043991Y-16114079D01*
X14043991Y-16114079D02*
X14053515Y-16095031D01*
X14053515Y-16095031D02*
X14063039Y-16085508D01*
X14063039Y-16085508D02*
X14082086Y-16075984D01*
X14272562Y-16075984D02*
X14291610Y-16075984D01*
X14291610Y-16075984D02*
X14310658Y-16085508D01*
X14310658Y-16085508D02*
X14320182Y-16095031D01*
X14320182Y-16095031D02*
X14329705Y-16114079D01*
X14329705Y-16114079D02*
X14339229Y-16152174D01*
X14339229Y-16152174D02*
X14339229Y-16199793D01*
X14339229Y-16199793D02*
X14329705Y-16237888D01*
X14329705Y-16237888D02*
X14320182Y-16256936D01*
X14320182Y-16256936D02*
X14310658Y-16266460D01*
X14310658Y-16266460D02*
X14291610Y-16275984D01*
X14291610Y-16275984D02*
X14272562Y-16275984D01*
X14272562Y-16275984D02*
X14253515Y-16266460D01*
X14253515Y-16266460D02*
X14243991Y-16256936D01*
X14243991Y-16256936D02*
X14234467Y-16237888D01*
X14234467Y-16237888D02*
X14224943Y-16199793D01*
X14224943Y-16199793D02*
X14224943Y-16152174D01*
X14224943Y-16152174D02*
X14234467Y-16114079D01*
X14234467Y-16114079D02*
X14243991Y-16095031D01*
X14243991Y-16095031D02*
X14253515Y-16085508D01*
X14253515Y-16085508D02*
X14272562Y-16075984D01*
X14463039Y-16075984D02*
X14482086Y-16075984D01*
X14482086Y-16075984D02*
X14501134Y-16085508D01*
X14501134Y-16085508D02*
X14510658Y-16095031D01*
X14510658Y-16095031D02*
X14520182Y-16114079D01*
X14520182Y-16114079D02*
X14529705Y-16152174D01*
X14529705Y-16152174D02*
X14529705Y-16199793D01*
X14529705Y-16199793D02*
X14520182Y-16237888D01*
X14520182Y-16237888D02*
X14510658Y-16256936D01*
X14510658Y-16256936D02*
X14501134Y-16266460D01*
X14501134Y-16266460D02*
X14482086Y-16275984D01*
X14482086Y-16275984D02*
X14463039Y-16275984D01*
X14463039Y-16275984D02*
X14443991Y-16266460D01*
X14443991Y-16266460D02*
X14434467Y-16256936D01*
X14434467Y-16256936D02*
X14424943Y-16237888D01*
X14424943Y-16237888D02*
X14415420Y-16199793D01*
X14415420Y-16199793D02*
X14415420Y-16152174D01*
X14415420Y-16152174D02*
X14424943Y-16114079D01*
X14424943Y-16114079D02*
X14434467Y-16095031D01*
X14434467Y-16095031D02*
X14443991Y-16085508D01*
X14443991Y-16085508D02*
X14463039Y-16075984D01*
X14615420Y-16275984D02*
X14615420Y-16142650D01*
X14615420Y-16161698D02*
X14624943Y-16152174D01*
X14624943Y-16152174D02*
X14643991Y-16142650D01*
X14643991Y-16142650D02*
X14672563Y-16142650D01*
X14672563Y-16142650D02*
X14691610Y-16152174D01*
X14691610Y-16152174D02*
X14701134Y-16171222D01*
X14701134Y-16171222D02*
X14701134Y-16275984D01*
X14701134Y-16171222D02*
X14710658Y-16152174D01*
X14710658Y-16152174D02*
X14729705Y-16142650D01*
X14729705Y-16142650D02*
X14758277Y-16142650D01*
X14758277Y-16142650D02*
X14777324Y-16152174D01*
X14777324Y-16152174D02*
X14786848Y-16171222D01*
X14786848Y-16171222D02*
X14786848Y-16275984D01*
X14882086Y-16275984D02*
X14882086Y-16142650D01*
X14882086Y-16161698D02*
X14891610Y-16152174D01*
X14891610Y-16152174D02*
X14910658Y-16142650D01*
X14910658Y-16142650D02*
X14939229Y-16142650D01*
X14939229Y-16142650D02*
X14958277Y-16152174D01*
X14958277Y-16152174D02*
X14967801Y-16171222D01*
X14967801Y-16171222D02*
X14967801Y-16275984D01*
X14967801Y-16171222D02*
X14977324Y-16152174D01*
X14977324Y-16152174D02*
X14996372Y-16142650D01*
X14996372Y-16142650D02*
X15024943Y-16142650D01*
X15024943Y-16142650D02*
X15043991Y-16152174D01*
X15043991Y-16152174D02*
X15053515Y-16171222D01*
X15053515Y-16171222D02*
X15053515Y-16275984D01*
X15443991Y-16066460D02*
X15272563Y-16323603D01*
X15701134Y-16075984D02*
X15720182Y-16075984D01*
X15720182Y-16075984D02*
X15739229Y-16085508D01*
X15739229Y-16085508D02*
X15748753Y-16095031D01*
X15748753Y-16095031D02*
X15758277Y-16114079D01*
X15758277Y-16114079D02*
X15767801Y-16152174D01*
X15767801Y-16152174D02*
X15767801Y-16199793D01*
X15767801Y-16199793D02*
X15758277Y-16237888D01*
X15758277Y-16237888D02*
X15748753Y-16256936D01*
X15748753Y-16256936D02*
X15739229Y-16266460D01*
X15739229Y-16266460D02*
X15720182Y-16275984D01*
X15720182Y-16275984D02*
X15701134Y-16275984D01*
X15701134Y-16275984D02*
X15682086Y-16266460D01*
X15682086Y-16266460D02*
X15672563Y-16256936D01*
X15672563Y-16256936D02*
X15663039Y-16237888D01*
X15663039Y-16237888D02*
X15653515Y-16199793D01*
X15653515Y-16199793D02*
X15653515Y-16152174D01*
X15653515Y-16152174D02*
X15663039Y-16114079D01*
X15663039Y-16114079D02*
X15672563Y-16095031D01*
X15672563Y-16095031D02*
X15682086Y-16085508D01*
X15682086Y-16085508D02*
X15701134Y-16075984D01*
X15853515Y-16256936D02*
X15863039Y-16266460D01*
X15863039Y-16266460D02*
X15853515Y-16275984D01*
X15853515Y-16275984D02*
X15843991Y-16266460D01*
X15843991Y-16266460D02*
X15853515Y-16256936D01*
X15853515Y-16256936D02*
X15853515Y-16275984D01*
X15986848Y-16075984D02*
X16005896Y-16075984D01*
X16005896Y-16075984D02*
X16024944Y-16085508D01*
X16024944Y-16085508D02*
X16034467Y-16095031D01*
X16034467Y-16095031D02*
X16043991Y-16114079D01*
X16043991Y-16114079D02*
X16053515Y-16152174D01*
X16053515Y-16152174D02*
X16053515Y-16199793D01*
X16053515Y-16199793D02*
X16043991Y-16237888D01*
X16043991Y-16237888D02*
X16034467Y-16256936D01*
X16034467Y-16256936D02*
X16024944Y-16266460D01*
X16024944Y-16266460D02*
X16005896Y-16275984D01*
X16005896Y-16275984D02*
X15986848Y-16275984D01*
X15986848Y-16275984D02*
X15967801Y-16266460D01*
X15967801Y-16266460D02*
X15958277Y-16256936D01*
X15958277Y-16256936D02*
X15948753Y-16237888D01*
X15948753Y-16237888D02*
X15939229Y-16199793D01*
X15939229Y-16199793D02*
X15939229Y-16152174D01*
X15939229Y-16152174D02*
X15948753Y-16114079D01*
X15948753Y-16114079D02*
X15958277Y-16095031D01*
X15958277Y-16095031D02*
X15967801Y-16085508D01*
X15967801Y-16085508D02*
X15986848Y-16075984D01*
X16120182Y-16075984D02*
X16243991Y-16075984D01*
X16243991Y-16075984D02*
X16177325Y-16152174D01*
X16177325Y-16152174D02*
X16205896Y-16152174D01*
X16205896Y-16152174D02*
X16224944Y-16161698D01*
X16224944Y-16161698D02*
X16234467Y-16171222D01*
X16234467Y-16171222D02*
X16243991Y-16190269D01*
X16243991Y-16190269D02*
X16243991Y-16237888D01*
X16243991Y-16237888D02*
X16234467Y-16256936D01*
X16234467Y-16256936D02*
X16224944Y-16266460D01*
X16224944Y-16266460D02*
X16205896Y-16275984D01*
X16205896Y-16275984D02*
X16148753Y-16275984D01*
X16148753Y-16275984D02*
X16129706Y-16266460D01*
X16129706Y-16266460D02*
X16120182Y-16256936D01*
X16339229Y-16275984D02*
X16377325Y-16275984D01*
X16377325Y-16275984D02*
X16396372Y-16266460D01*
X16396372Y-16266460D02*
X16405896Y-16256936D01*
X16405896Y-16256936D02*
X16424944Y-16228365D01*
X16424944Y-16228365D02*
X16434467Y-16190269D01*
X16434467Y-16190269D02*
X16434467Y-16114079D01*
X16434467Y-16114079D02*
X16424944Y-16095031D01*
X16424944Y-16095031D02*
X16415420Y-16085508D01*
X16415420Y-16085508D02*
X16396372Y-16075984D01*
X16396372Y-16075984D02*
X16358277Y-16075984D01*
X16358277Y-16075984D02*
X16339229Y-16085508D01*
X16339229Y-16085508D02*
X16329706Y-16095031D01*
X16329706Y-16095031D02*
X16320182Y-16114079D01*
X16320182Y-16114079D02*
X16320182Y-16161698D01*
X16320182Y-16161698D02*
X16329706Y-16180746D01*
X16329706Y-16180746D02*
X16339229Y-16190269D01*
X16339229Y-16190269D02*
X16358277Y-16199793D01*
X16358277Y-16199793D02*
X16396372Y-16199793D01*
X16396372Y-16199793D02*
X16415420Y-16190269D01*
X16415420Y-16190269D02*
X16424944Y-16180746D01*
X16424944Y-16180746D02*
X16434467Y-16161698D01*
X16605896Y-16142650D02*
X16605896Y-16275984D01*
X16558277Y-16066460D02*
X16510658Y-16209317D01*
X16510658Y-16209317D02*
X16634467Y-16209317D01*
X16701134Y-16075984D02*
X16701134Y-16114079D01*
X16777325Y-16075984D02*
X16777325Y-16114079D01*
X17072563Y-16352174D02*
X17063039Y-16342650D01*
X17063039Y-16342650D02*
X17043991Y-16314079D01*
X17043991Y-16314079D02*
X17034468Y-16295031D01*
X17034468Y-16295031D02*
X17024944Y-16266460D01*
X17024944Y-16266460D02*
X17015420Y-16218841D01*
X17015420Y-16218841D02*
X17015420Y-16180746D01*
X17015420Y-16180746D02*
X17024944Y-16133127D01*
X17024944Y-16133127D02*
X17034468Y-16104555D01*
X17034468Y-16104555D02*
X17043991Y-16085508D01*
X17043991Y-16085508D02*
X17063039Y-16056936D01*
X17063039Y-16056936D02*
X17072563Y-16047412D01*
X17139230Y-16095031D02*
X17148753Y-16085508D01*
X17148753Y-16085508D02*
X17167801Y-16075984D01*
X17167801Y-16075984D02*
X17215420Y-16075984D01*
X17215420Y-16075984D02*
X17234468Y-16085508D01*
X17234468Y-16085508D02*
X17243991Y-16095031D01*
X17243991Y-16095031D02*
X17253515Y-16114079D01*
X17253515Y-16114079D02*
X17253515Y-16133127D01*
X17253515Y-16133127D02*
X17243991Y-16161698D01*
X17243991Y-16161698D02*
X17129706Y-16275984D01*
X17129706Y-16275984D02*
X17253515Y-16275984D01*
X17377325Y-16075984D02*
X17396372Y-16075984D01*
X17396372Y-16075984D02*
X17415420Y-16085508D01*
X17415420Y-16085508D02*
X17424944Y-16095031D01*
X17424944Y-16095031D02*
X17434468Y-16114079D01*
X17434468Y-16114079D02*
X17443991Y-16152174D01*
X17443991Y-16152174D02*
X17443991Y-16199793D01*
X17443991Y-16199793D02*
X17434468Y-16237888D01*
X17434468Y-16237888D02*
X17424944Y-16256936D01*
X17424944Y-16256936D02*
X17415420Y-16266460D01*
X17415420Y-16266460D02*
X17396372Y-16275984D01*
X17396372Y-16275984D02*
X17377325Y-16275984D01*
X17377325Y-16275984D02*
X17358277Y-16266460D01*
X17358277Y-16266460D02*
X17348753Y-16256936D01*
X17348753Y-16256936D02*
X17339230Y-16237888D01*
X17339230Y-16237888D02*
X17329706Y-16199793D01*
X17329706Y-16199793D02*
X17329706Y-16152174D01*
X17329706Y-16152174D02*
X17339230Y-16114079D01*
X17339230Y-16114079D02*
X17348753Y-16095031D01*
X17348753Y-16095031D02*
X17358277Y-16085508D01*
X17358277Y-16085508D02*
X17377325Y-16075984D01*
X17682087Y-16275984D02*
X17682087Y-16075984D01*
X17767801Y-16275984D02*
X17767801Y-16171222D01*
X17767801Y-16171222D02*
X17758277Y-16152174D01*
X17758277Y-16152174D02*
X17739230Y-16142650D01*
X17739230Y-16142650D02*
X17710658Y-16142650D01*
X17710658Y-16142650D02*
X17691611Y-16152174D01*
X17691611Y-16152174D02*
X17682087Y-16161698D01*
X17891611Y-16275984D02*
X17872563Y-16266460D01*
X17872563Y-16266460D02*
X17863039Y-16256936D01*
X17863039Y-16256936D02*
X17853515Y-16237888D01*
X17853515Y-16237888D02*
X17853515Y-16180746D01*
X17853515Y-16180746D02*
X17863039Y-16161698D01*
X17863039Y-16161698D02*
X17872563Y-16152174D01*
X17872563Y-16152174D02*
X17891611Y-16142650D01*
X17891611Y-16142650D02*
X17920182Y-16142650D01*
X17920182Y-16142650D02*
X17939230Y-16152174D01*
X17939230Y-16152174D02*
X17948753Y-16161698D01*
X17948753Y-16161698D02*
X17958277Y-16180746D01*
X17958277Y-16180746D02*
X17958277Y-16237888D01*
X17958277Y-16237888D02*
X17948753Y-16256936D01*
X17948753Y-16256936D02*
X17939230Y-16266460D01*
X17939230Y-16266460D02*
X17920182Y-16275984D01*
X17920182Y-16275984D02*
X17891611Y-16275984D01*
X18072563Y-16275984D02*
X18053515Y-16266460D01*
X18053515Y-16266460D02*
X18043992Y-16247412D01*
X18043992Y-16247412D02*
X18043992Y-16075984D01*
X18224944Y-16266460D02*
X18205896Y-16275984D01*
X18205896Y-16275984D02*
X18167801Y-16275984D01*
X18167801Y-16275984D02*
X18148753Y-16266460D01*
X18148753Y-16266460D02*
X18139230Y-16247412D01*
X18139230Y-16247412D02*
X18139230Y-16171222D01*
X18139230Y-16171222D02*
X18148753Y-16152174D01*
X18148753Y-16152174D02*
X18167801Y-16142650D01*
X18167801Y-16142650D02*
X18205896Y-16142650D01*
X18205896Y-16142650D02*
X18224944Y-16152174D01*
X18224944Y-16152174D02*
X18234468Y-16171222D01*
X18234468Y-16171222D02*
X18234468Y-16190269D01*
X18234468Y-16190269D02*
X18139230Y-16209317D01*
X18310658Y-16266460D02*
X18329706Y-16275984D01*
X18329706Y-16275984D02*
X18367801Y-16275984D01*
X18367801Y-16275984D02*
X18386849Y-16266460D01*
X18386849Y-16266460D02*
X18396373Y-16247412D01*
X18396373Y-16247412D02*
X18396373Y-16237888D01*
X18396373Y-16237888D02*
X18386849Y-16218841D01*
X18386849Y-16218841D02*
X18367801Y-16209317D01*
X18367801Y-16209317D02*
X18339230Y-16209317D01*
X18339230Y-16209317D02*
X18320182Y-16199793D01*
X18320182Y-16199793D02*
X18310658Y-16180746D01*
X18310658Y-16180746D02*
X18310658Y-16171222D01*
X18310658Y-16171222D02*
X18320182Y-16152174D01*
X18320182Y-16152174D02*
X18339230Y-16142650D01*
X18339230Y-16142650D02*
X18367801Y-16142650D01*
X18367801Y-16142650D02*
X18386849Y-16152174D01*
X18463039Y-16352174D02*
X18472563Y-16342650D01*
X18472563Y-16342650D02*
X18491611Y-16314079D01*
X18491611Y-16314079D02*
X18501134Y-16295031D01*
X18501134Y-16295031D02*
X18510658Y-16266460D01*
X18510658Y-16266460D02*
X18520182Y-16218841D01*
X18520182Y-16218841D02*
X18520182Y-16180746D01*
X18520182Y-16180746D02*
X18510658Y-16133127D01*
X18510658Y-16133127D02*
X18501134Y-16104555D01*
X18501134Y-16104555D02*
X18491611Y-16085508D01*
X18491611Y-16085508D02*
X18472563Y-16056936D01*
X18472563Y-16056936D02*
X18463039Y-16047412D01*
D13*
X13402500Y-16543500D02*
X13497500Y-16448500D01*
X13402500Y-16353500D01*
X13307500Y-16448500D01*
X13402500Y-16543500D01*
D11*
X13863039Y-16539984D02*
X13748753Y-16539984D01*
X13805896Y-16539984D02*
X13805896Y-16339984D01*
X13805896Y-16339984D02*
X13786848Y-16368555D01*
X13786848Y-16368555D02*
X13767801Y-16387603D01*
X13767801Y-16387603D02*
X13748753Y-16397127D01*
X13948753Y-16520936D02*
X13958277Y-16530460D01*
X13958277Y-16530460D02*
X13948753Y-16539984D01*
X13948753Y-16539984D02*
X13939229Y-16530460D01*
X13939229Y-16530460D02*
X13948753Y-16520936D01*
X13948753Y-16520936D02*
X13948753Y-16539984D01*
X14053515Y-16539984D02*
X14091610Y-16539984D01*
X14091610Y-16539984D02*
X14110658Y-16530460D01*
X14110658Y-16530460D02*
X14120182Y-16520936D01*
X14120182Y-16520936D02*
X14139229Y-16492365D01*
X14139229Y-16492365D02*
X14148753Y-16454269D01*
X14148753Y-16454269D02*
X14148753Y-16378079D01*
X14148753Y-16378079D02*
X14139229Y-16359031D01*
X14139229Y-16359031D02*
X14129705Y-16349508D01*
X14129705Y-16349508D02*
X14110658Y-16339984D01*
X14110658Y-16339984D02*
X14072562Y-16339984D01*
X14072562Y-16339984D02*
X14053515Y-16349508D01*
X14053515Y-16349508D02*
X14043991Y-16359031D01*
X14043991Y-16359031D02*
X14034467Y-16378079D01*
X14034467Y-16378079D02*
X14034467Y-16425698D01*
X14034467Y-16425698D02*
X14043991Y-16444746D01*
X14043991Y-16444746D02*
X14053515Y-16454269D01*
X14053515Y-16454269D02*
X14072562Y-16463793D01*
X14072562Y-16463793D02*
X14110658Y-16463793D01*
X14110658Y-16463793D02*
X14129705Y-16454269D01*
X14129705Y-16454269D02*
X14139229Y-16444746D01*
X14139229Y-16444746D02*
X14148753Y-16425698D01*
X14272562Y-16339984D02*
X14291610Y-16339984D01*
X14291610Y-16339984D02*
X14310658Y-16349508D01*
X14310658Y-16349508D02*
X14320182Y-16359031D01*
X14320182Y-16359031D02*
X14329705Y-16378079D01*
X14329705Y-16378079D02*
X14339229Y-16416174D01*
X14339229Y-16416174D02*
X14339229Y-16463793D01*
X14339229Y-16463793D02*
X14329705Y-16501888D01*
X14329705Y-16501888D02*
X14320182Y-16520936D01*
X14320182Y-16520936D02*
X14310658Y-16530460D01*
X14310658Y-16530460D02*
X14291610Y-16539984D01*
X14291610Y-16539984D02*
X14272562Y-16539984D01*
X14272562Y-16539984D02*
X14253515Y-16530460D01*
X14253515Y-16530460D02*
X14243991Y-16520936D01*
X14243991Y-16520936D02*
X14234467Y-16501888D01*
X14234467Y-16501888D02*
X14224943Y-16463793D01*
X14224943Y-16463793D02*
X14224943Y-16416174D01*
X14224943Y-16416174D02*
X14234467Y-16378079D01*
X14234467Y-16378079D02*
X14243991Y-16359031D01*
X14243991Y-16359031D02*
X14253515Y-16349508D01*
X14253515Y-16349508D02*
X14272562Y-16339984D01*
X14463039Y-16339984D02*
X14482086Y-16339984D01*
X14482086Y-16339984D02*
X14501134Y-16349508D01*
X14501134Y-16349508D02*
X14510658Y-16359031D01*
X14510658Y-16359031D02*
X14520182Y-16378079D01*
X14520182Y-16378079D02*
X14529705Y-16416174D01*
X14529705Y-16416174D02*
X14529705Y-16463793D01*
X14529705Y-16463793D02*
X14520182Y-16501888D01*
X14520182Y-16501888D02*
X14510658Y-16520936D01*
X14510658Y-16520936D02*
X14501134Y-16530460D01*
X14501134Y-16530460D02*
X14482086Y-16539984D01*
X14482086Y-16539984D02*
X14463039Y-16539984D01*
X14463039Y-16539984D02*
X14443991Y-16530460D01*
X14443991Y-16530460D02*
X14434467Y-16520936D01*
X14434467Y-16520936D02*
X14424943Y-16501888D01*
X14424943Y-16501888D02*
X14415420Y-16463793D01*
X14415420Y-16463793D02*
X14415420Y-16416174D01*
X14415420Y-16416174D02*
X14424943Y-16378079D01*
X14424943Y-16378079D02*
X14434467Y-16359031D01*
X14434467Y-16359031D02*
X14443991Y-16349508D01*
X14443991Y-16349508D02*
X14463039Y-16339984D01*
X14615420Y-16539984D02*
X14615420Y-16406650D01*
X14615420Y-16425698D02*
X14624943Y-16416174D01*
X14624943Y-16416174D02*
X14643991Y-16406650D01*
X14643991Y-16406650D02*
X14672563Y-16406650D01*
X14672563Y-16406650D02*
X14691610Y-16416174D01*
X14691610Y-16416174D02*
X14701134Y-16435222D01*
X14701134Y-16435222D02*
X14701134Y-16539984D01*
X14701134Y-16435222D02*
X14710658Y-16416174D01*
X14710658Y-16416174D02*
X14729705Y-16406650D01*
X14729705Y-16406650D02*
X14758277Y-16406650D01*
X14758277Y-16406650D02*
X14777324Y-16416174D01*
X14777324Y-16416174D02*
X14786848Y-16435222D01*
X14786848Y-16435222D02*
X14786848Y-16539984D01*
X14882086Y-16539984D02*
X14882086Y-16406650D01*
X14882086Y-16425698D02*
X14891610Y-16416174D01*
X14891610Y-16416174D02*
X14910658Y-16406650D01*
X14910658Y-16406650D02*
X14939229Y-16406650D01*
X14939229Y-16406650D02*
X14958277Y-16416174D01*
X14958277Y-16416174D02*
X14967801Y-16435222D01*
X14967801Y-16435222D02*
X14967801Y-16539984D01*
X14967801Y-16435222D02*
X14977324Y-16416174D01*
X14977324Y-16416174D02*
X14996372Y-16406650D01*
X14996372Y-16406650D02*
X15024943Y-16406650D01*
X15024943Y-16406650D02*
X15043991Y-16416174D01*
X15043991Y-16416174D02*
X15053515Y-16435222D01*
X15053515Y-16435222D02*
X15053515Y-16539984D01*
X15443991Y-16330460D02*
X15272563Y-16587603D01*
X15701134Y-16339984D02*
X15720182Y-16339984D01*
X15720182Y-16339984D02*
X15739229Y-16349508D01*
X15739229Y-16349508D02*
X15748753Y-16359031D01*
X15748753Y-16359031D02*
X15758277Y-16378079D01*
X15758277Y-16378079D02*
X15767801Y-16416174D01*
X15767801Y-16416174D02*
X15767801Y-16463793D01*
X15767801Y-16463793D02*
X15758277Y-16501888D01*
X15758277Y-16501888D02*
X15748753Y-16520936D01*
X15748753Y-16520936D02*
X15739229Y-16530460D01*
X15739229Y-16530460D02*
X15720182Y-16539984D01*
X15720182Y-16539984D02*
X15701134Y-16539984D01*
X15701134Y-16539984D02*
X15682086Y-16530460D01*
X15682086Y-16530460D02*
X15672563Y-16520936D01*
X15672563Y-16520936D02*
X15663039Y-16501888D01*
X15663039Y-16501888D02*
X15653515Y-16463793D01*
X15653515Y-16463793D02*
X15653515Y-16416174D01*
X15653515Y-16416174D02*
X15663039Y-16378079D01*
X15663039Y-16378079D02*
X15672563Y-16359031D01*
X15672563Y-16359031D02*
X15682086Y-16349508D01*
X15682086Y-16349508D02*
X15701134Y-16339984D01*
X15853515Y-16520936D02*
X15863039Y-16530460D01*
X15863039Y-16530460D02*
X15853515Y-16539984D01*
X15853515Y-16539984D02*
X15843991Y-16530460D01*
X15843991Y-16530460D02*
X15853515Y-16520936D01*
X15853515Y-16520936D02*
X15853515Y-16539984D01*
X15986848Y-16339984D02*
X16005896Y-16339984D01*
X16005896Y-16339984D02*
X16024944Y-16349508D01*
X16024944Y-16349508D02*
X16034467Y-16359031D01*
X16034467Y-16359031D02*
X16043991Y-16378079D01*
X16043991Y-16378079D02*
X16053515Y-16416174D01*
X16053515Y-16416174D02*
X16053515Y-16463793D01*
X16053515Y-16463793D02*
X16043991Y-16501888D01*
X16043991Y-16501888D02*
X16034467Y-16520936D01*
X16034467Y-16520936D02*
X16024944Y-16530460D01*
X16024944Y-16530460D02*
X16005896Y-16539984D01*
X16005896Y-16539984D02*
X15986848Y-16539984D01*
X15986848Y-16539984D02*
X15967801Y-16530460D01*
X15967801Y-16530460D02*
X15958277Y-16520936D01*
X15958277Y-16520936D02*
X15948753Y-16501888D01*
X15948753Y-16501888D02*
X15939229Y-16463793D01*
X15939229Y-16463793D02*
X15939229Y-16416174D01*
X15939229Y-16416174D02*
X15948753Y-16378079D01*
X15948753Y-16378079D02*
X15958277Y-16359031D01*
X15958277Y-16359031D02*
X15967801Y-16349508D01*
X15967801Y-16349508D02*
X15986848Y-16339984D01*
X16120182Y-16339984D02*
X16253515Y-16339984D01*
X16253515Y-16339984D02*
X16167801Y-16539984D01*
X16415420Y-16406650D02*
X16415420Y-16539984D01*
X16367801Y-16330460D02*
X16320182Y-16473317D01*
X16320182Y-16473317D02*
X16443991Y-16473317D01*
X16548753Y-16425698D02*
X16529706Y-16416174D01*
X16529706Y-16416174D02*
X16520182Y-16406650D01*
X16520182Y-16406650D02*
X16510658Y-16387603D01*
X16510658Y-16387603D02*
X16510658Y-16378079D01*
X16510658Y-16378079D02*
X16520182Y-16359031D01*
X16520182Y-16359031D02*
X16529706Y-16349508D01*
X16529706Y-16349508D02*
X16548753Y-16339984D01*
X16548753Y-16339984D02*
X16586848Y-16339984D01*
X16586848Y-16339984D02*
X16605896Y-16349508D01*
X16605896Y-16349508D02*
X16615420Y-16359031D01*
X16615420Y-16359031D02*
X16624944Y-16378079D01*
X16624944Y-16378079D02*
X16624944Y-16387603D01*
X16624944Y-16387603D02*
X16615420Y-16406650D01*
X16615420Y-16406650D02*
X16605896Y-16416174D01*
X16605896Y-16416174D02*
X16586848Y-16425698D01*
X16586848Y-16425698D02*
X16548753Y-16425698D01*
X16548753Y-16425698D02*
X16529706Y-16435222D01*
X16529706Y-16435222D02*
X16520182Y-16444746D01*
X16520182Y-16444746D02*
X16510658Y-16463793D01*
X16510658Y-16463793D02*
X16510658Y-16501888D01*
X16510658Y-16501888D02*
X16520182Y-16520936D01*
X16520182Y-16520936D02*
X16529706Y-16530460D01*
X16529706Y-16530460D02*
X16548753Y-16539984D01*
X16548753Y-16539984D02*
X16586848Y-16539984D01*
X16586848Y-16539984D02*
X16605896Y-16530460D01*
X16605896Y-16530460D02*
X16615420Y-16520936D01*
X16615420Y-16520936D02*
X16624944Y-16501888D01*
X16624944Y-16501888D02*
X16624944Y-16463793D01*
X16624944Y-16463793D02*
X16615420Y-16444746D01*
X16615420Y-16444746D02*
X16605896Y-16435222D01*
X16605896Y-16435222D02*
X16586848Y-16425698D01*
X16701134Y-16339984D02*
X16701134Y-16378079D01*
X16777325Y-16339984D02*
X16777325Y-16378079D01*
X17072563Y-16616174D02*
X17063039Y-16606650D01*
X17063039Y-16606650D02*
X17043991Y-16578079D01*
X17043991Y-16578079D02*
X17034468Y-16559031D01*
X17034468Y-16559031D02*
X17024944Y-16530460D01*
X17024944Y-16530460D02*
X17015420Y-16482841D01*
X17015420Y-16482841D02*
X17015420Y-16444746D01*
X17015420Y-16444746D02*
X17024944Y-16397127D01*
X17024944Y-16397127D02*
X17034468Y-16368555D01*
X17034468Y-16368555D02*
X17043991Y-16349508D01*
X17043991Y-16349508D02*
X17063039Y-16320936D01*
X17063039Y-16320936D02*
X17072563Y-16311412D01*
X17253515Y-16539984D02*
X17139230Y-16539984D01*
X17196372Y-16539984D02*
X17196372Y-16339984D01*
X17196372Y-16339984D02*
X17177325Y-16368555D01*
X17177325Y-16368555D02*
X17158277Y-16387603D01*
X17158277Y-16387603D02*
X17139230Y-16397127D01*
X17424944Y-16339984D02*
X17386849Y-16339984D01*
X17386849Y-16339984D02*
X17367801Y-16349508D01*
X17367801Y-16349508D02*
X17358277Y-16359031D01*
X17358277Y-16359031D02*
X17339230Y-16387603D01*
X17339230Y-16387603D02*
X17329706Y-16425698D01*
X17329706Y-16425698D02*
X17329706Y-16501888D01*
X17329706Y-16501888D02*
X17339230Y-16520936D01*
X17339230Y-16520936D02*
X17348753Y-16530460D01*
X17348753Y-16530460D02*
X17367801Y-16539984D01*
X17367801Y-16539984D02*
X17405896Y-16539984D01*
X17405896Y-16539984D02*
X17424944Y-16530460D01*
X17424944Y-16530460D02*
X17434468Y-16520936D01*
X17434468Y-16520936D02*
X17443991Y-16501888D01*
X17443991Y-16501888D02*
X17443991Y-16454269D01*
X17443991Y-16454269D02*
X17434468Y-16435222D01*
X17434468Y-16435222D02*
X17424944Y-16425698D01*
X17424944Y-16425698D02*
X17405896Y-16416174D01*
X17405896Y-16416174D02*
X17367801Y-16416174D01*
X17367801Y-16416174D02*
X17348753Y-16425698D01*
X17348753Y-16425698D02*
X17339230Y-16435222D01*
X17339230Y-16435222D02*
X17329706Y-16454269D01*
X17682087Y-16539984D02*
X17682087Y-16339984D01*
X17767801Y-16539984D02*
X17767801Y-16435222D01*
X17767801Y-16435222D02*
X17758277Y-16416174D01*
X17758277Y-16416174D02*
X17739230Y-16406650D01*
X17739230Y-16406650D02*
X17710658Y-16406650D01*
X17710658Y-16406650D02*
X17691611Y-16416174D01*
X17691611Y-16416174D02*
X17682087Y-16425698D01*
X17891611Y-16539984D02*
X17872563Y-16530460D01*
X17872563Y-16530460D02*
X17863039Y-16520936D01*
X17863039Y-16520936D02*
X17853515Y-16501888D01*
X17853515Y-16501888D02*
X17853515Y-16444746D01*
X17853515Y-16444746D02*
X17863039Y-16425698D01*
X17863039Y-16425698D02*
X17872563Y-16416174D01*
X17872563Y-16416174D02*
X17891611Y-16406650D01*
X17891611Y-16406650D02*
X17920182Y-16406650D01*
X17920182Y-16406650D02*
X17939230Y-16416174D01*
X17939230Y-16416174D02*
X17948753Y-16425698D01*
X17948753Y-16425698D02*
X17958277Y-16444746D01*
X17958277Y-16444746D02*
X17958277Y-16501888D01*
X17958277Y-16501888D02*
X17948753Y-16520936D01*
X17948753Y-16520936D02*
X17939230Y-16530460D01*
X17939230Y-16530460D02*
X17920182Y-16539984D01*
X17920182Y-16539984D02*
X17891611Y-16539984D01*
X18072563Y-16539984D02*
X18053515Y-16530460D01*
X18053515Y-16530460D02*
X18043992Y-16511412D01*
X18043992Y-16511412D02*
X18043992Y-16339984D01*
X18224944Y-16530460D02*
X18205896Y-16539984D01*
X18205896Y-16539984D02*
X18167801Y-16539984D01*
X18167801Y-16539984D02*
X18148753Y-16530460D01*
X18148753Y-16530460D02*
X18139230Y-16511412D01*
X18139230Y-16511412D02*
X18139230Y-16435222D01*
X18139230Y-16435222D02*
X18148753Y-16416174D01*
X18148753Y-16416174D02*
X18167801Y-16406650D01*
X18167801Y-16406650D02*
X18205896Y-16406650D01*
X18205896Y-16406650D02*
X18224944Y-16416174D01*
X18224944Y-16416174D02*
X18234468Y-16435222D01*
X18234468Y-16435222D02*
X18234468Y-16454269D01*
X18234468Y-16454269D02*
X18139230Y-16473317D01*
X18310658Y-16530460D02*
X18329706Y-16539984D01*
X18329706Y-16539984D02*
X18367801Y-16539984D01*
X18367801Y-16539984D02*
X18386849Y-16530460D01*
X18386849Y-16530460D02*
X18396373Y-16511412D01*
X18396373Y-16511412D02*
X18396373Y-16501888D01*
X18396373Y-16501888D02*
X18386849Y-16482841D01*
X18386849Y-16482841D02*
X18367801Y-16473317D01*
X18367801Y-16473317D02*
X18339230Y-16473317D01*
X18339230Y-16473317D02*
X18320182Y-16463793D01*
X18320182Y-16463793D02*
X18310658Y-16444746D01*
X18310658Y-16444746D02*
X18310658Y-16435222D01*
X18310658Y-16435222D02*
X18320182Y-16416174D01*
X18320182Y-16416174D02*
X18339230Y-16406650D01*
X18339230Y-16406650D02*
X18367801Y-16406650D01*
X18367801Y-16406650D02*
X18386849Y-16416174D01*
X18463039Y-16616174D02*
X18472563Y-16606650D01*
X18472563Y-16606650D02*
X18491611Y-16578079D01*
X18491611Y-16578079D02*
X18501134Y-16559031D01*
X18501134Y-16559031D02*
X18510658Y-16530460D01*
X18510658Y-16530460D02*
X18520182Y-16482841D01*
X18520182Y-16482841D02*
X18520182Y-16444746D01*
X18520182Y-16444746D02*
X18510658Y-16397127D01*
X18510658Y-16397127D02*
X18501134Y-16368555D01*
X18501134Y-16368555D02*
X18491611Y-16349508D01*
X18491611Y-16349508D02*
X18472563Y-16320936D01*
X18472563Y-16320936D02*
X18463039Y-16311412D01*
X13297500Y-16658500D02*
X13497500Y-16858500D01*
X13497500Y-16658500D02*
X13297500Y-16858500D01*
X13497500Y-16758500D02*
G75*
G02*
X13297500Y-16758500I-100000J0D01*
G01*
X13297500Y-16758500D02*
G75*
G02*
X13497500Y-16758500I100000J0D01*
G01*
X13739229Y-16649984D02*
X13863039Y-16649984D01*
X13863039Y-16649984D02*
X13796372Y-16726174D01*
X13796372Y-16726174D02*
X13824943Y-16726174D01*
X13824943Y-16726174D02*
X13843991Y-16735698D01*
X13843991Y-16735698D02*
X13853515Y-16745222D01*
X13853515Y-16745222D02*
X13863039Y-16764269D01*
X13863039Y-16764269D02*
X13863039Y-16811889D01*
X13863039Y-16811889D02*
X13853515Y-16830936D01*
X13853515Y-16830936D02*
X13843991Y-16840460D01*
X13843991Y-16840460D02*
X13824943Y-16849984D01*
X13824943Y-16849984D02*
X13767801Y-16849984D01*
X13767801Y-16849984D02*
X13748753Y-16840460D01*
X13748753Y-16840460D02*
X13739229Y-16830936D01*
X13948753Y-16830936D02*
X13958277Y-16840460D01*
X13958277Y-16840460D02*
X13948753Y-16849984D01*
X13948753Y-16849984D02*
X13939229Y-16840460D01*
X13939229Y-16840460D02*
X13948753Y-16830936D01*
X13948753Y-16830936D02*
X13948753Y-16849984D01*
X14034467Y-16669031D02*
X14043991Y-16659508D01*
X14043991Y-16659508D02*
X14063039Y-16649984D01*
X14063039Y-16649984D02*
X14110658Y-16649984D01*
X14110658Y-16649984D02*
X14129705Y-16659508D01*
X14129705Y-16659508D02*
X14139229Y-16669031D01*
X14139229Y-16669031D02*
X14148753Y-16688079D01*
X14148753Y-16688079D02*
X14148753Y-16707127D01*
X14148753Y-16707127D02*
X14139229Y-16735698D01*
X14139229Y-16735698D02*
X14024943Y-16849984D01*
X14024943Y-16849984D02*
X14148753Y-16849984D01*
X14272562Y-16649984D02*
X14291610Y-16649984D01*
X14291610Y-16649984D02*
X14310658Y-16659508D01*
X14310658Y-16659508D02*
X14320182Y-16669031D01*
X14320182Y-16669031D02*
X14329705Y-16688079D01*
X14329705Y-16688079D02*
X14339229Y-16726174D01*
X14339229Y-16726174D02*
X14339229Y-16773793D01*
X14339229Y-16773793D02*
X14329705Y-16811889D01*
X14329705Y-16811889D02*
X14320182Y-16830936D01*
X14320182Y-16830936D02*
X14310658Y-16840460D01*
X14310658Y-16840460D02*
X14291610Y-16849984D01*
X14291610Y-16849984D02*
X14272562Y-16849984D01*
X14272562Y-16849984D02*
X14253515Y-16840460D01*
X14253515Y-16840460D02*
X14243991Y-16830936D01*
X14243991Y-16830936D02*
X14234467Y-16811889D01*
X14234467Y-16811889D02*
X14224943Y-16773793D01*
X14224943Y-16773793D02*
X14224943Y-16726174D01*
X14224943Y-16726174D02*
X14234467Y-16688079D01*
X14234467Y-16688079D02*
X14243991Y-16669031D01*
X14243991Y-16669031D02*
X14253515Y-16659508D01*
X14253515Y-16659508D02*
X14272562Y-16649984D01*
X14463039Y-16649984D02*
X14482086Y-16649984D01*
X14482086Y-16649984D02*
X14501134Y-16659508D01*
X14501134Y-16659508D02*
X14510658Y-16669031D01*
X14510658Y-16669031D02*
X14520182Y-16688079D01*
X14520182Y-16688079D02*
X14529705Y-16726174D01*
X14529705Y-16726174D02*
X14529705Y-16773793D01*
X14529705Y-16773793D02*
X14520182Y-16811889D01*
X14520182Y-16811889D02*
X14510658Y-16830936D01*
X14510658Y-16830936D02*
X14501134Y-16840460D01*
X14501134Y-16840460D02*
X14482086Y-16849984D01*
X14482086Y-16849984D02*
X14463039Y-16849984D01*
X14463039Y-16849984D02*
X14443991Y-16840460D01*
X14443991Y-16840460D02*
X14434467Y-16830936D01*
X14434467Y-16830936D02*
X14424943Y-16811889D01*
X14424943Y-16811889D02*
X14415420Y-16773793D01*
X14415420Y-16773793D02*
X14415420Y-16726174D01*
X14415420Y-16726174D02*
X14424943Y-16688079D01*
X14424943Y-16688079D02*
X14434467Y-16669031D01*
X14434467Y-16669031D02*
X14443991Y-16659508D01*
X14443991Y-16659508D02*
X14463039Y-16649984D01*
X14615420Y-16849984D02*
X14615420Y-16716650D01*
X14615420Y-16735698D02*
X14624943Y-16726174D01*
X14624943Y-16726174D02*
X14643991Y-16716650D01*
X14643991Y-16716650D02*
X14672563Y-16716650D01*
X14672563Y-16716650D02*
X14691610Y-16726174D01*
X14691610Y-16726174D02*
X14701134Y-16745222D01*
X14701134Y-16745222D02*
X14701134Y-16849984D01*
X14701134Y-16745222D02*
X14710658Y-16726174D01*
X14710658Y-16726174D02*
X14729705Y-16716650D01*
X14729705Y-16716650D02*
X14758277Y-16716650D01*
X14758277Y-16716650D02*
X14777324Y-16726174D01*
X14777324Y-16726174D02*
X14786848Y-16745222D01*
X14786848Y-16745222D02*
X14786848Y-16849984D01*
X14882086Y-16849984D02*
X14882086Y-16716650D01*
X14882086Y-16735698D02*
X14891610Y-16726174D01*
X14891610Y-16726174D02*
X14910658Y-16716650D01*
X14910658Y-16716650D02*
X14939229Y-16716650D01*
X14939229Y-16716650D02*
X14958277Y-16726174D01*
X14958277Y-16726174D02*
X14967801Y-16745222D01*
X14967801Y-16745222D02*
X14967801Y-16849984D01*
X14967801Y-16745222D02*
X14977324Y-16726174D01*
X14977324Y-16726174D02*
X14996372Y-16716650D01*
X14996372Y-16716650D02*
X15024943Y-16716650D01*
X15024943Y-16716650D02*
X15043991Y-16726174D01*
X15043991Y-16726174D02*
X15053515Y-16745222D01*
X15053515Y-16745222D02*
X15053515Y-16849984D01*
X15443991Y-16640460D02*
X15272563Y-16897603D01*
X15701134Y-16649984D02*
X15720182Y-16649984D01*
X15720182Y-16649984D02*
X15739229Y-16659508D01*
X15739229Y-16659508D02*
X15748753Y-16669031D01*
X15748753Y-16669031D02*
X15758277Y-16688079D01*
X15758277Y-16688079D02*
X15767801Y-16726174D01*
X15767801Y-16726174D02*
X15767801Y-16773793D01*
X15767801Y-16773793D02*
X15758277Y-16811889D01*
X15758277Y-16811889D02*
X15748753Y-16830936D01*
X15748753Y-16830936D02*
X15739229Y-16840460D01*
X15739229Y-16840460D02*
X15720182Y-16849984D01*
X15720182Y-16849984D02*
X15701134Y-16849984D01*
X15701134Y-16849984D02*
X15682086Y-16840460D01*
X15682086Y-16840460D02*
X15672563Y-16830936D01*
X15672563Y-16830936D02*
X15663039Y-16811889D01*
X15663039Y-16811889D02*
X15653515Y-16773793D01*
X15653515Y-16773793D02*
X15653515Y-16726174D01*
X15653515Y-16726174D02*
X15663039Y-16688079D01*
X15663039Y-16688079D02*
X15672563Y-16669031D01*
X15672563Y-16669031D02*
X15682086Y-16659508D01*
X15682086Y-16659508D02*
X15701134Y-16649984D01*
X15853515Y-16830936D02*
X15863039Y-16840460D01*
X15863039Y-16840460D02*
X15853515Y-16849984D01*
X15853515Y-16849984D02*
X15843991Y-16840460D01*
X15843991Y-16840460D02*
X15853515Y-16830936D01*
X15853515Y-16830936D02*
X15853515Y-16849984D01*
X16053515Y-16849984D02*
X15939229Y-16849984D01*
X15996372Y-16849984D02*
X15996372Y-16649984D01*
X15996372Y-16649984D02*
X15977325Y-16678555D01*
X15977325Y-16678555D02*
X15958277Y-16697603D01*
X15958277Y-16697603D02*
X15939229Y-16707127D01*
X16129706Y-16669031D02*
X16139229Y-16659508D01*
X16139229Y-16659508D02*
X16158277Y-16649984D01*
X16158277Y-16649984D02*
X16205896Y-16649984D01*
X16205896Y-16649984D02*
X16224944Y-16659508D01*
X16224944Y-16659508D02*
X16234467Y-16669031D01*
X16234467Y-16669031D02*
X16243991Y-16688079D01*
X16243991Y-16688079D02*
X16243991Y-16707127D01*
X16243991Y-16707127D02*
X16234467Y-16735698D01*
X16234467Y-16735698D02*
X16120182Y-16849984D01*
X16120182Y-16849984D02*
X16243991Y-16849984D01*
X16415420Y-16649984D02*
X16377325Y-16649984D01*
X16377325Y-16649984D02*
X16358277Y-16659508D01*
X16358277Y-16659508D02*
X16348753Y-16669031D01*
X16348753Y-16669031D02*
X16329706Y-16697603D01*
X16329706Y-16697603D02*
X16320182Y-16735698D01*
X16320182Y-16735698D02*
X16320182Y-16811889D01*
X16320182Y-16811889D02*
X16329706Y-16830936D01*
X16329706Y-16830936D02*
X16339229Y-16840460D01*
X16339229Y-16840460D02*
X16358277Y-16849984D01*
X16358277Y-16849984D02*
X16396372Y-16849984D01*
X16396372Y-16849984D02*
X16415420Y-16840460D01*
X16415420Y-16840460D02*
X16424944Y-16830936D01*
X16424944Y-16830936D02*
X16434467Y-16811889D01*
X16434467Y-16811889D02*
X16434467Y-16764269D01*
X16434467Y-16764269D02*
X16424944Y-16745222D01*
X16424944Y-16745222D02*
X16415420Y-16735698D01*
X16415420Y-16735698D02*
X16396372Y-16726174D01*
X16396372Y-16726174D02*
X16358277Y-16726174D01*
X16358277Y-16726174D02*
X16339229Y-16735698D01*
X16339229Y-16735698D02*
X16329706Y-16745222D01*
X16329706Y-16745222D02*
X16320182Y-16764269D01*
X16558277Y-16649984D02*
X16577325Y-16649984D01*
X16577325Y-16649984D02*
X16596372Y-16659508D01*
X16596372Y-16659508D02*
X16605896Y-16669031D01*
X16605896Y-16669031D02*
X16615420Y-16688079D01*
X16615420Y-16688079D02*
X16624944Y-16726174D01*
X16624944Y-16726174D02*
X16624944Y-16773793D01*
X16624944Y-16773793D02*
X16615420Y-16811889D01*
X16615420Y-16811889D02*
X16605896Y-16830936D01*
X16605896Y-16830936D02*
X16596372Y-16840460D01*
X16596372Y-16840460D02*
X16577325Y-16849984D01*
X16577325Y-16849984D02*
X16558277Y-16849984D01*
X16558277Y-16849984D02*
X16539229Y-16840460D01*
X16539229Y-16840460D02*
X16529706Y-16830936D01*
X16529706Y-16830936D02*
X16520182Y-16811889D01*
X16520182Y-16811889D02*
X16510658Y-16773793D01*
X16510658Y-16773793D02*
X16510658Y-16726174D01*
X16510658Y-16726174D02*
X16520182Y-16688079D01*
X16520182Y-16688079D02*
X16529706Y-16669031D01*
X16529706Y-16669031D02*
X16539229Y-16659508D01*
X16539229Y-16659508D02*
X16558277Y-16649984D01*
X16701134Y-16649984D02*
X16701134Y-16688079D01*
X16777325Y-16649984D02*
X16777325Y-16688079D01*
X17072563Y-16926174D02*
X17063039Y-16916650D01*
X17063039Y-16916650D02*
X17043991Y-16888079D01*
X17043991Y-16888079D02*
X17034468Y-16869031D01*
X17034468Y-16869031D02*
X17024944Y-16840460D01*
X17024944Y-16840460D02*
X17015420Y-16792841D01*
X17015420Y-16792841D02*
X17015420Y-16754746D01*
X17015420Y-16754746D02*
X17024944Y-16707127D01*
X17024944Y-16707127D02*
X17034468Y-16678555D01*
X17034468Y-16678555D02*
X17043991Y-16659508D01*
X17043991Y-16659508D02*
X17063039Y-16630936D01*
X17063039Y-16630936D02*
X17072563Y-16621412D01*
X17234468Y-16716650D02*
X17234468Y-16849984D01*
X17186849Y-16640460D02*
X17139230Y-16783317D01*
X17139230Y-16783317D02*
X17263039Y-16783317D01*
X17491611Y-16849984D02*
X17491611Y-16649984D01*
X17577325Y-16849984D02*
X17577325Y-16745222D01*
X17577325Y-16745222D02*
X17567801Y-16726174D01*
X17567801Y-16726174D02*
X17548753Y-16716650D01*
X17548753Y-16716650D02*
X17520182Y-16716650D01*
X17520182Y-16716650D02*
X17501134Y-16726174D01*
X17501134Y-16726174D02*
X17491611Y-16735698D01*
X17701134Y-16849984D02*
X17682087Y-16840460D01*
X17682087Y-16840460D02*
X17672563Y-16830936D01*
X17672563Y-16830936D02*
X17663039Y-16811889D01*
X17663039Y-16811889D02*
X17663039Y-16754746D01*
X17663039Y-16754746D02*
X17672563Y-16735698D01*
X17672563Y-16735698D02*
X17682087Y-16726174D01*
X17682087Y-16726174D02*
X17701134Y-16716650D01*
X17701134Y-16716650D02*
X17729706Y-16716650D01*
X17729706Y-16716650D02*
X17748753Y-16726174D01*
X17748753Y-16726174D02*
X17758277Y-16735698D01*
X17758277Y-16735698D02*
X17767801Y-16754746D01*
X17767801Y-16754746D02*
X17767801Y-16811889D01*
X17767801Y-16811889D02*
X17758277Y-16830936D01*
X17758277Y-16830936D02*
X17748753Y-16840460D01*
X17748753Y-16840460D02*
X17729706Y-16849984D01*
X17729706Y-16849984D02*
X17701134Y-16849984D01*
X17882087Y-16849984D02*
X17863039Y-16840460D01*
X17863039Y-16840460D02*
X17853515Y-16821412D01*
X17853515Y-16821412D02*
X17853515Y-16649984D01*
X18034468Y-16840460D02*
X18015420Y-16849984D01*
X18015420Y-16849984D02*
X17977325Y-16849984D01*
X17977325Y-16849984D02*
X17958277Y-16840460D01*
X17958277Y-16840460D02*
X17948753Y-16821412D01*
X17948753Y-16821412D02*
X17948753Y-16745222D01*
X17948753Y-16745222D02*
X17958277Y-16726174D01*
X17958277Y-16726174D02*
X17977325Y-16716650D01*
X17977325Y-16716650D02*
X18015420Y-16716650D01*
X18015420Y-16716650D02*
X18034468Y-16726174D01*
X18034468Y-16726174D02*
X18043992Y-16745222D01*
X18043992Y-16745222D02*
X18043992Y-16764269D01*
X18043992Y-16764269D02*
X17948753Y-16783317D01*
X18120182Y-16840460D02*
X18139230Y-16849984D01*
X18139230Y-16849984D02*
X18177325Y-16849984D01*
X18177325Y-16849984D02*
X18196373Y-16840460D01*
X18196373Y-16840460D02*
X18205896Y-16821412D01*
X18205896Y-16821412D02*
X18205896Y-16811889D01*
X18205896Y-16811889D02*
X18196373Y-16792841D01*
X18196373Y-16792841D02*
X18177325Y-16783317D01*
X18177325Y-16783317D02*
X18148753Y-16783317D01*
X18148753Y-16783317D02*
X18129706Y-16773793D01*
X18129706Y-16773793D02*
X18120182Y-16754746D01*
X18120182Y-16754746D02*
X18120182Y-16745222D01*
X18120182Y-16745222D02*
X18129706Y-16726174D01*
X18129706Y-16726174D02*
X18148753Y-16716650D01*
X18148753Y-16716650D02*
X18177325Y-16716650D01*
X18177325Y-16716650D02*
X18196373Y-16726174D01*
X18272563Y-16926174D02*
X18282087Y-16916650D01*
X18282087Y-16916650D02*
X18301134Y-16888079D01*
X18301134Y-16888079D02*
X18310658Y-16869031D01*
X18310658Y-16869031D02*
X18320182Y-16840460D01*
X18320182Y-16840460D02*
X18329706Y-16792841D01*
X18329706Y-16792841D02*
X18329706Y-16754746D01*
X18329706Y-16754746D02*
X18320182Y-16707127D01*
X18320182Y-16707127D02*
X18310658Y-16678555D01*
X18310658Y-16678555D02*
X18301134Y-16659508D01*
X18301134Y-16659508D02*
X18282087Y-16630936D01*
X18282087Y-16630936D02*
X18272563Y-16621412D01*
X18634468Y-16926174D02*
X18624944Y-16916650D01*
X18624944Y-16916650D02*
X18605896Y-16888079D01*
X18605896Y-16888079D02*
X18596373Y-16869031D01*
X18596373Y-16869031D02*
X18586849Y-16840460D01*
X18586849Y-16840460D02*
X18577325Y-16792841D01*
X18577325Y-16792841D02*
X18577325Y-16754746D01*
X18577325Y-16754746D02*
X18586849Y-16707127D01*
X18586849Y-16707127D02*
X18596373Y-16678555D01*
X18596373Y-16678555D02*
X18605896Y-16659508D01*
X18605896Y-16659508D02*
X18624944Y-16630936D01*
X18624944Y-16630936D02*
X18634468Y-16621412D01*
X18710658Y-16716650D02*
X18710658Y-16849984D01*
X18710658Y-16735698D02*
X18720182Y-16726174D01*
X18720182Y-16726174D02*
X18739230Y-16716650D01*
X18739230Y-16716650D02*
X18767801Y-16716650D01*
X18767801Y-16716650D02*
X18786849Y-16726174D01*
X18786849Y-16726174D02*
X18796373Y-16745222D01*
X18796373Y-16745222D02*
X18796373Y-16849984D01*
X18920182Y-16849984D02*
X18901134Y-16840460D01*
X18901134Y-16840460D02*
X18891611Y-16830936D01*
X18891611Y-16830936D02*
X18882087Y-16811889D01*
X18882087Y-16811889D02*
X18882087Y-16754746D01*
X18882087Y-16754746D02*
X18891611Y-16735698D01*
X18891611Y-16735698D02*
X18901134Y-16726174D01*
X18901134Y-16726174D02*
X18920182Y-16716650D01*
X18920182Y-16716650D02*
X18948754Y-16716650D01*
X18948754Y-16716650D02*
X18967801Y-16726174D01*
X18967801Y-16726174D02*
X18977325Y-16735698D01*
X18977325Y-16735698D02*
X18986849Y-16754746D01*
X18986849Y-16754746D02*
X18986849Y-16811889D01*
X18986849Y-16811889D02*
X18977325Y-16830936D01*
X18977325Y-16830936D02*
X18967801Y-16840460D01*
X18967801Y-16840460D02*
X18948754Y-16849984D01*
X18948754Y-16849984D02*
X18920182Y-16849984D01*
X19043992Y-16716650D02*
X19120182Y-16716650D01*
X19072563Y-16649984D02*
X19072563Y-16821412D01*
X19072563Y-16821412D02*
X19082087Y-16840460D01*
X19082087Y-16840460D02*
X19101134Y-16849984D01*
X19101134Y-16849984D02*
X19120182Y-16849984D01*
X19339230Y-16716650D02*
X19339230Y-16916650D01*
X19339230Y-16726174D02*
X19358277Y-16716650D01*
X19358277Y-16716650D02*
X19396373Y-16716650D01*
X19396373Y-16716650D02*
X19415420Y-16726174D01*
X19415420Y-16726174D02*
X19424944Y-16735698D01*
X19424944Y-16735698D02*
X19434468Y-16754746D01*
X19434468Y-16754746D02*
X19434468Y-16811889D01*
X19434468Y-16811889D02*
X19424944Y-16830936D01*
X19424944Y-16830936D02*
X19415420Y-16840460D01*
X19415420Y-16840460D02*
X19396373Y-16849984D01*
X19396373Y-16849984D02*
X19358277Y-16849984D01*
X19358277Y-16849984D02*
X19339230Y-16840460D01*
X19548754Y-16849984D02*
X19529706Y-16840460D01*
X19529706Y-16840460D02*
X19520182Y-16821412D01*
X19520182Y-16821412D02*
X19520182Y-16649984D01*
X19710658Y-16849984D02*
X19710658Y-16745222D01*
X19710658Y-16745222D02*
X19701135Y-16726174D01*
X19701135Y-16726174D02*
X19682087Y-16716650D01*
X19682087Y-16716650D02*
X19643992Y-16716650D01*
X19643992Y-16716650D02*
X19624944Y-16726174D01*
X19710658Y-16840460D02*
X19691611Y-16849984D01*
X19691611Y-16849984D02*
X19643992Y-16849984D01*
X19643992Y-16849984D02*
X19624944Y-16840460D01*
X19624944Y-16840460D02*
X19615420Y-16821412D01*
X19615420Y-16821412D02*
X19615420Y-16802365D01*
X19615420Y-16802365D02*
X19624944Y-16783317D01*
X19624944Y-16783317D02*
X19643992Y-16773793D01*
X19643992Y-16773793D02*
X19691611Y-16773793D01*
X19691611Y-16773793D02*
X19710658Y-16764269D01*
X19777325Y-16716650D02*
X19853515Y-16716650D01*
X19805896Y-16649984D02*
X19805896Y-16821412D01*
X19805896Y-16821412D02*
X19815420Y-16840460D01*
X19815420Y-16840460D02*
X19834468Y-16849984D01*
X19834468Y-16849984D02*
X19853515Y-16849984D01*
X19996373Y-16840460D02*
X19977325Y-16849984D01*
X19977325Y-16849984D02*
X19939230Y-16849984D01*
X19939230Y-16849984D02*
X19920182Y-16840460D01*
X19920182Y-16840460D02*
X19910658Y-16821412D01*
X19910658Y-16821412D02*
X19910658Y-16745222D01*
X19910658Y-16745222D02*
X19920182Y-16726174D01*
X19920182Y-16726174D02*
X19939230Y-16716650D01*
X19939230Y-16716650D02*
X19977325Y-16716650D01*
X19977325Y-16716650D02*
X19996373Y-16726174D01*
X19996373Y-16726174D02*
X20005896Y-16745222D01*
X20005896Y-16745222D02*
X20005896Y-16764269D01*
X20005896Y-16764269D02*
X19910658Y-16783317D01*
X20177325Y-16849984D02*
X20177325Y-16649984D01*
X20177325Y-16840460D02*
X20158277Y-16849984D01*
X20158277Y-16849984D02*
X20120182Y-16849984D01*
X20120182Y-16849984D02*
X20101135Y-16840460D01*
X20101135Y-16840460D02*
X20091611Y-16830936D01*
X20091611Y-16830936D02*
X20082087Y-16811889D01*
X20082087Y-16811889D02*
X20082087Y-16754746D01*
X20082087Y-16754746D02*
X20091611Y-16735698D01*
X20091611Y-16735698D02*
X20101135Y-16726174D01*
X20101135Y-16726174D02*
X20120182Y-16716650D01*
X20120182Y-16716650D02*
X20158277Y-16716650D01*
X20158277Y-16716650D02*
X20177325Y-16726174D01*
X20253516Y-16926174D02*
X20263039Y-16916650D01*
X20263039Y-16916650D02*
X20282087Y-16888079D01*
X20282087Y-16888079D02*
X20291611Y-16869031D01*
X20291611Y-16869031D02*
X20301135Y-16840460D01*
X20301135Y-16840460D02*
X20310658Y-16792841D01*
X20310658Y-16792841D02*
X20310658Y-16754746D01*
X20310658Y-16754746D02*
X20301135Y-16707127D01*
X20301135Y-16707127D02*
X20291611Y-16678555D01*
X20291611Y-16678555D02*
X20282087Y-16659508D01*
X20282087Y-16659508D02*
X20263039Y-16630936D01*
X20263039Y-16630936D02*
X20253516Y-16621412D01*
M02*
