%TF.GenerationSoftware,KiCad,Pcbnew,8.0.4*%
%TF.CreationDate,2025-01-10T17:56:01-05:00*%
%TF.ProjectId,V1.0,56312e30-2e6b-4696-9361-645f70636258,rev?*%
%TF.SameCoordinates,Original*%
%TF.FileFunction,Legend,Bot*%
%TF.FilePolarity,Positive*%
%FSLAX46Y46*%
G04 Gerber Fmt 4.6, Leading zero omitted, Abs format (unit mm)*
G04 Created by KiCad (PCBNEW 8.0.4) date 2025-01-10 17:56:01*
%MOMM*%
%LPD*%
G01*
G04 APERTURE LIST*
%ADD10C,0.150000*%
%ADD11C,0.200000*%
%ADD12C,0.120000*%
G04 APERTURE END LIST*
D10*
X202410839Y-121322200D02*
X202267982Y-121369819D01*
X202267982Y-121369819D02*
X202029887Y-121369819D01*
X202029887Y-121369819D02*
X201934649Y-121322200D01*
X201934649Y-121322200D02*
X201887030Y-121274580D01*
X201887030Y-121274580D02*
X201839411Y-121179342D01*
X201839411Y-121179342D02*
X201839411Y-121084104D01*
X201839411Y-121084104D02*
X201887030Y-120988866D01*
X201887030Y-120988866D02*
X201934649Y-120941247D01*
X201934649Y-120941247D02*
X202029887Y-120893628D01*
X202029887Y-120893628D02*
X202220363Y-120846009D01*
X202220363Y-120846009D02*
X202315601Y-120798390D01*
X202315601Y-120798390D02*
X202363220Y-120750771D01*
X202363220Y-120750771D02*
X202410839Y-120655533D01*
X202410839Y-120655533D02*
X202410839Y-120560295D01*
X202410839Y-120560295D02*
X202363220Y-120465057D01*
X202363220Y-120465057D02*
X202315601Y-120417438D01*
X202315601Y-120417438D02*
X202220363Y-120369819D01*
X202220363Y-120369819D02*
X201982268Y-120369819D01*
X201982268Y-120369819D02*
X201839411Y-120417438D01*
X200839411Y-121274580D02*
X200887030Y-121322200D01*
X200887030Y-121322200D02*
X201029887Y-121369819D01*
X201029887Y-121369819D02*
X201125125Y-121369819D01*
X201125125Y-121369819D02*
X201267982Y-121322200D01*
X201267982Y-121322200D02*
X201363220Y-121226961D01*
X201363220Y-121226961D02*
X201410839Y-121131723D01*
X201410839Y-121131723D02*
X201458458Y-120941247D01*
X201458458Y-120941247D02*
X201458458Y-120798390D01*
X201458458Y-120798390D02*
X201410839Y-120607914D01*
X201410839Y-120607914D02*
X201363220Y-120512676D01*
X201363220Y-120512676D02*
X201267982Y-120417438D01*
X201267982Y-120417438D02*
X201125125Y-120369819D01*
X201125125Y-120369819D02*
X201029887Y-120369819D01*
X201029887Y-120369819D02*
X200887030Y-120417438D01*
X200887030Y-120417438D02*
X200839411Y-120465057D01*
X199934649Y-121369819D02*
X200410839Y-121369819D01*
X200410839Y-121369819D02*
X200410839Y-120369819D01*
X199601315Y-121369819D02*
X199601315Y-120369819D01*
X199029887Y-121369819D02*
X199458458Y-120798390D01*
X199029887Y-120369819D02*
X199601315Y-120941247D01*
X198291792Y-119974580D02*
X198339411Y-120022200D01*
X198339411Y-120022200D02*
X198482268Y-120069819D01*
X198482268Y-120069819D02*
X198577506Y-120069819D01*
X198577506Y-120069819D02*
X198720363Y-120022200D01*
X198720363Y-120022200D02*
X198815601Y-119926961D01*
X198815601Y-119926961D02*
X198863220Y-119831723D01*
X198863220Y-119831723D02*
X198910839Y-119641247D01*
X198910839Y-119641247D02*
X198910839Y-119498390D01*
X198910839Y-119498390D02*
X198863220Y-119307914D01*
X198863220Y-119307914D02*
X198815601Y-119212676D01*
X198815601Y-119212676D02*
X198720363Y-119117438D01*
X198720363Y-119117438D02*
X198577506Y-119069819D01*
X198577506Y-119069819D02*
X198482268Y-119069819D01*
X198482268Y-119069819D02*
X198339411Y-119117438D01*
X198339411Y-119117438D02*
X198291792Y-119165057D01*
X197910839Y-120022200D02*
X197767982Y-120069819D01*
X197767982Y-120069819D02*
X197529887Y-120069819D01*
X197529887Y-120069819D02*
X197434649Y-120022200D01*
X197434649Y-120022200D02*
X197387030Y-119974580D01*
X197387030Y-119974580D02*
X197339411Y-119879342D01*
X197339411Y-119879342D02*
X197339411Y-119784104D01*
X197339411Y-119784104D02*
X197387030Y-119688866D01*
X197387030Y-119688866D02*
X197434649Y-119641247D01*
X197434649Y-119641247D02*
X197529887Y-119593628D01*
X197529887Y-119593628D02*
X197720363Y-119546009D01*
X197720363Y-119546009D02*
X197815601Y-119498390D01*
X197815601Y-119498390D02*
X197863220Y-119450771D01*
X197863220Y-119450771D02*
X197910839Y-119355533D01*
X197910839Y-119355533D02*
X197910839Y-119260295D01*
X197910839Y-119260295D02*
X197863220Y-119165057D01*
X197863220Y-119165057D02*
X197815601Y-119117438D01*
X197815601Y-119117438D02*
X197720363Y-119069819D01*
X197720363Y-119069819D02*
X197482268Y-119069819D01*
X197482268Y-119069819D02*
X197339411Y-119117438D01*
X196958458Y-119165057D02*
X196910839Y-119117438D01*
X196910839Y-119117438D02*
X196815601Y-119069819D01*
X196815601Y-119069819D02*
X196577506Y-119069819D01*
X196577506Y-119069819D02*
X196482268Y-119117438D01*
X196482268Y-119117438D02*
X196434649Y-119165057D01*
X196434649Y-119165057D02*
X196387030Y-119260295D01*
X196387030Y-119260295D02*
X196387030Y-119355533D01*
X196387030Y-119355533D02*
X196434649Y-119498390D01*
X196434649Y-119498390D02*
X197006077Y-120069819D01*
X197006077Y-120069819D02*
X196387030Y-120069819D01*
X214858458Y-83569819D02*
X214620363Y-84569819D01*
X214620363Y-84569819D02*
X214429887Y-83855533D01*
X214429887Y-83855533D02*
X214239411Y-84569819D01*
X214239411Y-84569819D02*
X214001316Y-83569819D01*
X213191792Y-84569819D02*
X213191792Y-84046009D01*
X213191792Y-84046009D02*
X213239411Y-83950771D01*
X213239411Y-83950771D02*
X213334649Y-83903152D01*
X213334649Y-83903152D02*
X213525125Y-83903152D01*
X213525125Y-83903152D02*
X213620363Y-83950771D01*
X213191792Y-84522200D02*
X213287030Y-84569819D01*
X213287030Y-84569819D02*
X213525125Y-84569819D01*
X213525125Y-84569819D02*
X213620363Y-84522200D01*
X213620363Y-84522200D02*
X213667982Y-84426961D01*
X213667982Y-84426961D02*
X213667982Y-84331723D01*
X213667982Y-84331723D02*
X213620363Y-84236485D01*
X213620363Y-84236485D02*
X213525125Y-84188866D01*
X213525125Y-84188866D02*
X213287030Y-84188866D01*
X213287030Y-84188866D02*
X213191792Y-84141247D01*
X212810839Y-83903152D02*
X212572744Y-84569819D01*
X212334649Y-83903152D02*
X212572744Y-84569819D01*
X212572744Y-84569819D02*
X212667982Y-84807914D01*
X212667982Y-84807914D02*
X212715601Y-84855533D01*
X212715601Y-84855533D02*
X212810839Y-84903152D01*
X212048934Y-83569819D02*
X211810839Y-84569819D01*
X211810839Y-84569819D02*
X211620363Y-83855533D01*
X211620363Y-83855533D02*
X211429887Y-84569819D01*
X211429887Y-84569819D02*
X211191792Y-83569819D01*
X210382268Y-84569819D02*
X210382268Y-84046009D01*
X210382268Y-84046009D02*
X210429887Y-83950771D01*
X210429887Y-83950771D02*
X210525125Y-83903152D01*
X210525125Y-83903152D02*
X210715601Y-83903152D01*
X210715601Y-83903152D02*
X210810839Y-83950771D01*
X210382268Y-84522200D02*
X210477506Y-84569819D01*
X210477506Y-84569819D02*
X210715601Y-84569819D01*
X210715601Y-84569819D02*
X210810839Y-84522200D01*
X210810839Y-84522200D02*
X210858458Y-84426961D01*
X210858458Y-84426961D02*
X210858458Y-84331723D01*
X210858458Y-84331723D02*
X210810839Y-84236485D01*
X210810839Y-84236485D02*
X210715601Y-84188866D01*
X210715601Y-84188866D02*
X210477506Y-84188866D01*
X210477506Y-84188866D02*
X210382268Y-84141247D01*
X210001315Y-83903152D02*
X209763220Y-84569819D01*
X209525125Y-83903152D02*
X209763220Y-84569819D01*
X209763220Y-84569819D02*
X209858458Y-84807914D01*
X209858458Y-84807914D02*
X209906077Y-84855533D01*
X209906077Y-84855533D02*
X210001315Y-84903152D01*
X209239410Y-83569819D02*
X209001315Y-84569819D01*
X209001315Y-84569819D02*
X208810839Y-83855533D01*
X208810839Y-83855533D02*
X208620363Y-84569819D01*
X208620363Y-84569819D02*
X208382268Y-83569819D01*
X207572744Y-84569819D02*
X207572744Y-84046009D01*
X207572744Y-84046009D02*
X207620363Y-83950771D01*
X207620363Y-83950771D02*
X207715601Y-83903152D01*
X207715601Y-83903152D02*
X207906077Y-83903152D01*
X207906077Y-83903152D02*
X208001315Y-83950771D01*
X207572744Y-84522200D02*
X207667982Y-84569819D01*
X207667982Y-84569819D02*
X207906077Y-84569819D01*
X207906077Y-84569819D02*
X208001315Y-84522200D01*
X208001315Y-84522200D02*
X208048934Y-84426961D01*
X208048934Y-84426961D02*
X208048934Y-84331723D01*
X208048934Y-84331723D02*
X208001315Y-84236485D01*
X208001315Y-84236485D02*
X207906077Y-84188866D01*
X207906077Y-84188866D02*
X207667982Y-84188866D01*
X207667982Y-84188866D02*
X207572744Y-84141247D01*
X207191791Y-83903152D02*
X206953696Y-84569819D01*
X206715601Y-83903152D02*
X206953696Y-84569819D01*
X206953696Y-84569819D02*
X207048934Y-84807914D01*
X207048934Y-84807914D02*
X207096553Y-84855533D01*
X207096553Y-84855533D02*
X207191791Y-84903152D01*
D11*
G36*
X174971089Y-143722261D02*
G01*
X175043378Y-143794550D01*
X175126450Y-143960695D01*
X175216040Y-144319051D01*
X175216040Y-144770623D01*
X175126450Y-145128979D01*
X175043378Y-145295124D01*
X174971090Y-145367414D01*
X174816243Y-145444838D01*
X174672981Y-145444838D01*
X174518132Y-145367414D01*
X174445845Y-145295126D01*
X174362772Y-145128981D01*
X174273183Y-144770623D01*
X174273183Y-144319052D01*
X174362772Y-143960694D01*
X174445844Y-143794551D01*
X174518133Y-143722261D01*
X174672981Y-143644838D01*
X174816243Y-143644838D01*
X174971089Y-143722261D01*
G37*
G36*
X162875849Y-141169039D02*
G01*
X162948138Y-141241328D01*
X163025562Y-141396176D01*
X163025562Y-141920389D01*
X162948138Y-142075236D01*
X162875850Y-142147526D01*
X162721003Y-142224950D01*
X162482503Y-142224950D01*
X162327654Y-142147526D01*
X162255367Y-142075238D01*
X162177943Y-141920390D01*
X162177943Y-141396175D01*
X162255366Y-141241328D01*
X162327655Y-141169039D01*
X162482503Y-141091616D01*
X162721003Y-141091616D01*
X162875849Y-141169039D01*
G37*
G36*
X167461794Y-141652488D02*
G01*
X167480102Y-141659494D01*
X167483685Y-141659748D01*
X167487006Y-141661124D01*
X167506515Y-141663045D01*
X167959099Y-141663045D01*
X168098646Y-141732818D01*
X168168420Y-141872366D01*
X168168420Y-142015627D01*
X168098646Y-142155176D01*
X167959099Y-142224950D01*
X167530123Y-142224950D01*
X167416039Y-142167908D01*
X167416039Y-141629610D01*
X167461794Y-141652488D01*
G37*
G36*
X170073182Y-142224950D02*
G01*
X169434885Y-142224950D01*
X169280036Y-142147526D01*
X169207749Y-142075238D01*
X169130325Y-141920390D01*
X169130325Y-141681890D01*
X169207748Y-141527044D01*
X169274820Y-141459971D01*
X169522742Y-141377331D01*
X170073182Y-141377331D01*
X170073182Y-142224950D01*
G37*
G36*
X170073182Y-141177331D02*
G01*
X169530123Y-141177331D01*
X169375275Y-141099906D01*
X169302986Y-141027617D01*
X169225563Y-140872771D01*
X169225563Y-140729509D01*
X169302986Y-140574663D01*
X169375275Y-140502373D01*
X169530123Y-140424950D01*
X170073182Y-140424950D01*
X170073182Y-141177331D01*
G37*
G36*
X173352041Y-141169039D02*
G01*
X173424330Y-141241328D01*
X173501754Y-141396176D01*
X173501754Y-141920389D01*
X173424330Y-142075236D01*
X173352042Y-142147526D01*
X173197195Y-142224950D01*
X172863457Y-142224950D01*
X172749373Y-142167908D01*
X172749373Y-141148657D01*
X172863457Y-141091616D01*
X173197195Y-141091616D01*
X173352041Y-141169039D01*
G37*
G36*
X177080843Y-141652488D02*
G01*
X177099151Y-141659494D01*
X177102734Y-141659748D01*
X177106055Y-141661124D01*
X177125564Y-141663045D01*
X177578148Y-141663045D01*
X177717695Y-141732818D01*
X177787469Y-141872366D01*
X177787469Y-142015627D01*
X177717695Y-142155176D01*
X177578148Y-142224950D01*
X177149172Y-142224950D01*
X177035088Y-142167908D01*
X177035088Y-141629610D01*
X177080843Y-141652488D01*
G37*
G36*
X179692231Y-142224950D02*
G01*
X179332268Y-142224950D01*
X179084345Y-142142309D01*
X178922036Y-141980000D01*
X178838963Y-141813855D01*
X178749374Y-141455497D01*
X178749374Y-141194402D01*
X178838963Y-140836044D01*
X178922035Y-140669900D01*
X179084344Y-140507590D01*
X179332268Y-140424950D01*
X179692231Y-140424950D01*
X179692231Y-142224950D01*
G37*
G36*
X180399382Y-146343250D02*
G01*
X159184292Y-146343250D01*
X159184292Y-144687695D01*
X160168419Y-144687695D01*
X160168419Y-145163885D01*
X160170340Y-145183394D01*
X160171715Y-145186714D01*
X160171970Y-145190298D01*
X160178976Y-145208606D01*
X160274214Y-145399083D01*
X160279498Y-145407477D01*
X160280509Y-145409918D01*
X160282763Y-145412664D01*
X160284657Y-145415673D01*
X160286653Y-145417404D01*
X160292946Y-145425071D01*
X160388184Y-145520311D01*
X160395852Y-145526604D01*
X160397583Y-145528600D01*
X160400590Y-145530493D01*
X160403337Y-145532747D01*
X160405777Y-145533757D01*
X160414174Y-145539043D01*
X160604650Y-145634281D01*
X160622958Y-145641287D01*
X160626541Y-145641541D01*
X160629862Y-145642917D01*
X160649371Y-145644838D01*
X161125562Y-145644838D01*
X161145071Y-145642917D01*
X161148391Y-145641541D01*
X161151975Y-145641287D01*
X161170283Y-145634281D01*
X161360760Y-145539043D01*
X161369157Y-145533757D01*
X161371596Y-145532747D01*
X161374340Y-145530494D01*
X161377350Y-145528600D01*
X161379082Y-145526602D01*
X161386749Y-145520310D01*
X161481987Y-145425071D01*
X161494424Y-145409918D01*
X161509355Y-145373869D01*
X161509355Y-145334851D01*
X161494423Y-145298803D01*
X161466833Y-145271213D01*
X161430785Y-145256282D01*
X161391767Y-145256282D01*
X161355718Y-145271214D01*
X161340565Y-145283650D01*
X161256802Y-145367414D01*
X161101955Y-145444838D01*
X160672979Y-145444838D01*
X160518130Y-145367414D01*
X160445843Y-145295126D01*
X160368419Y-145140278D01*
X160368419Y-144711302D01*
X160445843Y-144556453D01*
X160518130Y-144484165D01*
X160672979Y-144406742D01*
X161101955Y-144406742D01*
X161256802Y-144484165D01*
X161340565Y-144567930D01*
X161355718Y-144580366D01*
X161360372Y-144582294D01*
X161364268Y-144585481D01*
X161378255Y-144589701D01*
X161391767Y-144595298D01*
X161396804Y-144595298D01*
X161401623Y-144596752D01*
X161416164Y-144595298D01*
X161430785Y-144595298D01*
X161435437Y-144593370D01*
X161440447Y-144592870D01*
X161453322Y-144585962D01*
X161466833Y-144580367D01*
X161470395Y-144576804D01*
X161474831Y-144574425D01*
X161484082Y-144563117D01*
X161494423Y-144552777D01*
X161496351Y-144548122D01*
X161499538Y-144544227D01*
X161503757Y-144530241D01*
X161509355Y-144516729D01*
X161509355Y-144511690D01*
X161510809Y-144506872D01*
X161510780Y-144487269D01*
X161454632Y-143925790D01*
X162073181Y-143925790D01*
X162073181Y-144116266D01*
X162074153Y-144126139D01*
X162073966Y-144128773D01*
X162074753Y-144132236D01*
X162075102Y-144135775D01*
X162076113Y-144138217D01*
X162078313Y-144147889D01*
X162173551Y-144433603D01*
X162181542Y-144451503D01*
X162183897Y-144454218D01*
X162185272Y-144457537D01*
X162197708Y-144472691D01*
X163169855Y-145444838D01*
X162173181Y-145444838D01*
X162153672Y-145446759D01*
X162117624Y-145461691D01*
X162090034Y-145489281D01*
X162075102Y-145525329D01*
X162075102Y-145564347D01*
X162090034Y-145600395D01*
X162117624Y-145627985D01*
X162153672Y-145642917D01*
X162173181Y-145644838D01*
X163411276Y-145644838D01*
X163430785Y-145642917D01*
X163466834Y-145627986D01*
X163494424Y-145600396D01*
X163509355Y-145564347D01*
X163509355Y-145525329D01*
X163494424Y-145489281D01*
X163481987Y-145474128D01*
X162355821Y-144347960D01*
X162273181Y-144100039D01*
X162273181Y-143949397D01*
X162350604Y-143794551D01*
X162422893Y-143722261D01*
X162577741Y-143644838D01*
X163006717Y-143644838D01*
X163161563Y-143722261D01*
X163245327Y-143806025D01*
X163260481Y-143818461D01*
X163296529Y-143833393D01*
X163335547Y-143833393D01*
X163371595Y-143818461D01*
X163399185Y-143790871D01*
X163414117Y-143754823D01*
X163414117Y-143715805D01*
X163399185Y-143679757D01*
X163386749Y-143664603D01*
X163291511Y-143569365D01*
X163283844Y-143563073D01*
X163282112Y-143561076D01*
X163279100Y-143559180D01*
X163276357Y-143556929D01*
X163273920Y-143555919D01*
X163265522Y-143550633D01*
X163075045Y-143455395D01*
X163059627Y-143449495D01*
X163787467Y-143449495D01*
X163795039Y-143487772D01*
X163804262Y-143505070D01*
X165518547Y-146076498D01*
X165530967Y-146091665D01*
X165563387Y-146113376D01*
X165601648Y-146121028D01*
X165639924Y-146113457D01*
X165672389Y-146091813D01*
X165694100Y-146059393D01*
X165701752Y-146021133D01*
X165694181Y-145982856D01*
X165684957Y-145965558D01*
X165391471Y-145525329D01*
X166075102Y-145525329D01*
X166075102Y-145564347D01*
X166090034Y-145600395D01*
X166117624Y-145627985D01*
X166153672Y-145642917D01*
X166173181Y-145644838D01*
X167316038Y-145644838D01*
X167335547Y-145642917D01*
X167371595Y-145627985D01*
X167399185Y-145600395D01*
X167414117Y-145564347D01*
X167414117Y-145525329D01*
X167399185Y-145489281D01*
X167371595Y-145461691D01*
X167335547Y-145446759D01*
X167316038Y-145444838D01*
X166844610Y-145444838D01*
X166844610Y-144306742D01*
X174073183Y-144306742D01*
X174073183Y-144782933D01*
X174073518Y-144786335D01*
X174073301Y-144787794D01*
X174074380Y-144795091D01*
X174075104Y-144802442D01*
X174075668Y-144803805D01*
X174076169Y-144807187D01*
X174171407Y-145188138D01*
X174171920Y-145189575D01*
X174171972Y-145190298D01*
X174175080Y-145198422D01*
X174178002Y-145206599D01*
X174178432Y-145207179D01*
X174178978Y-145208606D01*
X174274216Y-145399083D01*
X174279500Y-145407477D01*
X174280511Y-145409918D01*
X174282765Y-145412664D01*
X174284659Y-145415673D01*
X174286655Y-145417404D01*
X174292948Y-145425071D01*
X174388186Y-145520311D01*
X174395854Y-145526604D01*
X174397585Y-145528600D01*
X174400592Y-145530493D01*
X174403339Y-145532747D01*
X174405779Y-145533757D01*
X174414176Y-145539043D01*
X174604652Y-145634281D01*
X174622960Y-145641287D01*
X174626543Y-145641541D01*
X174629864Y-145642917D01*
X174649373Y-145644838D01*
X174839850Y-145644838D01*
X174859359Y-145642917D01*
X174862679Y-145641541D01*
X174866263Y-145641287D01*
X174884571Y-145634281D01*
X175075048Y-145539043D01*
X175083445Y-145533757D01*
X175085884Y-145532747D01*
X175088628Y-145530494D01*
X175091638Y-145528600D01*
X175093370Y-145526602D01*
X175101037Y-145520310D01*
X175191255Y-145430091D01*
X175979866Y-145430091D01*
X175979866Y-145469109D01*
X175981945Y-145474127D01*
X175994798Y-145505158D01*
X175994802Y-145505162D01*
X176007234Y-145520311D01*
X176102472Y-145615549D01*
X176117626Y-145627985D01*
X176153674Y-145642917D01*
X176192692Y-145642917D01*
X176228740Y-145627985D01*
X176243894Y-145615549D01*
X176334114Y-145525329D01*
X176932247Y-145525329D01*
X176932247Y-145564347D01*
X176947179Y-145600395D01*
X176974769Y-145627985D01*
X177010817Y-145642917D01*
X177030326Y-145644838D01*
X178173183Y-145644838D01*
X178192692Y-145642917D01*
X178228740Y-145627985D01*
X178256330Y-145600395D01*
X178271262Y-145564347D01*
X178271262Y-145525329D01*
X178256330Y-145489281D01*
X178228740Y-145461691D01*
X178192692Y-145446759D01*
X178173183Y-145444838D01*
X177701755Y-145444838D01*
X177701755Y-143875115D01*
X177709026Y-143886022D01*
X177709070Y-143886076D01*
X177709084Y-143886109D01*
X177715264Y-143893640D01*
X177721446Y-143901189D01*
X177721475Y-143901208D01*
X177721520Y-143901263D01*
X177911997Y-144091739D01*
X177919661Y-144098029D01*
X177921395Y-144100028D01*
X177924407Y-144101923D01*
X177927150Y-144104175D01*
X177929587Y-144105184D01*
X177937986Y-144110471D01*
X178128462Y-144205709D01*
X178146770Y-144212715D01*
X178185691Y-144215481D01*
X178222706Y-144203142D01*
X178252183Y-144177578D01*
X178269633Y-144142679D01*
X178272398Y-144103759D01*
X178260059Y-144066743D01*
X178234495Y-144037266D01*
X178217905Y-144026823D01*
X178041942Y-143938841D01*
X177869942Y-143766841D01*
X177730278Y-143557345D01*
X178645397Y-143557345D01*
X178649744Y-143576461D01*
X179316411Y-145576461D01*
X179324402Y-145594361D01*
X179329085Y-145599760D01*
X179332280Y-145606150D01*
X179341751Y-145614365D01*
X179349967Y-145623837D01*
X179356356Y-145627031D01*
X179361756Y-145631715D01*
X179373653Y-145635680D01*
X179384866Y-145641287D01*
X179391993Y-145641793D01*
X179398772Y-145644053D01*
X179411279Y-145643164D01*
X179423786Y-145644053D01*
X179430564Y-145641793D01*
X179437692Y-145641287D01*
X179448908Y-145635678D01*
X179460802Y-145631714D01*
X179466199Y-145627033D01*
X179472591Y-145623837D01*
X179480809Y-145614361D01*
X179490278Y-145606149D01*
X179493471Y-145599762D01*
X179498156Y-145594361D01*
X179506147Y-145576461D01*
X180172813Y-143576461D01*
X180177160Y-143557345D01*
X180174394Y-143518425D01*
X180156944Y-143483526D01*
X180127468Y-143457961D01*
X180090452Y-143445623D01*
X180051532Y-143448389D01*
X180016634Y-143465839D01*
X179991068Y-143495315D01*
X179983077Y-143513215D01*
X179411278Y-145228610D01*
X178839480Y-143513215D01*
X178831489Y-143495315D01*
X178805923Y-143465839D01*
X178771025Y-143448389D01*
X178732105Y-143445623D01*
X178695089Y-143457961D01*
X178665613Y-143483527D01*
X178648163Y-143518425D01*
X178645397Y-143557345D01*
X177730278Y-143557345D01*
X177684960Y-143489368D01*
X177684915Y-143489313D01*
X177684902Y-143489281D01*
X177684828Y-143489207D01*
X177672540Y-143474201D01*
X177664311Y-143468690D01*
X177657312Y-143461691D01*
X177648260Y-143457941D01*
X177640120Y-143452490D01*
X177630412Y-143450548D01*
X177621264Y-143446759D01*
X177611465Y-143446759D01*
X177601860Y-143444838D01*
X177592149Y-143446759D01*
X177582246Y-143446759D01*
X177573193Y-143450508D01*
X177563583Y-143452410D01*
X177555344Y-143457902D01*
X177546198Y-143461691D01*
X177539271Y-143468617D01*
X177531118Y-143474053D01*
X177525607Y-143482281D01*
X177518608Y-143489281D01*
X177514858Y-143498332D01*
X177509407Y-143506473D01*
X177507465Y-143516180D01*
X177503676Y-143525329D01*
X177501775Y-143544631D01*
X177501755Y-143544733D01*
X177501761Y-143544767D01*
X177501755Y-143544838D01*
X177501755Y-145444838D01*
X177030326Y-145444838D01*
X177010817Y-145446759D01*
X176974769Y-145461691D01*
X176947179Y-145489281D01*
X176932247Y-145525329D01*
X176334114Y-145525329D01*
X176339132Y-145520311D01*
X176351563Y-145505162D01*
X176351568Y-145505158D01*
X176366500Y-145469110D01*
X176366500Y-145430092D01*
X176364420Y-145425071D01*
X176358144Y-145409918D01*
X176351569Y-145394043D01*
X176339132Y-145378890D01*
X176243894Y-145283651D01*
X176228741Y-145271214D01*
X176228740Y-145271213D01*
X176192692Y-145256282D01*
X176153674Y-145256282D01*
X176117626Y-145271213D01*
X176117625Y-145271214D01*
X176102472Y-145283650D01*
X176007234Y-145378890D01*
X175994797Y-145394043D01*
X175988222Y-145409918D01*
X175979866Y-145430091D01*
X175191255Y-145430091D01*
X175196275Y-145425071D01*
X175202567Y-145417404D01*
X175204564Y-145415673D01*
X175206457Y-145412665D01*
X175208712Y-145409918D01*
X175209723Y-145407476D01*
X175215007Y-145399082D01*
X175310245Y-145208606D01*
X175310790Y-145207179D01*
X175311221Y-145206599D01*
X175314144Y-145198416D01*
X175317251Y-145190298D01*
X175317302Y-145189577D01*
X175317816Y-145188139D01*
X175413054Y-144807187D01*
X175413554Y-144803805D01*
X175414119Y-144802442D01*
X175414842Y-144795091D01*
X175415922Y-144787794D01*
X175415704Y-144786335D01*
X175416040Y-144782933D01*
X175416040Y-144306742D01*
X175415704Y-144303339D01*
X175415922Y-144301881D01*
X175414842Y-144294583D01*
X175414119Y-144287233D01*
X175413554Y-144285869D01*
X175413054Y-144282488D01*
X175317816Y-143901536D01*
X175317302Y-143900097D01*
X175317251Y-143899377D01*
X175314144Y-143891258D01*
X175311221Y-143883076D01*
X175310790Y-143882495D01*
X175310245Y-143881069D01*
X175215007Y-143690593D01*
X175209720Y-143682194D01*
X175208711Y-143679757D01*
X175206459Y-143677013D01*
X175204564Y-143674002D01*
X175202566Y-143672269D01*
X175196275Y-143664603D01*
X175101037Y-143569365D01*
X175093370Y-143563073D01*
X175091638Y-143561076D01*
X175088626Y-143559180D01*
X175085883Y-143556929D01*
X175083446Y-143555919D01*
X175075048Y-143550633D01*
X174884571Y-143455395D01*
X174866263Y-143448389D01*
X174862679Y-143448134D01*
X174859359Y-143446759D01*
X174839850Y-143444838D01*
X174649373Y-143444838D01*
X174629864Y-143446759D01*
X174626543Y-143448134D01*
X174622960Y-143448389D01*
X174604652Y-143455395D01*
X174414176Y-143550633D01*
X174405777Y-143555919D01*
X174403340Y-143556929D01*
X174400596Y-143559180D01*
X174397585Y-143561076D01*
X174395852Y-143563073D01*
X174388186Y-143569365D01*
X174292948Y-143664603D01*
X174286656Y-143672269D01*
X174284659Y-143674002D01*
X174282763Y-143677013D01*
X174280512Y-143679757D01*
X174279502Y-143682193D01*
X174274216Y-143690592D01*
X174178978Y-143881069D01*
X174178432Y-143882495D01*
X174178002Y-143883076D01*
X174175080Y-143891252D01*
X174171972Y-143899377D01*
X174171920Y-143900099D01*
X174171407Y-143901537D01*
X174076169Y-144282488D01*
X174075668Y-144285869D01*
X174075104Y-144287233D01*
X174074380Y-144294583D01*
X174073301Y-144301881D01*
X174073518Y-144303339D01*
X174073183Y-144306742D01*
X166844610Y-144306742D01*
X166844610Y-143875115D01*
X166851881Y-143886022D01*
X166851925Y-143886076D01*
X166851939Y-143886109D01*
X166858119Y-143893640D01*
X166864301Y-143901189D01*
X166864330Y-143901208D01*
X166864375Y-143901263D01*
X167054852Y-144091739D01*
X167062516Y-144098029D01*
X167064250Y-144100028D01*
X167067262Y-144101923D01*
X167070005Y-144104175D01*
X167072442Y-144105184D01*
X167080841Y-144110471D01*
X167271317Y-144205709D01*
X167289625Y-144212715D01*
X167328546Y-144215481D01*
X167365561Y-144203142D01*
X167395038Y-144177578D01*
X167412488Y-144142679D01*
X167415253Y-144103759D01*
X167402914Y-144066743D01*
X167377350Y-144037266D01*
X167360760Y-144026823D01*
X167184797Y-143938841D01*
X167012797Y-143766841D01*
X166827815Y-143489368D01*
X166827770Y-143489313D01*
X166827757Y-143489281D01*
X166827683Y-143489207D01*
X166815395Y-143474201D01*
X166807166Y-143468690D01*
X166800167Y-143461691D01*
X166791115Y-143457941D01*
X166782975Y-143452490D01*
X166773267Y-143450548D01*
X166764119Y-143446759D01*
X166754320Y-143446759D01*
X166744715Y-143444838D01*
X166735004Y-143446759D01*
X166725101Y-143446759D01*
X166716048Y-143450508D01*
X166706438Y-143452410D01*
X166698199Y-143457902D01*
X166689053Y-143461691D01*
X166682126Y-143468617D01*
X166673973Y-143474053D01*
X166668462Y-143482281D01*
X166661463Y-143489281D01*
X166657713Y-143498332D01*
X166652262Y-143506473D01*
X166650320Y-143516180D01*
X166646531Y-143525329D01*
X166644630Y-143544631D01*
X166644610Y-143544733D01*
X166644616Y-143544767D01*
X166644610Y-143544838D01*
X166644610Y-145444838D01*
X166173181Y-145444838D01*
X166153672Y-145446759D01*
X166117624Y-145461691D01*
X166090034Y-145489281D01*
X166075102Y-145525329D01*
X165391471Y-145525329D01*
X163970672Y-143394130D01*
X163958252Y-143378963D01*
X163925832Y-143357252D01*
X163887572Y-143349600D01*
X163849295Y-143357172D01*
X163816830Y-143378815D01*
X163795119Y-143411235D01*
X163787467Y-143449495D01*
X163059627Y-143449495D01*
X163056737Y-143448389D01*
X163053153Y-143448134D01*
X163049833Y-143446759D01*
X163030324Y-143444838D01*
X162554133Y-143444838D01*
X162534624Y-143446759D01*
X162531303Y-143448134D01*
X162527720Y-143448389D01*
X162509412Y-143455395D01*
X162318936Y-143550633D01*
X162310537Y-143555919D01*
X162308100Y-143556929D01*
X162305356Y-143559180D01*
X162302345Y-143561076D01*
X162300612Y-143563073D01*
X162292946Y-143569365D01*
X162197708Y-143664603D01*
X162191416Y-143672269D01*
X162189419Y-143674002D01*
X162187523Y-143677013D01*
X162185272Y-143679757D01*
X162184262Y-143682193D01*
X162178976Y-143690592D01*
X162083738Y-143881069D01*
X162076732Y-143899377D01*
X162076477Y-143902960D01*
X162075102Y-143906281D01*
X162073181Y-143925790D01*
X161454632Y-143925790D01*
X161415542Y-143534888D01*
X161414117Y-143527779D01*
X161414117Y-143525329D01*
X161413165Y-143523031D01*
X161411689Y-143515667D01*
X161404779Y-143502786D01*
X161399185Y-143489281D01*
X161395624Y-143485720D01*
X161393244Y-143481283D01*
X161381931Y-143472027D01*
X161371595Y-143461691D01*
X161366942Y-143459763D01*
X161363046Y-143456576D01*
X161349056Y-143452355D01*
X161335547Y-143446759D01*
X161328069Y-143446022D01*
X161325691Y-143445305D01*
X161323254Y-143445548D01*
X161316038Y-143444838D01*
X160363657Y-143444838D01*
X160344148Y-143446759D01*
X160308100Y-143461691D01*
X160280510Y-143489281D01*
X160265578Y-143525329D01*
X160265578Y-143564347D01*
X160280510Y-143600395D01*
X160308100Y-143627985D01*
X160344148Y-143642917D01*
X160363657Y-143644838D01*
X161225539Y-143644838D01*
X161288706Y-144276510D01*
X161170283Y-144217299D01*
X161151975Y-144210293D01*
X161148391Y-144210038D01*
X161145071Y-144208663D01*
X161125562Y-144206742D01*
X160649371Y-144206742D01*
X160629862Y-144208663D01*
X160626541Y-144210038D01*
X160622958Y-144210293D01*
X160604650Y-144217299D01*
X160414174Y-144312537D01*
X160405777Y-144317822D01*
X160403337Y-144318833D01*
X160400590Y-144321086D01*
X160397583Y-144322980D01*
X160395852Y-144324975D01*
X160388184Y-144331269D01*
X160292946Y-144426509D01*
X160286653Y-144434175D01*
X160284657Y-144435907D01*
X160282763Y-144438915D01*
X160280509Y-144441662D01*
X160279498Y-144444102D01*
X160274214Y-144452497D01*
X160178976Y-144642974D01*
X160171970Y-144661282D01*
X160171715Y-144664865D01*
X160170340Y-144668186D01*
X160168419Y-144687695D01*
X159184292Y-144687695D01*
X159184292Y-141277331D01*
X159406514Y-141277331D01*
X159406514Y-142324950D01*
X159408435Y-142344459D01*
X159423367Y-142380507D01*
X159450957Y-142408097D01*
X159487005Y-142423029D01*
X159526023Y-142423029D01*
X159562071Y-142408097D01*
X159589661Y-142380507D01*
X159604593Y-142344459D01*
X159606514Y-142324950D01*
X159606514Y-141300937D01*
X159676287Y-141161389D01*
X159815837Y-141091616D01*
X160054336Y-141091616D01*
X160193883Y-141161389D01*
X160263657Y-141300938D01*
X160263657Y-142324950D01*
X160265578Y-142344459D01*
X160280510Y-142380507D01*
X160308100Y-142408097D01*
X160344148Y-142423029D01*
X160383166Y-142423029D01*
X160419214Y-142408097D01*
X160446804Y-142380507D01*
X160461736Y-142344459D01*
X160463657Y-142324950D01*
X160463657Y-141300937D01*
X160533430Y-141161389D01*
X160672979Y-141091616D01*
X160911479Y-141091616D01*
X161066325Y-141169039D01*
X161120800Y-141223514D01*
X161120800Y-142324950D01*
X161122721Y-142344459D01*
X161137653Y-142380507D01*
X161165243Y-142408097D01*
X161201291Y-142423029D01*
X161240309Y-142423029D01*
X161276357Y-142408097D01*
X161303947Y-142380507D01*
X161318879Y-142344459D01*
X161320800Y-142324950D01*
X161320800Y-141372569D01*
X161977943Y-141372569D01*
X161977943Y-141943997D01*
X161979864Y-141963506D01*
X161981239Y-141966826D01*
X161981494Y-141970410D01*
X161988500Y-141988718D01*
X162083738Y-142179195D01*
X162089022Y-142187589D01*
X162090033Y-142190030D01*
X162092287Y-142192776D01*
X162094181Y-142195785D01*
X162096177Y-142197516D01*
X162102470Y-142205183D01*
X162197708Y-142300423D01*
X162205376Y-142306716D01*
X162207107Y-142308712D01*
X162210114Y-142310605D01*
X162212861Y-142312859D01*
X162215301Y-142313869D01*
X162223698Y-142319155D01*
X162414174Y-142414393D01*
X162432482Y-142421399D01*
X162436065Y-142421653D01*
X162439386Y-142423029D01*
X162458895Y-142424950D01*
X162744610Y-142424950D01*
X162764119Y-142423029D01*
X162767439Y-142421653D01*
X162771023Y-142421399D01*
X162789331Y-142414393D01*
X162979808Y-142319155D01*
X162988205Y-142313869D01*
X162990644Y-142312859D01*
X162993388Y-142310606D01*
X162996398Y-142308712D01*
X162998130Y-142306714D01*
X163005797Y-142300422D01*
X163101035Y-142205183D01*
X163107327Y-142197516D01*
X163109324Y-142195785D01*
X163111217Y-142192777D01*
X163113472Y-142190030D01*
X163114483Y-142187588D01*
X163119767Y-142179194D01*
X163215005Y-141988718D01*
X163222011Y-141970410D01*
X163222265Y-141966826D01*
X163223641Y-141963506D01*
X163225562Y-141943997D01*
X163225562Y-141372569D01*
X163223641Y-141353060D01*
X163222265Y-141349739D01*
X163222011Y-141346157D01*
X163215005Y-141327848D01*
X163119767Y-141137371D01*
X163114481Y-141128974D01*
X163113471Y-141126535D01*
X163111217Y-141123788D01*
X163109324Y-141120781D01*
X163107329Y-141119051D01*
X163101035Y-141111381D01*
X163064001Y-141074347D01*
X163788252Y-141074347D01*
X163791018Y-141113267D01*
X163808467Y-141148166D01*
X163837944Y-141173730D01*
X163874960Y-141186069D01*
X163913880Y-141183303D01*
X163932188Y-141176297D01*
X164101551Y-141091616D01*
X164435289Y-141091616D01*
X164590135Y-141169039D01*
X164662424Y-141241328D01*
X164739848Y-141396176D01*
X164739848Y-141920389D01*
X164662424Y-142075236D01*
X164590136Y-142147526D01*
X164435289Y-142224950D01*
X164101551Y-142224950D01*
X163932188Y-142140269D01*
X163913880Y-142133263D01*
X163874960Y-142130497D01*
X163837944Y-142142836D01*
X163808467Y-142168400D01*
X163791018Y-142203299D01*
X163788252Y-142242219D01*
X163800591Y-142279235D01*
X163826155Y-142308712D01*
X163842746Y-142319155D01*
X164033222Y-142414393D01*
X164051530Y-142421399D01*
X164055113Y-142421653D01*
X164058434Y-142423029D01*
X164077943Y-142424950D01*
X164458896Y-142424950D01*
X164478405Y-142423029D01*
X164481725Y-142421653D01*
X164485309Y-142421399D01*
X164503617Y-142414393D01*
X164694094Y-142319155D01*
X164702491Y-142313869D01*
X164704930Y-142312859D01*
X164707674Y-142310606D01*
X164710684Y-142308712D01*
X164712416Y-142306714D01*
X164720083Y-142300422D01*
X164815321Y-142205183D01*
X164821613Y-142197516D01*
X164823610Y-142195785D01*
X164825503Y-142192777D01*
X164827758Y-142190030D01*
X164828769Y-142187588D01*
X164834053Y-142179194D01*
X164929291Y-141988718D01*
X164936297Y-141970410D01*
X164936551Y-141966826D01*
X164937927Y-141963506D01*
X164939848Y-141943997D01*
X165501753Y-141943997D01*
X165501753Y-142039235D01*
X165503674Y-142058744D01*
X165505049Y-142062064D01*
X165505304Y-142065648D01*
X165512310Y-142083956D01*
X165607548Y-142274434D01*
X165609602Y-142277698D01*
X165610115Y-142279235D01*
X165611774Y-142281148D01*
X165617991Y-142291024D01*
X165627466Y-142299241D01*
X165635680Y-142308712D01*
X165645551Y-142314925D01*
X165647468Y-142316588D01*
X165649006Y-142317101D01*
X165652270Y-142319155D01*
X165842747Y-142414393D01*
X165861056Y-142421399D01*
X165864638Y-142421653D01*
X165867959Y-142423029D01*
X165887468Y-142424950D01*
X166268420Y-142424950D01*
X166287929Y-142423029D01*
X166291249Y-142421653D01*
X166294833Y-142421399D01*
X166313141Y-142414393D01*
X166503618Y-142319155D01*
X166520208Y-142308712D01*
X166545772Y-142279235D01*
X166558111Y-142242219D01*
X166555346Y-142203299D01*
X166537896Y-142168400D01*
X166508419Y-142142836D01*
X166471404Y-142130497D01*
X166432483Y-142133263D01*
X166414175Y-142140269D01*
X166244813Y-142224950D01*
X165911076Y-142224950D01*
X165771526Y-142155176D01*
X165701753Y-142015628D01*
X165701753Y-141967604D01*
X165771526Y-141828056D01*
X165911076Y-141758283D01*
X166173182Y-141758283D01*
X166192691Y-141756362D01*
X166196011Y-141754986D01*
X166199595Y-141754732D01*
X166217903Y-141747726D01*
X166408380Y-141652488D01*
X166411644Y-141650433D01*
X166413181Y-141649921D01*
X166415095Y-141648261D01*
X166424970Y-141642045D01*
X166433185Y-141632572D01*
X166442658Y-141624357D01*
X166448872Y-141614483D01*
X166450534Y-141612568D01*
X166451046Y-141611029D01*
X166453101Y-141607766D01*
X166548339Y-141417290D01*
X166555345Y-141398982D01*
X166555599Y-141395398D01*
X166556975Y-141392078D01*
X166558896Y-141372569D01*
X166558896Y-141277331D01*
X167216039Y-141277331D01*
X167216039Y-142324950D01*
X167217960Y-142344459D01*
X167232892Y-142380507D01*
X167260482Y-142408097D01*
X167296530Y-142423029D01*
X167335548Y-142423029D01*
X167371596Y-142408097D01*
X167397464Y-142382228D01*
X167461794Y-142414393D01*
X167480102Y-142421399D01*
X167483685Y-142421653D01*
X167487006Y-142423029D01*
X167506515Y-142424950D01*
X167982706Y-142424950D01*
X168002215Y-142423029D01*
X168005535Y-142421653D01*
X168009119Y-142421399D01*
X168027427Y-142414393D01*
X168217904Y-142319155D01*
X168221168Y-142317100D01*
X168222705Y-142316588D01*
X168224618Y-142314928D01*
X168234494Y-142308712D01*
X168242711Y-142299236D01*
X168252182Y-142291023D01*
X168258395Y-142281151D01*
X168260058Y-142279235D01*
X168260571Y-142277696D01*
X168262625Y-142274433D01*
X168357863Y-142083956D01*
X168364869Y-142065647D01*
X168365123Y-142062064D01*
X168366499Y-142058744D01*
X168368420Y-142039235D01*
X168368420Y-141848759D01*
X168366499Y-141829250D01*
X168365123Y-141825929D01*
X168364869Y-141822346D01*
X168357863Y-141804038D01*
X168284985Y-141658283D01*
X168930325Y-141658283D01*
X168930325Y-141943997D01*
X168932246Y-141963506D01*
X168933621Y-141966826D01*
X168933876Y-141970410D01*
X168940882Y-141988718D01*
X169036120Y-142179195D01*
X169041404Y-142187589D01*
X169042415Y-142190030D01*
X169044669Y-142192776D01*
X169046563Y-142195785D01*
X169048559Y-142197516D01*
X169054852Y-142205183D01*
X169150090Y-142300423D01*
X169157758Y-142306716D01*
X169159489Y-142308712D01*
X169162496Y-142310605D01*
X169165243Y-142312859D01*
X169167683Y-142313869D01*
X169176080Y-142319155D01*
X169366556Y-142414393D01*
X169384864Y-142421399D01*
X169388447Y-142421653D01*
X169391768Y-142423029D01*
X169411277Y-142424950D01*
X170173182Y-142424950D01*
X170192691Y-142423029D01*
X170228739Y-142408097D01*
X170256329Y-142380507D01*
X170271261Y-142344459D01*
X170273182Y-142324950D01*
X170273182Y-140324950D01*
X172549373Y-140324950D01*
X172549373Y-142324950D01*
X172551294Y-142344459D01*
X172566226Y-142380507D01*
X172593816Y-142408097D01*
X172629864Y-142423029D01*
X172668882Y-142423029D01*
X172704930Y-142408097D01*
X172730798Y-142382228D01*
X172795128Y-142414393D01*
X172813436Y-142421399D01*
X172817019Y-142421653D01*
X172820340Y-142423029D01*
X172839849Y-142424950D01*
X173220802Y-142424950D01*
X173240311Y-142423029D01*
X173243631Y-142421653D01*
X173247215Y-142421399D01*
X173265523Y-142414393D01*
X173456000Y-142319155D01*
X173464397Y-142313869D01*
X173466836Y-142312859D01*
X173469580Y-142310606D01*
X173472590Y-142308712D01*
X173474322Y-142306714D01*
X173481989Y-142300422D01*
X173577227Y-142205183D01*
X173583519Y-142197516D01*
X173585516Y-142195785D01*
X173587409Y-142192777D01*
X173589664Y-142190030D01*
X173590675Y-142187588D01*
X173595959Y-142179194D01*
X173691197Y-141988718D01*
X173698203Y-141970410D01*
X173698457Y-141966826D01*
X173699833Y-141963506D01*
X173701754Y-141943997D01*
X173701754Y-141372569D01*
X173699833Y-141353060D01*
X173698457Y-141349739D01*
X173698203Y-141346157D01*
X173691197Y-141327848D01*
X173595959Y-141137371D01*
X173590673Y-141128974D01*
X173589663Y-141126535D01*
X173587409Y-141123788D01*
X173585516Y-141120781D01*
X173583521Y-141119051D01*
X173577227Y-141111381D01*
X173481989Y-141016143D01*
X173474322Y-141009851D01*
X173472590Y-141007854D01*
X173469578Y-141005958D01*
X173466835Y-141003707D01*
X173464398Y-141002697D01*
X173456000Y-140997411D01*
X173444410Y-140991616D01*
X174358897Y-140991616D01*
X174358897Y-142324950D01*
X174360818Y-142344459D01*
X174375750Y-142380507D01*
X174403340Y-142408097D01*
X174439388Y-142423029D01*
X174478406Y-142423029D01*
X174514454Y-142408097D01*
X174542044Y-142380507D01*
X174556976Y-142344459D01*
X174558897Y-142324950D01*
X174558897Y-141006231D01*
X175121875Y-141006231D01*
X175126628Y-141025250D01*
X175602819Y-142358584D01*
X175611190Y-142376310D01*
X175614558Y-142380030D01*
X175616707Y-142384567D01*
X175627557Y-142394389D01*
X175637376Y-142405236D01*
X175641910Y-142407383D01*
X175645633Y-142410754D01*
X175659419Y-142415677D01*
X175672638Y-142421939D01*
X175677649Y-142422188D01*
X175682378Y-142423877D01*
X175696993Y-142423150D01*
X175711608Y-142423877D01*
X175716336Y-142422188D01*
X175721348Y-142421939D01*
X175734566Y-142415677D01*
X175748353Y-142410754D01*
X175752075Y-142407383D01*
X175756610Y-142405236D01*
X175766430Y-142394387D01*
X175777279Y-142384567D01*
X175779426Y-142380032D01*
X175782797Y-142376310D01*
X175791167Y-142358584D01*
X176177328Y-141277331D01*
X176835088Y-141277331D01*
X176835088Y-142324950D01*
X176837009Y-142344459D01*
X176851941Y-142380507D01*
X176879531Y-142408097D01*
X176915579Y-142423029D01*
X176954597Y-142423029D01*
X176990645Y-142408097D01*
X177016513Y-142382228D01*
X177080843Y-142414393D01*
X177099151Y-142421399D01*
X177102734Y-142421653D01*
X177106055Y-142423029D01*
X177125564Y-142424950D01*
X177601755Y-142424950D01*
X177621264Y-142423029D01*
X177624584Y-142421653D01*
X177628168Y-142421399D01*
X177646476Y-142414393D01*
X177836953Y-142319155D01*
X177840217Y-142317100D01*
X177841754Y-142316588D01*
X177843667Y-142314928D01*
X177853543Y-142308712D01*
X177861760Y-142299236D01*
X177871231Y-142291023D01*
X177877444Y-142281151D01*
X177879107Y-142279235D01*
X177879620Y-142277696D01*
X177881674Y-142274433D01*
X177976912Y-142083956D01*
X177983918Y-142065647D01*
X177984172Y-142062064D01*
X177985548Y-142058744D01*
X177987469Y-142039235D01*
X177987469Y-141848759D01*
X177985548Y-141829250D01*
X177984172Y-141825929D01*
X177983918Y-141822346D01*
X177976912Y-141804038D01*
X177881674Y-141613562D01*
X177879619Y-141610298D01*
X177879107Y-141608760D01*
X177877445Y-141606844D01*
X177871231Y-141596971D01*
X177861758Y-141588755D01*
X177853543Y-141579283D01*
X177843668Y-141573066D01*
X177841754Y-141571407D01*
X177840217Y-141570894D01*
X177836953Y-141568840D01*
X177646476Y-141473602D01*
X177628168Y-141466596D01*
X177624584Y-141466341D01*
X177621264Y-141464966D01*
X177601755Y-141463045D01*
X177149172Y-141463045D01*
X177035088Y-141406003D01*
X177035088Y-141300937D01*
X177104861Y-141161389D01*
X177244410Y-141091616D01*
X177578148Y-141091616D01*
X177747510Y-141176297D01*
X177765818Y-141183303D01*
X177804739Y-141186069D01*
X177816669Y-141182092D01*
X178549374Y-141182092D01*
X178549374Y-141467807D01*
X178549709Y-141471209D01*
X178549492Y-141472668D01*
X178550571Y-141479965D01*
X178551295Y-141487316D01*
X178551859Y-141488679D01*
X178552360Y-141492061D01*
X178647598Y-141873012D01*
X178648111Y-141874449D01*
X178648163Y-141875172D01*
X178651271Y-141883296D01*
X178654193Y-141891473D01*
X178654623Y-141892053D01*
X178655169Y-141893480D01*
X178750407Y-142083957D01*
X178755693Y-142092355D01*
X178756703Y-142094792D01*
X178758953Y-142097534D01*
X178760850Y-142100547D01*
X178762848Y-142102280D01*
X178769139Y-142109945D01*
X178959615Y-142300422D01*
X178974768Y-142312859D01*
X178978087Y-142314234D01*
X178980803Y-142316589D01*
X178998703Y-142324580D01*
X179284418Y-142419818D01*
X179294089Y-142422017D01*
X179296532Y-142423029D01*
X179300070Y-142423377D01*
X179303534Y-142424165D01*
X179306167Y-142423977D01*
X179316041Y-142424950D01*
X179792231Y-142424950D01*
X179811740Y-142423029D01*
X179847788Y-142408097D01*
X179875378Y-142380507D01*
X179890310Y-142344459D01*
X179892231Y-142324950D01*
X179892231Y-140324950D01*
X179890310Y-140305441D01*
X179875378Y-140269393D01*
X179847788Y-140241803D01*
X179811740Y-140226871D01*
X179792231Y-140224950D01*
X179316041Y-140224950D01*
X179306167Y-140225922D01*
X179303534Y-140225735D01*
X179300070Y-140226522D01*
X179296532Y-140226871D01*
X179294089Y-140227882D01*
X179284418Y-140230082D01*
X178998703Y-140325320D01*
X178980803Y-140333311D01*
X178978087Y-140335666D01*
X178974769Y-140337041D01*
X178959616Y-140349477D01*
X178769139Y-140539953D01*
X178762847Y-140547619D01*
X178760850Y-140549352D01*
X178758954Y-140552363D01*
X178756703Y-140555107D01*
X178755693Y-140557543D01*
X178750407Y-140565942D01*
X178655169Y-140756419D01*
X178654623Y-140757845D01*
X178654193Y-140758426D01*
X178651271Y-140766602D01*
X178648163Y-140774727D01*
X178648111Y-140775449D01*
X178647598Y-140776887D01*
X178552360Y-141157838D01*
X178551859Y-141161219D01*
X178551295Y-141162583D01*
X178550571Y-141169933D01*
X178549492Y-141177231D01*
X178549709Y-141178689D01*
X178549374Y-141182092D01*
X177816669Y-141182092D01*
X177841754Y-141173730D01*
X177871231Y-141148166D01*
X177888681Y-141113267D01*
X177891446Y-141074347D01*
X177879107Y-141037331D01*
X177853543Y-141007854D01*
X177836953Y-140997411D01*
X177646476Y-140902173D01*
X177628168Y-140895167D01*
X177624584Y-140894912D01*
X177621264Y-140893537D01*
X177601755Y-140891616D01*
X177220802Y-140891616D01*
X177201293Y-140893537D01*
X177197972Y-140894912D01*
X177194389Y-140895167D01*
X177176081Y-140902173D01*
X176985605Y-140997411D01*
X176982341Y-140999465D01*
X176980803Y-140999978D01*
X176978887Y-141001639D01*
X176969014Y-141007854D01*
X176960798Y-141017326D01*
X176951326Y-141025542D01*
X176945109Y-141035416D01*
X176943450Y-141037331D01*
X176942937Y-141038867D01*
X176940883Y-141042132D01*
X176845645Y-141232610D01*
X176838639Y-141250918D01*
X176838384Y-141254501D01*
X176837009Y-141257822D01*
X176835088Y-141277331D01*
X176177328Y-141277331D01*
X176267357Y-141025249D01*
X176272110Y-141006231D01*
X176270172Y-140967261D01*
X176253469Y-140931998D01*
X176224543Y-140905812D01*
X176187798Y-140892689D01*
X176148828Y-140894627D01*
X176113566Y-140911330D01*
X176087380Y-140940256D01*
X176079009Y-140957982D01*
X175696992Y-142027628D01*
X175314976Y-140957982D01*
X175306606Y-140940256D01*
X175280419Y-140911330D01*
X175245157Y-140894627D01*
X175206187Y-140892689D01*
X175169442Y-140905812D01*
X175140516Y-140931999D01*
X175123813Y-140967261D01*
X175121875Y-141006231D01*
X174558897Y-141006231D01*
X174558897Y-140991616D01*
X174556976Y-140972107D01*
X174542044Y-140936059D01*
X174514454Y-140908469D01*
X174478406Y-140893537D01*
X174439388Y-140893537D01*
X174403340Y-140908469D01*
X174375750Y-140936059D01*
X174360818Y-140972107D01*
X174358897Y-140991616D01*
X173444410Y-140991616D01*
X173265523Y-140902173D01*
X173247215Y-140895167D01*
X173243631Y-140894912D01*
X173240311Y-140893537D01*
X173220802Y-140891616D01*
X172839849Y-140891616D01*
X172820340Y-140893537D01*
X172817019Y-140894912D01*
X172813436Y-140895167D01*
X172795128Y-140902173D01*
X172749373Y-140925050D01*
X172749373Y-140400679D01*
X174265580Y-140400679D01*
X174265580Y-140439697D01*
X174280512Y-140475745D01*
X174292948Y-140490899D01*
X174388186Y-140586137D01*
X174403340Y-140598573D01*
X174439388Y-140613505D01*
X174478406Y-140613505D01*
X174514454Y-140598573D01*
X174529608Y-140586137D01*
X174624846Y-140490899D01*
X174637282Y-140475745D01*
X174652214Y-140439697D01*
X174652214Y-140400679D01*
X174637282Y-140364631D01*
X174637281Y-140364630D01*
X174624846Y-140349477D01*
X174529608Y-140254239D01*
X174514454Y-140241803D01*
X174478406Y-140226871D01*
X174439388Y-140226871D01*
X174403340Y-140241803D01*
X174388186Y-140254239D01*
X174292948Y-140349477D01*
X174280513Y-140364630D01*
X174280512Y-140364631D01*
X174265580Y-140400679D01*
X172749373Y-140400679D01*
X172749373Y-140324950D01*
X172747452Y-140305441D01*
X172732520Y-140269393D01*
X172704930Y-140241803D01*
X172668882Y-140226871D01*
X172629864Y-140226871D01*
X172593816Y-140241803D01*
X172566226Y-140269393D01*
X172551294Y-140305441D01*
X172549373Y-140324950D01*
X170273182Y-140324950D01*
X170271261Y-140305441D01*
X170256329Y-140269393D01*
X170228739Y-140241803D01*
X170192691Y-140226871D01*
X170173182Y-140224950D01*
X169506515Y-140224950D01*
X169487006Y-140226871D01*
X169483685Y-140228246D01*
X169480102Y-140228501D01*
X169461794Y-140235507D01*
X169271318Y-140330745D01*
X169262919Y-140336031D01*
X169260482Y-140337041D01*
X169257738Y-140339292D01*
X169254727Y-140341188D01*
X169252994Y-140343185D01*
X169245328Y-140349477D01*
X169150090Y-140444715D01*
X169143798Y-140452381D01*
X169141801Y-140454114D01*
X169139905Y-140457125D01*
X169137654Y-140459869D01*
X169136644Y-140462305D01*
X169131358Y-140470704D01*
X169036120Y-140661181D01*
X169029114Y-140679489D01*
X169028859Y-140683072D01*
X169027484Y-140686393D01*
X169025563Y-140705902D01*
X169025563Y-140896378D01*
X169027484Y-140915887D01*
X169028859Y-140919207D01*
X169029114Y-140922791D01*
X169036120Y-140941099D01*
X169131358Y-141131576D01*
X169136644Y-141139974D01*
X169137654Y-141142411D01*
X169139905Y-141145154D01*
X169141801Y-141148166D01*
X169143798Y-141149898D01*
X169150090Y-141157565D01*
X169245328Y-141252803D01*
X169250684Y-141257198D01*
X169189178Y-141277701D01*
X169171278Y-141285692D01*
X169168562Y-141288047D01*
X169165244Y-141289422D01*
X169150090Y-141301858D01*
X169054852Y-141397096D01*
X169048560Y-141404762D01*
X169046563Y-141406495D01*
X169044667Y-141409506D01*
X169042416Y-141412250D01*
X169041406Y-141414686D01*
X169036120Y-141423085D01*
X168940882Y-141613562D01*
X168933876Y-141631870D01*
X168933621Y-141635453D01*
X168932246Y-141638774D01*
X168930325Y-141658283D01*
X168284985Y-141658283D01*
X168262625Y-141613562D01*
X168260570Y-141610298D01*
X168260058Y-141608760D01*
X168258396Y-141606844D01*
X168252182Y-141596971D01*
X168242709Y-141588755D01*
X168234494Y-141579283D01*
X168224619Y-141573066D01*
X168222705Y-141571407D01*
X168221168Y-141570894D01*
X168217904Y-141568840D01*
X168027427Y-141473602D01*
X168009119Y-141466596D01*
X168005535Y-141466341D01*
X168002215Y-141464966D01*
X167982706Y-141463045D01*
X167530123Y-141463045D01*
X167416039Y-141406003D01*
X167416039Y-141300937D01*
X167485812Y-141161389D01*
X167625361Y-141091616D01*
X167959099Y-141091616D01*
X168128461Y-141176297D01*
X168146769Y-141183303D01*
X168185690Y-141186069D01*
X168222705Y-141173730D01*
X168252182Y-141148166D01*
X168269632Y-141113267D01*
X168272397Y-141074347D01*
X168260058Y-141037331D01*
X168234494Y-141007854D01*
X168217904Y-140997411D01*
X168027427Y-140902173D01*
X168009119Y-140895167D01*
X168005535Y-140894912D01*
X168002215Y-140893537D01*
X167982706Y-140891616D01*
X167601753Y-140891616D01*
X167582244Y-140893537D01*
X167578923Y-140894912D01*
X167575340Y-140895167D01*
X167557032Y-140902173D01*
X167366556Y-140997411D01*
X167363292Y-140999465D01*
X167361754Y-140999978D01*
X167359838Y-141001639D01*
X167349965Y-141007854D01*
X167341749Y-141017326D01*
X167332277Y-141025542D01*
X167326060Y-141035416D01*
X167324401Y-141037331D01*
X167323888Y-141038867D01*
X167321834Y-141042132D01*
X167226596Y-141232610D01*
X167219590Y-141250918D01*
X167219335Y-141254501D01*
X167217960Y-141257822D01*
X167216039Y-141277331D01*
X166558896Y-141277331D01*
X166556975Y-141257822D01*
X166555599Y-141254501D01*
X166555345Y-141250919D01*
X166548339Y-141232610D01*
X166453101Y-141042133D01*
X166451047Y-141038869D01*
X166450534Y-141037331D01*
X166448871Y-141035414D01*
X166442658Y-141025543D01*
X166433187Y-141017329D01*
X166424970Y-141007854D01*
X166415094Y-141001637D01*
X166413181Y-140999978D01*
X166411644Y-140999465D01*
X166408380Y-140997411D01*
X166217903Y-140902173D01*
X166199595Y-140895167D01*
X166196011Y-140894912D01*
X166192691Y-140893537D01*
X166173182Y-140891616D01*
X165887468Y-140891616D01*
X165867959Y-140893537D01*
X165864638Y-140894912D01*
X165861056Y-140895167D01*
X165842747Y-140902173D01*
X165652270Y-140997411D01*
X165635680Y-141007854D01*
X165610115Y-141037331D01*
X165597776Y-141074347D01*
X165600542Y-141113267D01*
X165617991Y-141148165D01*
X165647468Y-141173730D01*
X165684484Y-141186069D01*
X165723404Y-141183303D01*
X165741712Y-141176297D01*
X165911076Y-141091616D01*
X166149575Y-141091616D01*
X166289122Y-141161389D01*
X166358896Y-141300938D01*
X166358896Y-141348961D01*
X166289122Y-141488509D01*
X166149575Y-141558283D01*
X165887468Y-141558283D01*
X165867959Y-141560204D01*
X165864638Y-141561579D01*
X165861056Y-141561834D01*
X165842747Y-141568840D01*
X165652270Y-141664078D01*
X165649006Y-141666131D01*
X165647468Y-141666645D01*
X165645551Y-141668307D01*
X165635680Y-141674521D01*
X165627466Y-141683991D01*
X165617991Y-141692209D01*
X165611774Y-141702084D01*
X165610115Y-141703998D01*
X165609602Y-141705534D01*
X165607548Y-141708799D01*
X165512310Y-141899276D01*
X165505304Y-141917584D01*
X165505049Y-141921167D01*
X165503674Y-141924488D01*
X165501753Y-141943997D01*
X164939848Y-141943997D01*
X164939848Y-141372569D01*
X164937927Y-141353060D01*
X164936551Y-141349739D01*
X164936297Y-141346157D01*
X164929291Y-141327848D01*
X164834053Y-141137371D01*
X164828767Y-141128974D01*
X164827757Y-141126535D01*
X164825503Y-141123788D01*
X164823610Y-141120781D01*
X164821615Y-141119051D01*
X164815321Y-141111381D01*
X164720083Y-141016143D01*
X164712416Y-141009851D01*
X164710684Y-141007854D01*
X164707672Y-141005958D01*
X164704929Y-141003707D01*
X164702492Y-141002697D01*
X164694094Y-140997411D01*
X164503617Y-140902173D01*
X164485309Y-140895167D01*
X164481725Y-140894912D01*
X164478405Y-140893537D01*
X164458896Y-140891616D01*
X164077943Y-140891616D01*
X164058434Y-140893537D01*
X164055113Y-140894912D01*
X164051530Y-140895167D01*
X164033222Y-140902173D01*
X163842746Y-140997411D01*
X163826155Y-141007854D01*
X163800591Y-141037331D01*
X163788252Y-141074347D01*
X163064001Y-141074347D01*
X163005797Y-141016143D01*
X162998130Y-141009851D01*
X162996398Y-141007854D01*
X162993386Y-141005958D01*
X162990643Y-141003707D01*
X162988206Y-141002697D01*
X162979808Y-140997411D01*
X162789331Y-140902173D01*
X162771023Y-140895167D01*
X162767439Y-140894912D01*
X162764119Y-140893537D01*
X162744610Y-140891616D01*
X162458895Y-140891616D01*
X162439386Y-140893537D01*
X162436065Y-140894912D01*
X162432482Y-140895167D01*
X162414174Y-140902173D01*
X162223698Y-140997411D01*
X162215299Y-141002697D01*
X162212862Y-141003707D01*
X162210118Y-141005958D01*
X162207107Y-141007854D01*
X162205374Y-141009851D01*
X162197708Y-141016143D01*
X162102470Y-141111381D01*
X162096178Y-141119047D01*
X162094181Y-141120780D01*
X162092285Y-141123791D01*
X162090034Y-141126535D01*
X162089024Y-141128971D01*
X162083738Y-141137370D01*
X161988500Y-141327848D01*
X161981494Y-141346156D01*
X161981239Y-141349739D01*
X161979864Y-141353060D01*
X161977943Y-141372569D01*
X161320800Y-141372569D01*
X161320800Y-140991616D01*
X161318879Y-140972107D01*
X161303947Y-140936059D01*
X161276357Y-140908469D01*
X161240309Y-140893537D01*
X161201291Y-140893537D01*
X161165243Y-140908469D01*
X161137653Y-140936059D01*
X161122721Y-140972107D01*
X161122578Y-140973558D01*
X160979807Y-140902173D01*
X160961499Y-140895167D01*
X160957915Y-140894912D01*
X160954595Y-140893537D01*
X160935086Y-140891616D01*
X160649371Y-140891616D01*
X160629862Y-140893537D01*
X160626541Y-140894912D01*
X160622958Y-140895167D01*
X160604650Y-140902173D01*
X160414174Y-140997411D01*
X160410910Y-140999465D01*
X160409372Y-140999978D01*
X160407456Y-141001639D01*
X160397583Y-141007854D01*
X160389367Y-141017326D01*
X160379895Y-141025542D01*
X160373678Y-141035416D01*
X160372019Y-141037331D01*
X160371506Y-141038867D01*
X160369452Y-141042132D01*
X160363656Y-141053722D01*
X160357862Y-141042133D01*
X160355808Y-141038869D01*
X160355295Y-141037331D01*
X160353632Y-141035414D01*
X160347419Y-141025543D01*
X160337948Y-141017329D01*
X160329731Y-141007854D01*
X160319855Y-141001637D01*
X160317942Y-140999978D01*
X160316405Y-140999465D01*
X160313141Y-140997411D01*
X160122664Y-140902173D01*
X160104356Y-140895167D01*
X160100772Y-140894912D01*
X160097452Y-140893537D01*
X160077943Y-140891616D01*
X159792229Y-140891616D01*
X159772720Y-140893537D01*
X159769399Y-140894912D01*
X159765817Y-140895167D01*
X159747508Y-140902173D01*
X159557031Y-140997411D01*
X159553767Y-140999464D01*
X159552229Y-140999978D01*
X159550312Y-141001640D01*
X159540441Y-141007854D01*
X159532227Y-141017324D01*
X159522752Y-141025542D01*
X159516535Y-141035417D01*
X159514876Y-141037331D01*
X159514363Y-141038867D01*
X159512309Y-141042132D01*
X159417071Y-141232610D01*
X159410065Y-141250918D01*
X159409810Y-141254501D01*
X159408435Y-141257822D01*
X159406514Y-141277331D01*
X159184292Y-141277331D01*
X159184292Y-140002728D01*
X180399382Y-140002728D01*
X180399382Y-146343250D01*
G37*
D12*
%TO.C,TP8*%
X201400000Y-119000000D02*
G75*
G02*
X200000000Y-119000000I-700000J0D01*
G01*
X200000000Y-119000000D02*
G75*
G02*
X201400000Y-119000000I700000J0D01*
G01*
%TO.C,TP12*%
X198400000Y-121400000D02*
G75*
G02*
X197000000Y-121400000I-700000J0D01*
G01*
X197000000Y-121400000D02*
G75*
G02*
X198400000Y-121400000I700000J0D01*
G01*
%TD*%
M02*
