M48
; DRILL file {KiCad 9.0.4} date 2025-11-12T21:28:05-0500
; FORMAT={-:-/ absolute / metric / decimal}
; #@! TF.CreationDate,2025-11-12T21:28:05-05:00
; #@! TF.GenerationSoftware,Kicad,Pcbnew,9.0.4
; #@! TF.FileFunction,Plated,1,2,PTH
FMAT,2
METRIC
; #@! TA.AperFunction,Plated,PTH,ViaDrill
T1C0.300
; #@! TA.AperFunction,Plated,PTH,ComponentDrill
T2C0.650
; #@! TA.AperFunction,Plated,PTH,ComponentDrill
T3C1.000
%
G90
G05
T1
X77.5Y-73.5
X80.491Y-64.291
X80.75Y-73.25
X80.892Y-65.259
X81.25Y-64.544
X81.5Y-61.0
X81.5Y-63.194
X81.5Y-67.0
X84.25Y-59.5
X84.25Y-61.0
X84.5Y-62.0
X84.5Y-66.444
X84.75Y-68.25
X84.75Y-74.25
X86.5Y-52.0
X87.5Y-53.78
X87.5Y-56.28
X87.5Y-59.5
X87.5Y-62.0
X89.0Y-71.75
X89.5Y-68.0
X91.0Y-60.25
X91.0Y-65.25
X91.4Y-76.65
X92.0Y-55.0
X92.165Y-71.915
X92.5Y-67.75
X93.0Y-66.25
X93.25Y-65.0
X93.915Y-62.165
X94.25Y-53.75
X94.25Y-54.75
X94.5Y-63.5
X95.25Y-52.5
X95.5Y-63.5
X95.75Y-66.75
X96.5Y-57.75
X96.75Y-74.25
X97.5Y-53.25
X98.0Y-62.75
X100.0Y-71.5
X100.75Y-69.1
X100.75Y-70.5
X101.75Y-51.0
X101.75Y-54.0
X102.25Y-65.85
X103.25Y-65.85
X103.5Y-76.75
X103.75Y-61.75
X104.25Y-72.75
X104.5Y-67.75
X105.0Y-72.75
X106.5Y-51.0
X106.5Y-54.0
X106.5Y-69.0
X108.75Y-74.25
X109.26Y-66.84
X110.75Y-51.0
X110.75Y-54.0
X111.0Y-70.25
X112.75Y-65.08
X112.75Y-69.1
X112.75Y-70.75
X113.5Y-66.5
X115.5Y-76.75
X116.0Y-73.5
X117.0Y-72.5
X123.5Y-76.5
X123.75Y-66.0
T2
X106.0Y-60.0
X106.0Y-61.27
X106.0Y-62.54
X106.0Y-63.81
X106.0Y-65.08
X107.27Y-60.0
X107.27Y-61.27
X107.27Y-62.54
X107.27Y-63.81
X107.27Y-65.08
T3
X111.75Y-60.71
X111.75Y-63.25
M30
