%TF.GenerationSoftware,KiCad,Pcbnew,9.0.4*%
%TF.CreationDate,2025-11-12T21:27:57-05:00*%
%TF.ProjectId,FDCAN-USB_Board,46444341-4e2d-4555-9342-5f426f617264,rev?*%
%TF.SameCoordinates,Original*%
%TF.FileFunction,Copper,L2,Bot*%
%TF.FilePolarity,Positive*%
%FSLAX46Y46*%
G04 Gerber Fmt 4.6, Leading zero omitted, Abs format (unit mm)*
G04 Created by KiCad (PCBNEW 9.0.4) date 2025-11-12 21:27:57*
%MOMM*%
%LPD*%
G01*
G04 APERTURE LIST*
%TA.AperFunction,WasherPad*%
%ADD10O,1.803400X0.990600*%
%TD*%
%TA.AperFunction,WasherPad*%
%ADD11O,2.209800X0.990600*%
%TD*%
%TA.AperFunction,ComponentPad*%
%ADD12R,1.700000X1.700000*%
%TD*%
%TA.AperFunction,ComponentPad*%
%ADD13C,1.700000*%
%TD*%
%TA.AperFunction,ComponentPad*%
%ADD14R,1.000000X1.000000*%
%TD*%
%TA.AperFunction,ComponentPad*%
%ADD15C,1.000000*%
%TD*%
%TA.AperFunction,ViaPad*%
%ADD16C,0.600000*%
%TD*%
%TA.AperFunction,Conductor*%
%ADD17C,0.500000*%
%TD*%
%TA.AperFunction,Conductor*%
%ADD18C,0.300000*%
%TD*%
%TA.AperFunction,Conductor*%
%ADD19C,0.200000*%
%TD*%
G04 APERTURE END LIST*
D10*
%TO.P,J1,*%
%TO.N,*%
X82228200Y-59680000D03*
D11*
X78228199Y-59680000D03*
D10*
X82228200Y-68320000D03*
D11*
X78228199Y-68320000D03*
%TD*%
D12*
%TO.P,J5,1,Pin_1*%
%TO.N,GND*%
X111750000Y-63250000D03*
D13*
%TO.P,J5,2,Pin_2*%
%TO.N,NRST*%
X111750000Y-60710000D03*
%TD*%
D14*
%TO.P,J6,1,VTref*%
%TO.N,3.3V*%
X107270000Y-65080000D03*
D15*
%TO.P,J6,2,SWDIO/TMS*%
%TO.N,SWDIO*%
X106000000Y-65080000D03*
%TO.P,J6,3,GND*%
%TO.N,GND*%
X107270000Y-63810000D03*
%TO.P,J6,4,SWCLK/TCK*%
%TO.N,SWCLK*%
X106000000Y-63810000D03*
%TO.P,J6,5,GND*%
%TO.N,GND*%
X107270000Y-62540000D03*
%TO.P,J6,6,SWO/TDO*%
%TO.N,SWO*%
X106000000Y-62540000D03*
%TO.P,J6,7,KEY*%
%TO.N,unconnected-(J6-KEY-Pad7)*%
X107270000Y-61270000D03*
%TO.P,J6,8,NC/TDI*%
%TO.N,unconnected-(J6-NC{slash}TDI-Pad8)*%
X106000000Y-61270000D03*
%TO.P,J6,9,GNDDetect*%
%TO.N,GND*%
X107270000Y-60000000D03*
%TO.P,J6,10,~{RESET}*%
%TO.N,NRST*%
X106000000Y-60000000D03*
%TD*%
D16*
%TO.N,GND*%
X89000000Y-71750000D03*
X97500000Y-53250000D03*
X93000000Y-66250000D03*
X84750000Y-68250000D03*
X87500000Y-53780000D03*
X113500000Y-66500000D03*
X84250000Y-59500000D03*
X92165380Y-71915380D03*
X84250000Y-61000000D03*
X101750000Y-51000000D03*
X110750000Y-54000000D03*
X106500000Y-69000000D03*
X106500000Y-51000000D03*
X101750000Y-54000000D03*
X93915380Y-62165380D03*
X84750000Y-74250000D03*
X95750000Y-66750000D03*
X94250000Y-54750000D03*
X91400000Y-76650000D03*
X115500000Y-76750000D03*
X96500000Y-57750000D03*
X96750000Y-74250000D03*
X86500000Y-52000000D03*
X103250000Y-65850000D03*
X103750000Y-61750000D03*
X87500000Y-56280000D03*
X116000000Y-73500000D03*
X81500000Y-61000000D03*
X103500000Y-76750000D03*
X89500000Y-68000000D03*
X110750000Y-51000000D03*
X81500000Y-67000000D03*
X108750000Y-74250000D03*
X106500000Y-54000000D03*
X104250000Y-72750000D03*
X123500000Y-76500000D03*
X98000000Y-62750000D03*
X123750000Y-66000000D03*
X94250000Y-53750000D03*
X102250000Y-65850000D03*
X92000000Y-55000000D03*
X105000000Y-72750000D03*
X95250000Y-52500000D03*
X117000000Y-72500000D03*
X77500000Y-73500000D03*
X87500000Y-62000000D03*
%TO.N,5V*%
X109259620Y-66840380D03*
X84500000Y-66443750D03*
X80750000Y-73250000D03*
X104500000Y-67750000D03*
X92500000Y-67750000D03*
X84500000Y-62000000D03*
X87500000Y-59500000D03*
%TO.N,3.3V*%
X112750000Y-65080000D03*
X100750000Y-70500000D03*
X111000000Y-70250000D03*
%TO.N,USB+*%
X80491051Y-64290767D03*
X80892227Y-65259294D03*
%TO.N,USB-*%
X81500000Y-63193750D03*
X81250000Y-64543750D03*
%TO.N,SWO*%
X95500000Y-63500000D03*
%TO.N,SWCLK*%
X94500000Y-63500000D03*
%TO.N,SWDIO*%
X93250000Y-65000000D03*
%TO.N,CAN_TX1*%
X112750000Y-69100000D03*
X112750000Y-70750000D03*
%TO.N,CAN_TX2*%
X100000000Y-71500000D03*
X100750000Y-69100000D03*
%TO.N,CAN_RX3*%
X91000000Y-60250000D03*
X91000000Y-65250000D03*
%TD*%
D17*
%TO.N,5V*%
X80750000Y-73250000D02*
X80750000Y-70187925D01*
X85456250Y-61043750D02*
X86956250Y-61043750D01*
X84693750Y-66250000D02*
X84500000Y-66443750D01*
X104500000Y-67750000D02*
X108350000Y-67750000D01*
X108350000Y-67750000D02*
X109259620Y-66840380D01*
X89250000Y-66250000D02*
X84693750Y-66250000D01*
X104500000Y-67750000D02*
X92500000Y-67750000D01*
X86956250Y-61043750D02*
X87500000Y-60500000D01*
X84500000Y-66443750D02*
X84500000Y-62000000D01*
X90750000Y-67750000D02*
X89250000Y-66250000D01*
X80750000Y-70187925D02*
X84494175Y-66443750D01*
X87500000Y-60500000D02*
X87500000Y-59500000D01*
X92500000Y-67750000D02*
X90750000Y-67750000D01*
X84500000Y-62000000D02*
X85456250Y-61043750D01*
X84494175Y-66443750D02*
X84500000Y-66443750D01*
D18*
%TO.N,3.3V*%
X111000000Y-70250000D02*
X112000000Y-69250000D01*
X112000000Y-65830000D02*
X112750000Y-65080000D01*
X110750000Y-70500000D02*
X100750000Y-70500000D01*
X112000000Y-69250000D02*
X112000000Y-65830000D01*
X111000000Y-70250000D02*
X110750000Y-70500000D01*
D19*
%TO.N,USB+*%
X80500000Y-64299716D02*
X80500000Y-64867067D01*
X80500000Y-64867067D02*
X80892227Y-65259294D01*
X80491051Y-64290767D02*
X80500000Y-64299716D01*
%TO.N,USB-*%
X81250000Y-63443750D02*
X81250000Y-64543750D01*
X81500000Y-63193750D02*
X81250000Y-63443750D01*
D18*
%TO.N,SWO*%
X104000000Y-63750000D02*
X95750000Y-63750000D01*
X106000000Y-62540000D02*
X105210000Y-62540000D01*
X95750000Y-63750000D02*
X95500000Y-63500000D01*
X105210000Y-62540000D02*
X104000000Y-63750000D01*
%TO.N,SWCLK*%
X106000000Y-63810000D02*
X104769346Y-63810000D01*
X95250000Y-64250000D02*
X94500000Y-63500000D01*
X104769346Y-63810000D02*
X104329346Y-64250000D01*
X104329346Y-64250000D02*
X95250000Y-64250000D01*
%TO.N,SWDIO*%
X105670000Y-64750000D02*
X93500000Y-64750000D01*
X93500000Y-64750000D02*
X93250000Y-65000000D01*
X106000000Y-65080000D02*
X105670000Y-64750000D01*
%TO.N,CAN_TX1*%
X112750000Y-70750000D02*
X112750000Y-69100000D01*
%TO.N,CAN_TX2*%
X100000000Y-71500000D02*
X100000000Y-69445000D01*
X100345000Y-69100000D02*
X100750000Y-69100000D01*
X100000000Y-69445000D02*
X100345000Y-69100000D01*
%TO.N,CAN_RX3*%
X91000000Y-65250000D02*
X91000000Y-60250000D01*
%TD*%
%TA.AperFunction,Conductor*%
%TO.N,GND*%
G36*
X121503032Y-50500648D02*
G01*
X121836929Y-50517052D01*
X121849037Y-50518245D01*
X121952146Y-50533539D01*
X122176699Y-50566849D01*
X122188617Y-50569219D01*
X122509951Y-50649709D01*
X122521588Y-50653240D01*
X122592806Y-50678722D01*
X122833467Y-50764832D01*
X122844688Y-50769479D01*
X123144163Y-50911120D01*
X123154871Y-50916844D01*
X123438988Y-51087137D01*
X123449106Y-51093897D01*
X123715170Y-51291224D01*
X123724576Y-51298944D01*
X123970013Y-51521395D01*
X123978604Y-51529986D01*
X124165755Y-51736475D01*
X124201055Y-51775423D01*
X124208775Y-51784829D01*
X124406102Y-52050893D01*
X124412862Y-52061011D01*
X124541776Y-52276092D01*
X124583148Y-52345116D01*
X124588883Y-52355844D01*
X124663236Y-52513051D01*
X124730514Y-52655297D01*
X124735170Y-52666540D01*
X124846759Y-52978411D01*
X124850292Y-52990055D01*
X124930777Y-53311369D01*
X124933151Y-53323305D01*
X124981754Y-53650962D01*
X124982947Y-53663071D01*
X124999351Y-53996966D01*
X124999500Y-54003051D01*
X124999500Y-80746948D01*
X124999351Y-80753033D01*
X124982947Y-81086928D01*
X124981754Y-81099037D01*
X124933151Y-81426694D01*
X124930777Y-81438630D01*
X124850292Y-81759944D01*
X124846759Y-81771588D01*
X124735170Y-82083459D01*
X124730514Y-82094702D01*
X124588885Y-82394151D01*
X124583148Y-82404883D01*
X124412862Y-82688988D01*
X124406102Y-82699106D01*
X124208775Y-82965170D01*
X124201055Y-82974576D01*
X123978611Y-83220006D01*
X123970006Y-83228611D01*
X123724576Y-83451055D01*
X123715170Y-83458775D01*
X123449106Y-83656102D01*
X123438988Y-83662862D01*
X123154883Y-83833148D01*
X123144151Y-83838885D01*
X122844702Y-83980514D01*
X122833459Y-83985170D01*
X122521588Y-84096759D01*
X122509944Y-84100292D01*
X122188630Y-84180777D01*
X122176694Y-84183151D01*
X121849037Y-84231754D01*
X121836928Y-84232947D01*
X121521989Y-84248419D01*
X121503031Y-84249351D01*
X121496949Y-84249500D01*
X79003051Y-84249500D01*
X78996968Y-84249351D01*
X78976900Y-84248365D01*
X78663071Y-84232947D01*
X78650962Y-84231754D01*
X78323305Y-84183151D01*
X78311369Y-84180777D01*
X77990055Y-84100292D01*
X77978411Y-84096759D01*
X77666540Y-83985170D01*
X77655301Y-83980515D01*
X77355844Y-83838883D01*
X77345121Y-83833150D01*
X77061011Y-83662862D01*
X77050893Y-83656102D01*
X76784829Y-83458775D01*
X76775423Y-83451055D01*
X76736475Y-83415755D01*
X76529986Y-83228604D01*
X76521395Y-83220013D01*
X76298944Y-82974576D01*
X76291224Y-82965170D01*
X76093897Y-82699106D01*
X76087137Y-82688988D01*
X75916844Y-82404871D01*
X75911120Y-82394163D01*
X75769479Y-82094688D01*
X75764829Y-82083459D01*
X75653240Y-81771588D01*
X75649707Y-81759944D01*
X75607374Y-81590941D01*
X75569219Y-81438617D01*
X75566848Y-81426694D01*
X75518245Y-81099037D01*
X75517052Y-81086927D01*
X75500649Y-80753032D01*
X75500500Y-80746948D01*
X75500500Y-80623723D01*
X77395500Y-80623723D01*
X77395500Y-80876276D01*
X77435009Y-81125722D01*
X77435009Y-81125725D01*
X77513050Y-81365911D01*
X77513051Y-81365914D01*
X77627709Y-81590941D01*
X77776156Y-81795261D01*
X77954739Y-81973844D01*
X78159059Y-82122291D01*
X78269428Y-82178526D01*
X78384085Y-82236948D01*
X78384088Y-82236949D01*
X78608123Y-82309741D01*
X78624279Y-82314991D01*
X78873723Y-82354500D01*
X78873724Y-82354500D01*
X79126276Y-82354500D01*
X79126277Y-82354500D01*
X79375721Y-82314991D01*
X79375724Y-82314990D01*
X79375725Y-82314990D01*
X79615911Y-82236949D01*
X79615914Y-82236948D01*
X79840941Y-82122291D01*
X80045261Y-81973844D01*
X80223844Y-81795261D01*
X80372291Y-81590941D01*
X80486948Y-81365914D01*
X80564991Y-81125721D01*
X80604500Y-80876277D01*
X80604500Y-80623723D01*
X119895500Y-80623723D01*
X119895500Y-80876276D01*
X119935009Y-81125722D01*
X119935009Y-81125725D01*
X120013050Y-81365911D01*
X120013051Y-81365914D01*
X120127709Y-81590941D01*
X120276156Y-81795261D01*
X120454739Y-81973844D01*
X120659059Y-82122291D01*
X120769428Y-82178526D01*
X120884085Y-82236948D01*
X120884088Y-82236949D01*
X121108123Y-82309741D01*
X121124279Y-82314991D01*
X121373723Y-82354500D01*
X121373724Y-82354500D01*
X121626276Y-82354500D01*
X121626277Y-82354500D01*
X121875721Y-82314991D01*
X121875724Y-82314990D01*
X121875725Y-82314990D01*
X122115911Y-82236949D01*
X122115914Y-82236948D01*
X122340941Y-82122291D01*
X122545261Y-81973844D01*
X122723844Y-81795261D01*
X122872291Y-81590941D01*
X122986948Y-81365914D01*
X123064991Y-81125721D01*
X123104500Y-80876277D01*
X123104500Y-80623723D01*
X123064991Y-80374279D01*
X123064990Y-80374275D01*
X123064990Y-80374274D01*
X122986949Y-80134088D01*
X122986948Y-80134085D01*
X122872290Y-79909058D01*
X122723844Y-79704739D01*
X122545261Y-79526156D01*
X122340941Y-79377709D01*
X122115914Y-79263051D01*
X122115911Y-79263050D01*
X121875723Y-79185009D01*
X121709425Y-79158669D01*
X121626277Y-79145500D01*
X121373723Y-79145500D01*
X121290575Y-79158669D01*
X121124277Y-79185009D01*
X121124274Y-79185009D01*
X120884088Y-79263050D01*
X120884085Y-79263051D01*
X120659058Y-79377709D01*
X120454736Y-79526158D01*
X120276158Y-79704736D01*
X120127709Y-79909058D01*
X120013051Y-80134085D01*
X120013050Y-80134088D01*
X119935009Y-80374274D01*
X119935009Y-80374277D01*
X119895500Y-80623723D01*
X80604500Y-80623723D01*
X80564991Y-80374279D01*
X80564990Y-80374275D01*
X80564990Y-80374274D01*
X80486949Y-80134088D01*
X80486948Y-80134085D01*
X80372290Y-79909058D01*
X80223844Y-79704739D01*
X80045261Y-79526156D01*
X79840941Y-79377709D01*
X79615914Y-79263051D01*
X79615911Y-79263050D01*
X79375723Y-79185009D01*
X79209425Y-79158669D01*
X79126277Y-79145500D01*
X78873723Y-79145500D01*
X78790575Y-79158669D01*
X78624277Y-79185009D01*
X78624274Y-79185009D01*
X78384088Y-79263050D01*
X78384085Y-79263051D01*
X78159058Y-79377709D01*
X77954736Y-79526158D01*
X77776158Y-79704736D01*
X77627709Y-79909058D01*
X77513051Y-80134085D01*
X77513050Y-80134088D01*
X77435009Y-80374274D01*
X77435009Y-80374277D01*
X77395500Y-80623723D01*
X75500500Y-80623723D01*
X75500500Y-73171153D01*
X79949500Y-73171153D01*
X79949500Y-73328846D01*
X79980261Y-73483489D01*
X79980264Y-73483501D01*
X80040602Y-73629172D01*
X80040609Y-73629185D01*
X80128210Y-73760288D01*
X80128213Y-73760292D01*
X80239707Y-73871786D01*
X80239711Y-73871789D01*
X80370814Y-73959390D01*
X80370827Y-73959397D01*
X80516498Y-74019735D01*
X80516503Y-74019737D01*
X80671153Y-74050499D01*
X80671156Y-74050500D01*
X80671158Y-74050500D01*
X80828844Y-74050500D01*
X80828845Y-74050499D01*
X80983497Y-74019737D01*
X81129179Y-73959394D01*
X81260289Y-73871789D01*
X81371789Y-73760289D01*
X81459394Y-73629179D01*
X81519737Y-73483497D01*
X81550500Y-73328842D01*
X81550500Y-73171158D01*
X81550500Y-73171155D01*
X81550499Y-73171153D01*
X81519739Y-73016511D01*
X81519738Y-73016508D01*
X81519737Y-73016503D01*
X81509937Y-72992844D01*
X81500500Y-72945396D01*
X81500500Y-70550155D01*
X81520185Y-70483116D01*
X81536819Y-70462474D01*
X82647174Y-69352119D01*
X82708497Y-69318634D01*
X82726646Y-69316682D01*
X82726618Y-69316397D01*
X82732672Y-69315800D01*
X82732678Y-69315800D01*
X82925064Y-69277532D01*
X83106288Y-69202466D01*
X83269385Y-69093488D01*
X83408088Y-68954785D01*
X83517066Y-68791688D01*
X83592132Y-68610464D01*
X83630400Y-68418078D01*
X83630400Y-68418071D01*
X83630997Y-68412018D01*
X83632767Y-68412192D01*
X83650085Y-68353215D01*
X83666714Y-68332577D01*
X84805353Y-67193938D01*
X84845577Y-67167061D01*
X84879179Y-67153144D01*
X85010289Y-67065539D01*
X85010292Y-67065536D01*
X85039010Y-67036819D01*
X85100333Y-67003334D01*
X85126691Y-67000500D01*
X88887770Y-67000500D01*
X88954809Y-67020185D01*
X88975451Y-67036819D01*
X90167048Y-68228415D01*
X90167049Y-68228416D01*
X90238133Y-68299500D01*
X90271585Y-68332952D01*
X90394498Y-68415080D01*
X90394511Y-68415087D01*
X90531082Y-68471656D01*
X90531087Y-68471658D01*
X90531091Y-68471658D01*
X90531092Y-68471659D01*
X90676079Y-68500500D01*
X90676082Y-68500500D01*
X92195396Y-68500500D01*
X92242844Y-68509937D01*
X92266503Y-68519737D01*
X92266508Y-68519738D01*
X92266511Y-68519739D01*
X92421153Y-68550499D01*
X92421156Y-68550500D01*
X92421158Y-68550500D01*
X92578844Y-68550500D01*
X92578845Y-68550499D01*
X92655152Y-68535320D01*
X92733488Y-68519739D01*
X92733489Y-68519738D01*
X92733497Y-68519737D01*
X92757155Y-68509937D01*
X92804604Y-68500500D01*
X99725191Y-68500500D01*
X99792230Y-68520185D01*
X99837985Y-68572989D01*
X99847929Y-68642147D01*
X99818904Y-68705703D01*
X99812872Y-68712181D01*
X99494727Y-69030325D01*
X99494726Y-69030326D01*
X99423534Y-69136874D01*
X99374499Y-69255255D01*
X99374497Y-69255261D01*
X99349500Y-69380928D01*
X99349500Y-70995064D01*
X99329815Y-71062103D01*
X99328603Y-71063954D01*
X99290608Y-71120817D01*
X99290602Y-71120828D01*
X99230264Y-71266498D01*
X99230261Y-71266510D01*
X99199500Y-71421153D01*
X99199500Y-71578846D01*
X99230261Y-71733489D01*
X99230264Y-71733501D01*
X99290602Y-71879172D01*
X99290609Y-71879185D01*
X99378210Y-72010288D01*
X99378213Y-72010292D01*
X99489707Y-72121786D01*
X99489711Y-72121789D01*
X99620814Y-72209390D01*
X99620827Y-72209397D01*
X99766498Y-72269735D01*
X99766503Y-72269737D01*
X99921153Y-72300499D01*
X99921156Y-72300500D01*
X99921158Y-72300500D01*
X100078844Y-72300500D01*
X100078845Y-72300499D01*
X100233497Y-72269737D01*
X100379179Y-72209394D01*
X100510289Y-72121789D01*
X100621789Y-72010289D01*
X100709394Y-71879179D01*
X100769737Y-71733497D01*
X100800500Y-71578842D01*
X100800500Y-71421158D01*
X100800500Y-71421155D01*
X100800405Y-71420191D01*
X100800500Y-71419690D01*
X100800500Y-71415066D01*
X100801377Y-71415066D01*
X100813425Y-71351546D01*
X100861490Y-71300836D01*
X100899617Y-71286422D01*
X100913560Y-71283648D01*
X100983497Y-71269737D01*
X101129179Y-71209394D01*
X101186044Y-71171397D01*
X101252721Y-71150520D01*
X101254935Y-71150500D01*
X110814071Y-71150500D01*
X110898615Y-71133682D01*
X110939744Y-71125501D01*
X111058127Y-71076465D01*
X111084174Y-71059061D01*
X111128864Y-71040549D01*
X111233497Y-71019737D01*
X111379179Y-70959394D01*
X111510289Y-70871789D01*
X111621789Y-70760289D01*
X111709394Y-70629179D01*
X111710938Y-70625450D01*
X111754778Y-70571047D01*
X111821072Y-70548981D01*
X111888771Y-70566259D01*
X111936383Y-70617395D01*
X111949500Y-70672902D01*
X111949500Y-70828846D01*
X111980261Y-70983489D01*
X111980264Y-70983501D01*
X112040602Y-71129172D01*
X112040609Y-71129185D01*
X112128210Y-71260288D01*
X112128213Y-71260292D01*
X112239707Y-71371786D01*
X112239711Y-71371789D01*
X112370814Y-71459390D01*
X112370827Y-71459397D01*
X112516498Y-71519735D01*
X112516503Y-71519737D01*
X112671153Y-71550499D01*
X112671156Y-71550500D01*
X112671158Y-71550500D01*
X112828844Y-71550500D01*
X112828845Y-71550499D01*
X112983497Y-71519737D01*
X113129179Y-71459394D01*
X113260289Y-71371789D01*
X113371789Y-71260289D01*
X113459394Y-71129179D01*
X113460918Y-71125501D01*
X113486411Y-71063954D01*
X113519737Y-70983497D01*
X113550500Y-70828842D01*
X113550500Y-70671158D01*
X113550500Y-70671155D01*
X113550499Y-70671153D01*
X113542150Y-70629179D01*
X113519737Y-70516503D01*
X113459394Y-70370821D01*
X113421396Y-70313953D01*
X113400520Y-70247276D01*
X113400500Y-70245064D01*
X113400500Y-69604935D01*
X113420185Y-69537896D01*
X113421366Y-69536090D01*
X113459394Y-69479179D01*
X113519737Y-69333497D01*
X113550500Y-69178842D01*
X113550500Y-69021158D01*
X113550500Y-69021155D01*
X113550499Y-69021153D01*
X113537298Y-68954788D01*
X113519737Y-68866503D01*
X113490971Y-68797055D01*
X113459397Y-68720827D01*
X113459390Y-68720814D01*
X113371789Y-68589711D01*
X113371786Y-68589707D01*
X113260292Y-68478213D01*
X113260288Y-68478210D01*
X113129185Y-68390609D01*
X113129172Y-68390602D01*
X112983501Y-68330264D01*
X112983489Y-68330261D01*
X112828845Y-68299500D01*
X112828842Y-68299500D01*
X112774500Y-68299500D01*
X112707461Y-68279815D01*
X112661706Y-68227011D01*
X112650500Y-68175500D01*
X112650500Y-66150806D01*
X112659144Y-66121365D01*
X112665668Y-66091379D01*
X112669422Y-66086363D01*
X112670185Y-66083767D01*
X112686810Y-66063134D01*
X112852931Y-65897012D01*
X112914251Y-65863530D01*
X112916330Y-65863096D01*
X112983497Y-65849737D01*
X113129179Y-65789394D01*
X113260289Y-65701789D01*
X113371789Y-65590289D01*
X113459394Y-65459179D01*
X113519737Y-65313497D01*
X113550500Y-65158842D01*
X113550500Y-65001158D01*
X113550500Y-65001155D01*
X113550499Y-65001153D01*
X113534586Y-64921153D01*
X113519737Y-64846503D01*
X113503059Y-64806238D01*
X113459397Y-64700827D01*
X113459390Y-64700814D01*
X113371789Y-64569711D01*
X113371786Y-64569707D01*
X113260292Y-64458213D01*
X113260288Y-64458210D01*
X113129185Y-64370609D01*
X113129172Y-64370602D01*
X112983501Y-64310264D01*
X112983489Y-64310261D01*
X112828845Y-64279500D01*
X112828842Y-64279500D01*
X112671158Y-64279500D01*
X112671155Y-64279500D01*
X112516510Y-64310261D01*
X112516498Y-64310264D01*
X112370827Y-64370602D01*
X112370814Y-64370609D01*
X112239711Y-64458210D01*
X112239707Y-64458213D01*
X112128213Y-64569707D01*
X112128210Y-64569711D01*
X112040609Y-64700814D01*
X112040602Y-64700827D01*
X111980264Y-64846498D01*
X111980261Y-64846508D01*
X111966920Y-64913580D01*
X111934535Y-64975491D01*
X111932984Y-64977069D01*
X111494723Y-65415330D01*
X111486919Y-65427011D01*
X111459821Y-65467567D01*
X111423538Y-65521867D01*
X111423533Y-65521875D01*
X111374499Y-65640255D01*
X111374497Y-65640261D01*
X111349500Y-65765928D01*
X111349500Y-68929191D01*
X111329815Y-68996230D01*
X111313181Y-69016872D01*
X110897068Y-69432984D01*
X110835745Y-69466469D01*
X110833579Y-69466920D01*
X110766508Y-69480261D01*
X110766498Y-69480264D01*
X110620827Y-69540602D01*
X110620814Y-69540609D01*
X110489711Y-69628210D01*
X110489707Y-69628213D01*
X110378213Y-69739707D01*
X110378207Y-69739715D01*
X110341675Y-69794390D01*
X110288063Y-69839196D01*
X110238573Y-69849500D01*
X101431941Y-69849500D01*
X101364902Y-69829815D01*
X101319147Y-69777011D01*
X101309203Y-69707853D01*
X101338228Y-69644297D01*
X101344260Y-69637819D01*
X101371786Y-69610292D01*
X101371789Y-69610289D01*
X101459394Y-69479179D01*
X101519737Y-69333497D01*
X101550500Y-69178842D01*
X101550500Y-69021158D01*
X101550500Y-69021155D01*
X101550499Y-69021153D01*
X101537298Y-68954788D01*
X101519737Y-68866503D01*
X101490971Y-68797055D01*
X101459397Y-68720827D01*
X101459389Y-68720812D01*
X101441067Y-68693392D01*
X101420188Y-68626715D01*
X101438672Y-68559334D01*
X101490650Y-68512644D01*
X101544168Y-68500500D01*
X104195396Y-68500500D01*
X104242844Y-68509937D01*
X104266503Y-68519737D01*
X104266508Y-68519738D01*
X104266511Y-68519739D01*
X104421153Y-68550499D01*
X104421156Y-68550500D01*
X104421158Y-68550500D01*
X104578844Y-68550500D01*
X104578845Y-68550499D01*
X104655152Y-68535320D01*
X104733488Y-68519739D01*
X104733489Y-68519738D01*
X104733497Y-68519737D01*
X104757155Y-68509937D01*
X104804604Y-68500500D01*
X108423920Y-68500500D01*
X108521462Y-68481096D01*
X108568913Y-68471658D01*
X108705495Y-68415084D01*
X108770291Y-68371789D01*
X108770294Y-68371786D01*
X108770296Y-68371786D01*
X108799547Y-68352240D01*
X108828416Y-68332952D01*
X109574917Y-67586449D01*
X109615144Y-67559571D01*
X109638799Y-67549774D01*
X109769909Y-67462169D01*
X109881409Y-67350669D01*
X109969014Y-67219559D01*
X110029357Y-67073877D01*
X110060120Y-66919222D01*
X110060120Y-66761538D01*
X110060120Y-66761535D01*
X110060119Y-66761533D01*
X110029358Y-66606890D01*
X110029357Y-66606883D01*
X109995475Y-66525083D01*
X109969017Y-66461207D01*
X109969010Y-66461194D01*
X109881409Y-66330091D01*
X109881406Y-66330087D01*
X109769912Y-66218593D01*
X109769908Y-66218590D01*
X109638805Y-66130989D01*
X109638792Y-66130982D01*
X109493121Y-66070644D01*
X109493109Y-66070641D01*
X109338465Y-66039880D01*
X109338462Y-66039880D01*
X109180778Y-66039880D01*
X109180775Y-66039880D01*
X109026130Y-66070641D01*
X109026118Y-66070644D01*
X108880447Y-66130982D01*
X108880434Y-66130989D01*
X108749331Y-66218590D01*
X108749327Y-66218593D01*
X108637833Y-66330087D01*
X108637827Y-66330095D01*
X108550227Y-66461198D01*
X108550226Y-66461199D01*
X108540425Y-66484860D01*
X108513547Y-66525083D01*
X108075451Y-66963181D01*
X108014128Y-66996666D01*
X107987770Y-66999500D01*
X104804604Y-66999500D01*
X104757155Y-66990062D01*
X104733497Y-66980263D01*
X104733493Y-66980262D01*
X104733488Y-66980260D01*
X104578845Y-66949500D01*
X104578842Y-66949500D01*
X104421158Y-66949500D01*
X104421155Y-66949500D01*
X104266511Y-66980260D01*
X104266506Y-66980262D01*
X104266504Y-66980262D01*
X104266503Y-66980263D01*
X104242844Y-66990062D01*
X104195396Y-66999500D01*
X92804604Y-66999500D01*
X92757155Y-66990062D01*
X92733497Y-66980263D01*
X92733493Y-66980262D01*
X92733488Y-66980260D01*
X92578845Y-66949500D01*
X92578842Y-66949500D01*
X92421158Y-66949500D01*
X92421155Y-66949500D01*
X92266511Y-66980260D01*
X92266506Y-66980262D01*
X92266504Y-66980262D01*
X92266503Y-66980263D01*
X92242844Y-66990062D01*
X92195396Y-66999500D01*
X91112229Y-66999500D01*
X91045190Y-66979815D01*
X91024548Y-66963181D01*
X89728421Y-65667052D01*
X89728420Y-65667051D01*
X89688325Y-65640261D01*
X89637386Y-65606225D01*
X89605495Y-65584916D01*
X89605488Y-65584912D01*
X89468917Y-65528343D01*
X89468907Y-65528340D01*
X89323920Y-65499500D01*
X89323918Y-65499500D01*
X85374500Y-65499500D01*
X85307461Y-65479815D01*
X85261706Y-65427011D01*
X85250500Y-65375500D01*
X85250500Y-62362230D01*
X85270185Y-62295191D01*
X85286819Y-62274549D01*
X85730799Y-61830569D01*
X85792122Y-61797084D01*
X85818480Y-61794250D01*
X87030170Y-61794250D01*
X87127712Y-61774846D01*
X87175163Y-61765408D01*
X87311745Y-61708834D01*
X87366795Y-61672051D01*
X87366795Y-61672050D01*
X87366797Y-61672050D01*
X87400730Y-61649376D01*
X87434666Y-61626702D01*
X88082952Y-60978415D01*
X88110205Y-60937627D01*
X88165084Y-60855495D01*
X88211360Y-60743775D01*
X88221659Y-60718912D01*
X88250500Y-60573917D01*
X88250500Y-60426082D01*
X88250500Y-60171153D01*
X90199500Y-60171153D01*
X90199500Y-60328846D01*
X90230261Y-60483489D01*
X90230264Y-60483501D01*
X90290602Y-60629172D01*
X90290606Y-60629179D01*
X90328602Y-60686044D01*
X90349480Y-60752721D01*
X90349500Y-60754935D01*
X90349500Y-64745064D01*
X90329815Y-64812103D01*
X90328603Y-64813954D01*
X90290608Y-64870817D01*
X90290602Y-64870828D01*
X90230264Y-65016498D01*
X90230261Y-65016510D01*
X90199500Y-65171153D01*
X90199500Y-65328846D01*
X90230261Y-65483489D01*
X90230264Y-65483501D01*
X90290602Y-65629172D01*
X90290609Y-65629185D01*
X90378210Y-65760288D01*
X90378213Y-65760292D01*
X90489707Y-65871786D01*
X90489711Y-65871789D01*
X90620814Y-65959390D01*
X90620827Y-65959397D01*
X90700051Y-65992212D01*
X90766503Y-66019737D01*
X90921153Y-66050499D01*
X90921156Y-66050500D01*
X90921158Y-66050500D01*
X91078844Y-66050500D01*
X91078845Y-66050499D01*
X91233497Y-66019737D01*
X91361705Y-65966632D01*
X91379172Y-65959397D01*
X91379172Y-65959396D01*
X91379179Y-65959394D01*
X91510289Y-65871789D01*
X91621789Y-65760289D01*
X91709394Y-65629179D01*
X91769737Y-65483497D01*
X91800500Y-65328842D01*
X91800500Y-65171158D01*
X91800500Y-65171155D01*
X91800499Y-65171153D01*
X91769738Y-65016510D01*
X91769737Y-65016503D01*
X91730242Y-64921153D01*
X92449500Y-64921153D01*
X92449500Y-65078846D01*
X92480261Y-65233489D01*
X92480264Y-65233501D01*
X92540602Y-65379172D01*
X92540609Y-65379185D01*
X92628210Y-65510288D01*
X92628213Y-65510292D01*
X92739707Y-65621786D01*
X92739711Y-65621789D01*
X92870814Y-65709390D01*
X92870827Y-65709397D01*
X93007307Y-65765928D01*
X93016503Y-65769737D01*
X93171153Y-65800499D01*
X93171156Y-65800500D01*
X93171158Y-65800500D01*
X93328844Y-65800500D01*
X93328845Y-65800499D01*
X93483497Y-65769737D01*
X93608921Y-65717785D01*
X93629172Y-65709397D01*
X93629172Y-65709396D01*
X93629179Y-65709394D01*
X93760289Y-65621789D01*
X93871789Y-65510289D01*
X93900335Y-65467567D01*
X93908325Y-65455610D01*
X93961937Y-65410804D01*
X94011427Y-65400500D01*
X104966968Y-65400500D01*
X105034007Y-65420185D01*
X105079762Y-65472989D01*
X105081529Y-65477048D01*
X105113364Y-65553907D01*
X105113371Y-65553920D01*
X105222860Y-65717781D01*
X105222863Y-65717785D01*
X105362214Y-65857136D01*
X105362218Y-65857139D01*
X105526079Y-65966628D01*
X105526092Y-65966635D01*
X105708160Y-66042049D01*
X105708165Y-66042051D01*
X105708169Y-66042051D01*
X105708170Y-66042052D01*
X105901456Y-66080500D01*
X105901459Y-66080500D01*
X106098543Y-66080500D01*
X106249359Y-66050500D01*
X106291835Y-66042051D01*
X106394126Y-65999680D01*
X106463590Y-65992212D01*
X106515887Y-66014976D01*
X106527668Y-66023795D01*
X106527671Y-66023797D01*
X106662517Y-66074091D01*
X106662516Y-66074091D01*
X106669444Y-66074835D01*
X106722127Y-66080500D01*
X107817872Y-66080499D01*
X107877483Y-66074091D01*
X108012331Y-66023796D01*
X108127546Y-65937546D01*
X108213796Y-65822331D01*
X108264091Y-65687483D01*
X108270500Y-65627873D01*
X108270499Y-64532128D01*
X108264091Y-64472517D01*
X108261251Y-64464903D01*
X108213797Y-64337671D01*
X108213793Y-64337664D01*
X108127547Y-64222455D01*
X108127544Y-64222452D01*
X108012335Y-64136206D01*
X108012328Y-64136202D01*
X107877482Y-64085908D01*
X107877483Y-64085908D01*
X107817883Y-64079501D01*
X107817881Y-64079500D01*
X107817873Y-64079500D01*
X107817865Y-64079500D01*
X107117589Y-64079500D01*
X107050550Y-64059815D01*
X107004795Y-64007011D01*
X106994851Y-63937853D01*
X106995972Y-63931309D01*
X107000499Y-63908545D01*
X107000500Y-63908543D01*
X107000500Y-63711456D01*
X106962052Y-63518170D01*
X106962051Y-63518169D01*
X106962051Y-63518165D01*
X106949624Y-63488164D01*
X106886635Y-63336092D01*
X106886633Y-63336088D01*
X106886632Y-63336086D01*
X106844206Y-63272592D01*
X106825029Y-63243891D01*
X106804151Y-63177214D01*
X106822635Y-63109834D01*
X106825029Y-63106109D01*
X106842598Y-63079815D01*
X106886632Y-63013914D01*
X106896656Y-62989715D01*
X106942841Y-62878213D01*
X106962051Y-62831835D01*
X106982256Y-62730261D01*
X107000500Y-62638543D01*
X107000500Y-62441458D01*
X106994255Y-62410065D01*
X107000481Y-62340474D01*
X107043344Y-62285296D01*
X107109233Y-62262050D01*
X107140062Y-62264254D01*
X107158276Y-62267877D01*
X107171458Y-62270500D01*
X107171459Y-62270500D01*
X107368543Y-62270500D01*
X107498582Y-62244632D01*
X107561835Y-62232051D01*
X107743914Y-62156632D01*
X107907782Y-62047139D01*
X108047139Y-61907782D01*
X108156632Y-61743914D01*
X108171163Y-61708834D01*
X108232049Y-61561839D01*
X108232051Y-61561835D01*
X108260698Y-61417820D01*
X108270500Y-61368543D01*
X108270500Y-61171456D01*
X108232052Y-60978170D01*
X108232051Y-60978169D01*
X108232051Y-60978165D01*
X108181240Y-60855495D01*
X108156635Y-60796092D01*
X108156628Y-60796079D01*
X108070869Y-60667732D01*
X108047139Y-60632218D01*
X108047136Y-60632214D01*
X108018635Y-60603713D01*
X110399500Y-60603713D01*
X110399500Y-60816286D01*
X110432753Y-61026239D01*
X110498444Y-61228414D01*
X110594951Y-61417820D01*
X110719890Y-61589786D01*
X110870213Y-61740109D01*
X111042179Y-61865048D01*
X111042181Y-61865049D01*
X111042184Y-61865051D01*
X111231588Y-61961557D01*
X111433757Y-62027246D01*
X111643713Y-62060500D01*
X111643714Y-62060500D01*
X111856286Y-62060500D01*
X111856287Y-62060500D01*
X112066243Y-62027246D01*
X112268412Y-61961557D01*
X112457816Y-61865051D01*
X112527698Y-61814279D01*
X112629786Y-61740109D01*
X112629788Y-61740106D01*
X112629792Y-61740104D01*
X112780104Y-61589792D01*
X112780106Y-61589788D01*
X112780109Y-61589786D01*
X112905048Y-61417820D01*
X112905047Y-61417820D01*
X112905051Y-61417816D01*
X113001557Y-61228412D01*
X113067246Y-61026243D01*
X113100500Y-60816287D01*
X113100500Y-60603713D01*
X113067246Y-60393757D01*
X113001557Y-60191588D01*
X112905051Y-60002184D01*
X112905049Y-60002181D01*
X112905048Y-60002179D01*
X112780109Y-59830213D01*
X112629786Y-59679890D01*
X112457820Y-59554951D01*
X112268414Y-59458444D01*
X112268413Y-59458443D01*
X112268412Y-59458443D01*
X112066243Y-59392754D01*
X112066241Y-59392753D01*
X112066240Y-59392753D01*
X111904957Y-59367208D01*
X111856287Y-59359500D01*
X111643713Y-59359500D01*
X111595042Y-59367208D01*
X111433760Y-59392753D01*
X111231585Y-59458444D01*
X111042179Y-59554951D01*
X110870213Y-59679890D01*
X110719890Y-59830213D01*
X110594951Y-60002179D01*
X110498444Y-60191585D01*
X110498443Y-60191587D01*
X110498443Y-60191588D01*
X110460635Y-60307949D01*
X110432754Y-60393757D01*
X110399500Y-60603713D01*
X108018635Y-60603713D01*
X107907785Y-60492863D01*
X107907781Y-60492860D01*
X107743920Y-60383371D01*
X107743907Y-60383364D01*
X107561839Y-60307950D01*
X107561829Y-60307947D01*
X107368543Y-60269500D01*
X107368541Y-60269500D01*
X107171459Y-60269500D01*
X107140062Y-60275745D01*
X107070471Y-60269516D01*
X107015294Y-60226653D01*
X106992050Y-60160763D01*
X106994254Y-60129938D01*
X107000500Y-60098541D01*
X107000500Y-59901459D01*
X107000500Y-59901456D01*
X106962052Y-59708170D01*
X106962051Y-59708169D01*
X106962051Y-59708165D01*
X106908484Y-59578842D01*
X106886635Y-59526092D01*
X106886628Y-59526079D01*
X106777139Y-59362218D01*
X106777136Y-59362214D01*
X106637785Y-59222863D01*
X106637781Y-59222860D01*
X106473920Y-59113371D01*
X106473907Y-59113364D01*
X106291839Y-59037950D01*
X106291829Y-59037947D01*
X106098543Y-58999500D01*
X106098541Y-58999500D01*
X105901459Y-58999500D01*
X105901457Y-58999500D01*
X105708170Y-59037947D01*
X105708160Y-59037950D01*
X105526092Y-59113364D01*
X105526079Y-59113371D01*
X105362218Y-59222860D01*
X105362214Y-59222863D01*
X105222863Y-59362214D01*
X105222860Y-59362218D01*
X105113371Y-59526079D01*
X105113364Y-59526092D01*
X105037950Y-59708160D01*
X105037947Y-59708170D01*
X104999500Y-59901456D01*
X104999500Y-59901459D01*
X104999500Y-60098541D01*
X104999500Y-60098543D01*
X104999499Y-60098543D01*
X105037947Y-60291829D01*
X105037950Y-60291839D01*
X105107936Y-60460800D01*
X105113368Y-60473914D01*
X105157352Y-60539740D01*
X105174971Y-60566110D01*
X105195848Y-60632787D01*
X105177363Y-60700167D01*
X105174971Y-60703890D01*
X105113366Y-60796089D01*
X105037950Y-60978160D01*
X105037947Y-60978170D01*
X104999500Y-61171456D01*
X104999500Y-61171459D01*
X104999500Y-61368541D01*
X104999500Y-61368543D01*
X104999499Y-61368543D01*
X105037947Y-61561829D01*
X105037950Y-61561839D01*
X105113739Y-61744810D01*
X105121208Y-61814279D01*
X105089933Y-61876758D01*
X105029844Y-61912410D01*
X105023373Y-61913879D01*
X105020257Y-61914498D01*
X105020255Y-61914499D01*
X104901870Y-61963535D01*
X104795331Y-62034722D01*
X104795324Y-62034728D01*
X103766873Y-63063181D01*
X103705550Y-63096666D01*
X103679192Y-63099500D01*
X96261427Y-63099500D01*
X96194388Y-63079815D01*
X96158325Y-63044390D01*
X96121792Y-62989715D01*
X96121786Y-62989707D01*
X96010292Y-62878213D01*
X96010288Y-62878210D01*
X95879185Y-62790609D01*
X95879172Y-62790602D01*
X95733501Y-62730264D01*
X95733489Y-62730261D01*
X95578845Y-62699500D01*
X95578842Y-62699500D01*
X95421158Y-62699500D01*
X95421155Y-62699500D01*
X95266510Y-62730261D01*
X95266498Y-62730264D01*
X95120827Y-62790602D01*
X95120814Y-62790609D01*
X95068891Y-62825304D01*
X95002214Y-62846182D01*
X94934833Y-62827698D01*
X94931109Y-62825304D01*
X94879185Y-62790609D01*
X94879172Y-62790602D01*
X94733501Y-62730264D01*
X94733489Y-62730261D01*
X94578845Y-62699500D01*
X94578842Y-62699500D01*
X94421158Y-62699500D01*
X94421155Y-62699500D01*
X94266510Y-62730261D01*
X94266498Y-62730264D01*
X94120827Y-62790602D01*
X94120814Y-62790609D01*
X93989711Y-62878210D01*
X93989707Y-62878213D01*
X93878213Y-62989707D01*
X93878210Y-62989711D01*
X93790609Y-63120814D01*
X93790602Y-63120827D01*
X93730264Y-63266498D01*
X93730261Y-63266510D01*
X93699500Y-63421153D01*
X93699500Y-63578846D01*
X93730261Y-63733489D01*
X93730264Y-63733501D01*
X93790602Y-63879172D01*
X93790610Y-63879187D01*
X93808933Y-63906608D01*
X93829812Y-63973285D01*
X93811328Y-64040666D01*
X93759350Y-64087356D01*
X93705832Y-64099500D01*
X93435929Y-64099500D01*
X93336803Y-64119218D01*
X93336801Y-64119218D01*
X93323880Y-64121789D01*
X93310256Y-64124499D01*
X93191873Y-64173535D01*
X93156477Y-64197184D01*
X93146150Y-64201650D01*
X93137347Y-64202733D01*
X93121132Y-64209450D01*
X93016508Y-64230261D01*
X93016498Y-64230264D01*
X92870827Y-64290602D01*
X92870814Y-64290609D01*
X92739711Y-64378210D01*
X92739707Y-64378213D01*
X92628213Y-64489707D01*
X92628210Y-64489711D01*
X92540609Y-64620814D01*
X92540602Y-64620827D01*
X92480264Y-64766498D01*
X92480261Y-64766510D01*
X92449500Y-64921153D01*
X91730242Y-64921153D01*
X91709394Y-64870821D01*
X91667465Y-64808070D01*
X91664230Y-64801779D01*
X91658929Y-64774135D01*
X91650520Y-64747276D01*
X91650500Y-64745064D01*
X91650500Y-60754935D01*
X91670185Y-60687896D01*
X91671366Y-60686090D01*
X91709394Y-60629179D01*
X91769737Y-60483497D01*
X91800500Y-60328842D01*
X91800500Y-60171158D01*
X91800500Y-60171155D01*
X91800499Y-60171153D01*
X91769738Y-60016510D01*
X91769737Y-60016503D01*
X91722085Y-59901459D01*
X91709397Y-59870827D01*
X91709390Y-59870814D01*
X91621789Y-59739711D01*
X91621786Y-59739707D01*
X91510292Y-59628213D01*
X91510288Y-59628210D01*
X91379185Y-59540609D01*
X91379172Y-59540602D01*
X91233501Y-59480264D01*
X91233489Y-59480261D01*
X91078845Y-59449500D01*
X91078842Y-59449500D01*
X90921158Y-59449500D01*
X90921155Y-59449500D01*
X90766510Y-59480261D01*
X90766498Y-59480264D01*
X90620827Y-59540602D01*
X90620814Y-59540609D01*
X90489711Y-59628210D01*
X90489707Y-59628213D01*
X90378213Y-59739707D01*
X90378210Y-59739711D01*
X90290609Y-59870814D01*
X90290602Y-59870827D01*
X90230264Y-60016498D01*
X90230261Y-60016510D01*
X90199500Y-60171153D01*
X88250500Y-60171153D01*
X88250500Y-59804604D01*
X88259939Y-59757151D01*
X88269737Y-59733497D01*
X88300500Y-59578842D01*
X88300500Y-59421158D01*
X88300500Y-59421155D01*
X88300499Y-59421153D01*
X88269738Y-59266510D01*
X88269737Y-59266503D01*
X88245631Y-59208305D01*
X88209397Y-59120827D01*
X88209390Y-59120814D01*
X88121789Y-58989711D01*
X88121786Y-58989707D01*
X88010292Y-58878213D01*
X88010288Y-58878210D01*
X87879185Y-58790609D01*
X87879172Y-58790602D01*
X87733501Y-58730264D01*
X87733489Y-58730261D01*
X87578845Y-58699500D01*
X87578842Y-58699500D01*
X87421158Y-58699500D01*
X87421155Y-58699500D01*
X87266510Y-58730261D01*
X87266498Y-58730264D01*
X87120827Y-58790602D01*
X87120814Y-58790609D01*
X86989711Y-58878210D01*
X86989707Y-58878213D01*
X86878213Y-58989707D01*
X86878210Y-58989711D01*
X86790609Y-59120814D01*
X86790602Y-59120827D01*
X86730264Y-59266498D01*
X86730261Y-59266510D01*
X86699500Y-59421153D01*
X86699500Y-59578846D01*
X86730261Y-59733489D01*
X86730263Y-59733497D01*
X86740061Y-59757151D01*
X86749500Y-59804604D01*
X86749500Y-60137770D01*
X86740855Y-60167210D01*
X86734332Y-60197197D01*
X86730577Y-60202212D01*
X86729815Y-60204809D01*
X86713181Y-60225451D01*
X86681701Y-60256931D01*
X86620378Y-60290416D01*
X86594020Y-60293250D01*
X85382326Y-60293250D01*
X85353492Y-60298984D01*
X85353493Y-60298985D01*
X85237343Y-60322089D01*
X85237333Y-60322092D01*
X85157331Y-60355229D01*
X85157332Y-60355230D01*
X85100754Y-60378666D01*
X85078169Y-60393756D01*
X85078170Y-60393757D01*
X84977832Y-60460799D01*
X84977831Y-60460800D01*
X84184703Y-61253927D01*
X84144480Y-61280805D01*
X84120819Y-61290606D01*
X84120818Y-61290607D01*
X83989715Y-61378207D01*
X83989707Y-61378213D01*
X83878213Y-61489707D01*
X83878210Y-61489711D01*
X83790609Y-61620814D01*
X83790602Y-61620827D01*
X83730264Y-61766498D01*
X83730261Y-61766510D01*
X83699500Y-61921153D01*
X83699500Y-62078846D01*
X83730261Y-62233489D01*
X83730263Y-62233497D01*
X83740061Y-62257151D01*
X83749500Y-62304604D01*
X83749500Y-66075695D01*
X83729815Y-66142734D01*
X83713181Y-66163376D01*
X82588676Y-67287881D01*
X82527353Y-67321366D01*
X82500995Y-67324200D01*
X81723719Y-67324200D01*
X81531343Y-67362466D01*
X81531335Y-67362468D01*
X81350115Y-67437532D01*
X81350105Y-67437537D01*
X81187015Y-67546511D01*
X81187011Y-67546514D01*
X81048314Y-67685211D01*
X81048311Y-67685215D01*
X80939337Y-67848305D01*
X80939332Y-67848315D01*
X80864268Y-68029535D01*
X80864266Y-68029543D01*
X80826000Y-68221917D01*
X80826000Y-68418082D01*
X80864266Y-68610456D01*
X80864268Y-68610464D01*
X80939333Y-68791686D01*
X80939334Y-68791688D01*
X80941093Y-68794321D01*
X80941589Y-68795907D01*
X80942203Y-68797055D01*
X80941985Y-68797171D01*
X80961967Y-68861000D01*
X80943479Y-68928379D01*
X80925668Y-68950887D01*
X80167049Y-69709506D01*
X80117812Y-69783196D01*
X80084921Y-69832421D01*
X80084914Y-69832433D01*
X80028342Y-69969011D01*
X80028340Y-69969017D01*
X79999500Y-70114004D01*
X79999500Y-72945396D01*
X79990062Y-72992844D01*
X79980263Y-73016503D01*
X79980262Y-73016506D01*
X79980260Y-73016511D01*
X79949500Y-73171153D01*
X75500500Y-73171153D01*
X75500500Y-68221917D01*
X76622799Y-68221917D01*
X76622799Y-68418082D01*
X76661065Y-68610456D01*
X76661067Y-68610464D01*
X76736131Y-68791684D01*
X76736136Y-68791694D01*
X76845110Y-68954784D01*
X76845113Y-68954788D01*
X76983810Y-69093485D01*
X76983814Y-69093488D01*
X77146904Y-69202462D01*
X77146908Y-69202464D01*
X77146911Y-69202466D01*
X77328135Y-69277532D01*
X77520516Y-69315799D01*
X77520519Y-69315800D01*
X77520521Y-69315800D01*
X78935879Y-69315800D01*
X78935880Y-69315799D01*
X79128263Y-69277532D01*
X79309487Y-69202466D01*
X79472584Y-69093488D01*
X79611287Y-68954785D01*
X79720265Y-68791688D01*
X79795331Y-68610464D01*
X79833599Y-68418078D01*
X79833599Y-68221922D01*
X79833599Y-68221919D01*
X79833598Y-68221917D01*
X79795332Y-68029543D01*
X79795331Y-68029536D01*
X79720265Y-67848312D01*
X79720263Y-67848309D01*
X79720261Y-67848305D01*
X79611287Y-67685215D01*
X79611284Y-67685211D01*
X79472587Y-67546514D01*
X79472583Y-67546511D01*
X79309493Y-67437537D01*
X79309483Y-67437532D01*
X79128263Y-67362468D01*
X79128255Y-67362466D01*
X78935880Y-67324200D01*
X78935877Y-67324200D01*
X77520521Y-67324200D01*
X77520518Y-67324200D01*
X77328142Y-67362466D01*
X77328134Y-67362468D01*
X77146914Y-67437532D01*
X77146904Y-67437537D01*
X76983814Y-67546511D01*
X76983810Y-67546514D01*
X76845113Y-67685211D01*
X76845110Y-67685215D01*
X76736136Y-67848305D01*
X76736131Y-67848315D01*
X76661067Y-68029535D01*
X76661065Y-68029543D01*
X76622799Y-68221917D01*
X75500500Y-68221917D01*
X75500500Y-64211920D01*
X79690551Y-64211920D01*
X79690551Y-64369613D01*
X79721312Y-64524256D01*
X79721315Y-64524268D01*
X79781653Y-64669939D01*
X79781660Y-64669952D01*
X79869262Y-64801057D01*
X79871351Y-64803602D01*
X79872028Y-64805196D01*
X79872646Y-64806121D01*
X79872470Y-64806238D01*
X79898665Y-64867912D01*
X79899499Y-64882268D01*
X79899499Y-64946121D01*
X79899498Y-64946121D01*
X79940422Y-65098851D01*
X79940423Y-65098852D01*
X79943007Y-65103327D01*
X80019480Y-65235783D01*
X80065798Y-65282101D01*
X80072302Y-65291604D01*
X80079692Y-65314318D01*
X80091138Y-65335279D01*
X80091589Y-65337445D01*
X80122488Y-65492785D01*
X80122491Y-65492795D01*
X80182829Y-65638466D01*
X80182836Y-65638479D01*
X80270437Y-65769582D01*
X80270440Y-65769586D01*
X80381934Y-65881080D01*
X80381938Y-65881083D01*
X80513041Y-65968684D01*
X80513054Y-65968691D01*
X80646084Y-66023793D01*
X80658730Y-66029031D01*
X80813380Y-66059793D01*
X80813383Y-66059794D01*
X80813385Y-66059794D01*
X80971071Y-66059794D01*
X80971072Y-66059793D01*
X81125724Y-66029031D01*
X81271406Y-65968688D01*
X81402516Y-65881083D01*
X81514016Y-65769583D01*
X81601621Y-65638473D01*
X81606008Y-65627883D01*
X81623805Y-65584916D01*
X81661964Y-65492791D01*
X81692727Y-65338136D01*
X81692727Y-65276961D01*
X81712412Y-65209922D01*
X81747833Y-65173861D01*
X81760289Y-65165539D01*
X81871789Y-65054039D01*
X81959394Y-64922929D01*
X81963267Y-64913580D01*
X81982183Y-64867912D01*
X82019737Y-64777247D01*
X82050500Y-64622592D01*
X82050500Y-64464908D01*
X82050500Y-64464905D01*
X82050499Y-64464903D01*
X82033255Y-64378211D01*
X82019737Y-64310253D01*
X81986605Y-64230264D01*
X81959397Y-64164577D01*
X81959390Y-64164564D01*
X81882762Y-64049883D01*
X81861884Y-63983206D01*
X81880368Y-63915826D01*
X81916970Y-63877892D01*
X82010289Y-63815539D01*
X82121789Y-63704039D01*
X82209394Y-63572929D01*
X82269737Y-63427247D01*
X82300500Y-63272592D01*
X82300500Y-63114908D01*
X82300500Y-63114905D01*
X82300499Y-63114903D01*
X82296871Y-63096666D01*
X82269737Y-62960253D01*
X82235755Y-62878213D01*
X82209397Y-62814577D01*
X82209390Y-62814564D01*
X82121789Y-62683461D01*
X82121786Y-62683457D01*
X82010292Y-62571963D01*
X82010288Y-62571960D01*
X81879185Y-62484359D01*
X81879172Y-62484352D01*
X81733501Y-62424014D01*
X81733489Y-62424011D01*
X81578845Y-62393250D01*
X81578842Y-62393250D01*
X81421158Y-62393250D01*
X81421155Y-62393250D01*
X81266510Y-62424011D01*
X81266498Y-62424014D01*
X81120827Y-62484352D01*
X81120814Y-62484359D01*
X80989711Y-62571960D01*
X80989707Y-62571963D01*
X80878213Y-62683457D01*
X80878210Y-62683461D01*
X80790609Y-62814564D01*
X80790602Y-62814577D01*
X80730264Y-62960248D01*
X80730261Y-62960260D01*
X80699500Y-63114903D01*
X80699500Y-63165386D01*
X80695829Y-63195337D01*
X80692650Y-63208106D01*
X80690423Y-63211965D01*
X80649499Y-63364693D01*
X80649499Y-63381469D01*
X80645828Y-63396218D01*
X80635546Y-63413783D01*
X80629814Y-63433306D01*
X80618258Y-63443318D01*
X80610533Y-63456518D01*
X80592387Y-63465736D01*
X80577010Y-63479061D01*
X80558033Y-63483189D01*
X80548241Y-63488164D01*
X80539325Y-63487259D01*
X80525499Y-63490267D01*
X80412206Y-63490267D01*
X80257561Y-63521028D01*
X80257549Y-63521031D01*
X80111878Y-63581369D01*
X80111865Y-63581376D01*
X79980762Y-63668977D01*
X79980758Y-63668980D01*
X79869264Y-63780474D01*
X79869261Y-63780478D01*
X79781660Y-63911581D01*
X79781653Y-63911594D01*
X79721315Y-64057265D01*
X79721312Y-64057277D01*
X79690551Y-64211920D01*
X75500500Y-64211920D01*
X75500500Y-59581917D01*
X76622799Y-59581917D01*
X76622799Y-59778082D01*
X76661065Y-59970456D01*
X76661067Y-59970464D01*
X76736131Y-60151684D01*
X76736136Y-60151694D01*
X76845110Y-60314784D01*
X76845113Y-60314788D01*
X76983810Y-60453485D01*
X76983814Y-60453488D01*
X77146904Y-60562462D01*
X77146908Y-60562464D01*
X77146911Y-60562466D01*
X77328135Y-60637532D01*
X77520516Y-60675799D01*
X77520519Y-60675800D01*
X77520521Y-60675800D01*
X78935879Y-60675800D01*
X78935880Y-60675799D01*
X79128263Y-60637532D01*
X79309487Y-60562466D01*
X79472584Y-60453488D01*
X79611287Y-60314785D01*
X79720265Y-60151688D01*
X79795331Y-59970464D01*
X79833599Y-59778078D01*
X79833599Y-59581922D01*
X79833599Y-59581919D01*
X79833598Y-59581917D01*
X80826000Y-59581917D01*
X80826000Y-59778082D01*
X80864266Y-59970456D01*
X80864268Y-59970464D01*
X80939332Y-60151684D01*
X80939337Y-60151694D01*
X81048311Y-60314784D01*
X81048314Y-60314788D01*
X81187011Y-60453485D01*
X81187015Y-60453488D01*
X81350105Y-60562462D01*
X81350109Y-60562464D01*
X81350112Y-60562466D01*
X81531336Y-60637532D01*
X81723717Y-60675799D01*
X81723720Y-60675800D01*
X81723722Y-60675800D01*
X82732680Y-60675800D01*
X82732681Y-60675799D01*
X82925064Y-60637532D01*
X83106288Y-60562466D01*
X83269385Y-60453488D01*
X83408088Y-60314785D01*
X83517066Y-60151688D01*
X83592132Y-59970464D01*
X83630400Y-59778078D01*
X83630400Y-59581922D01*
X83630400Y-59581919D01*
X83630399Y-59581917D01*
X83619295Y-59526092D01*
X83592132Y-59389536D01*
X83517066Y-59208312D01*
X83517064Y-59208309D01*
X83517062Y-59208305D01*
X83408088Y-59045215D01*
X83408085Y-59045211D01*
X83269388Y-58906514D01*
X83269384Y-58906511D01*
X83106294Y-58797537D01*
X83106284Y-58797532D01*
X82925064Y-58722468D01*
X82925056Y-58722466D01*
X82732681Y-58684200D01*
X82732678Y-58684200D01*
X81723722Y-58684200D01*
X81723719Y-58684200D01*
X81531343Y-58722466D01*
X81531335Y-58722468D01*
X81350115Y-58797532D01*
X81350105Y-58797537D01*
X81187015Y-58906511D01*
X81187011Y-58906514D01*
X81048314Y-59045211D01*
X81048311Y-59045215D01*
X80939337Y-59208305D01*
X80939332Y-59208315D01*
X80864268Y-59389535D01*
X80864266Y-59389543D01*
X80826000Y-59581917D01*
X79833598Y-59581917D01*
X79822494Y-59526092D01*
X79795331Y-59389536D01*
X79720265Y-59208312D01*
X79720263Y-59208309D01*
X79720261Y-59208305D01*
X79611287Y-59045215D01*
X79611284Y-59045211D01*
X79472587Y-58906514D01*
X79472583Y-58906511D01*
X79309493Y-58797537D01*
X79309483Y-58797532D01*
X79128263Y-58722468D01*
X79128255Y-58722466D01*
X78935880Y-58684200D01*
X78935877Y-58684200D01*
X77520521Y-58684200D01*
X77520518Y-58684200D01*
X77328142Y-58722466D01*
X77328134Y-58722468D01*
X77146914Y-58797532D01*
X77146904Y-58797537D01*
X76983814Y-58906511D01*
X76983810Y-58906514D01*
X76845113Y-59045211D01*
X76845110Y-59045215D01*
X76736136Y-59208305D01*
X76736131Y-59208315D01*
X76661067Y-59389535D01*
X76661065Y-59389543D01*
X76622799Y-59581917D01*
X75500500Y-59581917D01*
X75500500Y-54003051D01*
X75500649Y-53996966D01*
X75506704Y-53873723D01*
X77395500Y-53873723D01*
X77395500Y-54126276D01*
X77435009Y-54375722D01*
X77435009Y-54375725D01*
X77513050Y-54615911D01*
X77513051Y-54615914D01*
X77627709Y-54840941D01*
X77776156Y-55045261D01*
X77954739Y-55223844D01*
X78159059Y-55372291D01*
X78269428Y-55428526D01*
X78384085Y-55486948D01*
X78384088Y-55486949D01*
X78608123Y-55559741D01*
X78624279Y-55564991D01*
X78873723Y-55604500D01*
X78873724Y-55604500D01*
X79126276Y-55604500D01*
X79126277Y-55604500D01*
X79375721Y-55564991D01*
X79375724Y-55564990D01*
X79375725Y-55564990D01*
X79615911Y-55486949D01*
X79615914Y-55486948D01*
X79840941Y-55372291D01*
X80045261Y-55223844D01*
X80223844Y-55045261D01*
X80372291Y-54840941D01*
X80486948Y-54615914D01*
X80564991Y-54375721D01*
X80604500Y-54126277D01*
X80604500Y-53873723D01*
X119895500Y-53873723D01*
X119895500Y-54126276D01*
X119935009Y-54375722D01*
X119935009Y-54375725D01*
X120013050Y-54615911D01*
X120013051Y-54615914D01*
X120127709Y-54840941D01*
X120276156Y-55045261D01*
X120454739Y-55223844D01*
X120659059Y-55372291D01*
X120769428Y-55428526D01*
X120884085Y-55486948D01*
X120884088Y-55486949D01*
X121108123Y-55559741D01*
X121124279Y-55564991D01*
X121373723Y-55604500D01*
X121373724Y-55604500D01*
X121626276Y-55604500D01*
X121626277Y-55604500D01*
X121875721Y-55564991D01*
X121875724Y-55564990D01*
X121875725Y-55564990D01*
X122115911Y-55486949D01*
X122115914Y-55486948D01*
X122340941Y-55372291D01*
X122545261Y-55223844D01*
X122723844Y-55045261D01*
X122872291Y-54840941D01*
X122986948Y-54615914D01*
X123064991Y-54375721D01*
X123104500Y-54126277D01*
X123104500Y-53873723D01*
X123064991Y-53624279D01*
X123064990Y-53624275D01*
X123064990Y-53624274D01*
X122986949Y-53384088D01*
X122986948Y-53384085D01*
X122872290Y-53159058D01*
X122723844Y-52954739D01*
X122545261Y-52776156D01*
X122340941Y-52627709D01*
X122115914Y-52513051D01*
X122115911Y-52513050D01*
X121875723Y-52435009D01*
X121709425Y-52408669D01*
X121626277Y-52395500D01*
X121373723Y-52395500D01*
X121290575Y-52408669D01*
X121124277Y-52435009D01*
X121124274Y-52435009D01*
X120884088Y-52513050D01*
X120884085Y-52513051D01*
X120659058Y-52627709D01*
X120454736Y-52776158D01*
X120276158Y-52954736D01*
X120127709Y-53159058D01*
X120013051Y-53384085D01*
X120013050Y-53384088D01*
X119935009Y-53624274D01*
X119935009Y-53624277D01*
X119895500Y-53873723D01*
X80604500Y-53873723D01*
X80564991Y-53624279D01*
X80564990Y-53624275D01*
X80564990Y-53624274D01*
X80486949Y-53384088D01*
X80486948Y-53384085D01*
X80372290Y-53159058D01*
X80223844Y-52954739D01*
X80045261Y-52776156D01*
X79840941Y-52627709D01*
X79615914Y-52513051D01*
X79615911Y-52513050D01*
X79375723Y-52435009D01*
X79209425Y-52408669D01*
X79126277Y-52395500D01*
X78873723Y-52395500D01*
X78790575Y-52408669D01*
X78624277Y-52435009D01*
X78624274Y-52435009D01*
X78384088Y-52513050D01*
X78384085Y-52513051D01*
X78159058Y-52627709D01*
X77954736Y-52776158D01*
X77776158Y-52954736D01*
X77627709Y-53159058D01*
X77513051Y-53384085D01*
X77513050Y-53384088D01*
X77435009Y-53624274D01*
X77435009Y-53624277D01*
X77395500Y-53873723D01*
X75506704Y-53873723D01*
X75507242Y-53862766D01*
X75507242Y-53862765D01*
X75517052Y-53663072D01*
X75518245Y-53650962D01*
X75522204Y-53624274D01*
X75566849Y-53323296D01*
X75569218Y-53311385D01*
X75649710Y-52990043D01*
X75653240Y-52978411D01*
X75661711Y-52954736D01*
X75764835Y-52666525D01*
X75769476Y-52655318D01*
X75911124Y-52355828D01*
X75916840Y-52345136D01*
X76087145Y-52060998D01*
X76093888Y-52050905D01*
X76291232Y-51784818D01*
X76298935Y-51775433D01*
X76521405Y-51529975D01*
X76529975Y-51521405D01*
X76775433Y-51298935D01*
X76784818Y-51291232D01*
X77050905Y-51093888D01*
X77060998Y-51087145D01*
X77345136Y-50916840D01*
X77355828Y-50911124D01*
X77655318Y-50769476D01*
X77666525Y-50764835D01*
X77978412Y-50653239D01*
X77990043Y-50649710D01*
X78311385Y-50569218D01*
X78323296Y-50566849D01*
X78650962Y-50518244D01*
X78663068Y-50517052D01*
X78996967Y-50500648D01*
X79003051Y-50500500D01*
X79065892Y-50500500D01*
X121434108Y-50500500D01*
X121496949Y-50500500D01*
X121503032Y-50500648D01*
G37*
%TD.AperFunction*%
%TD*%
M02*
