M48
; DRILL file {KiCad 8.0.4} date 2024-12-15T00:35:51-0500
; FORMAT={-:-/ absolute / inch / decimal}
; #@! TF.CreationDate,2024-12-15T00:35:51-05:00
; #@! TF.GenerationSoftware,Kicad,Pcbnew,8.0.4
; #@! TF.FileFunction,MixedPlating,1,2
FMAT,2
INCH
; #@! TA.AperFunction,Plated,PTH,ComponentDrill
T1C0.0080
; #@! TA.AperFunction,Plated,PTH,ViaDrill
T2C0.0118
; #@! TA.AperFunction,Plated,PTH,ComponentDrill
T3C0.0256
; #@! TA.AperFunction,Plated,PTH,ComponentDrill
T4C0.0394
; #@! TA.AperFunction,Plated,PTH,ComponentDrill
T5C0.0748
; #@! TA.AperFunction,NonPlated,NPTH,ComponentDrill
T6C0.1063
%
G90
G05
T1
X7.2967Y-4.3919
X7.34Y-4.3683
X7.34Y-4.4156
X7.3833Y-4.3919
T2
X5.6299Y-3.1398
X5.6299Y-3.622
X5.6791Y-3.5614
X5.6791Y-3.6303
X5.6791Y-3.6992
X5.748Y-3.3268
X5.7579Y-3.376
X5.7758Y-3.7406
X5.935Y-3.9075
X5.9508Y-3.2657
X5.9726Y-3.6461
X5.9921Y-3.9409
X6.0236Y-3.9764
X6.0669Y-3.5433
X6.1516Y-3.3366
X6.1713Y-3.4646
X6.2106Y-3.5039
X6.2697Y-3.3957
X6.2894Y-3.3701
X6.3091Y-3.9469
X6.3189Y-3.9862
X6.3401Y-3.435
X6.3791Y-3.4821
X6.4057Y-3.7598
X6.4057Y-3.8189
X6.5231Y-3.536
X6.5431Y-4.6616
X6.5748Y-3.435
X6.5827Y-3.9173
X6.5929Y-3.4858
X6.624Y-3.3445
X6.6437Y-3.1988
X6.6437Y-3.4449
X6.6476Y-3.5059
X6.6811Y-3.878
X6.7165Y-3.8012
X6.7557Y-4.5789
X6.7783Y-3.9192
X6.7913Y-4.311
X6.8346Y-4.0551
X6.8467Y-3.5667
X6.8624Y-3.4492
X6.8738Y-4.3742
X6.874Y-3.8858
X6.878Y-4.4291
X6.8799Y-3.5925
X6.8829Y-3.5124
X6.9094Y-4.311
X6.9094Y-4.4685
X6.9094Y-4.5472
X6.9096Y-3.4571
X6.9447Y-3.8734
X6.9685Y-4.4173
X6.9694Y-3.4446
X6.9724Y-3.8445
X6.9772Y-3.7246
X6.9882Y-4.5472
X6.9963Y-3.4256
X7.0079Y-4.4685
X7.0096Y-3.8427
X7.0276Y-4.311
X7.0278Y-3.4098
X7.052Y-3.8484
X7.075Y-3.339
X7.0803Y-3.821
X7.0906Y-3.872
X7.0965Y-3.2957
X7.1216Y-4.0241
X7.1299Y-4.311
X7.1543Y-3.859
X7.1654Y-3.6554
X7.1693Y-3.6969
X7.1752Y-3.2957
X7.1888Y-4.5081
X7.1949Y-3.435
X7.1949Y-4.6161
X7.2047Y-3.8745
X7.2205Y-4.311
X7.2283Y-4.449
X7.2343Y-4.6063
X7.2441Y-3.4843
X7.2627Y-3.6298
X7.2754Y-4.5031
X7.2756Y-4.2835
X7.313Y-3.7894
X7.3165Y-4.2935
X7.3524Y-3.8091
X7.3819Y-3.3309
X7.3819Y-3.8583
X7.3819Y-3.9961
X7.3951Y-4.499
X7.4114Y-3.2579
X7.4114Y-4.1535
X7.4134Y-3.3341
X7.4311Y-3.5466
X7.4311Y-4.6752
X7.4488Y-4.1614
X7.4489Y-3.8979
X7.452Y-3.8307
X7.4522Y-4.4923
X7.4705Y-4.2323
X7.5Y-4.2717
X7.5591Y-4.4587
X7.576Y-4.1917
X7.6476Y-4.3799
T3
X6.622Y-3.6902
X6.622Y-3.7402
X6.672Y-3.6902
X6.672Y-3.7402
X6.722Y-3.6902
X6.722Y-3.7402
X6.772Y-3.6902
X6.772Y-3.7402
X6.822Y-3.6902
X6.822Y-3.7402
T4
X5.4171Y-3.8323
X5.4171Y-4.2654
X5.4175Y-4.4232
X5.4175Y-4.8563
X5.7756Y-2.8591
X5.7756Y-2.9591
X5.7756Y-3.0591
X5.9567Y-2.8591
X5.9567Y-2.9591
X5.9567Y-3.0591
X6.1378Y-2.8591
X6.1378Y-2.9591
X6.1378Y-3.0591
X6.3189Y-2.8591
X6.3189Y-2.9591
X6.3189Y-3.0591
X6.5Y-2.8591
X6.5Y-2.9591
X6.5Y-3.0591
X6.6811Y-2.8591
X6.6811Y-2.9591
X6.6811Y-3.0591
X6.8622Y-2.8551
X6.8622Y-2.9551
X6.8622Y-3.0551
X7.0433Y-2.8551
X7.0433Y-2.9551
X7.0433Y-3.0551
X7.2283Y-2.8543
X7.2283Y-2.9543
X7.2283Y-3.0543
X7.4094Y-2.8543
X7.4094Y-2.9543
X7.4094Y-3.0543
X7.5756Y-3.2008
X7.5756Y-3.3819
X7.5756Y-3.563
X7.5756Y-3.7441
X7.5756Y-3.9252
X7.5756Y-4.1063
X7.6756Y-3.2008
X7.6756Y-3.3819
X7.6756Y-3.563
X7.6756Y-3.7441
X7.6756Y-3.9252
X7.6756Y-4.1063
X7.6762Y-4.2913
X7.6762Y-4.4783
X7.7756Y-3.2008
X7.7756Y-3.3819
X7.7756Y-3.563
X7.7756Y-3.7441
X7.7756Y-3.9252
X7.7756Y-4.1063
X7.7762Y-4.2913
X7.7762Y-4.4783
T5
X5.8108Y-3.9504
X5.8108Y-4.1472
X5.8112Y-4.5413
X5.8112Y-4.7382
T6
X6.0238Y-4.8031
X7.6772Y-4.7441
X7.701Y-2.9098
M30
