%TF.GenerationSoftware,KiCad,Pcbnew,8.0.4*%
%TF.CreationDate,2024-12-15T00:35:54-05:00*%
%TF.ProjectId,V1.03,56312e30-332e-46b6-9963-61645f706362,rev?*%
%TF.SameCoordinates,Original*%
%TF.FileFunction,Soldermask,Top*%
%TF.FilePolarity,Negative*%
%FSLAX46Y46*%
G04 Gerber Fmt 4.6, Leading zero omitted, Abs format (unit mm)*
G04 Created by KiCad (PCBNEW 8.0.4) date 2024-12-15 00:35:54*
%MOMM*%
%LPD*%
G01*
G04 APERTURE LIST*
G04 Aperture macros list*
%AMRoundRect*
0 Rectangle with rounded corners*
0 $1 Rounding radius*
0 $2 $3 $4 $5 $6 $7 $8 $9 X,Y pos of 4 corners*
0 Add a 4 corners polygon primitive as box body*
4,1,4,$2,$3,$4,$5,$6,$7,$8,$9,$2,$3,0*
0 Add four circle primitives for the rounded corners*
1,1,$1+$1,$2,$3*
1,1,$1+$1,$4,$5*
1,1,$1+$1,$6,$7*
1,1,$1+$1,$8,$9*
0 Add four rect primitives between the rounded corners*
20,1,$1+$1,$2,$3,$4,$5,0*
20,1,$1+$1,$4,$5,$6,$7,0*
20,1,$1+$1,$6,$7,$8,$9,0*
20,1,$1+$1,$8,$9,$2,$3,0*%
%AMFreePoly0*
4,1,17,2.675000,1.605000,1.875000,1.605000,1.875000,0.935000,2.675000,0.935000,2.675000,0.335000,1.875000,0.335000,1.875000,-0.335000,2.675000,-0.335000,2.675000,-0.935000,1.875000,-0.935000,1.875000,-1.605000,2.675000,-1.605000,2.675000,-2.205000,-1.875000,-2.205000,-1.875000,2.205000,2.675000,2.205000,2.675000,1.605000,2.675000,1.605000,$1*%
G04 Aperture macros list end*
%ADD10R,1.000000X1.000000*%
%ADD11O,1.000000X1.000000*%
%ADD12RoundRect,0.150000X0.150000X-0.512500X0.150000X0.512500X-0.150000X0.512500X-0.150000X-0.512500X0*%
%ADD13RoundRect,0.140000X0.170000X-0.140000X0.170000X0.140000X-0.170000X0.140000X-0.170000X-0.140000X0*%
%ADD14RoundRect,0.135000X-0.185000X0.135000X-0.185000X-0.135000X0.185000X-0.135000X0.185000X0.135000X0*%
%ADD15RoundRect,0.237500X-0.262500X0.237500X-0.262500X-0.237500X0.262500X-0.237500X0.262500X0.237500X0*%
%ADD16R,4.900000X3.200000*%
%ADD17RoundRect,0.140000X0.021213X-0.219203X0.219203X-0.021213X-0.021213X0.219203X-0.219203X0.021213X0*%
%ADD18RoundRect,0.218750X0.335876X0.026517X0.026517X0.335876X-0.335876X-0.026517X-0.026517X-0.335876X0*%
%ADD19FreePoly0,180.000000*%
%ADD20RoundRect,0.125000X0.300000X0.125000X-0.300000X0.125000X-0.300000X-0.125000X0.300000X-0.125000X0*%
%ADD21C,2.700000*%
%ADD22RoundRect,0.140000X0.140000X0.170000X-0.140000X0.170000X-0.140000X-0.170000X0.140000X-0.170000X0*%
%ADD23RoundRect,0.250000X-0.650000X0.325000X-0.650000X-0.325000X0.650000X-0.325000X0.650000X0.325000X0*%
%ADD24RoundRect,0.135000X0.185000X-0.135000X0.185000X0.135000X-0.185000X0.135000X-0.185000X-0.135000X0*%
%ADD25C,1.000000*%
%ADD26RoundRect,0.225000X-0.250000X0.225000X-0.250000X-0.225000X0.250000X-0.225000X0.250000X0.225000X0*%
%ADD27R,1.700000X1.700000*%
%ADD28O,1.700000X1.700000*%
%ADD29RoundRect,0.225000X0.250000X-0.225000X0.250000X0.225000X-0.250000X0.225000X-0.250000X-0.225000X0*%
%ADD30RoundRect,0.250001X-1.449999X0.499999X-1.449999X-0.499999X1.449999X-0.499999X1.449999X0.499999X0*%
%ADD31RoundRect,0.250000X-1.500000X0.250000X-1.500000X-0.250000X1.500000X-0.250000X1.500000X0.250000X0*%
%ADD32RoundRect,0.135000X0.135000X0.185000X-0.135000X0.185000X-0.135000X-0.185000X0.135000X-0.185000X0*%
%ADD33RoundRect,0.225000X-0.225000X-0.250000X0.225000X-0.250000X0.225000X0.250000X-0.225000X0.250000X0*%
%ADD34RoundRect,0.135000X-0.135000X-0.185000X0.135000X-0.185000X0.135000X0.185000X-0.135000X0.185000X0*%
%ADD35RoundRect,0.250000X0.625000X-0.312500X0.625000X0.312500X-0.625000X0.312500X-0.625000X-0.312500X0*%
%ADD36RoundRect,0.150000X0.512500X0.150000X-0.512500X0.150000X-0.512500X-0.150000X0.512500X-0.150000X0*%
%ADD37RoundRect,0.200000X0.275000X-0.200000X0.275000X0.200000X-0.275000X0.200000X-0.275000X-0.200000X0*%
%ADD38RoundRect,0.140000X-0.170000X0.140000X-0.170000X-0.140000X0.170000X-0.140000X0.170000X0.140000X0*%
%ADD39RoundRect,0.225000X0.225000X0.250000X-0.225000X0.250000X-0.225000X-0.250000X0.225000X-0.250000X0*%
%ADD40RoundRect,0.250000X0.250000X0.475000X-0.250000X0.475000X-0.250000X-0.475000X0.250000X-0.475000X0*%
%ADD41RoundRect,0.125000X-0.125000X0.300000X-0.125000X-0.300000X0.125000X-0.300000X0.125000X0.300000X0*%
%ADD42FreePoly0,270.000000*%
%ADD43RoundRect,0.140000X-0.140000X-0.170000X0.140000X-0.170000X0.140000X0.170000X-0.140000X0.170000X0*%
%ADD44C,0.499999*%
%ADD45R,0.599999X0.249999*%
%ADD46R,0.249999X0.599999*%
%ADD47R,2.700000X1.699999*%
%ADD48RoundRect,0.375000X0.375000X-0.625000X0.375000X0.625000X-0.375000X0.625000X-0.375000X-0.625000X0*%
%ADD49RoundRect,0.500000X1.400000X-0.500000X1.400000X0.500000X-1.400000X0.500000X-1.400000X-0.500000X0*%
%ADD50RoundRect,0.150000X0.825000X0.150000X-0.825000X0.150000X-0.825000X-0.150000X0.825000X-0.150000X0*%
%ADD51C,3.500000*%
%ADD52R,3.500000X3.500000*%
%ADD53C,1.400000*%
%ADD54RoundRect,0.140000X-0.021213X0.219203X-0.219203X0.021213X0.021213X-0.219203X0.219203X-0.021213X0*%
%ADD55RoundRect,0.218750X-0.218750X-0.256250X0.218750X-0.256250X0.218750X0.256250X-0.218750X0.256250X0*%
%ADD56RoundRect,0.100000X0.637500X0.100000X-0.637500X0.100000X-0.637500X-0.100000X0.637500X-0.100000X0*%
%ADD57RoundRect,0.250000X-0.450000X0.262500X-0.450000X-0.262500X0.450000X-0.262500X0.450000X0.262500X0*%
%ADD58RoundRect,0.140000X0.219203X0.021213X0.021213X0.219203X-0.219203X-0.021213X-0.021213X-0.219203X0*%
%ADD59RoundRect,0.075000X0.521491X-0.415425X-0.415425X0.521491X-0.521491X0.415425X0.415425X-0.521491X0*%
%ADD60RoundRect,0.075000X0.521491X0.415425X0.415425X0.521491X-0.521491X-0.415425X-0.415425X-0.521491X0*%
%ADD61RoundRect,0.218750X0.256250X-0.218750X0.256250X0.218750X-0.256250X0.218750X-0.256250X-0.218750X0*%
%ADD62RoundRect,0.102000X2.500000X-1.625000X2.500000X1.625000X-2.500000X1.625000X-2.500000X-1.625000X0*%
G04 APERTURE END LIST*
D10*
%TO.C,J3*%
X173280000Y-93730000D03*
D11*
X173280000Y-95000000D03*
X172010000Y-93730000D03*
X172010000Y-95000000D03*
X170740000Y-93730000D03*
X170740000Y-95000000D03*
X169470000Y-93730000D03*
X169470000Y-95000000D03*
X168200000Y-93730000D03*
X168200000Y-95000000D03*
%TD*%
D12*
%TO.C,U9*%
X168750000Y-102037500D03*
X170650000Y-102037500D03*
X169700000Y-99762500D03*
%TD*%
D13*
%TO.C,C17*%
X172200000Y-101380000D03*
X172200000Y-100420000D03*
%TD*%
%TO.C,C16*%
X167200000Y-101380000D03*
X167200000Y-100420000D03*
%TD*%
D14*
%TO.C,R9*%
X174600000Y-101990000D03*
X174600000Y-103010000D03*
%TD*%
%TO.C,R8*%
X174600000Y-99890000D03*
X174600000Y-100910000D03*
%TD*%
D15*
%TO.C,D6*%
X170450000Y-108030000D03*
X170450000Y-109970000D03*
D16*
X166100000Y-109000000D03*
%TD*%
D17*
%TO.C,C7*%
X186160589Y-85589411D03*
X186839411Y-84910589D03*
%TD*%
D18*
%TO.C,FB1*%
X185556847Y-84306847D03*
X184443153Y-83193153D03*
%TD*%
D19*
%TO.C,Q2*%
X169750000Y-114295000D03*
D20*
X173300000Y-116200000D03*
X173300000Y-114930000D03*
X173300000Y-113660000D03*
X173300000Y-112390000D03*
%TD*%
D21*
%TO.C,H3*%
X153005000Y-122000000D03*
%TD*%
D22*
%TO.C,C11*%
X162750000Y-87250000D03*
X161790000Y-87250000D03*
%TD*%
D23*
%TO.C,COUT4*%
X175100000Y-104605000D03*
X175100000Y-107555000D03*
%TD*%
D24*
%TO.C,R3*%
X176000000Y-91259999D03*
X176000000Y-90240001D03*
%TD*%
D25*
%TO.C,TP7*%
X158500000Y-101900000D03*
%TD*%
D26*
%TO.C,CSS1*%
X188134999Y-106780001D03*
X188134999Y-108330001D03*
%TD*%
D27*
%TO.C,J14*%
X178900000Y-72520000D03*
D28*
X178900000Y-75060000D03*
X178900000Y-77600000D03*
%TD*%
D29*
%TO.C,CIN2*%
X177200000Y-117160000D03*
X177200000Y-118710000D03*
%TD*%
D30*
%TO.C,J5*%
X136205000Y-92140000D03*
X136205000Y-83440000D03*
D31*
X141955000Y-89790000D03*
X141955000Y-87790000D03*
X141955000Y-85790000D03*
%TD*%
D17*
%TO.C,C5*%
X187410589Y-86339411D03*
X188089411Y-85660589D03*
%TD*%
D32*
%TO.C,R17*%
X145240000Y-90460000D03*
X146260000Y-90460000D03*
%TD*%
D29*
%TO.C,CIN1*%
X175200000Y-117160000D03*
X175200000Y-118710000D03*
%TD*%
D33*
%TO.C,CBoot1*%
X188209999Y-115405002D03*
X189759999Y-115405002D03*
%TD*%
D25*
%TO.C,TP5*%
X188500000Y-87500000D03*
%TD*%
D27*
%TO.C,J18*%
X160500000Y-72620000D03*
D28*
X160500000Y-75160000D03*
X160500000Y-77700000D03*
%TD*%
D32*
%TO.C,RFB2*%
X188894999Y-104305002D03*
X187874999Y-104305002D03*
%TD*%
D34*
%TO.C,RPGOOD1*%
X181774998Y-110805002D03*
X182794998Y-110805002D03*
%TD*%
D35*
%TO.C,R4*%
X182500000Y-102762500D03*
X182500000Y-99837500D03*
%TD*%
D27*
%TO.C,J12*%
X188200000Y-72500000D03*
D28*
X188200000Y-75040000D03*
X188200000Y-77580000D03*
%TD*%
D27*
%TO.C,J21*%
X146700000Y-72620000D03*
D28*
X146700000Y-75160000D03*
X146700000Y-77700000D03*
%TD*%
D36*
%TO.C,U7*%
X179637500Y-102662500D03*
X179637500Y-101712500D03*
X179637500Y-100762500D03*
X177362500Y-100762500D03*
X177362500Y-102662500D03*
%TD*%
D32*
%TO.C,R5*%
X146260000Y-93960000D03*
X145240000Y-93960000D03*
%TD*%
D37*
%TO.C,RUV1*%
X190534999Y-112780001D03*
X190534999Y-111130001D03*
%TD*%
D27*
%TO.C,J19*%
X155900000Y-72620000D03*
D28*
X155900000Y-75160000D03*
X155900000Y-77700000D03*
%TD*%
D13*
%TO.C,C13*%
X163000000Y-89480000D03*
X163000000Y-88520000D03*
%TD*%
D29*
%TO.C,CIN4*%
X181300000Y-118710000D03*
X181300000Y-117160000D03*
%TD*%
D25*
%TO.C,TP10*%
X190300000Y-118700000D03*
%TD*%
D32*
%TO.C,RRT1*%
X190644999Y-109555001D03*
X189624999Y-109555001D03*
%TD*%
D27*
%TO.C,J15*%
X174300000Y-72520000D03*
D28*
X174300000Y-75060000D03*
X174300000Y-77600000D03*
%TD*%
D33*
%TO.C,C1*%
X184475000Y-98000000D03*
X186025000Y-98000000D03*
%TD*%
D38*
%TO.C,C14*%
X155100000Y-83770000D03*
X155100000Y-84730000D03*
%TD*%
D27*
%TO.C,J6*%
X197500000Y-104300000D03*
D28*
X194960000Y-104300000D03*
X192420000Y-104300000D03*
%TD*%
D14*
%TO.C,R6*%
X188500000Y-96300000D03*
X188500000Y-97320000D03*
%TD*%
D39*
%TO.C,C12*%
X159525000Y-87500000D03*
X157975000Y-87500000D03*
%TD*%
D24*
%TO.C,RFB1*%
X186250000Y-103210000D03*
X186250000Y-102190000D03*
%TD*%
D27*
%TO.C,J13*%
X183600000Y-72500000D03*
D28*
X183600000Y-75040000D03*
X183600000Y-77580000D03*
%TD*%
D26*
%TO.C,CVcc1*%
X186284999Y-115130002D03*
X186284999Y-116680002D03*
%TD*%
D40*
%TO.C,C28*%
X147955000Y-94610000D03*
X149855000Y-94610000D03*
%TD*%
D41*
%TO.C,Q1*%
X167760000Y-118100000D03*
X169030000Y-118100000D03*
X170300000Y-118100000D03*
X171570000Y-118100000D03*
D42*
X169665000Y-121650000D03*
%TD*%
D25*
%TO.C,TP6*%
X173400000Y-98700000D03*
%TD*%
D13*
%TO.C,CC2*%
X185600000Y-107480000D03*
X185600000Y-106520000D03*
%TD*%
D40*
%TO.C,C27*%
X156100000Y-101200000D03*
X154200000Y-101200000D03*
%TD*%
D32*
%TO.C,R16*%
X145240000Y-92210000D03*
X146260000Y-92210000D03*
%TD*%
D14*
%TO.C,R1*%
X178500000Y-95740000D03*
X178500000Y-96760000D03*
%TD*%
D23*
%TO.C,COUT1*%
X182600000Y-104655000D03*
X182600000Y-107605000D03*
%TD*%
D25*
%TO.C,TP2*%
X145305000Y-86610000D03*
%TD*%
D38*
%TO.C,C15*%
X146000000Y-82500000D03*
X146000000Y-83460000D03*
%TD*%
D23*
%TO.C,COUT5*%
X172600000Y-104605000D03*
X172600000Y-107555000D03*
%TD*%
D13*
%TO.C,CC1*%
X186684999Y-107485002D03*
X186684999Y-106525002D03*
%TD*%
D23*
%TO.C,COUT3*%
X177600000Y-104605000D03*
X177600000Y-107555000D03*
%TD*%
D27*
%TO.C,J11*%
X197500000Y-81300000D03*
D28*
X194960000Y-81300000D03*
X192420000Y-81300000D03*
%TD*%
D29*
%TO.C,CIN3*%
X179200000Y-118710000D03*
X179200000Y-117160000D03*
%TD*%
D43*
%TO.C,C8*%
X187270000Y-83750000D03*
X188230000Y-83750000D03*
%TD*%
D27*
%TO.C,J17*%
X165100000Y-72620000D03*
D28*
X165100000Y-75160000D03*
X165100000Y-77700000D03*
%TD*%
D27*
%TO.C,J9*%
X197500000Y-90500000D03*
D28*
X194960000Y-90500000D03*
X192420000Y-90500000D03*
%TD*%
D44*
%TO.C,U4*%
X186434999Y-112155000D03*
X185334999Y-111555001D03*
X187534999Y-111555001D03*
X186434999Y-110955002D03*
D45*
X188585000Y-112305002D03*
D46*
X188185001Y-113205000D03*
X187684999Y-113205000D03*
X187185000Y-113205000D03*
X186685001Y-113205000D03*
X186184999Y-113205000D03*
X185685001Y-113205000D03*
X185184999Y-113205000D03*
X184685000Y-113205000D03*
D45*
X184284998Y-112305002D03*
X184284998Y-110805000D03*
D46*
X184685000Y-109905002D03*
X185184999Y-109905002D03*
X185684998Y-109905002D03*
X186184997Y-109905002D03*
X186684999Y-109905002D03*
X187184997Y-109905002D03*
X187684999Y-109905002D03*
X188184998Y-109905002D03*
D45*
X188585000Y-110805000D03*
D47*
X186434999Y-111555001D03*
%TD*%
D27*
%TO.C,J10*%
X197500000Y-85900000D03*
D28*
X194960000Y-85900000D03*
X192420000Y-85900000D03*
%TD*%
D48*
%TO.C,U6*%
X153005000Y-98360000D03*
X155305000Y-98360000D03*
D49*
X155305000Y-92060000D03*
D48*
X157605000Y-98360000D03*
%TD*%
D50*
%TO.C,U3*%
X152975000Y-86155000D03*
X152975000Y-84885000D03*
X152975000Y-83615000D03*
X152975000Y-82345000D03*
X148025000Y-82345000D03*
X148025000Y-83615000D03*
X148025000Y-84885000D03*
X148025000Y-86155000D03*
%TD*%
D51*
%TO.C,J22*%
X147605000Y-120350000D03*
D52*
X147605000Y-115350000D03*
D53*
X137605000Y-112350000D03*
X137605000Y-123350000D03*
%TD*%
D40*
%TO.C,C30*%
X160912500Y-89500000D03*
X159012500Y-89500000D03*
%TD*%
D17*
%TO.C,C6*%
X175910589Y-88839411D03*
X176589411Y-88160589D03*
%TD*%
D54*
%TO.C,C4*%
X183089411Y-96910589D03*
X182410589Y-97589411D03*
%TD*%
D55*
%TO.C,D1*%
X147925000Y-92610000D03*
X149500000Y-92610000D03*
%TD*%
D38*
%TO.C,C31*%
X175800000Y-102040000D03*
X175800000Y-103000000D03*
%TD*%
D27*
%TO.C,J7*%
X197500000Y-99700000D03*
D28*
X194960000Y-99700000D03*
X192420000Y-99700000D03*
%TD*%
D25*
%TO.C,TP4*%
X172700000Y-90300000D03*
%TD*%
D56*
%TO.C,U2*%
X170362500Y-89525000D03*
X170362500Y-88875000D03*
X170362500Y-88225000D03*
X170362500Y-87575000D03*
X170362500Y-86925000D03*
X170362500Y-86275000D03*
X170362500Y-85625000D03*
X170362500Y-84975000D03*
X170362500Y-84325000D03*
X170362500Y-83675000D03*
X170362500Y-83025000D03*
X170362500Y-82375000D03*
X170362500Y-81725000D03*
X170362500Y-81075000D03*
X164637500Y-81075000D03*
X164637500Y-81725000D03*
X164637500Y-82375000D03*
X164637500Y-83025000D03*
X164637500Y-83675000D03*
X164637500Y-84325000D03*
X164637500Y-84975000D03*
X164637500Y-85625000D03*
X164637500Y-86275000D03*
X164637500Y-86925000D03*
X164637500Y-87575000D03*
X164637500Y-88225000D03*
X164637500Y-88875000D03*
X164637500Y-89525000D03*
%TD*%
D14*
%TO.C,RUV2*%
X192000000Y-111190000D03*
X192000000Y-112210000D03*
%TD*%
D48*
%TO.C,U5*%
X160405000Y-98360000D03*
X162705000Y-98360000D03*
D49*
X162705000Y-92060000D03*
D48*
X165005000Y-98360000D03*
%TD*%
D27*
%TO.C,J8*%
X197500000Y-95100000D03*
D28*
X194960000Y-95100000D03*
X192420000Y-95100000D03*
%TD*%
D27*
%TO.C,J20*%
X151300000Y-72620000D03*
D28*
X151300000Y-75160000D03*
X151300000Y-77700000D03*
%TD*%
D14*
%TO.C,R7*%
X174305000Y-85500001D03*
X174305000Y-86519999D03*
%TD*%
D25*
%TO.C,TP1*%
X145305000Y-88810000D03*
%TD*%
%TO.C,TP3*%
X172900000Y-88100000D03*
%TD*%
D57*
%TO.C,Rilim1*%
X181084998Y-112692502D03*
X181084998Y-114517502D03*
%TD*%
D21*
%TO.C,H1*%
X195605000Y-73910000D03*
%TD*%
D38*
%TO.C,Cilim1*%
X182784998Y-112337502D03*
X182784998Y-113297502D03*
%TD*%
D55*
%TO.C,D5*%
X175917500Y-85610000D03*
X177492500Y-85610000D03*
%TD*%
D17*
%TO.C,C2*%
X182660589Y-84589411D03*
X183339411Y-83910589D03*
%TD*%
D25*
%TO.C,TP9*%
X155700000Y-89300000D03*
%TD*%
%TO.C,TP8*%
X152500000Y-89500000D03*
%TD*%
D30*
%TO.C,J4*%
X136205000Y-80140000D03*
X136205000Y-71440000D03*
D31*
X141955000Y-77790000D03*
X141955000Y-75790000D03*
X141955000Y-73790000D03*
%TD*%
D43*
%TO.C,C9*%
X186020000Y-82750000D03*
X186980000Y-82750000D03*
%TD*%
D54*
%TO.C,C10*%
X186839411Y-94660589D03*
X186160589Y-95339411D03*
%TD*%
D27*
%TO.C,J2*%
X194975000Y-113750000D03*
D28*
X197515000Y-113750000D03*
%TD*%
D55*
%TO.C,D3*%
X147917500Y-89010000D03*
X149492500Y-89010000D03*
%TD*%
D58*
%TO.C,C3*%
X180839411Y-97089411D03*
X180160589Y-96410589D03*
%TD*%
D24*
%TO.C,R2*%
X177250000Y-96510000D03*
X177250000Y-95490000D03*
%TD*%
D22*
%TO.C,CC3*%
X185464999Y-104305002D03*
X184504999Y-104305002D03*
%TD*%
D24*
%TO.C,RC1*%
X186684999Y-105315002D03*
X186684999Y-104295002D03*
%TD*%
D55*
%TO.C,D2*%
X147925000Y-90810000D03*
X149500000Y-90810000D03*
%TD*%
D59*
%TO.C,U1*%
X183498788Y-95387876D03*
X183852342Y-95034322D03*
X184205895Y-94680769D03*
X184559449Y-94327215D03*
X184913002Y-93973662D03*
X185266555Y-93620109D03*
X185620109Y-93266555D03*
X185973662Y-92913002D03*
X186327215Y-92559449D03*
X186680769Y-92205895D03*
X187034322Y-91852342D03*
X187387876Y-91498788D03*
D60*
X187387876Y-89501212D03*
X187034322Y-89147658D03*
X186680769Y-88794105D03*
X186327215Y-88440551D03*
X185973662Y-88086998D03*
X185620109Y-87733445D03*
X185266555Y-87379891D03*
X184913002Y-87026338D03*
X184559449Y-86672785D03*
X184205895Y-86319231D03*
X183852342Y-85965678D03*
X183498788Y-85612124D03*
D59*
X181501212Y-85612124D03*
X181147658Y-85965678D03*
X180794105Y-86319231D03*
X180440551Y-86672785D03*
X180086998Y-87026338D03*
X179733445Y-87379891D03*
X179379891Y-87733445D03*
X179026338Y-88086998D03*
X178672785Y-88440551D03*
X178319231Y-88794105D03*
X177965678Y-89147658D03*
X177612124Y-89501212D03*
D60*
X177612124Y-91498788D03*
X177965678Y-91852342D03*
X178319231Y-92205895D03*
X178672785Y-92559449D03*
X179026338Y-92913002D03*
X179379891Y-93266555D03*
X179733445Y-93620109D03*
X180086998Y-93973662D03*
X180440551Y-94327215D03*
X180794105Y-94680769D03*
X181147658Y-95034322D03*
X181501212Y-95387876D03*
%TD*%
D27*
%TO.C,J16*%
X169700000Y-72620000D03*
D28*
X169700000Y-75160000D03*
X169700000Y-77700000D03*
%TD*%
D27*
%TO.C,J1*%
X194975000Y-109000000D03*
D28*
X197515000Y-109000000D03*
%TD*%
D21*
%TO.C,H2*%
X195000000Y-120500000D03*
%TD*%
D40*
%TO.C,C29*%
X163600000Y-101200000D03*
X161700000Y-101200000D03*
%TD*%
D61*
%TO.C,D4*%
X188500000Y-94887500D03*
X188500000Y-93312500D03*
%TD*%
D14*
%TO.C,RC2*%
X184500000Y-106410000D03*
X184500000Y-105390000D03*
%TD*%
D23*
%TO.C,COUT2*%
X180100000Y-104625000D03*
X180100000Y-107575000D03*
%TD*%
D62*
%TO.C,L1*%
X156700000Y-117025000D03*
X156700000Y-105775000D03*
%TD*%
D51*
%TO.C,J23*%
X147595000Y-105340000D03*
D52*
X147595000Y-100340000D03*
D53*
X137595000Y-97340000D03*
X137595000Y-108340000D03*
%TD*%
M02*
