%TF.GenerationSoftware,KiCad,Pcbnew,8.0.4*%
%TF.CreationDate,2024-12-15T00:35:53-05:00*%
%TF.ProjectId,V1.03,56312e30-332e-46b6-9963-61645f706362,rev?*%
%TF.SameCoordinates,Original*%
%TF.FileFunction,Copper,L1,Top*%
%TF.FilePolarity,Positive*%
%FSLAX46Y46*%
G04 Gerber Fmt 4.6, Leading zero omitted, Abs format (unit mm)*
G04 Created by KiCad (PCBNEW 8.0.4) date 2024-12-15 00:35:53*
%MOMM*%
%LPD*%
G01*
G04 APERTURE LIST*
G04 Aperture macros list*
%AMRoundRect*
0 Rectangle with rounded corners*
0 $1 Rounding radius*
0 $2 $3 $4 $5 $6 $7 $8 $9 X,Y pos of 4 corners*
0 Add a 4 corners polygon primitive as box body*
4,1,4,$2,$3,$4,$5,$6,$7,$8,$9,$2,$3,0*
0 Add four circle primitives for the rounded corners*
1,1,$1+$1,$2,$3*
1,1,$1+$1,$4,$5*
1,1,$1+$1,$6,$7*
1,1,$1+$1,$8,$9*
0 Add four rect primitives between the rounded corners*
20,1,$1+$1,$2,$3,$4,$5,0*
20,1,$1+$1,$4,$5,$6,$7,0*
20,1,$1+$1,$6,$7,$8,$9,0*
20,1,$1+$1,$8,$9,$2,$3,0*%
G04 Aperture macros list end*
%TA.AperFunction,ComponentPad*%
%ADD10R,1.000000X1.000000*%
%TD*%
%TA.AperFunction,ComponentPad*%
%ADD11O,1.000000X1.000000*%
%TD*%
%TA.AperFunction,SMDPad,CuDef*%
%ADD12RoundRect,0.150000X0.150000X-0.512500X0.150000X0.512500X-0.150000X0.512500X-0.150000X-0.512500X0*%
%TD*%
%TA.AperFunction,SMDPad,CuDef*%
%ADD13RoundRect,0.140000X0.170000X-0.140000X0.170000X0.140000X-0.170000X0.140000X-0.170000X-0.140000X0*%
%TD*%
%TA.AperFunction,SMDPad,CuDef*%
%ADD14RoundRect,0.135000X-0.185000X0.135000X-0.185000X-0.135000X0.185000X-0.135000X0.185000X0.135000X0*%
%TD*%
%TA.AperFunction,SMDPad,CuDef*%
%ADD15RoundRect,0.237500X-0.262500X0.237500X-0.262500X-0.237500X0.262500X-0.237500X0.262500X0.237500X0*%
%TD*%
%TA.AperFunction,SMDPad,CuDef*%
%ADD16R,4.900000X3.200000*%
%TD*%
%TA.AperFunction,SMDPad,CuDef*%
%ADD17RoundRect,0.140000X0.021213X-0.219203X0.219203X-0.021213X-0.021213X0.219203X-0.219203X0.021213X0*%
%TD*%
%TA.AperFunction,SMDPad,CuDef*%
%ADD18RoundRect,0.218750X0.335876X0.026517X0.026517X0.335876X-0.335876X-0.026517X-0.026517X-0.335876X0*%
%TD*%
%TA.AperFunction,SMDPad,CuDef*%
%ADD19RoundRect,0.125000X0.300000X0.125000X-0.300000X0.125000X-0.300000X-0.125000X0.300000X-0.125000X0*%
%TD*%
%TA.AperFunction,SMDPad,CuDef*%
%ADD20R,4.550000X4.410000*%
%TD*%
%TA.AperFunction,SMDPad,CuDef*%
%ADD21RoundRect,0.140000X0.140000X0.170000X-0.140000X0.170000X-0.140000X-0.170000X0.140000X-0.170000X0*%
%TD*%
%TA.AperFunction,SMDPad,CuDef*%
%ADD22RoundRect,0.250000X-0.650000X0.325000X-0.650000X-0.325000X0.650000X-0.325000X0.650000X0.325000X0*%
%TD*%
%TA.AperFunction,SMDPad,CuDef*%
%ADD23RoundRect,0.135000X0.185000X-0.135000X0.185000X0.135000X-0.185000X0.135000X-0.185000X-0.135000X0*%
%TD*%
%TA.AperFunction,SMDPad,CuDef*%
%ADD24C,1.000000*%
%TD*%
%TA.AperFunction,SMDPad,CuDef*%
%ADD25RoundRect,0.225000X-0.250000X0.225000X-0.250000X-0.225000X0.250000X-0.225000X0.250000X0.225000X0*%
%TD*%
%TA.AperFunction,ComponentPad*%
%ADD26R,1.700000X1.700000*%
%TD*%
%TA.AperFunction,ComponentPad*%
%ADD27O,1.700000X1.700000*%
%TD*%
%TA.AperFunction,SMDPad,CuDef*%
%ADD28RoundRect,0.225000X0.250000X-0.225000X0.250000X0.225000X-0.250000X0.225000X-0.250000X-0.225000X0*%
%TD*%
%TA.AperFunction,SMDPad,CuDef*%
%ADD29RoundRect,0.250001X-1.449999X0.499999X-1.449999X-0.499999X1.449999X-0.499999X1.449999X0.499999X0*%
%TD*%
%TA.AperFunction,SMDPad,CuDef*%
%ADD30RoundRect,0.250000X-1.500000X0.250000X-1.500000X-0.250000X1.500000X-0.250000X1.500000X0.250000X0*%
%TD*%
%TA.AperFunction,SMDPad,CuDef*%
%ADD31RoundRect,0.135000X0.135000X0.185000X-0.135000X0.185000X-0.135000X-0.185000X0.135000X-0.185000X0*%
%TD*%
%TA.AperFunction,SMDPad,CuDef*%
%ADD32RoundRect,0.225000X-0.225000X-0.250000X0.225000X-0.250000X0.225000X0.250000X-0.225000X0.250000X0*%
%TD*%
%TA.AperFunction,SMDPad,CuDef*%
%ADD33RoundRect,0.135000X-0.135000X-0.185000X0.135000X-0.185000X0.135000X0.185000X-0.135000X0.185000X0*%
%TD*%
%TA.AperFunction,SMDPad,CuDef*%
%ADD34RoundRect,0.250000X0.625000X-0.312500X0.625000X0.312500X-0.625000X0.312500X-0.625000X-0.312500X0*%
%TD*%
%TA.AperFunction,SMDPad,CuDef*%
%ADD35RoundRect,0.150000X0.512500X0.150000X-0.512500X0.150000X-0.512500X-0.150000X0.512500X-0.150000X0*%
%TD*%
%TA.AperFunction,SMDPad,CuDef*%
%ADD36RoundRect,0.200000X0.275000X-0.200000X0.275000X0.200000X-0.275000X0.200000X-0.275000X-0.200000X0*%
%TD*%
%TA.AperFunction,SMDPad,CuDef*%
%ADD37RoundRect,0.140000X-0.170000X0.140000X-0.170000X-0.140000X0.170000X-0.140000X0.170000X0.140000X0*%
%TD*%
%TA.AperFunction,SMDPad,CuDef*%
%ADD38RoundRect,0.225000X0.225000X0.250000X-0.225000X0.250000X-0.225000X-0.250000X0.225000X-0.250000X0*%
%TD*%
%TA.AperFunction,SMDPad,CuDef*%
%ADD39RoundRect,0.250000X0.250000X0.475000X-0.250000X0.475000X-0.250000X-0.475000X0.250000X-0.475000X0*%
%TD*%
%TA.AperFunction,SMDPad,CuDef*%
%ADD40R,4.410000X4.550000*%
%TD*%
%TA.AperFunction,SMDPad,CuDef*%
%ADD41RoundRect,0.125000X-0.125000X0.300000X-0.125000X-0.300000X0.125000X-0.300000X0.125000X0.300000X0*%
%TD*%
%TA.AperFunction,SMDPad,CuDef*%
%ADD42RoundRect,0.140000X-0.140000X-0.170000X0.140000X-0.170000X0.140000X0.170000X-0.140000X0.170000X0*%
%TD*%
%TA.AperFunction,ComponentPad*%
%ADD43C,0.499999*%
%TD*%
%TA.AperFunction,SMDPad,CuDef*%
%ADD44R,0.599999X0.249999*%
%TD*%
%TA.AperFunction,SMDPad,CuDef*%
%ADD45R,0.249999X0.599999*%
%TD*%
%TA.AperFunction,SMDPad,CuDef*%
%ADD46R,2.700000X1.699999*%
%TD*%
%TA.AperFunction,SMDPad,CuDef*%
%ADD47RoundRect,0.375000X0.375000X-0.625000X0.375000X0.625000X-0.375000X0.625000X-0.375000X-0.625000X0*%
%TD*%
%TA.AperFunction,SMDPad,CuDef*%
%ADD48RoundRect,0.500000X1.400000X-0.500000X1.400000X0.500000X-1.400000X0.500000X-1.400000X-0.500000X0*%
%TD*%
%TA.AperFunction,SMDPad,CuDef*%
%ADD49RoundRect,0.150000X0.825000X0.150000X-0.825000X0.150000X-0.825000X-0.150000X0.825000X-0.150000X0*%
%TD*%
%TA.AperFunction,ComponentPad*%
%ADD50C,3.500000*%
%TD*%
%TA.AperFunction,ComponentPad*%
%ADD51R,3.500000X3.500000*%
%TD*%
%TA.AperFunction,ComponentPad*%
%ADD52C,1.400000*%
%TD*%
%TA.AperFunction,SMDPad,CuDef*%
%ADD53RoundRect,0.140000X-0.021213X0.219203X-0.219203X0.021213X0.021213X-0.219203X0.219203X-0.021213X0*%
%TD*%
%TA.AperFunction,SMDPad,CuDef*%
%ADD54RoundRect,0.218750X-0.218750X-0.256250X0.218750X-0.256250X0.218750X0.256250X-0.218750X0.256250X0*%
%TD*%
%TA.AperFunction,SMDPad,CuDef*%
%ADD55RoundRect,0.100000X0.637500X0.100000X-0.637500X0.100000X-0.637500X-0.100000X0.637500X-0.100000X0*%
%TD*%
%TA.AperFunction,SMDPad,CuDef*%
%ADD56RoundRect,0.250000X-0.450000X0.262500X-0.450000X-0.262500X0.450000X-0.262500X0.450000X0.262500X0*%
%TD*%
%TA.AperFunction,SMDPad,CuDef*%
%ADD57RoundRect,0.140000X0.219203X0.021213X0.021213X0.219203X-0.219203X-0.021213X-0.021213X-0.219203X0*%
%TD*%
%TA.AperFunction,SMDPad,CuDef*%
%ADD58RoundRect,0.075000X0.521491X-0.415425X-0.415425X0.521491X-0.521491X0.415425X0.415425X-0.521491X0*%
%TD*%
%TA.AperFunction,SMDPad,CuDef*%
%ADD59RoundRect,0.075000X0.521491X0.415425X0.415425X0.521491X-0.521491X-0.415425X-0.415425X-0.521491X0*%
%TD*%
%TA.AperFunction,SMDPad,CuDef*%
%ADD60RoundRect,0.218750X0.256250X-0.218750X0.256250X0.218750X-0.256250X0.218750X-0.256250X-0.218750X0*%
%TD*%
%TA.AperFunction,SMDPad,CuDef*%
%ADD61R,5.000000X3.250000*%
%TD*%
%TA.AperFunction,ViaPad*%
%ADD62C,0.600000*%
%TD*%
%TA.AperFunction,ViaPad*%
%ADD63C,0.700000*%
%TD*%
%TA.AperFunction,Conductor*%
%ADD64C,0.500000*%
%TD*%
%TA.AperFunction,Conductor*%
%ADD65C,0.300000*%
%TD*%
%TA.AperFunction,Conductor*%
%ADD66C,0.200000*%
%TD*%
%TA.AperFunction,Conductor*%
%ADD67C,1.750000*%
%TD*%
G04 APERTURE END LIST*
D10*
%TO.P,J3,1,VTref*%
%TO.N,+3.3V*%
X173280000Y-93730000D03*
D11*
%TO.P,J3,2,SWDIO/TMS*%
%TO.N,/MCU/SWDIO*%
X173280000Y-95000000D03*
%TO.P,J3,3,GND*%
%TO.N,GND*%
X172010000Y-93730000D03*
%TO.P,J3,4,SWCLK/TCK*%
%TO.N,/MCU/SWCLK*%
X172010000Y-95000000D03*
%TO.P,J3,5,GND*%
%TO.N,GND*%
X170740000Y-93730000D03*
%TO.P,J3,6,SWO/TDO*%
%TO.N,SWO*%
X170740000Y-95000000D03*
%TO.P,J3,7,KEY*%
%TO.N,unconnected-(J24-KEY-Pad7)*%
X169470000Y-93730000D03*
%TO.P,J3,8,NC/TDI*%
%TO.N,unconnected-(J24-NC{slash}TDI-Pad8)*%
X169470000Y-95000000D03*
%TO.P,J3,9,GNDDetect*%
%TO.N,GND*%
X168200000Y-93730000D03*
%TO.P,J3,10,~{RESET}*%
%TO.N,NREST*%
X168200000Y-95000000D03*
%TD*%
D12*
%TO.P,U9,1,V_{DD}*%
%TO.N,+5V*%
X168750000Y-102037500D03*
%TO.P,U9,2,V_{OUT}*%
%TO.N,TEMP*%
X170650000Y-102037500D03*
%TO.P,U9,3,GND*%
%TO.N,GND*%
X169700000Y-99762500D03*
%TD*%
D13*
%TO.P,C17,1*%
%TO.N,TEMP*%
X172200000Y-101380000D03*
%TO.P,C17,2*%
%TO.N,GND*%
X172200000Y-100420000D03*
%TD*%
%TO.P,C16,1*%
%TO.N,+5V*%
X167200000Y-101380000D03*
%TO.P,C16,2*%
%TO.N,GND*%
X167200000Y-100420000D03*
%TD*%
D14*
%TO.P,R9,1*%
%TO.N,+2.8V*%
X174600000Y-101990000D03*
%TO.P,R9,2*%
%TO.N,GND*%
X174600000Y-103010000D03*
%TD*%
%TO.P,R8,1*%
%TO.N,+3.3V*%
X174600000Y-99890000D03*
%TO.P,R8,2*%
%TO.N,+2.8V*%
X174600000Y-100910000D03*
%TD*%
D15*
%TO.P,D6,1,A*%
%TO.N,GND*%
X170450000Y-108030000D03*
%TO.P,D6,2,A*%
X170450000Y-109970000D03*
D16*
%TO.P,D6,3,K*%
%TO.N,/Power/LO*%
X166100000Y-109000000D03*
%TD*%
D17*
%TO.P,C7,1*%
%TO.N,+3.3VA*%
X186160589Y-85589411D03*
%TO.P,C7,2*%
%TO.N,GND*%
X186839411Y-84910589D03*
%TD*%
D18*
%TO.P,FB1,1*%
%TO.N,+3.3VA*%
X185556847Y-84306847D03*
%TO.P,FB1,2*%
%TO.N,+3.3V*%
X184443153Y-83193153D03*
%TD*%
D19*
%TO.P,Q2,1,S*%
%TO.N,GND*%
X173300000Y-116200000D03*
%TO.P,Q2,2,S*%
X173300000Y-114930000D03*
%TO.P,Q2,3,S*%
X173300000Y-113660000D03*
%TO.P,Q2,4,G*%
%TO.N,/Power/LO*%
X173300000Y-112390000D03*
D20*
%TO.P,Q2,5,D*%
%TO.N,/Power/SW_*%
X169350000Y-114295000D03*
%TD*%
D21*
%TO.P,C11,1*%
%TO.N,/PWM Chip/EXTCLK*%
X162750000Y-87250000D03*
%TO.P,C11,2*%
%TO.N,GND*%
X161790000Y-87250000D03*
%TD*%
D22*
%TO.P,COUT4,1*%
%TO.N,+6V*%
X175100000Y-104605000D03*
%TO.P,COUT4,2*%
%TO.N,GND*%
X175100000Y-107555000D03*
%TD*%
D23*
%TO.P,R3,1*%
%TO.N,+3.3V*%
X176000000Y-91259999D03*
%TO.P,R3,2*%
%TO.N,PWM_SCL*%
X176000000Y-90240001D03*
%TD*%
D24*
%TO.P,TP7,1,1*%
%TO.N,+6V*%
X158500000Y-101900000D03*
%TD*%
D25*
%TO.P,CSS1,1*%
%TO.N,GND*%
X188134999Y-106780001D03*
%TO.P,CSS1,2*%
%TO.N,/Power/SS_TRK*%
X188134999Y-108330001D03*
%TD*%
D26*
%TO.P,J14,1,Pin_1*%
%TO.N,GND*%
X178900000Y-72520000D03*
D27*
%TO.P,J14,2,Pin_2*%
%TO.N,+6V*%
X178900000Y-75060000D03*
%TO.P,J14,3,Pin_3*%
%TO.N,CH8*%
X178900000Y-77600000D03*
%TD*%
D28*
%TO.P,CIN2,2*%
%TO.N,GND*%
X177200000Y-117160000D03*
%TO.P,CIN2,1*%
%TO.N,+P_BATT*%
X177200000Y-118710000D03*
%TD*%
D29*
%TO.P,J5,MP*%
%TO.N,N/C*%
X136205000Y-92140000D03*
X136205000Y-83440000D03*
D30*
%TO.P,J5,3,Pin_3*%
%TO.N,GND*%
X141955000Y-89790000D03*
%TO.P,J5,2,Pin_2*%
%TO.N,CAN-*%
X141955000Y-87790000D03*
%TO.P,J5,1,Pin_1*%
%TO.N,CAN+*%
X141955000Y-85790000D03*
%TD*%
D17*
%TO.P,C5,1*%
%TO.N,+3.3V*%
X187410589Y-86339411D03*
%TO.P,C5,2*%
%TO.N,GND*%
X188089411Y-85660589D03*
%TD*%
D31*
%TO.P,R17,2*%
%TO.N,GND*%
X145240000Y-90460000D03*
%TO.P,R17,1*%
%TO.N,Net-(D3-K)*%
X146260000Y-90460000D03*
%TD*%
D28*
%TO.P,CIN1,2*%
%TO.N,GND*%
X175200000Y-117160000D03*
%TO.P,CIN1,1*%
%TO.N,+P_BATT*%
X175200000Y-118710000D03*
%TD*%
D32*
%TO.P,CBoot1,1*%
%TO.N,/Power/BST*%
X188209999Y-115405002D03*
%TO.P,CBoot1,2*%
%TO.N,/Power/SW_*%
X189759999Y-115405002D03*
%TD*%
D24*
%TO.P,TP5,1,1*%
%TO.N,CSA_OUT*%
X188500000Y-87500000D03*
%TD*%
D26*
%TO.P,J18,1,Pin_1*%
%TO.N,GND*%
X160500000Y-72620000D03*
D27*
%TO.P,J18,2,Pin_2*%
%TO.N,+6V*%
X160500000Y-75160000D03*
%TO.P,J18,3,Pin_3*%
%TO.N,CH12*%
X160500000Y-77700000D03*
%TD*%
D31*
%TO.P,RFB2,1*%
%TO.N,GND*%
X188894999Y-104305002D03*
%TO.P,RFB2,2*%
%TO.N,/Power/FB_*%
X187874999Y-104305002D03*
%TD*%
D33*
%TO.P,RPGOOD1,1*%
%TO.N,Net-(U4-VCC)*%
X181774998Y-110805002D03*
%TO.P,RPGOOD1,2*%
%TO.N,/Power/PGOOD*%
X182794998Y-110805002D03*
%TD*%
D34*
%TO.P,R4,1*%
%TO.N,+6V*%
X182500000Y-102762500D03*
%TO.P,R4,2*%
X182500000Y-99837500D03*
%TD*%
D26*
%TO.P,J12,1,Pin_1*%
%TO.N,GND*%
X188200000Y-72500000D03*
D27*
%TO.P,J12,2,Pin_2*%
%TO.N,+6V*%
X188200000Y-75040000D03*
%TO.P,J12,3,Pin_3*%
%TO.N,CH6*%
X188200000Y-77580000D03*
%TD*%
D26*
%TO.P,J21,1,Pin_1*%
%TO.N,GND*%
X146700000Y-72620000D03*
D27*
%TO.P,J21,2,Pin_2*%
%TO.N,+6V*%
X146700000Y-75160000D03*
%TO.P,J21,3,Pin_3*%
%TO.N,CH15*%
X146700000Y-77700000D03*
%TD*%
D35*
%TO.P,U7,1*%
%TO.N,CSA_OUT*%
X179637500Y-102662500D03*
%TO.P,U7,2,GND*%
%TO.N,GND*%
X179637500Y-101712500D03*
%TO.P,U7,3,+*%
%TO.N,+6V*%
X179637500Y-100762500D03*
%TO.P,U7,4,-*%
X177362500Y-100762500D03*
%TO.P,U7,5,V+*%
%TO.N,+2.8V*%
X177362500Y-102662500D03*
%TD*%
D31*
%TO.P,R5,1*%
%TO.N,Net-(D1-K)*%
X146260000Y-93960000D03*
%TO.P,R5,2*%
%TO.N,GND*%
X145240000Y-93960000D03*
%TD*%
D36*
%TO.P,RUV1,1*%
%TO.N,+P_BATT*%
X190534999Y-112780001D03*
%TO.P,RUV1,2*%
%TO.N,/Power/EN*%
X190534999Y-111130001D03*
%TD*%
D26*
%TO.P,J19,1,Pin_1*%
%TO.N,GND*%
X155900000Y-72620000D03*
D27*
%TO.P,J19,2,Pin_2*%
%TO.N,+6V*%
X155900000Y-75160000D03*
%TO.P,J19,3,Pin_3*%
%TO.N,CH13*%
X155900000Y-77700000D03*
%TD*%
D13*
%TO.P,C13,1*%
%TO.N,+3.3V*%
X163000000Y-89480000D03*
%TO.P,C13,2*%
%TO.N,GND*%
X163000000Y-88520000D03*
%TD*%
D28*
%TO.P,CIN4,1*%
%TO.N,+P_BATT*%
X181300000Y-118710000D03*
%TO.P,CIN4,2*%
%TO.N,GND*%
X181300000Y-117160000D03*
%TD*%
D24*
%TO.P,TP10,1,1*%
%TO.N,GND*%
X190300000Y-118700000D03*
%TD*%
D31*
%TO.P,RRT1,1*%
%TO.N,GND*%
X190644999Y-109555001D03*
%TO.P,RRT1,2*%
%TO.N,/Power/rt*%
X189624999Y-109555001D03*
%TD*%
D26*
%TO.P,J15,1,Pin_1*%
%TO.N,GND*%
X174300000Y-72520000D03*
D27*
%TO.P,J15,2,Pin_2*%
%TO.N,+6V*%
X174300000Y-75060000D03*
%TO.P,J15,3,Pin_3*%
%TO.N,CH9*%
X174300000Y-77600000D03*
%TD*%
D32*
%TO.P,C1,1*%
%TO.N,+3.3V*%
X184475000Y-98000000D03*
%TO.P,C1,2*%
%TO.N,GND*%
X186025000Y-98000000D03*
%TD*%
D37*
%TO.P,C14,1*%
%TO.N,+5V*%
X155100000Y-83770000D03*
%TO.P,C14,2*%
%TO.N,GND*%
X155100000Y-84730000D03*
%TD*%
D26*
%TO.P,J6,1,Pin_1*%
%TO.N,GND*%
X197500000Y-104300000D03*
D27*
%TO.P,J6,2,Pin_2*%
%TO.N,+6V*%
X194960000Y-104300000D03*
%TO.P,J6,3,Pin_3*%
%TO.N,CH0*%
X192420000Y-104300000D03*
%TD*%
D14*
%TO.P,R6,1*%
%TO.N,Net-(D4-K)*%
X188500000Y-96300000D03*
%TO.P,R6,2*%
%TO.N,GND*%
X188500000Y-97320000D03*
%TD*%
D38*
%TO.P,C12,1*%
%TO.N,+3.3V*%
X159525000Y-87500000D03*
%TO.P,C12,2*%
%TO.N,GND*%
X157975000Y-87500000D03*
%TD*%
D23*
%TO.P,RFB1,1*%
%TO.N,/Power/FB_*%
X186250000Y-103210000D03*
%TO.P,RFB1,2*%
%TO.N,+6V*%
X186250000Y-102190000D03*
%TD*%
D26*
%TO.P,J13,1,Pin_1*%
%TO.N,GND*%
X183600000Y-72500000D03*
D27*
%TO.P,J13,2,Pin_2*%
%TO.N,+6V*%
X183600000Y-75040000D03*
%TO.P,J13,3,Pin_3*%
%TO.N,CH7*%
X183600000Y-77580000D03*
%TD*%
D25*
%TO.P,CVcc1,1*%
%TO.N,Net-(U4-VCC)*%
X186284999Y-115130002D03*
%TO.P,CVcc1,2*%
%TO.N,GND*%
X186284999Y-116680002D03*
%TD*%
D39*
%TO.P,C28,2*%
%TO.N,GND*%
X147955000Y-94610000D03*
%TO.P,C28,1*%
%TO.N,+5V*%
X149855000Y-94610000D03*
%TD*%
D40*
%TO.P,Q1,5,D*%
%TO.N,+P_BATT*%
X169665000Y-122050000D03*
D41*
%TO.P,Q1,4,G*%
%TO.N,/Power/HO*%
X167760000Y-118100000D03*
%TO.P,Q1,3,S*%
%TO.N,/Power/SW_*%
X169030000Y-118100000D03*
%TO.P,Q1,2,S*%
X170300000Y-118100000D03*
%TO.P,Q1,1,S*%
X171570000Y-118100000D03*
%TD*%
D24*
%TO.P,TP6,1,1*%
%TO.N,TEMP*%
X173400000Y-98700000D03*
%TD*%
D13*
%TO.P,CC2,1*%
%TO.N,/Power/comp*%
X185600000Y-107480000D03*
%TO.P,CC2,2*%
%TO.N,/Power/FB_*%
X185600000Y-106520000D03*
%TD*%
D39*
%TO.P,C27,1*%
%TO.N,+6V*%
X156100000Y-101200000D03*
%TO.P,C27,2*%
%TO.N,GND*%
X154200000Y-101200000D03*
%TD*%
D31*
%TO.P,R16,2*%
%TO.N,GND*%
X145240000Y-92210000D03*
%TO.P,R16,1*%
%TO.N,+5V*%
X146260000Y-92210000D03*
%TD*%
D14*
%TO.P,R1,1*%
%TO.N,/MCU/BOOT0*%
X178500000Y-95740000D03*
%TO.P,R1,2*%
%TO.N,GND*%
X178500000Y-96760000D03*
%TD*%
D22*
%TO.P,COUT1,1*%
%TO.N,+6V*%
X182600000Y-104655000D03*
%TO.P,COUT1,2*%
%TO.N,GND*%
X182600000Y-107605000D03*
%TD*%
D24*
%TO.P,TP2,1,1*%
%TO.N,CAN+*%
X145305000Y-86610000D03*
%TD*%
D37*
%TO.P,C15,1*%
%TO.N,+3.3V*%
X146000000Y-82500000D03*
%TO.P,C15,2*%
%TO.N,GND*%
X146000000Y-83460000D03*
%TD*%
D22*
%TO.P,COUT5,1*%
%TO.N,+6V*%
X172600000Y-104605000D03*
%TO.P,COUT5,2*%
%TO.N,GND*%
X172600000Y-107555000D03*
%TD*%
D13*
%TO.P,CC1,1*%
%TO.N,/Power/comp*%
X186684999Y-107485002D03*
%TO.P,CC1,2*%
%TO.N,Net-(CC1-Pad2)*%
X186684999Y-106525002D03*
%TD*%
D22*
%TO.P,COUT3,1*%
%TO.N,+6V*%
X177600000Y-104605000D03*
%TO.P,COUT3,2*%
%TO.N,GND*%
X177600000Y-107555000D03*
%TD*%
D26*
%TO.P,J11,1,Pin_1*%
%TO.N,GND*%
X197500000Y-81300000D03*
D27*
%TO.P,J11,2,Pin_2*%
%TO.N,+6V*%
X194960000Y-81300000D03*
%TO.P,J11,3,Pin_3*%
%TO.N,CH5*%
X192420000Y-81300000D03*
%TD*%
D28*
%TO.P,CIN3,1*%
%TO.N,+P_BATT*%
X179200000Y-118710000D03*
%TO.P,CIN3,2*%
%TO.N,GND*%
X179200000Y-117160000D03*
%TD*%
D42*
%TO.P,C8,1*%
%TO.N,+3.3VA*%
X187270000Y-83750000D03*
%TO.P,C8,2*%
%TO.N,GND*%
X188230000Y-83750000D03*
%TD*%
D26*
%TO.P,J17,1,Pin_1*%
%TO.N,GND*%
X165100000Y-72620000D03*
D27*
%TO.P,J17,2,Pin_2*%
%TO.N,+6V*%
X165100000Y-75160000D03*
%TO.P,J17,3,Pin_3*%
%TO.N,CH11*%
X165100000Y-77700000D03*
%TD*%
D26*
%TO.P,J9,1,Pin_1*%
%TO.N,GND*%
X197500000Y-90500000D03*
D27*
%TO.P,J9,2,Pin_2*%
%TO.N,+6V*%
X194960000Y-90500000D03*
%TO.P,J9,3,Pin_3*%
%TO.N,CH3*%
X192420000Y-90500000D03*
%TD*%
D43*
%TO.P,U4,V*%
%TO.N,GND*%
X186434999Y-112155000D03*
X185334999Y-111555001D03*
X187534999Y-111555001D03*
X186434999Y-110955002D03*
D44*
%TO.P,U4,20,VIN*%
%TO.N,+P_BATT*%
X188585000Y-112305002D03*
D45*
%TO.P,U4,19,SW*%
%TO.N,/Power/SW_*%
X188185001Y-113205000D03*
%TO.P,U4,18,HO*%
%TO.N,/Power/HO*%
X187684999Y-113205000D03*
%TO.P,U4,17,BST*%
%TO.N,/Power/BST*%
X187185000Y-113205000D03*
%TO.P,U4,16,NC*%
%TO.N,unconnected-(U4-NC-Pad16)*%
X186685001Y-113205000D03*
%TO.P,U4,15,EP*%
%TO.N,unconnected-(U4-EP-Pad15)*%
X186184999Y-113205000D03*
%TO.P,U4,14,VCC*%
%TO.N,Net-(U4-VCC)*%
X185685001Y-113205000D03*
%TO.P,U4,13,LO*%
%TO.N,/Power/LO*%
X185184999Y-113205000D03*
%TO.P,U4,12,PGND*%
%TO.N,GND*%
X184685000Y-113205000D03*
D44*
%TO.P,U4,11,ILIM*%
%TO.N,/Power/ILIM*%
X184284998Y-112305002D03*
%TO.P,U4,10,PGOOD*%
%TO.N,/Power/PGOOD*%
X184284998Y-110805000D03*
D45*
%TO.P,U4,9,NC*%
%TO.N,unconnected-(U4-NC-Pad9)*%
X184685000Y-109905002D03*
%TO.P,U4,8,SYNCIN*%
%TO.N,GND*%
X185184999Y-109905002D03*
%TO.P,U4,7,SYNCOUT*%
%TO.N,unconnected-(U4-SYNCOUT-Pad7)*%
X185684998Y-109905002D03*
%TO.P,U4,6,AGND*%
%TO.N,GND*%
X186184997Y-109905002D03*
%TO.P,U4,5,FB*%
%TO.N,/Power/FB_*%
X186684999Y-109905002D03*
%TO.P,U4,4,COMP*%
%TO.N,/Power/comp*%
X187184997Y-109905002D03*
%TO.P,U4,3,SS_TRK*%
%TO.N,/Power/SS_TRK*%
X187684999Y-109905002D03*
%TO.P,U4,2,RT*%
%TO.N,/Power/rt*%
X188184998Y-109905002D03*
D44*
%TO.P,U4,1,EN_UVLO*%
%TO.N,/Power/EN*%
X188585000Y-110805000D03*
D46*
%TO.P,U4,*%
%TO.N,GND*%
X186434999Y-111555001D03*
%TD*%
D26*
%TO.P,J10,1,Pin_1*%
%TO.N,GND*%
X197500000Y-85900000D03*
D27*
%TO.P,J10,2,Pin_2*%
%TO.N,+6V*%
X194960000Y-85900000D03*
%TO.P,J10,3,Pin_3*%
%TO.N,CH4*%
X192420000Y-85900000D03*
%TD*%
D47*
%TO.P,U6,1,GND*%
%TO.N,GND*%
X153005000Y-98360000D03*
%TO.P,U6,2,VO*%
%TO.N,+5V*%
X155305000Y-98360000D03*
D48*
X155305000Y-92060000D03*
D47*
%TO.P,U6,3,VI*%
%TO.N,+6V*%
X157605000Y-98360000D03*
%TD*%
D49*
%TO.P,U3,1,TXD*%
%TO.N,FDCAN_TX*%
X152975000Y-86155000D03*
%TO.P,U3,2,GND*%
%TO.N,GND*%
X152975000Y-84885000D03*
%TO.P,U3,3,VCC*%
%TO.N,+5V*%
X152975000Y-83615000D03*
%TO.P,U3,4,RXD*%
%TO.N,FDCAN_RX*%
X152975000Y-82345000D03*
%TO.P,U3,5,VIO*%
%TO.N,+3.3V*%
X148025000Y-82345000D03*
%TO.P,U3,6,CANL*%
%TO.N,CAN-*%
X148025000Y-83615000D03*
%TO.P,U3,7,CANH*%
%TO.N,CAN+*%
X148025000Y-84885000D03*
%TO.P,U3,8,STB*%
%TO.N,GND*%
X148025000Y-86155000D03*
%TD*%
D50*
%TO.P,J22,2,Pin_2*%
%TO.N,GND*%
X147605000Y-120350000D03*
D51*
%TO.P,J22,1,Pin_1*%
%TO.N,+P_BATT*%
X147605000Y-115350000D03*
D52*
%TO.P,J22,*%
%TO.N,*%
X137605000Y-112350000D03*
X137605000Y-123350000D03*
%TD*%
D39*
%TO.P,C30,1*%
%TO.N,+3.3V*%
X160912500Y-89500000D03*
%TO.P,C30,2*%
%TO.N,GND*%
X159012500Y-89500000D03*
%TD*%
D17*
%TO.P,C6,1*%
%TO.N,+3.3V*%
X175910589Y-88839411D03*
%TO.P,C6,2*%
%TO.N,GND*%
X176589411Y-88160589D03*
%TD*%
D53*
%TO.P,C4,1*%
%TO.N,+3.3V*%
X183089411Y-96910589D03*
%TO.P,C4,2*%
%TO.N,GND*%
X182410589Y-97589411D03*
%TD*%
D54*
%TO.P,D1,1,K*%
%TO.N,Net-(D1-K)*%
X147925000Y-92610000D03*
%TO.P,D1,2,A*%
%TO.N,+6V*%
X149500000Y-92610000D03*
%TD*%
D37*
%TO.P,C31,1*%
%TO.N,+2.8V*%
X175800000Y-102040000D03*
%TO.P,C31,2*%
%TO.N,GND*%
X175800000Y-103000000D03*
%TD*%
D26*
%TO.P,J7,1,Pin_1*%
%TO.N,GND*%
X197500000Y-99700000D03*
D27*
%TO.P,J7,2,Pin_2*%
%TO.N,+6V*%
X194960000Y-99700000D03*
%TO.P,J7,3,Pin_3*%
%TO.N,CH1*%
X192420000Y-99700000D03*
%TD*%
D24*
%TO.P,TP4,1,1*%
%TO.N,PWM_SDA*%
X172700000Y-90300000D03*
%TD*%
D55*
%TO.P,U2,1,A0*%
%TO.N,+3.3V*%
X170362500Y-89525000D03*
%TO.P,U2,2,A1*%
%TO.N,GND*%
X170362500Y-88875000D03*
%TO.P,U2,3,A2*%
%TO.N,+3.3V*%
X170362500Y-88225000D03*
%TO.P,U2,4,A3*%
%TO.N,GND*%
X170362500Y-87575000D03*
%TO.P,U2,5,A4*%
%TO.N,+3.3V*%
X170362500Y-86925000D03*
%TO.P,U2,6,LED0*%
%TO.N,CH0*%
X170362500Y-86275000D03*
%TO.P,U2,7,LED1*%
%TO.N,CH1*%
X170362500Y-85625000D03*
%TO.P,U2,8,LED2*%
%TO.N,CH2*%
X170362500Y-84975000D03*
%TO.P,U2,9,LED3*%
%TO.N,CH3*%
X170362500Y-84325000D03*
%TO.P,U2,10,LED4*%
%TO.N,CH4*%
X170362500Y-83675000D03*
%TO.P,U2,11,LED5*%
%TO.N,CH5*%
X170362500Y-83025000D03*
%TO.P,U2,12,LED6*%
%TO.N,CH6*%
X170362500Y-82375000D03*
%TO.P,U2,13,LED7*%
%TO.N,CH7*%
X170362500Y-81725000D03*
%TO.P,U2,14,VSS*%
%TO.N,GND*%
X170362500Y-81075000D03*
%TO.P,U2,15,LED8*%
%TO.N,CH8*%
X164637500Y-81075000D03*
%TO.P,U2,16,LED9*%
%TO.N,CH9*%
X164637500Y-81725000D03*
%TO.P,U2,17,LED10*%
%TO.N,CH10*%
X164637500Y-82375000D03*
%TO.P,U2,18,LED11*%
%TO.N,CH11*%
X164637500Y-83025000D03*
%TO.P,U2,19,LED12*%
%TO.N,CH12*%
X164637500Y-83675000D03*
%TO.P,U2,20,LED13*%
%TO.N,CH13*%
X164637500Y-84325000D03*
%TO.P,U2,21,LED14*%
%TO.N,CH14*%
X164637500Y-84975000D03*
%TO.P,U2,22,LED15*%
%TO.N,CH15*%
X164637500Y-85625000D03*
%TO.P,U2,23,~{OE}*%
%TO.N,PWM_OE*%
X164637500Y-86275000D03*
%TO.P,U2,24,A5*%
%TO.N,GND*%
X164637500Y-86925000D03*
%TO.P,U2,25,EXTCLK*%
%TO.N,/PWM Chip/EXTCLK*%
X164637500Y-87575000D03*
%TO.P,U2,26,SCL*%
%TO.N,PWM_SCL*%
X164637500Y-88225000D03*
%TO.P,U2,27,SDA*%
%TO.N,PWM_SDA*%
X164637500Y-88875000D03*
%TO.P,U2,28,VDD*%
%TO.N,+3.3V*%
X164637500Y-89525000D03*
%TD*%
D14*
%TO.P,RUV2,1*%
%TO.N,/Power/EN*%
X192000000Y-111190000D03*
%TO.P,RUV2,2*%
%TO.N,GND*%
X192000000Y-112210000D03*
%TD*%
D47*
%TO.P,U5,1,GND*%
%TO.N,GND*%
X160405000Y-98360000D03*
%TO.P,U5,2,VO*%
%TO.N,+3.3V*%
X162705000Y-98360000D03*
D48*
X162705000Y-92060000D03*
D47*
%TO.P,U5,3,VI*%
%TO.N,+5V*%
X165005000Y-98360000D03*
%TD*%
D26*
%TO.P,J8,1,Pin_1*%
%TO.N,GND*%
X197500000Y-95100000D03*
D27*
%TO.P,J8,2,Pin_2*%
%TO.N,+6V*%
X194960000Y-95100000D03*
%TO.P,J8,3,Pin_3*%
%TO.N,CH2*%
X192420000Y-95100000D03*
%TD*%
D26*
%TO.P,J20,1,Pin_1*%
%TO.N,GND*%
X151300000Y-72620000D03*
D27*
%TO.P,J20,2,Pin_2*%
%TO.N,+6V*%
X151300000Y-75160000D03*
%TO.P,J20,3,Pin_3*%
%TO.N,CH14*%
X151300000Y-77700000D03*
%TD*%
D14*
%TO.P,R7,1*%
%TO.N,Net-(D5-K)*%
X174305000Y-85500001D03*
%TO.P,R7,2*%
%TO.N,GND*%
X174305000Y-86519999D03*
%TD*%
D24*
%TO.P,TP1,1,1*%
%TO.N,CAN-*%
X145305000Y-88810000D03*
%TD*%
%TO.P,TP3,1,1*%
%TO.N,PWM_SCL*%
X172900000Y-88100000D03*
%TD*%
D56*
%TO.P,Rilim1,1*%
%TO.N,/Power/ILIM*%
X181084998Y-112692502D03*
%TO.P,Rilim1,2*%
%TO.N,/Power/SW_*%
X181084998Y-114517502D03*
%TD*%
D37*
%TO.P,Cilim1,1*%
%TO.N,/Power/ILIM*%
X182784998Y-112337502D03*
%TO.P,Cilim1,2*%
%TO.N,GND*%
X182784998Y-113297502D03*
%TD*%
D54*
%TO.P,D5,1,K*%
%TO.N,Net-(D5-K)*%
X175917500Y-85610000D03*
%TO.P,D5,2,A*%
%TO.N,/MCU/Debug_LED2*%
X177492500Y-85610000D03*
%TD*%
D17*
%TO.P,C2,1*%
%TO.N,+3.3V*%
X182660589Y-84589411D03*
%TO.P,C2,2*%
%TO.N,GND*%
X183339411Y-83910589D03*
%TD*%
D24*
%TO.P,TP9,1,1*%
%TO.N,+3.3V*%
X155700000Y-89300000D03*
%TD*%
%TO.P,TP8,1,1*%
%TO.N,+5V*%
X152500000Y-89500000D03*
%TD*%
D29*
%TO.P,J4,MP*%
%TO.N,N/C*%
X136205000Y-80140000D03*
X136205000Y-71440000D03*
D30*
%TO.P,J4,3,Pin_3*%
%TO.N,GND*%
X141955000Y-77790000D03*
%TO.P,J4,2,Pin_2*%
%TO.N,CAN-*%
X141955000Y-75790000D03*
%TO.P,J4,1,Pin_1*%
%TO.N,CAN+*%
X141955000Y-73790000D03*
%TD*%
D42*
%TO.P,C9,1*%
%TO.N,+3.3V*%
X186020000Y-82750000D03*
%TO.P,C9,2*%
%TO.N,GND*%
X186980000Y-82750000D03*
%TD*%
D53*
%TO.P,C10,1*%
%TO.N,NREST*%
X186839411Y-94660589D03*
%TO.P,C10,2*%
%TO.N,GND*%
X186160589Y-95339411D03*
%TD*%
D26*
%TO.P,J2,1,Pin_1*%
%TO.N,+3.3V*%
X194975000Y-113750000D03*
D27*
%TO.P,J2,2,Pin_2*%
%TO.N,/MCU/BOOT0*%
X197515000Y-113750000D03*
%TD*%
D54*
%TO.P,D3,1,K*%
%TO.N,Net-(D3-K)*%
X147917500Y-89010000D03*
%TO.P,D3,2,A*%
%TO.N,+3.3V*%
X149492500Y-89010000D03*
%TD*%
D57*
%TO.P,C3,1*%
%TO.N,+3.3V*%
X180839411Y-97089411D03*
%TO.P,C3,2*%
%TO.N,GND*%
X180160589Y-96410589D03*
%TD*%
D23*
%TO.P,R2,1*%
%TO.N,+3.3V*%
X177250000Y-96510000D03*
%TO.P,R2,2*%
%TO.N,PWM_SDA*%
X177250000Y-95490000D03*
%TD*%
D21*
%TO.P,CC3,1*%
%TO.N,/Power/FB_*%
X185464999Y-104305002D03*
%TO.P,CC3,2*%
%TO.N,Net-(CC3-Pad2)*%
X184504999Y-104305002D03*
%TD*%
D23*
%TO.P,RC1,1*%
%TO.N,Net-(CC1-Pad2)*%
X186684999Y-105315002D03*
%TO.P,RC1,2*%
%TO.N,/Power/FB_*%
X186684999Y-104295002D03*
%TD*%
D54*
%TO.P,D2,1,K*%
%TO.N,+5V*%
X147925000Y-90810000D03*
%TO.P,D2,2,A*%
X149500000Y-90810000D03*
%TD*%
D58*
%TO.P,U1,1,VBAT*%
%TO.N,+3.3V*%
X183498788Y-95387876D03*
%TO.P,U1,2,PC13*%
%TO.N,unconnected-(U1-PC13-Pad2)*%
X183852342Y-95034322D03*
%TO.P,U1,3,PC14*%
%TO.N,unconnected-(U1-PC14-Pad3)*%
X184205895Y-94680769D03*
%TO.P,U1,4,PC15*%
%TO.N,unconnected-(U1-PC15-Pad4)*%
X184559449Y-94327215D03*
%TO.P,U1,5,PF0*%
%TO.N,unconnected-(U1-PF0-Pad5)*%
X184913002Y-93973662D03*
%TO.P,U1,6,PF1*%
%TO.N,unconnected-(U1-PF1-Pad6)*%
X185266555Y-93620109D03*
%TO.P,U1,7,PG10*%
%TO.N,NREST*%
X185620109Y-93266555D03*
%TO.P,U1,8,PA0*%
%TO.N,unconnected-(U1-PA0-Pad8)*%
X185973662Y-92913002D03*
%TO.P,U1,9,PA1*%
%TO.N,CSA_OUT*%
X186327215Y-92559449D03*
%TO.P,U1,10,PA2*%
%TO.N,unconnected-(U1-PA2-Pad10)*%
X186680769Y-92205895D03*
%TO.P,U1,11,PA3*%
%TO.N,/MCU/Debug_LED1*%
X187034322Y-91852342D03*
%TO.P,U1,12,PA4*%
%TO.N,unconnected-(U1-PA4-Pad12)*%
X187387876Y-91498788D03*
D59*
%TO.P,U1,13,PA5*%
%TO.N,unconnected-(U1-PA5-Pad13)*%
X187387876Y-89501212D03*
%TO.P,U1,14,PA6*%
%TO.N,unconnected-(U1-PA6-Pad14)*%
X187034322Y-89147658D03*
%TO.P,U1,15,PA7*%
%TO.N,unconnected-(U1-PA7-Pad15)*%
X186680769Y-88794105D03*
%TO.P,U1,16,PB0*%
%TO.N,unconnected-(U1-PB0-Pad16)*%
X186327215Y-88440551D03*
%TO.P,U1,17,PB1*%
%TO.N,TEMP*%
X185973662Y-88086998D03*
%TO.P,U1,18,PB2*%
%TO.N,unconnected-(U1-PB2-Pad18)*%
X185620109Y-87733445D03*
%TO.P,U1,19,VSSA*%
%TO.N,GND*%
X185266555Y-87379891D03*
%TO.P,U1,20,VREF+*%
%TO.N,+3.3V*%
X184913002Y-87026338D03*
%TO.P,U1,21,VDDA*%
%TO.N,+3.3VA*%
X184559449Y-86672785D03*
%TO.P,U1,22,PB10*%
%TO.N,unconnected-(U1-PB10-Pad22)*%
X184205895Y-86319231D03*
%TO.P,U1,23,VSS*%
%TO.N,GND*%
X183852342Y-85965678D03*
%TO.P,U1,24,VDD*%
%TO.N,+3.3V*%
X183498788Y-85612124D03*
D58*
%TO.P,U1,25,PB11*%
%TO.N,unconnected-(U1-PB11-Pad25)*%
X181501212Y-85612124D03*
%TO.P,U1,26,PB12*%
%TO.N,unconnected-(U1-PB12-Pad26)*%
X181147658Y-85965678D03*
%TO.P,U1,27,PB13*%
%TO.N,unconnected-(U1-PB13-Pad27)*%
X180794105Y-86319231D03*
%TO.P,U1,28,PB14*%
%TO.N,/MCU/Debug_LED2*%
X180440551Y-86672785D03*
%TO.P,U1,29,PB15*%
%TO.N,unconnected-(U1-PB15-Pad29)*%
X180086998Y-87026338D03*
%TO.P,U1,30,PA8*%
%TO.N,PWM_OE*%
X179733445Y-87379891D03*
%TO.P,U1,31,PA9*%
%TO.N,unconnected-(U1-PA9-Pad31)*%
X179379891Y-87733445D03*
%TO.P,U1,32,PA10*%
%TO.N,unconnected-(U1-PA10-Pad32)*%
X179026338Y-88086998D03*
%TO.P,U1,33,PA11*%
%TO.N,FDCAN_RX*%
X178672785Y-88440551D03*
%TO.P,U1,34,PA12*%
%TO.N,FDCAN_TX*%
X178319231Y-88794105D03*
%TO.P,U1,35,VSS*%
%TO.N,GND*%
X177965678Y-89147658D03*
%TO.P,U1,36,VDD*%
%TO.N,+3.3V*%
X177612124Y-89501212D03*
D59*
%TO.P,U1,37,PA13*%
%TO.N,/MCU/SWDIO*%
X177612124Y-91498788D03*
%TO.P,U1,38,PA14*%
%TO.N,/MCU/SWCLK*%
X177965678Y-91852342D03*
%TO.P,U1,39,PA15*%
%TO.N,PWM_SCL*%
X178319231Y-92205895D03*
%TO.P,U1,40,PB3*%
%TO.N,SWO*%
X178672785Y-92559449D03*
%TO.P,U1,41,PB4*%
%TO.N,unconnected-(U1-PB4-Pad41)*%
X179026338Y-92913002D03*
%TO.P,U1,42,PB5*%
%TO.N,unconnected-(U1-PB5-Pad42)*%
X179379891Y-93266555D03*
%TO.P,U1,43,PB6*%
%TO.N,unconnected-(U1-PB6-Pad43)*%
X179733445Y-93620109D03*
%TO.P,U1,44,PB7*%
%TO.N,PWM_SDA*%
X180086998Y-93973662D03*
%TO.P,U1,45,PB8*%
%TO.N,/MCU/BOOT0*%
X180440551Y-94327215D03*
%TO.P,U1,46,PB9*%
%TO.N,unconnected-(U1-PB9-Pad46)*%
X180794105Y-94680769D03*
%TO.P,U1,47,VSS*%
%TO.N,GND*%
X181147658Y-95034322D03*
%TO.P,U1,48,VDD*%
%TO.N,+3.3V*%
X181501212Y-95387876D03*
%TD*%
D26*
%TO.P,J16,1,Pin_1*%
%TO.N,GND*%
X169700000Y-72620000D03*
D27*
%TO.P,J16,2,Pin_2*%
%TO.N,+6V*%
X169700000Y-75160000D03*
%TO.P,J16,3,Pin_3*%
%TO.N,CH10*%
X169700000Y-77700000D03*
%TD*%
D26*
%TO.P,J1,1,Pin_1*%
%TO.N,NREST*%
X194975000Y-109000000D03*
D27*
%TO.P,J1,2,Pin_2*%
%TO.N,GND*%
X197515000Y-109000000D03*
%TD*%
D39*
%TO.P,C29,1*%
%TO.N,+5V*%
X163600000Y-101200000D03*
%TO.P,C29,2*%
%TO.N,GND*%
X161700000Y-101200000D03*
%TD*%
D60*
%TO.P,D4,1,K*%
%TO.N,Net-(D4-K)*%
X188500000Y-94887500D03*
%TO.P,D4,2,A*%
%TO.N,/MCU/Debug_LED1*%
X188500000Y-93312500D03*
%TD*%
D14*
%TO.P,RC2,2*%
%TO.N,+6V*%
X184500000Y-106410000D03*
%TO.P,RC2,1*%
%TO.N,Net-(CC3-Pad2)*%
X184500000Y-105390000D03*
%TD*%
D22*
%TO.P,COUT2,1*%
%TO.N,+6V*%
X180100000Y-104625000D03*
%TO.P,COUT2,2*%
%TO.N,GND*%
X180100000Y-107575000D03*
%TD*%
D61*
%TO.P,L1,1,1*%
%TO.N,/Power/SW_*%
X156700000Y-117025000D03*
%TO.P,L1,2,2*%
%TO.N,+6V*%
X156700000Y-105775000D03*
%TD*%
D50*
%TO.P,J23,2,Pin_2*%
%TO.N,GND*%
X147595000Y-105340000D03*
D51*
%TO.P,J23,1,Pin_1*%
%TO.N,+P_BATT*%
X147595000Y-100340000D03*
D52*
%TO.P,J23,*%
%TO.N,*%
X137595000Y-97340000D03*
X137595000Y-108340000D03*
%TD*%
D62*
%TO.N,NREST*%
X170600000Y-96550000D03*
%TO.N,TEMP*%
X182100000Y-93900000D03*
X179121882Y-97750000D03*
X174600000Y-98700000D03*
X176394452Y-98383355D03*
%TO.N,GND*%
X172170000Y-99548000D03*
X167200000Y-99500000D03*
X169700000Y-98500000D03*
X180888419Y-102211581D03*
X173600000Y-103000000D03*
X183400000Y-109500000D03*
X181100000Y-109500000D03*
D63*
X188250000Y-105500000D03*
D62*
X182750000Y-87250000D03*
D63*
X156250000Y-84750000D03*
X168750000Y-87500000D03*
D62*
X184000000Y-88500000D03*
D63*
X168848528Y-89050000D03*
X185838693Y-109055753D03*
D62*
X160250000Y-100250000D03*
D63*
X188250000Y-82750000D03*
X187499382Y-84604780D03*
D62*
X143000000Y-92000000D03*
D63*
X161037719Y-87250000D03*
D62*
X179838916Y-97053292D03*
X175500000Y-109500000D03*
D63*
X144250000Y-93960000D03*
D62*
X182250000Y-83710659D03*
D63*
X144250000Y-92210000D03*
D62*
X153000000Y-101000000D03*
X172500000Y-109500000D03*
D63*
X146250000Y-85750000D03*
D62*
X174305000Y-87610000D03*
X178000000Y-113500000D03*
D63*
X157750000Y-89000000D03*
D62*
X174700000Y-112500000D03*
X156750000Y-88000000D03*
D63*
X192000000Y-113250000D03*
X183600000Y-113005002D03*
X175505000Y-87810000D03*
D62*
X146705000Y-95010000D03*
X189281447Y-97300000D03*
D63*
X190500000Y-108500000D03*
D62*
X177500000Y-115500000D03*
D63*
X184800000Y-108800000D03*
D62*
X175500000Y-115500000D03*
X186750000Y-96750000D03*
X188750000Y-118750000D03*
D63*
X144250000Y-90460000D03*
D62*
X160500000Y-101250000D03*
X177000000Y-112200000D03*
D63*
X167000000Y-87250000D03*
X162029280Y-88445623D03*
D62*
X175500000Y-113500000D03*
D63*
X143000000Y-79750000D03*
X189200000Y-105700000D03*
X188300000Y-84686950D03*
D62*
X178500000Y-109500000D03*
X181719508Y-98019508D03*
D63*
X146000000Y-84500000D03*
D62*
X185750000Y-96250000D03*
X168750000Y-81250000D03*
X178042985Y-97605731D03*
X152200000Y-100100000D03*
X183750000Y-117000000D03*
%TO.N,+3.3V*%
X167459620Y-88540380D03*
X162705000Y-95500000D03*
X180100000Y-98350000D03*
X183000000Y-98412500D03*
X174825456Y-89213930D03*
X174750000Y-91250000D03*
X177100000Y-97650000D03*
X165686827Y-89813173D03*
X189750000Y-107500000D03*
X179705000Y-84810000D03*
X162705000Y-97000000D03*
%TO.N,NREST*%
X184473212Y-92196028D03*
D63*
X187500000Y-98000000D03*
X187500000Y-101500000D03*
D62*
%TO.N,+5V*%
X154100000Y-90000000D03*
X151150000Y-82950000D03*
%TO.N,/Power/SW_*%
X189284998Y-114105002D03*
X182595000Y-114505000D03*
X171595000Y-116305000D03*
%TO.N,/MCU/BOOT0*%
X194250000Y-111250000D03*
X182000000Y-92846028D03*
%TO.N,CH0*%
X180250000Y-83710659D03*
X192430000Y-106470000D03*
X188750000Y-90084620D03*
X189202272Y-99007728D03*
%TO.N,/Power/HO*%
X166195000Y-118405000D03*
X187834999Y-114274242D03*
%TO.N,/Power/LO*%
X184795000Y-114380002D03*
X174595000Y-111105000D03*
D63*
%TO.N,+6V*%
X150750000Y-99250000D03*
X151705000Y-92610000D03*
D62*
%TO.N,FDCAN_RX*%
X177705000Y-87010000D03*
X159750000Y-85600000D03*
%TO.N,FDCAN_TX*%
X159250000Y-86250000D03*
X177023566Y-87491659D03*
D63*
%TO.N,PWM_SDA*%
X173906263Y-90593737D03*
X177220582Y-94603984D03*
D62*
%TO.N,PWM_OE*%
X168250000Y-84950000D03*
X178505000Y-86610000D03*
%TO.N,GND*%
X182750000Y-117250000D03*
%TD*%
D64*
%TO.N,+3.3V*%
X173280000Y-92280000D02*
X173280000Y-93730000D01*
X172600000Y-91600000D02*
X173280000Y-92280000D01*
X172600000Y-91600000D02*
X174400000Y-91600000D01*
X167503494Y-91600000D02*
X172600000Y-91600000D01*
X174400000Y-91600000D02*
X174750000Y-91250000D01*
X165716667Y-89813173D02*
X167503494Y-91600000D01*
X165686827Y-89813173D02*
X165716667Y-89813173D01*
D65*
%TO.N,NREST*%
X168200000Y-95800000D02*
X168200000Y-95000000D01*
X168950000Y-96550000D02*
X168200000Y-95800000D01*
X170600000Y-96550000D02*
X168950000Y-96550000D01*
%TO.N,SWO*%
X172100000Y-96700000D02*
X170740000Y-95340000D01*
X174107968Y-96700000D02*
X172100000Y-96700000D01*
X170740000Y-95340000D02*
X170740000Y-95000000D01*
X176903984Y-93903984D02*
X174107968Y-96700000D01*
%TO.N,PWM_SDA*%
X177220582Y-94603984D02*
X177220582Y-95460582D01*
X177220582Y-95460582D02*
X177250000Y-95490000D01*
%TO.N,/MCU/SWCLK*%
X172600000Y-96200000D02*
X172010000Y-95610000D01*
X173800000Y-96200000D02*
X172600000Y-96200000D01*
X172010000Y-95610000D02*
X172010000Y-95000000D01*
X174400000Y-95600000D02*
X173800000Y-96200000D01*
X174400000Y-95418020D02*
X174400000Y-95600000D01*
X177965678Y-91852342D02*
X174400000Y-95418020D01*
%TO.N,/MCU/SWDIO*%
X174110912Y-95000000D02*
X173280000Y-95000000D01*
X177612124Y-91498788D02*
X174110912Y-95000000D01*
D64*
%TO.N,+3.3V*%
X193200000Y-111975000D02*
X194975000Y-113750000D01*
X193200000Y-110068629D02*
X193200000Y-111975000D01*
X189750000Y-107500000D02*
X190631371Y-107500000D01*
X190631371Y-107500000D02*
X193200000Y-110068629D01*
D65*
%TO.N,GND*%
X185184999Y-109280003D02*
X185184999Y-109905002D01*
X184800000Y-108895004D02*
X185184999Y-109280003D01*
X184800000Y-108800000D02*
X184800000Y-108895004D01*
D64*
%TO.N,+3.3V*%
X177250000Y-97500000D02*
X177100000Y-97650000D01*
X177250000Y-96510000D02*
X177250000Y-97500000D01*
%TO.N,GND*%
X178042985Y-97605731D02*
X178500000Y-97148716D01*
X178500000Y-97148716D02*
X178500000Y-96760000D01*
D65*
X180160589Y-96731619D02*
X180160589Y-96410589D01*
X179838916Y-97053292D02*
X180160589Y-96731619D01*
%TO.N,TEMP*%
X178366645Y-98383355D02*
X176394452Y-98383355D01*
X179000000Y-97750000D02*
X178366645Y-98383355D01*
X179121882Y-97750000D02*
X179000000Y-97750000D01*
D64*
%TO.N,+3.3V*%
X180469508Y-97459314D02*
X180839411Y-97089411D01*
X180469508Y-97980492D02*
X180469508Y-97459314D01*
X180100000Y-98350000D02*
X180469508Y-97980492D01*
D65*
%TO.N,CSA_OUT*%
X179213738Y-102662500D02*
X179637500Y-102662500D01*
X178151238Y-101600000D02*
X179213738Y-102662500D01*
X176700000Y-101600000D02*
X178151238Y-101600000D01*
X176200000Y-101100000D02*
X176700000Y-101600000D01*
X176200000Y-99400000D02*
X176200000Y-101100000D01*
X176600000Y-99000000D02*
X176200000Y-99400000D01*
X180400000Y-99000000D02*
X176600000Y-99000000D01*
X182449173Y-96370603D02*
X181069508Y-97750268D01*
X182449173Y-94650827D02*
X182449173Y-96370603D01*
X183700000Y-93400000D02*
X182449173Y-94650827D01*
X181069508Y-98288747D02*
X181090380Y-98309620D01*
X181069508Y-97750268D02*
X181069508Y-98288747D01*
X181090380Y-98309620D02*
X180400000Y-99000000D01*
X183700000Y-92050000D02*
X183700000Y-93400000D01*
X184375000Y-91375000D02*
X183700000Y-92050000D01*
D64*
%TO.N,GND*%
X181980492Y-98019508D02*
X181719508Y-98019508D01*
X182410589Y-97589411D02*
X181980492Y-98019508D01*
X189261447Y-97320000D02*
X189281447Y-97300000D01*
X188500000Y-97320000D02*
X189261447Y-97320000D01*
X188894999Y-105394999D02*
X188894999Y-104305002D01*
X189200000Y-105700000D02*
X188894999Y-105394999D01*
D65*
X183799998Y-113205000D02*
X184685000Y-113205000D01*
X183600000Y-113005002D02*
X183799998Y-113205000D01*
X183307500Y-113297502D02*
X182784998Y-113297502D01*
X183600000Y-113005002D02*
X183307500Y-113297502D01*
%TO.N,TEMP*%
X183000000Y-91060660D02*
X185973662Y-88086998D01*
X183000000Y-93000000D02*
X183000000Y-91060660D01*
X182100000Y-93900000D02*
X183000000Y-93000000D01*
%TO.N,/MCU/BOOT0*%
X181921738Y-92846028D02*
X180440551Y-94327215D01*
X182000000Y-92846028D02*
X181921738Y-92846028D01*
%TO.N,NREST*%
X184549582Y-92196028D02*
X185620109Y-93266555D01*
X184473212Y-92196028D02*
X184549582Y-92196028D01*
%TO.N,CSA_OUT*%
X185142766Y-91375000D02*
X184375000Y-91375000D01*
X186327215Y-92559449D02*
X185142766Y-91375000D01*
X184375000Y-91375000D02*
X185250000Y-90500000D01*
%TO.N,TEMP*%
X173400000Y-98700000D02*
X174600000Y-98700000D01*
D64*
%TO.N,+3.3V*%
X174610000Y-99890000D02*
X174600000Y-99890000D01*
X175500000Y-99000000D02*
X174610000Y-99890000D01*
X175500000Y-98055760D02*
X175500000Y-99000000D01*
X174744240Y-97300000D02*
X175500000Y-98055760D01*
D65*
%TO.N,TEMP*%
X173400000Y-100900000D02*
X173400000Y-98700000D01*
X172900000Y-101400000D02*
X173400000Y-100900000D01*
X172880000Y-101380000D02*
X172900000Y-101400000D01*
X172200000Y-101380000D02*
X172880000Y-101380000D01*
X171742500Y-101837500D02*
X172200000Y-101380000D01*
X170650000Y-101837500D02*
X171742500Y-101837500D01*
D64*
%TO.N,GND*%
X172200000Y-99578000D02*
X172170000Y-99548000D01*
X172200000Y-100420000D02*
X172200000Y-99578000D01*
X167200000Y-100420000D02*
X167200000Y-99500000D01*
X169700000Y-99962500D02*
X169700000Y-98500000D01*
%TO.N,+5V*%
X168292500Y-101380000D02*
X168750000Y-101837500D01*
X167200000Y-101380000D02*
X168292500Y-101380000D01*
X164950000Y-100750000D02*
X165580000Y-101380000D01*
X165580000Y-101380000D02*
X167200000Y-101380000D01*
%TO.N,+3.3V*%
X177237880Y-96522120D02*
X177250000Y-96510000D01*
X175522120Y-96522120D02*
X177237880Y-96522120D01*
X174744240Y-97300000D02*
X175522120Y-96522120D01*
X167900000Y-97300000D02*
X174744240Y-97300000D01*
X162650000Y-92050000D02*
X167900000Y-97300000D01*
%TO.N,Net-(CC3-Pad2)*%
X184500000Y-104310001D02*
X184504999Y-104305002D01*
X184500000Y-105390000D02*
X184500000Y-104310001D01*
%TO.N,GND*%
X180389338Y-101712500D02*
X180888419Y-102211581D01*
X179637500Y-101712500D02*
X180389338Y-101712500D01*
X173610000Y-103010000D02*
X173600000Y-103000000D01*
X174600000Y-103010000D02*
X173610000Y-103010000D01*
X174610000Y-103000000D02*
X174600000Y-103010000D01*
X175800000Y-103000000D02*
X174610000Y-103000000D01*
%TO.N,+2.8V*%
X176782500Y-102662500D02*
X177362500Y-102662500D01*
X176160000Y-102040000D02*
X176782500Y-102662500D01*
X175800000Y-102040000D02*
X176160000Y-102040000D01*
X175750000Y-101990000D02*
X175800000Y-102040000D01*
X174600000Y-101990000D02*
X175750000Y-101990000D01*
X174600000Y-100910000D02*
X174600000Y-101990000D01*
%TO.N,+6V*%
X180500000Y-100762500D02*
X182500000Y-102762500D01*
X179637500Y-100762500D02*
X180500000Y-100762500D01*
X181487500Y-99800000D02*
X181500000Y-99787500D01*
X178325000Y-99800000D02*
X181487500Y-99800000D01*
X177362500Y-100762500D02*
X178325000Y-99800000D01*
X182600000Y-104829999D02*
X182600000Y-104655000D01*
X184180001Y-106410000D02*
X182600000Y-104829999D01*
X184500000Y-106410000D02*
X184180001Y-106410000D01*
X184200000Y-102762500D02*
X182500000Y-102762500D01*
X184772500Y-102190000D02*
X184200000Y-102762500D01*
X186250000Y-102190000D02*
X184772500Y-102190000D01*
D66*
%TO.N,/Power/FB_*%
X184934999Y-107834999D02*
X184934999Y-107185001D01*
X185400000Y-108300000D02*
X184934999Y-107834999D01*
X184934999Y-107185001D02*
X185600000Y-106520000D01*
X186002179Y-108300000D02*
X185400000Y-108300000D01*
X186684999Y-108982820D02*
X186002179Y-108300000D01*
X186684999Y-109905002D02*
X186684999Y-108982820D01*
D64*
X185600000Y-104440003D02*
X185600000Y-106410001D01*
X185464999Y-104305002D02*
X185600000Y-104440003D01*
D65*
%TO.N,/Power/LO*%
X170105000Y-111105000D02*
X167600000Y-108600000D01*
X174595000Y-111105000D02*
X170105000Y-111105000D01*
X174585000Y-111105000D02*
X173300000Y-112390000D01*
X174595000Y-111105000D02*
X174585000Y-111105000D01*
%TO.N,/Power/HO*%
X166500000Y-118100000D02*
X167760000Y-118100000D01*
X166195000Y-118405000D02*
X166500000Y-118100000D01*
D64*
%TO.N,GND*%
X186160589Y-95339411D02*
X186160589Y-95839411D01*
D65*
X182750000Y-87068020D02*
X182750000Y-87250000D01*
D64*
X160350000Y-98350000D02*
X160350000Y-100150000D01*
X147955000Y-94610000D02*
X147105000Y-94610000D01*
X188230000Y-82920000D02*
X188230000Y-83750000D01*
X160350000Y-100150000D02*
X160250000Y-100250000D01*
D65*
X176238822Y-87810000D02*
X176589411Y-88160589D01*
D64*
X157975000Y-87500000D02*
X157975000Y-88112500D01*
X188134999Y-106780001D02*
X188134999Y-105615001D01*
X157975000Y-87500000D02*
X157250000Y-87500000D01*
D65*
X176928822Y-88500000D02*
X176589411Y-88160589D01*
D64*
X154945000Y-84885000D02*
X155100000Y-84730000D01*
D65*
X170362500Y-81075000D02*
X168925000Y-81075000D01*
D64*
X169023528Y-88875000D02*
X170362500Y-88875000D01*
D65*
X184146446Y-88500000D02*
X184000000Y-88500000D01*
D64*
X141950000Y-90500000D02*
X141950000Y-90950000D01*
X145240000Y-93960000D02*
X144250000Y-93960000D01*
X160550000Y-101200000D02*
X160500000Y-101250000D01*
X153005000Y-99295000D02*
X152200000Y-100100000D01*
X153005000Y-98360000D02*
X153005000Y-99295000D01*
X141850000Y-78350000D02*
X141850000Y-78600000D01*
D65*
X186184997Y-109905002D02*
X186184997Y-109402057D01*
D64*
X154200000Y-101200000D02*
X153200000Y-101200000D01*
X186160589Y-95839411D02*
X185750000Y-96250000D01*
X162103657Y-88520000D02*
X162029280Y-88445623D01*
D65*
X168925000Y-81075000D02*
X168750000Y-81250000D01*
D64*
X152975000Y-84885000D02*
X154945000Y-84885000D01*
X188089411Y-85660589D02*
X188089411Y-84897539D01*
X168848528Y-89050000D02*
X169023528Y-88875000D01*
X148025000Y-86155000D02*
X146655000Y-86155000D01*
D65*
X185266555Y-87379891D02*
X184146446Y-88500000D01*
X183339411Y-83910589D02*
X183139481Y-83710659D01*
D64*
X186980000Y-82750000D02*
X188250000Y-82750000D01*
X157250000Y-87500000D02*
X156750000Y-88000000D01*
X141950000Y-90950000D02*
X143000000Y-92000000D01*
X146000000Y-83460000D02*
X146000000Y-84500000D01*
X186025000Y-98000000D02*
X186025000Y-97475000D01*
X190644999Y-108644999D02*
X190500000Y-108500000D01*
X170362500Y-87575000D02*
X168825000Y-87575000D01*
X163000000Y-88520000D02*
X162103657Y-88520000D01*
X187193573Y-84910589D02*
X187499382Y-84604780D01*
X190250000Y-118750000D02*
X188750000Y-118750000D01*
X147105000Y-94610000D02*
X146705000Y-95010000D01*
D65*
X181147658Y-95034322D02*
X180160589Y-96021391D01*
X177318020Y-88500000D02*
X176928822Y-88500000D01*
D64*
X146655000Y-86155000D02*
X146250000Y-85750000D01*
X174305000Y-86519999D02*
X174305000Y-87610000D01*
X190644999Y-109555001D02*
X190644999Y-108644999D01*
X188089411Y-84897539D02*
X188300000Y-84686950D01*
X159012500Y-89500000D02*
X158250000Y-89500000D01*
X158250000Y-89500000D02*
X157750000Y-89000000D01*
X192000000Y-112210000D02*
X192000000Y-113250000D01*
X141850000Y-78600000D02*
X143000000Y-79750000D01*
D65*
X186184997Y-109402057D02*
X185838693Y-109055753D01*
D64*
X167000000Y-87250000D02*
X166675000Y-86925000D01*
D65*
X180160589Y-96021391D02*
X180160589Y-96410589D01*
X183852342Y-85965678D02*
X182750000Y-87068020D01*
D64*
X186025000Y-97475000D02*
X186750000Y-96750000D01*
X145240000Y-90460000D02*
X144250000Y-90460000D01*
X161700000Y-101200000D02*
X160550000Y-101200000D01*
D65*
X183139481Y-83710659D02*
X182250000Y-83710659D01*
D64*
X166675000Y-86925000D02*
X164637500Y-86925000D01*
X188250000Y-82900000D02*
X188230000Y-82920000D01*
D65*
X175505000Y-87810000D02*
X176238822Y-87810000D01*
D64*
X153200000Y-101200000D02*
X153000000Y-101000000D01*
X161037719Y-87250000D02*
X161790000Y-87250000D01*
X155100000Y-84730000D02*
X156230000Y-84730000D01*
X188250000Y-82750000D02*
X188250000Y-82900000D01*
X188134999Y-105615001D02*
X188250000Y-105500000D01*
X157975000Y-88112500D02*
X159012500Y-89150000D01*
X156230000Y-84730000D02*
X156250000Y-84750000D01*
X145240000Y-92210000D02*
X144250000Y-92210000D01*
X159012500Y-89150000D02*
X159012500Y-89500000D01*
D65*
X177965678Y-89147658D02*
X177318020Y-88500000D01*
D64*
X168825000Y-87575000D02*
X168750000Y-87500000D01*
X186839411Y-84910589D02*
X187193573Y-84910589D01*
D65*
%TO.N,+3.3V*%
X183498788Y-85612124D02*
X183498788Y-85427610D01*
X182574391Y-86324391D02*
X181750000Y-87148781D01*
D64*
X179705000Y-84810000D02*
X180054341Y-84460659D01*
D65*
X184094670Y-87844670D02*
X184913002Y-87026338D01*
X170362500Y-88225000D02*
X167775000Y-88225000D01*
D64*
X183000000Y-98412500D02*
X184062500Y-98412500D01*
X161037500Y-89625000D02*
X162650000Y-89625000D01*
D65*
X183441386Y-84808614D02*
X184443153Y-83806847D01*
D64*
X150502500Y-88000000D02*
X151250000Y-88000000D01*
X174750000Y-91250000D02*
X174759999Y-91259999D01*
X162650000Y-92050000D02*
X162650000Y-89625000D01*
D65*
X182574391Y-86324391D02*
X182574391Y-85535050D01*
X187318070Y-86431930D02*
X187410589Y-86339411D01*
D64*
X164637500Y-89525000D02*
X165398654Y-89525000D01*
D65*
X170362500Y-86925000D02*
X169164950Y-86925000D01*
X181750000Y-87750000D02*
X181900000Y-87900000D01*
X182574391Y-85535050D02*
X181500000Y-84460659D01*
D64*
X162750000Y-89525000D02*
X164637500Y-89525000D01*
D65*
X184913002Y-87026338D02*
X185507408Y-86431930D01*
D64*
X184886306Y-82750000D02*
X184443153Y-83193153D01*
X148025000Y-82345000D02*
X149095000Y-82345000D01*
D65*
X182879792Y-84808614D02*
X183441386Y-84808614D01*
X181750000Y-87148781D02*
X181750000Y-87750000D01*
X169164950Y-86925000D02*
X169039950Y-86800000D01*
X183498788Y-85612124D02*
X183286657Y-85612124D01*
D64*
X183308614Y-97129792D02*
X183089411Y-96910589D01*
D65*
X167775000Y-88225000D02*
X167459620Y-88540380D01*
D64*
X159525000Y-87500000D02*
X159525000Y-88112500D01*
X154500000Y-89250000D02*
X156500000Y-89250000D01*
X180054341Y-84460659D02*
X181500000Y-84460659D01*
X182531837Y-84460659D02*
X182660589Y-84589411D01*
D65*
X181900000Y-87900000D02*
X183019239Y-87900000D01*
D64*
X175199975Y-88839411D02*
X175910589Y-88839411D01*
X149537500Y-88965000D02*
X150502500Y-88000000D01*
D65*
X181501212Y-96427610D02*
X180839411Y-97089411D01*
D64*
X183308614Y-98103886D02*
X183308614Y-97129792D01*
D65*
X183019239Y-87900000D02*
X183074569Y-87844670D01*
X183498788Y-96501212D02*
X183089411Y-96910589D01*
D64*
X159300000Y-92050000D02*
X162650000Y-92050000D01*
D65*
X176572390Y-89501212D02*
X175910589Y-88839411D01*
D64*
X156500000Y-89250000D02*
X159300000Y-92050000D01*
D65*
X182660589Y-84589411D02*
X182879792Y-84808614D01*
D64*
X184062500Y-98412500D02*
X184475000Y-98000000D01*
D65*
X183286657Y-85612124D02*
X182574391Y-86324391D01*
X168460050Y-86800000D02*
X167775000Y-87485050D01*
D64*
X146155000Y-82345000D02*
X146000000Y-82500000D01*
X174825456Y-89213930D02*
X175199975Y-88839411D01*
D65*
X181501212Y-95387876D02*
X181501212Y-96427610D01*
D64*
X151250000Y-88000000D02*
X153250000Y-88000000D01*
D65*
X167775000Y-87485050D02*
X167775000Y-88225000D01*
X177612124Y-89501212D02*
X176572390Y-89501212D01*
D64*
X151250000Y-84500000D02*
X151250000Y-88000000D01*
X165398654Y-89525000D02*
X165686827Y-89813173D01*
X181500000Y-84460659D02*
X182531837Y-84460659D01*
X149095000Y-82345000D02*
X151250000Y-84500000D01*
X183000000Y-98412500D02*
X183308614Y-98103886D01*
D65*
X183498788Y-95387876D02*
X183498788Y-96501212D01*
X184443153Y-83806847D02*
X184443153Y-83193153D01*
D64*
X186020000Y-82750000D02*
X184886306Y-82750000D01*
X162650000Y-89625000D02*
X162750000Y-89525000D01*
X148025000Y-82345000D02*
X146155000Y-82345000D01*
X162705000Y-92060000D02*
X162705000Y-95500000D01*
X174759999Y-91259999D02*
X176000000Y-91259999D01*
D65*
X169039950Y-86800000D02*
X168460050Y-86800000D01*
X185507408Y-86431930D02*
X187318070Y-86431930D01*
X183074569Y-87844670D02*
X184094670Y-87844670D01*
X183498788Y-85427610D02*
X182660589Y-84589411D01*
D64*
X159525000Y-88112500D02*
X161037500Y-89625000D01*
X162705000Y-98360000D02*
X162705000Y-97000000D01*
X153250000Y-88000000D02*
X154500000Y-89250000D01*
%TO.N,+3.3VA*%
X186113694Y-83750000D02*
X185556847Y-84306847D01*
X185556847Y-84306847D02*
X185556847Y-84985669D01*
D65*
X184559449Y-86672785D02*
X185642823Y-85589411D01*
D64*
X187270000Y-83750000D02*
X186113694Y-83750000D01*
X185556847Y-84985669D02*
X186160589Y-85589411D01*
D65*
X185642823Y-85589411D02*
X186160589Y-85589411D01*
%TO.N,NREST*%
X186839411Y-94485857D02*
X185620109Y-93266555D01*
X186839411Y-94660589D02*
X186839411Y-94485857D01*
X187500000Y-95321178D02*
X186839411Y-94660589D01*
X188000000Y-103000000D02*
X187500000Y-102500000D01*
X188000000Y-103000000D02*
X189250000Y-103000000D01*
X187500000Y-98000000D02*
X187500000Y-95321178D01*
X190000000Y-103750000D02*
X189250000Y-103000000D01*
X190000000Y-106000000D02*
X190000000Y-103750000D01*
%TO.N,/MCU/SWDIO*%
X173415673Y-94874327D02*
X173270000Y-95020000D01*
%TO.N,NREST*%
X187500000Y-102500000D02*
X187500000Y-101500000D01*
X193000000Y-109000000D02*
X190000000Y-106000000D01*
X194975000Y-109000000D02*
X193000000Y-109000000D01*
%TO.N,/PWM Chip/EXTCLK*%
X164637500Y-87575000D02*
X163575000Y-87575000D01*
X163250000Y-87250000D02*
X162750000Y-87250000D01*
X163575000Y-87575000D02*
X163250000Y-87250000D01*
D64*
%TO.N,+5V*%
X155060000Y-92060000D02*
X153900000Y-90900000D01*
X150802500Y-89500000D02*
X149492500Y-90810000D01*
X151815000Y-83615000D02*
X152975000Y-83615000D01*
X154100000Y-90700000D02*
X154100000Y-90000000D01*
X147480000Y-90990000D02*
X146260000Y-92210000D01*
X152500000Y-89500000D02*
X150802500Y-89500000D01*
X152975000Y-83615000D02*
X154945000Y-83615000D01*
X147972500Y-90990000D02*
X147480000Y-90990000D01*
X151150000Y-82950000D02*
X151815000Y-83615000D01*
X155305000Y-92060000D02*
X155060000Y-92060000D01*
X153900000Y-90900000D02*
X152500000Y-89500000D01*
X154945000Y-83615000D02*
X155100000Y-83770000D01*
X153900000Y-90900000D02*
X154100000Y-90700000D01*
D65*
%TO.N,+P_BATT*%
X188585000Y-112305002D02*
X190060000Y-112305002D01*
X190060000Y-112305002D02*
X190534999Y-112780001D01*
D64*
%TO.N,Net-(CC1-Pad2)*%
X186684999Y-106525002D02*
X186684999Y-105315002D01*
D65*
%TO.N,/Power/SS_TRK*%
X188134999Y-108955001D02*
X188134999Y-108330001D01*
X187684999Y-109905002D02*
X187684999Y-109405001D01*
X187684999Y-109405001D02*
X188134999Y-108955001D01*
%TO.N,/Power/BST*%
X187795002Y-115405002D02*
X188209999Y-115405002D01*
X187185000Y-113205000D02*
X187185000Y-114795000D01*
X187185000Y-114795000D02*
X187795002Y-115405002D01*
%TO.N,/Power/SW_*%
X189759999Y-114580003D02*
X189759999Y-115405002D01*
D64*
X181084998Y-114517502D02*
X182582498Y-114517502D01*
D65*
X188584998Y-114105002D02*
X189284998Y-114105002D01*
D64*
X182582498Y-114517502D02*
X182595000Y-114505000D01*
D65*
X189284998Y-114105002D02*
X189759999Y-114580003D01*
X188185001Y-113704999D02*
X188184998Y-113705002D01*
X188184998Y-113705002D02*
X188584998Y-114105002D01*
X188185001Y-113205000D02*
X188185001Y-113704999D01*
D64*
%TO.N,/Power/ILIM*%
X181084998Y-112692502D02*
X181897498Y-112692502D01*
D65*
X182817498Y-112305002D02*
X182784998Y-112337502D01*
X184284998Y-112305002D02*
X182817498Y-112305002D01*
D64*
X181897498Y-112692502D02*
X182252498Y-112337502D01*
X182252498Y-112337502D02*
X182784998Y-112337502D01*
%TO.N,/Power/comp*%
X185484999Y-107485002D02*
X186684999Y-107485002D01*
D65*
X187184997Y-108705001D02*
X186684999Y-108205003D01*
X187184997Y-109905002D02*
X187184997Y-108705001D01*
X186684999Y-108205003D02*
X186684999Y-107485002D01*
D64*
%TO.N,/Power/FB_*%
X185474999Y-104295002D02*
X185464999Y-104305002D01*
X186250000Y-104295002D02*
X185474999Y-104295002D01*
X186684999Y-104295002D02*
X186250000Y-104295002D01*
X187864999Y-104295002D02*
X187874999Y-104305002D01*
X186250000Y-103210000D02*
X186250000Y-104295002D01*
X186684999Y-104295002D02*
X187864999Y-104295002D01*
%TO.N,Net-(U4-VCC)*%
X183469998Y-115130002D02*
X186284999Y-115130002D01*
D65*
X185685001Y-113704999D02*
X185684998Y-113705002D01*
X185684998Y-113705002D02*
X185684998Y-113905002D01*
D64*
X180394998Y-110805002D02*
X179595000Y-111605000D01*
X181774998Y-110805002D02*
X180394998Y-110805002D01*
D65*
X185684998Y-113905002D02*
X186284999Y-114505003D01*
D64*
X179595000Y-111605000D02*
X179595000Y-115205000D01*
X179595000Y-115205000D02*
X180195000Y-115805000D01*
X180195000Y-115805000D02*
X182795000Y-115805000D01*
D65*
X186284999Y-114505003D02*
X186284999Y-115130002D01*
X185685001Y-113205000D02*
X185685001Y-113704999D01*
D64*
X182795000Y-115805000D02*
X183469998Y-115130002D01*
D65*
%TO.N,/Power/EN*%
X189609997Y-111130001D02*
X190534999Y-111130001D01*
X188585000Y-110805000D02*
X188585002Y-110805002D01*
D64*
X192000000Y-111190000D02*
X190594998Y-111190000D01*
D65*
X188585002Y-110805002D02*
X189284998Y-110805002D01*
X189284998Y-110805002D02*
X189609997Y-111130001D01*
%TO.N,/MCU/BOOT0*%
X180440551Y-94327215D02*
X179027766Y-95740000D01*
X179027766Y-95740000D02*
X178500000Y-95740000D01*
X195015000Y-111250000D02*
X197515000Y-113750000D01*
X194250000Y-111250000D02*
X195015000Y-111250000D01*
%TO.N,SWO*%
X176903984Y-93903984D02*
X177328250Y-93903984D01*
X177328250Y-93903984D02*
X178672785Y-92559449D01*
%TO.N,/MCU/Debug_LED1*%
X187034322Y-91852342D02*
X188494480Y-93312500D01*
X188494480Y-93312500D02*
X188500000Y-93312500D01*
%TO.N,/MCU/Debug_LED2*%
X180440551Y-86672785D02*
X179377766Y-85610000D01*
X179377766Y-85610000D02*
X177492500Y-85610000D01*
%TO.N,CH0*%
X189931447Y-94025659D02*
X189931447Y-97931447D01*
X192420000Y-106460000D02*
X192420000Y-104300000D01*
X189202272Y-98660622D02*
X189202272Y-99007728D01*
X171682106Y-86275000D02*
X173353553Y-84603553D01*
X173457106Y-84500000D02*
X178767766Y-84500000D01*
X179557107Y-83710659D02*
X180250000Y-83710659D01*
X178767766Y-84500000D02*
X179557107Y-83710659D01*
X189500000Y-90834620D02*
X189500000Y-93594212D01*
X170362500Y-86275000D02*
X171682106Y-86275000D01*
X192430000Y-106470000D02*
X192420000Y-106460000D01*
X189931447Y-97931447D02*
X189202272Y-98660622D01*
X173353553Y-84603553D02*
X173457106Y-84500000D01*
X189500000Y-93594212D02*
X189931447Y-94025659D01*
X188750000Y-90084620D02*
X189500000Y-90834620D01*
%TO.N,CH1*%
X190000000Y-93387106D02*
X190431447Y-93818553D01*
X179500000Y-83060659D02*
X183189341Y-83060659D01*
X184250000Y-82000000D02*
X188500000Y-82000000D01*
X190431447Y-97711447D02*
X192420000Y-99700000D01*
X189000000Y-85000000D02*
X189500000Y-85500000D01*
X173250000Y-84000000D02*
X178560659Y-84000000D01*
X171625000Y-85625000D02*
X173250000Y-84000000D01*
X189000000Y-82500000D02*
X189000000Y-85000000D01*
X170362500Y-85625000D02*
X171625000Y-85625000D01*
X189500000Y-89250000D02*
X190000000Y-89750000D01*
X183189341Y-83060659D02*
X184250000Y-82000000D01*
X190431447Y-93818553D02*
X190431447Y-97711447D01*
X178560659Y-84000000D02*
X179500000Y-83060659D01*
X189500000Y-85500000D02*
X189500000Y-89250000D01*
X190000000Y-89750000D02*
X190000000Y-93387106D01*
X188500000Y-82000000D02*
X189000000Y-82500000D01*
%TO.N,CH2*%
X178060659Y-83500000D02*
X179000000Y-82560659D01*
X190500000Y-89500000D02*
X190500000Y-93180000D01*
X188750000Y-81500000D02*
X189500000Y-82250000D01*
X182939341Y-82560659D02*
X184000000Y-81500000D01*
X184000000Y-81500000D02*
X188750000Y-81500000D01*
X189500000Y-84750000D02*
X190000000Y-85250000D01*
X179000000Y-82560659D02*
X182939341Y-82560659D01*
X190000000Y-85250000D02*
X190000000Y-89000000D01*
X190500000Y-93180000D02*
X192420000Y-95100000D01*
X172914212Y-83500000D02*
X178060659Y-83500000D01*
X171439212Y-84975000D02*
X172914212Y-83500000D01*
X189500000Y-82250000D02*
X189500000Y-84750000D01*
X190000000Y-89000000D02*
X190500000Y-89500000D01*
X170362500Y-84975000D02*
X171439212Y-84975000D01*
%TO.N,CH3*%
X190500000Y-84687106D02*
X190500000Y-88580000D01*
X190000000Y-84187106D02*
X190500000Y-84687106D01*
X178500000Y-82060659D02*
X182439341Y-82060659D01*
X183500000Y-81000000D02*
X189000000Y-81000000D01*
X170362500Y-84325000D02*
X171382106Y-84325000D01*
X182439341Y-82060659D02*
X183500000Y-81000000D01*
X172707106Y-83000000D02*
X177560659Y-83000000D01*
X189000000Y-81000000D02*
X190000000Y-82000000D01*
X190000000Y-82000000D02*
X190000000Y-84187106D01*
X177560659Y-83000000D02*
X178500000Y-82060659D01*
X171382106Y-84325000D02*
X172707106Y-83000000D01*
X190500000Y-88580000D02*
X192420000Y-90500000D01*
%TO.N,CH4*%
X171325000Y-83675000D02*
X172500000Y-82500000D01*
X183000000Y-80500000D02*
X189250000Y-80500000D01*
X170362500Y-83675000D02*
X171325000Y-83675000D01*
X181939341Y-81560659D02*
X183000000Y-80500000D01*
X189250000Y-80500000D02*
X190500000Y-81750000D01*
X190500000Y-81750000D02*
X190500000Y-83980000D01*
X172500000Y-82500000D02*
X177060659Y-82500000D01*
X178000000Y-81560659D02*
X181939341Y-81560659D01*
X177060659Y-82500000D02*
X178000000Y-81560659D01*
X190500000Y-83980000D02*
X192420000Y-85900000D01*
%TO.N,CH5*%
X172250000Y-82000000D02*
X176621318Y-82000000D01*
X189500000Y-80000000D02*
X190800000Y-81300000D01*
X177560659Y-81060659D02*
X181533553Y-81060659D01*
X182594212Y-80000000D02*
X189500000Y-80000000D01*
X170362500Y-83025000D02*
X171225000Y-83025000D01*
X181533553Y-81060659D02*
X182594212Y-80000000D01*
X171225000Y-83025000D02*
X172250000Y-82000000D01*
X190800000Y-81300000D02*
X192420000Y-81300000D01*
X176621318Y-82000000D02*
X177560659Y-81060659D01*
%TO.N,CH6*%
X171146274Y-82375000D02*
X172021274Y-81500000D01*
X186280000Y-79500000D02*
X188200000Y-77580000D01*
X170362500Y-82375000D02*
X171146274Y-82375000D01*
X182387106Y-79500000D02*
X186280000Y-79500000D01*
X176414212Y-81500000D02*
X177414212Y-80500000D01*
X181387106Y-80500000D02*
X182387106Y-79500000D01*
X172021274Y-81500000D02*
X176414212Y-81500000D01*
X177414212Y-80500000D02*
X181387106Y-80500000D01*
%TO.N,CH7*%
X171089168Y-81725000D02*
X171814168Y-81000000D01*
X176207106Y-81000000D02*
X177207106Y-80000000D01*
X171814168Y-81000000D02*
X176207106Y-81000000D01*
X177207106Y-80000000D02*
X181180000Y-80000000D01*
X170362500Y-81725000D02*
X171089168Y-81725000D01*
X181180000Y-80000000D02*
X183600000Y-77580000D01*
%TO.N,CH8*%
X166175000Y-81075000D02*
X166750000Y-80500000D01*
X164637500Y-81075000D02*
X166175000Y-81075000D01*
X176000000Y-80500000D02*
X178900000Y-77600000D01*
X166750000Y-80500000D02*
X176000000Y-80500000D01*
%TO.N,CH9*%
X163250000Y-80500000D02*
X164000000Y-79750000D01*
X163475000Y-81725000D02*
X163250000Y-81500000D01*
X163250000Y-81500000D02*
X163250000Y-80500000D01*
X164637500Y-81725000D02*
X163475000Y-81725000D01*
X172150000Y-79750000D02*
X174300000Y-77600000D01*
X164000000Y-79750000D02*
X172150000Y-79750000D01*
%TO.N,CH10*%
X163750000Y-79000000D02*
X168400000Y-79000000D01*
X162500000Y-80250000D02*
X163750000Y-79000000D01*
X162875000Y-82375000D02*
X162500000Y-82000000D01*
X164637500Y-82375000D02*
X162875000Y-82375000D01*
X162500000Y-82000000D02*
X162500000Y-80250000D01*
X168400000Y-79000000D02*
X169700000Y-77700000D01*
%TO.N,CH11*%
X161750000Y-82500000D02*
X161750000Y-79750000D01*
X164637500Y-83025000D02*
X162275000Y-83025000D01*
X163800000Y-77700000D02*
X165100000Y-77700000D01*
X162275000Y-83025000D02*
X161750000Y-82500000D01*
X161750000Y-79750000D02*
X163800000Y-77700000D01*
%TO.N,CH12*%
X160500000Y-82250000D02*
X160500000Y-77700000D01*
X161925000Y-83675000D02*
X160500000Y-82250000D01*
X164637500Y-83675000D02*
X161925000Y-83675000D01*
%TO.N,CH13*%
X161575000Y-84325000D02*
X157500000Y-80250000D01*
X157500000Y-80250000D02*
X156500000Y-80250000D01*
X155900000Y-79650000D02*
X155900000Y-77700000D01*
X164637500Y-84325000D02*
X161575000Y-84325000D01*
X156500000Y-80250000D02*
X155900000Y-79650000D01*
%TO.N,CH14*%
X157250000Y-81000000D02*
X156000000Y-81000000D01*
X152000000Y-80250000D02*
X151300000Y-79550000D01*
X161125000Y-84875000D02*
X157250000Y-81000000D01*
X164637500Y-84975000D02*
X164637500Y-84887500D01*
X155250000Y-80250000D02*
X152000000Y-80250000D01*
X156000000Y-81000000D02*
X155250000Y-80250000D01*
X164625000Y-84875000D02*
X161125000Y-84875000D01*
X151300000Y-79550000D02*
X151300000Y-77700000D01*
X164637500Y-84887500D02*
X164625000Y-84875000D01*
%TO.N,CH15*%
X151500000Y-81000000D02*
X150750000Y-80250000D01*
X164637500Y-85625000D02*
X160875000Y-85625000D01*
X160875000Y-85625000D02*
X157250000Y-82000000D01*
X155750000Y-82000000D02*
X154750000Y-81000000D01*
X157250000Y-82000000D02*
X155750000Y-82000000D01*
X150750000Y-80250000D02*
X149250000Y-80250000D01*
X149250000Y-80250000D02*
X146700000Y-77700000D01*
X154750000Y-81000000D02*
X151500000Y-81000000D01*
%TO.N,/Power/HO*%
X187684999Y-113205000D02*
X187684999Y-114124242D01*
X187684999Y-114124242D02*
X187834999Y-114274242D01*
%TO.N,/Power/LO*%
X185184999Y-113990003D02*
X185184999Y-113205000D01*
X184795000Y-114380002D02*
X185184999Y-113990003D01*
%TO.N,PWM_SCL*%
X176259999Y-90500000D02*
X178151294Y-90500000D01*
X178913639Y-91262345D02*
X178913639Y-91611489D01*
X164637500Y-88225000D02*
X166225000Y-88225000D01*
X166225000Y-88225000D02*
X168250000Y-90250000D01*
X178913639Y-91611489D02*
X178319231Y-92205895D01*
X175990001Y-90250000D02*
X174552476Y-90250000D01*
X171450000Y-89300000D02*
X172750000Y-88000000D01*
X176000000Y-90240001D02*
X175990001Y-90250000D01*
X176000000Y-90240001D02*
X176259999Y-90500000D01*
X174552476Y-90250000D02*
X174175456Y-89872980D01*
X171450000Y-89814168D02*
X171450000Y-89300000D01*
X171014168Y-90250000D02*
X171450000Y-89814168D01*
X173250000Y-88000000D02*
X172750000Y-88000000D01*
X168250000Y-90250000D02*
X171014168Y-90250000D01*
X178151294Y-90500000D02*
X178913639Y-91262345D01*
X174175456Y-88925456D02*
X173250000Y-88000000D01*
X174175456Y-89872980D02*
X174175456Y-88925456D01*
%TO.N,/Power/rt*%
X188184998Y-109905002D02*
X188584998Y-109905002D01*
X188584998Y-109905002D02*
X188934999Y-109555001D01*
X188934999Y-109555001D02*
X189624999Y-109555001D01*
%TO.N,/Power/PGOOD*%
X182795000Y-110805000D02*
X182794998Y-110805002D01*
X184284998Y-110805000D02*
X182795000Y-110805000D01*
D67*
%TO.N,+6V*%
X194960000Y-101850000D02*
X194960000Y-81300000D01*
D64*
X151565000Y-92750000D02*
X149537500Y-92750000D01*
X150750000Y-102000000D02*
X154330000Y-105580000D01*
X158095000Y-105580000D02*
X154330000Y-105580000D01*
X150750000Y-102000000D02*
X150750000Y-99250000D01*
D67*
X190100000Y-101850000D02*
X188037500Y-99787500D01*
X194960000Y-101850000D02*
X190100000Y-101850000D01*
X194960000Y-104300000D02*
X194960000Y-101850000D01*
X188080000Y-75160000D02*
X188200000Y-75040000D01*
X194960000Y-81300000D02*
X194960000Y-78940000D01*
X191060000Y-75040000D02*
X188200000Y-75040000D01*
X188037500Y-99787500D02*
X181500000Y-99787500D01*
D64*
X151705000Y-92610000D02*
X151565000Y-92750000D01*
D67*
X146700000Y-75160000D02*
X188080000Y-75160000D01*
D65*
%TO.N,FDCAN_RX*%
X158350000Y-85600000D02*
X155095000Y-82345000D01*
X177705000Y-87010000D02*
X177705000Y-87472766D01*
X155095000Y-82345000D02*
X152975000Y-82345000D01*
X159750000Y-85600000D02*
X158350000Y-85600000D01*
X177705000Y-87472766D02*
X178672785Y-88440551D01*
%TO.N,FDCAN_TX*%
X153070000Y-86250000D02*
X159250000Y-86250000D01*
X153070000Y-86250000D02*
X152975000Y-86155000D01*
X178319231Y-88794103D02*
X178319231Y-88794105D01*
X177023566Y-87498438D02*
X178319231Y-88794103D01*
X177023566Y-87491659D02*
X177023566Y-87498438D01*
%TO.N,PWM_SDA*%
X179060660Y-95000000D02*
X180086998Y-93973662D01*
X177750000Y-95000000D02*
X179060660Y-95000000D01*
X171500000Y-90750000D02*
X167542894Y-90750000D01*
X167542894Y-90750000D02*
X165667894Y-88875000D01*
X172000000Y-90250000D02*
X171500000Y-90750000D01*
X173562526Y-90250000D02*
X172000000Y-90250000D01*
X173906263Y-90593737D02*
X173562526Y-90250000D01*
X177260000Y-95490000D02*
X177750000Y-95000000D01*
X165667894Y-88875000D02*
X164637500Y-88875000D01*
X177250000Y-95490000D02*
X177260000Y-95490000D01*
%TO.N,CSA_OUT*%
X185250000Y-90500000D02*
X187500000Y-90500000D01*
X188500000Y-89415381D02*
X188500000Y-87500000D01*
X187500000Y-90500000D02*
X187500000Y-90415381D01*
X187500000Y-90415381D02*
X188500000Y-89415381D01*
%TO.N,PWM_OE*%
X178505000Y-86610000D02*
X178963554Y-86610000D01*
X164637500Y-86275000D02*
X166975000Y-86275000D01*
X166975000Y-86275000D02*
X168250000Y-85000000D01*
X178963554Y-86610000D02*
X179733445Y-87379891D01*
X168250000Y-85000000D02*
X168250000Y-84950000D01*
D64*
%TO.N,Net-(D1-K)*%
X147962500Y-92750000D02*
X147470000Y-92750000D01*
X147470000Y-92750000D02*
X146260000Y-93960000D01*
%TO.N,Net-(D5-K)*%
X174414999Y-85610000D02*
X174305000Y-85500001D01*
X175917500Y-85610000D02*
X174414999Y-85610000D01*
%TO.N,Net-(D4-K)*%
X188500000Y-94887500D02*
X188500000Y-96300000D01*
D66*
%TO.N,CAN-*%
X144656800Y-87775000D02*
X144656800Y-88161800D01*
X144425000Y-78706800D02*
X143925000Y-79206800D01*
X139072684Y-87015000D02*
X139930000Y-87015000D01*
X150325000Y-86793200D02*
X149343200Y-87775000D01*
X138225000Y-86167316D02*
X139072684Y-87015000D01*
X139930000Y-87015000D02*
X140705000Y-87790000D01*
X150325000Y-84756800D02*
X150325000Y-86793200D01*
X143896801Y-87015001D02*
X142729999Y-87015001D01*
X149110000Y-84025000D02*
X149593200Y-84025000D01*
X144195627Y-75015000D02*
X144425000Y-75244373D01*
X148700000Y-83615000D02*
X149110000Y-84025000D01*
X144656800Y-87775000D02*
X143896801Y-87015001D01*
X142338412Y-82793388D02*
X140188412Y-82793388D01*
X145305000Y-88810000D02*
X146340000Y-87775000D01*
X143980000Y-75015000D02*
X144195627Y-75015000D01*
X146340000Y-87775000D02*
X149343200Y-87775000D01*
X149593200Y-84025000D02*
X150325000Y-84756800D01*
X140188412Y-82793388D02*
X138225000Y-84756800D01*
X144425000Y-75244373D02*
X144425000Y-78706800D01*
X148025000Y-83615000D02*
X148700000Y-83615000D01*
X140705000Y-87790000D02*
X141955000Y-87790000D01*
X143925000Y-79206800D02*
X143925000Y-81206800D01*
X143205000Y-75790000D02*
X143980000Y-75015000D01*
X141955000Y-75790000D02*
X143205000Y-75790000D01*
X143925000Y-81206800D02*
X142338412Y-82793388D01*
X138225000Y-84756800D02*
X138225000Y-86167316D01*
X144656800Y-88161800D02*
X145305000Y-88810000D01*
X142729999Y-87015001D02*
X141955000Y-87790000D01*
D64*
%TO.N,Net-(D3-K)*%
X147932500Y-89230000D02*
X147490000Y-89230000D01*
X147490000Y-89230000D02*
X146260000Y-90460000D01*
D66*
%TO.N,CAN+*%
X148025000Y-84885000D02*
X148700000Y-84885000D01*
X142524812Y-83243388D02*
X140374812Y-83243388D01*
X139259084Y-86565000D02*
X139930000Y-86565000D01*
X149875000Y-84943200D02*
X149875000Y-86606800D01*
X144875000Y-78893200D02*
X144375000Y-79393200D01*
X141955000Y-73790000D02*
X143205000Y-73790000D01*
X138675000Y-84943200D02*
X138675000Y-85980916D01*
X138675000Y-85980916D02*
X139259084Y-86565000D01*
X149406800Y-84475000D02*
X149875000Y-84943200D01*
X149875000Y-86606800D02*
X149181800Y-87300000D01*
X142729999Y-86564999D02*
X141955000Y-85790000D01*
X147022183Y-87300000D02*
X146287182Y-86564999D01*
X139930000Y-86565000D02*
X140705000Y-85790000D01*
X140705000Y-85790000D02*
X141955000Y-85790000D01*
X149181800Y-87300000D02*
X147022183Y-87300000D01*
X140374812Y-83243388D02*
X138675000Y-84943200D01*
X143980000Y-74565000D02*
X144382027Y-74565000D01*
X143205000Y-73790000D02*
X143980000Y-74565000D01*
X149110000Y-84475000D02*
X149406800Y-84475000D01*
X144375000Y-81393200D02*
X142524812Y-83243388D01*
X144382027Y-74565000D02*
X144875000Y-75057973D01*
X144875000Y-75057973D02*
X144875000Y-78893200D01*
X144375000Y-79393200D02*
X144375000Y-81393200D01*
X146287182Y-86564999D02*
X142729999Y-86564999D01*
X148700000Y-84885000D02*
X149110000Y-84475000D01*
D64*
%TO.N,+P_BATT*%
X186540000Y-118710000D02*
X181300000Y-118710000D01*
X188500000Y-116750000D02*
X186540000Y-118710000D01*
X191000000Y-116250000D02*
X190500000Y-116750000D01*
X191000000Y-114250000D02*
X191000000Y-116250000D01*
X190500000Y-116750000D02*
X188500000Y-116750000D01*
X190534999Y-112780001D02*
X190534999Y-113784999D01*
X190534999Y-113784999D02*
X191000000Y-114250000D01*
%TO.N,+5V*%
X154945000Y-96800000D02*
X152755000Y-94610000D01*
X164950000Y-96900000D02*
X164950000Y-98350000D01*
X155150000Y-98350000D02*
X155150000Y-96800000D01*
X155150000Y-96800000D02*
X154945000Y-96800000D01*
X164950000Y-100750000D02*
X164500000Y-101200000D01*
X164950000Y-98350000D02*
X164950000Y-100750000D01*
X155150000Y-96800000D02*
X155700000Y-96250000D01*
X155305000Y-92060000D02*
X152755000Y-94610000D01*
X164300000Y-96250000D02*
X164950000Y-96900000D01*
X155700000Y-96250000D02*
X164300000Y-96250000D01*
X152755000Y-94610000D02*
X149855000Y-94610000D01*
X164500000Y-101200000D02*
X163600000Y-101200000D01*
D65*
%TO.N,+3.3V*%
X167459620Y-88752514D02*
X167459620Y-88540380D01*
X170137500Y-89750000D02*
X168457106Y-89750000D01*
X170362500Y-89525000D02*
X170137500Y-89750000D01*
X168457106Y-89750000D02*
X167459620Y-88752514D01*
%TD*%
%TA.AperFunction,Conductor*%
%TO.N,GND*%
G36*
X183738039Y-106824685D02*
G01*
X183783794Y-106877489D01*
X183795000Y-106929000D01*
X183795000Y-109881000D01*
X183775315Y-109948039D01*
X183722511Y-109993794D01*
X183671000Y-110005000D01*
X179699999Y-110005000D01*
X178695000Y-111004999D01*
X178695000Y-111005000D01*
X178695000Y-116105000D01*
X179095000Y-116505000D01*
X183795000Y-116505000D01*
X184258681Y-116041319D01*
X184320004Y-116007834D01*
X184346362Y-116005000D01*
X186871000Y-116005000D01*
X186938039Y-116024685D01*
X186983794Y-116077489D01*
X186995000Y-116129000D01*
X186995000Y-117425113D01*
X186975315Y-117492152D01*
X186958681Y-117512794D01*
X186602794Y-117868681D01*
X186541471Y-117902166D01*
X186515113Y-117905000D01*
X182307598Y-117905000D01*
X182240559Y-117885315D01*
X182236237Y-117882408D01*
X182229187Y-117877447D01*
X182129109Y-117826560D01*
X182062078Y-117806877D01*
X182062072Y-117806876D01*
X181976000Y-117794500D01*
X173757032Y-117794500D01*
X173757030Y-117794500D01*
X173712746Y-117797726D01*
X173712733Y-117797728D01*
X173677172Y-117802938D01*
X173658687Y-117806230D01*
X173658677Y-117806233D01*
X173554914Y-117849100D01*
X173499779Y-117884954D01*
X173432846Y-117904998D01*
X173432180Y-117905000D01*
X172819000Y-117905000D01*
X172751961Y-117885315D01*
X172706206Y-117832511D01*
X172695000Y-117781000D01*
X172695000Y-113039493D01*
X172714685Y-112972454D01*
X172767489Y-112926699D01*
X172836647Y-112916755D01*
X172857091Y-112923265D01*
X172857598Y-112921705D01*
X172866872Y-112924718D01*
X172866874Y-112924719D01*
X172883480Y-112927349D01*
X172966507Y-112940500D01*
X172966512Y-112940500D01*
X173633493Y-112940500D01*
X173733121Y-112924720D01*
X173733121Y-112924719D01*
X173733126Y-112924719D01*
X173853220Y-112863528D01*
X173948528Y-112768220D01*
X174009719Y-112648126D01*
X174016167Y-112607415D01*
X174025500Y-112548493D01*
X174025500Y-112352965D01*
X174045185Y-112285926D01*
X174061819Y-112265284D01*
X174285784Y-112041319D01*
X174347107Y-112007834D01*
X174373465Y-112005000D01*
X175195000Y-112005000D01*
X175195000Y-111156285D01*
X175196061Y-111140099D01*
X175200682Y-111104999D01*
X175200682Y-111104998D01*
X175196061Y-111069899D01*
X175195000Y-111053714D01*
X175195000Y-110500000D01*
X174612513Y-110500538D01*
X174596235Y-110499480D01*
X174595003Y-110499318D01*
X174594998Y-110499318D01*
X174593523Y-110499512D01*
X174577464Y-110500571D01*
X170193210Y-110504630D01*
X170126152Y-110485007D01*
X170105414Y-110468311D01*
X169831319Y-110194216D01*
X169797834Y-110132893D01*
X169795000Y-110106535D01*
X169795000Y-106929000D01*
X169814685Y-106861961D01*
X169867489Y-106816206D01*
X169919000Y-106805000D01*
X183671000Y-106805000D01*
X183738039Y-106824685D01*
G37*
%TD.AperFunction*%
%TD*%
%TA.AperFunction,Conductor*%
%TO.N,+6V*%
G36*
X195531018Y-70513410D02*
G01*
X195531052Y-70513156D01*
X195539106Y-70514216D01*
X195539108Y-70514217D01*
X195601900Y-70514217D01*
X195608084Y-70514371D01*
X195937089Y-70530798D01*
X195949381Y-70532029D01*
X196272059Y-70580687D01*
X196284151Y-70583133D01*
X196600383Y-70663694D01*
X196612175Y-70667333D01*
X196918806Y-70778994D01*
X196930178Y-70783790D01*
X197224153Y-70925435D01*
X197235001Y-70931346D01*
X197417738Y-71043076D01*
X197513398Y-71101566D01*
X197523615Y-71108536D01*
X197783662Y-71305636D01*
X197793133Y-71313588D01*
X198032260Y-71535617D01*
X198040881Y-71544462D01*
X198095561Y-71606470D01*
X198256702Y-71789209D01*
X198264409Y-71798881D01*
X198454774Y-72063905D01*
X198461479Y-72074297D01*
X198624500Y-72356969D01*
X198630130Y-72367964D01*
X198764181Y-72665468D01*
X198768689Y-72676973D01*
X198872440Y-72986358D01*
X198875782Y-72998265D01*
X198948194Y-73316426D01*
X198950334Y-73328607D01*
X198990694Y-73652404D01*
X198991610Y-73664737D01*
X198999464Y-73988842D01*
X198999500Y-73991846D01*
X198999500Y-74001979D01*
X198999459Y-74005162D01*
X198997973Y-74063003D01*
X198998814Y-74070957D01*
X198999500Y-74083985D01*
X198999500Y-79176000D01*
X198979815Y-79243039D01*
X198927011Y-79288794D01*
X198875500Y-79300000D01*
X190624000Y-79300000D01*
X190556961Y-79280315D01*
X190511206Y-79227511D01*
X190500000Y-79176000D01*
X190500000Y-73783723D01*
X194000500Y-73783723D01*
X194000500Y-74036276D01*
X194040009Y-74285722D01*
X194040009Y-74285725D01*
X194118050Y-74525911D01*
X194118051Y-74525914D01*
X194232709Y-74750941D01*
X194381156Y-74955261D01*
X194559739Y-75133844D01*
X194764059Y-75282291D01*
X194874428Y-75338526D01*
X194989085Y-75396948D01*
X194989088Y-75396949D01*
X195213123Y-75469741D01*
X195229279Y-75474991D01*
X195478723Y-75514500D01*
X195478724Y-75514500D01*
X195731276Y-75514500D01*
X195731277Y-75514500D01*
X195980721Y-75474991D01*
X195980724Y-75474990D01*
X195980725Y-75474990D01*
X196220911Y-75396949D01*
X196220914Y-75396948D01*
X196445941Y-75282291D01*
X196650261Y-75133844D01*
X196828844Y-74955261D01*
X196977291Y-74750941D01*
X197091948Y-74525914D01*
X197169991Y-74285721D01*
X197209500Y-74036277D01*
X197209500Y-73783723D01*
X197169991Y-73534279D01*
X197169990Y-73534275D01*
X197169990Y-73534274D01*
X197091949Y-73294088D01*
X197091948Y-73294085D01*
X196977290Y-73069058D01*
X196917205Y-72986358D01*
X196828844Y-72864739D01*
X196650261Y-72686156D01*
X196445941Y-72537709D01*
X196220914Y-72423051D01*
X196220911Y-72423050D01*
X195980723Y-72345009D01*
X195814425Y-72318669D01*
X195731277Y-72305500D01*
X195478723Y-72305500D01*
X195395575Y-72318669D01*
X195229277Y-72345009D01*
X195229274Y-72345009D01*
X194989088Y-72423050D01*
X194989085Y-72423051D01*
X194764058Y-72537709D01*
X194559736Y-72686158D01*
X194381158Y-72864736D01*
X194232709Y-73069058D01*
X194118051Y-73294085D01*
X194118050Y-73294088D01*
X194040009Y-73534274D01*
X194040009Y-73534277D01*
X194000500Y-73783723D01*
X190500000Y-73783723D01*
X190500000Y-70634500D01*
X190519685Y-70567461D01*
X190572489Y-70521706D01*
X190624000Y-70510500D01*
X195508912Y-70510500D01*
X195531018Y-70513410D01*
G37*
%TD.AperFunction*%
%TD*%
%TA.AperFunction,Conductor*%
%TO.N,/Power/SW_*%
G36*
X171938039Y-111924685D02*
G01*
X171983794Y-111977489D01*
X171995000Y-112029000D01*
X171995000Y-118631000D01*
X171975315Y-118698039D01*
X171922511Y-118743794D01*
X171871000Y-118755000D01*
X168569000Y-118755000D01*
X168501961Y-118735315D01*
X168456206Y-118682511D01*
X168445000Y-118631000D01*
X168445000Y-116605000D01*
X166795000Y-116605000D01*
X164052643Y-118140719D01*
X163073230Y-118689191D01*
X163012643Y-118705000D01*
X154019000Y-118705000D01*
X153951961Y-118685315D01*
X153906206Y-118632511D01*
X153895000Y-118581000D01*
X153895000Y-113763845D01*
X153914685Y-113696806D01*
X153940582Y-113667789D01*
X156065771Y-111932941D01*
X156130152Y-111905797D01*
X156144186Y-111905000D01*
X171871000Y-111905000D01*
X171938039Y-111924685D01*
G37*
%TD.AperFunction*%
%TD*%
%TA.AperFunction,Conductor*%
%TO.N,+P_BATT*%
G36*
X149843039Y-97769685D02*
G01*
X149888794Y-97822489D01*
X149900000Y-97874000D01*
X149900000Y-113500000D01*
X153900000Y-119500000D01*
X172499999Y-119500000D01*
X172500000Y-119500000D01*
X173662884Y-118143302D01*
X173721459Y-118105212D01*
X173757032Y-118100000D01*
X181976000Y-118100000D01*
X182043039Y-118119685D01*
X182088794Y-118172489D01*
X182100000Y-118224000D01*
X182100000Y-124375500D01*
X182080315Y-124442539D01*
X182027511Y-124488294D01*
X181976000Y-124499500D01*
X145024000Y-124499500D01*
X144956961Y-124479815D01*
X144911206Y-124427011D01*
X144900000Y-124375500D01*
X144900000Y-120350000D01*
X145549709Y-120350000D01*
X145568851Y-120629862D01*
X145568852Y-120629864D01*
X145625921Y-120904499D01*
X145625926Y-120904516D01*
X145716391Y-121159058D01*
X145719864Y-121168830D01*
X145848919Y-121417896D01*
X146010688Y-121647069D01*
X146010692Y-121647073D01*
X146010692Y-121647074D01*
X146202154Y-121852080D01*
X146202155Y-121852081D01*
X146419754Y-122029111D01*
X146419756Y-122029112D01*
X146419757Y-122029113D01*
X146659433Y-122174863D01*
X146868257Y-122265567D01*
X146916725Y-122286620D01*
X147186839Y-122362303D01*
X147431159Y-122395884D01*
X147464741Y-122400500D01*
X147464742Y-122400500D01*
X147745259Y-122400500D01*
X147775219Y-122396381D01*
X148023161Y-122362303D01*
X148293275Y-122286620D01*
X148550568Y-122174862D01*
X148790246Y-122029111D01*
X148981243Y-121873723D01*
X151400500Y-121873723D01*
X151400500Y-122126277D01*
X151420254Y-122250999D01*
X151440009Y-122375722D01*
X151440009Y-122375725D01*
X151518050Y-122615911D01*
X151518051Y-122615914D01*
X151632709Y-122840941D01*
X151781156Y-123045261D01*
X151959739Y-123223844D01*
X152164059Y-123372291D01*
X152274428Y-123428526D01*
X152389085Y-123486948D01*
X152389088Y-123486949D01*
X152613123Y-123559741D01*
X152629279Y-123564991D01*
X152878723Y-123604500D01*
X152878724Y-123604500D01*
X153131276Y-123604500D01*
X153131277Y-123604500D01*
X153380721Y-123564991D01*
X153380724Y-123564990D01*
X153380725Y-123564990D01*
X153620911Y-123486949D01*
X153620914Y-123486948D01*
X153845941Y-123372291D01*
X154050261Y-123223844D01*
X154228844Y-123045261D01*
X154377291Y-122840941D01*
X154491948Y-122615914D01*
X154569991Y-122375721D01*
X154609500Y-122126277D01*
X154609500Y-121873723D01*
X154569991Y-121624279D01*
X154569990Y-121624275D01*
X154569990Y-121624274D01*
X154491949Y-121384088D01*
X154491948Y-121384085D01*
X154433526Y-121269428D01*
X154377291Y-121159059D01*
X154228844Y-120954739D01*
X154050261Y-120776156D01*
X153845941Y-120627709D01*
X153620914Y-120513051D01*
X153620911Y-120513050D01*
X153380723Y-120435009D01*
X153214425Y-120408669D01*
X153131277Y-120395500D01*
X152878723Y-120395500D01*
X152795575Y-120408669D01*
X152629277Y-120435009D01*
X152629274Y-120435009D01*
X152389088Y-120513050D01*
X152389085Y-120513051D01*
X152164058Y-120627709D01*
X151959736Y-120776158D01*
X151781158Y-120954736D01*
X151632709Y-121159058D01*
X151518051Y-121384085D01*
X151518050Y-121384088D01*
X151440009Y-121624274D01*
X151440009Y-121624277D01*
X151403928Y-121852080D01*
X151400500Y-121873723D01*
X148981243Y-121873723D01*
X149007845Y-121852081D01*
X149199312Y-121647069D01*
X149361081Y-121417896D01*
X149490136Y-121168830D01*
X149584075Y-120904511D01*
X149584076Y-120904504D01*
X149584078Y-120904499D01*
X149610748Y-120776156D01*
X149641148Y-120629862D01*
X149660291Y-120350000D01*
X149641148Y-120070138D01*
X149621443Y-119975315D01*
X149584078Y-119795500D01*
X149584073Y-119795483D01*
X149490136Y-119531171D01*
X149490136Y-119531170D01*
X149361081Y-119282104D01*
X149199312Y-119052931D01*
X149199307Y-119052925D01*
X149007845Y-118847919D01*
X148790242Y-118670886D01*
X148550566Y-118525136D01*
X148293276Y-118413380D01*
X148023166Y-118337698D01*
X148023162Y-118337697D01*
X148023161Y-118337697D01*
X147884209Y-118318598D01*
X147745259Y-118299500D01*
X147745258Y-118299500D01*
X147464742Y-118299500D01*
X147464741Y-118299500D01*
X147186839Y-118337697D01*
X147186833Y-118337698D01*
X146916723Y-118413380D01*
X146659433Y-118525136D01*
X146419757Y-118670886D01*
X146202154Y-118847919D01*
X146010692Y-119052925D01*
X146010692Y-119052926D01*
X145848919Y-119282103D01*
X145719863Y-119531171D01*
X145625926Y-119795483D01*
X145625921Y-119795500D01*
X145568852Y-120070135D01*
X145568851Y-120070137D01*
X145549709Y-120350000D01*
X144900000Y-120350000D01*
X144900000Y-105340000D01*
X145539709Y-105340000D01*
X145558851Y-105619862D01*
X145558852Y-105619864D01*
X145615921Y-105894499D01*
X145615926Y-105894516D01*
X145678999Y-106071985D01*
X145709864Y-106158830D01*
X145838919Y-106407896D01*
X146000688Y-106637069D01*
X146000692Y-106637073D01*
X146000692Y-106637074D01*
X146192154Y-106842080D01*
X146192155Y-106842081D01*
X146409754Y-107019111D01*
X146409756Y-107019112D01*
X146409757Y-107019113D01*
X146649433Y-107164863D01*
X146855800Y-107254500D01*
X146906725Y-107276620D01*
X147176839Y-107352303D01*
X147421159Y-107385884D01*
X147454741Y-107390500D01*
X147454742Y-107390500D01*
X147735259Y-107390500D01*
X147765219Y-107386381D01*
X148013161Y-107352303D01*
X148283275Y-107276620D01*
X148540568Y-107164862D01*
X148780246Y-107019111D01*
X148997845Y-106842081D01*
X149189312Y-106637069D01*
X149351081Y-106407896D01*
X149480136Y-106158830D01*
X149574075Y-105894511D01*
X149574076Y-105894504D01*
X149574078Y-105894499D01*
X149600571Y-105767005D01*
X149631148Y-105619862D01*
X149650291Y-105340000D01*
X149631148Y-105060138D01*
X149611443Y-104965315D01*
X149574078Y-104785500D01*
X149574073Y-104785483D01*
X149480136Y-104521171D01*
X149480136Y-104521170D01*
X149351081Y-104272104D01*
X149189312Y-104042931D01*
X149189307Y-104042925D01*
X148997845Y-103837919D01*
X148889163Y-103749500D01*
X148780246Y-103660889D01*
X148780244Y-103660888D01*
X148780242Y-103660886D01*
X148540566Y-103515136D01*
X148283276Y-103403380D01*
X148013166Y-103327698D01*
X148013162Y-103327697D01*
X148013161Y-103327697D01*
X147832321Y-103302841D01*
X147735259Y-103289500D01*
X147735258Y-103289500D01*
X147454742Y-103289500D01*
X147454741Y-103289500D01*
X147176839Y-103327697D01*
X147176833Y-103327698D01*
X146906723Y-103403380D01*
X146649433Y-103515136D01*
X146409757Y-103660886D01*
X146192154Y-103837919D01*
X146000692Y-104042925D01*
X146000692Y-104042926D01*
X146000689Y-104042928D01*
X146000688Y-104042931D01*
X145956779Y-104105135D01*
X145838919Y-104272103D01*
X145709863Y-104521171D01*
X145615926Y-104785483D01*
X145615921Y-104785500D01*
X145558852Y-105060135D01*
X145558851Y-105060137D01*
X145539709Y-105340000D01*
X144900000Y-105340000D01*
X144900000Y-97874000D01*
X144919685Y-97806961D01*
X144972489Y-97761206D01*
X145024000Y-97750000D01*
X149776000Y-97750000D01*
X149843039Y-97769685D01*
G37*
%TD.AperFunction*%
%TD*%
%TA.AperFunction,Conductor*%
%TO.N,+6V*%
G36*
X158643039Y-97219685D02*
G01*
X158688794Y-97272489D01*
X158700000Y-97324000D01*
X158700000Y-100500000D01*
X159623768Y-100500000D01*
X159690807Y-100519685D01*
X159722146Y-100548517D01*
X159724378Y-100551426D01*
X159749570Y-100616596D01*
X159750000Y-100626909D01*
X159750000Y-103500000D01*
X173223092Y-103500000D01*
X173290131Y-103519685D01*
X173296438Y-103524119D01*
X173297155Y-103524533D01*
X173297159Y-103524536D01*
X173443238Y-103585044D01*
X173521619Y-103595363D01*
X173599999Y-103605682D01*
X173600000Y-103605682D01*
X173600001Y-103605682D01*
X173652254Y-103598802D01*
X173756762Y-103585044D01*
X173793228Y-103569938D01*
X173840681Y-103560500D01*
X174262779Y-103560500D01*
X174303733Y-103567458D01*
X174310824Y-103569939D01*
X174333121Y-103577741D01*
X174362543Y-103580500D01*
X174837456Y-103580499D01*
X174866879Y-103577741D01*
X174916151Y-103560500D01*
X174924842Y-103557459D01*
X174965797Y-103550500D01*
X175448352Y-103550500D01*
X175489307Y-103557458D01*
X175547181Y-103577710D01*
X175562057Y-103579105D01*
X175576930Y-103580500D01*
X175576934Y-103580500D01*
X176023070Y-103580500D01*
X176036289Y-103579260D01*
X176052819Y-103577710D01*
X176052823Y-103577708D01*
X176052826Y-103577708D01*
X176102002Y-103560500D01*
X176178157Y-103533852D01*
X176191194Y-103524229D01*
X176256823Y-103500259D01*
X176264828Y-103500000D01*
X181400000Y-103500000D01*
X181400000Y-102570087D01*
X181412600Y-102523073D01*
X181409845Y-102521932D01*
X181445263Y-102436423D01*
X181473463Y-102368343D01*
X181494101Y-102211581D01*
X181492312Y-102197989D01*
X181484702Y-102140185D01*
X181495468Y-102071150D01*
X181541848Y-102018894D01*
X181607641Y-102000000D01*
X183526000Y-102000000D01*
X183593039Y-102019685D01*
X183638794Y-102072489D01*
X183650000Y-102124000D01*
X183650000Y-105676000D01*
X183630315Y-105743039D01*
X183577511Y-105788794D01*
X183526000Y-105800000D01*
X182850000Y-105800000D01*
X182750000Y-105800000D01*
X165200284Y-105849715D01*
X165099999Y-105850000D01*
X163682748Y-107069493D01*
X163619092Y-107098298D01*
X163608693Y-107099040D01*
X163608708Y-107099294D01*
X163605135Y-107099500D01*
X163580011Y-107102414D01*
X163580008Y-107102415D01*
X163477235Y-107147793D01*
X163397794Y-107227234D01*
X163348647Y-107338542D01*
X163345956Y-107337353D01*
X163317347Y-107383866D01*
X163315187Y-107385768D01*
X162984873Y-107669993D01*
X162921218Y-107698798D01*
X162903995Y-107700000D01*
X155124000Y-107700000D01*
X155056961Y-107680315D01*
X155011206Y-107627511D01*
X155000000Y-107576000D01*
X155000000Y-103778894D01*
X155012772Y-103724082D01*
X155084903Y-103577710D01*
X155500000Y-102735366D01*
X155500000Y-100374000D01*
X155519685Y-100306961D01*
X155572489Y-100261206D01*
X155624000Y-100250000D01*
X156500000Y-100250000D01*
X156508005Y-100005827D01*
X156596068Y-97319937D01*
X156617938Y-97253578D01*
X156672213Y-97209578D01*
X156720001Y-97200000D01*
X158576000Y-97200000D01*
X158643039Y-97219685D01*
G37*
%TD.AperFunction*%
%TD*%
%TA.AperFunction,Conductor*%
%TO.N,+3.3V*%
G36*
X181731061Y-84368653D02*
G01*
X181736279Y-84372957D01*
X181793007Y-84458094D01*
X181954301Y-84700166D01*
X181956036Y-84708951D01*
X181952837Y-84714927D01*
X181754268Y-84913496D01*
X181745995Y-84916923D01*
X181739507Y-84914960D01*
X181536067Y-84779407D01*
X181412298Y-84696939D01*
X181407315Y-84689500D01*
X181407960Y-84682768D01*
X181497436Y-84464481D01*
X181503743Y-84458127D01*
X181722109Y-84368620D01*
X181731061Y-84368653D01*
G37*
%TD.AperFunction*%
%TD*%
%TA.AperFunction,Conductor*%
%TO.N,+3.3V*%
G36*
X181731061Y-84368653D02*
G01*
X181736279Y-84372957D01*
X181793007Y-84458094D01*
X181954301Y-84700166D01*
X181956036Y-84708951D01*
X181952837Y-84714927D01*
X181754268Y-84913496D01*
X181745995Y-84916923D01*
X181739507Y-84914960D01*
X181536067Y-84779407D01*
X181412298Y-84696939D01*
X181407315Y-84689500D01*
X181407960Y-84682768D01*
X181497436Y-84464481D01*
X181503743Y-84458127D01*
X181722109Y-84368620D01*
X181731061Y-84368653D01*
G37*
%TD.AperFunction*%
%TD*%
M02*
