%TF.GenerationSoftware,KiCad,Pcbnew,8.0.4*%
%TF.CreationDate,2024-12-15T00:35:53-05:00*%
%TF.ProjectId,V1.03,56312e30-332e-46b6-9963-61645f706362,rev?*%
%TF.SameCoordinates,Original*%
%TF.FileFunction,Copper,L2,Bot*%
%TF.FilePolarity,Positive*%
%FSLAX46Y46*%
G04 Gerber Fmt 4.6, Leading zero omitted, Abs format (unit mm)*
G04 Created by KiCad (PCBNEW 8.0.4) date 2024-12-15 00:35:53*
%MOMM*%
%LPD*%
G01*
G04 APERTURE LIST*
%TA.AperFunction,ComponentPad*%
%ADD10R,1.000000X1.000000*%
%TD*%
%TA.AperFunction,ComponentPad*%
%ADD11O,1.000000X1.000000*%
%TD*%
%TA.AperFunction,ComponentPad*%
%ADD12R,1.700000X1.700000*%
%TD*%
%TA.AperFunction,ComponentPad*%
%ADD13O,1.700000X1.700000*%
%TD*%
%TA.AperFunction,ComponentPad*%
%ADD14C,0.499999*%
%TD*%
%TA.AperFunction,ComponentPad*%
%ADD15C,3.500000*%
%TD*%
%TA.AperFunction,ComponentPad*%
%ADD16R,3.500000X3.500000*%
%TD*%
%TA.AperFunction,ComponentPad*%
%ADD17C,1.400000*%
%TD*%
%TA.AperFunction,ViaPad*%
%ADD18C,0.600000*%
%TD*%
%TA.AperFunction,ViaPad*%
%ADD19C,0.700000*%
%TD*%
%TA.AperFunction,Conductor*%
%ADD20C,0.300000*%
%TD*%
%TA.AperFunction,Conductor*%
%ADD21C,0.500000*%
%TD*%
G04 APERTURE END LIST*
D10*
%TO.P,J3,1,VTref*%
%TO.N,+3.3V*%
X173280000Y-93730000D03*
D11*
%TO.P,J3,2,SWDIO/TMS*%
%TO.N,/MCU/SWDIO*%
X173280000Y-95000000D03*
%TO.P,J3,3,GND*%
%TO.N,GND*%
X172010000Y-93730000D03*
%TO.P,J3,4,SWCLK/TCK*%
%TO.N,/MCU/SWCLK*%
X172010000Y-95000000D03*
%TO.P,J3,5,GND*%
%TO.N,GND*%
X170740000Y-93730000D03*
%TO.P,J3,6,SWO/TDO*%
%TO.N,SWO*%
X170740000Y-95000000D03*
%TO.P,J3,7,KEY*%
%TO.N,unconnected-(J24-KEY-Pad7)*%
X169470000Y-93730000D03*
%TO.P,J3,8,NC/TDI*%
%TO.N,unconnected-(J24-NC{slash}TDI-Pad8)*%
X169470000Y-95000000D03*
%TO.P,J3,9,GNDDetect*%
%TO.N,GND*%
X168200000Y-93730000D03*
%TO.P,J3,10,~{RESET}*%
%TO.N,NREST*%
X168200000Y-95000000D03*
%TD*%
D12*
%TO.P,J14,1,Pin_1*%
%TO.N,GND*%
X178900000Y-72520000D03*
D13*
%TO.P,J14,2,Pin_2*%
%TO.N,+6V*%
X178900000Y-75060000D03*
%TO.P,J14,3,Pin_3*%
%TO.N,CH8*%
X178900000Y-77600000D03*
%TD*%
D12*
%TO.P,J18,1,Pin_1*%
%TO.N,GND*%
X160500000Y-72620000D03*
D13*
%TO.P,J18,2,Pin_2*%
%TO.N,+6V*%
X160500000Y-75160000D03*
%TO.P,J18,3,Pin_3*%
%TO.N,CH12*%
X160500000Y-77700000D03*
%TD*%
D12*
%TO.P,J12,1,Pin_1*%
%TO.N,GND*%
X188200000Y-72500000D03*
D13*
%TO.P,J12,2,Pin_2*%
%TO.N,+6V*%
X188200000Y-75040000D03*
%TO.P,J12,3,Pin_3*%
%TO.N,CH6*%
X188200000Y-77580000D03*
%TD*%
D12*
%TO.P,J21,1,Pin_1*%
%TO.N,GND*%
X146700000Y-72620000D03*
D13*
%TO.P,J21,2,Pin_2*%
%TO.N,+6V*%
X146700000Y-75160000D03*
%TO.P,J21,3,Pin_3*%
%TO.N,CH15*%
X146700000Y-77700000D03*
%TD*%
D12*
%TO.P,J19,1,Pin_1*%
%TO.N,GND*%
X155900000Y-72620000D03*
D13*
%TO.P,J19,2,Pin_2*%
%TO.N,+6V*%
X155900000Y-75160000D03*
%TO.P,J19,3,Pin_3*%
%TO.N,CH13*%
X155900000Y-77700000D03*
%TD*%
D12*
%TO.P,J15,1,Pin_1*%
%TO.N,GND*%
X174300000Y-72520000D03*
D13*
%TO.P,J15,2,Pin_2*%
%TO.N,+6V*%
X174300000Y-75060000D03*
%TO.P,J15,3,Pin_3*%
%TO.N,CH9*%
X174300000Y-77600000D03*
%TD*%
D12*
%TO.P,J6,1,Pin_1*%
%TO.N,GND*%
X197500000Y-104300000D03*
D13*
%TO.P,J6,2,Pin_2*%
%TO.N,+6V*%
X194960000Y-104300000D03*
%TO.P,J6,3,Pin_3*%
%TO.N,CH0*%
X192420000Y-104300000D03*
%TD*%
D12*
%TO.P,J13,1,Pin_1*%
%TO.N,GND*%
X183600000Y-72500000D03*
D13*
%TO.P,J13,2,Pin_2*%
%TO.N,+6V*%
X183600000Y-75040000D03*
%TO.P,J13,3,Pin_3*%
%TO.N,CH7*%
X183600000Y-77580000D03*
%TD*%
D12*
%TO.P,J11,1,Pin_1*%
%TO.N,GND*%
X197500000Y-81300000D03*
D13*
%TO.P,J11,2,Pin_2*%
%TO.N,+6V*%
X194960000Y-81300000D03*
%TO.P,J11,3,Pin_3*%
%TO.N,CH5*%
X192420000Y-81300000D03*
%TD*%
D12*
%TO.P,J17,1,Pin_1*%
%TO.N,GND*%
X165100000Y-72620000D03*
D13*
%TO.P,J17,2,Pin_2*%
%TO.N,+6V*%
X165100000Y-75160000D03*
%TO.P,J17,3,Pin_3*%
%TO.N,CH11*%
X165100000Y-77700000D03*
%TD*%
D12*
%TO.P,J9,1,Pin_1*%
%TO.N,GND*%
X197500000Y-90500000D03*
D13*
%TO.P,J9,2,Pin_2*%
%TO.N,+6V*%
X194960000Y-90500000D03*
%TO.P,J9,3,Pin_3*%
%TO.N,CH3*%
X192420000Y-90500000D03*
%TD*%
D14*
%TO.P,U4,V*%
%TO.N,GND*%
X186434999Y-112155000D03*
X185334999Y-111555001D03*
X187534999Y-111555001D03*
X186434999Y-110955002D03*
%TD*%
D12*
%TO.P,J10,1,Pin_1*%
%TO.N,GND*%
X197500000Y-85900000D03*
D13*
%TO.P,J10,2,Pin_2*%
%TO.N,+6V*%
X194960000Y-85900000D03*
%TO.P,J10,3,Pin_3*%
%TO.N,CH4*%
X192420000Y-85900000D03*
%TD*%
D15*
%TO.P,J22,2,Pin_2*%
%TO.N,GND*%
X147605000Y-120350000D03*
D16*
%TO.P,J22,1,Pin_1*%
%TO.N,+P_BATT*%
X147605000Y-115350000D03*
D17*
%TO.P,J22,*%
%TO.N,*%
X137605000Y-112350000D03*
X137605000Y-123350000D03*
%TD*%
D12*
%TO.P,J7,1,Pin_1*%
%TO.N,GND*%
X197500000Y-99700000D03*
D13*
%TO.P,J7,2,Pin_2*%
%TO.N,+6V*%
X194960000Y-99700000D03*
%TO.P,J7,3,Pin_3*%
%TO.N,CH1*%
X192420000Y-99700000D03*
%TD*%
D12*
%TO.P,J8,1,Pin_1*%
%TO.N,GND*%
X197500000Y-95100000D03*
D13*
%TO.P,J8,2,Pin_2*%
%TO.N,+6V*%
X194960000Y-95100000D03*
%TO.P,J8,3,Pin_3*%
%TO.N,CH2*%
X192420000Y-95100000D03*
%TD*%
D12*
%TO.P,J20,1,Pin_1*%
%TO.N,GND*%
X151300000Y-72620000D03*
D13*
%TO.P,J20,2,Pin_2*%
%TO.N,+6V*%
X151300000Y-75160000D03*
%TO.P,J20,3,Pin_3*%
%TO.N,CH14*%
X151300000Y-77700000D03*
%TD*%
D12*
%TO.P,J2,1,Pin_1*%
%TO.N,+3.3V*%
X194975000Y-113750000D03*
D13*
%TO.P,J2,2,Pin_2*%
%TO.N,/MCU/BOOT0*%
X197515000Y-113750000D03*
%TD*%
D12*
%TO.P,J16,1,Pin_1*%
%TO.N,GND*%
X169700000Y-72620000D03*
D13*
%TO.P,J16,2,Pin_2*%
%TO.N,+6V*%
X169700000Y-75160000D03*
%TO.P,J16,3,Pin_3*%
%TO.N,CH10*%
X169700000Y-77700000D03*
%TD*%
D12*
%TO.P,J1,1,Pin_1*%
%TO.N,NREST*%
X194975000Y-109000000D03*
D13*
%TO.P,J1,2,Pin_2*%
%TO.N,GND*%
X197515000Y-109000000D03*
%TD*%
D15*
%TO.P,J23,2,Pin_2*%
%TO.N,GND*%
X147595000Y-105340000D03*
D16*
%TO.P,J23,1,Pin_1*%
%TO.N,+P_BATT*%
X147595000Y-100340000D03*
D17*
%TO.P,J23,*%
%TO.N,*%
X137595000Y-97340000D03*
X137595000Y-108340000D03*
%TD*%
D18*
%TO.N,NREST*%
X170600000Y-96550000D03*
%TO.N,TEMP*%
X182100000Y-93900000D03*
X179121882Y-97750000D03*
X174600000Y-98700000D03*
X176394452Y-98383355D03*
%TO.N,GND*%
X172170000Y-99548000D03*
X167200000Y-99500000D03*
X169700000Y-98500000D03*
X180888419Y-102211581D03*
X173600000Y-103000000D03*
X183400000Y-109500000D03*
X181100000Y-109500000D03*
D19*
X188250000Y-105500000D03*
D18*
X182750000Y-87250000D03*
D19*
X156250000Y-84750000D03*
X168750000Y-87500000D03*
D18*
X184000000Y-88500000D03*
D19*
X168848528Y-89050000D03*
X185838693Y-109055753D03*
D18*
X160250000Y-100250000D03*
D19*
X188250000Y-82750000D03*
X187499382Y-84604780D03*
D18*
X143000000Y-92000000D03*
D19*
X161037719Y-87250000D03*
D18*
X179838916Y-97053292D03*
X175500000Y-109500000D03*
D19*
X144250000Y-93960000D03*
D18*
X182250000Y-83710659D03*
D19*
X144250000Y-92210000D03*
D18*
X153000000Y-101000000D03*
X172500000Y-109500000D03*
D19*
X146250000Y-85750000D03*
D18*
X174305000Y-87610000D03*
X178000000Y-113500000D03*
D19*
X157750000Y-89000000D03*
D18*
X174700000Y-112500000D03*
X156750000Y-88000000D03*
D19*
X192000000Y-113250000D03*
X183600000Y-113005002D03*
X175505000Y-87810000D03*
D18*
X146705000Y-95010000D03*
X189281447Y-97300000D03*
D19*
X190500000Y-108500000D03*
D18*
X177500000Y-115500000D03*
D19*
X184800000Y-108800000D03*
D18*
X175500000Y-115500000D03*
X186750000Y-96750000D03*
X188750000Y-118750000D03*
D19*
X144250000Y-90460000D03*
D18*
X160500000Y-101250000D03*
X177000000Y-112200000D03*
D19*
X167000000Y-87250000D03*
X162029280Y-88445623D03*
D18*
X175500000Y-113500000D03*
D19*
X143000000Y-79750000D03*
X189200000Y-105700000D03*
X188300000Y-84686950D03*
D18*
X178500000Y-109500000D03*
X181719508Y-98019508D03*
D19*
X146000000Y-84500000D03*
D18*
X185750000Y-96250000D03*
X168750000Y-81250000D03*
X178042985Y-97605731D03*
X152200000Y-100100000D03*
X183750000Y-117000000D03*
%TO.N,+3.3V*%
X167459620Y-88540380D03*
X162705000Y-95500000D03*
X180100000Y-98350000D03*
X183000000Y-98412500D03*
X174825456Y-89213930D03*
X174750000Y-91250000D03*
X177100000Y-97650000D03*
X165686827Y-89813173D03*
X189750000Y-107500000D03*
X179705000Y-84810000D03*
X162705000Y-97000000D03*
%TO.N,NREST*%
X184473212Y-92196028D03*
D19*
X187500000Y-98000000D03*
X187500000Y-101500000D03*
D18*
%TO.N,+5V*%
X154100000Y-90000000D03*
X151150000Y-82950000D03*
%TO.N,/Power/SW_*%
X189284998Y-114105002D03*
X182595000Y-114505000D03*
X171595000Y-116305000D03*
%TO.N,/MCU/BOOT0*%
X194250000Y-111250000D03*
X182000000Y-92846028D03*
%TO.N,CH0*%
X180250000Y-83710659D03*
X192430000Y-106470000D03*
X188750000Y-90084620D03*
X189202272Y-99007728D03*
%TO.N,/Power/HO*%
X166195000Y-118405000D03*
X187834999Y-114274242D03*
%TO.N,/Power/LO*%
X184795000Y-114380002D03*
X174595000Y-111105000D03*
D19*
%TO.N,+6V*%
X150750000Y-99250000D03*
X151705000Y-92610000D03*
D18*
%TO.N,FDCAN_RX*%
X177705000Y-87010000D03*
X159750000Y-85600000D03*
%TO.N,FDCAN_TX*%
X159250000Y-86250000D03*
X177023566Y-87491659D03*
D19*
%TO.N,PWM_SDA*%
X173906263Y-90593737D03*
X177220582Y-94603984D03*
D18*
%TO.N,PWM_OE*%
X168250000Y-84950000D03*
X178505000Y-86610000D03*
%TO.N,GND*%
X182750000Y-117250000D03*
%TD*%
D20*
%TO.N,PWM_SDA*%
X173906263Y-91325502D02*
X173906263Y-90593737D01*
X177184745Y-94603984D02*
X173906263Y-91325502D01*
X177220582Y-94603984D02*
X177184745Y-94603984D01*
%TO.N,NREST*%
X174075673Y-96550000D02*
X170600000Y-96550000D01*
X175175673Y-95450000D02*
X174075673Y-96550000D01*
D21*
%TO.N,+3.3V*%
X177600000Y-98500000D02*
X179500000Y-98500000D01*
X177100000Y-98000000D02*
X177600000Y-98500000D01*
X177100000Y-97650000D02*
X177100000Y-98000000D01*
D20*
%TO.N,TEMP*%
X179000000Y-97628118D02*
X179000000Y-96350000D01*
X179121882Y-97750000D02*
X179000000Y-97628118D01*
X179000000Y-96350000D02*
X181450000Y-93900000D01*
X181450000Y-93900000D02*
X182100000Y-93900000D01*
D21*
%TO.N,+3.3V*%
X179500000Y-98500000D02*
X179950000Y-98500000D01*
X179950000Y-98500000D02*
X180100000Y-98350000D01*
D20*
%TO.N,/MCU/BOOT0*%
X193775000Y-110775000D02*
X194250000Y-111250000D01*
X193775000Y-108855760D02*
X193775000Y-110775000D01*
X186800000Y-101880760D02*
X193775000Y-108855760D01*
X182750000Y-93596028D02*
X182750000Y-94500000D01*
X182000000Y-92846028D02*
X182750000Y-93596028D01*
X182750000Y-94500000D02*
X186800000Y-98550000D01*
X186800000Y-98550000D02*
X186800000Y-101880760D01*
%TO.N,NREST*%
X178050000Y-95450000D02*
X175175673Y-95450000D01*
X184473212Y-92196028D02*
X181303972Y-92196028D01*
X181303972Y-92196028D02*
X178050000Y-95450000D01*
%TO.N,TEMP*%
X176077807Y-98700000D02*
X176394452Y-98383355D01*
X174600000Y-98700000D02*
X176077807Y-98700000D01*
D21*
%TO.N,+3.3V*%
X177105000Y-89810000D02*
X179505000Y-87410000D01*
X179505000Y-85010000D02*
X179705000Y-84810000D01*
X174750000Y-89289386D02*
X174825456Y-89213930D01*
X188250000Y-107500000D02*
X182412500Y-101662500D01*
X174750000Y-89810000D02*
X177105000Y-89810000D01*
X165686827Y-89813173D02*
X166186827Y-89813173D01*
X182412500Y-101662500D02*
X182412500Y-99000000D01*
X162705000Y-95500000D02*
X162705000Y-97000000D01*
X182412500Y-99000000D02*
X183000000Y-98412500D01*
X166186827Y-89813173D02*
X167459620Y-88540380D01*
X179505000Y-87410000D02*
X179505000Y-85010000D01*
X174750000Y-91250000D02*
X174750000Y-89810000D01*
X189750000Y-107500000D02*
X188250000Y-107500000D01*
X174750000Y-89810000D02*
X174750000Y-89289386D01*
D20*
%TO.N,NREST*%
X187500000Y-101500000D02*
X187500000Y-98000000D01*
D21*
%TO.N,+5V*%
X154100000Y-90000000D02*
X154100000Y-85900000D01*
X154100000Y-85900000D02*
X151150000Y-82950000D01*
%TO.N,/Power/SW_*%
X188679996Y-113500000D02*
X189284998Y-114105002D01*
X185095000Y-115505000D02*
X187100000Y-113500000D01*
X183595000Y-115505000D02*
X185095000Y-115505000D01*
X182595000Y-114505000D02*
X183595000Y-115505000D01*
X187100000Y-113500000D02*
X188679996Y-113500000D01*
D20*
%TO.N,CH0*%
X190250000Y-100055456D02*
X190250000Y-104290000D01*
X190250000Y-104290000D02*
X192430000Y-106470000D01*
X188750000Y-90084620D02*
X186623961Y-90084620D01*
X186623961Y-90084620D02*
X180250000Y-83710659D01*
X189202272Y-99007728D02*
X190250000Y-100055456D01*
%TO.N,/Power/LO*%
X177695000Y-111105000D02*
X180195000Y-113605000D01*
X180195000Y-113605000D02*
X182614239Y-113605000D01*
X182614239Y-113605000D02*
X183245000Y-114235761D01*
X183245000Y-114235761D02*
X183245000Y-114245000D01*
X183380002Y-114380002D02*
X184795000Y-114380002D01*
X183245000Y-114245000D02*
X183380002Y-114380002D01*
X174595000Y-111105000D02*
X177695000Y-111105000D01*
D21*
%TO.N,+6V*%
X151705000Y-92610000D02*
X150750000Y-93565000D01*
X150750000Y-93565000D02*
X150750000Y-99250000D01*
D20*
%TO.N,FDCAN_RX*%
X176295000Y-85600000D02*
X159750000Y-85600000D01*
X177705000Y-87010000D02*
X176295000Y-85600000D01*
%TO.N,FDCAN_TX*%
X177023566Y-87491659D02*
X175781907Y-86250000D01*
X175781907Y-86250000D02*
X159250000Y-86250000D01*
%TO.N,PWM_OE*%
X178505000Y-86610000D02*
X176845000Y-84950000D01*
X176845000Y-84950000D02*
X168250000Y-84950000D01*
%TO.N,/Power/HO*%
X183704241Y-118405000D02*
X166195000Y-118405000D01*
X187834999Y-114274242D02*
X183704241Y-118405000D01*
D21*
%TO.N,/Power/SW_*%
X182595000Y-114505000D02*
X173395000Y-114505000D01*
X173395000Y-114505000D02*
X171595000Y-116305000D01*
%TO.N,+3.3V*%
X180000000Y-99000000D02*
X182412500Y-99000000D01*
X179500000Y-98500000D02*
X180000000Y-99000000D01*
%TD*%
%TA.AperFunction,Conductor*%
%TO.N,GND*%
G36*
X195531018Y-70513410D02*
G01*
X195531052Y-70513156D01*
X195539106Y-70514216D01*
X195539108Y-70514217D01*
X195601900Y-70514217D01*
X195608084Y-70514371D01*
X195937089Y-70530798D01*
X195949381Y-70532029D01*
X196272059Y-70580687D01*
X196284151Y-70583133D01*
X196600383Y-70663694D01*
X196612175Y-70667333D01*
X196918806Y-70778994D01*
X196930178Y-70783790D01*
X197224153Y-70925435D01*
X197235001Y-70931346D01*
X197417738Y-71043076D01*
X197513398Y-71101566D01*
X197523615Y-71108536D01*
X197783662Y-71305636D01*
X197793133Y-71313588D01*
X198032260Y-71535617D01*
X198040881Y-71544462D01*
X198145081Y-71662627D01*
X198256702Y-71789209D01*
X198264409Y-71798881D01*
X198454774Y-72063905D01*
X198461479Y-72074297D01*
X198624500Y-72356969D01*
X198630130Y-72367964D01*
X198764181Y-72665468D01*
X198768689Y-72676973D01*
X198872440Y-72986358D01*
X198875782Y-72998265D01*
X198948194Y-73316426D01*
X198950334Y-73328607D01*
X198990694Y-73652404D01*
X198991610Y-73664737D01*
X198999464Y-73988842D01*
X198999500Y-73991846D01*
X198999500Y-74001979D01*
X198999459Y-74005162D01*
X198997973Y-74063003D01*
X198998814Y-74070957D01*
X198999500Y-74083985D01*
X198999500Y-80110730D01*
X198979815Y-80177769D01*
X198927011Y-80223524D01*
X198857853Y-80233468D01*
X198794297Y-80204443D01*
X198776234Y-80185042D01*
X198707187Y-80092809D01*
X198592093Y-80006649D01*
X198592086Y-80006645D01*
X198457379Y-79956403D01*
X198457372Y-79956401D01*
X198397844Y-79950000D01*
X197750000Y-79950000D01*
X197750000Y-80866988D01*
X197692993Y-80834075D01*
X197565826Y-80800000D01*
X197434174Y-80800000D01*
X197307007Y-80834075D01*
X197250000Y-80866988D01*
X197250000Y-79950000D01*
X196602155Y-79950000D01*
X196542627Y-79956401D01*
X196542620Y-79956403D01*
X196407913Y-80006645D01*
X196407906Y-80006649D01*
X196292812Y-80092809D01*
X196292809Y-80092812D01*
X196206649Y-80207906D01*
X196206645Y-80207913D01*
X196156403Y-80342620D01*
X196156401Y-80342627D01*
X196150000Y-80402155D01*
X196150000Y-80596731D01*
X196130315Y-80663770D01*
X196077511Y-80709525D01*
X196008353Y-80719469D01*
X195944797Y-80690444D01*
X195927046Y-80671458D01*
X195813872Y-80521593D01*
X195656302Y-80377948D01*
X195475019Y-80265702D01*
X195475017Y-80265701D01*
X195316890Y-80204443D01*
X195276198Y-80188679D01*
X195066610Y-80149500D01*
X194853390Y-80149500D01*
X194643802Y-80188679D01*
X194643799Y-80188679D01*
X194643799Y-80188680D01*
X194444982Y-80265701D01*
X194444980Y-80265702D01*
X194263699Y-80377947D01*
X194106127Y-80521593D01*
X193977632Y-80691746D01*
X193882596Y-80882605D01*
X193882596Y-80882607D01*
X193824244Y-81087689D01*
X193813471Y-81203951D01*
X193787685Y-81268888D01*
X193743130Y-81300804D01*
X193779503Y-81321668D01*
X193811693Y-81383681D01*
X193813470Y-81396047D01*
X193824244Y-81512310D01*
X193877675Y-81700099D01*
X193882596Y-81717392D01*
X193882596Y-81717394D01*
X193977632Y-81908253D01*
X194049385Y-82003268D01*
X194106128Y-82078407D01*
X194263698Y-82222052D01*
X194444981Y-82334298D01*
X194643802Y-82411321D01*
X194853390Y-82450500D01*
X194853392Y-82450500D01*
X195066608Y-82450500D01*
X195066610Y-82450500D01*
X195276198Y-82411321D01*
X195475019Y-82334298D01*
X195656302Y-82222052D01*
X195813872Y-82078407D01*
X195927047Y-81928540D01*
X195983155Y-81886905D01*
X196052867Y-81882214D01*
X196114049Y-81915956D01*
X196147276Y-81977419D01*
X196150000Y-82003268D01*
X196150000Y-82197844D01*
X196156401Y-82257372D01*
X196156403Y-82257379D01*
X196206645Y-82392086D01*
X196206649Y-82392093D01*
X196292809Y-82507187D01*
X196292812Y-82507190D01*
X196407906Y-82593350D01*
X196407913Y-82593354D01*
X196542620Y-82643596D01*
X196542627Y-82643598D01*
X196602155Y-82649999D01*
X196602172Y-82650000D01*
X197250000Y-82650000D01*
X197250000Y-81733012D01*
X197307007Y-81765925D01*
X197434174Y-81800000D01*
X197565826Y-81800000D01*
X197692993Y-81765925D01*
X197750000Y-81733012D01*
X197750000Y-82650000D01*
X198397828Y-82650000D01*
X198397844Y-82649999D01*
X198457372Y-82643598D01*
X198457379Y-82643596D01*
X198592086Y-82593354D01*
X198592093Y-82593350D01*
X198707187Y-82507190D01*
X198707190Y-82507187D01*
X198776234Y-82414958D01*
X198832168Y-82373087D01*
X198901859Y-82368103D01*
X198963182Y-82401589D01*
X198996666Y-82462912D01*
X198999500Y-82489269D01*
X198999500Y-84710730D01*
X198979815Y-84777769D01*
X198927011Y-84823524D01*
X198857853Y-84833468D01*
X198794297Y-84804443D01*
X198776234Y-84785042D01*
X198707187Y-84692809D01*
X198592093Y-84606649D01*
X198592086Y-84606645D01*
X198457379Y-84556403D01*
X198457372Y-84556401D01*
X198397844Y-84550000D01*
X197750000Y-84550000D01*
X197750000Y-85466988D01*
X197692993Y-85434075D01*
X197565826Y-85400000D01*
X197434174Y-85400000D01*
X197307007Y-85434075D01*
X197250000Y-85466988D01*
X197250000Y-84550000D01*
X196602155Y-84550000D01*
X196542627Y-84556401D01*
X196542620Y-84556403D01*
X196407913Y-84606645D01*
X196407906Y-84606649D01*
X196292812Y-84692809D01*
X196292809Y-84692812D01*
X196206649Y-84807906D01*
X196206645Y-84807913D01*
X196156403Y-84942620D01*
X196156401Y-84942627D01*
X196150000Y-85002155D01*
X196150000Y-85196731D01*
X196130315Y-85263770D01*
X196077511Y-85309525D01*
X196008353Y-85319469D01*
X195944797Y-85290444D01*
X195927046Y-85271458D01*
X195813872Y-85121593D01*
X195763270Y-85075463D01*
X195656302Y-84977948D01*
X195475019Y-84865702D01*
X195475017Y-84865701D01*
X195331234Y-84810000D01*
X195276198Y-84788679D01*
X195066610Y-84749500D01*
X194853390Y-84749500D01*
X194643802Y-84788679D01*
X194643799Y-84788679D01*
X194643799Y-84788680D01*
X194444982Y-84865701D01*
X194444980Y-84865702D01*
X194263699Y-84977947D01*
X194106127Y-85121593D01*
X193977632Y-85291746D01*
X193882596Y-85482605D01*
X193882596Y-85482607D01*
X193824244Y-85687689D01*
X193813471Y-85803951D01*
X193787685Y-85868888D01*
X193743130Y-85900804D01*
X193779503Y-85921668D01*
X193811693Y-85983681D01*
X193813470Y-85996047D01*
X193824244Y-86112310D01*
X193877675Y-86300099D01*
X193882596Y-86317392D01*
X193882596Y-86317394D01*
X193977632Y-86508253D01*
X194106127Y-86678406D01*
X194106128Y-86678407D01*
X194263698Y-86822052D01*
X194444981Y-86934298D01*
X194643802Y-87011321D01*
X194853390Y-87050500D01*
X194853392Y-87050500D01*
X195066608Y-87050500D01*
X195066610Y-87050500D01*
X195276198Y-87011321D01*
X195475019Y-86934298D01*
X195656302Y-86822052D01*
X195813872Y-86678407D01*
X195927047Y-86528540D01*
X195983155Y-86486905D01*
X196052867Y-86482214D01*
X196114049Y-86515956D01*
X196147276Y-86577419D01*
X196150000Y-86603268D01*
X196150000Y-86797844D01*
X196156401Y-86857372D01*
X196156403Y-86857379D01*
X196206645Y-86992086D01*
X196206649Y-86992093D01*
X196292809Y-87107187D01*
X196292812Y-87107190D01*
X196407906Y-87193350D01*
X196407913Y-87193354D01*
X196542620Y-87243596D01*
X196542627Y-87243598D01*
X196602155Y-87249999D01*
X196602172Y-87250000D01*
X197250000Y-87250000D01*
X197250000Y-86333012D01*
X197307007Y-86365925D01*
X197434174Y-86400000D01*
X197565826Y-86400000D01*
X197692993Y-86365925D01*
X197750000Y-86333012D01*
X197750000Y-87250000D01*
X198397828Y-87250000D01*
X198397844Y-87249999D01*
X198457372Y-87243598D01*
X198457379Y-87243596D01*
X198592086Y-87193354D01*
X198592093Y-87193350D01*
X198707187Y-87107190D01*
X198707190Y-87107187D01*
X198776234Y-87014958D01*
X198832168Y-86973087D01*
X198901859Y-86968103D01*
X198963182Y-87001589D01*
X198996666Y-87062912D01*
X198999500Y-87089269D01*
X198999500Y-89310730D01*
X198979815Y-89377769D01*
X198927011Y-89423524D01*
X198857853Y-89433468D01*
X198794297Y-89404443D01*
X198776234Y-89385042D01*
X198707187Y-89292809D01*
X198592093Y-89206649D01*
X198592086Y-89206645D01*
X198457379Y-89156403D01*
X198457372Y-89156401D01*
X198397844Y-89150000D01*
X197750000Y-89150000D01*
X197750000Y-90066988D01*
X197692993Y-90034075D01*
X197565826Y-90000000D01*
X197434174Y-90000000D01*
X197307007Y-90034075D01*
X197250000Y-90066988D01*
X197250000Y-89150000D01*
X196602155Y-89150000D01*
X196542627Y-89156401D01*
X196542620Y-89156403D01*
X196407913Y-89206645D01*
X196407906Y-89206649D01*
X196292812Y-89292809D01*
X196292809Y-89292812D01*
X196206649Y-89407906D01*
X196206645Y-89407913D01*
X196156403Y-89542620D01*
X196156401Y-89542627D01*
X196150000Y-89602155D01*
X196150000Y-89796731D01*
X196130315Y-89863770D01*
X196077511Y-89909525D01*
X196008353Y-89919469D01*
X195944797Y-89890444D01*
X195927046Y-89871458D01*
X195813872Y-89721593D01*
X195717919Y-89634120D01*
X195656302Y-89577948D01*
X195475019Y-89465702D01*
X195475017Y-89465701D01*
X195316890Y-89404443D01*
X195276198Y-89388679D01*
X195066610Y-89349500D01*
X194853390Y-89349500D01*
X194643802Y-89388679D01*
X194643799Y-89388679D01*
X194643799Y-89388680D01*
X194444982Y-89465701D01*
X194444980Y-89465702D01*
X194263699Y-89577947D01*
X194106127Y-89721593D01*
X193977632Y-89891746D01*
X193882596Y-90082605D01*
X193882596Y-90082607D01*
X193824244Y-90287689D01*
X193813471Y-90403951D01*
X193787685Y-90468888D01*
X193743130Y-90500804D01*
X193779503Y-90521668D01*
X193811693Y-90583681D01*
X193813470Y-90596047D01*
X193824244Y-90712310D01*
X193877675Y-90900099D01*
X193882596Y-90917392D01*
X193882596Y-90917394D01*
X193977632Y-91108253D01*
X194106127Y-91278406D01*
X194106128Y-91278407D01*
X194263698Y-91422052D01*
X194444981Y-91534298D01*
X194643802Y-91611321D01*
X194853390Y-91650500D01*
X194853392Y-91650500D01*
X195066608Y-91650500D01*
X195066610Y-91650500D01*
X195276198Y-91611321D01*
X195475019Y-91534298D01*
X195656302Y-91422052D01*
X195813872Y-91278407D01*
X195927047Y-91128540D01*
X195983155Y-91086905D01*
X196052867Y-91082214D01*
X196114049Y-91115956D01*
X196147276Y-91177419D01*
X196150000Y-91203268D01*
X196150000Y-91397844D01*
X196156401Y-91457372D01*
X196156403Y-91457379D01*
X196206645Y-91592086D01*
X196206649Y-91592093D01*
X196292809Y-91707187D01*
X196292812Y-91707190D01*
X196407906Y-91793350D01*
X196407913Y-91793354D01*
X196542620Y-91843596D01*
X196542627Y-91843598D01*
X196602155Y-91849999D01*
X196602172Y-91850000D01*
X197250000Y-91850000D01*
X197250000Y-90933012D01*
X197307007Y-90965925D01*
X197434174Y-91000000D01*
X197565826Y-91000000D01*
X197692993Y-90965925D01*
X197750000Y-90933012D01*
X197750000Y-91850000D01*
X198397828Y-91850000D01*
X198397844Y-91849999D01*
X198457372Y-91843598D01*
X198457379Y-91843596D01*
X198592086Y-91793354D01*
X198592093Y-91793350D01*
X198707187Y-91707190D01*
X198707190Y-91707187D01*
X198776234Y-91614958D01*
X198832168Y-91573087D01*
X198901859Y-91568103D01*
X198963182Y-91601589D01*
X198996666Y-91662912D01*
X198999500Y-91689269D01*
X198999500Y-93910730D01*
X198979815Y-93977769D01*
X198927011Y-94023524D01*
X198857853Y-94033468D01*
X198794297Y-94004443D01*
X198776234Y-93985042D01*
X198707187Y-93892809D01*
X198592093Y-93806649D01*
X198592086Y-93806645D01*
X198457379Y-93756403D01*
X198457372Y-93756401D01*
X198397844Y-93750000D01*
X197750000Y-93750000D01*
X197750000Y-94666988D01*
X197692993Y-94634075D01*
X197565826Y-94600000D01*
X197434174Y-94600000D01*
X197307007Y-94634075D01*
X197250000Y-94666988D01*
X197250000Y-93750000D01*
X196602155Y-93750000D01*
X196542627Y-93756401D01*
X196542620Y-93756403D01*
X196407913Y-93806645D01*
X196407906Y-93806649D01*
X196292812Y-93892809D01*
X196292809Y-93892812D01*
X196206649Y-94007906D01*
X196206645Y-94007913D01*
X196156403Y-94142620D01*
X196156401Y-94142627D01*
X196150000Y-94202155D01*
X196150000Y-94396731D01*
X196130315Y-94463770D01*
X196077511Y-94509525D01*
X196008353Y-94519469D01*
X195944797Y-94490444D01*
X195927046Y-94471458D01*
X195813872Y-94321593D01*
X195790176Y-94299991D01*
X195656302Y-94177948D01*
X195475019Y-94065702D01*
X195475017Y-94065701D01*
X195316890Y-94004443D01*
X195276198Y-93988679D01*
X195066610Y-93949500D01*
X194853390Y-93949500D01*
X194643802Y-93988679D01*
X194643799Y-93988679D01*
X194643799Y-93988680D01*
X194444982Y-94065701D01*
X194444980Y-94065702D01*
X194263699Y-94177947D01*
X194106127Y-94321593D01*
X193977632Y-94491746D01*
X193882596Y-94682605D01*
X193882596Y-94682607D01*
X193824244Y-94887689D01*
X193813471Y-95003951D01*
X193787685Y-95068888D01*
X193743130Y-95100804D01*
X193779503Y-95121668D01*
X193811693Y-95183681D01*
X193813470Y-95196047D01*
X193824244Y-95312310D01*
X193877675Y-95500099D01*
X193882596Y-95517392D01*
X193882596Y-95517394D01*
X193977632Y-95708253D01*
X194104526Y-95876286D01*
X194106128Y-95878407D01*
X194263698Y-96022052D01*
X194444981Y-96134298D01*
X194643802Y-96211321D01*
X194853390Y-96250500D01*
X194853392Y-96250500D01*
X195066608Y-96250500D01*
X195066610Y-96250500D01*
X195276198Y-96211321D01*
X195475019Y-96134298D01*
X195656302Y-96022052D01*
X195813872Y-95878407D01*
X195927047Y-95728540D01*
X195983155Y-95686905D01*
X196052867Y-95682214D01*
X196114049Y-95715956D01*
X196147276Y-95777419D01*
X196150000Y-95803268D01*
X196150000Y-95997844D01*
X196156401Y-96057372D01*
X196156403Y-96057379D01*
X196206645Y-96192086D01*
X196206649Y-96192093D01*
X196292809Y-96307187D01*
X196292812Y-96307190D01*
X196407906Y-96393350D01*
X196407913Y-96393354D01*
X196542620Y-96443596D01*
X196542627Y-96443598D01*
X196602155Y-96449999D01*
X196602172Y-96450000D01*
X197250000Y-96450000D01*
X197250000Y-95533012D01*
X197307007Y-95565925D01*
X197434174Y-95600000D01*
X197565826Y-95600000D01*
X197692993Y-95565925D01*
X197750000Y-95533012D01*
X197750000Y-96450000D01*
X198397828Y-96450000D01*
X198397844Y-96449999D01*
X198457372Y-96443598D01*
X198457379Y-96443596D01*
X198592086Y-96393354D01*
X198592093Y-96393350D01*
X198707187Y-96307190D01*
X198707190Y-96307187D01*
X198776234Y-96214958D01*
X198832168Y-96173087D01*
X198901859Y-96168103D01*
X198963182Y-96201589D01*
X198996666Y-96262912D01*
X198999500Y-96289269D01*
X198999500Y-98510730D01*
X198979815Y-98577769D01*
X198927011Y-98623524D01*
X198857853Y-98633468D01*
X198794297Y-98604443D01*
X198776234Y-98585042D01*
X198707187Y-98492809D01*
X198592093Y-98406649D01*
X198592086Y-98406645D01*
X198457379Y-98356403D01*
X198457372Y-98356401D01*
X198397844Y-98350000D01*
X197750000Y-98350000D01*
X197750000Y-99266988D01*
X197692993Y-99234075D01*
X197565826Y-99200000D01*
X197434174Y-99200000D01*
X197307007Y-99234075D01*
X197250000Y-99266988D01*
X197250000Y-98350000D01*
X196602155Y-98350000D01*
X196542627Y-98356401D01*
X196542620Y-98356403D01*
X196407913Y-98406645D01*
X196407906Y-98406649D01*
X196292812Y-98492809D01*
X196292809Y-98492812D01*
X196206649Y-98607906D01*
X196206645Y-98607913D01*
X196156403Y-98742620D01*
X196156401Y-98742627D01*
X196150000Y-98802155D01*
X196150000Y-98996731D01*
X196130315Y-99063770D01*
X196077511Y-99109525D01*
X196008353Y-99119469D01*
X195944797Y-99090444D01*
X195927046Y-99071458D01*
X195813872Y-98921593D01*
X195754932Y-98867862D01*
X195656302Y-98777948D01*
X195475019Y-98665702D01*
X195475017Y-98665701D01*
X195316890Y-98604443D01*
X195276198Y-98588679D01*
X195066610Y-98549500D01*
X194853390Y-98549500D01*
X194643802Y-98588679D01*
X194643799Y-98588679D01*
X194643799Y-98588680D01*
X194444982Y-98665701D01*
X194444980Y-98665702D01*
X194263699Y-98777947D01*
X194106127Y-98921593D01*
X193977632Y-99091746D01*
X193882596Y-99282605D01*
X193882596Y-99282607D01*
X193824244Y-99487689D01*
X193813471Y-99603951D01*
X193787685Y-99668888D01*
X193743130Y-99700804D01*
X193779503Y-99721668D01*
X193811693Y-99783681D01*
X193813470Y-99796047D01*
X193824244Y-99912310D01*
X193877675Y-100100099D01*
X193882596Y-100117392D01*
X193882596Y-100117394D01*
X193977632Y-100308253D01*
X194049385Y-100403268D01*
X194106128Y-100478407D01*
X194263698Y-100622052D01*
X194444981Y-100734298D01*
X194643802Y-100811321D01*
X194853390Y-100850500D01*
X194853392Y-100850500D01*
X195066608Y-100850500D01*
X195066610Y-100850500D01*
X195276198Y-100811321D01*
X195475019Y-100734298D01*
X195656302Y-100622052D01*
X195813872Y-100478407D01*
X195927047Y-100328540D01*
X195983155Y-100286905D01*
X196052867Y-100282214D01*
X196114049Y-100315956D01*
X196147276Y-100377419D01*
X196150000Y-100403268D01*
X196150000Y-100597844D01*
X196156401Y-100657372D01*
X196156403Y-100657379D01*
X196206645Y-100792086D01*
X196206649Y-100792093D01*
X196292809Y-100907187D01*
X196292812Y-100907190D01*
X196407906Y-100993350D01*
X196407913Y-100993354D01*
X196542620Y-101043596D01*
X196542627Y-101043598D01*
X196602155Y-101049999D01*
X196602172Y-101050000D01*
X197250000Y-101050000D01*
X197250000Y-100133012D01*
X197307007Y-100165925D01*
X197434174Y-100200000D01*
X197565826Y-100200000D01*
X197692993Y-100165925D01*
X197750000Y-100133012D01*
X197750000Y-101050000D01*
X198397828Y-101050000D01*
X198397844Y-101049999D01*
X198457372Y-101043598D01*
X198457379Y-101043596D01*
X198592086Y-100993354D01*
X198592093Y-100993350D01*
X198707187Y-100907190D01*
X198707190Y-100907187D01*
X198776234Y-100814958D01*
X198832168Y-100773087D01*
X198901859Y-100768103D01*
X198963182Y-100801589D01*
X198996666Y-100862912D01*
X198999500Y-100889269D01*
X198999500Y-103110730D01*
X198979815Y-103177769D01*
X198927011Y-103223524D01*
X198857853Y-103233468D01*
X198794297Y-103204443D01*
X198776234Y-103185042D01*
X198707187Y-103092809D01*
X198592093Y-103006649D01*
X198592086Y-103006645D01*
X198457379Y-102956403D01*
X198457372Y-102956401D01*
X198397844Y-102950000D01*
X197750000Y-102950000D01*
X197750000Y-103866988D01*
X197692993Y-103834075D01*
X197565826Y-103800000D01*
X197434174Y-103800000D01*
X197307007Y-103834075D01*
X197250000Y-103866988D01*
X197250000Y-102950000D01*
X196602155Y-102950000D01*
X196542627Y-102956401D01*
X196542620Y-102956403D01*
X196407913Y-103006645D01*
X196407906Y-103006649D01*
X196292812Y-103092809D01*
X196292809Y-103092812D01*
X196206649Y-103207906D01*
X196206645Y-103207913D01*
X196156403Y-103342620D01*
X196156401Y-103342627D01*
X196150000Y-103402155D01*
X196150000Y-103596731D01*
X196130315Y-103663770D01*
X196077511Y-103709525D01*
X196008353Y-103719469D01*
X195944797Y-103690444D01*
X195927046Y-103671458D01*
X195813872Y-103521593D01*
X195656302Y-103377948D01*
X195475019Y-103265702D01*
X195475017Y-103265701D01*
X195316890Y-103204443D01*
X195276198Y-103188679D01*
X195066610Y-103149500D01*
X194853390Y-103149500D01*
X194643802Y-103188679D01*
X194643799Y-103188679D01*
X194643799Y-103188680D01*
X194444982Y-103265701D01*
X194444980Y-103265702D01*
X194263699Y-103377947D01*
X194106127Y-103521593D01*
X193977632Y-103691746D01*
X193882596Y-103882605D01*
X193882596Y-103882607D01*
X193824244Y-104087689D01*
X193813471Y-104203951D01*
X193787685Y-104268888D01*
X193743130Y-104300804D01*
X193779503Y-104321668D01*
X193811693Y-104383681D01*
X193813470Y-104396047D01*
X193824244Y-104512310D01*
X193877675Y-104700099D01*
X193882596Y-104717392D01*
X193882596Y-104717394D01*
X193977632Y-104908253D01*
X194094414Y-105062895D01*
X194106128Y-105078407D01*
X194263698Y-105222052D01*
X194444981Y-105334298D01*
X194643802Y-105411321D01*
X194853390Y-105450500D01*
X194853392Y-105450500D01*
X195066608Y-105450500D01*
X195066610Y-105450500D01*
X195276198Y-105411321D01*
X195475019Y-105334298D01*
X195656302Y-105222052D01*
X195813872Y-105078407D01*
X195927047Y-104928540D01*
X195983155Y-104886905D01*
X196052867Y-104882214D01*
X196114049Y-104915956D01*
X196147276Y-104977419D01*
X196150000Y-105003268D01*
X196150000Y-105197844D01*
X196156401Y-105257372D01*
X196156403Y-105257379D01*
X196206645Y-105392086D01*
X196206649Y-105392093D01*
X196292809Y-105507187D01*
X196292812Y-105507190D01*
X196407906Y-105593350D01*
X196407913Y-105593354D01*
X196542620Y-105643596D01*
X196542627Y-105643598D01*
X196602155Y-105649999D01*
X196602172Y-105650000D01*
X197250000Y-105650000D01*
X197250000Y-104733012D01*
X197307007Y-104765925D01*
X197434174Y-104800000D01*
X197565826Y-104800000D01*
X197692993Y-104765925D01*
X197750000Y-104733012D01*
X197750000Y-105650000D01*
X198397828Y-105650000D01*
X198397844Y-105649999D01*
X198457372Y-105643598D01*
X198457379Y-105643596D01*
X198592086Y-105593354D01*
X198592093Y-105593350D01*
X198707187Y-105507190D01*
X198707190Y-105507187D01*
X198776234Y-105414958D01*
X198832168Y-105373087D01*
X198901859Y-105368103D01*
X198963182Y-105401589D01*
X198996666Y-105462912D01*
X198999500Y-105489269D01*
X198999500Y-108429820D01*
X198979815Y-108496859D01*
X198927011Y-108542614D01*
X198857853Y-108552558D01*
X198794297Y-108523533D01*
X198763118Y-108482225D01*
X198688600Y-108322422D01*
X198688599Y-108322420D01*
X198553113Y-108128926D01*
X198553108Y-108128920D01*
X198386082Y-107961894D01*
X198192578Y-107826399D01*
X197978492Y-107726570D01*
X197978486Y-107726567D01*
X197765000Y-107669364D01*
X197765000Y-108566988D01*
X197707993Y-108534075D01*
X197580826Y-108500000D01*
X197449174Y-108500000D01*
X197322007Y-108534075D01*
X197265000Y-108566988D01*
X197265000Y-107669364D01*
X197264999Y-107669364D01*
X197051513Y-107726567D01*
X197051507Y-107726570D01*
X196837422Y-107826399D01*
X196837420Y-107826400D01*
X196643926Y-107961886D01*
X196643920Y-107961891D01*
X196476891Y-108128920D01*
X196476890Y-108128922D01*
X196351074Y-108308606D01*
X196296497Y-108352230D01*
X196226998Y-108359423D01*
X196164644Y-108327901D01*
X196129230Y-108267671D01*
X196125499Y-108237482D01*
X196125499Y-108105143D01*
X196125499Y-108105136D01*
X196123112Y-108084550D01*
X196122586Y-108080012D01*
X196122585Y-108080010D01*
X196122585Y-108080009D01*
X196077206Y-107977235D01*
X195997765Y-107897794D01*
X195997763Y-107897793D01*
X195894992Y-107852415D01*
X195869865Y-107849500D01*
X194080143Y-107849500D01*
X194080117Y-107849502D01*
X194055012Y-107852413D01*
X194055008Y-107852415D01*
X193952235Y-107897793D01*
X193872794Y-107977234D01*
X193842009Y-108046956D01*
X193796923Y-108100332D01*
X193730137Y-108120859D01*
X193662855Y-108102020D01*
X193640894Y-108084550D01*
X192729864Y-107173520D01*
X192696379Y-107112197D01*
X192701363Y-107042505D01*
X192742057Y-106987464D01*
X192858282Y-106898282D01*
X192954536Y-106772841D01*
X193015044Y-106626762D01*
X193035682Y-106470000D01*
X193035340Y-106467406D01*
X193015044Y-106313239D01*
X193015044Y-106313238D01*
X192954536Y-106167159D01*
X192858282Y-106041718D01*
X192732841Y-105945464D01*
X192732839Y-105945463D01*
X192586761Y-105884955D01*
X192507916Y-105874575D01*
X192444019Y-105846308D01*
X192436421Y-105839317D01*
X192259285Y-105662181D01*
X192225800Y-105600858D01*
X192230784Y-105531166D01*
X192272656Y-105475233D01*
X192338120Y-105450816D01*
X192346966Y-105450500D01*
X192526608Y-105450500D01*
X192526610Y-105450500D01*
X192736198Y-105411321D01*
X192935019Y-105334298D01*
X193116302Y-105222052D01*
X193273872Y-105078407D01*
X193402366Y-104908255D01*
X193469534Y-104773363D01*
X193497403Y-104717394D01*
X193497403Y-104717393D01*
X193497405Y-104717389D01*
X193555756Y-104512310D01*
X193566529Y-104396047D01*
X193592315Y-104331111D01*
X193636869Y-104299194D01*
X193600497Y-104278331D01*
X193568307Y-104216318D01*
X193566529Y-104203951D01*
X193565849Y-104196613D01*
X193555756Y-104087690D01*
X193497405Y-103882611D01*
X193497403Y-103882606D01*
X193497403Y-103882605D01*
X193402367Y-103691746D01*
X193273872Y-103521593D01*
X193116302Y-103377948D01*
X192935019Y-103265702D01*
X192935017Y-103265701D01*
X192776890Y-103204443D01*
X192736198Y-103188679D01*
X192526610Y-103149500D01*
X192313390Y-103149500D01*
X192103802Y-103188679D01*
X192103799Y-103188679D01*
X192103799Y-103188680D01*
X191904982Y-103265701D01*
X191904980Y-103265702D01*
X191723699Y-103377947D01*
X191566127Y-103521593D01*
X191437632Y-103691746D01*
X191342596Y-103882605D01*
X191342596Y-103882607D01*
X191284244Y-104087689D01*
X191264571Y-104299999D01*
X191264571Y-104300002D01*
X191270411Y-104363035D01*
X191256995Y-104431605D01*
X191208638Y-104482036D01*
X191140691Y-104498317D01*
X191074729Y-104475280D01*
X191059259Y-104462156D01*
X191028708Y-104431605D01*
X190736819Y-104139715D01*
X190703334Y-104078392D01*
X190700500Y-104052034D01*
X190700500Y-99996149D01*
X190700500Y-99996147D01*
X190669799Y-99881570D01*
X190669799Y-99881569D01*
X190610489Y-99778842D01*
X190531647Y-99700000D01*
X191264571Y-99700000D01*
X191284244Y-99912310D01*
X191337675Y-100100099D01*
X191342596Y-100117392D01*
X191342596Y-100117394D01*
X191437632Y-100308253D01*
X191509385Y-100403268D01*
X191566128Y-100478407D01*
X191723698Y-100622052D01*
X191904981Y-100734298D01*
X192103802Y-100811321D01*
X192313390Y-100850500D01*
X192313392Y-100850500D01*
X192526608Y-100850500D01*
X192526610Y-100850500D01*
X192736198Y-100811321D01*
X192935019Y-100734298D01*
X193116302Y-100622052D01*
X193273872Y-100478407D01*
X193402366Y-100308255D01*
X193422877Y-100267063D01*
X193497403Y-100117394D01*
X193497403Y-100117393D01*
X193497405Y-100117389D01*
X193555756Y-99912310D01*
X193566529Y-99796047D01*
X193592315Y-99731111D01*
X193636869Y-99699194D01*
X193600497Y-99678331D01*
X193568307Y-99616318D01*
X193566529Y-99603951D01*
X193559886Y-99532264D01*
X193555756Y-99487690D01*
X193497405Y-99282611D01*
X193497403Y-99282606D01*
X193497403Y-99282605D01*
X193402367Y-99091746D01*
X193273872Y-98921593D01*
X193214932Y-98867862D01*
X193116302Y-98777948D01*
X192935019Y-98665702D01*
X192935017Y-98665701D01*
X192776890Y-98604443D01*
X192736198Y-98588679D01*
X192526610Y-98549500D01*
X192313390Y-98549500D01*
X192103802Y-98588679D01*
X192103799Y-98588679D01*
X192103799Y-98588680D01*
X191904982Y-98665701D01*
X191904980Y-98665702D01*
X191723699Y-98777947D01*
X191566127Y-98921593D01*
X191437632Y-99091746D01*
X191342596Y-99282605D01*
X191342596Y-99282607D01*
X191284244Y-99487689D01*
X191270671Y-99634174D01*
X191264571Y-99700000D01*
X190531647Y-99700000D01*
X189832953Y-99001306D01*
X189799468Y-98939983D01*
X189797697Y-98929825D01*
X189787316Y-98850966D01*
X189726808Y-98704887D01*
X189630554Y-98579446D01*
X189505113Y-98483192D01*
X189473146Y-98469951D01*
X189359034Y-98422684D01*
X189359032Y-98422683D01*
X189202273Y-98402046D01*
X189202271Y-98402046D01*
X189045511Y-98422683D01*
X189045509Y-98422684D01*
X188899432Y-98483191D01*
X188773990Y-98579446D01*
X188677735Y-98704888D01*
X188617228Y-98850965D01*
X188617227Y-98850967D01*
X188596590Y-99007726D01*
X188596590Y-99007729D01*
X188617227Y-99164488D01*
X188617228Y-99164490D01*
X188664819Y-99279386D01*
X188677736Y-99310569D01*
X188773990Y-99436010D01*
X188899431Y-99532264D01*
X189045510Y-99592772D01*
X189124355Y-99603152D01*
X189188250Y-99631417D01*
X189195850Y-99638409D01*
X189763181Y-100205740D01*
X189796666Y-100267063D01*
X189799500Y-100293421D01*
X189799500Y-103943794D01*
X189779815Y-104010833D01*
X189727011Y-104056588D01*
X189657853Y-104066532D01*
X189594297Y-104037507D01*
X189587819Y-104031475D01*
X187809997Y-102253654D01*
X187776512Y-102192331D01*
X187781496Y-102122639D01*
X187823368Y-102066706D01*
X187840044Y-102056180D01*
X187872240Y-102039283D01*
X187990483Y-101934530D01*
X188080220Y-101804523D01*
X188136237Y-101656818D01*
X188155278Y-101500000D01*
X188141086Y-101383113D01*
X188136237Y-101343181D01*
X188114992Y-101287164D01*
X188080220Y-101195477D01*
X187990483Y-101065470D01*
X187990479Y-101065466D01*
X187985509Y-101059856D01*
X187986953Y-101058576D01*
X187955145Y-101007860D01*
X187950500Y-100974240D01*
X187950500Y-98525759D01*
X187970185Y-98458720D01*
X187985846Y-98440444D01*
X187985509Y-98440145D01*
X187990481Y-98434532D01*
X187990481Y-98434531D01*
X187990483Y-98434530D01*
X188080220Y-98304523D01*
X188136237Y-98156818D01*
X188155278Y-98000000D01*
X188142959Y-97898538D01*
X188136237Y-97843181D01*
X188100897Y-97749998D01*
X188080220Y-97695477D01*
X187990483Y-97565470D01*
X187872240Y-97460717D01*
X187872238Y-97460716D01*
X187872237Y-97460715D01*
X187732365Y-97387303D01*
X187578986Y-97349500D01*
X187578985Y-97349500D01*
X187421015Y-97349500D01*
X187421014Y-97349500D01*
X187267634Y-97387303D01*
X187127762Y-97460715D01*
X187009516Y-97565471D01*
X186919781Y-97695474D01*
X186895069Y-97760634D01*
X186852890Y-97816337D01*
X186787292Y-97840393D01*
X186719102Y-97825166D01*
X186691446Y-97804343D01*
X183987103Y-95100000D01*
X191264571Y-95100000D01*
X191284244Y-95312310D01*
X191337675Y-95500099D01*
X191342596Y-95517392D01*
X191342596Y-95517394D01*
X191437632Y-95708253D01*
X191564526Y-95876286D01*
X191566128Y-95878407D01*
X191723698Y-96022052D01*
X191904981Y-96134298D01*
X192103802Y-96211321D01*
X192313390Y-96250500D01*
X192313392Y-96250500D01*
X192526608Y-96250500D01*
X192526610Y-96250500D01*
X192736198Y-96211321D01*
X192935019Y-96134298D01*
X193116302Y-96022052D01*
X193273872Y-95878407D01*
X193402366Y-95708255D01*
X193463859Y-95584759D01*
X193497403Y-95517394D01*
X193497403Y-95517393D01*
X193497405Y-95517389D01*
X193555756Y-95312310D01*
X193566529Y-95196047D01*
X193592315Y-95131111D01*
X193636869Y-95099194D01*
X193600497Y-95078331D01*
X193568307Y-95016318D01*
X193566529Y-95003951D01*
X193562706Y-94962698D01*
X193555756Y-94887690D01*
X193497405Y-94682611D01*
X193497403Y-94682606D01*
X193497403Y-94682605D01*
X193402367Y-94491746D01*
X193273872Y-94321593D01*
X193250176Y-94299991D01*
X193116302Y-94177948D01*
X192935019Y-94065702D01*
X192935017Y-94065701D01*
X192776890Y-94004443D01*
X192736198Y-93988679D01*
X192526610Y-93949500D01*
X192313390Y-93949500D01*
X192103802Y-93988679D01*
X192103799Y-93988679D01*
X192103799Y-93988680D01*
X191904982Y-94065701D01*
X191904980Y-94065702D01*
X191723699Y-94177947D01*
X191566127Y-94321593D01*
X191437632Y-94491746D01*
X191342596Y-94682605D01*
X191342596Y-94682607D01*
X191284244Y-94887689D01*
X191270671Y-95034174D01*
X191264571Y-95100000D01*
X183987103Y-95100000D01*
X183236819Y-94349716D01*
X183203334Y-94288393D01*
X183200500Y-94262035D01*
X183200500Y-93536721D01*
X183200500Y-93536719D01*
X183169799Y-93422142D01*
X183169799Y-93422141D01*
X183110489Y-93319414D01*
X182649284Y-92858209D01*
X182615799Y-92796886D01*
X182620783Y-92727194D01*
X182662655Y-92671261D01*
X182728119Y-92646844D01*
X182736965Y-92646528D01*
X184031793Y-92646528D01*
X184098832Y-92666213D01*
X184107279Y-92672152D01*
X184170369Y-92720563D01*
X184170370Y-92720563D01*
X184170371Y-92720564D01*
X184316450Y-92781072D01*
X184394831Y-92791391D01*
X184473211Y-92801710D01*
X184473212Y-92801710D01*
X184473213Y-92801710D01*
X184525466Y-92794830D01*
X184629974Y-92781072D01*
X184776053Y-92720564D01*
X184901494Y-92624310D01*
X184997748Y-92498869D01*
X185058256Y-92352790D01*
X185078894Y-92196028D01*
X185058256Y-92039266D01*
X184997748Y-91893187D01*
X184901494Y-91767746D01*
X184776053Y-91671492D01*
X184629974Y-91610984D01*
X184629972Y-91610983D01*
X184473213Y-91590346D01*
X184473211Y-91590346D01*
X184316451Y-91610983D01*
X184316449Y-91610984D01*
X184170369Y-91671492D01*
X184107279Y-91719904D01*
X184042110Y-91745098D01*
X184031793Y-91745528D01*
X181244663Y-91745528D01*
X181130086Y-91776229D01*
X181130084Y-91776230D01*
X181130082Y-91776230D01*
X181120047Y-91782023D01*
X181120048Y-91782024D01*
X181027361Y-91835536D01*
X181027356Y-91835540D01*
X178077011Y-94785885D01*
X178015688Y-94819370D01*
X177945996Y-94814386D01*
X177890063Y-94772514D01*
X177865646Y-94707050D01*
X177866233Y-94683263D01*
X177875860Y-94603984D01*
X177856819Y-94447166D01*
X177856087Y-94445237D01*
X177828402Y-94372236D01*
X177800802Y-94299461D01*
X177711065Y-94169454D01*
X177592822Y-94064701D01*
X177592820Y-94064700D01*
X177592819Y-94064699D01*
X177452947Y-93991287D01*
X177299568Y-93953484D01*
X177299567Y-93953484D01*
X177222711Y-93953484D01*
X177155672Y-93933799D01*
X177135030Y-93917165D01*
X176129319Y-92911454D01*
X175118622Y-91900758D01*
X175085138Y-91839436D01*
X175090122Y-91769744D01*
X175130818Y-91714702D01*
X175163963Y-91689269D01*
X175178282Y-91678282D01*
X175274536Y-91552841D01*
X175335044Y-91406762D01*
X175355682Y-91250000D01*
X175335044Y-91093238D01*
X175309939Y-91032628D01*
X175300500Y-90985176D01*
X175300500Y-90484500D01*
X175320185Y-90417461D01*
X175372989Y-90371706D01*
X175424500Y-90360500D01*
X177177472Y-90360500D01*
X177177474Y-90360500D01*
X177177475Y-90360500D01*
X177317485Y-90322984D01*
X177352374Y-90302841D01*
X177443015Y-90250510D01*
X179945510Y-87748014D01*
X180017984Y-87622485D01*
X180055500Y-87482474D01*
X180055500Y-87337525D01*
X180055500Y-85359115D01*
X180075185Y-85292076D01*
X180104011Y-85260742D01*
X180133282Y-85238282D01*
X180229536Y-85112841D01*
X180290044Y-84966762D01*
X180310682Y-84810000D01*
X180309950Y-84804443D01*
X180297481Y-84709729D01*
X180308246Y-84640694D01*
X180354626Y-84588438D01*
X180421895Y-84569553D01*
X180488696Y-84590034D01*
X180508101Y-84605863D01*
X186347347Y-90445109D01*
X186450074Y-90504419D01*
X186474282Y-90510904D01*
X186474285Y-90510906D01*
X186474286Y-90510906D01*
X186504408Y-90518977D01*
X186564652Y-90535120D01*
X188308581Y-90535120D01*
X188375620Y-90554805D01*
X188384067Y-90560744D01*
X188447157Y-90609155D01*
X188447158Y-90609155D01*
X188447159Y-90609156D01*
X188593238Y-90669664D01*
X188671619Y-90679983D01*
X188749999Y-90690302D01*
X188750000Y-90690302D01*
X188750001Y-90690302D01*
X188802254Y-90683422D01*
X188906762Y-90669664D01*
X189052841Y-90609156D01*
X189178282Y-90512902D01*
X189188182Y-90500000D01*
X191264571Y-90500000D01*
X191284244Y-90712310D01*
X191337675Y-90900099D01*
X191342596Y-90917392D01*
X191342596Y-90917394D01*
X191437632Y-91108253D01*
X191566127Y-91278406D01*
X191566128Y-91278407D01*
X191723698Y-91422052D01*
X191904981Y-91534298D01*
X192103802Y-91611321D01*
X192313390Y-91650500D01*
X192313392Y-91650500D01*
X192526608Y-91650500D01*
X192526610Y-91650500D01*
X192736198Y-91611321D01*
X192935019Y-91534298D01*
X193116302Y-91422052D01*
X193273872Y-91278407D01*
X193402366Y-91108255D01*
X193409844Y-91093238D01*
X193497403Y-90917394D01*
X193497403Y-90917393D01*
X193497405Y-90917389D01*
X193555756Y-90712310D01*
X193566529Y-90596047D01*
X193592315Y-90531111D01*
X193636869Y-90499194D01*
X193600497Y-90478331D01*
X193568307Y-90416318D01*
X193566529Y-90403951D01*
X193563541Y-90371706D01*
X193555756Y-90287690D01*
X193497405Y-90082611D01*
X193497403Y-90082606D01*
X193497403Y-90082605D01*
X193402367Y-89891746D01*
X193273872Y-89721593D01*
X193177919Y-89634120D01*
X193116302Y-89577948D01*
X192935019Y-89465702D01*
X192935017Y-89465701D01*
X192776890Y-89404443D01*
X192736198Y-89388679D01*
X192526610Y-89349500D01*
X192313390Y-89349500D01*
X192103802Y-89388679D01*
X192103799Y-89388679D01*
X192103799Y-89388680D01*
X191904982Y-89465701D01*
X191904980Y-89465702D01*
X191723699Y-89577947D01*
X191566127Y-89721593D01*
X191437632Y-89891746D01*
X191342596Y-90082605D01*
X191342596Y-90082607D01*
X191284244Y-90287689D01*
X191269658Y-90445106D01*
X191264571Y-90500000D01*
X189188182Y-90500000D01*
X189274536Y-90387461D01*
X189335044Y-90241382D01*
X189355682Y-90084620D01*
X189351710Y-90054452D01*
X189341923Y-89980112D01*
X189335044Y-89927858D01*
X189274536Y-89781779D01*
X189178282Y-89656338D01*
X189052841Y-89560084D01*
X189010679Y-89542620D01*
X188906762Y-89499576D01*
X188906760Y-89499575D01*
X188750001Y-89478938D01*
X188749999Y-89478938D01*
X188593239Y-89499575D01*
X188593237Y-89499576D01*
X188447157Y-89560084D01*
X188384067Y-89608496D01*
X188318898Y-89633690D01*
X188308581Y-89634120D01*
X186861926Y-89634120D01*
X186794887Y-89614435D01*
X186774245Y-89597801D01*
X183076444Y-85900000D01*
X191264571Y-85900000D01*
X191284244Y-86112310D01*
X191337675Y-86300099D01*
X191342596Y-86317392D01*
X191342596Y-86317394D01*
X191437632Y-86508253D01*
X191566127Y-86678406D01*
X191566128Y-86678407D01*
X191723698Y-86822052D01*
X191904981Y-86934298D01*
X192103802Y-87011321D01*
X192313390Y-87050500D01*
X192313392Y-87050500D01*
X192526608Y-87050500D01*
X192526610Y-87050500D01*
X192736198Y-87011321D01*
X192935019Y-86934298D01*
X193116302Y-86822052D01*
X193273872Y-86678407D01*
X193402366Y-86508255D01*
X193456270Y-86400000D01*
X193497403Y-86317394D01*
X193497403Y-86317393D01*
X193497405Y-86317389D01*
X193555756Y-86112310D01*
X193566529Y-85996047D01*
X193592315Y-85931111D01*
X193636869Y-85899194D01*
X193600497Y-85878331D01*
X193568307Y-85816318D01*
X193566529Y-85803951D01*
X193559256Y-85725463D01*
X193555756Y-85687690D01*
X193497405Y-85482611D01*
X193497403Y-85482606D01*
X193497403Y-85482605D01*
X193402367Y-85291746D01*
X193273872Y-85121593D01*
X193223270Y-85075463D01*
X193116302Y-84977948D01*
X192935019Y-84865702D01*
X192935017Y-84865701D01*
X192791234Y-84810000D01*
X192736198Y-84788679D01*
X192526610Y-84749500D01*
X192313390Y-84749500D01*
X192103802Y-84788679D01*
X192103799Y-84788679D01*
X192103799Y-84788680D01*
X191904982Y-84865701D01*
X191904980Y-84865702D01*
X191723699Y-84977947D01*
X191566127Y-85121593D01*
X191437632Y-85291746D01*
X191342596Y-85482605D01*
X191342596Y-85482607D01*
X191284244Y-85687689D01*
X191270671Y-85834174D01*
X191264571Y-85900000D01*
X183076444Y-85900000D01*
X180880681Y-83704237D01*
X180847196Y-83642914D01*
X180845425Y-83632756D01*
X180835044Y-83553897D01*
X180774536Y-83407818D01*
X180678282Y-83282377D01*
X180552841Y-83186123D01*
X180406762Y-83125615D01*
X180406760Y-83125614D01*
X180250001Y-83104977D01*
X180249999Y-83104977D01*
X180093239Y-83125614D01*
X180093237Y-83125615D01*
X179947160Y-83186122D01*
X179821718Y-83282377D01*
X179725463Y-83407819D01*
X179664956Y-83553896D01*
X179664955Y-83553898D01*
X179644318Y-83710657D01*
X179644318Y-83710660D01*
X179664955Y-83867419D01*
X179664956Y-83867421D01*
X179725464Y-84013500D01*
X179725826Y-84013972D01*
X179726008Y-84014443D01*
X179729528Y-84020540D01*
X179728577Y-84021088D01*
X179751019Y-84079141D01*
X179736980Y-84147586D01*
X179688165Y-84197575D01*
X179643635Y-84212396D01*
X179561535Y-84223205D01*
X179548238Y-84224956D01*
X179548237Y-84224956D01*
X179402160Y-84285463D01*
X179276716Y-84381719D01*
X179180464Y-84507158D01*
X179180461Y-84507163D01*
X179155357Y-84567768D01*
X179128479Y-84607993D01*
X179064490Y-84671983D01*
X179004371Y-84776114D01*
X178994485Y-84793239D01*
X178992016Y-84797515D01*
X178954500Y-84937525D01*
X178954500Y-84937527D01*
X178954500Y-85960633D01*
X178934815Y-86027672D01*
X178882011Y-86073427D01*
X178812853Y-86083371D01*
X178783047Y-86075194D01*
X178661761Y-86024955D01*
X178582915Y-86014575D01*
X178519018Y-85986308D01*
X178511420Y-85979317D01*
X177121616Y-84589513D01*
X177121614Y-84589511D01*
X177064270Y-84556403D01*
X177018885Y-84530199D01*
X176987228Y-84521718D01*
X176932907Y-84507163D01*
X176904309Y-84499500D01*
X176904308Y-84499500D01*
X168691419Y-84499500D01*
X168624380Y-84479815D01*
X168615933Y-84473876D01*
X168552842Y-84425464D01*
X168406762Y-84364956D01*
X168406760Y-84364955D01*
X168250001Y-84344318D01*
X168249999Y-84344318D01*
X168093239Y-84364955D01*
X168093237Y-84364956D01*
X167947160Y-84425463D01*
X167821718Y-84521718D01*
X167725463Y-84647160D01*
X167664956Y-84793237D01*
X167664955Y-84793239D01*
X167644318Y-84949998D01*
X167644318Y-84950000D01*
X167647997Y-84977948D01*
X167652127Y-85009314D01*
X167641362Y-85078350D01*
X167594982Y-85130606D01*
X167529188Y-85149500D01*
X160191419Y-85149500D01*
X160124380Y-85129815D01*
X160115933Y-85123876D01*
X160052842Y-85075464D01*
X159906762Y-85014956D01*
X159906760Y-85014955D01*
X159750001Y-84994318D01*
X159749999Y-84994318D01*
X159593239Y-85014955D01*
X159593237Y-85014956D01*
X159447160Y-85075463D01*
X159321718Y-85171718D01*
X159225463Y-85297160D01*
X159164956Y-85443237D01*
X159164956Y-85443239D01*
X159147563Y-85575346D01*
X159119296Y-85639242D01*
X159072077Y-85673721D01*
X158947160Y-85725463D01*
X158821718Y-85821718D01*
X158725463Y-85947160D01*
X158664956Y-86093237D01*
X158664955Y-86093239D01*
X158644318Y-86249998D01*
X158644318Y-86250001D01*
X158664955Y-86406760D01*
X158664956Y-86406762D01*
X158715398Y-86528541D01*
X158725464Y-86552841D01*
X158821718Y-86678282D01*
X158947159Y-86774536D01*
X159093238Y-86835044D01*
X159171619Y-86845363D01*
X159249999Y-86855682D01*
X159250000Y-86855682D01*
X159250001Y-86855682D01*
X159302254Y-86848802D01*
X159406762Y-86835044D01*
X159552841Y-86774536D01*
X159615933Y-86726123D01*
X159681102Y-86700930D01*
X159691419Y-86700500D01*
X175543942Y-86700500D01*
X175610981Y-86720185D01*
X175631623Y-86736819D01*
X176392883Y-87498079D01*
X176426368Y-87559402D01*
X176428141Y-87569574D01*
X176438521Y-87648420D01*
X176479773Y-87748010D01*
X176499030Y-87794500D01*
X176595284Y-87919941D01*
X176720725Y-88016195D01*
X176866804Y-88076703D01*
X176945185Y-88087022D01*
X177023565Y-88097341D01*
X177023566Y-88097341D01*
X177023567Y-88097341D01*
X177075820Y-88090461D01*
X177180328Y-88076703D01*
X177326407Y-88016195D01*
X177451848Y-87919941D01*
X177548102Y-87794500D01*
X177590464Y-87692228D01*
X177634305Y-87637826D01*
X177696971Y-87616968D01*
X177696942Y-87616743D01*
X177698110Y-87616589D01*
X177700599Y-87615761D01*
X177704997Y-87615682D01*
X177704998Y-87615681D01*
X177705000Y-87615682D01*
X177861762Y-87595044D01*
X178007841Y-87534536D01*
X178133282Y-87438282D01*
X178229536Y-87312841D01*
X178245533Y-87274220D01*
X178289371Y-87219819D01*
X178355665Y-87197753D01*
X178376271Y-87198734D01*
X178505000Y-87215682D01*
X178621667Y-87200322D01*
X178690700Y-87211087D01*
X178742956Y-87257467D01*
X178761842Y-87324736D01*
X178741362Y-87391536D01*
X178725532Y-87410942D01*
X176913294Y-89223181D01*
X176851971Y-89256666D01*
X176825613Y-89259500D01*
X175545882Y-89259500D01*
X175478843Y-89239815D01*
X175433088Y-89187011D01*
X175422943Y-89151685D01*
X175422721Y-89150000D01*
X175410500Y-89057168D01*
X175349992Y-88911089D01*
X175253738Y-88785648D01*
X175128297Y-88689394D01*
X174982218Y-88628886D01*
X174982216Y-88628885D01*
X174825457Y-88608248D01*
X174825455Y-88608248D01*
X174668695Y-88628885D01*
X174668693Y-88628886D01*
X174522616Y-88689393D01*
X174397174Y-88785648D01*
X174300919Y-88911090D01*
X174240413Y-89057165D01*
X174240411Y-89057171D01*
X174239645Y-89062991D01*
X174236482Y-89078893D01*
X174199500Y-89216911D01*
X174199500Y-89837770D01*
X174179815Y-89904809D01*
X174127011Y-89950564D01*
X174057853Y-89960508D01*
X174045827Y-89958167D01*
X173985251Y-89943237D01*
X173985248Y-89943237D01*
X173827278Y-89943237D01*
X173827277Y-89943237D01*
X173673897Y-89981040D01*
X173534025Y-90054452D01*
X173415779Y-90159208D01*
X173326044Y-90289212D01*
X173326043Y-90289213D01*
X173270025Y-90436918D01*
X173250985Y-90593736D01*
X173250985Y-90593737D01*
X173270025Y-90750555D01*
X173291435Y-90807007D01*
X173326043Y-90898260D01*
X173339247Y-90917389D01*
X173415781Y-91028269D01*
X173420754Y-91033882D01*
X173419307Y-91035163D01*
X173451113Y-91085857D01*
X173455763Y-91119496D01*
X173455763Y-91384811D01*
X173465742Y-91422052D01*
X173486464Y-91499389D01*
X173545774Y-91602116D01*
X173545776Y-91602118D01*
X176537487Y-94593829D01*
X176570972Y-94655152D01*
X176572902Y-94666563D01*
X176584345Y-94760803D01*
X176611168Y-94831529D01*
X176616535Y-94901192D01*
X176583388Y-94962698D01*
X176522249Y-94996520D01*
X176495226Y-94999500D01*
X175116364Y-94999500D01*
X175035535Y-95021158D01*
X175035534Y-95021157D01*
X175001787Y-95030200D01*
X175001784Y-95030201D01*
X174899059Y-95089511D01*
X174899056Y-95089513D01*
X173925389Y-96063181D01*
X173864066Y-96096666D01*
X173837708Y-96099500D01*
X171041419Y-96099500D01*
X170974380Y-96079815D01*
X170965933Y-96073876D01*
X170902840Y-96025463D01*
X170902839Y-96025462D01*
X170894384Y-96021960D01*
X170839982Y-95978117D01*
X170817920Y-95911822D01*
X170835202Y-95844123D01*
X170886341Y-95796515D01*
X170914262Y-95786507D01*
X170919246Y-95785368D01*
X170919255Y-95785368D01*
X171089522Y-95725789D01*
X171242262Y-95629816D01*
X171287319Y-95584759D01*
X171348642Y-95551274D01*
X171418334Y-95556258D01*
X171462681Y-95584759D01*
X171507738Y-95629816D01*
X171591129Y-95682214D01*
X171632569Y-95708253D01*
X171660478Y-95725789D01*
X171772031Y-95764823D01*
X171830745Y-95785368D01*
X171830750Y-95785369D01*
X172009996Y-95805565D01*
X172010000Y-95805565D01*
X172010004Y-95805565D01*
X172189249Y-95785369D01*
X172189252Y-95785368D01*
X172189255Y-95785368D01*
X172359522Y-95725789D01*
X172512262Y-95629816D01*
X172557319Y-95584759D01*
X172618642Y-95551274D01*
X172688334Y-95556258D01*
X172732681Y-95584759D01*
X172777738Y-95629816D01*
X172861129Y-95682214D01*
X172902569Y-95708253D01*
X172930478Y-95725789D01*
X173042031Y-95764823D01*
X173100745Y-95785368D01*
X173100750Y-95785369D01*
X173279996Y-95805565D01*
X173280000Y-95805565D01*
X173280004Y-95805565D01*
X173459249Y-95785369D01*
X173459252Y-95785368D01*
X173459255Y-95785368D01*
X173629522Y-95725789D01*
X173782262Y-95629816D01*
X173909816Y-95502262D01*
X174005789Y-95349522D01*
X174065368Y-95179255D01*
X174066881Y-95165826D01*
X174085565Y-95000003D01*
X174085565Y-94999996D01*
X174065369Y-94820750D01*
X174065366Y-94820737D01*
X174009280Y-94660456D01*
X174005789Y-94650478D01*
X174005789Y-94650477D01*
X173973006Y-94598304D01*
X173954006Y-94531068D01*
X173974374Y-94464232D01*
X173990315Y-94444655D01*
X174032206Y-94402765D01*
X174077585Y-94299991D01*
X174080500Y-94274865D01*
X174080499Y-93185136D01*
X174080497Y-93185117D01*
X174077586Y-93160012D01*
X174077585Y-93160010D01*
X174077585Y-93160009D01*
X174032206Y-93057235D01*
X173952765Y-92977794D01*
X173849992Y-92932415D01*
X173824865Y-92929500D01*
X172735143Y-92929500D01*
X172735119Y-92929502D01*
X172710010Y-92932414D01*
X172701005Y-92934864D01*
X172700050Y-92931355D01*
X172648279Y-92938091D01*
X172588908Y-92911454D01*
X172568254Y-92894504D01*
X172568253Y-92894503D01*
X172394541Y-92801652D01*
X172260000Y-92760839D01*
X172260000Y-93520382D01*
X172209554Y-93469936D01*
X172135445Y-93427149D01*
X172052787Y-93405000D01*
X171967213Y-93405000D01*
X171884555Y-93427149D01*
X171810446Y-93469936D01*
X171749936Y-93530446D01*
X171707149Y-93604555D01*
X171685000Y-93687213D01*
X171685000Y-93772787D01*
X171707149Y-93855445D01*
X171749936Y-93929554D01*
X171800382Y-93980000D01*
X170949618Y-93980000D01*
X171000064Y-93929554D01*
X171042851Y-93855445D01*
X171065000Y-93772787D01*
X171065000Y-93687213D01*
X171042851Y-93604555D01*
X171000064Y-93530446D01*
X170939554Y-93469936D01*
X170865445Y-93427149D01*
X170782787Y-93405000D01*
X170697213Y-93405000D01*
X170614555Y-93427149D01*
X170540446Y-93469936D01*
X170490000Y-93520382D01*
X170490000Y-92760839D01*
X170990000Y-92760839D01*
X170990000Y-93480000D01*
X171760000Y-93480000D01*
X171760000Y-92760839D01*
X171759999Y-92760839D01*
X171625458Y-92801652D01*
X171451746Y-92894503D01*
X171446678Y-92897890D01*
X171445641Y-92896338D01*
X171389339Y-92920242D01*
X171320473Y-92908442D01*
X171303541Y-92897560D01*
X171303322Y-92897890D01*
X171298253Y-92894503D01*
X171124541Y-92801652D01*
X170990000Y-92760839D01*
X170490000Y-92760839D01*
X170489999Y-92760839D01*
X170355458Y-92801652D01*
X170181746Y-92894503D01*
X170181739Y-92894507D01*
X170029471Y-93019471D01*
X170027745Y-93021198D01*
X170026619Y-93021812D01*
X170024763Y-93023336D01*
X170024473Y-93022983D01*
X169966419Y-93054677D01*
X169896728Y-93049687D01*
X169874100Y-93038503D01*
X169819527Y-93004213D01*
X169819518Y-93004209D01*
X169649262Y-92944633D01*
X169649249Y-92944630D01*
X169470004Y-92924435D01*
X169469996Y-92924435D01*
X169290750Y-92944630D01*
X169290737Y-92944633D01*
X169120482Y-93004208D01*
X169065899Y-93038505D01*
X168998662Y-93057504D01*
X168931827Y-93037135D01*
X168912239Y-93021184D01*
X168910520Y-93019465D01*
X168758260Y-92894507D01*
X168758253Y-92894503D01*
X168584541Y-92801652D01*
X168450000Y-92760839D01*
X168450000Y-93520382D01*
X168399554Y-93469936D01*
X168325445Y-93427149D01*
X168242787Y-93405000D01*
X168157213Y-93405000D01*
X168074555Y-93427149D01*
X168000446Y-93469936D01*
X167939936Y-93530446D01*
X167897149Y-93604555D01*
X167875000Y-93687213D01*
X167875000Y-93772787D01*
X167897149Y-93855445D01*
X167939936Y-93929554D01*
X167990382Y-93980000D01*
X167230840Y-93980000D01*
X167271652Y-94114541D01*
X167364503Y-94288253D01*
X167364507Y-94288260D01*
X167489465Y-94440520D01*
X167491184Y-94442239D01*
X167491797Y-94443362D01*
X167493336Y-94445237D01*
X167492980Y-94445528D01*
X167524674Y-94503560D01*
X167519695Y-94573252D01*
X167508505Y-94595899D01*
X167474208Y-94650482D01*
X167414633Y-94820737D01*
X167414630Y-94820750D01*
X167394435Y-94999996D01*
X167394435Y-95000003D01*
X167414630Y-95179249D01*
X167414631Y-95179254D01*
X167474211Y-95349523D01*
X167510331Y-95407007D01*
X167570184Y-95502262D01*
X167697738Y-95629816D01*
X167781129Y-95682214D01*
X167822569Y-95708253D01*
X167850478Y-95725789D01*
X167962031Y-95764823D01*
X168020745Y-95785368D01*
X168020750Y-95785369D01*
X168199996Y-95805565D01*
X168200000Y-95805565D01*
X168200004Y-95805565D01*
X168379249Y-95785369D01*
X168379252Y-95785368D01*
X168379255Y-95785368D01*
X168549522Y-95725789D01*
X168702262Y-95629816D01*
X168747319Y-95584759D01*
X168808642Y-95551274D01*
X168878334Y-95556258D01*
X168922681Y-95584759D01*
X168967738Y-95629816D01*
X169051129Y-95682214D01*
X169092569Y-95708253D01*
X169120478Y-95725789D01*
X169232031Y-95764823D01*
X169290745Y-95785368D01*
X169290750Y-95785369D01*
X169469996Y-95805565D01*
X169470000Y-95805565D01*
X169470004Y-95805565D01*
X169649249Y-95785369D01*
X169649252Y-95785368D01*
X169649255Y-95785368D01*
X169819522Y-95725789D01*
X169972262Y-95629816D01*
X170017319Y-95584759D01*
X170078642Y-95551274D01*
X170148334Y-95556258D01*
X170192681Y-95584759D01*
X170237738Y-95629816D01*
X170390478Y-95725789D01*
X170398343Y-95728541D01*
X170425452Y-95738027D01*
X170482229Y-95778748D01*
X170507977Y-95843700D01*
X170494522Y-95912262D01*
X170446135Y-95962666D01*
X170431952Y-95969630D01*
X170297160Y-96025463D01*
X170171718Y-96121718D01*
X170075463Y-96247160D01*
X170014956Y-96393237D01*
X170014955Y-96393239D01*
X169994318Y-96549998D01*
X169994318Y-96550001D01*
X170014955Y-96706760D01*
X170014956Y-96706762D01*
X170071484Y-96843234D01*
X170075464Y-96852841D01*
X170171718Y-96978282D01*
X170297159Y-97074536D01*
X170443238Y-97135044D01*
X170521619Y-97145363D01*
X170599999Y-97155682D01*
X170600000Y-97155682D01*
X170600001Y-97155682D01*
X170652254Y-97148802D01*
X170756762Y-97135044D01*
X170902841Y-97074536D01*
X170965933Y-97026123D01*
X171031102Y-97000930D01*
X171041419Y-97000500D01*
X174134981Y-97000500D01*
X174134982Y-97000500D01*
X174225346Y-96976286D01*
X174249560Y-96969799D01*
X174352287Y-96910489D01*
X175325957Y-95936819D01*
X175387280Y-95903334D01*
X175413638Y-95900500D01*
X178109308Y-95900500D01*
X178109309Y-95900500D01*
X178191758Y-95878407D01*
X178199666Y-95876288D01*
X178199667Y-95876287D01*
X178199673Y-95876286D01*
X178223887Y-95869799D01*
X178326614Y-95810489D01*
X181204509Y-92932592D01*
X181265830Y-92899109D01*
X181335522Y-92904093D01*
X181391455Y-92945965D01*
X181411544Y-92995290D01*
X181412853Y-92994940D01*
X181414956Y-93002790D01*
X181475464Y-93148870D01*
X181553075Y-93250014D01*
X181578269Y-93315183D01*
X181564231Y-93383628D01*
X181515417Y-93433617D01*
X181454699Y-93449500D01*
X181390691Y-93449500D01*
X181307772Y-93471718D01*
X181307771Y-93471718D01*
X181276115Y-93480199D01*
X181173386Y-93539511D01*
X181173383Y-93539513D01*
X178639513Y-96073383D01*
X178639509Y-96073389D01*
X178580201Y-96176112D01*
X178580200Y-96176117D01*
X178549500Y-96290691D01*
X178549500Y-97538004D01*
X178540062Y-97585455D01*
X178536838Y-97593237D01*
X178536837Y-97593239D01*
X178519778Y-97722819D01*
X178516200Y-97750000D01*
X178523354Y-97804343D01*
X178524009Y-97809314D01*
X178513244Y-97878350D01*
X178466864Y-97930606D01*
X178401070Y-97949500D01*
X177879387Y-97949500D01*
X177812348Y-97929815D01*
X177791706Y-97913181D01*
X177728311Y-97849786D01*
X177694826Y-97788463D01*
X177693053Y-97745923D01*
X177705682Y-97650000D01*
X177699847Y-97605682D01*
X177685044Y-97493239D01*
X177685044Y-97493238D01*
X177624536Y-97347159D01*
X177528282Y-97221718D01*
X177402841Y-97125464D01*
X177256762Y-97064956D01*
X177256760Y-97064955D01*
X177100001Y-97044318D01*
X177099999Y-97044318D01*
X176943239Y-97064955D01*
X176943237Y-97064956D01*
X176797160Y-97125463D01*
X176671718Y-97221718D01*
X176575463Y-97347160D01*
X176514956Y-97493237D01*
X176514955Y-97493239D01*
X176494318Y-97649998D01*
X176494318Y-97655780D01*
X176474633Y-97722819D01*
X176421829Y-97768574D01*
X176386504Y-97778719D01*
X176237690Y-97798311D01*
X176237689Y-97798311D01*
X176091612Y-97858818D01*
X175966170Y-97955073D01*
X175869914Y-98080516D01*
X175831627Y-98172952D01*
X175787786Y-98227356D01*
X175721492Y-98249421D01*
X175717066Y-98249500D01*
X175041419Y-98249500D01*
X174974380Y-98229815D01*
X174965933Y-98223876D01*
X174902842Y-98175464D01*
X174756762Y-98114956D01*
X174756760Y-98114955D01*
X174600001Y-98094318D01*
X174599999Y-98094318D01*
X174443239Y-98114955D01*
X174443237Y-98114956D01*
X174297160Y-98175463D01*
X174171718Y-98271718D01*
X174075463Y-98397160D01*
X174014956Y-98543237D01*
X174014955Y-98543239D01*
X173994318Y-98699998D01*
X173994318Y-98700001D01*
X174014955Y-98856760D01*
X174014956Y-98856762D01*
X174051702Y-98945476D01*
X174075464Y-99002841D01*
X174171718Y-99128282D01*
X174297159Y-99224536D01*
X174443238Y-99285044D01*
X174521619Y-99295363D01*
X174599999Y-99305682D01*
X174600000Y-99305682D01*
X174600001Y-99305682D01*
X174652254Y-99298802D01*
X174756762Y-99285044D01*
X174902841Y-99224536D01*
X174965933Y-99176123D01*
X175031102Y-99150930D01*
X175041419Y-99150500D01*
X176137115Y-99150500D01*
X176137116Y-99150500D01*
X176227480Y-99126286D01*
X176251694Y-99119799D01*
X176354421Y-99060489D01*
X176400874Y-99014035D01*
X176462195Y-98980551D01*
X176472350Y-98978781D01*
X176551214Y-98968399D01*
X176697293Y-98907891D01*
X176822734Y-98811637D01*
X176871416Y-98748192D01*
X176927844Y-98706990D01*
X176997590Y-98702835D01*
X177057473Y-98735998D01*
X177261985Y-98940510D01*
X177261987Y-98940511D01*
X177261991Y-98940514D01*
X177348747Y-98990602D01*
X177348750Y-98990603D01*
X177348755Y-98990606D01*
X177387515Y-99012984D01*
X177527525Y-99050500D01*
X177527526Y-99050500D01*
X177672474Y-99050500D01*
X179220613Y-99050500D01*
X179287652Y-99070185D01*
X179308294Y-99086819D01*
X179661985Y-99440510D01*
X179661987Y-99440511D01*
X179661991Y-99440514D01*
X179758201Y-99496060D01*
X179758203Y-99496061D01*
X179758207Y-99496063D01*
X179787515Y-99512984D01*
X179927525Y-99550500D01*
X179927526Y-99550500D01*
X180072474Y-99550500D01*
X181738000Y-99550500D01*
X181805039Y-99570185D01*
X181850794Y-99622989D01*
X181862000Y-99674500D01*
X181862000Y-101734975D01*
X181880636Y-101804523D01*
X181891205Y-101843967D01*
X181891205Y-101843969D01*
X181899514Y-101874982D01*
X181899516Y-101874985D01*
X181971990Y-102000515D01*
X187911986Y-107940510D01*
X187947166Y-107960821D01*
X188037511Y-108012982D01*
X188037512Y-108012982D01*
X188037515Y-108012984D01*
X188177525Y-108050500D01*
X188177526Y-108050500D01*
X188322474Y-108050500D01*
X189485177Y-108050500D01*
X189532629Y-108059938D01*
X189593238Y-108085044D01*
X189671619Y-108095363D01*
X189749999Y-108105682D01*
X189750000Y-108105682D01*
X189750001Y-108105682D01*
X189802254Y-108098802D01*
X189906762Y-108085044D01*
X190052841Y-108024536D01*
X190178282Y-107928282D01*
X190274536Y-107802841D01*
X190335044Y-107656762D01*
X190355682Y-107500000D01*
X190343989Y-107411186D01*
X190336458Y-107353976D01*
X190335044Y-107343238D01*
X190274536Y-107197159D01*
X190178282Y-107071718D01*
X190052841Y-106975464D01*
X189990158Y-106949500D01*
X189906762Y-106914956D01*
X189906760Y-106914955D01*
X189750001Y-106894318D01*
X189749999Y-106894318D01*
X189593239Y-106914955D01*
X189593237Y-106914956D01*
X189532630Y-106940061D01*
X189485177Y-106949500D01*
X188529386Y-106949500D01*
X188462347Y-106929815D01*
X188441705Y-106913181D01*
X182999319Y-101470794D01*
X182965834Y-101409471D01*
X182963000Y-101383113D01*
X182963000Y-99279386D01*
X182982685Y-99212347D01*
X182999315Y-99191709D01*
X183202006Y-98989017D01*
X183242228Y-98962141D01*
X183302841Y-98937036D01*
X183428282Y-98840782D01*
X183524536Y-98715341D01*
X183585044Y-98569262D01*
X183602003Y-98440444D01*
X183605682Y-98412501D01*
X183605682Y-98412498D01*
X183585044Y-98255739D01*
X183585044Y-98255738D01*
X183524536Y-98109659D01*
X183428282Y-97984218D01*
X183302841Y-97887964D01*
X183232476Y-97858818D01*
X183156762Y-97827456D01*
X183156760Y-97827455D01*
X183000001Y-97806818D01*
X182999999Y-97806818D01*
X182843239Y-97827455D01*
X182843237Y-97827456D01*
X182697160Y-97887963D01*
X182571716Y-97984219D01*
X182475464Y-98109658D01*
X182475464Y-98109659D01*
X182450358Y-98170269D01*
X182423478Y-98210496D01*
X182220794Y-98413181D01*
X182159471Y-98446666D01*
X182133113Y-98449500D01*
X180827526Y-98449500D01*
X180760487Y-98429815D01*
X180714732Y-98377011D01*
X180704587Y-98341685D01*
X180702525Y-98326024D01*
X180685044Y-98193238D01*
X180624536Y-98047159D01*
X180528282Y-97921718D01*
X180402841Y-97825464D01*
X180357171Y-97806547D01*
X180256762Y-97764956D01*
X180256760Y-97764955D01*
X180100001Y-97744318D01*
X180099999Y-97744318D01*
X179943240Y-97764955D01*
X179943238Y-97764956D01*
X179912537Y-97777673D01*
X179889882Y-97787057D01*
X179820412Y-97794525D01*
X179757933Y-97763249D01*
X179722281Y-97703160D01*
X179719491Y-97688680D01*
X179714399Y-97649999D01*
X179706926Y-97593238D01*
X179646418Y-97447159D01*
X179550164Y-97321718D01*
X179525560Y-97302839D01*
X179499013Y-97282468D01*
X179457811Y-97226040D01*
X179450500Y-97184093D01*
X179450500Y-96587965D01*
X179470185Y-96520926D01*
X179486819Y-96500284D01*
X180493092Y-95494011D01*
X181587528Y-94399574D01*
X181648849Y-94366091D01*
X181718541Y-94371075D01*
X181750694Y-94388882D01*
X181797157Y-94424535D01*
X181797158Y-94424535D01*
X181797159Y-94424536D01*
X181943238Y-94485044D01*
X182100000Y-94505682D01*
X182171008Y-94496333D01*
X182240041Y-94507098D01*
X182292297Y-94553477D01*
X182306966Y-94587174D01*
X182310738Y-94601251D01*
X182310743Y-94601267D01*
X182330201Y-94673887D01*
X182389511Y-94776614D01*
X182389513Y-94776616D01*
X186313181Y-98700284D01*
X186346666Y-98761607D01*
X186349500Y-98787965D01*
X186349500Y-101940069D01*
X186365697Y-102000517D01*
X186380199Y-102054645D01*
X186387163Y-102066706D01*
X186439511Y-102157374D01*
X186439513Y-102157376D01*
X193288181Y-109006044D01*
X193321666Y-109067367D01*
X193324500Y-109093725D01*
X193324500Y-110834309D01*
X193343719Y-110906035D01*
X193355199Y-110948885D01*
X193370399Y-110975211D01*
X193414511Y-111051614D01*
X193414513Y-111051616D01*
X193619317Y-111256420D01*
X193652802Y-111317743D01*
X193654575Y-111327915D01*
X193664955Y-111406761D01*
X193709411Y-111514086D01*
X193725464Y-111552841D01*
X193821718Y-111678282D01*
X193947159Y-111774536D01*
X194093238Y-111835044D01*
X194171619Y-111845363D01*
X194249999Y-111855682D01*
X194250000Y-111855682D01*
X194250001Y-111855682D01*
X194302254Y-111848802D01*
X194406762Y-111835044D01*
X194552841Y-111774536D01*
X194678282Y-111678282D01*
X194774536Y-111552841D01*
X194835044Y-111406762D01*
X194854837Y-111256420D01*
X194855682Y-111250001D01*
X194855682Y-111249998D01*
X194835044Y-111093239D01*
X194835044Y-111093238D01*
X194774536Y-110947159D01*
X194678282Y-110821718D01*
X194552841Y-110725464D01*
X194552839Y-110725463D01*
X194406761Y-110664955D01*
X194333314Y-110655286D01*
X194269418Y-110627019D01*
X194230947Y-110568694D01*
X194225500Y-110532347D01*
X194225500Y-110274499D01*
X194245185Y-110207460D01*
X194297989Y-110161705D01*
X194349500Y-110150499D01*
X195869856Y-110150499D01*
X195869864Y-110150499D01*
X195869879Y-110150497D01*
X195869882Y-110150497D01*
X195894987Y-110147586D01*
X195894988Y-110147585D01*
X195894991Y-110147585D01*
X195997765Y-110102206D01*
X196077206Y-110022765D01*
X196122585Y-109919991D01*
X196125500Y-109894865D01*
X196125499Y-109762516D01*
X196145183Y-109695480D01*
X196197987Y-109649725D01*
X196267145Y-109639781D01*
X196330701Y-109668805D01*
X196351073Y-109691395D01*
X196476890Y-109871078D01*
X196643917Y-110038105D01*
X196837421Y-110173600D01*
X197051507Y-110273429D01*
X197051516Y-110273433D01*
X197265000Y-110330634D01*
X197265000Y-109433012D01*
X197322007Y-109465925D01*
X197449174Y-109500000D01*
X197580826Y-109500000D01*
X197707993Y-109465925D01*
X197765000Y-109433012D01*
X197765000Y-110330633D01*
X197978483Y-110273433D01*
X197978492Y-110273429D01*
X198192578Y-110173600D01*
X198386082Y-110038105D01*
X198553105Y-109871082D01*
X198688600Y-109677578D01*
X198763118Y-109517774D01*
X198809290Y-109465335D01*
X198876484Y-109446183D01*
X198943365Y-109466399D01*
X198988699Y-109519564D01*
X198999500Y-109570179D01*
X198999500Y-120497128D01*
X198999368Y-120502855D01*
X198982703Y-120863303D01*
X198981646Y-120874707D01*
X198932192Y-121229231D01*
X198930087Y-121240490D01*
X198848135Y-121588931D01*
X198845001Y-121599947D01*
X198731243Y-121939355D01*
X198727105Y-121950035D01*
X198582523Y-122277482D01*
X198577418Y-122287735D01*
X198403234Y-122600452D01*
X198397205Y-122610190D01*
X198194906Y-122905512D01*
X198188003Y-122914652D01*
X197959328Y-123190035D01*
X197951612Y-123198499D01*
X197698499Y-123451612D01*
X197690035Y-123459328D01*
X197414652Y-123688003D01*
X197405512Y-123694906D01*
X197110190Y-123897205D01*
X197100452Y-123903234D01*
X196787735Y-124077418D01*
X196777482Y-124082523D01*
X196450035Y-124227105D01*
X196439355Y-124231243D01*
X196099947Y-124345001D01*
X196088931Y-124348135D01*
X195740490Y-124430087D01*
X195729231Y-124432192D01*
X195374707Y-124481646D01*
X195363303Y-124482703D01*
X195002855Y-124499368D01*
X194997128Y-124499500D01*
X138071889Y-124499500D01*
X138004850Y-124479815D01*
X137959095Y-124427011D01*
X137949151Y-124357853D01*
X137978176Y-124294297D01*
X138013436Y-124266142D01*
X138163532Y-124185913D01*
X138163538Y-124185910D01*
X138315883Y-124060883D01*
X138440910Y-123908538D01*
X138533814Y-123734727D01*
X138591024Y-123546132D01*
X138610341Y-123350000D01*
X138591024Y-123153868D01*
X138533814Y-122965273D01*
X138533811Y-122965269D01*
X138533811Y-122965266D01*
X138440913Y-122791467D01*
X138440909Y-122791460D01*
X138315883Y-122639116D01*
X138163539Y-122514090D01*
X138163532Y-122514086D01*
X137989733Y-122421188D01*
X137989727Y-122421186D01*
X137801132Y-122363976D01*
X137801129Y-122363975D01*
X137605000Y-122344659D01*
X137408870Y-122363975D01*
X137220266Y-122421188D01*
X137046467Y-122514086D01*
X137046460Y-122514090D01*
X136894116Y-122639116D01*
X136769090Y-122791460D01*
X136769086Y-122791467D01*
X136676188Y-122965266D01*
X136618975Y-123153870D01*
X136599659Y-123350000D01*
X136618975Y-123546129D01*
X136676188Y-123734733D01*
X136769086Y-123908532D01*
X136769090Y-123908539D01*
X136894116Y-124060883D01*
X137046460Y-124185909D01*
X137046467Y-124185913D01*
X137196564Y-124266142D01*
X137246408Y-124315104D01*
X137261869Y-124383242D01*
X137238037Y-124448921D01*
X137182480Y-124491290D01*
X137138111Y-124499500D01*
X135505413Y-124499500D01*
X135494605Y-124499028D01*
X135337235Y-124485259D01*
X135315947Y-124481505D01*
X135168612Y-124442024D01*
X135148300Y-124434631D01*
X135010055Y-124370162D01*
X134991335Y-124359353D01*
X134866385Y-124271854D01*
X134849832Y-124257963D01*
X134741971Y-124150092D01*
X134728084Y-124133540D01*
X134640598Y-124008581D01*
X134629791Y-123989861D01*
X134565332Y-123851603D01*
X134557945Y-123831303D01*
X134518476Y-123683956D01*
X134514725Y-123662671D01*
X134504540Y-123546132D01*
X134500970Y-123505289D01*
X134500500Y-123494491D01*
X134500504Y-123459328D01*
X134500506Y-123434013D01*
X134500586Y-122585535D01*
X134500797Y-120350000D01*
X145350172Y-120350000D01*
X145369462Y-120644312D01*
X145369464Y-120644324D01*
X145427001Y-120933584D01*
X145427005Y-120933599D01*
X145521812Y-121212888D01*
X145652258Y-121477406D01*
X145652265Y-121477419D01*
X145816123Y-121722649D01*
X145845405Y-121756040D01*
X146778474Y-120822971D01*
X146867087Y-120955590D01*
X146999410Y-121087913D01*
X147132027Y-121176525D01*
X146198958Y-122109593D01*
X146232350Y-122138876D01*
X146477580Y-122302734D01*
X146477593Y-122302741D01*
X146742111Y-122433187D01*
X147021400Y-122527994D01*
X147021415Y-122527998D01*
X147310675Y-122585535D01*
X147310687Y-122585537D01*
X147605000Y-122604827D01*
X147899312Y-122585537D01*
X147899324Y-122585535D01*
X148188584Y-122527998D01*
X148188599Y-122527994D01*
X148467888Y-122433187D01*
X148732406Y-122302741D01*
X148732419Y-122302734D01*
X148977648Y-122138877D01*
X149011039Y-122109593D01*
X148775169Y-121873723D01*
X151400500Y-121873723D01*
X151400500Y-122126276D01*
X151440009Y-122375722D01*
X151440009Y-122375725D01*
X151518050Y-122615911D01*
X151518051Y-122615914D01*
X151607497Y-122791460D01*
X151632709Y-122840941D01*
X151781156Y-123045261D01*
X151959739Y-123223844D01*
X152164059Y-123372291D01*
X152234454Y-123408159D01*
X152389085Y-123486948D01*
X152389088Y-123486949D01*
X152613123Y-123559741D01*
X152629279Y-123564991D01*
X152878723Y-123604500D01*
X152878724Y-123604500D01*
X153131276Y-123604500D01*
X153131277Y-123604500D01*
X153380721Y-123564991D01*
X153380724Y-123564990D01*
X153380725Y-123564990D01*
X153620911Y-123486949D01*
X153620914Y-123486948D01*
X153682308Y-123455666D01*
X153845941Y-123372291D01*
X154050261Y-123223844D01*
X154228844Y-123045261D01*
X154377291Y-122840941D01*
X154491948Y-122615914D01*
X154501819Y-122585535D01*
X154569990Y-122375725D01*
X154569990Y-122375724D01*
X154569991Y-122375721D01*
X154609500Y-122126277D01*
X154609500Y-121873723D01*
X154569991Y-121624279D01*
X154569990Y-121624275D01*
X154569990Y-121624274D01*
X154491949Y-121384088D01*
X154491948Y-121384085D01*
X154404718Y-121212888D01*
X154377291Y-121159059D01*
X154228844Y-120954739D01*
X154050261Y-120776156D01*
X153845941Y-120627709D01*
X153843129Y-120626276D01*
X153620914Y-120513051D01*
X153620911Y-120513050D01*
X153380723Y-120435009D01*
X153214425Y-120408669D01*
X153131277Y-120395500D01*
X152878723Y-120395500D01*
X152795575Y-120408669D01*
X152629277Y-120435009D01*
X152629274Y-120435009D01*
X152389088Y-120513050D01*
X152389085Y-120513051D01*
X152164058Y-120627709D01*
X151959736Y-120776158D01*
X151781158Y-120954736D01*
X151632709Y-121159058D01*
X151518051Y-121384085D01*
X151518050Y-121384088D01*
X151440009Y-121624274D01*
X151440009Y-121624277D01*
X151400500Y-121873723D01*
X148775169Y-121873723D01*
X148077972Y-121176525D01*
X148210590Y-121087913D01*
X148342913Y-120955590D01*
X148431525Y-120822972D01*
X149364593Y-121756039D01*
X149393877Y-121722648D01*
X149557734Y-121477419D01*
X149557741Y-121477406D01*
X149688187Y-121212888D01*
X149782994Y-120933599D01*
X149782998Y-120933584D01*
X149840535Y-120644324D01*
X149840537Y-120644312D01*
X149858272Y-120373723D01*
X193395500Y-120373723D01*
X193395500Y-120626277D01*
X193407740Y-120703553D01*
X193435009Y-120875722D01*
X193435009Y-120875725D01*
X193513050Y-121115911D01*
X193513051Y-121115914D01*
X193627709Y-121340941D01*
X193776156Y-121545261D01*
X193954739Y-121723844D01*
X194159059Y-121872291D01*
X194268480Y-121928044D01*
X194384085Y-121986948D01*
X194384088Y-121986949D01*
X194608123Y-122059741D01*
X194624279Y-122064991D01*
X194873723Y-122104500D01*
X194873724Y-122104500D01*
X195126276Y-122104500D01*
X195126277Y-122104500D01*
X195375721Y-122064991D01*
X195375724Y-122064990D01*
X195375725Y-122064990D01*
X195615911Y-121986949D01*
X195615914Y-121986948D01*
X195840941Y-121872291D01*
X196045261Y-121723844D01*
X196223844Y-121545261D01*
X196372291Y-121340941D01*
X196486948Y-121115914D01*
X196539318Y-120954736D01*
X196564990Y-120875725D01*
X196564990Y-120875724D01*
X196564991Y-120875721D01*
X196604500Y-120626277D01*
X196604500Y-120373723D01*
X196564991Y-120124279D01*
X196564990Y-120124275D01*
X196564990Y-120124274D01*
X196486949Y-119884088D01*
X196486948Y-119884085D01*
X196426984Y-119766400D01*
X196372291Y-119659059D01*
X196223844Y-119454739D01*
X196045261Y-119276156D01*
X195840941Y-119127709D01*
X195615914Y-119013051D01*
X195615911Y-119013050D01*
X195375723Y-118935009D01*
X195209425Y-118908669D01*
X195126277Y-118895500D01*
X194873723Y-118895500D01*
X194790575Y-118908669D01*
X194624277Y-118935009D01*
X194624274Y-118935009D01*
X194384088Y-119013050D01*
X194384085Y-119013051D01*
X194159058Y-119127709D01*
X193954736Y-119276158D01*
X193776158Y-119454736D01*
X193627709Y-119659058D01*
X193513051Y-119884085D01*
X193513050Y-119884088D01*
X193435009Y-120124274D01*
X193435009Y-120124277D01*
X193435009Y-120124279D01*
X193395500Y-120373723D01*
X149858272Y-120373723D01*
X149859827Y-120350000D01*
X149840537Y-120055687D01*
X149840535Y-120055675D01*
X149782998Y-119766415D01*
X149782994Y-119766400D01*
X149688187Y-119487111D01*
X149557741Y-119222593D01*
X149557734Y-119222580D01*
X149393876Y-118977350D01*
X149364593Y-118943958D01*
X148431524Y-119877026D01*
X148342913Y-119744410D01*
X148210590Y-119612087D01*
X148077971Y-119523474D01*
X149011040Y-118590405D01*
X148977649Y-118561123D01*
X148743992Y-118404998D01*
X165589318Y-118404998D01*
X165589318Y-118405001D01*
X165609955Y-118561760D01*
X165609956Y-118561762D01*
X165621819Y-118590403D01*
X165670464Y-118707841D01*
X165766718Y-118833282D01*
X165892159Y-118929536D01*
X166038238Y-118990044D01*
X166116619Y-119000363D01*
X166194999Y-119010682D01*
X166195000Y-119010682D01*
X166195001Y-119010682D01*
X166247254Y-119003802D01*
X166351762Y-118990044D01*
X166497841Y-118929536D01*
X166560933Y-118881123D01*
X166626102Y-118855930D01*
X166636419Y-118855500D01*
X183763549Y-118855500D01*
X183763550Y-118855500D01*
X183853914Y-118831286D01*
X183878128Y-118824799D01*
X183980855Y-118765489D01*
X187841421Y-114904921D01*
X187902742Y-114871438D01*
X187912895Y-114869668D01*
X187991761Y-114859286D01*
X188137840Y-114798778D01*
X188263281Y-114702524D01*
X188359535Y-114577083D01*
X188420043Y-114431004D01*
X188435203Y-114315846D01*
X188463469Y-114251951D01*
X188521793Y-114213480D01*
X188591658Y-114212648D01*
X188645823Y-114244352D01*
X188708476Y-114307005D01*
X188735356Y-114347233D01*
X188760460Y-114407840D01*
X188760461Y-114407841D01*
X188760462Y-114407843D01*
X188778234Y-114431004D01*
X188852973Y-114528407D01*
X188856716Y-114533284D01*
X188982157Y-114629538D01*
X189128236Y-114690046D01*
X189206617Y-114700365D01*
X189284997Y-114710684D01*
X189284998Y-114710684D01*
X189284999Y-114710684D01*
X189337252Y-114703804D01*
X189441760Y-114690046D01*
X189587839Y-114629538D01*
X189713280Y-114533284D01*
X189809534Y-114407843D01*
X189870042Y-114261764D01*
X189890680Y-114105002D01*
X189885346Y-114064489D01*
X189870866Y-113954500D01*
X189870042Y-113948240D01*
X189809534Y-113802161D01*
X189713280Y-113676720D01*
X189713278Y-113676719D01*
X189713278Y-113676718D01*
X189636440Y-113617759D01*
X189587839Y-113580466D01*
X189587835Y-113580464D01*
X189587836Y-113580464D01*
X189527229Y-113555360D01*
X189487001Y-113528480D01*
X189018012Y-113059491D01*
X189018011Y-113059490D01*
X188892481Y-112987016D01*
X188892478Y-112987015D01*
X188867280Y-112980262D01*
X188867280Y-112980263D01*
X188809875Y-112964881D01*
X188752471Y-112949500D01*
X187027525Y-112949500D01*
X186915402Y-112979543D01*
X186845552Y-112977880D01*
X186787690Y-112938717D01*
X186760186Y-112874489D01*
X186761207Y-112855131D01*
X193824500Y-112855131D01*
X193824500Y-114644856D01*
X193824502Y-114644882D01*
X193827413Y-114669987D01*
X193827415Y-114669991D01*
X193872793Y-114772764D01*
X193872794Y-114772765D01*
X193952235Y-114852206D01*
X194055009Y-114897585D01*
X194080135Y-114900500D01*
X195869864Y-114900499D01*
X195869879Y-114900497D01*
X195869882Y-114900497D01*
X195894987Y-114897586D01*
X195894988Y-114897585D01*
X195894991Y-114897585D01*
X195997765Y-114852206D01*
X196077206Y-114772765D01*
X196122585Y-114669991D01*
X196125500Y-114644865D01*
X196125499Y-113906046D01*
X196145183Y-113839009D01*
X196197987Y-113793254D01*
X196267146Y-113783310D01*
X196330702Y-113812335D01*
X196368476Y-113871113D01*
X196372970Y-113894606D01*
X196377940Y-113948239D01*
X196379244Y-113962310D01*
X196423394Y-114117480D01*
X196437596Y-114167392D01*
X196437596Y-114167394D01*
X196532632Y-114358253D01*
X196570079Y-114407840D01*
X196661128Y-114528407D01*
X196818698Y-114672052D01*
X196999981Y-114784298D01*
X197198802Y-114861321D01*
X197408390Y-114900500D01*
X197408392Y-114900500D01*
X197621608Y-114900500D01*
X197621610Y-114900500D01*
X197831198Y-114861321D01*
X198030019Y-114784298D01*
X198211302Y-114672052D01*
X198368872Y-114528407D01*
X198497366Y-114358255D01*
X198539199Y-114274242D01*
X198592403Y-114167394D01*
X198592403Y-114167393D01*
X198592405Y-114167389D01*
X198650756Y-113962310D01*
X198670429Y-113750000D01*
X198650756Y-113537690D01*
X198592405Y-113332611D01*
X198592403Y-113332606D01*
X198592403Y-113332605D01*
X198497367Y-113141746D01*
X198368872Y-112971593D01*
X198301028Y-112909745D01*
X198211302Y-112827948D01*
X198030019Y-112715702D01*
X198030017Y-112715701D01*
X197930608Y-112677190D01*
X197831198Y-112638679D01*
X197621610Y-112599500D01*
X197408390Y-112599500D01*
X197198802Y-112638679D01*
X197198799Y-112638679D01*
X197198799Y-112638680D01*
X196999982Y-112715701D01*
X196999980Y-112715702D01*
X196818699Y-112827947D01*
X196661127Y-112971593D01*
X196532632Y-113141746D01*
X196437596Y-113332605D01*
X196437596Y-113332607D01*
X196379244Y-113537689D01*
X196372970Y-113605394D01*
X196347183Y-113670331D01*
X196290383Y-113711018D01*
X196220602Y-113714538D01*
X196159995Y-113679772D01*
X196127806Y-113617759D01*
X196125499Y-113593952D01*
X196125499Y-112855143D01*
X196125499Y-112855136D01*
X196125497Y-112855117D01*
X196122586Y-112830012D01*
X196122585Y-112830010D01*
X196122585Y-112830009D01*
X196077206Y-112727235D01*
X195997765Y-112647794D01*
X195977124Y-112638680D01*
X195894992Y-112602415D01*
X195869865Y-112599500D01*
X194080143Y-112599500D01*
X194080117Y-112599502D01*
X194055012Y-112602413D01*
X194055008Y-112602415D01*
X193952235Y-112647793D01*
X193872794Y-112727234D01*
X193827415Y-112830006D01*
X193827415Y-112830008D01*
X193824500Y-112855131D01*
X186761207Y-112855131D01*
X186762227Y-112835779D01*
X186435000Y-112508552D01*
X186434999Y-112508552D01*
X186108284Y-112835265D01*
X186267055Y-112890823D01*
X186434995Y-112909745D01*
X186435003Y-112909745D01*
X186602931Y-112890824D01*
X186607934Y-112889682D01*
X186677674Y-112893947D01*
X186734037Y-112935239D01*
X186759128Y-113000447D01*
X186744982Y-113068870D01*
X186723223Y-113098251D01*
X185575174Y-114246299D01*
X185513851Y-114279784D01*
X185444159Y-114274800D01*
X185388226Y-114232928D01*
X185372932Y-114206071D01*
X185319536Y-114077161D01*
X185223282Y-113951720D01*
X185097841Y-113855466D01*
X185058110Y-113839009D01*
X184951762Y-113794958D01*
X184951760Y-113794957D01*
X184795001Y-113774320D01*
X184794999Y-113774320D01*
X184638239Y-113794957D01*
X184638237Y-113794958D01*
X184492157Y-113855466D01*
X184429067Y-113903878D01*
X184363898Y-113929072D01*
X184353581Y-113929502D01*
X183627207Y-113929502D01*
X183560168Y-113909817D01*
X183539526Y-113893183D01*
X182890855Y-113244513D01*
X182890853Y-113244511D01*
X182839489Y-113214856D01*
X182788127Y-113185201D01*
X182776019Y-113181957D01*
X182763912Y-113178713D01*
X182763909Y-113178712D01*
X182725717Y-113168478D01*
X182673548Y-113154500D01*
X182673547Y-113154500D01*
X180432965Y-113154500D01*
X180365926Y-113134815D01*
X180345284Y-113118181D01*
X178782100Y-111554997D01*
X184580254Y-111554997D01*
X184580254Y-111555004D01*
X184599175Y-111722939D01*
X184599176Y-111722944D01*
X184654732Y-111881715D01*
X184981447Y-111555001D01*
X184961238Y-111534792D01*
X185233399Y-111534792D01*
X185233399Y-111575210D01*
X185248867Y-111612553D01*
X185277447Y-111641133D01*
X185314790Y-111656601D01*
X185355208Y-111656601D01*
X185392551Y-111641133D01*
X185421131Y-111612553D01*
X185436599Y-111575210D01*
X185436599Y-111534792D01*
X185421131Y-111497449D01*
X185392551Y-111468869D01*
X185355208Y-111453401D01*
X185314790Y-111453401D01*
X185277447Y-111468869D01*
X185248867Y-111497449D01*
X185233399Y-111534792D01*
X184961238Y-111534792D01*
X184654732Y-111228286D01*
X184599176Y-111387054D01*
X184599175Y-111387059D01*
X184580254Y-111554997D01*
X178782100Y-111554997D01*
X178101837Y-110874734D01*
X185008284Y-110874734D01*
X185600869Y-111467319D01*
X185634354Y-111528642D01*
X185629370Y-111598334D01*
X185600869Y-111642681D01*
X185008284Y-112235266D01*
X185167055Y-112290824D01*
X185334995Y-112309746D01*
X185335003Y-112309746D01*
X185502940Y-112290824D01*
X185502949Y-112290822D01*
X185550714Y-112274108D01*
X185620492Y-112270545D01*
X185681120Y-112305273D01*
X185708712Y-112350195D01*
X185754732Y-112481713D01*
X186101655Y-112134791D01*
X186333399Y-112134791D01*
X186333399Y-112175209D01*
X186348867Y-112212552D01*
X186377447Y-112241132D01*
X186414790Y-112256600D01*
X186455208Y-112256600D01*
X186492551Y-112241132D01*
X186521131Y-112212552D01*
X186536599Y-112175209D01*
X186536599Y-112134791D01*
X186521131Y-112097448D01*
X186492551Y-112068868D01*
X186455208Y-112053400D01*
X186414790Y-112053400D01*
X186377447Y-112068868D01*
X186348867Y-112097448D01*
X186333399Y-112134791D01*
X186101655Y-112134791D01*
X186347317Y-111889129D01*
X186408640Y-111855644D01*
X186478332Y-111860628D01*
X186522679Y-111889129D01*
X187115264Y-112481714D01*
X187115264Y-112481713D01*
X187161286Y-112350194D01*
X187202007Y-112293418D01*
X187266960Y-112267671D01*
X187319283Y-112274108D01*
X187367047Y-112290822D01*
X187367057Y-112290824D01*
X187534995Y-112309746D01*
X187535003Y-112309746D01*
X187702942Y-112290824D01*
X187861712Y-112235267D01*
X187861713Y-112235266D01*
X187269128Y-111642681D01*
X187235643Y-111581358D01*
X187238973Y-111534792D01*
X187433399Y-111534792D01*
X187433399Y-111575210D01*
X187448867Y-111612553D01*
X187477447Y-111641133D01*
X187514790Y-111656601D01*
X187555208Y-111656601D01*
X187592551Y-111641133D01*
X187621131Y-111612553D01*
X187636599Y-111575210D01*
X187636599Y-111555000D01*
X187888551Y-111555000D01*
X187888551Y-111555002D01*
X188215264Y-111881715D01*
X188215265Y-111881714D01*
X188270822Y-111722944D01*
X188289744Y-111555004D01*
X188289744Y-111554997D01*
X188270822Y-111387057D01*
X188215264Y-111228286D01*
X187888551Y-111555000D01*
X187636599Y-111555000D01*
X187636599Y-111534792D01*
X187621131Y-111497449D01*
X187592551Y-111468869D01*
X187555208Y-111453401D01*
X187514790Y-111453401D01*
X187477447Y-111468869D01*
X187448867Y-111497449D01*
X187433399Y-111534792D01*
X187238973Y-111534792D01*
X187240627Y-111511666D01*
X187269128Y-111467319D01*
X187534999Y-111201449D01*
X187861713Y-110874734D01*
X187702942Y-110819178D01*
X187702937Y-110819177D01*
X187535003Y-110800256D01*
X187534995Y-110800256D01*
X187367057Y-110819177D01*
X187367049Y-110819179D01*
X187319281Y-110835894D01*
X187249502Y-110839455D01*
X187188875Y-110804726D01*
X187161286Y-110759807D01*
X187115264Y-110628287D01*
X186522679Y-111220872D01*
X186461356Y-111254357D01*
X186391664Y-111249373D01*
X186347317Y-111220872D01*
X186061238Y-110934793D01*
X186333399Y-110934793D01*
X186333399Y-110975211D01*
X186348867Y-111012554D01*
X186377447Y-111041134D01*
X186414790Y-111056602D01*
X186455208Y-111056602D01*
X186492551Y-111041134D01*
X186521131Y-111012554D01*
X186536599Y-110975211D01*
X186536599Y-110934793D01*
X186521131Y-110897450D01*
X186492551Y-110868870D01*
X186455208Y-110853402D01*
X186414790Y-110853402D01*
X186377447Y-110868870D01*
X186348867Y-110897450D01*
X186333399Y-110934793D01*
X186061238Y-110934793D01*
X185754732Y-110628287D01*
X185708712Y-110759806D01*
X185667990Y-110816582D01*
X185603037Y-110842330D01*
X185550716Y-110835894D01*
X185502948Y-110819179D01*
X185502940Y-110819177D01*
X185335003Y-110800256D01*
X185334995Y-110800256D01*
X185167057Y-110819177D01*
X185167052Y-110819178D01*
X185008284Y-110874734D01*
X178101837Y-110874734D01*
X177971616Y-110744513D01*
X177971614Y-110744511D01*
X177929922Y-110720440D01*
X177868885Y-110685199D01*
X177837228Y-110676718D01*
X177793327Y-110664955D01*
X177754309Y-110654500D01*
X177754308Y-110654500D01*
X175036419Y-110654500D01*
X174969380Y-110634815D01*
X174960933Y-110628876D01*
X174897842Y-110580464D01*
X174751762Y-110519956D01*
X174751760Y-110519955D01*
X174595001Y-110499318D01*
X174594999Y-110499318D01*
X174438239Y-110519955D01*
X174438237Y-110519956D01*
X174292160Y-110580463D01*
X174166718Y-110676718D01*
X174070463Y-110802160D01*
X174009956Y-110948237D01*
X174009955Y-110948239D01*
X173989318Y-111104998D01*
X173989318Y-111105001D01*
X174009955Y-111261760D01*
X174009956Y-111261762D01*
X174070016Y-111406761D01*
X174070464Y-111407841D01*
X174166718Y-111533282D01*
X174292159Y-111629536D01*
X174438238Y-111690044D01*
X174516619Y-111700363D01*
X174594999Y-111710682D01*
X174595000Y-111710682D01*
X174595001Y-111710682D01*
X174647254Y-111703802D01*
X174751762Y-111690044D01*
X174897841Y-111629536D01*
X174960933Y-111581123D01*
X175026102Y-111555930D01*
X175036419Y-111555500D01*
X177457035Y-111555500D01*
X177524074Y-111575185D01*
X177544716Y-111591819D01*
X179695716Y-113742819D01*
X179729201Y-113804142D01*
X179724217Y-113873834D01*
X179682345Y-113929767D01*
X179616881Y-113954184D01*
X179608035Y-113954500D01*
X173322525Y-113954500D01*
X173217517Y-113982637D01*
X173182514Y-113992016D01*
X173056986Y-114064489D01*
X173056983Y-114064491D01*
X171392995Y-115728478D01*
X171352768Y-115755357D01*
X171292165Y-115780460D01*
X171292158Y-115780464D01*
X171166719Y-115876716D01*
X171070463Y-116002160D01*
X171009956Y-116148237D01*
X171009955Y-116148239D01*
X170989318Y-116304998D01*
X170989318Y-116305001D01*
X171009955Y-116461760D01*
X171009956Y-116461762D01*
X171070464Y-116607841D01*
X171166718Y-116733282D01*
X171292159Y-116829536D01*
X171438238Y-116890044D01*
X171516619Y-116900363D01*
X171594999Y-116910682D01*
X171595000Y-116910682D01*
X171595001Y-116910682D01*
X171647254Y-116903802D01*
X171751762Y-116890044D01*
X171897841Y-116829536D01*
X172023282Y-116733282D01*
X172119536Y-116607841D01*
X172144641Y-116547228D01*
X172171517Y-116507006D01*
X173586706Y-115091819D01*
X173648029Y-115058334D01*
X173674387Y-115055500D01*
X182315614Y-115055500D01*
X182382653Y-115075185D01*
X182403295Y-115091819D01*
X183256986Y-115945510D01*
X183382515Y-116017984D01*
X183522525Y-116055500D01*
X183522526Y-116055500D01*
X183522528Y-116055500D01*
X185117276Y-116055500D01*
X185184315Y-116075185D01*
X185230070Y-116127989D01*
X185240014Y-116197147D01*
X185210989Y-116260703D01*
X185204957Y-116267181D01*
X183553957Y-117918181D01*
X183492634Y-117951666D01*
X183466276Y-117954500D01*
X166636419Y-117954500D01*
X166569380Y-117934815D01*
X166560933Y-117928876D01*
X166497842Y-117880464D01*
X166351762Y-117819956D01*
X166351760Y-117819955D01*
X166195001Y-117799318D01*
X166194999Y-117799318D01*
X166038239Y-117819955D01*
X166038237Y-117819956D01*
X165892160Y-117880463D01*
X165766718Y-117976718D01*
X165670463Y-118102160D01*
X165609956Y-118248237D01*
X165609955Y-118248239D01*
X165589318Y-118404998D01*
X148743992Y-118404998D01*
X148732419Y-118397265D01*
X148732406Y-118397258D01*
X148467888Y-118266812D01*
X148188599Y-118172005D01*
X148188584Y-118172001D01*
X147899324Y-118114464D01*
X147899312Y-118114462D01*
X147605000Y-118095172D01*
X147310687Y-118114462D01*
X147310675Y-118114464D01*
X147021415Y-118172001D01*
X147021400Y-118172005D01*
X146742111Y-118266812D01*
X146477593Y-118397258D01*
X146477580Y-118397265D01*
X146232346Y-118561126D01*
X146232339Y-118561131D01*
X146198959Y-118590403D01*
X146198959Y-118590405D01*
X147132028Y-119523474D01*
X146999410Y-119612087D01*
X146867087Y-119744410D01*
X146778474Y-119877027D01*
X145845405Y-118943959D01*
X145845403Y-118943959D01*
X145816131Y-118977339D01*
X145816126Y-118977346D01*
X145652265Y-119222580D01*
X145652258Y-119222593D01*
X145521812Y-119487111D01*
X145427005Y-119766400D01*
X145427001Y-119766415D01*
X145369464Y-120055675D01*
X145369462Y-120055687D01*
X145350172Y-120350000D01*
X134500797Y-120350000D01*
X134501438Y-113555131D01*
X145554500Y-113555131D01*
X145554500Y-117144856D01*
X145554502Y-117144882D01*
X145557413Y-117169987D01*
X145557415Y-117169991D01*
X145602793Y-117272764D01*
X145602794Y-117272765D01*
X145682235Y-117352206D01*
X145785009Y-117397585D01*
X145810135Y-117400500D01*
X149399864Y-117400499D01*
X149399879Y-117400497D01*
X149399882Y-117400497D01*
X149424987Y-117397586D01*
X149424988Y-117397585D01*
X149424991Y-117397585D01*
X149527765Y-117352206D01*
X149607206Y-117272765D01*
X149652585Y-117169991D01*
X149655500Y-117144865D01*
X149655499Y-113555136D01*
X149655497Y-113555117D01*
X149652586Y-113530012D01*
X149652585Y-113530010D01*
X149652585Y-113530009D01*
X149607206Y-113427235D01*
X149527765Y-113347794D01*
X149527763Y-113347793D01*
X149424992Y-113302415D01*
X149399865Y-113299500D01*
X145810143Y-113299500D01*
X145810117Y-113299502D01*
X145785012Y-113302413D01*
X145785008Y-113302415D01*
X145682235Y-113347793D01*
X145602794Y-113427234D01*
X145557415Y-113530006D01*
X145557415Y-113530008D01*
X145554500Y-113555131D01*
X134501438Y-113555131D01*
X134501552Y-112350000D01*
X136599659Y-112350000D01*
X136618975Y-112546129D01*
X136618976Y-112546132D01*
X136670414Y-112715701D01*
X136676188Y-112734733D01*
X136769086Y-112908532D01*
X136769090Y-112908539D01*
X136894116Y-113060883D01*
X137046460Y-113185909D01*
X137046467Y-113185913D01*
X137220266Y-113278811D01*
X137220269Y-113278811D01*
X137220273Y-113278814D01*
X137408868Y-113336024D01*
X137605000Y-113355341D01*
X137801132Y-113336024D01*
X137989727Y-113278814D01*
X138163538Y-113185910D01*
X138315883Y-113060883D01*
X138440910Y-112908538D01*
X138533814Y-112734727D01*
X138591024Y-112546132D01*
X138610341Y-112350000D01*
X138591024Y-112153868D01*
X138533814Y-111965273D01*
X138533811Y-111965269D01*
X138533811Y-111965266D01*
X138440913Y-111791467D01*
X138440909Y-111791460D01*
X138315883Y-111639116D01*
X138163539Y-111514090D01*
X138163532Y-111514086D01*
X137989733Y-111421188D01*
X137989727Y-111421186D01*
X137801132Y-111363976D01*
X137801129Y-111363975D01*
X137605000Y-111344659D01*
X137408870Y-111363975D01*
X137220266Y-111421188D01*
X137046467Y-111514086D01*
X137046460Y-111514090D01*
X136894116Y-111639116D01*
X136769090Y-111791460D01*
X136769086Y-111791467D01*
X136676188Y-111965266D01*
X136618975Y-112153870D01*
X136599659Y-112350000D01*
X134501552Y-112350000D01*
X134501748Y-110274735D01*
X186108284Y-110274735D01*
X186434999Y-110601450D01*
X186435000Y-110601450D01*
X186761713Y-110274735D01*
X186602942Y-110219179D01*
X186602937Y-110219178D01*
X186435003Y-110200257D01*
X186434995Y-110200257D01*
X186267057Y-110219178D01*
X186267052Y-110219179D01*
X186108284Y-110274735D01*
X134501748Y-110274735D01*
X134501931Y-108340000D01*
X136589659Y-108340000D01*
X136608975Y-108536129D01*
X136666188Y-108724733D01*
X136759086Y-108898532D01*
X136759090Y-108898539D01*
X136884116Y-109050883D01*
X137036460Y-109175909D01*
X137036467Y-109175913D01*
X137210266Y-109268811D01*
X137210269Y-109268811D01*
X137210273Y-109268814D01*
X137398868Y-109326024D01*
X137595000Y-109345341D01*
X137791132Y-109326024D01*
X137979727Y-109268814D01*
X138153538Y-109175910D01*
X138305883Y-109050883D01*
X138430910Y-108898538D01*
X138523814Y-108724727D01*
X138581024Y-108536132D01*
X138600341Y-108340000D01*
X138581024Y-108143868D01*
X138523814Y-107955273D01*
X138523811Y-107955269D01*
X138523811Y-107955266D01*
X138430913Y-107781467D01*
X138430909Y-107781460D01*
X138305883Y-107629116D01*
X138153539Y-107504090D01*
X138153532Y-107504086D01*
X137979733Y-107411188D01*
X137979727Y-107411186D01*
X137791132Y-107353976D01*
X137791129Y-107353975D01*
X137595000Y-107334659D01*
X137398870Y-107353975D01*
X137210266Y-107411188D01*
X137036467Y-107504086D01*
X137036460Y-107504090D01*
X136884116Y-107629116D01*
X136759090Y-107781460D01*
X136759086Y-107781467D01*
X136666188Y-107955266D01*
X136608975Y-108143870D01*
X136589659Y-108340000D01*
X134501931Y-108340000D01*
X134502214Y-105340000D01*
X145340172Y-105340000D01*
X145359462Y-105634312D01*
X145359464Y-105634324D01*
X145417001Y-105923584D01*
X145417005Y-105923599D01*
X145511812Y-106202888D01*
X145642258Y-106467406D01*
X145642265Y-106467419D01*
X145806123Y-106712649D01*
X145835405Y-106746040D01*
X146768474Y-105812971D01*
X146857087Y-105945590D01*
X146989410Y-106077913D01*
X147122027Y-106166525D01*
X146188958Y-107099593D01*
X146222350Y-107128876D01*
X146467580Y-107292734D01*
X146467593Y-107292741D01*
X146732111Y-107423187D01*
X147011400Y-107517994D01*
X147011415Y-107517998D01*
X147300675Y-107575535D01*
X147300687Y-107575537D01*
X147595000Y-107594827D01*
X147889312Y-107575537D01*
X147889324Y-107575535D01*
X148178584Y-107517998D01*
X148178599Y-107517994D01*
X148457888Y-107423187D01*
X148722406Y-107292741D01*
X148722419Y-107292734D01*
X148967648Y-107128877D01*
X149001039Y-107099593D01*
X148067972Y-106166525D01*
X148200590Y-106077913D01*
X148332913Y-105945590D01*
X148421525Y-105812972D01*
X149354593Y-106746039D01*
X149383877Y-106712648D01*
X149547734Y-106467419D01*
X149547741Y-106467406D01*
X149678187Y-106202888D01*
X149772994Y-105923599D01*
X149772998Y-105923584D01*
X149830535Y-105634324D01*
X149830537Y-105634312D01*
X149849827Y-105340000D01*
X149830537Y-105045687D01*
X149830535Y-105045675D01*
X149772998Y-104756415D01*
X149772994Y-104756400D01*
X149678187Y-104477111D01*
X149547741Y-104212593D01*
X149547734Y-104212580D01*
X149383876Y-103967350D01*
X149354593Y-103933958D01*
X148421524Y-104867026D01*
X148332913Y-104734410D01*
X148200590Y-104602087D01*
X148067971Y-104513474D01*
X149001040Y-103580405D01*
X148967649Y-103551123D01*
X148722419Y-103387265D01*
X148722406Y-103387258D01*
X148457888Y-103256812D01*
X148178599Y-103162005D01*
X148178584Y-103162001D01*
X147889324Y-103104464D01*
X147889312Y-103104462D01*
X147595000Y-103085172D01*
X147300687Y-103104462D01*
X147300675Y-103104464D01*
X147011415Y-103162001D01*
X147011400Y-103162005D01*
X146732111Y-103256812D01*
X146467593Y-103387258D01*
X146467580Y-103387265D01*
X146222346Y-103551126D01*
X146222339Y-103551131D01*
X146188959Y-103580403D01*
X146188959Y-103580405D01*
X147122028Y-104513474D01*
X146989410Y-104602087D01*
X146857087Y-104734410D01*
X146768474Y-104867028D01*
X145835405Y-103933959D01*
X145835403Y-103933959D01*
X145806131Y-103967339D01*
X145806126Y-103967346D01*
X145642265Y-104212580D01*
X145642258Y-104212593D01*
X145511812Y-104477111D01*
X145417005Y-104756400D01*
X145417001Y-104756415D01*
X145359464Y-105045675D01*
X145359462Y-105045687D01*
X145340172Y-105340000D01*
X134502214Y-105340000D01*
X134502855Y-98545131D01*
X145544500Y-98545131D01*
X145544500Y-102134856D01*
X145544502Y-102134882D01*
X145547413Y-102159987D01*
X145547415Y-102159991D01*
X145592793Y-102262764D01*
X145592794Y-102262765D01*
X145672235Y-102342206D01*
X145775009Y-102387585D01*
X145800135Y-102390500D01*
X149389864Y-102390499D01*
X149389879Y-102390497D01*
X149389882Y-102390497D01*
X149414987Y-102387586D01*
X149414988Y-102387585D01*
X149414991Y-102387585D01*
X149517765Y-102342206D01*
X149597206Y-102262765D01*
X149642585Y-102159991D01*
X149645500Y-102134865D01*
X149645499Y-99249999D01*
X150094722Y-99249999D01*
X150094722Y-99250000D01*
X150113762Y-99406818D01*
X150154026Y-99512983D01*
X150169780Y-99554523D01*
X150259517Y-99684530D01*
X150377760Y-99789283D01*
X150377762Y-99789284D01*
X150517634Y-99862696D01*
X150671014Y-99900500D01*
X150671015Y-99900500D01*
X150828985Y-99900500D01*
X150982365Y-99862696D01*
X151122240Y-99789283D01*
X151240483Y-99684530D01*
X151330220Y-99554523D01*
X151386237Y-99406818D01*
X151405278Y-99250000D01*
X151393197Y-99150499D01*
X151386237Y-99093181D01*
X151355822Y-99012984D01*
X151330220Y-98945477D01*
X151322448Y-98934217D01*
X151300567Y-98867862D01*
X151300500Y-98863780D01*
X151300500Y-95499998D01*
X162099318Y-95499998D01*
X162099318Y-95500001D01*
X162119955Y-95656760D01*
X162119956Y-95656762D01*
X162141284Y-95708253D01*
X162145061Y-95717370D01*
X162154500Y-95764823D01*
X162154500Y-96735176D01*
X162145061Y-96782628D01*
X162119957Y-96843234D01*
X162119955Y-96843239D01*
X162099318Y-96999998D01*
X162099318Y-97000001D01*
X162119955Y-97156760D01*
X162119956Y-97156762D01*
X162180464Y-97302841D01*
X162276718Y-97428282D01*
X162402159Y-97524536D01*
X162548238Y-97585044D01*
X162610478Y-97593238D01*
X162704999Y-97605682D01*
X162705000Y-97605682D01*
X162705001Y-97605682D01*
X162799514Y-97593239D01*
X162861762Y-97585044D01*
X163007841Y-97524536D01*
X163133282Y-97428282D01*
X163229536Y-97302841D01*
X163290044Y-97156762D01*
X163310682Y-97000000D01*
X163290044Y-96843238D01*
X163264939Y-96782628D01*
X163255500Y-96735176D01*
X163255500Y-95764823D01*
X163264939Y-95717370D01*
X163265525Y-95715956D01*
X163290044Y-95656762D01*
X163310682Y-95500000D01*
X163290044Y-95343238D01*
X163229536Y-95197159D01*
X163133282Y-95071718D01*
X163007841Y-94975464D01*
X162977021Y-94962698D01*
X162861762Y-94914956D01*
X162861760Y-94914955D01*
X162705001Y-94894318D01*
X162704999Y-94894318D01*
X162548239Y-94914955D01*
X162548237Y-94914956D01*
X162402160Y-94975463D01*
X162276718Y-95071718D01*
X162180463Y-95197160D01*
X162119956Y-95343237D01*
X162119955Y-95343239D01*
X162099318Y-95499998D01*
X151300500Y-95499998D01*
X151300500Y-93844386D01*
X151320185Y-93777347D01*
X151336815Y-93756709D01*
X151613524Y-93479999D01*
X167230839Y-93479999D01*
X167230840Y-93480000D01*
X167950000Y-93480000D01*
X167950000Y-92760839D01*
X167949999Y-92760839D01*
X167815458Y-92801652D01*
X167641746Y-92894503D01*
X167641739Y-92894507D01*
X167489471Y-93019471D01*
X167364507Y-93171739D01*
X167364503Y-93171746D01*
X167271652Y-93345458D01*
X167230839Y-93479999D01*
X151613524Y-93479999D01*
X151824623Y-93268900D01*
X151882628Y-93236186D01*
X151919971Y-93226983D01*
X151937362Y-93222697D01*
X151937363Y-93222696D01*
X151937365Y-93222696D01*
X152077240Y-93149283D01*
X152195483Y-93044530D01*
X152285220Y-92914523D01*
X152341237Y-92766818D01*
X152360278Y-92610000D01*
X152341237Y-92453182D01*
X152285220Y-92305477D01*
X152195483Y-92175470D01*
X152077240Y-92070717D01*
X152077238Y-92070716D01*
X152077237Y-92070715D01*
X151937365Y-91997303D01*
X151783986Y-91959500D01*
X151783985Y-91959500D01*
X151626015Y-91959500D01*
X151626014Y-91959500D01*
X151472634Y-91997303D01*
X151332762Y-92070715D01*
X151214516Y-92175471D01*
X151124781Y-92305475D01*
X151124780Y-92305476D01*
X151069325Y-92451699D01*
X151041064Y-92495409D01*
X150309491Y-93226983D01*
X150309489Y-93226986D01*
X150237016Y-93352514D01*
X150237016Y-93352515D01*
X150199500Y-93492525D01*
X150199500Y-93492527D01*
X150199500Y-98863780D01*
X150179815Y-98930819D01*
X150177552Y-98934217D01*
X150169780Y-98945476D01*
X150113762Y-99093181D01*
X150094722Y-99249999D01*
X149645499Y-99249999D01*
X149645499Y-98545136D01*
X149643252Y-98525759D01*
X149642586Y-98520012D01*
X149642585Y-98520010D01*
X149642585Y-98520009D01*
X149597206Y-98417235D01*
X149517765Y-98337794D01*
X149517763Y-98337793D01*
X149414992Y-98292415D01*
X149389865Y-98289500D01*
X145800143Y-98289500D01*
X145800117Y-98289502D01*
X145775012Y-98292413D01*
X145775008Y-98292415D01*
X145672235Y-98337793D01*
X145592794Y-98417234D01*
X145547415Y-98520006D01*
X145547415Y-98520008D01*
X145544500Y-98545131D01*
X134502855Y-98545131D01*
X134502969Y-97340000D01*
X136589659Y-97340000D01*
X136608975Y-97536129D01*
X136608976Y-97536132D01*
X136657312Y-97695475D01*
X136666188Y-97724733D01*
X136759086Y-97898532D01*
X136759090Y-97898539D01*
X136884116Y-98050883D01*
X137036460Y-98175909D01*
X137036467Y-98175913D01*
X137210266Y-98268811D01*
X137210269Y-98268811D01*
X137210273Y-98268814D01*
X137398868Y-98326024D01*
X137595000Y-98345341D01*
X137791132Y-98326024D01*
X137979727Y-98268814D01*
X138004191Y-98255738D01*
X138121118Y-98193239D01*
X138153538Y-98175910D01*
X138305883Y-98050883D01*
X138430910Y-97898538D01*
X138481258Y-97804343D01*
X138523811Y-97724733D01*
X138523811Y-97724732D01*
X138523814Y-97724727D01*
X138581024Y-97536132D01*
X138600341Y-97340000D01*
X138581024Y-97143868D01*
X138523814Y-96955273D01*
X138523811Y-96955269D01*
X138523811Y-96955266D01*
X138430913Y-96781467D01*
X138430909Y-96781460D01*
X138305883Y-96629116D01*
X138153539Y-96504090D01*
X138153532Y-96504086D01*
X137979733Y-96411188D01*
X137979727Y-96411186D01*
X137791132Y-96353976D01*
X137791129Y-96353975D01*
X137595000Y-96334659D01*
X137398870Y-96353975D01*
X137210266Y-96411188D01*
X137036467Y-96504086D01*
X137036460Y-96504090D01*
X136884116Y-96629116D01*
X136759090Y-96781460D01*
X136759086Y-96781467D01*
X136666188Y-96955266D01*
X136608975Y-97143870D01*
X136589659Y-97340000D01*
X134502969Y-97340000D01*
X134504327Y-82949998D01*
X150544318Y-82949998D01*
X150544318Y-82950001D01*
X150564955Y-83106760D01*
X150564956Y-83106762D01*
X150625464Y-83252841D01*
X150721718Y-83378282D01*
X150847159Y-83474536D01*
X150847160Y-83474536D01*
X150847161Y-83474537D01*
X150907766Y-83499640D01*
X150947995Y-83526520D01*
X153513181Y-86091706D01*
X153546666Y-86153029D01*
X153549500Y-86179387D01*
X153549500Y-89735176D01*
X153540061Y-89782628D01*
X153514957Y-89843234D01*
X153514955Y-89843239D01*
X153494318Y-89999998D01*
X153494318Y-90000001D01*
X153514955Y-90156760D01*
X153514956Y-90156762D01*
X153569819Y-90289214D01*
X153575464Y-90302841D01*
X153671718Y-90428282D01*
X153797159Y-90524536D01*
X153943238Y-90585044D01*
X154009261Y-90593736D01*
X154099999Y-90605682D01*
X154100000Y-90605682D01*
X154100001Y-90605682D01*
X154152254Y-90598802D01*
X154256762Y-90585044D01*
X154402841Y-90524536D01*
X154528282Y-90428282D01*
X154624536Y-90302841D01*
X154685044Y-90156762D01*
X154705682Y-90000000D01*
X154685044Y-89843238D01*
X154672590Y-89813171D01*
X165081145Y-89813171D01*
X165081145Y-89813174D01*
X165101782Y-89969933D01*
X165101783Y-89969935D01*
X165149287Y-90084621D01*
X165162291Y-90116014D01*
X165258545Y-90241455D01*
X165383986Y-90337709D01*
X165530065Y-90398217D01*
X165608446Y-90408536D01*
X165686826Y-90418855D01*
X165686827Y-90418855D01*
X165686828Y-90418855D01*
X165739081Y-90411975D01*
X165843589Y-90398217D01*
X165904197Y-90373111D01*
X165951650Y-90363673D01*
X166259299Y-90363673D01*
X166259301Y-90363673D01*
X166259302Y-90363673D01*
X166399312Y-90326157D01*
X166407836Y-90321235D01*
X166414959Y-90317124D01*
X166486500Y-90275819D01*
X166524842Y-90253683D01*
X167661626Y-89116897D01*
X167701848Y-89090021D01*
X167762461Y-89064916D01*
X167887902Y-88968662D01*
X167984156Y-88843221D01*
X168044664Y-88697142D01*
X168065302Y-88540380D01*
X168044664Y-88383618D01*
X167984156Y-88237539D01*
X167887902Y-88112098D01*
X167762461Y-88015844D01*
X167616382Y-87955336D01*
X167616380Y-87955335D01*
X167459621Y-87934698D01*
X167459619Y-87934698D01*
X167302859Y-87955335D01*
X167302857Y-87955336D01*
X167156780Y-88015843D01*
X167031336Y-88112099D01*
X166935084Y-88237538D01*
X166935080Y-88237545D01*
X166909977Y-88298148D01*
X166883098Y-88338375D01*
X166008069Y-89213405D01*
X165946746Y-89246890D01*
X165877055Y-89241906D01*
X165872954Y-89240292D01*
X165843589Y-89228129D01*
X165843587Y-89228128D01*
X165686828Y-89207491D01*
X165686826Y-89207491D01*
X165530066Y-89228128D01*
X165530064Y-89228129D01*
X165383987Y-89288636D01*
X165258545Y-89384891D01*
X165162290Y-89510333D01*
X165101783Y-89656410D01*
X165101782Y-89656412D01*
X165081145Y-89813171D01*
X154672590Y-89813171D01*
X154659939Y-89782628D01*
X154650500Y-89735176D01*
X154650500Y-85827527D01*
X154650500Y-85827525D01*
X154612984Y-85687515D01*
X154612982Y-85687512D01*
X154612982Y-85687510D01*
X154612981Y-85687509D01*
X154588045Y-85644319D01*
X154588043Y-85644317D01*
X154562457Y-85600000D01*
X154540510Y-85561985D01*
X151726520Y-82747995D01*
X151699640Y-82707766D01*
X151674537Y-82647161D01*
X151674536Y-82647160D01*
X151674536Y-82647159D01*
X151578282Y-82521718D01*
X151452841Y-82425464D01*
X151427477Y-82414958D01*
X151306762Y-82364956D01*
X151306760Y-82364955D01*
X151150001Y-82344318D01*
X151149999Y-82344318D01*
X150993239Y-82364955D01*
X150993237Y-82364956D01*
X150847160Y-82425463D01*
X150721718Y-82521718D01*
X150625463Y-82647160D01*
X150564956Y-82793237D01*
X150564955Y-82793239D01*
X150544318Y-82949998D01*
X134504327Y-82949998D01*
X134504483Y-81300000D01*
X191264571Y-81300000D01*
X191284244Y-81512310D01*
X191337675Y-81700099D01*
X191342596Y-81717392D01*
X191342596Y-81717394D01*
X191437632Y-81908253D01*
X191509385Y-82003268D01*
X191566128Y-82078407D01*
X191723698Y-82222052D01*
X191904981Y-82334298D01*
X192103802Y-82411321D01*
X192313390Y-82450500D01*
X192313392Y-82450500D01*
X192526608Y-82450500D01*
X192526610Y-82450500D01*
X192736198Y-82411321D01*
X192935019Y-82334298D01*
X193116302Y-82222052D01*
X193273872Y-82078407D01*
X193402366Y-81908255D01*
X193456270Y-81800000D01*
X193497403Y-81717394D01*
X193497403Y-81717393D01*
X193497405Y-81717389D01*
X193555756Y-81512310D01*
X193566529Y-81396047D01*
X193592315Y-81331111D01*
X193636869Y-81299194D01*
X193600497Y-81278331D01*
X193568307Y-81216318D01*
X193566529Y-81203951D01*
X193565849Y-81196613D01*
X193555756Y-81087690D01*
X193497405Y-80882611D01*
X193497403Y-80882606D01*
X193497403Y-80882605D01*
X193402367Y-80691746D01*
X193273872Y-80521593D01*
X193116302Y-80377948D01*
X192935019Y-80265702D01*
X192935017Y-80265701D01*
X192776890Y-80204443D01*
X192736198Y-80188679D01*
X192526610Y-80149500D01*
X192313390Y-80149500D01*
X192103802Y-80188679D01*
X192103799Y-80188679D01*
X192103799Y-80188680D01*
X191904982Y-80265701D01*
X191904980Y-80265702D01*
X191723699Y-80377947D01*
X191566127Y-80521593D01*
X191437632Y-80691746D01*
X191342596Y-80882605D01*
X191342596Y-80882607D01*
X191284244Y-81087689D01*
X191270671Y-81234174D01*
X191264571Y-81300000D01*
X134504483Y-81300000D01*
X134505386Y-71722155D01*
X145350000Y-71722155D01*
X145350000Y-72370000D01*
X146266988Y-72370000D01*
X146234075Y-72427007D01*
X146200000Y-72554174D01*
X146200000Y-72685826D01*
X146234075Y-72812993D01*
X146266988Y-72870000D01*
X145350000Y-72870000D01*
X145350000Y-73517844D01*
X145356401Y-73577372D01*
X145356403Y-73577379D01*
X145406645Y-73712086D01*
X145406649Y-73712093D01*
X145492809Y-73827187D01*
X145492812Y-73827190D01*
X145607906Y-73913350D01*
X145607913Y-73913354D01*
X145742620Y-73963596D01*
X145742627Y-73963598D01*
X145802155Y-73969999D01*
X145802172Y-73970000D01*
X146000634Y-73970000D01*
X146067673Y-73989685D01*
X146113428Y-74042489D01*
X146123372Y-74111647D01*
X146094347Y-74175203D01*
X146065911Y-74199427D01*
X146003701Y-74237945D01*
X145846127Y-74381593D01*
X145717632Y-74551746D01*
X145622596Y-74742605D01*
X145622596Y-74742607D01*
X145598388Y-74827690D01*
X145564244Y-74947690D01*
X145544571Y-75160000D01*
X145564244Y-75372310D01*
X145594143Y-75477394D01*
X145622596Y-75577392D01*
X145622596Y-75577394D01*
X145717632Y-75768253D01*
X145846127Y-75938406D01*
X145846128Y-75938407D01*
X146003698Y-76082052D01*
X146184981Y-76194298D01*
X146383802Y-76271321D01*
X146580613Y-76308111D01*
X146642893Y-76339779D01*
X146678166Y-76400092D01*
X146675232Y-76469900D01*
X146635023Y-76527040D01*
X146580613Y-76551888D01*
X146383802Y-76588679D01*
X146383799Y-76588679D01*
X146383799Y-76588680D01*
X146184982Y-76665701D01*
X146184980Y-76665702D01*
X146003699Y-76777947D01*
X145846127Y-76921593D01*
X145717632Y-77091746D01*
X145622596Y-77282605D01*
X145622596Y-77282607D01*
X145598388Y-77367690D01*
X145564244Y-77487690D01*
X145544571Y-77700000D01*
X145564244Y-77912310D01*
X145594143Y-78017394D01*
X145622596Y-78117392D01*
X145622596Y-78117394D01*
X145717632Y-78308253D01*
X145846127Y-78478406D01*
X145846128Y-78478407D01*
X146003698Y-78622052D01*
X146184981Y-78734298D01*
X146383802Y-78811321D01*
X146593390Y-78850500D01*
X146593392Y-78850500D01*
X146806608Y-78850500D01*
X146806610Y-78850500D01*
X147016198Y-78811321D01*
X147215019Y-78734298D01*
X147396302Y-78622052D01*
X147553872Y-78478407D01*
X147682366Y-78308255D01*
X147732161Y-78208253D01*
X147777403Y-78117394D01*
X147777403Y-78117393D01*
X147777405Y-78117389D01*
X147835756Y-77912310D01*
X147855429Y-77700000D01*
X147835756Y-77487690D01*
X147777405Y-77282611D01*
X147777403Y-77282606D01*
X147777403Y-77282605D01*
X147682367Y-77091746D01*
X147553872Y-76921593D01*
X147396302Y-76777948D01*
X147215019Y-76665702D01*
X147215017Y-76665701D01*
X147115608Y-76627190D01*
X147016198Y-76588679D01*
X146819385Y-76551888D01*
X146757106Y-76520221D01*
X146721833Y-76459908D01*
X146724767Y-76390100D01*
X146764976Y-76332960D01*
X146819384Y-76308111D01*
X147016198Y-76271321D01*
X147215019Y-76194298D01*
X147396302Y-76082052D01*
X147553872Y-75938407D01*
X147682366Y-75768255D01*
X147732161Y-75668253D01*
X147777403Y-75577394D01*
X147777403Y-75577393D01*
X147777405Y-75577389D01*
X147835756Y-75372310D01*
X147855429Y-75160000D01*
X147835756Y-74947690D01*
X147777405Y-74742611D01*
X147777403Y-74742606D01*
X147777403Y-74742605D01*
X147682367Y-74551746D01*
X147553872Y-74381593D01*
X147396302Y-74237948D01*
X147396299Y-74237946D01*
X147396298Y-74237945D01*
X147334089Y-74199427D01*
X147287453Y-74147399D01*
X147276349Y-74078418D01*
X147304302Y-74014383D01*
X147362437Y-73975627D01*
X147399366Y-73970000D01*
X147597828Y-73970000D01*
X147597844Y-73969999D01*
X147657372Y-73963598D01*
X147657379Y-73963596D01*
X147792086Y-73913354D01*
X147792093Y-73913350D01*
X147907187Y-73827190D01*
X147907190Y-73827187D01*
X147993350Y-73712093D01*
X147993354Y-73712086D01*
X148043596Y-73577379D01*
X148043598Y-73577372D01*
X148049999Y-73517844D01*
X148050000Y-73517827D01*
X148050000Y-72870000D01*
X147133012Y-72870000D01*
X147165925Y-72812993D01*
X147200000Y-72685826D01*
X147200000Y-72554174D01*
X147165925Y-72427007D01*
X147133012Y-72370000D01*
X148050000Y-72370000D01*
X148050000Y-71722172D01*
X148049999Y-71722155D01*
X149950000Y-71722155D01*
X149950000Y-72370000D01*
X150866988Y-72370000D01*
X150834075Y-72427007D01*
X150800000Y-72554174D01*
X150800000Y-72685826D01*
X150834075Y-72812993D01*
X150866988Y-72870000D01*
X149950000Y-72870000D01*
X149950000Y-73517844D01*
X149956401Y-73577372D01*
X149956403Y-73577379D01*
X150006645Y-73712086D01*
X150006649Y-73712093D01*
X150092809Y-73827187D01*
X150092812Y-73827190D01*
X150207906Y-73913350D01*
X150207913Y-73913354D01*
X150342620Y-73963596D01*
X150342627Y-73963598D01*
X150402155Y-73969999D01*
X150402172Y-73970000D01*
X150600634Y-73970000D01*
X150667673Y-73989685D01*
X150713428Y-74042489D01*
X150723372Y-74111647D01*
X150694347Y-74175203D01*
X150665911Y-74199427D01*
X150603701Y-74237945D01*
X150446127Y-74381593D01*
X150317632Y-74551746D01*
X150222596Y-74742605D01*
X150222596Y-74742607D01*
X150198388Y-74827690D01*
X150164244Y-74947690D01*
X150144571Y-75160000D01*
X150164244Y-75372310D01*
X150194143Y-75477394D01*
X150222596Y-75577392D01*
X150222596Y-75577394D01*
X150317632Y-75768253D01*
X150446127Y-75938406D01*
X150446128Y-75938407D01*
X150603698Y-76082052D01*
X150784981Y-76194298D01*
X150983802Y-76271321D01*
X151180613Y-76308111D01*
X151242893Y-76339779D01*
X151278166Y-76400092D01*
X151275232Y-76469900D01*
X151235023Y-76527040D01*
X151180613Y-76551888D01*
X150983802Y-76588679D01*
X150983799Y-76588679D01*
X150983799Y-76588680D01*
X150784982Y-76665701D01*
X150784980Y-76665702D01*
X150603699Y-76777947D01*
X150446127Y-76921593D01*
X150317632Y-77091746D01*
X150222596Y-77282605D01*
X150222596Y-77282607D01*
X150198388Y-77367690D01*
X150164244Y-77487690D01*
X150144571Y-77700000D01*
X150164244Y-77912310D01*
X150194143Y-78017394D01*
X150222596Y-78117392D01*
X150222596Y-78117394D01*
X150317632Y-78308253D01*
X150446127Y-78478406D01*
X150446128Y-78478407D01*
X150603698Y-78622052D01*
X150784981Y-78734298D01*
X150983802Y-78811321D01*
X151193390Y-78850500D01*
X151193392Y-78850500D01*
X151406608Y-78850500D01*
X151406610Y-78850500D01*
X151616198Y-78811321D01*
X151815019Y-78734298D01*
X151996302Y-78622052D01*
X152153872Y-78478407D01*
X152282366Y-78308255D01*
X152332161Y-78208253D01*
X152377403Y-78117394D01*
X152377403Y-78117393D01*
X152377405Y-78117389D01*
X152435756Y-77912310D01*
X152455429Y-77700000D01*
X152435756Y-77487690D01*
X152377405Y-77282611D01*
X152377403Y-77282606D01*
X152377403Y-77282605D01*
X152282367Y-77091746D01*
X152153872Y-76921593D01*
X151996302Y-76777948D01*
X151815019Y-76665702D01*
X151815017Y-76665701D01*
X151715608Y-76627190D01*
X151616198Y-76588679D01*
X151419385Y-76551888D01*
X151357106Y-76520221D01*
X151321833Y-76459908D01*
X151324767Y-76390100D01*
X151364976Y-76332960D01*
X151419384Y-76308111D01*
X151616198Y-76271321D01*
X151815019Y-76194298D01*
X151996302Y-76082052D01*
X152153872Y-75938407D01*
X152282366Y-75768255D01*
X152332161Y-75668253D01*
X152377403Y-75577394D01*
X152377403Y-75577393D01*
X152377405Y-75577389D01*
X152435756Y-75372310D01*
X152455429Y-75160000D01*
X152435756Y-74947690D01*
X152377405Y-74742611D01*
X152377403Y-74742606D01*
X152377403Y-74742605D01*
X152282367Y-74551746D01*
X152153872Y-74381593D01*
X151996302Y-74237948D01*
X151996299Y-74237946D01*
X151996298Y-74237945D01*
X151934089Y-74199427D01*
X151887453Y-74147399D01*
X151876349Y-74078418D01*
X151904302Y-74014383D01*
X151962437Y-73975627D01*
X151999366Y-73970000D01*
X152197828Y-73970000D01*
X152197844Y-73969999D01*
X152257372Y-73963598D01*
X152257379Y-73963596D01*
X152392086Y-73913354D01*
X152392093Y-73913350D01*
X152507187Y-73827190D01*
X152507190Y-73827187D01*
X152593350Y-73712093D01*
X152593354Y-73712086D01*
X152643596Y-73577379D01*
X152643598Y-73577372D01*
X152649999Y-73517844D01*
X152650000Y-73517827D01*
X152650000Y-72870000D01*
X151733012Y-72870000D01*
X151765925Y-72812993D01*
X151800000Y-72685826D01*
X151800000Y-72554174D01*
X151765925Y-72427007D01*
X151733012Y-72370000D01*
X152650000Y-72370000D01*
X152650000Y-71722172D01*
X152649999Y-71722155D01*
X154550000Y-71722155D01*
X154550000Y-72370000D01*
X155466988Y-72370000D01*
X155434075Y-72427007D01*
X155400000Y-72554174D01*
X155400000Y-72685826D01*
X155434075Y-72812993D01*
X155466988Y-72870000D01*
X154550000Y-72870000D01*
X154550000Y-73517844D01*
X154556401Y-73577372D01*
X154556403Y-73577379D01*
X154606645Y-73712086D01*
X154606649Y-73712093D01*
X154692809Y-73827187D01*
X154692812Y-73827190D01*
X154807906Y-73913350D01*
X154807913Y-73913354D01*
X154942620Y-73963596D01*
X154942627Y-73963598D01*
X155002155Y-73969999D01*
X155002172Y-73970000D01*
X155200634Y-73970000D01*
X155267673Y-73989685D01*
X155313428Y-74042489D01*
X155323372Y-74111647D01*
X155294347Y-74175203D01*
X155265911Y-74199427D01*
X155203701Y-74237945D01*
X155046127Y-74381593D01*
X154917632Y-74551746D01*
X154822596Y-74742605D01*
X154822596Y-74742607D01*
X154798388Y-74827690D01*
X154764244Y-74947690D01*
X154744571Y-75160000D01*
X154764244Y-75372310D01*
X154794143Y-75477394D01*
X154822596Y-75577392D01*
X154822596Y-75577394D01*
X154917632Y-75768253D01*
X155046127Y-75938406D01*
X155046128Y-75938407D01*
X155203698Y-76082052D01*
X155384981Y-76194298D01*
X155583802Y-76271321D01*
X155780613Y-76308111D01*
X155842893Y-76339779D01*
X155878166Y-76400092D01*
X155875232Y-76469900D01*
X155835023Y-76527040D01*
X155780613Y-76551888D01*
X155583802Y-76588679D01*
X155583799Y-76588679D01*
X155583799Y-76588680D01*
X155384982Y-76665701D01*
X155384980Y-76665702D01*
X155203699Y-76777947D01*
X155046127Y-76921593D01*
X154917632Y-77091746D01*
X154822596Y-77282605D01*
X154822596Y-77282607D01*
X154798388Y-77367690D01*
X154764244Y-77487690D01*
X154744571Y-77700000D01*
X154764244Y-77912310D01*
X154794143Y-78017394D01*
X154822596Y-78117392D01*
X154822596Y-78117394D01*
X154917632Y-78308253D01*
X155046127Y-78478406D01*
X155046128Y-78478407D01*
X155203698Y-78622052D01*
X155384981Y-78734298D01*
X155583802Y-78811321D01*
X155793390Y-78850500D01*
X155793392Y-78850500D01*
X156006608Y-78850500D01*
X156006610Y-78850500D01*
X156216198Y-78811321D01*
X156415019Y-78734298D01*
X156596302Y-78622052D01*
X156753872Y-78478407D01*
X156882366Y-78308255D01*
X156932161Y-78208253D01*
X156977403Y-78117394D01*
X156977403Y-78117393D01*
X156977405Y-78117389D01*
X157035756Y-77912310D01*
X157055429Y-77700000D01*
X157035756Y-77487690D01*
X156977405Y-77282611D01*
X156977403Y-77282606D01*
X156977403Y-77282605D01*
X156882367Y-77091746D01*
X156753872Y-76921593D01*
X156596302Y-76777948D01*
X156415019Y-76665702D01*
X156415017Y-76665701D01*
X156315608Y-76627190D01*
X156216198Y-76588679D01*
X156019385Y-76551888D01*
X155957106Y-76520221D01*
X155921833Y-76459908D01*
X155924767Y-76390100D01*
X155964976Y-76332960D01*
X156019384Y-76308111D01*
X156216198Y-76271321D01*
X156415019Y-76194298D01*
X156596302Y-76082052D01*
X156753872Y-75938407D01*
X156882366Y-75768255D01*
X156932161Y-75668253D01*
X156977403Y-75577394D01*
X156977403Y-75577393D01*
X156977405Y-75577389D01*
X157035756Y-75372310D01*
X157055429Y-75160000D01*
X157035756Y-74947690D01*
X156977405Y-74742611D01*
X156977403Y-74742606D01*
X156977403Y-74742605D01*
X156882367Y-74551746D01*
X156753872Y-74381593D01*
X156596302Y-74237948D01*
X156596299Y-74237946D01*
X156596298Y-74237945D01*
X156534089Y-74199427D01*
X156487453Y-74147399D01*
X156476349Y-74078418D01*
X156504302Y-74014383D01*
X156562437Y-73975627D01*
X156599366Y-73970000D01*
X156797828Y-73970000D01*
X156797844Y-73969999D01*
X156857372Y-73963598D01*
X156857379Y-73963596D01*
X156992086Y-73913354D01*
X156992093Y-73913350D01*
X157107187Y-73827190D01*
X157107190Y-73827187D01*
X157193350Y-73712093D01*
X157193354Y-73712086D01*
X157243596Y-73577379D01*
X157243598Y-73577372D01*
X157249999Y-73517844D01*
X157250000Y-73517827D01*
X157250000Y-72870000D01*
X156333012Y-72870000D01*
X156365925Y-72812993D01*
X156400000Y-72685826D01*
X156400000Y-72554174D01*
X156365925Y-72427007D01*
X156333012Y-72370000D01*
X157250000Y-72370000D01*
X157250000Y-71722172D01*
X157249999Y-71722155D01*
X159150000Y-71722155D01*
X159150000Y-72370000D01*
X160066988Y-72370000D01*
X160034075Y-72427007D01*
X160000000Y-72554174D01*
X160000000Y-72685826D01*
X160034075Y-72812993D01*
X160066988Y-72870000D01*
X159150000Y-72870000D01*
X159150000Y-73517844D01*
X159156401Y-73577372D01*
X159156403Y-73577379D01*
X159206645Y-73712086D01*
X159206649Y-73712093D01*
X159292809Y-73827187D01*
X159292812Y-73827190D01*
X159407906Y-73913350D01*
X159407913Y-73913354D01*
X159542620Y-73963596D01*
X159542627Y-73963598D01*
X159602155Y-73969999D01*
X159602172Y-73970000D01*
X159800634Y-73970000D01*
X159867673Y-73989685D01*
X159913428Y-74042489D01*
X159923372Y-74111647D01*
X159894347Y-74175203D01*
X159865911Y-74199427D01*
X159803701Y-74237945D01*
X159646127Y-74381593D01*
X159517632Y-74551746D01*
X159422596Y-74742605D01*
X159422596Y-74742607D01*
X159398388Y-74827690D01*
X159364244Y-74947690D01*
X159344571Y-75160000D01*
X159364244Y-75372310D01*
X159394143Y-75477394D01*
X159422596Y-75577392D01*
X159422596Y-75577394D01*
X159517632Y-75768253D01*
X159646127Y-75938406D01*
X159646128Y-75938407D01*
X159803698Y-76082052D01*
X159984981Y-76194298D01*
X160183802Y-76271321D01*
X160380613Y-76308111D01*
X160442893Y-76339779D01*
X160478166Y-76400092D01*
X160475232Y-76469900D01*
X160435023Y-76527040D01*
X160380613Y-76551888D01*
X160183802Y-76588679D01*
X160183799Y-76588679D01*
X160183799Y-76588680D01*
X159984982Y-76665701D01*
X159984980Y-76665702D01*
X159803699Y-76777947D01*
X159646127Y-76921593D01*
X159517632Y-77091746D01*
X159422596Y-77282605D01*
X159422596Y-77282607D01*
X159398388Y-77367690D01*
X159364244Y-77487690D01*
X159344571Y-77700000D01*
X159364244Y-77912310D01*
X159394143Y-78017394D01*
X159422596Y-78117392D01*
X159422596Y-78117394D01*
X159517632Y-78308253D01*
X159646127Y-78478406D01*
X159646128Y-78478407D01*
X159803698Y-78622052D01*
X159984981Y-78734298D01*
X160183802Y-78811321D01*
X160393390Y-78850500D01*
X160393392Y-78850500D01*
X160606608Y-78850500D01*
X160606610Y-78850500D01*
X160816198Y-78811321D01*
X161015019Y-78734298D01*
X161196302Y-78622052D01*
X161353872Y-78478407D01*
X161482366Y-78308255D01*
X161532161Y-78208253D01*
X161577403Y-78117394D01*
X161577403Y-78117393D01*
X161577405Y-78117389D01*
X161635756Y-77912310D01*
X161655429Y-77700000D01*
X161635756Y-77487690D01*
X161577405Y-77282611D01*
X161577403Y-77282606D01*
X161577403Y-77282605D01*
X161482367Y-77091746D01*
X161353872Y-76921593D01*
X161196302Y-76777948D01*
X161015019Y-76665702D01*
X161015017Y-76665701D01*
X160915608Y-76627190D01*
X160816198Y-76588679D01*
X160619385Y-76551888D01*
X160557106Y-76520221D01*
X160521833Y-76459908D01*
X160524767Y-76390100D01*
X160564976Y-76332960D01*
X160619384Y-76308111D01*
X160816198Y-76271321D01*
X161015019Y-76194298D01*
X161196302Y-76082052D01*
X161353872Y-75938407D01*
X161482366Y-75768255D01*
X161532161Y-75668253D01*
X161577403Y-75577394D01*
X161577403Y-75577393D01*
X161577405Y-75577389D01*
X161635756Y-75372310D01*
X161655429Y-75160000D01*
X161635756Y-74947690D01*
X161577405Y-74742611D01*
X161577403Y-74742606D01*
X161577403Y-74742605D01*
X161482367Y-74551746D01*
X161353872Y-74381593D01*
X161196302Y-74237948D01*
X161196299Y-74237946D01*
X161196298Y-74237945D01*
X161134089Y-74199427D01*
X161087453Y-74147399D01*
X161076349Y-74078418D01*
X161104302Y-74014383D01*
X161162437Y-73975627D01*
X161199366Y-73970000D01*
X161397828Y-73970000D01*
X161397844Y-73969999D01*
X161457372Y-73963598D01*
X161457379Y-73963596D01*
X161592086Y-73913354D01*
X161592093Y-73913350D01*
X161707187Y-73827190D01*
X161707190Y-73827187D01*
X161793350Y-73712093D01*
X161793354Y-73712086D01*
X161843596Y-73577379D01*
X161843598Y-73577372D01*
X161849999Y-73517844D01*
X161850000Y-73517827D01*
X161850000Y-72870000D01*
X160933012Y-72870000D01*
X160965925Y-72812993D01*
X161000000Y-72685826D01*
X161000000Y-72554174D01*
X160965925Y-72427007D01*
X160933012Y-72370000D01*
X161850000Y-72370000D01*
X161850000Y-71722172D01*
X161849999Y-71722155D01*
X163750000Y-71722155D01*
X163750000Y-72370000D01*
X164666988Y-72370000D01*
X164634075Y-72427007D01*
X164600000Y-72554174D01*
X164600000Y-72685826D01*
X164634075Y-72812993D01*
X164666988Y-72870000D01*
X163750000Y-72870000D01*
X163750000Y-73517844D01*
X163756401Y-73577372D01*
X163756403Y-73577379D01*
X163806645Y-73712086D01*
X163806649Y-73712093D01*
X163892809Y-73827187D01*
X163892812Y-73827190D01*
X164007906Y-73913350D01*
X164007913Y-73913354D01*
X164142620Y-73963596D01*
X164142627Y-73963598D01*
X164202155Y-73969999D01*
X164202172Y-73970000D01*
X164400634Y-73970000D01*
X164467673Y-73989685D01*
X164513428Y-74042489D01*
X164523372Y-74111647D01*
X164494347Y-74175203D01*
X164465911Y-74199427D01*
X164403701Y-74237945D01*
X164246127Y-74381593D01*
X164117632Y-74551746D01*
X164022596Y-74742605D01*
X164022596Y-74742607D01*
X163998388Y-74827690D01*
X163964244Y-74947690D01*
X163944571Y-75160000D01*
X163964244Y-75372310D01*
X163994143Y-75477394D01*
X164022596Y-75577392D01*
X164022596Y-75577394D01*
X164117632Y-75768253D01*
X164246127Y-75938406D01*
X164246128Y-75938407D01*
X164403698Y-76082052D01*
X164584981Y-76194298D01*
X164783802Y-76271321D01*
X164980613Y-76308111D01*
X165042893Y-76339779D01*
X165078166Y-76400092D01*
X165075232Y-76469900D01*
X165035023Y-76527040D01*
X164980613Y-76551888D01*
X164783802Y-76588679D01*
X164783799Y-76588679D01*
X164783799Y-76588680D01*
X164584982Y-76665701D01*
X164584980Y-76665702D01*
X164403699Y-76777947D01*
X164246127Y-76921593D01*
X164117632Y-77091746D01*
X164022596Y-77282605D01*
X164022596Y-77282607D01*
X163998388Y-77367690D01*
X163964244Y-77487690D01*
X163944571Y-77700000D01*
X163964244Y-77912310D01*
X163994143Y-78017394D01*
X164022596Y-78117392D01*
X164022596Y-78117394D01*
X164117632Y-78308253D01*
X164246127Y-78478406D01*
X164246128Y-78478407D01*
X164403698Y-78622052D01*
X164584981Y-78734298D01*
X164783802Y-78811321D01*
X164993390Y-78850500D01*
X164993392Y-78850500D01*
X165206608Y-78850500D01*
X165206610Y-78850500D01*
X165416198Y-78811321D01*
X165615019Y-78734298D01*
X165796302Y-78622052D01*
X165953872Y-78478407D01*
X166082366Y-78308255D01*
X166132161Y-78208253D01*
X166177403Y-78117394D01*
X166177403Y-78117393D01*
X166177405Y-78117389D01*
X166235756Y-77912310D01*
X166255429Y-77700000D01*
X166235756Y-77487690D01*
X166177405Y-77282611D01*
X166177403Y-77282606D01*
X166177403Y-77282605D01*
X166082367Y-77091746D01*
X165953872Y-76921593D01*
X165796302Y-76777948D01*
X165615019Y-76665702D01*
X165615017Y-76665701D01*
X165515608Y-76627190D01*
X165416198Y-76588679D01*
X165219385Y-76551888D01*
X165157106Y-76520221D01*
X165121833Y-76459908D01*
X165124767Y-76390100D01*
X165164976Y-76332960D01*
X165219384Y-76308111D01*
X165416198Y-76271321D01*
X165615019Y-76194298D01*
X165796302Y-76082052D01*
X165953872Y-75938407D01*
X166082366Y-75768255D01*
X166132161Y-75668253D01*
X166177403Y-75577394D01*
X166177403Y-75577393D01*
X166177405Y-75577389D01*
X166235756Y-75372310D01*
X166255429Y-75160000D01*
X166235756Y-74947690D01*
X166177405Y-74742611D01*
X166177403Y-74742606D01*
X166177403Y-74742605D01*
X166082367Y-74551746D01*
X165953872Y-74381593D01*
X165796302Y-74237948D01*
X165796299Y-74237946D01*
X165796298Y-74237945D01*
X165734089Y-74199427D01*
X165687453Y-74147399D01*
X165676349Y-74078418D01*
X165704302Y-74014383D01*
X165762437Y-73975627D01*
X165799366Y-73970000D01*
X165997828Y-73970000D01*
X165997844Y-73969999D01*
X166057372Y-73963598D01*
X166057379Y-73963596D01*
X166192086Y-73913354D01*
X166192093Y-73913350D01*
X166307187Y-73827190D01*
X166307190Y-73827187D01*
X166393350Y-73712093D01*
X166393354Y-73712086D01*
X166443596Y-73577379D01*
X166443598Y-73577372D01*
X166449999Y-73517844D01*
X166450000Y-73517827D01*
X166450000Y-72870000D01*
X165533012Y-72870000D01*
X165565925Y-72812993D01*
X165600000Y-72685826D01*
X165600000Y-72554174D01*
X165565925Y-72427007D01*
X165533012Y-72370000D01*
X166450000Y-72370000D01*
X166450000Y-71722172D01*
X166449999Y-71722155D01*
X168350000Y-71722155D01*
X168350000Y-72370000D01*
X169266988Y-72370000D01*
X169234075Y-72427007D01*
X169200000Y-72554174D01*
X169200000Y-72685826D01*
X169234075Y-72812993D01*
X169266988Y-72870000D01*
X168350000Y-72870000D01*
X168350000Y-73517844D01*
X168356401Y-73577372D01*
X168356403Y-73577379D01*
X168406645Y-73712086D01*
X168406649Y-73712093D01*
X168492809Y-73827187D01*
X168492812Y-73827190D01*
X168607906Y-73913350D01*
X168607913Y-73913354D01*
X168742620Y-73963596D01*
X168742627Y-73963598D01*
X168802155Y-73969999D01*
X168802172Y-73970000D01*
X169000634Y-73970000D01*
X169067673Y-73989685D01*
X169113428Y-74042489D01*
X169123372Y-74111647D01*
X169094347Y-74175203D01*
X169065911Y-74199427D01*
X169003701Y-74237945D01*
X168846127Y-74381593D01*
X168717632Y-74551746D01*
X168622596Y-74742605D01*
X168622596Y-74742607D01*
X168598388Y-74827690D01*
X168564244Y-74947690D01*
X168544571Y-75160000D01*
X168564244Y-75372310D01*
X168594143Y-75477394D01*
X168622596Y-75577392D01*
X168622596Y-75577394D01*
X168717632Y-75768253D01*
X168846127Y-75938406D01*
X168846128Y-75938407D01*
X169003698Y-76082052D01*
X169184981Y-76194298D01*
X169383802Y-76271321D01*
X169580613Y-76308111D01*
X169642893Y-76339779D01*
X169678166Y-76400092D01*
X169675232Y-76469900D01*
X169635023Y-76527040D01*
X169580613Y-76551888D01*
X169383802Y-76588679D01*
X169383799Y-76588679D01*
X169383799Y-76588680D01*
X169184982Y-76665701D01*
X169184980Y-76665702D01*
X169003699Y-76777947D01*
X168846127Y-76921593D01*
X168717632Y-77091746D01*
X168622596Y-77282605D01*
X168622596Y-77282607D01*
X168598388Y-77367690D01*
X168564244Y-77487690D01*
X168544571Y-77700000D01*
X168564244Y-77912310D01*
X168594143Y-78017394D01*
X168622596Y-78117392D01*
X168622596Y-78117394D01*
X168717632Y-78308253D01*
X168846127Y-78478406D01*
X168846128Y-78478407D01*
X169003698Y-78622052D01*
X169184981Y-78734298D01*
X169383802Y-78811321D01*
X169593390Y-78850500D01*
X169593392Y-78850500D01*
X169806608Y-78850500D01*
X169806610Y-78850500D01*
X170016198Y-78811321D01*
X170215019Y-78734298D01*
X170396302Y-78622052D01*
X170553872Y-78478407D01*
X170682366Y-78308255D01*
X170732161Y-78208253D01*
X170777403Y-78117394D01*
X170777403Y-78117393D01*
X170777405Y-78117389D01*
X170835756Y-77912310D01*
X170855429Y-77700000D01*
X170835756Y-77487690D01*
X170777405Y-77282611D01*
X170777403Y-77282606D01*
X170777403Y-77282605D01*
X170682367Y-77091746D01*
X170553872Y-76921593D01*
X170396302Y-76777948D01*
X170215019Y-76665702D01*
X170215017Y-76665701D01*
X170115608Y-76627190D01*
X170016198Y-76588679D01*
X169819385Y-76551888D01*
X169757106Y-76520221D01*
X169721833Y-76459908D01*
X169724767Y-76390100D01*
X169764976Y-76332960D01*
X169819384Y-76308111D01*
X170016198Y-76271321D01*
X170215019Y-76194298D01*
X170396302Y-76082052D01*
X170553872Y-75938407D01*
X170682366Y-75768255D01*
X170732161Y-75668253D01*
X170777403Y-75577394D01*
X170777403Y-75577393D01*
X170777405Y-75577389D01*
X170835756Y-75372310D01*
X170855429Y-75160000D01*
X170835756Y-74947690D01*
X170777405Y-74742611D01*
X170777403Y-74742606D01*
X170777403Y-74742605D01*
X170682367Y-74551746D01*
X170553872Y-74381593D01*
X170396302Y-74237948D01*
X170396299Y-74237946D01*
X170396298Y-74237945D01*
X170334089Y-74199427D01*
X170287453Y-74147399D01*
X170276349Y-74078418D01*
X170304302Y-74014383D01*
X170362437Y-73975627D01*
X170399366Y-73970000D01*
X170597828Y-73970000D01*
X170597844Y-73969999D01*
X170657372Y-73963598D01*
X170657379Y-73963596D01*
X170792086Y-73913354D01*
X170792093Y-73913350D01*
X170907187Y-73827190D01*
X170907190Y-73827187D01*
X170993350Y-73712093D01*
X170993354Y-73712086D01*
X171043596Y-73577379D01*
X171043598Y-73577372D01*
X171049999Y-73517844D01*
X171050000Y-73517827D01*
X171050000Y-72870000D01*
X170133012Y-72870000D01*
X170165925Y-72812993D01*
X170200000Y-72685826D01*
X170200000Y-72554174D01*
X170165925Y-72427007D01*
X170133012Y-72370000D01*
X171050000Y-72370000D01*
X171050000Y-71722172D01*
X171049999Y-71722155D01*
X171043598Y-71662627D01*
X171043596Y-71662620D01*
X171028504Y-71622155D01*
X172950000Y-71622155D01*
X172950000Y-72270000D01*
X173866988Y-72270000D01*
X173834075Y-72327007D01*
X173800000Y-72454174D01*
X173800000Y-72585826D01*
X173834075Y-72712993D01*
X173866988Y-72770000D01*
X172950000Y-72770000D01*
X172950000Y-73417844D01*
X172956401Y-73477372D01*
X172956403Y-73477379D01*
X173006645Y-73612086D01*
X173006649Y-73612093D01*
X173092809Y-73727187D01*
X173092812Y-73727190D01*
X173207906Y-73813350D01*
X173207913Y-73813354D01*
X173342620Y-73863596D01*
X173342627Y-73863598D01*
X173402155Y-73869999D01*
X173402172Y-73870000D01*
X173600634Y-73870000D01*
X173667673Y-73889685D01*
X173713428Y-73942489D01*
X173723372Y-74011647D01*
X173694347Y-74075203D01*
X173665911Y-74099427D01*
X173603701Y-74137945D01*
X173446127Y-74281593D01*
X173317632Y-74451746D01*
X173222596Y-74642605D01*
X173222596Y-74642607D01*
X173169935Y-74827690D01*
X173164244Y-74847690D01*
X173144571Y-75060000D01*
X173164244Y-75272310D01*
X173221912Y-75474990D01*
X173222596Y-75477392D01*
X173222596Y-75477394D01*
X173317632Y-75668253D01*
X173446127Y-75838406D01*
X173446128Y-75838407D01*
X173603698Y-75982052D01*
X173784981Y-76094298D01*
X173983802Y-76171321D01*
X174180613Y-76208111D01*
X174242893Y-76239779D01*
X174278166Y-76300092D01*
X174275232Y-76369900D01*
X174235023Y-76427040D01*
X174180613Y-76451888D01*
X173983802Y-76488679D01*
X173983799Y-76488679D01*
X173983799Y-76488680D01*
X173784982Y-76565701D01*
X173784980Y-76565702D01*
X173603699Y-76677947D01*
X173446127Y-76821593D01*
X173317632Y-76991746D01*
X173222596Y-77182605D01*
X173222596Y-77182607D01*
X173169935Y-77367690D01*
X173164244Y-77387690D01*
X173144571Y-77600000D01*
X173164244Y-77812310D01*
X173216904Y-77997389D01*
X173222596Y-78017392D01*
X173222596Y-78017394D01*
X173317632Y-78208253D01*
X173446127Y-78378406D01*
X173446128Y-78378407D01*
X173603698Y-78522052D01*
X173784981Y-78634298D01*
X173983802Y-78711321D01*
X174193390Y-78750500D01*
X174193392Y-78750500D01*
X174406608Y-78750500D01*
X174406610Y-78750500D01*
X174616198Y-78711321D01*
X174815019Y-78634298D01*
X174996302Y-78522052D01*
X175153872Y-78378407D01*
X175282366Y-78208255D01*
X175327610Y-78117392D01*
X175377403Y-78017394D01*
X175377403Y-78017393D01*
X175377405Y-78017389D01*
X175435756Y-77812310D01*
X175455429Y-77600000D01*
X175435756Y-77387690D01*
X175377405Y-77182611D01*
X175377403Y-77182606D01*
X175377403Y-77182605D01*
X175282367Y-76991746D01*
X175153872Y-76821593D01*
X175105995Y-76777947D01*
X174996302Y-76677948D01*
X174815019Y-76565702D01*
X174815017Y-76565701D01*
X174697618Y-76520221D01*
X174616198Y-76488679D01*
X174419385Y-76451888D01*
X174357106Y-76420221D01*
X174321833Y-76359908D01*
X174324767Y-76290100D01*
X174364976Y-76232960D01*
X174419384Y-76208111D01*
X174616198Y-76171321D01*
X174815019Y-76094298D01*
X174996302Y-75982052D01*
X175153872Y-75838407D01*
X175282366Y-75668255D01*
X175327610Y-75577392D01*
X175377403Y-75477394D01*
X175377403Y-75477393D01*
X175377405Y-75477389D01*
X175435756Y-75272310D01*
X175455429Y-75060000D01*
X175435756Y-74847690D01*
X175377405Y-74642611D01*
X175377403Y-74642606D01*
X175377403Y-74642605D01*
X175282367Y-74451746D01*
X175153872Y-74281593D01*
X175105993Y-74237945D01*
X174996302Y-74137948D01*
X174996299Y-74137946D01*
X174996298Y-74137945D01*
X174934089Y-74099427D01*
X174887453Y-74047399D01*
X174876349Y-73978418D01*
X174904302Y-73914383D01*
X174962437Y-73875627D01*
X174999366Y-73870000D01*
X175197828Y-73870000D01*
X175197844Y-73869999D01*
X175257372Y-73863598D01*
X175257379Y-73863596D01*
X175392086Y-73813354D01*
X175392093Y-73813350D01*
X175507187Y-73727190D01*
X175507190Y-73727187D01*
X175593350Y-73612093D01*
X175593354Y-73612086D01*
X175643596Y-73477379D01*
X175643598Y-73477372D01*
X175649999Y-73417844D01*
X175650000Y-73417827D01*
X175650000Y-72770000D01*
X174733012Y-72770000D01*
X174765925Y-72712993D01*
X174800000Y-72585826D01*
X174800000Y-72454174D01*
X174765925Y-72327007D01*
X174733012Y-72270000D01*
X175650000Y-72270000D01*
X175650000Y-71622172D01*
X175649999Y-71622155D01*
X177550000Y-71622155D01*
X177550000Y-72270000D01*
X178466988Y-72270000D01*
X178434075Y-72327007D01*
X178400000Y-72454174D01*
X178400000Y-72585826D01*
X178434075Y-72712993D01*
X178466988Y-72770000D01*
X177550000Y-72770000D01*
X177550000Y-73417844D01*
X177556401Y-73477372D01*
X177556403Y-73477379D01*
X177606645Y-73612086D01*
X177606649Y-73612093D01*
X177692809Y-73727187D01*
X177692812Y-73727190D01*
X177807906Y-73813350D01*
X177807913Y-73813354D01*
X177942620Y-73863596D01*
X177942627Y-73863598D01*
X178002155Y-73869999D01*
X178002172Y-73870000D01*
X178200634Y-73870000D01*
X178267673Y-73889685D01*
X178313428Y-73942489D01*
X178323372Y-74011647D01*
X178294347Y-74075203D01*
X178265911Y-74099427D01*
X178203701Y-74137945D01*
X178046127Y-74281593D01*
X177917632Y-74451746D01*
X177822596Y-74642605D01*
X177822596Y-74642607D01*
X177769935Y-74827690D01*
X177764244Y-74847690D01*
X177744571Y-75060000D01*
X177764244Y-75272310D01*
X177821912Y-75474990D01*
X177822596Y-75477392D01*
X177822596Y-75477394D01*
X177917632Y-75668253D01*
X178046127Y-75838406D01*
X178046128Y-75838407D01*
X178203698Y-75982052D01*
X178384981Y-76094298D01*
X178583802Y-76171321D01*
X178780613Y-76208111D01*
X178842893Y-76239779D01*
X178878166Y-76300092D01*
X178875232Y-76369900D01*
X178835023Y-76427040D01*
X178780613Y-76451888D01*
X178583802Y-76488679D01*
X178583799Y-76488679D01*
X178583799Y-76488680D01*
X178384982Y-76565701D01*
X178384980Y-76565702D01*
X178203699Y-76677947D01*
X178046127Y-76821593D01*
X177917632Y-76991746D01*
X177822596Y-77182605D01*
X177822596Y-77182607D01*
X177769935Y-77367690D01*
X177764244Y-77387690D01*
X177744571Y-77600000D01*
X177764244Y-77812310D01*
X177816904Y-77997389D01*
X177822596Y-78017392D01*
X177822596Y-78017394D01*
X177917632Y-78208253D01*
X178046127Y-78378406D01*
X178046128Y-78378407D01*
X178203698Y-78522052D01*
X178384981Y-78634298D01*
X178583802Y-78711321D01*
X178793390Y-78750500D01*
X178793392Y-78750500D01*
X179006608Y-78750500D01*
X179006610Y-78750500D01*
X179216198Y-78711321D01*
X179415019Y-78634298D01*
X179596302Y-78522052D01*
X179753872Y-78378407D01*
X179882366Y-78208255D01*
X179927610Y-78117392D01*
X179977403Y-78017394D01*
X179977403Y-78017393D01*
X179977405Y-78017389D01*
X180035756Y-77812310D01*
X180055429Y-77600000D01*
X180035756Y-77387690D01*
X179977405Y-77182611D01*
X179977403Y-77182606D01*
X179977403Y-77182605D01*
X179882367Y-76991746D01*
X179753872Y-76821593D01*
X179705995Y-76777947D01*
X179596302Y-76677948D01*
X179415019Y-76565702D01*
X179415017Y-76565701D01*
X179297618Y-76520221D01*
X179216198Y-76488679D01*
X179019385Y-76451888D01*
X178957106Y-76420221D01*
X178921833Y-76359908D01*
X178924767Y-76290100D01*
X178964976Y-76232960D01*
X179019384Y-76208111D01*
X179216198Y-76171321D01*
X179415019Y-76094298D01*
X179596302Y-75982052D01*
X179753872Y-75838407D01*
X179882366Y-75668255D01*
X179927610Y-75577392D01*
X179977403Y-75477394D01*
X179977403Y-75477393D01*
X179977405Y-75477389D01*
X180035756Y-75272310D01*
X180055429Y-75060000D01*
X180035756Y-74847690D01*
X179977405Y-74642611D01*
X179977403Y-74642606D01*
X179977403Y-74642605D01*
X179882367Y-74451746D01*
X179753872Y-74281593D01*
X179705993Y-74237945D01*
X179596302Y-74137948D01*
X179596299Y-74137946D01*
X179596298Y-74137945D01*
X179534089Y-74099427D01*
X179487453Y-74047399D01*
X179476349Y-73978418D01*
X179504302Y-73914383D01*
X179562437Y-73875627D01*
X179599366Y-73870000D01*
X179797828Y-73870000D01*
X179797844Y-73869999D01*
X179857372Y-73863598D01*
X179857379Y-73863596D01*
X179992086Y-73813354D01*
X179992093Y-73813350D01*
X180107187Y-73727190D01*
X180107190Y-73727187D01*
X180193350Y-73612093D01*
X180193354Y-73612086D01*
X180243596Y-73477379D01*
X180243598Y-73477372D01*
X180249999Y-73417844D01*
X180250000Y-73417827D01*
X180250000Y-72770000D01*
X179333012Y-72770000D01*
X179365925Y-72712993D01*
X179400000Y-72585826D01*
X179400000Y-72454174D01*
X179365925Y-72327007D01*
X179333012Y-72270000D01*
X180250000Y-72270000D01*
X180250000Y-71622172D01*
X180249999Y-71622155D01*
X180247848Y-71602155D01*
X182250000Y-71602155D01*
X182250000Y-72250000D01*
X183166988Y-72250000D01*
X183134075Y-72307007D01*
X183100000Y-72434174D01*
X183100000Y-72565826D01*
X183134075Y-72692993D01*
X183166988Y-72750000D01*
X182250000Y-72750000D01*
X182250000Y-73397844D01*
X182256401Y-73457372D01*
X182256403Y-73457379D01*
X182306645Y-73592086D01*
X182306649Y-73592093D01*
X182392809Y-73707187D01*
X182392812Y-73707190D01*
X182507906Y-73793350D01*
X182507913Y-73793354D01*
X182642620Y-73843596D01*
X182642627Y-73843598D01*
X182702155Y-73849999D01*
X182702172Y-73850000D01*
X182900634Y-73850000D01*
X182967673Y-73869685D01*
X183013428Y-73922489D01*
X183023372Y-73991647D01*
X182994347Y-74055203D01*
X182965911Y-74079427D01*
X182903701Y-74117945D01*
X182746127Y-74261593D01*
X182617632Y-74431746D01*
X182522596Y-74622605D01*
X182522596Y-74622607D01*
X182464244Y-74827689D01*
X182444571Y-75039999D01*
X182444571Y-75040000D01*
X182464244Y-75252310D01*
X182522596Y-75457392D01*
X182522596Y-75457394D01*
X182617632Y-75648253D01*
X182746127Y-75818406D01*
X182746128Y-75818407D01*
X182903698Y-75962052D01*
X183084981Y-76074298D01*
X183283802Y-76151321D01*
X183480613Y-76188111D01*
X183542893Y-76219779D01*
X183578166Y-76280092D01*
X183575232Y-76349900D01*
X183535023Y-76407040D01*
X183480613Y-76431888D01*
X183283802Y-76468679D01*
X183283799Y-76468679D01*
X183283799Y-76468680D01*
X183084982Y-76545701D01*
X183084980Y-76545702D01*
X182903699Y-76657947D01*
X182746127Y-76801593D01*
X182617632Y-76971746D01*
X182522596Y-77162605D01*
X182522596Y-77162607D01*
X182464244Y-77367689D01*
X182444571Y-77579999D01*
X182444571Y-77580000D01*
X182464244Y-77792310D01*
X182522596Y-77997392D01*
X182522596Y-77997394D01*
X182617632Y-78188253D01*
X182746127Y-78358406D01*
X182746128Y-78358407D01*
X182903698Y-78502052D01*
X183084981Y-78614298D01*
X183283802Y-78691321D01*
X183493390Y-78730500D01*
X183493392Y-78730500D01*
X183706608Y-78730500D01*
X183706610Y-78730500D01*
X183916198Y-78691321D01*
X184115019Y-78614298D01*
X184296302Y-78502052D01*
X184453872Y-78358407D01*
X184582366Y-78188255D01*
X184667445Y-78017392D01*
X184677403Y-77997394D01*
X184677403Y-77997393D01*
X184677405Y-77997389D01*
X184735756Y-77792310D01*
X184755429Y-77580000D01*
X184735756Y-77367690D01*
X184677405Y-77162611D01*
X184677403Y-77162606D01*
X184677403Y-77162605D01*
X184582367Y-76971746D01*
X184453872Y-76801593D01*
X184427934Y-76777947D01*
X184296302Y-76657948D01*
X184115019Y-76545702D01*
X184115017Y-76545701D01*
X183967824Y-76488679D01*
X183916198Y-76468679D01*
X183719385Y-76431888D01*
X183657106Y-76400221D01*
X183621833Y-76339908D01*
X183624767Y-76270100D01*
X183664976Y-76212960D01*
X183719384Y-76188111D01*
X183916198Y-76151321D01*
X184115019Y-76074298D01*
X184296302Y-75962052D01*
X184453872Y-75818407D01*
X184582366Y-75648255D01*
X184617653Y-75577389D01*
X184677403Y-75457394D01*
X184677403Y-75457393D01*
X184677405Y-75457389D01*
X184735756Y-75252310D01*
X184755429Y-75040000D01*
X184735756Y-74827690D01*
X184677405Y-74622611D01*
X184677403Y-74622606D01*
X184677403Y-74622605D01*
X184582367Y-74431746D01*
X184453872Y-74261593D01*
X184427935Y-74237948D01*
X184296302Y-74117948D01*
X184296299Y-74117946D01*
X184296298Y-74117945D01*
X184234089Y-74079427D01*
X184187453Y-74027399D01*
X184176349Y-73958418D01*
X184204302Y-73894383D01*
X184262437Y-73855627D01*
X184299366Y-73850000D01*
X184497828Y-73850000D01*
X184497844Y-73849999D01*
X184557372Y-73843598D01*
X184557379Y-73843596D01*
X184692086Y-73793354D01*
X184692093Y-73793350D01*
X184807187Y-73707190D01*
X184807190Y-73707187D01*
X184893350Y-73592093D01*
X184893354Y-73592086D01*
X184943596Y-73457379D01*
X184943598Y-73457372D01*
X184949999Y-73397844D01*
X184950000Y-73397827D01*
X184950000Y-72750000D01*
X184033012Y-72750000D01*
X184065925Y-72692993D01*
X184100000Y-72565826D01*
X184100000Y-72434174D01*
X184065925Y-72307007D01*
X184033012Y-72250000D01*
X184950000Y-72250000D01*
X184950000Y-71602172D01*
X184949999Y-71602155D01*
X186850000Y-71602155D01*
X186850000Y-72250000D01*
X187766988Y-72250000D01*
X187734075Y-72307007D01*
X187700000Y-72434174D01*
X187700000Y-72565826D01*
X187734075Y-72692993D01*
X187766988Y-72750000D01*
X186850000Y-72750000D01*
X186850000Y-73397844D01*
X186856401Y-73457372D01*
X186856403Y-73457379D01*
X186906645Y-73592086D01*
X186906649Y-73592093D01*
X186992809Y-73707187D01*
X186992812Y-73707190D01*
X187107906Y-73793350D01*
X187107913Y-73793354D01*
X187242620Y-73843596D01*
X187242627Y-73843598D01*
X187302155Y-73849999D01*
X187302172Y-73850000D01*
X187500634Y-73850000D01*
X187567673Y-73869685D01*
X187613428Y-73922489D01*
X187623372Y-73991647D01*
X187594347Y-74055203D01*
X187565911Y-74079427D01*
X187503701Y-74117945D01*
X187346127Y-74261593D01*
X187217632Y-74431746D01*
X187122596Y-74622605D01*
X187122596Y-74622607D01*
X187064244Y-74827689D01*
X187044571Y-75039999D01*
X187044571Y-75040000D01*
X187064244Y-75252310D01*
X187122596Y-75457392D01*
X187122596Y-75457394D01*
X187217632Y-75648253D01*
X187346127Y-75818406D01*
X187346128Y-75818407D01*
X187503698Y-75962052D01*
X187684981Y-76074298D01*
X187883802Y-76151321D01*
X188080613Y-76188111D01*
X188142893Y-76219779D01*
X188178166Y-76280092D01*
X188175232Y-76349900D01*
X188135023Y-76407040D01*
X188080613Y-76431888D01*
X187883802Y-76468679D01*
X187883799Y-76468679D01*
X187883799Y-76468680D01*
X187684982Y-76545701D01*
X187684980Y-76545702D01*
X187503699Y-76657947D01*
X187346127Y-76801593D01*
X187217632Y-76971746D01*
X187122596Y-77162605D01*
X187122596Y-77162607D01*
X187064244Y-77367689D01*
X187044571Y-77579999D01*
X187044571Y-77580000D01*
X187064244Y-77792310D01*
X187122596Y-77997392D01*
X187122596Y-77997394D01*
X187217632Y-78188253D01*
X187346127Y-78358406D01*
X187346128Y-78358407D01*
X187503698Y-78502052D01*
X187684981Y-78614298D01*
X187883802Y-78691321D01*
X188093390Y-78730500D01*
X188093392Y-78730500D01*
X188306608Y-78730500D01*
X188306610Y-78730500D01*
X188516198Y-78691321D01*
X188715019Y-78614298D01*
X188896302Y-78502052D01*
X189053872Y-78358407D01*
X189182366Y-78188255D01*
X189267445Y-78017392D01*
X189277403Y-77997394D01*
X189277403Y-77997393D01*
X189277405Y-77997389D01*
X189335756Y-77792310D01*
X189355429Y-77580000D01*
X189335756Y-77367690D01*
X189277405Y-77162611D01*
X189277403Y-77162606D01*
X189277403Y-77162605D01*
X189182367Y-76971746D01*
X189053872Y-76801593D01*
X189027934Y-76777947D01*
X188896302Y-76657948D01*
X188715019Y-76545702D01*
X188715017Y-76545701D01*
X188567824Y-76488679D01*
X188516198Y-76468679D01*
X188319385Y-76431888D01*
X188257106Y-76400221D01*
X188221833Y-76339908D01*
X188224767Y-76270100D01*
X188264976Y-76212960D01*
X188319384Y-76188111D01*
X188516198Y-76151321D01*
X188715019Y-76074298D01*
X188896302Y-75962052D01*
X189053872Y-75818407D01*
X189182366Y-75648255D01*
X189217653Y-75577389D01*
X189277403Y-75457394D01*
X189277403Y-75457393D01*
X189277405Y-75457389D01*
X189335756Y-75252310D01*
X189355429Y-75040000D01*
X189335756Y-74827690D01*
X189277405Y-74622611D01*
X189277403Y-74622606D01*
X189277403Y-74622605D01*
X189182367Y-74431746D01*
X189053872Y-74261593D01*
X189027935Y-74237948D01*
X188896302Y-74117948D01*
X188896299Y-74117946D01*
X188896298Y-74117945D01*
X188834089Y-74079427D01*
X188787453Y-74027399D01*
X188776349Y-73958418D01*
X188804302Y-73894383D01*
X188862437Y-73855627D01*
X188899366Y-73850000D01*
X189097828Y-73850000D01*
X189097844Y-73849999D01*
X189157372Y-73843598D01*
X189157379Y-73843596D01*
X189292086Y-73793354D01*
X189292093Y-73793350D01*
X189304953Y-73783723D01*
X194000500Y-73783723D01*
X194000500Y-74036277D01*
X194018100Y-74147399D01*
X194040009Y-74285722D01*
X194040009Y-74285725D01*
X194118050Y-74525911D01*
X194118051Y-74525914D01*
X194177509Y-74642605D01*
X194232709Y-74750941D01*
X194381156Y-74955261D01*
X194559739Y-75133844D01*
X194764059Y-75282291D01*
X194874428Y-75338526D01*
X194989085Y-75396948D01*
X194989088Y-75396949D01*
X195175121Y-75457394D01*
X195229279Y-75474991D01*
X195478723Y-75514500D01*
X195478724Y-75514500D01*
X195731276Y-75514500D01*
X195731277Y-75514500D01*
X195980721Y-75474991D01*
X195980724Y-75474990D01*
X195980725Y-75474990D01*
X196220911Y-75396949D01*
X196220914Y-75396948D01*
X196445941Y-75282291D01*
X196650261Y-75133844D01*
X196828844Y-74955261D01*
X196977291Y-74750941D01*
X197091948Y-74525914D01*
X197122545Y-74431745D01*
X197169990Y-74285725D01*
X197169990Y-74285724D01*
X197169991Y-74285721D01*
X197209500Y-74036277D01*
X197209500Y-73783723D01*
X197169991Y-73534279D01*
X197169990Y-73534275D01*
X197169990Y-73534274D01*
X197091949Y-73294088D01*
X197091948Y-73294085D01*
X197033526Y-73179428D01*
X196977291Y-73069059D01*
X196828844Y-72864739D01*
X196650261Y-72686156D01*
X196445941Y-72537709D01*
X196220914Y-72423051D01*
X196220911Y-72423050D01*
X195980723Y-72345009D01*
X195814425Y-72318669D01*
X195731277Y-72305500D01*
X195478723Y-72305500D01*
X195395575Y-72318669D01*
X195229277Y-72345009D01*
X195229274Y-72345009D01*
X194989088Y-72423050D01*
X194989085Y-72423051D01*
X194764058Y-72537709D01*
X194559736Y-72686158D01*
X194381158Y-72864736D01*
X194232709Y-73069058D01*
X194118051Y-73294085D01*
X194118050Y-73294088D01*
X194040009Y-73534274D01*
X194040009Y-73534277D01*
X194033182Y-73577379D01*
X194000500Y-73783723D01*
X189304953Y-73783723D01*
X189407187Y-73707190D01*
X189407190Y-73707187D01*
X189493350Y-73592093D01*
X189493354Y-73592086D01*
X189543596Y-73457379D01*
X189543598Y-73457372D01*
X189549999Y-73397844D01*
X189550000Y-73397827D01*
X189550000Y-72750000D01*
X188633012Y-72750000D01*
X188665925Y-72692993D01*
X188700000Y-72565826D01*
X188700000Y-72434174D01*
X188665925Y-72307007D01*
X188633012Y-72250000D01*
X189550000Y-72250000D01*
X189550000Y-71602172D01*
X189549999Y-71602155D01*
X189543598Y-71542627D01*
X189543596Y-71542620D01*
X189493354Y-71407913D01*
X189493350Y-71407906D01*
X189407190Y-71292812D01*
X189407187Y-71292809D01*
X189292093Y-71206649D01*
X189292086Y-71206645D01*
X189157379Y-71156403D01*
X189157372Y-71156401D01*
X189097844Y-71150000D01*
X188450000Y-71150000D01*
X188450000Y-72066988D01*
X188392993Y-72034075D01*
X188265826Y-72000000D01*
X188134174Y-72000000D01*
X188007007Y-72034075D01*
X187950000Y-72066988D01*
X187950000Y-71150000D01*
X187302155Y-71150000D01*
X187242627Y-71156401D01*
X187242620Y-71156403D01*
X187107913Y-71206645D01*
X187107906Y-71206649D01*
X186992812Y-71292809D01*
X186992809Y-71292812D01*
X186906649Y-71407906D01*
X186906645Y-71407913D01*
X186856403Y-71542620D01*
X186856401Y-71542627D01*
X186850000Y-71602155D01*
X184949999Y-71602155D01*
X184943598Y-71542627D01*
X184943596Y-71542620D01*
X184893354Y-71407913D01*
X184893350Y-71407906D01*
X184807190Y-71292812D01*
X184807187Y-71292809D01*
X184692093Y-71206649D01*
X184692086Y-71206645D01*
X184557379Y-71156403D01*
X184557372Y-71156401D01*
X184497844Y-71150000D01*
X183850000Y-71150000D01*
X183850000Y-72066988D01*
X183792993Y-72034075D01*
X183665826Y-72000000D01*
X183534174Y-72000000D01*
X183407007Y-72034075D01*
X183350000Y-72066988D01*
X183350000Y-71150000D01*
X182702155Y-71150000D01*
X182642627Y-71156401D01*
X182642620Y-71156403D01*
X182507913Y-71206645D01*
X182507906Y-71206649D01*
X182392812Y-71292809D01*
X182392809Y-71292812D01*
X182306649Y-71407906D01*
X182306645Y-71407913D01*
X182256403Y-71542620D01*
X182256401Y-71542627D01*
X182250000Y-71602155D01*
X180247848Y-71602155D01*
X180243598Y-71562627D01*
X180243596Y-71562620D01*
X180193354Y-71427913D01*
X180193350Y-71427906D01*
X180107190Y-71312812D01*
X180107187Y-71312809D01*
X179992093Y-71226649D01*
X179992086Y-71226645D01*
X179857379Y-71176403D01*
X179857372Y-71176401D01*
X179797844Y-71170000D01*
X179150000Y-71170000D01*
X179150000Y-72086988D01*
X179092993Y-72054075D01*
X178965826Y-72020000D01*
X178834174Y-72020000D01*
X178707007Y-72054075D01*
X178650000Y-72086988D01*
X178650000Y-71170000D01*
X178002155Y-71170000D01*
X177942627Y-71176401D01*
X177942620Y-71176403D01*
X177807913Y-71226645D01*
X177807906Y-71226649D01*
X177692812Y-71312809D01*
X177692809Y-71312812D01*
X177606649Y-71427906D01*
X177606645Y-71427913D01*
X177556403Y-71562620D01*
X177556401Y-71562627D01*
X177550000Y-71622155D01*
X175649999Y-71622155D01*
X175643598Y-71562627D01*
X175643596Y-71562620D01*
X175593354Y-71427913D01*
X175593350Y-71427906D01*
X175507190Y-71312812D01*
X175507187Y-71312809D01*
X175392093Y-71226649D01*
X175392086Y-71226645D01*
X175257379Y-71176403D01*
X175257372Y-71176401D01*
X175197844Y-71170000D01*
X174550000Y-71170000D01*
X174550000Y-72086988D01*
X174492993Y-72054075D01*
X174365826Y-72020000D01*
X174234174Y-72020000D01*
X174107007Y-72054075D01*
X174050000Y-72086988D01*
X174050000Y-71170000D01*
X173402155Y-71170000D01*
X173342627Y-71176401D01*
X173342620Y-71176403D01*
X173207913Y-71226645D01*
X173207906Y-71226649D01*
X173092812Y-71312809D01*
X173092809Y-71312812D01*
X173006649Y-71427906D01*
X173006645Y-71427913D01*
X172956403Y-71562620D01*
X172956401Y-71562627D01*
X172950000Y-71622155D01*
X171028504Y-71622155D01*
X170993354Y-71527913D01*
X170993350Y-71527906D01*
X170907190Y-71412812D01*
X170907187Y-71412809D01*
X170792093Y-71326649D01*
X170792086Y-71326645D01*
X170657379Y-71276403D01*
X170657372Y-71276401D01*
X170597844Y-71270000D01*
X169950000Y-71270000D01*
X169950000Y-72186988D01*
X169892993Y-72154075D01*
X169765826Y-72120000D01*
X169634174Y-72120000D01*
X169507007Y-72154075D01*
X169450000Y-72186988D01*
X169450000Y-71270000D01*
X168802155Y-71270000D01*
X168742627Y-71276401D01*
X168742620Y-71276403D01*
X168607913Y-71326645D01*
X168607906Y-71326649D01*
X168492812Y-71412809D01*
X168492809Y-71412812D01*
X168406649Y-71527906D01*
X168406645Y-71527913D01*
X168356403Y-71662620D01*
X168356401Y-71662627D01*
X168350000Y-71722155D01*
X166449999Y-71722155D01*
X166443598Y-71662627D01*
X166443596Y-71662620D01*
X166393354Y-71527913D01*
X166393350Y-71527906D01*
X166307190Y-71412812D01*
X166307187Y-71412809D01*
X166192093Y-71326649D01*
X166192086Y-71326645D01*
X166057379Y-71276403D01*
X166057372Y-71276401D01*
X165997844Y-71270000D01*
X165350000Y-71270000D01*
X165350000Y-72186988D01*
X165292993Y-72154075D01*
X165165826Y-72120000D01*
X165034174Y-72120000D01*
X164907007Y-72154075D01*
X164850000Y-72186988D01*
X164850000Y-71270000D01*
X164202155Y-71270000D01*
X164142627Y-71276401D01*
X164142620Y-71276403D01*
X164007913Y-71326645D01*
X164007906Y-71326649D01*
X163892812Y-71412809D01*
X163892809Y-71412812D01*
X163806649Y-71527906D01*
X163806645Y-71527913D01*
X163756403Y-71662620D01*
X163756401Y-71662627D01*
X163750000Y-71722155D01*
X161849999Y-71722155D01*
X161843598Y-71662627D01*
X161843596Y-71662620D01*
X161793354Y-71527913D01*
X161793350Y-71527906D01*
X161707190Y-71412812D01*
X161707187Y-71412809D01*
X161592093Y-71326649D01*
X161592086Y-71326645D01*
X161457379Y-71276403D01*
X161457372Y-71276401D01*
X161397844Y-71270000D01*
X160750000Y-71270000D01*
X160750000Y-72186988D01*
X160692993Y-72154075D01*
X160565826Y-72120000D01*
X160434174Y-72120000D01*
X160307007Y-72154075D01*
X160250000Y-72186988D01*
X160250000Y-71270000D01*
X159602155Y-71270000D01*
X159542627Y-71276401D01*
X159542620Y-71276403D01*
X159407913Y-71326645D01*
X159407906Y-71326649D01*
X159292812Y-71412809D01*
X159292809Y-71412812D01*
X159206649Y-71527906D01*
X159206645Y-71527913D01*
X159156403Y-71662620D01*
X159156401Y-71662627D01*
X159150000Y-71722155D01*
X157249999Y-71722155D01*
X157243598Y-71662627D01*
X157243596Y-71662620D01*
X157193354Y-71527913D01*
X157193350Y-71527906D01*
X157107190Y-71412812D01*
X157107187Y-71412809D01*
X156992093Y-71326649D01*
X156992086Y-71326645D01*
X156857379Y-71276403D01*
X156857372Y-71276401D01*
X156797844Y-71270000D01*
X156150000Y-71270000D01*
X156150000Y-72186988D01*
X156092993Y-72154075D01*
X155965826Y-72120000D01*
X155834174Y-72120000D01*
X155707007Y-72154075D01*
X155650000Y-72186988D01*
X155650000Y-71270000D01*
X155002155Y-71270000D01*
X154942627Y-71276401D01*
X154942620Y-71276403D01*
X154807913Y-71326645D01*
X154807906Y-71326649D01*
X154692812Y-71412809D01*
X154692809Y-71412812D01*
X154606649Y-71527906D01*
X154606645Y-71527913D01*
X154556403Y-71662620D01*
X154556401Y-71662627D01*
X154550000Y-71722155D01*
X152649999Y-71722155D01*
X152643598Y-71662627D01*
X152643596Y-71662620D01*
X152593354Y-71527913D01*
X152593350Y-71527906D01*
X152507190Y-71412812D01*
X152507187Y-71412809D01*
X152392093Y-71326649D01*
X152392086Y-71326645D01*
X152257379Y-71276403D01*
X152257372Y-71276401D01*
X152197844Y-71270000D01*
X151550000Y-71270000D01*
X151550000Y-72186988D01*
X151492993Y-72154075D01*
X151365826Y-72120000D01*
X151234174Y-72120000D01*
X151107007Y-72154075D01*
X151050000Y-72186988D01*
X151050000Y-71270000D01*
X150402155Y-71270000D01*
X150342627Y-71276401D01*
X150342620Y-71276403D01*
X150207913Y-71326645D01*
X150207906Y-71326649D01*
X150092812Y-71412809D01*
X150092809Y-71412812D01*
X150006649Y-71527906D01*
X150006645Y-71527913D01*
X149956403Y-71662620D01*
X149956401Y-71662627D01*
X149950000Y-71722155D01*
X148049999Y-71722155D01*
X148043598Y-71662627D01*
X148043596Y-71662620D01*
X147993354Y-71527913D01*
X147993350Y-71527906D01*
X147907190Y-71412812D01*
X147907187Y-71412809D01*
X147792093Y-71326649D01*
X147792086Y-71326645D01*
X147657379Y-71276403D01*
X147657372Y-71276401D01*
X147597844Y-71270000D01*
X146950000Y-71270000D01*
X146950000Y-72186988D01*
X146892993Y-72154075D01*
X146765826Y-72120000D01*
X146634174Y-72120000D01*
X146507007Y-72154075D01*
X146450000Y-72186988D01*
X146450000Y-71270000D01*
X145802155Y-71270000D01*
X145742627Y-71276401D01*
X145742620Y-71276403D01*
X145607913Y-71326645D01*
X145607906Y-71326649D01*
X145492812Y-71412809D01*
X145492809Y-71412812D01*
X145406649Y-71527906D01*
X145406645Y-71527913D01*
X145356403Y-71662620D01*
X145356401Y-71662627D01*
X145350000Y-71722155D01*
X134505386Y-71722155D01*
X134505489Y-70634488D01*
X134525180Y-70567451D01*
X134577988Y-70521701D01*
X134629489Y-70510500D01*
X195508912Y-70510500D01*
X195531018Y-70513410D01*
G37*
%TD.AperFunction*%
%TD*%
M02*
